<svg xmlns="http://www.w3.org/2000/svg" width="703" height="145"><title>Happy Scribe</title><g fill="none" fill-rule="nonzero"><path fill="#269EF7" d="M112.17 59.87a31.84 31.84 0 0 0-45-1.16l-8.18 7.84a5.56 5.56 0 0 1-4.96 1.37 5.49 5.49 0 0 1-4.14-6.57c.2-.87.63-1.68 1.23-2.35L28.69 80.25a31.82 31.82 0 0 0 48.4 5.44l8.18-7.84a5.45 5.45 0 0 1 4.96-1.37 5.35 5.35 0 0 1 3.92 3.35 5.4 5.4 0 0 1-1.31 5.94l22.74-21.59c-1-1.53-2.15-2.97-3.41-4.31Z"/><path fill="#FF8388" d="m122.42 57.68-6.84 6.5a31.77 31.77 0 0 1-4.58 40.71l29.58-28.09a13.16 13.16 0 0 0 .49-18.62 13.16 13.16 0 0 0-18.65-.5ZM26 49.86a31.67 31.67 0 0 1 6.33-9.42L4.11 67.22a13.19 13.19 0 1 0 18.16 19.13l6.42-6.1A31.78 31.78 0 0 1 26 49.86Z"/><path fill="#1300A8" d="m58.94 66.57-.04.04z"/><path fill="#022494" d="m51.41 58.63 37.83-35.91a13.17 13.17 0 0 0 .48-18.62 13.17 13.17 0 0 0-18.62-.48L32.32 40.44a31.78 31.78 0 0 0-3.63 39.81L51.12 59l.29-.37ZM120.48 76.54a31.63 31.63 0 0 0-4.9-12.36L92.84 85.77l-37.41 35.51a13.2 13.2 0 0 0-.43 18.65 13.19 13.19 0 0 0 18.65.48l18.58-17.64L111 104.89a31.75 31.75 0 0 0 9.48-28.35Z"/><path fill="#302A26" d="M316.88 48.32A18.73 18.73 0 0 0 304 53.26v-2a1.5 1.5 0 0 0-1.48-1.48h-12.4a1.47 1.47 0 0 0-1.48 1.48V119a1.48 1.48 0 0 0 1.48 1.43h12.36a1.49 1.49 0 0 0 1.44-1.43V93.24a19.3 19.3 0 0 0 13.13 5.13c6.29.1 12.3-2.54 16.5-7.22a25.22 25.22 0 0 0 6.63-17.75c.2-6.59-2.18-13-6.62-17.86a21.9 21.9 0 0 0-16.68-7.22Zm4.42 32.76a11 11 0 0 1-15.48 0c-2.09-2-3.24-4.79-3.19-7.68a10.94 10.94 0 0 1 18.67-7.79 10.52 10.52 0 0 1 3.19 7.79c.05 2.9-1.1 5.68-3.19 7.68ZM278.37 49.75H266a1.47 1.47 0 0 0-1.48 1.48v2.15a19.51 19.51 0 0 0-13.13-5.06 21.64 21.64 0 0 0-16.51 7.22 25.07 25.07 0 0 0-6.62 17.65c0 7.11 2.2 13.19 6.62 18a21.9 21.9 0 0 0 16.71 7.22c4.79.03 9.4-1.76 12.93-5v2.06c0 .38.16.74.43 1 .28.28.66.44 1.05.44h12.36c.38-.01.74-.17 1-.44.27-.26.42-.62.43-1V51.23c0-.38-.16-.74-.43-1a1.47 1.47 0 0 0-.99-.48Zm-15.66 31.38a11 11 0 0 1-15.53-15.52 10.54 10.54 0 0 1 7.79-3.2 10.91 10.91 0 0 1 10.88 11c.08 2.9-1.06 5.7-3.14 7.72ZM372.36 48.32c-4.78-.06-9.4 1.7-12.92 4.94v-2c0-.8-.63-1.48-1.44-1.51h-12.4a1.47 1.47 0 0 0-1.48 1.48V119a1.48 1.48 0 0 0 1.48 1.43H358a1.49 1.49 0 0 0 1.44-1.43V93.24a19.3 19.3 0 0 0 13.12 5.13c6.29.1 12.31-2.53 16.51-7.22a25.22 25.22 0 0 0 6.63-17.75c.2-6.59-2.18-13-6.63-17.86a21.87 21.87 0 0 0-16.71-7.22Zm4.42 32.76a11 11 0 0 1-15.48 0c-2.09-2-3.24-4.79-3.19-7.68a10.94 10.94 0 0 1 18.67-7.79A10.52 10.52 0 0 1 380 73.4c.05 2.9-1.12 5.68-3.22 7.68ZM216.61 52.62c-2.58-3-6.87-4.3-12.51-4.3a18.4 18.4 0 0 0-8.54 1.8c-1.47.8-2.82 1.81-4 3V27.21a1.47 1.47 0 0 0-1.47-1.48h-12.34a1.48 1.48 0 0 0-1.48 1.48v68.25c0 .38.16.74.43 1 .28.28.66.44 1.05.44h12.36c.38-.01.74-.17 1-.44.27-.26.42-.62.43-1V72.78c0-4 .77-6.77 2-8.45 1.23-1.68 3.05-2.5 5.87-2.53 2.82-.03 4.43.76 5.36 2 .93 1.24 1.65 3.76 1.64 7.48v24.18a1.49 1.49 0 0 0 1.59 1.48h12.36c.82 0 1.47-.66 1.48-1.48V67.68c.06-2.63-.23-5.26-.87-7.81a20.35 20.35 0 0 0-4.36-7.25ZM702.37 76.38c.27-.27.42-.62.43-1V73.5c0-7.55-2.12-13.77-6.48-18.33-4.36-4.56-10.32-6.86-17.67-6.85-7.35.01-13.48 2.26-18 6.83S654 65.9 654 73.4s2.28 13.61 6.92 18.16c4.64 4.55 10.89 6.82 18.45 6.81 11 .07 19-5 22.93-14.71a1.48 1.48 0 0 0-1.14-2.02l-11.45-1.84c-.56-.1-1.13.15-1.45.62-2.55 3.64-5.49 5.25-9.3 5.28-3.13 0-5.29-.89-6.89-2.59-1.48-1.77-2.32-4-2.36-6.3h31.62c.39 0 .76-.15 1.04-.43ZM670.48 66c1.35-4 3.88-5.71 8.58-5.82 2.1-.1 4.15.57 5.78 1.89a9.27 9.27 0 0 1 2.64 3.93h-17ZM582.11 23.6a8.74 8.74 0 0 0-6.31 2.63l1.05 1.05-1.05-1.05a9 9 0 1 0 6.31-2.63ZM626.76 48.32c-4.85 0-9.54 1.8-13.13 5.06V27.21a1.48 1.48 0 0 0-1.48-1.48h-12.36a1.47 1.47 0 0 0-1.48 1.48v68.25c0 .82.66 1.47 1.48 1.48h12.36c.82 0 1.47-.66 1.48-1.48v-2.12a18.74 18.74 0 0 0 12.92 5 21.9 21.9 0 0 0 16.71-7.22c4.42-4.77 6.64-10.85 6.63-18a25.18 25.18 0 0 0-6.57-17.7 21.68 21.68 0 0 0-16.56-7.1ZM631 81.08a10.93 10.93 0 0 1-18.67-7.79 10.72 10.72 0 0 1 10.88-10.88 10.56 10.56 0 0 1 7.79 3.15 11.11 11.11 0 0 1 0 15.53v-.01ZM588.24 49.75h-12.36a1.47 1.47 0 0 0-1.48 1.48v44.23c0 .38.16.74.43 1 .27.27.62.43 1 .44h12.36c.82 0 1.47-.66 1.48-1.48V51.23c0-.82-.66-1.47-1.48-1.48h.05ZM474.31 66.48a41.56 41.56 0 0 1-7-2.86c-.45-.3-.7-.82-.66-1.36a1.7 1.7 0 0 1 .75-1.48 4.1 4.1 0 0 1 2.57-.72c1.88 0 4 .81 6.46 2.66.62.46 1.5.36 2-.22l6.12-7.25a1.47 1.47 0 0 0-.25-2.14 25.44 25.44 0 0 0-15.58-5 17.64 17.64 0 0 0-12.07 4.3 14.13 14.13 0 0 0-4.94 11c0 3.8.83 6.86 2.81 8.94 1.98 2.08 4.93 3.58 9.19 5.16a40 40 0 0 1 7.05 3 2 2 0 0 1 .66 1.75 3 3 0 0 1-1.07 2.41 4.55 4.55 0 0 1-3.17 1c-2.95 0-6.05-1.46-9.37-4.77-.29-.3-.69-.45-1.1-.43-.42.01-.8.2-1.07.52l-6.44 7.56a1.48 1.48 0 0 0 0 2 23.31 23.31 0 0 0 17.84 7.84c5.77 0 10.66-1.58 14.4-4.8 3.69-3.1 5.77-7.7 5.67-12.51 0-3.79-1-7-3.29-9.22-2.29-2.22-5.3-3.86-9.51-5.38Z"/><path fill="#302A26" d="M449.7 49.75h-14.2c-.56 0-1.07.32-1.32.82L422.9 73.12 411 50.54a1.48 1.48 0 0 0-1.31-.79h-14.4A1.47 1.47 0 0 0 394 52l20.54 36.73-15.86 29.57c-.25.45-.25 1 0 1.46.26.45.75.72 1.27.72h14c.55 0 1.05-.3 1.31-.79L451 51.92c.25-.45.25-1 0-1.45a1.48 1.48 0 0 0-1.3-.72ZM568.07 49.56a13.51 13.51 0 0 0-6-1.24 14.86 14.86 0 0 0-11.39 5v-2.09c0-.38-.16-.74-.43-1a1.48 1.48 0 0 0-1-.44h-12.39c-.82 0-1.47.66-1.48 1.48v44.19c.01.38.17.74.44 1 .26.27.62.43 1 .44h12.36a1.48 1.48 0 0 0 1.43-1.44V74.21c0-4.24.87-7.21 2.35-9s3.61-2.75 6.9-2.77c1.8.04 3.56.5 5.14 1.37.42.22.93.22 1.35 0 .43-.21.72-.62.79-1.09L569 51.14c.1-.68-.29-1.33-.93-1.58ZM528.25 51.15a24.41 24.41 0 0 0-11.62-2.83A25.8 25.8 0 0 0 498 55.53a24.2 24.2 0 0 0-7.44 18.07 23.65 23.65 0 0 0 7.39 17.61 25 25 0 0 0 18 7.16c4.27 0 8.49-1 12.3-2.92.5-.25.82-.76.82-1.32v-12a1.48 1.48 0 0 0-2.39-1.17c-2.5 2.1-5.64 3.3-8.9 3.37-3.06.14-6.05-.94-8.32-3a10.22 10.22 0 0 1-3.17-7.86 10.45 10.45 0 0 1 3.18-7.88c2.17-2.1 5.1-3.21 8.11-3.11 3.34.1 6.55 1.32 9.11 3.47.44.35 1.05.41 1.55.16.51-.25.83-.76.83-1.33V52.46c0-.56-.32-1.06-.82-1.31Z"/></g></svg>
