<svg width="689" height="110" viewBox="0 0 689 110" fill="none" xmlns="http://www.w3.org/2000/svg">
<path d="M0 17.2068H12.157V40.7727H12.344C15.3365 36.0969 22.8178 32.3563 30.6731 32.3563C45.2614 32.3563 60.0369 43.2041 60.0369 62.0942C60.0369 80.9843 45.4485 91.8321 30.6731 91.8321C22.8178 91.8321 15.1495 88.0915 12.344 83.4157H12.157V90.3358H0V17.2068ZM29.7379 43.7652C19.6382 43.7652 12.157 51.6205 12.157 62.0942C12.157 72.5679 19.6382 80.4232 29.7379 80.4232C39.8376 80.4232 47.3188 72.5679 47.3188 62.0942C47.3188 51.6205 39.8376 43.7652 29.7379 43.7652Z" fill="#333333"/>
<path d="M71.2589 33.8526H83.4159V65.4607C83.4159 73.6901 89.4009 79.6751 97.0691 79.6751C104.55 79.6751 110.722 73.6901 110.722 65.4607V33.8526H122.879V66.5829C122.879 82.4806 110.535 91.8321 97.2561 91.8321C83.7899 91.8321 71.6329 82.4806 71.6329 66.5829V33.8526H71.2589Z" fill="#333333"/>
<path d="M159.724 45.2615H134.849V33.8526H179.923L152.617 78.7399H179.175V90.1488H132.417L159.724 45.2615Z" fill="#333333"/>
<path d="M211.345 45.2615H186.469V33.8526H231.544L204.237 78.7399H230.796V90.1488H184.038L211.345 45.2615Z" fill="#333333"/>
<path d="M244.262 73.5031C248.564 78.1788 255.671 81.7324 262.03 81.7324C268.95 81.7324 273.252 77.8048 273.252 74.6253C273.252 70.8847 270.26 69.0144 265.958 68.0792L259.038 66.77C243.14 63.7775 238.838 58.7277 238.838 50.6853C238.838 41.1468 246.881 32.3563 260.908 32.3563C268.763 32.3563 275.496 34.6007 283.165 40.2116L276.245 48.628C270.26 43.5782 265.023 42.269 261.095 42.269C255.858 42.269 250.808 44.8874 250.808 49.3761C250.808 52.7427 253.427 54.426 258.103 55.3611L270.26 57.6055C280.359 59.4758 285.222 64.1515 285.222 72.5679C285.222 80.7973 278.489 91.458 261.282 91.458C251.744 91.458 243.514 88.0915 235.846 81.5454L244.262 73.5031Z" fill="#333333"/>
<path d="M307.291 40.7727H307.478C311.78 35.3488 318.326 32.3563 325.994 32.3563C344.51 32.3563 355.171 47.5058 355.171 62.0942C355.171 75.9345 343.575 91.8321 325.433 91.8321C317.017 91.8321 310.658 88.2785 307.478 83.4157H307.291V109.6H295.134V33.8526H307.291V40.7727ZM324.498 43.7652C314.959 43.7652 306.73 51.9946 306.73 62.0942C306.73 72.1939 314.959 80.4232 324.498 80.4232C334.223 80.4232 342.453 72.1939 342.453 62.0942C342.453 51.9946 334.223 43.7652 324.498 43.7652Z" fill="#333333"/>
<path d="M366.393 33.8526H377.802V40.0246H377.989C380.046 35.3488 384.161 32.3563 389.023 32.3563C391.642 32.3563 394.073 33.1045 395.57 34.0396L391.268 46.0096C390.146 45.0744 387.901 44.3263 386.779 44.3263C382.29 44.3263 378.363 47.6929 378.363 52.7427V89.9618H366.206V33.8526H366.393Z" fill="#333333"/>
<path d="M427.739 32.3563C447.378 32.3563 458.787 47.1318 458.787 62.0942C458.787 77.0567 447.378 91.8321 427.739 91.8321C408.101 91.8321 396.692 77.0567 396.692 62.0942C396.692 47.1318 408.101 32.3563 427.739 32.3563ZM427.739 80.4232C438.4 80.4232 446.068 72.1939 446.068 62.0942C446.068 51.9946 438.4 43.7652 427.739 43.7652C417.079 43.7652 409.41 51.9946 409.41 62.0942C409.41 72.1939 417.266 80.4232 427.739 80.4232Z" fill="#333333"/>
<path d="M470.008 33.8526H482.165V65.4607C482.165 73.6901 488.15 79.6751 495.818 79.6751C503.299 79.6751 509.471 73.6901 509.471 65.4607V33.8526H521.628V66.5829C521.628 82.4806 509.284 91.8321 496.005 91.8321C482.726 91.8321 470.382 82.4806 470.382 66.5829V33.8526H470.008Z" fill="#333333"/>
<path d="M531.728 33.8526H538.648V18.8901L550.805 15.5236V33.8526H560.531V45.2615H550.805V67.5181C550.805 73.5031 552.114 76.3086 555.855 78.3659L562.401 82.1065L556.977 91.6451C544.446 85.6601 538.648 81.3584 538.648 69.5755V45.0744H531.728V33.8526Z" fill="#333333"/>
<path opacity="0.1" d="M688.46 92.5802C688.46 95.1986 666.017 97.256 638.149 97.256C610.282 97.256 587.838 95.1986 587.838 92.5802C587.838 89.9618 610.282 87.9044 638.149 87.9044C666.017 87.9044 688.46 89.9618 688.46 92.5802Z" fill="#231F20"/>
<path d="M612.152 37.7802V37.4061V30.299H619.259H656.291H663.398V37.4061V37.7802C663.398 51.6205 651.802 62.8423 637.588 62.8423V60.4109V57.9795C649.184 57.9795 658.535 48.815 658.535 37.7802V37.4061V34.9748H656.104H619.072H616.641V37.4061V37.7802C616.641 48.815 625.992 57.9795 637.588 57.9795V60.4109V62.8423C623.748 62.6553 612.152 51.6205 612.152 37.7802Z" fill="#82BC47"/>
<path d="M643.012 46.0096H633.286V96.8819H643.012V46.0096Z" fill="#82BC47"/>
<path d="M654.607 16.2717C654.607 7.29422 647.126 0 637.775 0C628.423 0 620.942 7.29422 620.942 16.2717C620.942 24.127 620.942 20.5734 620.942 22.0696H654.607V16.2717Z" fill="#698569"/>
<path d="M620.755 36.8451C620.755 45.8225 628.236 53.1167 637.588 53.1167C646.939 53.1167 654.42 45.8225 654.42 36.8451C654.42 28.9898 654.42 26.7454 654.42 25.0621H620.755V36.8451Z" fill="#698569"/>
<path d="M676.491 86.2212C664.895 97.8171 644.696 96.6949 644.696 96.6949C644.696 96.6949 643.386 76.4956 655.169 64.8997C666.765 53.3038 686.965 54.4259 686.965 54.4259C686.965 54.4259 688.274 74.6253 676.491 86.2212Z" fill="#82BC47"/>
<path d="M599.621 86.2212C611.217 97.8171 631.416 96.6949 631.416 96.6949C631.416 96.6949 632.725 76.4956 620.942 64.8997C609.347 53.3038 589.147 54.4259 589.147 54.4259C589.147 54.4259 588.025 74.6253 599.621 86.2212Z" fill="#82BC47"/>
</svg>
