<svg width="267" height="69" viewBox="0 0 267 69" fill="none" xmlns="http://www.w3.org/2000/svg">
<path d="M95.1819 26.1848H90.1574V44.1123H86.9947V26.1848H81.9663V23.2664H95.1819V26.1848Z" fill="#0D3D60"/>
<path d="M106.339 32.0137H112.231V34.9945H106.339V41.1937H113.829V44.1082H103.172V23.2623H113.825V26.1808H106.339V32.0137Z" fill="#0D3D60"/>
<path d="M132.436 44.1123H121.814V23.2664H124.946V41.1627H132.436V44.1123Z" fill="#0D3D60"/>
<path d="M154.412 38.0768C154.412 42.8343 151.88 44.4474 147.456 44.4474C142.926 44.4474 140.43 42.7057 140.43 38.0768V29.263C140.43 24.4354 142.926 22.9625 147.456 22.9625C151.95 22.9625 154.412 24.6692 154.412 29.263V38.0768ZM147.219 26.1849C144.622 26.1849 143.623 27.8603 143.623 30.3735V37.0092C143.623 39.725 144.754 41.1978 147.219 41.1978H147.618C150.413 41.1978 151.245 39.4873 151.245 37.0092V30.3735C151.245 27.5915 149.948 26.1849 147.618 26.1849H147.219Z" fill="#0D3D60"/>
<path d="M169.258 44.4474C166.595 44.4474 163.73 43.1733 162.766 40.6601L165.294 38.482C165.294 38.482 165.395 38.6846 165.46 38.8171C166.227 40.0912 167.524 41.229 169.087 41.229C170.787 41.229 172.118 40.0562 172.118 38.4158C172.118 36.5377 170.419 35.7 168.588 34.9986C167.222 34.4609 165.526 33.6933 164.226 32.5205C162.96 31.3477 162.395 30.1086 162.395 28.6318C162.395 24.9107 166.056 22.9664 169.219 22.9664C171.851 22.9664 173.779 24.4081 174.913 26.82L172.517 28.4955C171.453 27.0888 170.353 26.1186 168.755 26.1186C167.423 26.1186 165.793 26.82 165.793 28.2617C165.793 30.1709 168.592 31.0087 170.222 31.7802C172.618 32.8517 175.715 34.7259 175.715 37.7456C175.715 38.7158 175.548 40.4926 174.549 42.0005C173.353 43.8747 171.224 44.4474 169.258 44.4474Z" fill="#0D3D60"/>
<path d="M202.815 44.1123H192.193V23.2664H195.325V41.1627H202.815V44.1123Z" fill="#0D3D60"/>
<path d="M220.959 39.2184H215.133L213.837 44.1123H210.74L216.268 23.2664H219.829L225.388 44.1123H222.291L220.959 39.2184ZM215.9 36.3389H220.262L217.998 28.2616L215.9 36.3389Z" fill="#0D3D60"/>
<path d="M239.47 44.1123H233.312V23.2664H238.305C239.939 23.2664 241.77 23.3326 242.9 24.1041C243.535 24.5093 243.965 25.1094 244.266 25.8458C244.534 26.516 244.634 27.3537 244.634 28.359C244.634 29.5981 244.433 30.6384 243.802 31.7762C244.735 32.6139 245.099 33.3153 245.366 34.1881C245.633 35.057 245.765 36.1636 245.765 37.5039C245.765 39.1794 245.598 41.8952 244.069 43.0018C242.633 44.0421 240.968 44.1123 239.47 44.1123ZM239.137 30.6735C240.57 30.6735 241.402 29.9371 241.402 28.5304C241.402 26.6524 239.803 26.4186 238.441 26.4186H236.478V30.6735H239.137ZM236.474 33.888V40.9951H238.371C240.601 40.9951 242.567 39.8535 242.567 37.4065C242.567 35.396 241.235 33.888 239.106 33.888H236.474Z" fill="#0D3D60"/>
<path d="M260.544 44.4474C257.881 44.4474 255.016 43.1733 254.052 40.6601L256.58 38.482C256.58 38.482 256.681 38.6846 256.747 38.8171C257.513 40.0912 258.81 41.229 260.374 41.229C262.073 41.229 263.405 40.0562 263.405 38.4158C263.405 36.5377 261.705 35.7 259.874 34.9986C258.508 34.4609 256.812 33.6933 255.512 32.5205C254.246 31.3477 253.681 30.1086 253.681 28.6318C253.681 24.9107 257.343 22.9664 260.505 22.9664C263.138 22.9664 265.065 24.4081 266.199 26.82L263.803 28.4955C262.739 27.0888 261.639 26.1186 260.041 26.1186C258.709 26.1186 257.079 26.82 257.079 28.2617C257.079 30.1709 259.878 31.0087 261.508 31.7802C263.904 32.8517 267.001 34.7259 267.001 37.7456C267.001 38.7158 266.834 40.4926 265.836 42.0005C264.636 43.8747 262.507 44.4474 260.544 44.4474Z" fill="#0D3D60"/>
<path d="M29.858 0.29478C6.39689 -3.06363 -2.87794 22.9646 0.768127 43.2182C1.62841 48.0005 3.27033 52.8931 6.84252 56.1628C10.3194 59.3438 15.0903 60.5376 19.4512 62.3019C24.5224 64.3515 29.3028 67.3096 34.6742 68.3259C52.5685 71.7083 65.5632 49.748 66.0232 34.1641C66.557 15.8787 45.8364 2.58166 29.858 0.29478ZM35.3509 28.7921C35.2651 29.5089 35.2366 29.6863 35.2056 30.1369C35.115 31.4649 35.0316 32.793 34.953 34.121C34.7862 37.0311 34.7147 46.5958 34.5479 49.5059C34.524 49.8943 34.5526 50.6661 34.3739 50.9706C34.2047 51.2582 33.9259 51.311 33.4898 51.275C33.0537 51.2391 33.0561 50.6829 33.0704 50.3953C33.199 47.5858 33.2586 38.1194 33.4683 35.3148C33.5756 33.8693 33.8329 32.4382 33.9926 30.9951C34.0164 30.7842 34.2285 29.3914 34.0355 29.3938C33.6304 29.3986 33.3134 30.5205 33.2181 30.6979C32.7558 31.5656 32.5818 32.2248 32.0576 33.0519C31.7859 33.481 31.4284 34.6987 30.6325 34.3343C30.225 34.1474 30.5253 33.2173 30.7231 32.7738C31.7549 30.4629 32.8916 28.2 33.9306 25.8892C34.0808 25.5536 34.0331 25.0622 34.0808 24.5372C34.1284 24.0146 33.2324 25.0526 33.0322 25.3378C32.0957 26.6682 31.4261 27.4545 30.4395 28.7466C30.2822 28.9527 29.9152 29.1493 29.5649 29.1924C29.6674 29.3507 29.7555 29.4921 29.8175 29.6C30.0344 29.9787 30.4371 30.8513 29.9081 31.0119C29.379 31.1725 28.9453 30.741 28.6593 30.403C27.9897 29.6072 27.3296 28.6986 26.7029 27.8644C26.486 27.5768 25.7711 26.7665 25.5137 26.7929C25.3016 26.8145 25.2873 27.4066 25.335 28.26C25.3112 30.3623 26.2811 31.0167 27.1699 32.2033C28.2089 33.5888 29.2742 34.9552 30.2464 36.3863C30.4466 36.6811 30.7159 37.4794 30.3108 37.6424C29.9057 37.8054 29.3576 37.3308 29.0954 37.0024C28.0159 35.6552 27.0293 34.2313 25.9808 32.8577C25.8187 32.6467 25.5185 32.057 25.2635 32.1721C25.1181 32.2392 25.1062 32.594 25.111 33.2149C25.1181 33.8381 24.8631 33.934 25.9236 35.1494C26.9841 36.5972 27.9706 37.8534 29.0621 39.2797C29.3075 39.5985 29.8723 40.3512 29.8818 40.7467C29.889 41.1446 29.9295 41.6433 29.5029 41.5833C29.0597 41.521 28.5616 40.8402 28.3829 40.5645C27.5631 39.2988 26.8435 38.5845 26.0451 37.3068C25.8354 36.9736 25.3183 36.4294 25.1181 36.264C24.8131 36.0099 24.8369 36.5637 24.8584 37.6544C25.0276 39.9365 25.1753 40.694 26.5289 41.8398C27.7323 42.8586 28.7642 44.1003 29.7794 45.3205C30.0653 45.6633 30.4848 46.5047 30.1464 46.7636C29.808 47.0225 28.931 46.7803 28.6284 46.4807C27.7371 45.5962 26.9984 44.5534 26.2048 43.573C25.9117 43.2134 25.5304 42.7891 25.335 42.4823C25.1396 42.1754 24.968 43.3764 24.9465 43.8343C24.8369 46.0205 24.8083 48.2138 24.6892 50.4C24.6725 50.7069 24.57 51.2367 24.1292 51.2918C23.6883 51.3493 23.5286 50.6182 23.531 50.2826C23.5453 48.3457 23.674 46.4112 23.7121 44.4743C23.7193 44.0644 23.5405 43.4699 23.4071 43.2374C23.276 43.0072 22.7446 43.7623 22.5254 44.1003C21.8009 45.2126 21.2242 45.8694 20.4307 46.9266C20.1423 47.3101 19.1986 48.0628 18.815 47.8639C18.0286 47.4539 19.12 46.09 19.394 45.7208C20.5927 44.1003 21.3696 43.2062 22.7875 41.7775C23.5525 40.9361 23.6406 39.5649 23.736 38.1314C23.7407 38.0499 23.7097 36.8561 23.7145 36.4942C23.7193 36.1322 22.8828 37.64 22.7446 37.8677C21.9368 39.203 21.963 38.7882 21.1623 40.1283C20.9883 40.4183 19.9207 41.7439 19.5704 42.221C19.3416 42.5302 18.7864 43.1774 18.2883 42.9593C17.7902 42.7411 18.4146 41.9045 18.5671 41.6696C19.854 39.7064 21.1694 37.9948 22.38 35.986C23.0711 34.8377 23.9099 34.5357 23.96 32.3063C23.9981 32.2105 24.0434 31.4625 23.9766 31.2876C23.8408 30.9304 23.4357 31.791 23.3189 31.9348C22.3943 33.0686 21.5364 34.2648 20.5522 35.3483C20.1733 35.763 19.6729 36.3192 19.0556 36.1562C18.4384 35.9932 19.0294 34.9144 19.4798 34.3176C20.9859 32.3135 22.4777 30.2927 23.8718 28.2096C24.2149 27.699 24.1983 26.6611 24.2007 26.3734C24.203 26.0857 24.3079 25.7166 24.1959 25.6063C24.1554 25.568 23.9504 25.6686 23.7431 25.9443C23.5334 26.2176 23.1736 26.721 22.8185 27.1908C21.87 28.5812 21.0479 29.9332 20.0851 31.1773C19.873 31.4506 19.3035 31.8197 18.6839 31.4002C18.3955 31.2061 18.703 30.6164 18.8888 30.3527C20.2853 28.3822 21.6961 26.4165 23.1831 24.5156C23.593 23.9906 24.4223 23.3698 24.8465 23.2835C25.273 23.1972 25.8426 24.0817 26.2382 24.5516C27.1223 25.6063 27.7133 26.8816 28.6188 27.922C28.7451 28.0658 28.8762 28.2336 29.0073 28.4062C29.0692 28.2192 29.1598 28.0442 29.2384 27.9411C30.5205 26.22 32.1648 24.2064 32.9584 23.4369C33.7519 22.665 33.9092 19.81 33.9259 19.0861C33.9402 18.3621 33.4469 19.0381 33.3396 19.1867C32.4818 20.3925 31.8383 21.1644 31.0186 22.3989C30.7254 22.8376 30.1416 23.5783 29.7698 23.9427C29.4672 24.2375 28.9405 24.844 28.5283 24.5683C28.116 24.2951 28.3591 23.516 28.5902 23.2068C30.3322 20.8528 32.1743 18.5707 34.0379 16.3102C34.2833 16.0129 34.953 15.7372 35.227 15.8715C35.5726 16.0393 35.7251 16.128 36.104 17.0341C36.6163 18.2566 37.0167 18.9686 37.8794 19.9227C38.1844 20.2607 39.252 21.6007 39.2591 22.0969C39.2711 22.9575 38.5824 23.1876 37.9961 22.4469C37.6768 22.0465 37.1644 21.337 36.9595 21.1572C36.7546 20.9774 36.3471 20.5315 36.1874 20.3541C35.8347 19.9634 35.675 19.8364 35.3104 19.4576C35.339 20.0713 35.2389 21.8452 35.308 22.4564C35.3319 22.6722 35.9396 23.4297 36.0825 23.6095C37.7459 25.6878 38.9922 27.2052 40.6056 29.3219C40.8343 29.6239 41.0774 30.2016 40.5817 30.3742C40.2672 30.4845 39.6476 30.0075 39.3878 29.6695C38.1606 28.0754 35.6822 24.5588 35.7418 25.1508C35.849 26.1912 35.4844 26.5028 36.2779 27.6343C37.2002 29.3243 38.151 31.0023 38.9851 32.7354C39.159 33.0998 39.5832 34.0491 38.8016 34.1713C38.3298 34.2456 38.0771 33.4881 37.8889 33.1022C37.3813 32.0522 36.8785 31.0838 36.3876 30.0243C36.1707 29.5448 35.4367 28.0754 35.3509 28.7921ZM48.2003 39.7112C47.719 40.042 47.3663 39.3851 47.1256 39.0399C46.5703 38.2393 45.9722 37.3524 45.5075 36.487C45.0619 35.6576 45.0094 35.4922 44.4947 34.7059C44.3565 34.4949 44.1396 33.759 43.7417 33.6919C43.3437 33.6272 43.277 34.646 43.3199 34.8881C43.5129 38.2681 43.9442 39.541 45.7196 41.2501C45.8697 41.3628 46.9159 42.5326 47.3734 43.2949C47.6618 43.7743 47.9716 44.6685 47.5188 44.9681C47.0684 45.2677 46.3463 44.0883 45.915 43.6736C45.2835 43.0648 44.6091 41.9573 44.2707 41.9669C43.9347 41.9789 44.1134 43.6161 44.111 44.4407C44.1063 46.2674 44.1515 48.0916 44.173 49.9182C44.1801 50.6613 44.0681 52.1572 43.0577 51.3397C42.3619 50.7788 42.6526 49.12 42.655 48.0484C42.6621 45.402 42.7837 42.7555 42.8123 40.1067C42.8146 39.8262 42.7098 39.0855 42.4095 38.9465C42.0711 38.7906 41.7852 39.8382 41.6374 40.1858C41.0154 41.6504 40.4793 43.1511 39.8454 44.6109C39.557 45.2773 39.1114 46.1091 38.2368 45.6633C37.8031 45.2893 38.1105 44.4072 38.3655 43.8678C39.5356 41.4083 40.3339 39.8789 41.5516 37.441C41.6136 37.314 41.9019 36.7722 42.1641 36.1658C42.1712 35.3124 42.3523 34.5117 42.1164 33.9844C41.8829 33.457 41.0274 35.2429 40.7581 35.6911C39.8525 37.1869 39.0471 38.7475 38.0962 40.2098C37.8913 40.5238 37.4885 40.9049 36.7855 40.6892C36.0825 40.4734 36.5305 39.5985 36.7379 39.2605C38.2869 36.7411 39.924 34.2792 41.5254 31.791C42.1545 30.8129 43.0029 30.705 43.9037 31.7981C45.05 33.1909 46.0008 34.7514 47.0112 36.2569C47.4568 36.9233 47.8453 37.4243 48.1479 38.1578C48.3123 38.5509 48.6817 39.3803 48.2003 39.7112Z" fill="#0D3D60"/>
</svg>
