<?xml version="1.0" encoding="utf-8"?>
<!-- Generator: Adobe Illustrator 24.2.3, SVG Export Plug-In . SVG Version: 6.00 Build 0)  -->
<svg version="1.1" id="Layer_1" xmlns="http://www.w3.org/2000/svg" xmlns:xlink="http://www.w3.org/1999/xlink" x="0px" y="0px"
	 viewBox="0 0 476.1 58.5" style="enable-background:new 0 0 476.1 58.5;" xml:space="preserve">
<style type="text/css">
	.st0{fill:#323232;}
	.st1{fill:#7935D2;}
</style>
<path class="st0" d="M172.4,16.8c2.7-0.5,5.4-0.9,8.2-1.2c6.5-0.2,11.8,2,15.4,7.8c1.3,2.1,2.1,4.5,2.1,7c0.1,4.2,0.2,8.5,0,12.7
	c-0.4,8.5-6.6,14.4-15.4,15c-6.1,0.3-12.3-0.5-18.1-2.6c-1-0.3-1.2-1-1.2-1.9V3.4c0-2.3,0.1-2.4,2.3-2.4h5.2c1.2,0,1.6,0.5,1.6,1.7
	v13C172.4,16.1,172.4,16.4,172.4,16.8z M172.4,37.3v10.3c0,1.1,0.3,1.6,1.3,1.7c2.7,0.3,5.3,0.5,8,0.6c4.3-0.3,6.6-2.5,7-6.8
	c0.3-4.3,0.3-8.5,0-12.8c0-2.9-2-5.3-4.8-6c-3.6-1.1-7.4-0.7-10.7,1.1c-0.5,0.4-0.8,0.9-0.8,1.5V37.3z"/>
<path class="st0" d="M327.6,16.8c3.4-1,6.9-1.4,10.4-1.2c8.6,0.5,14.5,6,15,14.6c0.4,7.5,0.2,15,0.3,22.5v3.1c0,1-0.4,1.5-1.5,1.5
	c-2-0.1-3.9-0.1-5.9,0c-1.4,0-1.8-0.6-1.8-1.8V34c0-1.2-0.1-2.5-0.3-3.7c-0.6-3.8-2.6-5.8-6.4-6.3c-2.9-0.4-5.8-0.1-8.6,0.7
	c-1,0.3-1.3,0.8-1.3,1.9v28.5c0,2.2-0.1,2.3-2.3,2.3h-4.3c-2.6,0-2.6,0-2.6-2.5V3.1c0-1.8,0.2-2,2-2h5.3c1.6,0,1.9,0.3,1.9,1.9v12.3
	C327.6,15.8,327.6,16.3,327.6,16.8z"/>
<path class="st0" d="M450.4,32c4.1-4.5,8.1-8.6,11.8-12.9c1.7-2,3.1-2.5,6.1-2.6c1.4-0.1,3.5-0.1,5.2-0.1s1,1.3,0.7,1.7
	c-4.4,4.7-8.8,9.4-13.2,14c-0.5,0.5-1,1.1-1.6,1.7l4.8,6.3c3.8,5,7.7,9.9,11.5,14.9c0.7,0.9,1.2,2-1,2.1h-7c-1,0-1.9-0.4-2.5-1.2
	c-3.6-4.8-7.3-9.6-11-14.4c-0.3-0.4-0.6-0.8-1-1.2c-0.8,0.8-1.6,1.6-2.3,2.4c-0.3,0.4-0.4,0.9-0.4,1.4v11.2c0,1.7-0.2,1.9-1.9,2
	h-5.3c-1.8,0-1.9-0.1-1.9-2V3.2c0-2.1,0.1-2.2,2.2-2.2h5c1.7,0,1.9,0.3,1.9,2v27.2C450.4,30.8,450.4,31.4,450.4,32z"/>
<path class="st0" d="M271.8,16.6c0.7-7.4,6-13.6,13.2-15.4c8.6-2.4,16.6-1,24.2,3.7c1.4,0.9,1.5,1.2,0.5,2.7s-2,2.9-3,4.4
	c-0.3,0.7-1.1,1-1.8,0.7c-0.1-0.1-0.3-0.1-0.4-0.2c-2.9-1.9-6.2-3-9.7-3.3c-3.9-0.3-7.6,0.2-10.7,3c-2.1,1.9-3.2,4.7-3.1,7.5
	c-0.1,6.3-0.1,12.7,0,19c0.1,6.1,4.2,10.2,10.4,10.6c5,0.4,10-0.9,14.2-3.6c1.5-1,1.6-1,2.6,0.6s2.1,3,3.1,4.5
	c0.5,0.5,0.5,1.3,0,1.8c-0.1,0.1-0.1,0.1-0.2,0.2c-7.6,6.3-22.3,7.4-30.8,2.4c-5.8-3.4-8.4-8.7-8.8-15.3c-0.2-3.5,0-7.1,0-10.6
	C271.6,29.1,271.4,20.7,271.8,16.6z"/>
<path class="st0" d="M238.4,40.7c-0.5,5.4,1.6,8.7,6.1,9.2c2.3,0.2,4.6,0.1,6.9-0.4c2.1-0.6,4.1-1.5,5.9-2.7
	c1.1-0.6,1.7-0.6,2.4,0.5c0.9,1.3,1.8,2.5,2.7,3.7c0.5,0.5,0.5,1.2,0,1.7c-0.1,0.1-0.2,0.2-0.3,0.2c-7.3,5.4-15.3,6.9-23.8,3.8
	c-5.3-1.7-9-6.6-9.1-12.2c-0.3-5-0.3-9.9,0-14.9c0.6-7.3,5.3-12.2,12.5-13.5c4.5-0.8,8.9-0.7,13.1,1.3c5.5,2.6,8.1,7,8.4,12.9
	c0.2,2.9,0,5.9,0.1,8.8c0,1.4-0.5,1.8-1.8,1.8H240C239.5,40.7,238.9,40.7,238.4,40.7z M254.5,33.5c0.2-3.6,0-7.1-3.5-8.9
	c-3.1-1.8-7-1.6-9.9,0.5c-2.8,2-2.7,5.2-2.7,8.4H254.5z"/>
<path class="st0" d="M370.8,40.7c-0.8,6.2,2.7,9.8,8.7,9.4c3.6-0.1,7.1-1.3,10-3.3c1.1-0.7,1.8-0.6,2.5,0.5s1.8,2.4,2.7,3.6
	c0.5,0.7,0.6,1.3-0.2,1.9c-7.4,5.5-15.5,7-24.2,3.7c-5.2-1.8-8.7-6.6-8.8-12.1c-0.2-4.9-0.2-9.9,0-14.8c0.6-7.3,5.2-12.2,12.4-13.6
	c4.4-1,9-0.6,13.1,1.2c5.5,2.5,8.1,7,8.5,12.9c0.2,2.9,0.1,5.9,0.1,8.8c0,1.6-0.2,1.8-1.9,1.8H370.8z M386.7,33.5
	c0.6-4-0.5-7.2-3.1-8.7c-3-1.9-6.8-1.8-9.8,0.1c-3.2,2-3.1,5.3-3.1,8.6H386.7z"/>
<path class="st0" d="M144.7,33c0.1-2.3,0.1-4.4-0.9-6.3c-1-1.8-3-3-5.1-2.9c-3.9-0.4-7.8,0.3-11.3,2.1c-1.2,0.6-1.9,0.5-2.6-0.7
	s-1.6-2.5-2.4-3.7c-0.7-1-0.6-1.6,0.5-2.2c4.8-2.9,10.1-3.8,15.7-3.6c3.7-0.1,7.2,1.1,10.2,3.2c3.1,2.4,5,6.1,5,10
	c0.3,5.5,0.2,11,0.2,16.5v8.7c0.1,1-0.5,1.9-1.4,2.1c-7.2,1.9-14.4,3-21.8,1.5c-4-0.8-7.6-2.5-9.7-6.4c-3.9-7.3-0.2-15.4,7.8-17.6
	c4.4-1.1,9.1-1.4,13.6-0.7C143.2,32.9,144,32.9,144.7,33z M144.7,40.4c-1.1-0.1-2-0.3-2.9-0.4c-3.2-0.2-6.5-0.6-9.7,0.4
	c-1.9,0.5-3.3,2.2-3.3,4.2c-0.2,2,1,3.9,2.9,4.6c4.3,1.8,8.6,0.9,12.9,0.1C144.7,46.3,144.7,43.4,144.7,40.4z"/>
<path class="st0" d="M96.6,9.7H81.1c-1,0-1.6-0.4-1.6-1.5V2.3c0-1,0.5-1.4,1.5-1.4h39.8c2.2,0,2.3,0.1,2.3,2.3v4.5c0,1.8-0.2,2-2,2
	H106v45.1c0,2.4,0,2.4-2.4,2.4H98c-1,0-1.5-0.4-1.4-1.4V9.7z"/>
<path class="st0" d="M403.2,27.5c1.3-6.4,5.7-10.1,11.9-11.4c6-1.3,12.2-0.3,17.5,2.8c1.5,0.9,1.5,1.2,0.6,2.6
	c-0.6,1-1.3,1.9-1.9,2.9c-1.3,2.1-1.3,2-3.5,1c-2.5-1.2-5.2-1.8-7.9-1.7c-5.2,0.2-7.8,2.9-7.9,8c0,3.5-0.1,7.1,0,10.6
	c0.1,4.6,2.7,7.2,7.2,7.5c3.5,0.3,6.9-0.6,9.8-2.5c1.2-0.8,2-0.6,2.7,0.6s1.8,2.6,2.7,3.9c0.6,0.8,0.5,1.4-0.4,2
	c-7.1,4.7-14.7,5.6-22.6,2.4c-5.7-2.3-8.3-7-8.7-13c-0.1-2.2,0-4.5,0-6.7C402.6,33.5,402.8,30.5,403.2,27.5z"/>
<path class="st0" d="M206.4,23.7V2.8c0-1.6,0.2-1.9,1.8-1.9h5.4c1.6,0,1.9,0.3,1.9,1.9v16.5c0,8.1,0,16.3,0.1,24.4
	c0,0.7,0.1,1.5,0.3,2.2c0.6,2.7,1.9,3.8,4.7,3.9c1,0,1.9,0,2.9-0.1c0.9,0,1.4,0.4,1.4,1.3c0.1,1.9,0,3.7-0.1,5.6
	c0,0.5-0.6,1.3-1,1.3c-3.1,0.3-6.3,0.6-9.4-0.6c-4.8-1.8-6.9-5.7-7.7-10.4c-0.2-1.9-0.3-3.8-0.3-5.7L206.4,23.7z"/>
<g>
	<path class="st1" d="M26.5,9.5l-8.9-8.9c-0.3-0.3-0.9-0.4-1.3-0.3C9.1,3.5,3.3,9.3,0.1,16.4c-0.2,0.4-0.1,1,0.3,1.3l8.9,8.9
		c0.3,0.3,0.9,0.2,1-0.3c1.3-8.1,7.7-14.6,15.9-15.9C26.6,10.4,26.8,9.8,26.5,9.5z"/>
	<path class="st1" d="M49,26.7l8.9-8.9c0.3-0.3,0.4-0.9,0.3-1.3C55,9.3,49.2,3.5,42.1,0.3c-0.4-0.2-1-0.1-1.3,0.3l-8.9,8.9
		c-0.3,0.3-0.2,0.9,0.3,1c8.1,1.3,14.6,7.7,15.9,15.9C48.1,26.8,48.7,27,49,26.7z"/>
	<path class="st1" d="M57.9,41L49,32c-0.3-0.3-0.9-0.2-1,0.3c-1.3,8.1-7.7,14.6-15.9,15.9c-0.5,0.1-0.7,0.7-0.3,1l8.9,8.9
		c0.3,0.3,0.9,0.4,1.3,0.3c7.2-3.2,12.9-9,16.1-16.1C58.4,41.8,58.3,41.3,57.9,41z"/>
	<path class="st1" d="M9.3,32L0.4,41c-0.3,0.3-0.4,0.9-0.3,1.3c3.2,7.2,9,12.9,16.1,16.1c0.4,0.2,1,0.1,1.3-0.3l8.9-8.9
		c0.3-0.3,0.2-0.9-0.3-1c-8.1-1.3-14.6-7.7-15.9-15.9C10.2,31.9,9.6,31.7,9.3,32z"/>
</g>
</svg>
