<?xml version="1.0" encoding="UTF-8"?>
<svg id="Layer_1" data-name="Layer 1" xmlns="http://www.w3.org/2000/svg" viewBox="0 0 2207.65 478.01">
  <defs>
    <style>
      .cls-1 {
        fill: #000;
        stroke-width: 0px;
      }
    </style>
  </defs>
  <path class="cls-1" d="M1146.06,209.03h-72.61c-1.33-9.25-4.03-17.46-8.12-24.64-4.09-7.29-9.34-13.49-15.75-18.6-6.41-5.11-13.81-9.03-22.21-11.75-8.29-2.72-17.29-4.08-27.02-4.08-17.57,0-32.88,4.3-45.92,12.89-13.04,8.48-23.15,20.88-30.34,37.2-7.18,16.21-10.78,35.89-10.78,59.06s3.59,43.83,10.78,60.04c7.3,16.21,17.46,28.44,30.51,36.71,13.04,8.27,28.13,12.4,45.26,12.4,9.61,0,18.51-1.25,26.69-3.75,8.29-2.5,15.64-6.15,22.05-10.93,6.41-4.89,11.72-10.82,15.92-17.78,4.31-6.96,7.29-14.9,8.95-23.82l72.61.33c-1.88,15.34-6.58,30.13-14.09,44.38-7.41,14.14-17.41,26.81-30.01,38.01-12.49,11.09-27.41,19.9-44.76,26.43-17.24,6.42-36.75,9.63-58.52,9.63-30.28,0-57.36-6.74-81.24-20.23-23.76-13.49-42.55-33.01-56.37-58.57-13.7-25.56-20.55-56.51-20.55-92.83s6.96-67.44,20.89-93c13.92-25.56,32.82-45.03,56.7-58.41,23.87-13.49,50.73-20.23,80.57-20.23,19.67,0,37.91,2.72,54.71,8.16,16.91,5.44,31.88,13.38,44.92,23.82,13.04,10.33,23.65,23,31.83,38.01,8.29,15.01,13.59,32.2,15.91,51.56h0ZM1309.96,431.08c-25.75,0-48.02-5.38-66.81-16.15-18.68-10.88-33.1-26-43.27-45.36-10.17-19.47-15.25-42.04-15.25-67.71s5.08-48.51,15.25-67.87c10.17-19.47,24.59-34.59,43.27-45.36,18.79-10.88,41.06-16.31,66.81-16.31s47.96,5.44,66.64,16.31c18.79,10.77,33.27,25.89,43.44,45.36,10.17,19.36,15.25,41.98,15.25,67.87s-5.08,48.24-15.25,67.71c-10.17,19.36-24.65,34.48-43.44,45.36-18.68,10.77-40.9,16.15-66.64,16.15h0ZM1310.3,377.24c11.71,0,21.49-3.26,29.34-9.79,7.85-6.64,13.76-15.66,17.74-27.08,4.09-11.42,6.13-24.42,6.13-38.99s-2.04-27.57-6.13-38.99c-3.98-11.42-9.89-20.45-17.74-27.08s-17.63-9.95-29.34-9.95-21.78,3.32-29.84,9.95c-7.96,6.63-13.98,15.66-18.07,27.08-3.98,11.42-5.97,24.42-5.97,38.99s1.99,27.57,5.97,38.99c4.09,11.42,10.11,20.45,18.07,27.08,8.07,6.53,18.01,9.79,29.84,9.79ZM1573.76,430.26c-19.34,0-36.86-4.89-52.55-14.68-15.59-9.9-27.97-24.42-37.14-43.56-9.06-19.25-13.59-42.85-13.59-70.81s4.7-52.59,14.09-71.62c9.4-19.14,21.88-33.45,37.47-42.91,15.69-9.57,32.88-14.36,51.56-14.36,14.26,0,26.14,2.39,35.64,7.18,9.62,4.68,17.35,10.55,23.21,17.62,5.97,6.96,10.5,13.81,13.6,20.56h2.16v-125.63h70.46v334.13h-69.63v-40.14h-2.98c-3.32,6.96-8.01,13.87-14.09,20.72-5.97,6.74-13.76,12.34-23.38,16.8-9.51,4.46-21.11,6.69-34.81,6.69h-.02ZM1596.13,374.95c11.39,0,21-3.05,28.85-9.14,7.96-6.2,14.04-14.85,18.24-25.94,4.31-11.09,6.46-24.09,6.46-38.99s-2.1-27.84-6.3-38.83-10.28-19.47-18.24-25.45c-7.96-5.98-17.63-8.97-29.02-8.97s-21.38,3.1-29.34,9.3c-7.96,6.2-13.98,14.79-18.07,25.78-4.09,10.99-6.13,23.71-6.13,38.18s2.04,27.46,6.13,38.67c4.2,11.09,10.22,19.8,18.07,26.1,7.96,6.2,17.74,9.3,29.34,9.3h.01ZM1891.46,431.08c-26.19,0-48.74-5.22-67.64-15.66-18.79-10.55-33.27-25.45-43.44-44.7-10.17-19.36-15.25-42.26-15.25-68.69s5.08-48.4,15.25-67.87,24.48-34.64,42.94-45.52c18.56-10.88,40.34-16.31,65.32-16.31,16.8,0,32.44,2.66,46.91,7.99,14.59,5.22,27.3,13.11,38.13,23.66,10.94,10.55,19.45,23.82,25.53,39.81,6.08,15.88,9.12,34.48,9.12,55.8v19.09h-215.02v-43.07h148.54c0-10.01-2.21-18.87-6.63-26.59-4.42-7.72-10.56-13.76-18.4-18.11-7.73-4.46-16.75-6.69-27.02-6.69s-20.23,2.45-28.52,7.34c-8.18,4.79-14.59,11.26-19.23,19.41-4.64,8.05-7.02,17.02-7.13,26.92v40.95c0,12.4,2.32,23.11,6.96,32.14,4.75,9.03,11.44,15.99,20.06,20.88s18.85,7.34,30.67,7.34c7.85,0,15.03-1.09,21.55-3.26,6.52-2.18,12.1-5.44,16.74-9.79s8.18-9.68,10.61-15.99l65.32,4.24c-3.32,15.44-10.11,28.93-20.39,40.46-10.17,11.42-23.32,20.34-39.46,26.76-16.03,6.31-34.54,9.46-55.54,9.46h.02ZM2053.13,426.18v-250.6h68.47v43.72h2.65c4.65-15.55,12.44-27.3,23.38-35.24,10.94-8.05,23.54-12.07,37.8-12.07,3.53,0,7.35.22,11.44.65,4.09.44,7.68,1.03,10.78,1.79v61.67c-3.32-.98-7.9-1.85-13.76-2.61s-11.21-1.14-16.08-1.14c-10.39,0-19.67,2.23-27.85,6.69-8.07,4.35-14.48,10.44-19.23,18.27-4.64,7.83-6.96,16.86-6.96,27.08v141.78h-70.64ZM664.37,207.68c-13.57,0-22.61-7.83-22.61-23.9v-92.3c0-58.93-24.67-91.48-88.4-91.48h-29.6v62.22h9.05c25.08,0,37,13.6,37,37.91v81.59c0,35.44,10.69,49.86,34.13,57.28-23.43,7.01-34.13,21.84-34.13,57.28v60.58c0,16.89,0,33.38-4.52,50.27-4.52,15.66-11.93,30.49-22.2,43.27-5.76,7.42-12.33,13.6-19.74,19.37v8.24h29.6c63.72,0,88.39-32.55,88.39-91.48v-92.3c0-16.48,8.63-23.9,22.61-23.9h16.85v-62.22h-16.44v-.43ZM462.92,93.96h-91.27c-2.06,0-3.7-1.65-3.7-3.71v-7.01c0-2.06,1.64-3.71,3.7-3.71h91.68c2.05,0,3.7,1.65,3.7,3.71v7.01c0,2.06-2.06,3.71-4.11,3.71ZM478.54,182.97h-66.6c-2.06,0-3.7-1.65-3.7-3.71v-7c0-2.06,1.64-3.71,3.7-3.71h66.6c2.06,0,3.7,1.65,3.7,3.71v7c0,1.65-1.64,3.71-3.7,3.71ZM504.85,138.47h-133.2c-2.06,0-3.7-1.65-3.7-3.71v-7.01c0-2.06,1.64-3.71,3.7-3.71h132.79c2.05,0,3.7,1.65,3.7,3.71v7.01c0,1.65-1.23,3.71-3.29,3.71h0ZM265.99,114.14c9.04,0,18.09.82,26.72,2.88v-16.89c0-23.9,12.33-37.91,37-37.91h9.04V0h-29.6C245.43,0,220.76,32.55,220.76,91.48v30.49c14.39-4.94,29.6-7.83,45.22-7.83h.01ZM532.81,338.3c-6.57-52.33-46.87-96.01-98.67-105.9-14.39-2.88-28.78-3.3-42.76-.82-.41,0-.41-.41-.82-.41-22.61-47.39-71.12-78.71-123.75-78.71s-100.72,30.49-123.75,77.88c-.41,0-.41.41-.82.41-14.8-1.65-29.6-.83-44.4,2.88-50.98,12.36-89.62,55.22-96.61,107.14-.82,5.36-1.23,10.71-1.23,15.66,0,15.66,10.69,30.08,26.31,32.14,19.32,2.89,36.18-11.95,35.77-30.9,0-2.89,0-6.18.41-9.07,3.29-26.37,23.43-48.62,49.75-54.81,8.22-2.06,16.44-2.47,24.26-1.23,25.08,3.3,49.75-9.48,60.43-31.73,7.81-16.48,20.15-30.91,36.59-38.74,18.09-8.65,38.64-9.89,57.56-3.3,19.73,7,34.53,21.84,43.58,40.38,9.45,18.13,13.98,30.91,34.12,33.38,8.22,1.23,31.24.82,39.88.41,16.86,0,33.71,5.77,45.63,17.72,7.81,8.24,13.57,18.54,16.03,30.08,3.7,18.54-.82,37.09-11.92,51.1-7.81,9.89-18.5,17.31-30.42,20.6-5.76,1.65-11.51,2.06-17.27,2.06h-90.86c-18.09,0-32.48-14.42-32.48-32.55v-120.74c0-4.94-4.11-9.06-9.04-9.06h-12.75c-25.08.41-45.22,28.43-45.22,58.1v108.38c0,32.14,25.9,58.1,57.97,58.1,0,0,142.66-.41,144.71-.41,32.89-3.3,63.31-20.19,83.87-46.15,20.56-25.14,30.02-58.1,25.9-91.89h0Z"/>
</svg>