<?xml version="1.0" encoding="UTF-8" standalone="no"?>
<!-- Created with Inkscape (http://www.inkscape.org/) -->

<svg
   width="66.301308mm"
   height="22.416569mm"
   viewBox="0 0 66.301308 22.416569"
   version="1.1"
   id="svg2455"
   xml:space="preserve"
   inkscape:export-filename="lockup-choice-a.png"
   inkscape:export-xdpi="134.88202"
   inkscape:export-ydpi="134.88202"
   inkscape:version="1.2.1 (9c6d41e, 2022-07-14)"
   sodipodi:docname="lockup-with-bounds.svg"
   xmlns:inkscape="http://www.inkscape.org/namespaces/inkscape"
   xmlns:sodipodi="http://sodipodi.sourceforge.net/DTD/sodipodi-0.dtd"
   xmlns="http://www.w3.org/2000/svg"
   xmlns:svg="http://www.w3.org/2000/svg"><sodipodi:namedview
     id="namedview2457"
     pagecolor="#ffffff"
     bordercolor="#000000"
     borderopacity="0.25"
     inkscape:showpageshadow="2"
     inkscape:pageopacity="0.0"
     inkscape:pagecheckerboard="0"
     inkscape:deskcolor="#d1d1d1"
     inkscape:document-units="mm"
     showgrid="false"
     showguides="true"
     inkscape:zoom="3.0687869"
     inkscape:cx="117.14727"
     inkscape:cy="87.167995"
     inkscape:window-width="1368"
     inkscape:window-height="758"
     inkscape:window-x="0"
     inkscape:window-y="132"
     inkscape:window-maximized="0"
     inkscape:current-layer="layer1"><sodipodi:guide
       position="85.88451,-88.306671"
       orientation="0,-1"
       id="guide4591"
       inkscape:locked="false" /><sodipodi:guide
       position="152.40791,-79.301081"
       orientation="0,-1"
       id="guide4593"
       inkscape:locked="false" /><sodipodi:guide
       position="84.903318,-108.01469"
       orientation="0,-1"
       id="guide6053"
       inkscape:locked="false" /><sodipodi:guide
       position="88.492521,-121.95736"
       orientation="0,-1"
       id="guide6055"
       inkscape:locked="false" /><sodipodi:guide
       position="80.071701,-130.37817"
       orientation="0,-1"
       id="guide7521"
       inkscape:locked="false" /><sodipodi:guide
       position="79.933655,-148.60028"
       orientation="0,-1"
       id="guide7523"
       inkscape:locked="false" /><sodipodi:guide
       position="90.97735,-101.25042"
       orientation="1,0"
       id="guide7525"
       inkscape:locked="false" /><sodipodi:guide
       position="157.51562,-109.5332"
       orientation="1,0"
       id="guide7583"
       inkscape:locked="false" /><sodipodi:guide
       position="92.724837,-180.67103"
       orientation="0,-1"
       id="guide11598"
       inkscape:locked="false" /><sodipodi:guide
       position="74.966614,-57.139811"
       orientation="0,-1"
       id="guide11782"
       inkscape:locked="false" /><sodipodi:guide
       position="106.35321,-40.47578"
       orientation="0,-1"
       id="guide11784"
       inkscape:locked="false" /><sodipodi:guide
       position="79.658423,-50.50655"
       orientation="1,0"
       id="guide11786"
       inkscape:locked="false" /><sodipodi:guide
       position="-7.6305961,15.568611"
       orientation="0,-1"
       id="guide12011"
       inkscape:locked="false" /><sodipodi:guide
       position="9.5993819,6.5259211"
       orientation="0,-1"
       id="guide12013"
       inkscape:locked="false" /><sodipodi:guide
       position="16.075899,15.813001"
       orientation="1,0"
       id="guide12015"
       inkscape:locked="false" /><sodipodi:guide
       position="18.031074,-0.31719907"
       orientation="1,0"
       id="guide12017"
       inkscape:locked="false" /><sodipodi:guide
       position="20.088692,0.51731095"
       orientation="1,0"
       id="guide12023"
       inkscape:locked="false" /><sodipodi:guide
       position="1.9830038,10.690981"
       orientation="1,0"
       id="guide12025"
       inkscape:locked="false" /><sodipodi:guide
       position="-2.4354719e-08,21.381961"
       orientation="1,0"
       id="guide12027"
       inkscape:locked="false" /><sodipodi:guide
       position="64.232088,25.692832"
       orientation="1,0"
       id="guide12029"
       inkscape:locked="false" /><sodipodi:guide
       position="66.301309,35.952722"
       orientation="1,0"
       id="guide12031"
       inkscape:locked="false" /><sodipodi:guide
       position="8.4493209,1.896791"
       orientation="0,-1"
       id="guide12033"
       inkscape:locked="false" /><sodipodi:guide
       position="7.7595809,-0.086209066"
       orientation="0,-1"
       id="guide12035"
       inkscape:locked="false" /><sodipodi:guide
       position="12.070459,20.347351"
       orientation="0,-1"
       id="guide12037"
       inkscape:locked="false" /><sodipodi:guide
       position="11.811806,22.416572"
       orientation="0,-1"
       id="guide12039"
       inkscape:locked="false" /></sodipodi:namedview><defs
     id="defs2452" /><g
     inkscape:label="Layer 1"
     inkscape:groupmode="layer"
     id="layer1"
     transform="translate(-6.8974053,-41.298213)"><rect
       style="fill:#ffffff;fill-opacity:0;stroke:none;stroke-width:0.245416;stroke-linecap:round;stroke-dasharray:none;stroke-opacity:1"
       id="rect12130"
       width="66.3013"
       height="22.416565"
       x="6.8974051"
       y="41.298214"
       inkscape:export-filename="lockup-with-bounds.png"
       inkscape:export-xdpi="381.11719"
       inkscape:export-ydpi="381.11719" /><path
       id="path11949"
       fill="#123678"
       fill-rule="evenodd"
       stroke="none"
       d="m 12.266239,58.944957 -3.303032,-2.06654 v -8.83219 l 8.077592,-4.63066 7.881868,4.63836 v 9.29028 l -8.007019,4.509661 -2.77984,-1.739231 v -3.72387 -0.50838 l -1.507297,-0.94308 v -4.78958 l 4.364301,-2.50191 4.264551,2.50961 v 5.01886 l -3.376346,1.90155 v -2.0213 c 1.012096,-0.38975 1.738566,-1.39155 1.738566,-2.57389 0,-1.52395 -1.206933,-2.74799 -2.676608,-2.74799 -1.469752,0 -2.67661,1.22404 -2.67661,2.74799 0,1.18234 0.726395,2.18414 1.738492,2.57389 v 3.82984 l 0.965369,0.60399 5.91988,-3.3342 v -6.94004 l -5.862636,-3.45009 -6.031702,3.4578 v 6.52866 l 1.270471,0.79489 z m 4.676736,-7.72493 c 0.665079,0 1.191234,0.57303 1.191234,1.26262 0,0.68959 -0.526155,1.26262 -1.191234,1.26262 -0.665081,0 -1.191308,-0.57303 -1.191308,-1.26262 0,-0.68959 0.526227,-1.26262 1.191308,-1.26262 z"
       style="fill:#6983ff;fill-opacity:1;stroke-width:0.264583" /><g
       aria-label="Valkey"
       id="text11953"
       style="font-size:16.7137px;font-family:'Open Sans';-inkscape-font-specification:'Open Sans';letter-spacing:-0.929242px;fill:#1a2026;stroke-width:7.40275;stroke-linecap:round"><path
         d="M 36.957927,45.332009 32.673409,57.263371 H 31.277881 L 26.993363,45.332009 h 1.452656 l 2.791057,7.859029 q 0.171381,0.473338 0.301956,0.90587 0.138737,0.432532 0.24483,0.832421 0.106093,0.399888 0.187703,0.775293 0.08161,-0.375405 0.187702,-0.775293 0.106093,-0.40805 0.24483,-0.840582 0.138737,-0.440693 0.310117,-0.922191 l 2.774736,-7.834547 z"
         id="path40150" /><path
         d="m 40.056735,48.172032 q 1.599554,0 2.374847,0.718167 0.775294,0.718167 0.775294,2.293237 v 6.079935 h -0.987479 l -0.261152,-1.32208 h -0.06529 q -0.375405,0.489659 -0.783455,0.824259 -0.408049,0.32644 -0.946674,0.497821 -0.530464,0.163219 -1.305758,0.163219 -0.816098,0 -1.452655,-0.285634 -0.628396,-0.285635 -0.99564,-0.865065 -0.359084,-0.57943 -0.359084,-1.468977 0,-1.338402 1.060928,-2.056569 1.060928,-0.718167 3.231751,-0.783454 l 1.542426,-0.06529 v -0.546786 q 0,-1.15886 -0.49782,-1.624037 -0.49782,-0.465176 -1.40369,-0.465176 -0.701844,0 -1.338401,0.204025 -0.636557,0.204025 -1.207826,0.481498 l -0.416211,-1.028284 q 0.603913,-0.310118 1.387368,-0.530464 0.783455,-0.220347 1.648519,-0.220347 z m 1.811739,4.684406 -1.362885,0.05713 q -1.673002,0.06529 -2.358524,0.546786 -0.685523,0.481498 -0.685523,1.362885 0,0.767132 0.465176,1.134377 0.465176,0.367244 1.232309,0.367244 1.191504,0 1.950475,-0.66104 0.758972,-0.66104 0.758972,-1.983119 z"
         id="path40152" /><path
         d="M 46.431575,57.263371 H 45.068691 V 44.564876 h 1.362884 z"
         id="path40154" /><path
         d="m 49.705241,44.564876 v 6.594077 q 0,0.326439 -0.02448,0.799777 -0.02448,0.465176 -0.0408,0.824259 h 0.05713 q 0.171381,-0.212185 0.49782,-0.628396 0.334601,-0.41621 0.563108,-0.669201 l 2.970599,-3.166462 h 1.591392 l -3.598994,3.819341 3.860146,5.1251 h -1.632197 l -3.158302,-4.235552 -1.085411,0.99564 v 3.239912 H 48.358678 V 44.564876 Z"
         style="letter-spacing:-1.40494px"
         id="path40156" /><path
         d="m 59.178896,48.15571 q 1.142538,0 1.958637,0.505981 0.816098,0.505981 1.248631,1.420012 0.432532,0.905869 0.432532,2.121856 v 0.840582 h -6.177867 q 0.02448,1.57507 0.783455,2.39933 0.758972,0.824259 2.138178,0.824259 0.848743,0 1.501622,-0.155059 0.652879,-0.155058 1.354724,-0.457015 v 1.191504 q -0.677362,0.301957 -1.346563,0.440693 -0.66104,0.138737 -1.566909,0.138737 -1.289436,0 -2.252433,-0.522303 -0.954835,-0.530464 -1.485299,-1.550587 -0.530464,-1.020123 -0.530464,-2.497262 0,-1.444494 0.481498,-2.497262 0.489659,-1.060928 1.371046,-1.632197 0.889547,-0.571269 2.089212,-0.571269 z m -0.01632,1.109894 q -1.085411,0 -1.730129,0.710006 -0.644718,0.710006 -0.767133,1.98312 h 4.733372 q -0.0082,-0.799777 -0.25299,-1.40369 -0.236669,-0.612074 -0.726328,-0.946674 -0.489659,-0.342762 -1.256792,-0.342762 z"
         style="letter-spacing:-0.928688px"
         id="path40158" /><path
         d="m 62.779557,48.31893 h 1.452656 l 1.974958,5.190387 q 0.171381,0.457015 0.318279,0.881386 0.146897,0.416211 0.261151,0.799777 0.114254,0.383566 0.179542,0.74265 h 0.05713 q 0.114254,-0.40805 0.326439,-1.069089 0.212186,-0.669201 0.457015,-1.362885 L 69.67559,48.31893 h 1.460817 l -3.892791,10.258359 q -0.310117,0.82426 -0.726327,1.436334 -0.40805,0.612074 -0.995641,0.938513 -0.587591,0.334601 -1.420011,0.334601 -0.383567,0 -0.677362,-0.04897 -0.293796,-0.0408 -0.505981,-0.09793 v -1.085411 q 0.179542,0.0408 0.432532,0.07345 0.261152,0.03264 0.538625,0.03264 0.505981,0 0.873226,-0.195864 0.375405,-0.187703 0.644718,-0.554947 0.269312,-0.367245 0.465176,-0.873226 l 0.489659,-1.256792 z"
         id="path40160" /></g></g></svg>
