<?xml version="1.0" encoding="UTF-8"?>
<svg id="Layer_2" data-name="Layer 2" xmlns="http://www.w3.org/2000/svg" viewBox="0 0 1919.98 822.85">
  <defs>
    <style>
      .cls-1 {
        fill: #0056a9;
      }

      .cls-1, .cls-2, .cls-3 {
        stroke-width: 0px;
      }

      .cls-2 {
        fill: none;
      }

      .cls-3 {
        fill: #343435;
      }
    </style>
  </defs>
  <g id="Layer_1-2" data-name="Layer 1">
    <g>
      <rect class="cls-2" width="1919.98" height="822.85"/>
      <path class="cls-1" d="M1173.93,104.95c-21.02-18.82-43.99-35.5-68.57-49.72v174.77c-50.26-56.94-123.79-92.86-205.71-92.86-76.73,0-146.11,31.51-195.89,82.3,13.63,20.12,25.17,41.77,34.32,64.64,37.67-47.73,96.04-78.37,161.57-78.37,113.61,0,205.71,92.1,205.71,205.71,0,81.37-47.24,151.7-115.79,185.07-21.18,10.31-44.4,17.09-68.89,19.58-6.91.7-13.93,1.06-21.03,1.06-24.57,0-48.14-4.31-69.98-12.21-79.16-28.64-135.73-104.46-135.73-193.5,0-151.48-122.8-274.28-274.28-274.28s-274.28,122.8-274.28,274.28,122.8,274.28,274.28,274.28c76.73,0,146.11-31.51,195.89-82.3-13.63-20.12-25.17-41.77-34.32-64.64-37.67,47.73-96.04,78.37-161.57,78.37-113.61,0-205.71-92.1-205.71-205.71s92.1-205.71,205.71-205.71,205.71,92.1,205.71,205.71c0,28.63,4.39,56.23,12.52,82.17,13.11,41.8,35.95,79.29,65.87,109.81,22.01,22.46,47.86,41.15,76.48,55.01,36.1,17.49,76.61,27.29,119.41,27.29s80.7-9.18,115.91-25.62c1-.47,2.01-.95,3.01-1.43,2-.96,3.98-1.95,5.96-2.96,88.7-45.43,149.41-137.76,149.41-244.27V104.95Z"/>
      <path class="cls-1" d="M1822.6,137.14h-529c15.08,21.62,28.43,44.55,39.84,68.57h114.76v472.7c24.33-6.26,47.35-15.78,68.57-28.05V205.71h393.6c-26.59-26.01-55.72-49.26-87.77-68.57Z"/>
      <path class="cls-3" d="M419.66,822.85c115.11,0,219.17-47.27,293.84-123.46-19.39-12.56-37.42-27.02-53.85-43.12-61.84,60.63-146.55,98.01-240,98.01-189.35,0-342.85-153.5-342.85-342.85S230.3,68.57,419.66,68.57c43.16,0,84.46,7.98,122.51,22.54,16.6-18.51,34.62-35.73,53.88-51.48C542.59,14.22,482.78,0,419.66,0,192.43,0,8.23,184.2,8.23,411.42s184.2,411.42,411.42,411.42Z"/>
      <path class="cls-3" d="M1242.5,411.42c0,189.35-153.5,342.85-342.85,342.85-43.16,0-84.46-7.98-122.51-22.53-16.6,18.51-34.62,35.73-53.88,51.48,53.46,25.41,113.27,39.62,176.39,39.62,227.22,0,411.42-184.2,411.42-411.42,0-84.12-25.24-162.34-68.57-227.5v227.5Z"/>
      <path class="cls-3" d="M899.65,0c48.09,0,94.25,8.25,137.14,23.41v73.69c-42-18.35-88.38-28.53-137.14-28.53-93.45,0-178.15,37.38-240,98.01-16.43-16.1-34.46-30.56-53.85-43.12C680.47,47.27,784.54,0,899.65,0Z"/>
      <path class="cls-3" d="M1147.02,0c32.17,19.38,61.88,42.43,88.55,68.57h555.49c-26.67-26.14-56.38-49.19-88.55-68.57h-555.49Z"/>
      <path class="cls-3" d="M1693.96,274.28h73.69c15.17,42.9,23.41,89.05,23.41,137.14,0,227.22-184.19,411.42-411.42,411.42-63.12,0-122.93-14.22-176.39-39.62,19.27-15.75,37.28-32.97,53.88-51.48,38.04,14.56,79.35,22.53,122.51,22.53,189.35,0,342.85-153.5,342.85-342.85,0-48.76-10.18-95.14-28.53-137.14Z"/>
    </g>
  </g>
</svg>