<svg height="70" viewBox="0 0 190 70" width="190" xmlns="http://www.w3.org/2000/svg"><path d="m151.593763 30.9976047s1.014867 9.7307842 1.104414 10.9844435h.059698c.301807-.9341641.695301-2.0551611 1.118843-3.2188938l.197391-.5396172c.066359-.1805341.133204-.361555.200311-.5425379l.201886-.5423105c1.179638-3.1566928 2.370887-6.1410841 2.370887-6.1410841h4.745996l-5.522071 11.8500654c-1.940187 4.0594682-3.850525 7.0145223-5.910108 8.9547093-1.611848 1.4924516-3.492337 2.2386774-4.417657 2.4476206l-1.253659-3.820676c.746225-.2686413 1.701394-.6566787 2.537167-1.2835083 1.044716-.7163768 1.910338-1.7013948 2.447621-2.7162619.119396-.2089432.149245-.4178864.089547-.7462257l-2.716262-14.6857234zm-29.460994-.3581883c3.313243 0 4.656449 2.7162618 4.656449 5.7310139 0 5.4922218-3.462487 10.9247454-8.775615 10.9247454-1.731244 0-2.656564-.5969806-2.656564-.5969806h-.089547l-1.253659 6.686183h-4.507204l3.134148-16.4766652c.358189-1.880489.716377-4.3579586.92532-5.9996553h3.999771l-.268642 2.4177716h.059698s1.731244-2.6864128 4.775845-2.6864128zm-79.1596303-14.357384c.92532-.0298491 1.7013948.2686412 2.2983754.9253199.029849.0596981.0895471.0895471.1193961.1492452.1193961-.029849.2089432-.029849.2984903-.029849 1.3730555 0 2.5371677.8059238 3.3132425 2.2983754.2387922.4775845.4178864.9253199.5372825 1.3133573.6865278-.2089432 1.1044142-.3283393 1.1044142-.3283393.0596981 0 .1492452-.029849.3283393-.029849v32.6846891l-22.5658675-3.9102231s.6366155-4.8714929 1.3068046-10.0067046l.1032896-.7914918c.6892785-5.2821969 1.381343-10.5932408 1.4255637-10.9617473.1193962-.9850181.1492452-1.0148671 1.1939613-1.3432064.029849-.0298491 1.4626025-.4775845 3.5221857-1.1044142.2089432-1.5819986.985018-3.6117327 1.9998851-5.2235804 1.4327535-2.2983754 3.2236953-3.5818838 5.0146372-3.6415818zm8.6860681 4.6564488c.5969806.5969807 2.2088283 2.1491303 2.2088283 2.1491303s.5427096.0123343 1.1487728.0257899l.3674054.0081182c.6122304.0134556 1.191943.0257899 1.2597817.0257899.1492451 0 .2984903.1193962.3283393.2984903.014139.0848341.9257334 6.2442355 1.8813898 12.7043161l.127607.8626189c1.0217465 6.907096 2.0504714 13.8643247 2.0504714 13.8643247l-9.3725957 2.3282244zm52.8029362 9.7009352c4.238562 0 6.119051 3.0744502 6.089202 6.3279946 0 5.5817688-3.581884 10.3576138-8.92486 10.3576138-4.0594683 0-6.2085986-2.835658-6.2085986-6.3279946 0-5.4623727 3.6117328-10.3576138 9.0442566-10.3576138zm-29.6400881.059698c2.835658 0 3.790827.7462258 3.790827.7462258l-1.0447161 3.1938463s-1.3133574-.6268296-2.8058089-.6268296c-1.2835084 0-2.0894322.5671316-2.0894322 1.4924515 0 .7163768.5969806 1.2238103 1.7312438 1.85064 1.7610928 1.014867 3.2535444 2.3879225 3.1938463 4.3579585 0 3.5818838-2.895356 5.5817688-6.9548242 5.5817688-2.7759599 0-4.4475057-1.1044141-4.4475057-1.1044141l1.1044142-3.1938463s1.7909419.985018 3.7012798.985018c1.2835084 0 1.9700361-.6865277 1.9700361-1.5521496 0-.8059239-.4775845-1.3730555-1.8506399-2.1491303-1.7013948-.985018-2.9849031-2.3580734-2.9849031-4.1490153 0-3.1639973 2.7461108-5.4325237 6.6861829-5.4325237zm12.6559892-6.7757301-1.7312438 9.0741055.0596981.029849c1.2238103-1.4327534 2.7759599-2.3879224 4.775845-2.3879224 2.3580735 0 3.6714308 1.5223005 3.6117328 4.1191663 0 .8059238-.1193962 1.970036-.3283394 2.955054l-1.7610928 9.3128978h-4.5072037l1.7013947-9.0442565c.1492452-.6268296.2089433-1.3730554.2089433-1.9998851 0-.985018-.3880374-1.6715457-1.4029045-1.6715457-1.4327535 0-2.9550541 1.8207909-3.5520347 4.805694l-1.4924516 7.8801442h-4.5072037l4.3878076-23.0733011zm47.0420729 7.0742204-3.07445 15.9990807h-4.537053l3.044601-15.9990807zm11.044142-7.3727107c1.671546 0 2.44762.3880374 2.44762.3880374l-.895471 3.5221857-.032369-.0116035c-.137969-.0478292-.701917-.2271887-1.400384-.2271887-1.522301 0-2.417772 1.3730554-2.686413 2.925205l-.149245.7462258h3.134148l-.626829 3.4027895h-3.1043l-2.387922 12.6261402h-4.507204l2.387923-12.6261402h-2.089433l.656679-3.4027895h2.089432l.119396-.7462258c.358189-1.910338 1.074566-3.7908269 2.626715-5.1041843 1.22381-1.0447161 2.805809-1.4924516 4.417657-1.4924516zm-99.9047075 4.5669018s-.985018-.4775845-2.9252051-.3581884c-5.0146372.3283394-7.2831636 3.820676-7.0443713 7.2831636.2686413 4.1191663 4.3878076 3.9699212 4.5370527 6.4772398.0298491.5969806-.3581883 1.4626025-1.4029044 1.5223006-1.4924516.1105519-3.3175827-1.1863864-3.5797834-1.379132l-.0319494-.0237725-.7760748 3.2833934s.00173.0018592.0051809.0054619l.0412831.0416173c.3192383.313588 2.2747371 2.0809812 5.5950029 1.8632588 3.0147521-.1790942 5.1041843-2.5968657 4.8952411-6.1489004-.2984903-4.5072037-5.3429766-4.9250901-5.4623727-6.8354281-.0298491-.3581884 0-1.7610929 2.2088283-1.910338 1.3237396-.1038227 2.466918.3340383 2.7426174.4500293l.0559985.0242776.007193.0032776zm74.6225775 6.1787494c-1.552149 0-3.014752 1.880489-3.552034 4.6862979l-.746226 4.2087134s.686528.6566787 1.85064.6566787c2.507318 0 4.238562-4.1788643 4.238562-7.0742204 0-1.1939612-.417886-2.4774696-1.790942-2.4774696zm-16.416967-.2984903c-2.44762 0-3.790827 4.2087134-3.790827 6.8055791 0 1.6416968.62683 2.9550541 2.17898 2.9550541 2.387922 0 3.731128-4.2385624 3.731128-7.0443713 0-1.3432064-.507433-2.7162619-2.119281-2.7162619zm29.371447-9.9098783c1.373055 0 2.268526.92532 2.238677 2.2685264-.029849 1.6715457-1.253659 2.6267147-2.656564 2.6267147h-.059698c-1.283508 0-2.119281-.92532-2.119281-2.2685264 0-1.4924515 1.164112-2.6267147 2.596866-2.6267147zm-90.2634703-6.656334c-2.7461109.0596981-5.1638824 4.3878076-5.8205611 7.2533146.985018-.2984903 2.0595832-.6268296 3.1341483-.955169.3581884-1.8207909 1.2238103-3.7311289 2.3580734-4.9549392.4477355-.4477354.92532-.8357728 1.4029045-1.0745651-.2984903-.1790942-.6566787-.2686413-1.0745651-.2686413zm1.8506399 1.1939613c-.5074335.2387922-.955169.6268296-1.2835083.955169-.8357729.92532-1.5521496 2.3282244-1.910338 3.7311289 1.2835083-.3880374 2.5968657-.8059239 3.7908269-1.1641122.0298491-.9850181-.089547-2.4476206-.5969806-3.5221857zm1.2536593-.0895471c.4178865 1.0745651.5372826 2.3580735.5372826 3.2535444.6566787-.2089432 1.2536593-.3880374 1.7909419-.5372826-.2984903-.9253199-.955169-2.4476205-2.3282245-2.7162618z"/></svg>