<svg width="362" height="176" viewBox="0 0 362 176" fill="none" xmlns="http://www.w3.org/2000/svg">
<g clip-path="url(#clip0_265_214)">
<rect width="362" height="176" fill="white"/>
<path d="M42.2891 58.582C57.4844 58.582 68.7344 63.4648 76.0391 73.2305C81.7422 80.8477 84.5938 90.5938 84.5938 102.469C84.5938 115.32 81.332 126.004 74.8086 134.52C67.1523 144.52 56.2344 149.52 42.0547 149.52C28.8125 149.52 18.4023 145.145 10.8242 136.395C4.06641 127.957 0.6875 117.293 0.6875 104.402C0.6875 92.7617 3.57813 82.8008 9.35938 74.5195C16.7812 63.8945 27.7578 58.582 42.2891 58.582ZM43.4609 139.09C53.7344 139.09 61.1562 135.418 65.7266 128.074C70.3359 120.691 72.6406 112.215 72.6406 102.645C72.6406 92.5273 69.9844 84.3828 64.6719 78.2109C59.3984 72.0391 52.1719 68.9531 42.9922 68.9531C34.0859 68.9531 26.8203 72.0195 21.1953 78.1523C15.5703 84.2461 12.7578 93.25 12.7578 105.164C12.7578 114.695 15.1602 122.742 19.9648 129.305C24.8086 135.828 32.6406 139.09 43.4609 139.09ZM131.586 137.039C135.531 137.039 138.773 136.629 141.312 135.809C145.844 134.285 149.555 131.355 152.445 127.02C154.75 123.543 156.41 119.09 157.426 113.66C158.012 110.418 158.305 107.41 158.305 104.637C158.305 93.9727 156.176 85.6914 151.918 79.793C147.699 73.8945 140.883 70.9453 131.469 70.9453H110.785V137.039H131.586ZM99.0664 60.9258H133.93C145.766 60.9258 154.945 65.125 161.469 73.5234C167.289 81.1016 170.199 90.8086 170.199 102.645C170.199 111.785 168.48 120.047 165.043 127.43C158.988 140.477 148.578 147 133.812 147H99.0664V60.9258ZM218.305 137.039C222.25 137.039 225.492 136.629 228.031 135.809C232.562 134.285 236.273 131.355 239.164 127.02C241.469 123.543 243.129 119.09 244.145 113.66C244.73 110.418 245.023 107.41 245.023 104.637C245.023 93.9727 242.895 85.6914 238.637 79.793C234.418 73.8945 227.602 70.9453 218.188 70.9453H197.504V137.039H218.305ZM185.785 60.9258H220.648C232.484 60.9258 241.664 65.125 248.188 73.5234C254.008 81.1016 256.918 90.8086 256.918 102.645C256.918 111.785 255.199 120.047 251.762 127.43C245.707 140.477 235.297 147 220.531 147H185.785V60.9258ZM279.594 119.227C279.867 124.109 281.02 128.074 283.051 131.121C286.918 136.824 293.734 139.676 303.5 139.676C307.875 139.676 311.859 139.051 315.453 137.801C322.406 135.379 325.883 131.043 325.883 124.793C325.883 120.105 324.418 116.766 321.488 114.773C318.52 112.82 313.871 111.121 307.543 109.676L295.883 107.039C288.266 105.32 282.875 103.426 279.711 101.355C274.242 97.7617 271.508 92.3906 271.508 85.2422C271.508 77.5078 274.184 71.1602 279.535 66.1992C284.887 61.2383 292.465 58.7578 302.27 58.7578C311.293 58.7578 318.949 60.9453 325.238 65.3203C331.566 69.6562 334.73 76.6094 334.73 86.1797H323.773C323.188 81.5703 321.938 78.0352 320.023 75.5742C316.469 71.082 310.434 68.8359 301.918 68.8359C295.043 68.8359 290.102 70.2812 287.094 73.1719C284.086 76.0625 282.582 79.4219 282.582 83.25C282.582 87.4688 284.34 90.5547 287.855 92.5078C290.16 93.7578 295.375 95.3203 303.5 97.1953L315.57 99.9492C321.391 101.277 325.883 103.094 329.047 105.398C334.516 109.422 337.25 115.262 337.25 122.918C337.25 132.449 333.773 139.266 326.82 143.367C319.906 147.469 311.859 149.52 302.68 149.52C291.977 149.52 283.598 146.785 277.543 141.316C271.488 135.887 268.52 128.523 268.637 119.227H279.594Z" fill="black"/>
<rect width="13" height="176" transform="matrix(-1 0 0 1 362 0)" fill="black"/>
</g>
<defs>
<clipPath id="clip0_265_214">
<rect width="362" height="176" fill="white"/>
</clipPath>
</defs>
</svg>
