<svg width="852" height="193" viewBox="0 0 852 193" fill="none" xmlns="http://www.w3.org/2000/svg">
<path d="M98.3173 150.114C91.161 166.239 63.14 187.081 42.036 171.239C17.4735 152.802 23.2235 104.115 27.2548 83.4895C20.911 83.1145 12.7548 82.6458 5.81727 82.2708C2.67446 82.1009 0.314647 79.8338 0.0359544 76.4895C-0.321632 71.8409 2.036 69.677 4.97352 69.677C11.911 69.677 27.7548 69.8958 30.2235 69.8958C47.661 -7.38568 73.7804 -7.49767 83.4735 8.23941C94.0985 25.4894 88.8485 45.4894 72.9735 70.4661C82.411 70.4661 88.8485 70.8606 98.911 70.8606C104.786 70.8606 105.911 75.677 105.599 79.2395C105.289 82.768 104.349 87.427 98.911 87.427L62.8407 85.4192C59.2483 90.3743 53.8485 96.677 48.9022 104.677C42.7484 114.63 43.4282 142.487 51.786 152.802C61.5445 164.846 92.661 153.239 96.7235 128.614L98.3173 150.114ZM71.661 22.9268C66.5421 14.8259 57.786 30.3643 49.2548 70.2549C50.9423 70.2549 53.7079 70.3643 55.6141 70.3643C62.286 58.8643 78.0985 33.1143 71.661 22.9268Z" transform="translate(0.620331 15.1836)" fill="#1A1918"/>
<path d="M133.228 176.739C117.006 176.739 103.418 166.942 98.4101 151.292C93.333 134.516 96.8644 115.269 106.103 100.595C115.539 85.3315 139.661 73.4709 154.828 88.9563C176.952 111.544 144.195 140.835 122.378 146.854C133.228 172.614 169.924 148.612 178.536 125.614L179.224 147.739C168.107 160.537 156.729 176.739 133.228 176.739ZM120.109 130.382C133.563 130.382 153.661 106.809 141.661 100.595C129.661 94.3811 120.109 118.291 120.109 130.382Z" transform="translate(0.620331 15.1836)" fill="#1A1918"/>
<path d="M216.661 82.2708C226.302 84.4762 219.286 99.1143 212.911 108.989C215.036 120.239 226.01 134.312 226.63 154.239C240.974 152.802 258.036 144.739 263.255 128.614L266.224 146.854C254.38 166.239 224.63 176.739 193.536 176.739C176.119 176.739 172.178 165.256 169.428 159.006C171.786 145.473 173.036 140.302 178.536 125.614C187.577 104.631 203.411 79.2395 216.661 82.2708ZM192.411 162.552C209.411 164.052 208.786 145.473 197.911 127.989C194.216 134.091 181.146 147.355 177.771 151.292C180.083 150.667 186.055 161.991 192.411 162.552Z" transform="translate(0.620331 15.1836)" fill="#1A1918"/>
<path d="M334.317 150.114C327.161 166.239 299.14 187.081 278.036 171.239C253.474 152.802 259.224 104.115 263.255 83.4895C256.911 83.1145 248.755 82.6458 241.817 82.2708C238.674 82.1009 236.315 79.8338 236.036 76.4895C235.678 71.8409 238.036 69.677 240.974 69.677C247.911 69.677 263.755 69.8958 266.224 69.8958C283.661 -7.38568 309.78 -7.49767 319.474 8.23941C330.099 25.4894 324.849 45.4894 308.974 70.4661C318.411 70.4661 324.849 70.8606 334.911 70.8606C340.786 70.8606 341.911 75.677 341.599 79.2395C341.289 82.768 340.349 87.427 334.911 87.427L298.841 85.4192C295.248 90.3743 289.849 96.677 284.902 104.677C278.748 114.63 279.428 142.487 287.786 152.802C297.545 164.846 328.661 153.239 332.724 128.614L334.317 150.114ZM307.661 22.9268C302.542 14.8259 293.786 30.3643 285.255 70.2549C286.942 70.2549 289.708 70.3643 291.614 70.3643C298.286 58.8643 314.099 33.1143 307.661 22.9268Z" transform="translate(0.620331 15.1836)" fill="#1A1918"/>
<path d="M37.1438 95.0401C20.922 95.0401 7.3344 85.2431 2.32632 69.5929C-2.75078 52.8164 0.780638 33.5695 10.0197 18.8958C19.4553 3.63228 43.5773 -8.22824 58.7443 7.25712C80.8678 29.8449 48.1115 59.1358 26.2941 65.1544C37.1437 90.9151 73.8405 66.9124 82.4523 43.9151C86.5625 32.9388 96.0413 42.0401 83.1398 66.0401C78.778 74.154 60.6453 95.0401 37.1438 95.0401ZM24.0255 48.6827C37.4796 48.6827 57.5773 25.1097 45.5773 18.8958C33.5773 12.6819 24.0255 36.5922 24.0255 48.6827Z" transform="translate(761.704 96.8828)" fill="#1A1918"/>
<path d="M50.0318 121.727C21.7818 126.477 15.9068 164.414 25.1568 173.664C35.5318 184.039 53.0318 171.477 54.9693 163.039C52.3443 152.977 50.0318 136.289 50.0318 121.727ZM117.726 171.77C114.219 175.289 93.7633 191.003 80.3445 191.003C70.9407 191.003 63.4068 183.409 59.6094 175.289C45.6563 193.539 22.8414 197.79 6.53111 177.914C-11.2776 156.213 8.6568 106.227 50.2499 102.039C52.3443 33.1019 84.8443 -8.77304 106.719 4.72687C129.378 18.7104 110.094 70.1018 89.7193 110.477C82.2173 125.343 67.8443 160.977 86.4693 167.825C94.9844 170.955 111.469 148.06 114.219 143.227L117.726 171.77ZM95.2818 25.352C82.4275 18.1355 74.1568 76.1019 74.1568 116.664C95.2818 69.6019 102.398 29.3469 95.2818 25.352Z" transform="translate(331 0.820892)" fill="#1A1918"/>
<path d="M172.763 117.226C186.249 144.197 173.706 191.102 138.439 191.102C83.5947 191.102 103.491 96.4144 153.037 96.4144C159.283 96.4144 165.136 97.4007 170.593 99.3734C187.19 105.172 199.023 104.614 207.952 98.0461L212.17 106.852C204.622 120.185 177.202 119.297 172.763 117.226ZM142.286 172.164C161.16 172.164 170.314 115.352 148.006 115.352C126.545 115.352 116.73 172.164 142.286 172.164Z" transform="translate(331 0.820892)" fill="#1A1918"/>
<path d="M267.185 102.826C267.914 116.664 248.653 158.06 261.07 168.219C271.699 176.916 295.097 153.345 300.523 146.323C300.523 153.557 300.523 152.867 300.523 160.102C288.725 171.901 271.157 191.102 254.25 191.102C244.288 191.102 239.657 180.11 239.032 176.11C231.461 185.994 219.008 191.299 205.737 191.299C176.407 191.102 199.688 119.386 203.532 104.852C205.737 96.513 211.819 96.5788 213.923 96.513C217.08 96.4144 225.782 94.3431 225.782 102.826C225.782 111.308 200.481 168.91 219.841 168.91C235.532 168.91 243.842 116.148 246.782 102.039C247.726 97.5082 252.553 96.513 256.237 96.513C260.116 96.513 266.912 97.6418 267.185 102.826Z" transform="translate(331 0.820892)" fill="#1A1918"/>
<path d="M338 171.77C350.921 173.052 380.548 150.894 389.262 142.18L391.038 153.523C360.5 191.299 315 204.102 285.621 174.102C277.329 129.224 306.188 -27.8064 351.683 4.29135C383.838 26.9768 339.85 90.9717 323.672 110.618C351.683 81.7181 379.359 129.654 338 171.77ZM334.127 118.903C304.579 121.725 302.127 147.576 300.704 164.175C323.764 187.748 357.562 116.664 334.127 118.903ZM338.762 20.6644C319.308 20.6644 303.172 103.752 305.121 117.226C314.491 108.842 358.41 20.6644 338.762 20.6644Z" transform="translate(331 0.820892)" fill="#1A1918"/>
<path d="M392.75 188.352C349.165 163.214 385.292 -28.0287 442.133 9.35202C471.904 28.9313 387.081 159.248 405 172.852C413.094 178.997 435.868 158.977 440.75 143.227L442.133 164.175C439.633 170.045 414.669 200.993 392.75 188.352ZM394.75 121.727C403.75 107.102 442.133 25.352 430.371 20.6644C416.018 14.9443 384.25 90.102 394.75 121.727Z" transform="translate(331 0.820892)" fill="#1A1918"/>
</svg>
