<?xml version="1.0" encoding="UTF-8" standalone="no"?>
<!-- Created with Inkscape (http://www.inkscape.org/) -->

<svg
   width="146.95703mm"
   height="31.626379mm"
   viewBox="0 0 146.95703 31.626379"
   version="1.1"
   id="svg1"
   xml:space="preserve"
   inkscape:version="1.3 (0e150ed, 2023-07-21)"
   sodipodi:docname="paraxial_logo.svg"
   xmlns:inkscape="http://www.inkscape.org/namespaces/inkscape"
   xmlns:sodipodi="http://sodipodi.sourceforge.net/DTD/sodipodi-0.dtd"
   xmlns="http://www.w3.org/2000/svg"
   xmlns:svg="http://www.w3.org/2000/svg"><sodipodi:namedview
     id="namedview1"
     pagecolor="#ffffff"
     bordercolor="#000000"
     borderopacity="0.25"
     inkscape:showpageshadow="2"
     inkscape:pageopacity="0.0"
     inkscape:pagecheckerboard="0"
     inkscape:deskcolor="#d1d1d1"
     inkscape:document-units="mm"
     inkscape:zoom="0.4204826"
     inkscape:cx="-877.56306"
     inkscape:cy="-485.15681"
     inkscape:window-width="1920"
     inkscape:window-height="1091"
     inkscape:window-x="1440"
     inkscape:window-y="25"
     inkscape:window-maximized="1"
     inkscape:current-layer="layer1" /><defs
     id="defs1" /><g
     inkscape:label="Layer 1"
     inkscape:groupmode="layer"
     id="layer1"
     transform="translate(-0.55597842,-0.47344918)"><path
       style="fill:#000000"
       d="M 14.426264,32.048053 C 9.0013176,31.297123 4.4984266,28.053503 2.1467191,23.202573 -1.4952959,15.690093 1.3102231,6.6688835 8.5831786,2.5060038 10.258398,1.5471442 12.521462,0.78898418 14.383931,0.56265418 c 0.978788,-0.11894 3.085211,-0.11894 4.064,0 1.877701,0.22818 4.112638,0.97711002 5.802844,1.94454962 7.243802,4.1461997 10.059349,13.1224492 6.472124,20.6337992 -2.14445,4.4903 -6.205677,7.65808 -11.160556,8.70529 -0.873998,0.18472 -1.298666,0.2222 -2.807746,0.24779 -0.9779,0.0166 -2.02565,-0.004 -2.328333,-0.046 z m 4.326675,-2.61644 c 2.59369,-0.51422 4.826308,-1.75931 6.734576,-3.75576 1.711808,-1.79091 2.866945,-4.01109 3.434369,-6.60086 0.165712,-0.75632 0.190126,-1.11236 0.190126,-2.77275 0,-1.66904 -0.02398,-2.01511 -0.193619,-2.794 C 28.310299,10.716183 27.19947,8.6644433 25.225187,6.6867535 23.328108,4.7863938 21.374964,3.7153238 18.802549,3.1646738 c -1.237593,-0.26491 -3.535643,-0.26491 -4.773237,0 -2.405296,0.51488 -4.4433079,1.59067 -6.1852814,3.2649997 -2.285854,2.1970898 -3.6644915,4.9166795 -4.0878215,8.0639095 -0.151537,1.1266 -0.06428,3.56277 0.165657,4.62479 0.5851225,2.70256 1.7695305,4.88831 3.6829295,6.79662 2.1942335,2.18839 4.5924104,3.33735 7.7528014,3.71434 0.616284,0.0735 2.614051,-0.0428 3.395342,-0.19772 z m -3.141342,-1.4156 c -4.916147,-0.44684 -8.8667504,-3.99683 -10.0585404,-9.03854 -0.200135,-0.84665 -0.222399,-1.10702 -0.22514,-2.6329 -0.0024,-1.34007 0.02962,-1.84346 0.153524,-2.413 0.51851,-2.38337 1.496025,-4.2734397 3.055641,-5.9082097 1.6761624,-1.7569498 3.6288824,-2.8357098 5.9584214,-3.2916995 0.98624,-0.19304 2.854616,-0.19304 3.840856,0 2.304004,0.4509897 4.260373,1.5235497 5.913817,3.2421895 0.907907,0.94371 1.41701,1.65695 1.995813,2.7960897 0.48889,0.96218 0.853508,2.00655 1.10382,3.16163 0.222431,1.02644 0.222166,3.71704 -4.67e-4,4.74134 -0.541282,2.49036 -1.554961,4.38483 -3.266576,6.10493 -1.63951,1.64764 -3.516154,2.65327 -5.72576,3.06825 -0.732375,0.13755 -2.141832,0.22478 -2.745409,0.16992 z m 1.817498,-9.80263 c 0.693326,-0.40632 1.062285,-1.07839 1.05931,-1.92959 -0.0031,-0.89159 -0.455583,-1.62543 -1.222348,-1.98249 -1.404065,-0.65381 -2.917224,0.38811 -2.9226,2.01244 -0.0055,1.6558 1.70492,2.70879 3.085638,1.89964 z m 37.728201,7.64881 c -1.790936,-0.35138 -3.03634,-1.40817 -3.433619,-2.91362 -0.158047,-0.5989 -0.180999,-1.77424 -0.04622,-2.36712 0.349717,-1.53843 1.772476,-2.55242 4.150811,-2.95827 0.395816,-0.0675 1.272116,-0.1846 1.947333,-0.26013 2.529052,-0.28291 2.899042,-0.54348 2.62769,-1.85058 -0.13783,-0.66392 -0.532004,-1.21086 -1.10369,-1.53144 -0.448726,-0.25162 -0.502628,-0.26108 -1.481667,-0.25987 -0.85984,10e-4 -1.090197,0.031 -1.498738,0.19505 -0.565512,0.22703 -1.253494,0.81537 -1.554919,1.32971 -0.201474,0.34379 -0.227643,0.35967 -0.484658,0.29413 -0.149427,-0.0381 -0.722571,-0.17162 -1.273654,-0.29669 l -1.00197,-0.22739 0.05594,-0.2247 c 0.0898,-0.36073 0.525121,-1.0666 0.947545,-1.53643 1.133636,-1.26088 3.069944,-1.94498 5.191456,-1.83415 2.674977,0.13975 4.384875,1.352 4.915015,3.48455 0.07588,0.30524 0.115198,1.85814 0.140942,5.56683 l 0.0357,5.1435 h -1.360497 -1.360497 l -0.0047,-0.9525 -0.0047,-0.9525 -0.184873,0.254 c -0.424048,0.58261 -1.182296,1.24682 -1.699782,1.48898 -0.959318,0.44892 -2.437708,0.62063 -3.518238,0.40864 z m 2.992149,-2.32055 c 0.941254,-0.2889 1.614169,-0.86493 2.02805,-1.73607 0.246892,-0.51965 0.263272,-0.61751 0.293832,-1.7555 l 0.03236,-1.20516 -0.453881,0.15613 c -0.434935,0.14961 -1.540804,0.35837 -2.528214,0.47724 -1.229529,0.14803 -2.237562,0.49027 -2.696406,0.91546 -0.643255,0.59609 -0.701854,1.8852 -0.115532,2.54155 0.644717,0.72171 2.181398,0.9926 3.439786,0.60635 z m 18.633813,2.27263 c -1.90852,-0.40628 -3.13411,-1.71519 -3.34203,-3.56921 -0.20083,-1.7908 0.47986,-3.17567 1.91316,-3.89235 1.02888,-0.51446 1.97068,-0.73299 4.26521,-0.98966 2.52905,-0.28291 2.89904,-0.54348 2.62769,-1.85058 -0.13783,-0.66392 -0.53201,-1.21086 -1.10369,-1.53144 -0.44873,-0.25162 -0.50263,-0.26108 -1.48167,-0.25987 -0.85984,10e-4 -1.0902,0.031 -1.49874,0.19505 -0.56673,0.22752 -1.25364,0.81563 -1.55673,1.33281 -0.11814,0.20158 -0.26003,0.35224 -0.31533,0.3348 -0.0553,-0.0174 -0.62441,-0.15195 -1.2647,-0.29893 -0.73494,-0.1687 -1.16417,-0.30637 -1.16417,-0.37341 0,-0.23193 0.53925,-1.16568 0.91374,-1.58221 1.20636,-1.34176 3.09422,-2.02519 5.26693,-1.90669 2.23467,0.12187 3.79287,0.96798 4.51503,2.45167 0.50523,1.03802 0.50206,0.99936 0.54093,6.59782 l 0.0357,5.1435 h -1.3605 -1.36049 v -0.93133 c 0,-0.51223 -0.0294,-0.93133 -0.0654,-0.93133 -0.036,0 -0.13898,0.13662 -0.22891,0.3036 -0.23909,0.44397 -1.02645,1.1277 -1.61809,1.40513 -1.02146,0.47899 -2.47621,0.61696 -3.71792,0.35263 z m 3.21019,-2.27263 c 0.93109,-0.28578 1.60983,-0.86741 2.02591,-1.73607 0.24939,-0.52065 0.26534,-0.61485 0.29574,-1.74678 l 0.0321,-1.19644 -0.66532,0.19168 c -0.36593,0.10543 -1.12252,0.25497 -1.68132,0.33231 -2.50809,0.34714 -3.25571,0.65035 -3.68672,1.49518 -0.29684,0.58186 -0.17984,1.58404 0.23978,2.05377 0.64472,0.72171 2.1814,0.9926 3.43979,0.60635 z m 28.412802,2.32714 c -1.04217,-0.1793 -1.89536,-0.6258 -2.54845,-1.33368 -0.54832,-0.59432 -0.80339,-1.08396 -0.96707,-1.85646 -0.41992,-1.9818 0.29449,-3.60167 1.92836,-4.3724 1.02714,-0.48453 2.00705,-0.70502 4.21183,-0.9477 2.45031,-0.26971 2.7723,-0.47564 2.60913,-1.66874 -0.11722,-0.85713 -0.53679,-1.45642 -1.25446,-1.79183 -0.32077,-0.14991 -0.54162,-0.17806 -1.397,-0.17806 -0.96645,0 -1.04377,0.0131 -1.58537,0.26972 -0.61296,0.29037 -1.22465,0.84938 -1.45072,1.32579 -0.13673,0.28814 -0.14266,0.29066 -0.49848,0.21156 -1.21278,-0.26961 -2.22486,-0.51094 -2.25058,-0.53666 -0.0164,-0.0164 0.12944,-0.33593 0.32408,-0.71005 0.61168,-1.17573 1.79201,-2.13122 3.14404,-2.54513 1.76883,-0.54152 4.10965,-0.38926 5.53436,0.35998 0.70917,0.37294 1.42743,1.10887 1.74537,1.78829 0.49029,1.04774 0.49199,1.0705 0.49528,6.631 l 0.003,5.10116 h -1.35467 -1.35467 v -0.94064 -0.94065 l -0.36567,0.49615 c -0.63472,0.86121 -1.50908,1.38028 -2.74999,1.63259 -0.50305,0.10228 -1.64015,0.10523 -2.21834,0.006 z m 2.60513,-2.24352 c 1.47228,-0.34712 2.42724,-1.29603 2.64547,-2.62871 0.0453,-0.27682 0.0826,-0.87886 0.0829,-1.33787 4.5e-4,-0.76307 -0.0122,-0.82902 -0.14767,-0.76996 -0.3789,0.16517 -1.37097,0.37647 -2.68844,0.57261 -0.79179,0.11788 -1.66355,0.29811 -1.93725,0.40051 -1.15624,0.43261 -1.6781,1.3431 -1.37245,2.39453 0.33217,1.14262 1.83089,1.74295 3.41743,1.36889 z m 29.22954,2.27688 c -2.89981,-0.35177 -4.78848,-2.01793 -5.56044,-4.90534 -0.20312,-0.75975 -0.22517,-0.98732 -0.22517,-2.32389 0,-1.32492 0.0231,-1.56782 0.21811,-2.29607 0.67232,-2.51035 2.14915,-4.09453 4.4245,-4.74616 0.57112,-0.16356 0.86321,-0.19262 1.86267,-0.18527 1.40193,0.0103 2.14152,0.17564 3.16293,0.70704 2.2748,1.18347 3.54818,3.83312 3.37361,7.01978 -0.19027,3.47323 -1.93318,5.84981 -4.80737,6.55521 -0.57554,0.14125 -1.92877,0.23779 -2.44884,0.1747 z m 2.17692,-2.60861 c 0.98657,-0.44677 1.7711,-1.52039 2.11434,-2.89346 0.21915,-0.87668 0.19609,-2.73736 -0.0449,-3.62359 -0.57806,-2.12567 -2.03562,-3.22296 -3.99479,-3.00738 -0.98579,0.10847 -2.00584,0.80407 -2.53516,1.72881 -0.5785,1.01065 -0.86035,2.62579 -0.69809,4.0005 0.1667,1.41238 0.62997,2.49293 1.3626,3.17822 0.75195,0.70337 1.34536,0.9109 2.50809,0.87717 0.62396,-0.0181 0.85727,-0.0652 1.28792,-0.26027 z m -17.45925,2.37104 c -0.98452,-0.44073 -1.36797,-1.81224 -0.75427,-2.6978 0.29027,-0.41884 1.01156,-0.82277 1.46795,-0.82206 0.49646,7.8e-4 0.92954,0.16228 1.27703,0.47621 0.92105,0.83212 0.7459,2.39799 -0.33186,2.96699 -0.43123,0.22766 -1.23824,0.26496 -1.65885,0.0767 z M 37.370931,16.259913 V 6.9042435 l 3.704166,3.4e-4 c 4.649491,4.3e-4 5.331888,0.0913 6.783063,0.9027998 1.945051,1.08773 3.020134,3.6173897 2.640571,6.2132397 -0.298865,2.04395 -1.397246,3.59609 -3.094801,4.3733 -1.235346,0.5656 -2.212255,0.69872 -5.1435,0.70085 l -2.010833,0.001 v 3.25967 3.25966 h -1.439333 -1.439333 z m 7.554526,0.25736 c 0.825772,-0.175 1.276747,-0.40224 1.762734,-0.88823 0.534534,-0.53453 0.817073,-1.13902 0.946078,-2.02412 0.239105,-1.6405 -0.4371,-3.18035 -1.659168,-3.7782497 -0.779329,-0.38129 -1.43183,-0.46402 -3.672337,-0.46562 l -2.053167,-10e-4 v 3.6406597 3.64067 l 2.053167,-0.001 c 1.449537,-0.001 2.220607,-0.037 2.622693,-0.12217 z m 20.639473,2.06882 v -7.02948 l 1.3335,0.0233 1.3335,0.0233 0.04233,1.12091 0.04233,1.12091 0.282154,-0.54507 c 0.45401,-0.87705 1.270806,-1.52087 2.254474,-1.77701 0.29782,-0.0776 0.86165,-0.1314 1.37583,-0.1314 h 0.8712 v 1.34329 1.3433 l -0.35983,-0.0696 c -1.7734,-0.34307 -3.393966,0.32802 -4.060439,1.68148 l -0.278722,0.56602 -0.0239,4.67976 -0.0239,4.67975 H 66.959194 65.56493 Z m 20.997328,6.98904 c 0,-0.033 3.81916,-6.19554 4.19987,-6.77681 0.10176,-0.15536 -0.0845,-0.49064 -2.04602,-3.683 l -2.15797,-3.51208 1.49865,-0.0232 c 0.82425,-0.0128 1.52546,0.006 1.55824,0.0423 0.0328,0.036 0.71568,1.22757 1.51755,2.64785 0.80187,1.42028 1.48271,2.60847 1.51298,2.6404 0.0303,0.0319 0.72179,-1.10614 1.5367,-2.52906 0.814919,-1.42292 1.519929,-2.64059 1.566689,-2.70594 0.0686,-0.0958 0.3744,-0.11433 1.58284,-0.0956 l 1.49782,0.0232 -2.18868,3.50685 -2.18868,3.50684 0.19119,0.30316 c 0.49011,0.77711 4.08394,6.49608 4.14098,6.58965 0.0507,0.0831 -0.26236,0.10583 -1.4596,0.10583 h -1.52411 l -1.05619,-1.75683 c -0.580899,-0.96626 -1.282299,-2.1271 -1.558649,-2.57964 l -0.50247,-0.82281 -1.55491,2.57964 -1.55492,2.57964 h -1.50565 c -0.82811,0 -1.50566,-0.0182 -1.50566,-0.0404 z m 13.736672,-6.96572 0.0217,-7.00617 1.37583,-0.0233 1.37583,-0.0233 v 7.02943 7.02943 h -1.39749 -1.39749 z m 18.52132,-2.3495 V 6.9042435 h 1.35467 1.35467 v 9.3556695 9.35566 h -1.35467 -1.35467 z m 11.09134,2.32833 v -7.02733 h 1.397 1.397 v 7.02733 7.02733 h -1.397 -1.397 z M 100.88812,9.2252933 c -0.50747,-0.25288 -0.73002,-0.52675 -0.8656,-1.06518 -0.274797,-1.0913198 0.75717,-2.1462298 1.94084,-1.9839898 1.29078,0.17692 1.91516,1.7018998 1.08428,2.6482198 -0.55712,0.63453 -1.38306,0.78787 -2.15952,0.40095 z m 29.84346,0.1379 c -0.92564,-0.29741 -1.40246,-1.36959 -0.99943,-2.2472798 0.19241,-0.419 0.36767,-0.57798 0.89368,-0.81066 1.4333,-0.63401 2.93415,0.84874 2.23346,2.2065298 -0.27979,0.54216 -0.76255,0.85303 -1.38945,0.89473 -0.27496,0.0183 -0.60717,-10e-4 -0.73826,-0.0433 z"
       id="path1" /></g></svg>
