<?xml version="1.0" encoding="UTF-8"?><svg id="a" xmlns="http://www.w3.org/2000/svg" width="65.93cm" height="26.16cm" viewBox="0 0 1869.01 741.46"><g id="b"><path d="m630.19,369.6c0,143.69-116.9,260.59-260.59,260.59S109.01,513.29,109.01,369.6c0-71.25,28.75-135.92,75.26-183.01,47.26-47.87,112.89-77.58,185.33-77.58s142.77,31.88,190.37,82.81c43.53,46.6,70.22,109.13,70.22,177.78Z" fill="#fff" stroke-width="0"/><path d="m742.18,531.35c-3.62,0-6.59-1.16-8.92-3.49s-3.49-5.3-3.49-8.92v-12.41c0-3.36-1.3-6.21-3.88-8.53-2.33-2.58-5.18-3.88-8.53-3.88h-12.41c-3.62,0-6.59-1.16-8.92-3.49s-3.49-5.3-3.49-8.92v-124.14c0-3.36,1.16-6.21,3.49-8.53,2.33-2.58,5.3-3.88,8.92-3.88h12.41c3.36,0,6.21,1.3,8.53,3.88,2.58,2.33,3.88,5.18,3.88,8.53v124.14c0,3.62,1.16,6.59,3.49,8.92,2.33,2.33,5.3,3.49,8.92,3.49h12.41c3.36,0,6.21-1.16,8.53-3.49,2.58-2.33,3.88-5.3,3.88-8.92v-12.41c0-3.36,1.16-6.21,3.49-8.53,2.33-2.58,5.3-3.88,8.92-3.88h12.41c3.36,0,6.21-1.16,8.53-3.49,2.58-2.33,3.88-5.3,3.88-8.92v-86.9c0-3.36,1.16-6.21,3.49-8.53,2.33-2.58,5.3-3.88,8.92-3.88h12.41c3.36,0,6.21,1.3,8.53,3.88,2.58,2.33,3.88,5.18,3.88,8.53v124.14c0,3.62,1.16,6.59,3.49,8.92,2.33,2.33,5.3,3.49,8.92,3.49h12.41c3.36,0,6.21-1.16,8.53-3.49,2.58-2.33,3.88-5.3,3.88-8.92v-12.41c0-3.36,1.16-6.21,3.49-8.53,2.33-2.58,5.3-3.88,8.92-3.88h12.41c3.36,0,6.21-1.16,8.53-3.49,2.58-2.33,3.88-5.3,3.88-8.92v-86.9c0-3.36,1.16-6.21,3.49-8.53,2.33-2.58,5.3-3.88,8.92-3.88h12.41c3.36,0,6.21,1.3,8.54,3.88,2.58,2.33,3.88,5.18,3.88,8.53v86.9c0,3.62-1.3,6.59-3.88,8.92-2.33,2.33-5.18,3.49-8.54,3.49h-12.41c-3.62,0-6.59,1.3-8.92,3.88-2.33,2.33-3.49,5.18-3.49,8.53v12.41c0,3.62-1.3,6.59-3.88,8.92-2.33,2.33-5.18,3.49-8.53,3.49h-12.41c-3.62,0-6.59,1.3-8.92,3.88-2.33,2.33-3.49,5.18-3.49,8.53v12.41c0,3.62-1.3,6.59-3.88,8.92-2.33,2.33-5.18,3.49-8.53,3.49h-12.41c-3.62,0-6.59-1.16-8.92-3.49s-3.49-5.3-3.49-8.92v-12.41c0-3.36-1.3-6.21-3.88-8.53-2.33-2.58-5.18-3.88-8.53-3.88h-49.65c-3.62,0-6.59,1.3-8.92,3.88-2.33,2.33-3.49,5.18-3.49,8.53v12.41c0,3.62-1.3,6.59-3.88,8.92-2.33,2.33-5.18,3.49-8.53,3.49h-12.41Z" fill="#231f20" stroke-width="0"/><path d="m978.04,531.35c-3.62,0-6.59-1.16-8.92-3.49-2.33-2.33-3.49-5.3-3.49-8.92v-161.38c0-3.36,1.16-6.21,3.49-8.53,2.33-2.58,5.3-3.88,8.92-3.88h12.41c3.36,0,6.21,1.3,8.53,3.88,2.58,2.33,3.88,5.18,3.88,8.53v161.38c0,3.62-1.3,6.59-3.88,8.92-2.33,2.33-5.18,3.49-8.53,3.49h-12.41Z" fill="#231f20" stroke-width="0"/><path d="m1027.69,531.35c-3.62,0-6.59-1.16-8.92-3.49-2.33-2.33-3.49-5.3-3.49-8.92v-49.65c0-3.36,1.16-6.21,3.49-8.53,2.33-2.58,5.3-3.88,8.92-3.88h12.41c3.36,0,6.21-1.16,8.53-3.49,2.58-2.33,3.88-5.3,3.88-8.92v-12.41c0-3.36,1.16-6.21,3.49-8.53,2.33-2.58,5.3-3.88,8.92-3.88h49.65c3.36,0,6.21-1.16,8.53-3.49,2.58-2.33,3.88-5.3,3.88-8.92v-24.83h-99.31c-3.62,0-6.59-1.16-8.92-3.49s-3.49-5.3-3.49-8.92v-12.41c0-3.36,1.16-6.21,3.49-8.53,2.33-2.58,5.3-3.88,8.92-3.88h124.14c3.36,0,6.21,1.3,8.53,3.88,2.58,2.33,3.88,5.18,3.88,8.53v49.65c0,3.62-1.3,6.59-3.88,8.92-2.33,2.33-5.18,3.49-8.53,3.49h-12.41c-3.62,0-6.59,1.3-8.92,3.88-2.33,2.33-3.49,5.18-3.49,8.53v12.41c0,3.62-1.3,6.59-3.88,8.92-2.33,2.33-5.18,3.49-8.53,3.49h-49.65c-3.62,0-6.59,1.3-8.92,3.88-2.33,2.33-3.49,5.18-3.49,8.53v12.41c0,3.62,1.16,6.59,3.49,8.92,2.33,2.33,5.3,3.49,8.92,3.49h86.89c3.36,0,6.21,1.3,8.53,3.88,2.58,2.33,3.88,5.18,3.88,8.53v12.41c0,3.62-1.3,6.59-3.88,8.92-2.33,2.33-5.18,3.49-8.53,3.49h-124.14Z" fill="#231f20" stroke-width="0"/><path d="m1226.31,531.35c-3.62,0-6.59-1.16-8.92-3.49s-3.49-5.3-3.49-8.92v-12.41c0-3.36-1.3-6.21-3.88-8.53-2.33-2.58-5.18-3.88-8.53-3.88h-12.41c-3.62,0-6.59-1.16-8.92-3.49s-3.49-5.3-3.49-8.92v-49.65c0-3.36,1.16-6.21,3.49-8.53,2.33-2.58,5.3-3.88,8.92-3.88h86.9c3.36,0,6.21-1.16,8.53-3.49,2.58-2.33,3.88-5.3,3.88-8.92v-12.41c0-3.36-1.3-6.21-3.88-8.53-2.33-2.58-5.18-3.88-8.53-3.88h-86.9c-3.62,0-6.59-1.16-8.92-3.49s-3.49-5.3-3.49-8.92v-12.41c0-3.36,1.16-6.21,3.49-8.53,2.33-2.58,5.3-3.88,8.92-3.88h86.9c3.36,0,6.21,1.3,8.53,3.88,2.58,2.33,3.88,5.18,3.88,8.53v12.41c0,3.62,1.16,6.59,3.49,8.92s5.3,3.49,8.92,3.49h12.41c3.36,0,6.21,1.3,8.53,3.88,2.58,2.33,3.88,5.18,3.88,8.53v124.14c0,3.62-1.3,6.59-3.88,8.92-2.33,2.33-5.18,3.49-8.53,3.49h-86.89Zm49.65-37.24c3.36,0,6.21-1.16,8.53-3.49,2.58-2.33,3.88-5.3,3.88-8.92v-12.41c0-3.36-1.3-6.21-3.88-8.53-2.33-2.58-5.18-3.88-8.53-3.88h-49.65c-3.62,0-6.59,1.3-8.92,3.88-2.33,2.33-3.49,5.18-3.49,8.53v12.41c0,3.62,1.16,6.59,3.49,8.92,2.33,2.33,5.3,3.49,8.92,3.49h49.65Z" fill="#231f20" stroke-width="0"/><path d="m1350.45,531.35c-3.62,0-6.59-1.16-8.92-3.49-2.33-2.33-3.49-5.3-3.49-8.92v-124.14c0-3.36,1.16-6.21,3.49-8.53,2.33-2.58,5.3-3.88,8.92-3.88h12.41c3.36,0,6.21-1.16,8.53-3.49,2.58-2.33,3.88-5.3,3.88-8.92v-12.41c0-3.36,1.16-6.21,3.49-8.53,2.33-2.58,5.3-3.88,8.92-3.88h49.65c3.36,0,6.21,1.3,8.53,3.88,2.58,2.33,3.88,5.18,3.88,8.53v12.41c0,3.62-1.3,6.59-3.88,8.92-2.33,2.33-5.18,3.49-8.53,3.49h-49.65c-3.62,0-6.59,1.3-8.92,3.88-2.33,2.33-3.49,5.18-3.49,8.53v124.14c0,3.62-1.3,6.59-3.88,8.92-2.33,2.33-5.18,3.49-8.53,3.49h-12.41Z" fill="#231f20" stroke-width="0"/><path d="m1511.82,531.35c-3.62,0-6.59-1.16-8.92-3.49s-3.49-5.3-3.49-8.92v-12.41c0-3.36-1.3-6.21-3.88-8.53-2.33-2.58-5.18-3.88-8.53-3.88h-12.41c-3.62,0-6.59-1.16-8.92-3.49s-3.49-5.3-3.49-8.92v-124.14c0-3.36,1.16-6.21,3.49-8.53,2.33-2.58,5.3-3.88,8.92-3.88h86.9c3.36,0,6.21-1.16,8.53-3.49,2.58-2.33,3.88-5.3,3.88-8.92v-49.65c0-3.36,1.16-6.21,3.49-8.54,2.33-2.58,5.3-3.88,8.92-3.88h12.41c3.36,0,6.21,1.3,8.53,3.88,2.58,2.33,3.88,5.18,3.88,8.54v235.86c0,3.62-1.3,6.59-3.88,8.92-2.33,2.33-5.18,3.49-8.53,3.49h-86.89Zm49.65-37.24c3.36,0,6.21-1.16,8.53-3.49,2.58-2.33,3.88-5.3,3.88-8.92v-86.89c0-3.36-1.3-6.21-3.88-8.53-2.33-2.58-5.18-3.88-8.53-3.88h-49.65c-3.62,0-6.59,1.3-8.92,3.88-2.33,2.33-3.49,5.18-3.49,8.53v86.89c0,3.62,1.16,6.59,3.49,8.92,2.33,2.33,5.3,3.49,8.92,3.49h49.65Z" fill="#231f20" stroke-width="0"/><path d="m1635.96,531.35c-3.62,0-6.59-1.16-8.92-3.49-2.33-2.33-3.49-5.3-3.49-8.92v-12.41c0-3.36,1.16-6.21,3.49-8.53,2.33-2.58,5.3-3.88,8.92-3.88h86.9c3.36,0,6.21-1.16,8.53-3.49,2.58-2.33,3.88-5.3,3.88-8.92v-12.41c0-3.36-1.3-6.21-3.88-8.53-2.33-2.58-5.18-3.88-8.53-3.88h-86.9c-3.62,0-6.59-1.16-8.92-3.49-2.33-2.33-3.49-5.3-3.49-8.92v-49.65c0-3.36,1.16-6.21,3.49-8.53,2.33-2.58,5.3-3.88,8.92-3.88h12.41c3.36,0,6.21-1.16,8.53-3.49,2.58-2.33,3.88-5.3,3.88-8.92v-12.41c0-3.36,1.16-6.21,3.49-8.53,2.33-2.58,5.3-3.88,8.92-3.88h86.89c3.36,0,6.21,1.3,8.53,3.88,2.58,2.33,3.88,5.18,3.88,8.53v18.62c0,1.81-.65,3.36-1.94,4.65-1.3,1.04-2.72,1.55-4.27,1.55h-93.1c-3.62,0-6.59,1.3-8.92,3.88-2.33,2.33-3.49,5.18-3.49,8.53v12.41c0,3.62,1.16,6.59,3.49,8.92s5.3,3.49,8.92,3.49h86.89c3.36,0,6.21,1.3,8.53,3.88,2.58,2.33,3.88,5.18,3.88,8.53v49.65c0,3.62-1.3,6.59-3.88,8.92-2.33,2.33-5.18,3.49-8.53,3.49h-12.41c-3.62,0-6.59,1.3-8.92,3.88-2.33,2.33-3.49,5.18-3.49,8.53v12.41c0,3.62-1.3,6.59-3.88,8.92-2.33,2.33-5.18,3.49-8.53,3.49h-86.9Z" fill="#231f20" stroke-width="0"/><path d="m726.28,311.11c-1.41,0-2.56-.45-3.47-1.36s-1.36-2.06-1.36-3.47v-4.82c0-1.3-.5-2.41-1.51-3.32-.9-1-2.01-1.51-3.32-1.51h-4.82c-1.41,0-2.56-.45-3.47-1.36-.9-.9-1.36-2.06-1.36-3.47v-4.82c0-1.3-.5-2.41-1.51-3.32-.9-1-2.01-1.51-3.32-1.51h-4.82c-1.41,0-2.56-.45-3.47-1.36s-1.36-2.06-1.36-3.47v-4.82c0-1.3.45-2.41,1.36-3.32.9-1,2.06-1.51,3.47-1.51h4.82c1.3,0,2.41-.45,3.32-1.36,1-.9,1.51-2.06,1.51-3.47v-4.82c0-1.3.45-2.41,1.36-3.32.9-1,2.06-1.51,3.47-1.51h4.82c1.3,0,2.41-.45,3.32-1.36,1-.9,1.51-2.06,1.51-3.47v-4.82c0-1.3.45-2.41,1.36-3.32.9-1,2.06-1.51,3.47-1.51h4.82c1.3,0,2.41.5,3.32,1.51,1,.9,1.51,2.01,1.51,3.32v4.82c0,1.41-.5,2.56-1.51,3.47-.9.9-2.01,1.36-3.32,1.36h-4.82c-1.41,0-2.56.5-3.47,1.51-.9.9-1.36,2.01-1.36,3.32v4.82c0,1.41-.5,2.56-1.51,3.47-.9.9-2.01,1.36-3.32,1.36h-4.82c-1.41,0-2.56.5-3.47,1.51-.9.9-1.36,2.01-1.36,3.32v4.82c0,1.41.45,2.56,1.36,3.47.9.9,2.06,1.36,3.47,1.36h4.82c1.3,0,2.41.5,3.32,1.51,1,.9,1.51,2.01,1.51,3.32v4.82c0,1.41.45,2.56,1.36,3.47.9.9,2.06,1.36,3.47,1.36h4.82c1.3,0,2.41.5,3.32,1.51,1,.9,1.51,2.01,1.51,3.32v4.82c0,1.41-.5,2.56-1.51,3.47-.9.9-2.01,1.36-3.32,1.36h-4.82Z" fill="#008ec3" stroke-width="0"/><path d="m763.89,311.11c-1.41,0-2.56-.45-3.47-1.36-.9-.9-1.36-2.06-1.36-3.47v-4.82c0-1.3-.5-2.41-1.51-3.32-.9-1-2.01-1.51-3.32-1.51h-4.82c-1.41,0-2.56-.45-3.47-1.36-.9-.9-1.36-2.06-1.36-3.47v-33.75c0-1.3.45-2.41,1.36-3.32.9-1,2.06-1.51,3.47-1.51h4.82c1.3,0,2.41-.45,3.32-1.36,1-.9,1.51-2.06,1.51-3.47v-4.82c0-1.3.45-2.41,1.36-3.32.9-1,2.06-1.51,3.47-1.51h19.29c1.3,0,2.41.5,3.32,1.51,1,.9,1.51,2.01,1.51,3.32v4.82c0,1.41-.5,2.56-1.51,3.47-.9.9-2.01,1.36-3.32,1.36h-19.29c-1.41,0-2.56.5-3.47,1.51-.9.9-1.36,2.01-1.36,3.32v33.75c0,1.41.45,2.56,1.36,3.47.9.9,2.06,1.36,3.47,1.36h19.29c1.3,0,2.41.5,3.32,1.51,1,.9,1.51,2.01,1.51,3.32v4.82c0,1.41-.5,2.56-1.51,3.47-.9.9-2.01,1.36-3.32,1.36h-19.29Z" fill="#008ec3" stroke-width="0"/><path d="m801.51,311.11c-1.41,0-2.56-.45-3.47-1.36s-1.36-2.06-1.36-3.47v-91.62c0-1.3.45-2.41,1.36-3.32.9-1,2.06-1.51,3.47-1.51h4.82c1.3,0,2.41.5,3.32,1.51,1,.9,1.51,2.01,1.51,3.32v91.62c0,1.41-.5,2.56-1.51,3.47-.9.9-2.01,1.36-3.32,1.36h-4.82Z" fill="#008ec3" stroke-width="0"/><path d="m839.12,311.11c-1.41,0-2.56-.45-3.47-1.36-.9-.9-1.36-2.06-1.36-3.47v-4.82c0-1.3-.5-2.41-1.51-3.32-.9-1-2.01-1.51-3.32-1.51h-4.82c-1.41,0-2.56-.45-3.47-1.36-.9-.9-1.36-2.06-1.36-3.47v-33.75c0-1.3.45-2.41,1.36-3.32.9-1,2.06-1.51,3.47-1.51h4.82c1.3,0,2.41-.45,3.32-1.36,1-.9,1.51-2.06,1.51-3.47v-4.82c0-1.3.45-2.41,1.36-3.32.9-1,2.06-1.51,3.47-1.51h19.29c1.3,0,2.41.5,3.32,1.51,1,.9,1.51,2.01,1.51,3.32v4.82c0,1.41.45,2.56,1.36,3.47.9.9,2.06,1.36,3.47,1.36h4.82c1.3,0,2.41.5,3.32,1.51,1,.9,1.51,2.01,1.51,3.32v21.7c0,.7-.25,1.31-.75,1.81-.5.4-1.05.6-1.66.6h-36.17c-1.41,0-2.56.5-3.47,1.51-.9.9-1.36,2.01-1.36,3.32v4.82c0,1.41.45,2.56,1.36,3.47.9.9,2.06,1.36,3.47,1.36h33.75c1.3,0,2.41.5,3.32,1.51,1,.9,1.51,2.01,1.51,3.32v4.82c0,1.41-.5,2.56-1.51,3.47-.9.9-2.01,1.36-3.32,1.36h-33.75Zm19.29-43.4c1.3,0,2.41-.45,3.32-1.36,1-.9,1.51-2.06,1.51-3.47v-4.82c0-1.3-.5-2.41-1.51-3.32-.9-1-2.01-1.51-3.32-1.51h-19.29c-1.41,0-2.56.5-3.47,1.51-.9.9-1.36,2.01-1.36,3.32v4.82c0,1.41.45,2.56,1.36,3.47.9.9,2.06,1.36,3.47,1.36h19.29Z" fill="#008ec3" stroke-width="0"/><path d="m905.67,311.11c-1.41,0-2.56-.45-3.47-1.36-.9-.9-1.36-2.06-1.36-3.47v-4.82c0-1.3-.5-2.41-1.51-3.32-.9-1-2.01-1.51-3.32-1.51h-4.82c-1.41,0-2.56-.45-3.47-1.36-.9-.9-1.36-2.06-1.36-3.47v-19.29c0-1.3.45-2.41,1.36-3.32.9-1,2.06-1.51,3.47-1.51h33.75c1.3,0,2.41-.45,3.32-1.36,1-.9,1.51-2.06,1.51-3.47v-4.82c0-1.3-.5-2.41-1.51-3.32-.9-1-2.01-1.51-3.32-1.51h-33.75c-1.41,0-2.56-.45-3.47-1.36-.9-.9-1.36-2.06-1.36-3.47v-4.82c0-1.3.45-2.41,1.36-3.32.9-1,2.06-1.51,3.47-1.51h33.75c1.3,0,2.41.5,3.32,1.51,1,.9,1.51,2.01,1.51,3.32v4.82c0,1.41.45,2.56,1.36,3.47.9.9,2.06,1.36,3.47,1.36h4.82c1.3,0,2.41.5,3.32,1.51,1,.9,1.51,2.01,1.51,3.32v48.22c0,1.41-.5,2.56-1.51,3.47-.9.9-2.01,1.36-3.32,1.36h-33.75Zm19.29-14.47c1.3,0,2.41-.45,3.32-1.36,1-.9,1.51-2.06,1.51-3.47v-4.82c0-1.3-.5-2.41-1.51-3.32-.9-1-2.01-1.51-3.32-1.51h-19.29c-1.41,0-2.56.5-3.47,1.51-.9.9-1.36,2.01-1.36,3.32v4.82c0,1.41.45,2.56,1.36,3.47.9.9,2.06,1.36,3.47,1.36h19.29Z" fill="#008ec3" stroke-width="0"/><path d="m957.75,311.11c-1.41,0-2.56-.45-3.47-1.36s-1.36-2.06-1.36-3.47v-48.22c0-1.3.45-2.41,1.36-3.32.9-1,2.06-1.51,3.47-1.51h4.82c1.3,0,2.41-.45,3.32-1.36,1-.9,1.51-2.06,1.51-3.47v-4.82c0-1.3.45-2.41,1.36-3.32.9-1,2.06-1.51,3.47-1.51h19.29c1.3,0,2.41.5,3.32,1.51,1,.9,1.51,2.01,1.51,3.32v4.82c0,1.41-.5,2.56-1.51,3.47-.9.9-2.01,1.36-3.32,1.36h-19.29c-1.41,0-2.56.5-3.47,1.51-.9.9-1.36,2.01-1.36,3.32v48.22c0,1.41-.5,2.56-1.51,3.47-.9.9-2.01,1.36-3.32,1.36h-4.82Z" fill="#008ec3" stroke-width="0"/><path d="m1049.03,311.11c-1.41,0-2.56-.45-3.47-1.36-.9-.9-1.36-2.06-1.36-3.47v-4.82c0-1.3-.5-2.41-1.51-3.32-.9-1-2.01-1.51-3.32-1.51h-4.82c-1.41,0-2.56-.45-3.47-1.36-.9-.9-1.36-2.06-1.36-3.47v-33.75c0-1.3.45-2.41,1.36-3.32.9-1,2.06-1.51,3.47-1.51h4.82c1.3,0,2.41-.45,3.32-1.36,1-.9,1.51-2.06,1.51-3.47v-4.82c0-1.3.45-2.41,1.36-3.32.9-1,2.06-1.51,3.47-1.51h19.29c1.3,0,2.41.5,3.32,1.51,1,.9,1.51,2.01,1.51,3.32v4.82c0,1.41-.5,2.56-1.51,3.47-.9.9-2.01,1.36-3.32,1.36h-19.29c-1.41,0-2.56.5-3.47,1.51-.9.9-1.36,2.01-1.36,3.32v33.75c0,1.41.45,2.56,1.36,3.47.9.9,2.06,1.36,3.47,1.36h19.29c1.3,0,2.41.5,3.32,1.51,1,.9,1.51,2.01,1.51,3.32v4.82c0,1.41-.5,2.56-1.51,3.47-.9.9-2.01,1.36-3.32,1.36h-19.29Z" fill="#008ec3" stroke-width="0"/><path d="m1101.11,311.11c-1.41,0-2.56-.45-3.47-1.36-.9-.9-1.36-2.06-1.36-3.47v-4.82c0-1.3-.5-2.41-1.51-3.32-.9-1-2.01-1.51-3.32-1.51h-4.82c-1.41,0-2.56-.45-3.47-1.36-.9-.9-1.36-2.06-1.36-3.47v-33.75c0-1.3.45-2.41,1.36-3.32.9-1,2.06-1.51,3.47-1.51h4.82c1.3,0,2.41-.45,3.32-1.36,1-.9,1.51-2.06,1.51-3.47v-4.82c0-1.3.45-2.41,1.36-3.32.9-1,2.06-1.51,3.47-1.51h19.29c1.3,0,2.41.5,3.32,1.51,1,.9,1.51,2.01,1.51,3.32v4.82c0,1.41.45,2.56,1.36,3.47.9.9,2.06,1.36,3.47,1.36h4.82c1.3,0,2.41.5,3.32,1.51,1,.9,1.51,2.01,1.51,3.32v33.75c0,1.41-.5,2.56-1.51,3.47-.9.9-2.01,1.36-3.32,1.36h-4.82c-1.41,0-2.56.5-3.47,1.51-.9.9-1.36,2.01-1.36,3.32v4.82c0,1.41-.5,2.56-1.51,3.47-.9.9-2.01,1.36-3.32,1.36h-19.29Zm19.29-14.47c1.3,0,2.41-.45,3.32-1.36,1-.9,1.51-2.06,1.51-3.47v-33.75c0-1.3-.5-2.41-1.51-3.32-.9-1-2.01-1.51-3.32-1.51h-19.29c-1.41,0-2.56.5-3.47,1.51-.9.9-1.36,2.01-1.36,3.32v33.75c0,1.41.45,2.56,1.36,3.47.9.9,2.06,1.36,3.47,1.36h19.29Z" fill="#008ec3" stroke-width="0"/><path d="m1167.65,311.11c-1.41,0-2.56-.45-3.47-1.36-.9-.9-1.36-2.06-1.36-3.47v-4.82c0-1.3-.5-2.41-1.51-3.32-.9-1-2.01-1.51-3.32-1.51h-4.82c-1.41,0-2.56-.45-3.47-1.36-.9-.9-1.36-2.06-1.36-3.47v-48.22c0-1.3.45-2.41,1.36-3.32.9-1,2.06-1.51,3.47-1.51h33.75c1.3,0,2.41-.45,3.32-1.36,1-.9,1.51-2.06,1.51-3.47v-19.29c0-1.3.45-2.41,1.36-3.32.9-1,2.06-1.51,3.47-1.51h4.82c1.3,0,2.41.5,3.32,1.51,1,.9,1.51,2.01,1.51,3.32v91.62c0,1.41-.5,2.56-1.51,3.47-.9.9-2.01,1.36-3.32,1.36h-33.75Zm19.29-14.47c1.3,0,2.41-.45,3.32-1.36,1-.9,1.51-2.06,1.51-3.47v-33.75c0-1.3-.5-2.41-1.51-3.32-.9-1-2.01-1.51-3.32-1.51h-19.29c-1.41,0-2.56.5-3.47,1.51-.9.9-1.36,2.01-1.36,3.32v33.75c0,1.41.45,2.56,1.36,3.47.9.9,2.06,1.36,3.47,1.36h19.29Z" fill="#008ec3" stroke-width="0"/><path d="m1234.2,311.11c-1.41,0-2.56-.45-3.47-1.36-.9-.9-1.36-2.06-1.36-3.47v-4.82c0-1.3-.5-2.41-1.51-3.32-.9-1-2.01-1.51-3.32-1.51h-4.82c-1.41,0-2.56-.45-3.47-1.36-.9-.9-1.36-2.06-1.36-3.47v-33.75c0-1.3.45-2.41,1.36-3.32.9-1,2.06-1.51,3.47-1.51h4.82c1.3,0,2.41-.45,3.32-1.36,1-.9,1.51-2.06,1.51-3.47v-4.82c0-1.3.45-2.41,1.36-3.32.9-1,2.06-1.51,3.47-1.51h19.29c1.3,0,2.41.5,3.32,1.51,1,.9,1.51,2.01,1.51,3.32v4.82c0,1.41.45,2.56,1.36,3.47.9.9,2.06,1.36,3.47,1.36h4.82c1.3,0,2.41.5,3.32,1.51,1,.9,1.51,2.01,1.51,3.32v21.7c0,.7-.25,1.31-.75,1.81-.5.4-1.05.6-1.66.6h-36.17c-1.41,0-2.56.5-3.47,1.51-.9.9-1.36,2.01-1.36,3.32v4.82c0,1.41.45,2.56,1.36,3.47.9.9,2.06,1.36,3.47,1.36h33.75c1.3,0,2.41.5,3.32,1.51,1,.9,1.51,2.01,1.51,3.32v4.82c0,1.41-.5,2.56-1.51,3.47-.9.9-2.01,1.36-3.32,1.36h-33.75Zm19.29-43.4c1.3,0,2.41-.45,3.32-1.36,1-.9,1.51-2.06,1.51-3.47v-4.82c0-1.3-.5-2.41-1.51-3.32-.9-1-2.01-1.51-3.32-1.51h-19.29c-1.41,0-2.56.5-3.47,1.51-.9.9-1.36,2.01-1.36,3.32v4.82c0,1.41.45,2.56,1.36,3.47.9.9,2.06,1.36,3.47,1.36h19.29Z" fill="#008ec3" stroke-width="0"/><path d="m1286.28,311.11c-1.41,0-2.56-.45-3.47-1.36s-1.36-2.06-1.36-3.47v-4.82c0-1.3.45-2.41,1.36-3.32.9-1,2.06-1.51,3.47-1.51h4.82c1.3,0,2.41-.45,3.32-1.36,1-.9,1.51-2.06,1.51-3.47v-4.82c0-1.3.45-2.41,1.36-3.32.9-1,2.06-1.51,3.47-1.51h4.82c1.3,0,2.41-.45,3.32-1.36,1-.9,1.51-2.06,1.51-3.47v-4.82c0-1.3-.5-2.41-1.51-3.32-.9-1-2.01-1.51-3.32-1.51h-4.82c-1.41,0-2.56-.45-3.47-1.36-.9-.9-1.36-2.06-1.36-3.47v-4.82c0-1.3-.5-2.41-1.51-3.32-.9-1-2.01-1.51-3.32-1.51h-4.82c-1.41,0-2.56-.45-3.47-1.36-.9-.9-1.36-2.06-1.36-3.47v-4.82c0-1.3.45-2.41,1.36-3.32.9-1,2.06-1.51,3.47-1.51h4.82c1.3,0,2.41.5,3.32,1.51,1,.9,1.51,2.01,1.51,3.32v4.82c0,1.41.45,2.56,1.36,3.47.9.9,2.06,1.36,3.47,1.36h4.82c1.3,0,2.41.5,3.32,1.51,1,.9,1.51,2.01,1.51,3.32v4.82c0,1.41.45,2.56,1.36,3.47s2.06,1.36,3.47,1.36h4.82c1.3,0,2.41.5,3.32,1.51,1,.9,1.51,2.01,1.51,3.32v4.82c0,1.41-.5,2.56-1.51,3.47-.9.9-2.01,1.36-3.32,1.36h-4.82c-1.41,0-2.56.5-3.47,1.51-.9.9-1.36,2.01-1.36,3.32v4.82c0,1.41-.5,2.56-1.51,3.47-.9.9-2.01,1.36-3.32,1.36h-4.82c-1.41,0-2.56.5-3.47,1.51-.9.9-1.36,2.01-1.36,3.32v4.82c0,1.41-.5,2.56-1.51,3.47-.9.9-2.01,1.36-3.32,1.36h-4.82Z" fill="#008ec3" stroke-width="0"/><path d="m593.15,369.6c0,123.27-100.28,223.56-223.56,223.56s-223.56-100.29-223.56-223.56c0-42.54,11.95-82.34,32.66-116.23,9.05-14.81,19.77-28.49,31.91-40.78,38.54-39.04,91.34-64,149.85-66.36,3.03-.13,6.08-.19,9.14-.19,64.38,0,122.49,27.35,163.32,71.04,37.35,39.98,60.24,93.63,60.24,152.52Z" fill="#008ec3" stroke-width="0"/><path d="m284.39,570.95c-22.99-34.38-37.47-87.82-19.62-106.1,3.12-3.19,10.66-8.83,11.63-18.17.7-6.78-2.51-11.19-5.09-17.44-5.66-13.72-4.21-26.4-2.91-37.79,1.75-15.33,7.49-20.61,18.89-43.6,16.1-32.48,11.54-36.49,18.89-45.78,9.24-11.66,11.18,13.27,10.97,16.12-.74,10-9.07,23.03-8,29.17,3.25,18.63,7.48,26.34,11.89,21,5.01-6.07,29.38-24.08,37.14-21.8,5.29,1.56,8.19,7,27.61-.97,6.3-2.58,24.01,21.03,33.11,23.09,10.66,2.42,1.66-58.49,9.53-61.84,5.7-2.43,34.66,30.96,37.63,61.36,3.02,30.95,6.24,32.13,5.81,45.78-.85,27.35-11.29,29.75-12.35,53.05-1.23,26.91,12.34,31.56,15.99,60.32,1.2,9.43-23.95,34.69-45.04,61.13-3.2,4.01-45.74,14.61-34.64,7.51,24.22-15.5,25.63-98.31,17.68-87.27-19.76,27.43-29.14,29.9-31.44,42.95-1.65,9.37-4.19,5.88-3.44,25.18.73,18.69,15.76,30.91,6.57,29.43-5.39-.87,1.51,4.59-2.21-5.69-2.43-6.73-45.44-29.57-47.65-35.55-38.42-104.3-31.41-44.69-27.2-10.96,4.48,35.92,30.4,45.33,23.01,39.08-4.47-3.78-35.15-4.84-46.77-22.21Z" fill="#fff" stroke-width="0"/><path d="m532.24,348.77c-1.07,1,.43-5.03-.93-5.03-1.49,0-2.98-.59-4.08-1.77-20.22-21.63-44.11-38.66-71.03-50.62-27.86-12.38-57.54-18.66-88.22-18.66-58.03,0-112.54,22.56-153.7,63.57-.45.44-.89.88-1.33,1.33-1.38,1.4,2.21,1.05.42.67-.26-.65-2.27,5.66-3.72,2.54-5.2-11.14-2.32-10.35-2.73-12.97.88-.88.25-.25,1.14-1.12,43.07-42.07,99.68-65.18,159.91-65.18,32.25,0,63.46,6.61,92.75,19.62,28.29,12.57,46.53,24.8,67.77,47.53,2.1,2.26,5.98,17.97,3.73,20.07Z" fill="#fff" stroke-width="0"/><path d="m564.85,477.61c-11.83,21.35-27.05,40.57-44.93,56.93-1.38,1.26-3.61.6-4.06-1.21-6.62-26.61-17.62-51.4-33.02-74.38-2.69-4.01-5.89-7.88-9.62-11.6-.75-.75-.88-.65-.36.27,10.26,18.66,17.79,36.23,22.54,56.73,3.25,14.05,5.76,28.28,7.55,42.68.11.89-.27,1.77-.98,2.3-21.76,16.13-46.54,28.39-73.31,35.79-2.3.64-4.08-2.04-2.59-3.91,13-16.36,23.14-34.02,27.05-55.65,2.74-15.13,1.61-29.96-3.38-44.48-5.48-15.93-13.62-32.75-12.55-49.73.73-11.53,11.04-17.61,10.08-29.64,0-.12.1-.22.22-.22.09,0,.17.06.21.14,2.43,7.79,1.11,15.53.44,23.68-1.14,14.04,2.28,25.56,7.98,40.06.06.14.1.14.15,0,7.04-23.64,7.08-46.67.1-69.08-1.72-5.54-6.24-18.35-13.52-38.42-2.62-7.2-4.44-16.69-4.6-25.47-.11-6.45-5.22-12.76-8.91-17.91-.16-.22-.35-.25-.57-.08-2.93,2.42-3.87,5.49-2.81,9.23,3.7,12.97,6.37,24.72,2.19,38.49-2.38,7.84-5.6,13.4-3.73,22.52,1.86,9.06,3.41,16.2,1.94,24.95-.07.39-.22.43-.45.12-6.21-7.94-11.24-15.15-20.13-21.21-11.98-8.17-22.35-7.24-35.67-7.06-8.95.11-17.69-1.83-26.9.88-17.67,5.22-34.21,18.87-37.46,37.87-.03.18-.21.29-.39.25-.12-.03-.21-.12-.25-.24-1.76-8.66-.87-16.74,2.69-24.24,3.85-8.15,6.48-15.51,4.25-24.6-.94-3.83-2.66-8.37-3.4-11.99-2.52-12.28-.4-22.31,3-34.13,1.24-4.3.72-7.28-2.14-10.39-.21-.24-.43-.23-.63,0-4.44,5.22-9.15,12.44-9.68,19.41-.32,4.2-.42,8.57-1.36,12.59-4.01,17.27-11.25,32.16-17.88,48.94-7.34,18.56-3.72,36.35,4.42,53.8.04.1.15.15.25.1.04-.03.09-.06.1-.1,4.54-9.57,6.07-19.57,4.62-30.02-.82-5.85-1.15-13.74,2.39-18.76.33-.48.51-.42.52.16,0,.96-.14,2.19-.45,3.66-1.09,5.1,5.71,15.55,6.96,20.79,4.44,18.53-9.3,36.19-17.01,51.74-.47.96-.94,2.74-1.37,5.34-1.95,11.56-2.61,23.15-1.98,34.78,1.34,24.93,14.03,45.99,31.05,62.97,1.8,1.79.02,4.82-2.42,4.11-24.15-7-46.62-17.97-66.67-32.16-.72-.51-1.11-1.35-1.04-2.23,1.19-13.88,3.46-28.74,6.82-44.55,4.34-20.47,11.2-41.04,22.14-59.01.05-.09.02-.2-.07-.24-.06-.03-.14-.03-.2,0-.38.31-.71.63-1,1-9.18,11.43-15.45,23.28-21.52,37.03-7.75,17.53-13.25,35.74-16.48,54.64-.32,1.88-2.57,2.68-4.02,1.45-19.39-16.4-35.96-36.04-48.86-58.07-.59-1.01-.38-2.31.49-3.09,13.45-11.98,27.09-23.54,40.94-34.65,3.54-2.83,7.54-7.05,12-12.66,14.07-17.67,25.89-36.76,35.46-57.28.09-.18,0-.4-.19-.48-.03-.02-.06-.03-.09-.03-15.56-2.05-59.38-19.29-54.67-35.19.11-.37.33-.71.6-.98,40.51-40.82,96.65-66.14,158.58-66.14s122.27,27.25,163.1,70.81c.15.16.28.34.39.53,9.97,18.15-44.8,27.37-57.31,28.93-.32.03-.4.2-.27.49,11.29,24.89,27.8,51.83,49.41,69.06,13.47,10.74,26.73,21.74,39.77,33,.88.76,1.12,2.05.55,3.07Z" fill="#231f20" stroke-width="0"/><path d="m360.67,295.59c-8.5-5.66-17.81-9.22-27.92-10.66-.12-.02-.19-.13-.17-.25.02-.08.08-.15.16-.17,24.58-4.21,49.15-4.18,73.71.08.09,0,.16.07.16.16s-.07.16-.16.16h0c-6.79,1.21-26.96,6.13-29.5,12.35-1.63,4.01-2.85,6.23-6.58,8.6-.67.43-1.55.35-2.14-.18-3.05-2.75-6.34-5.1-7.08-9.34-.05-.32-.21-.57-.48-.75Z" fill="#fff" stroke-width="0"/><path d="m352.21,302.52c-15.06-1.15-27.94-1.11-40.3-1.79-.38-.02-.64-.21-.79-.55l-2.26-5.17c-.16-.35-.07-.62.26-.82,2.18-1.31,4.28-2.1,6.27-2.37,15.19-2.04,29.48,1.01,42.87,9.14.38.23.51.72.28,1.11-.13.21-.34.36-.59.39-1.61.22-3.52.25-5.73.08Z" fill="#fff" stroke-width="0"/><path d="m426.35,300.82l-45.78,1.6c-.45.01-.82-.34-.83-.78,0-.29.14-.56.38-.71,13.9-8.54,33.72-12.77,49.3-6.85.43.17.55.46.34.88l-2.69,5.39c-.15.31-.39.47-.74.48Z" fill="#fff" stroke-width="0"/><path d="m332.47,308.78l-12.67,7.96c-.33.21-.59.14-.79-.2l-3.15-5.29c-.16-.27-.15-.54.04-.8,1.84-2.51,4.05-5.72,7.64-5.18,2.96.45,5.91,1.35,8.87,2.7.52.23.54.5.06.81Z" fill="#fff" stroke-width="0"/><path d="m422.18,311.34l-3.19,4.98c-.3.46-.68.55-1.14.25l-11.8-7.66c-1.06-.69-.99-1.21.22-1.57,3.52-1.05,7.13-1.65,10.83-1.8.35-.02.64.1.88.36l4.17,4.55c.24.26.25.56.03.9Z" fill="#fff" stroke-width="0"/><path d="m356.54,342.04c2.02-2.85,4.4-5.83,4.56-9.57.28-6.13.09-16.81,2.99-21.5.15-.25.37-.42.64-.53,2.53-.96,10.41-1.71,10.96,2.4.89,6.77,1.52,13.57,1.9,20.38.21,3.86,2.81,6.04,4.29,9.33.13.29.08.55-.14.77-3.3,3.36-6.9,6.29-10.79,8.78-2.78,1.78-12.26-6.78-14.29-8.74-.36-.35-.41-.91-.12-1.32Z" fill="#fff" stroke-width="0"/><path d="m349.87,340.25c-1.95,2.15-1.29,4.86-.08,7.84.14.36.02.54-.36.55-11.94.24-22.91,9.85-28.56,19.74-.05.09-.17.12-.26.06-.03-.02-.06-.05-.07-.09-2-5.4-3.9-11.21-4.35-16.75-.78-9.58,1.63-18.04,4.34-28.25.74-2.79,2.43-3.6,5.07-2.44,12.51,5.51,18.6,6.25,30.9-.43.31-.17.45-.08.41.27-.41,4.26-.73,8.48-.98,12.66-.12,2.08-4.8,5.43-6.07,6.83Z" fill="#fff" stroke-width="0"/><path d="m389.15,341.8c-.65-3.41-5.45-4.4-5.92-7.69-.62-4.36-1.12-8.74-1.5-13.13-.04-.41.12-.51.47-.28,9.68,6.28,19.45,6.65,29.31,1.11,2.2-1.24,5.1-1.78,6.21.88.92,2.18,2.05,7.27,3.41,15.24,1.74,10.22.49,20.03-3.73,29.43-.11.25-.24.26-.39.03-5.61-8.83-16.94-18.66-27.9-19.19-.36-.02-.48-.19-.37-.53.64-1.96.78-3.92.41-5.88Z" fill="#fff" stroke-width="0"/><path d="m368.78,359.82c2.9.32,9.8-4.25,12.42-5.83,1.3-.79,6.81,1.42,8.3,1.93,13.72,4.63,20.38,14.76,25.66,27.54.09.21,0,.46-.22.55-.11.05-.23.04-.34,0-7.04-3.17-13.98-8.81-19.07-12.13-9.87-6.43-21.97-6.05-34.11-5.46-9.27.45-13.93,2.61-22.27,8.07-5.64,3.69-11.35,7.28-17.12,10.75-.37.22-.47.14-.29-.26,6.91-15.7,15.71-28.11,33.8-30.79.29-.05.56,0,.82.13,3.56,1.79,8.54,5.06,12.41,5.49Z" fill="#fff" stroke-width="0"/><path d="m312.65,528.37c-5.12,16.82-1.34,32.47,2.94,48.88.21.77.05.86-.48.26-13.53-15.42-20.38-42.9-15.23-62.43,3.11-11.77,8.79-21.03,15.47-31.33,4.08-6.3,6.62-12.05,7.76-18.84,2.69-16.15,4.44-32.33,13.14-46.77,1.13-1.87,1.56-1.72,1.31.45-1.51,12.92-2.78,26.75-5.39,40.18-2.79,14.4-9.2,29.12-10.63,42.96-2.25,21.81,5.48,44.47,21.53,59.55,6.89,6.46,17.66,12.83,26.57,18.85,3.71,2.51,6.94,5.62,10.17,8.66.1.09.25.07.34-.03.05-.06.07-.14.05-.22-5.25-15.79-6.67-32.48,3.44-46.82,3.68-5.22,7.37-10.44,11.08-15.67,8.62-12.13,12.55-25.44,11.8-39.92-.56-10.87-3.41-23.69-4.73-33.46-1.82-13.5-4.53-27.43-6.8-41.21-.15-.93.03-1,.57-.23,12.92,18.78,16.52,38.92,18.05,61.38.43,6.46,2.02,11.13,5,17.93,8.55,19.56,8.4,39.15,4.79,60.29-2.3,13.47-8.34,24.93-18.09,34.38-.66.63-.78.54-.38-.28,8.36-17.05,12.33-38.53,6.49-57.04-.05-.17-.23-.27-.4-.22-.08.02-.15.07-.19.14-13.15,20.44-35.8,32.47-28.87,61.14,1.43,5.92,3.85,11.56,3.25,17.31-.05.49-.24.55-.57.18-5.59-6.38-12.08-11.6-19.46-15.67-7.59-4.18-16.77-8.37-22.91-12.79-16.36-11.77-24.27-29.95-29.34-49.63-.02-.08-.1-.13-.18-.11-.05.01-.09.05-.11.11Z" fill="#231f20" stroke-width="0"/><path d="m359.56,469.2c.5-7.28-2.14-17.66-1.35-24.85.69-6.33,3.24-13.47,8.41-17.6.45-.36.53-.29.22.2-5.1,8.31-5.07,16.51-3.21,25.09,2.89,13.32,6.01,24.7,2.14,37.9-2.86,9.75-10.01,17.06-13.29,26.84-2.92,8.71-3.51,18.97-2.88,28.03.02.22-.15.42-.37.43-.16.01-.31-.07-.39-.21-8.54-15.24-6.15-33.53,1.24-48.61,5.16-10.53,8.78-17.12,9.47-27.22Z" fill="#231f20" stroke-width="0"/><path d="m529,329.27h-.04c-40.58-41.11-97.04-66.65-159.37-66.65s-118.45,25.38-159,66.28c-1.27,1.28-2.53,2.59-3.77,3.9-.66-.81-.83-2.04-.86-3.13-.28-12.97,8.81-24.13,18.09-33.23,12.21-12,24.31-24.23,38.1-34.36,14.44-10.62,28.49-21.99,39.93-35.86,6.88-8.35,16-15.9,17.23-27.33-.01.15-8.87-1.34-10-1.33-19.15.2-40.79,6.76-57.76,15.46-17.29,8.86-34.2,18.58-50.45,29.19-5.11,3.33-10.32,6.57-15.78,9.31-.44.24-5.45,2.42-6.63,1.85,9.05-14.81,19.77-28.49,31.91-40.78,38.54-39.04,91.34-64,149.85-66.36,2.78.26,5.47.65,7.99,1.18,13.99,2.93,27.13,16.66,34.03,28.58,5.68,9.8,10.31,19.61,17.26,28.71,7.28,9.53,15.49,18.32,23.76,27,8.61,9.04,17.3,18.02,26.39,26.58,8.85,8.33,18.8,15.55,26.89,24.62,8.89,9.97,20.84,25.12,32.23,46.37Z" fill="#231f20" stroke-width="0"/><path d="m369.6,642.69c-150.58,0-273.09-122.51-273.09-273.09,0-72.19,28.01-140.3,78.87-191.79,25.13-25.45,54.47-45.46,87.2-59.45,33.91-14.5,69.91-21.84,107.02-21.84s75.63,7.87,110.55,23.38c33.71,14.98,63.64,36.31,88.95,63.39,47.45,50.8,73.59,116.97,73.59,186.32,0,150.58-122.51,273.09-273.09,273.09Zm0-521.18c-66.75,0-129.41,26.23-176.43,73.86-46.21,46.78-71.66,108.66-71.66,174.23,0,136.8,111.29,248.09,248.09,248.09s248.09-111.29,248.09-248.09c0-62.99-23.74-123.1-66.85-169.25-23.01-24.62-50.21-44-80.84-57.61-31.7-14.09-65.48-21.23-100.4-21.23Z" fill="#231f20" stroke-width="0"/></g></svg>