<svg width="158px" height="31px" viewBox="0 0 158 31" version="1.1" xmlns="http://www.w3.org/2000/svg" xmlns:xlink="http://www.w3.org/1999/xlink">
    <defs></defs>
    <g id="Website" stroke="none" stroke-width="1" fill="none" fill-rule="evenodd">
        <g id="01-Home" transform="translate(-149.000000, -125.000000)">
            <g id="Group-22" transform="translate(149.000000, 125.000000)">
                <polygon id="Fill-1" fill="#F37E03" points="29.5765241 9.96216898e-05 27.5769175 5.18341614 32.7301483 5.18341614 34.7297549 9.96216898e-05"></polygon>
                <g id="Group-21" transform="translate(0.000000, 0.510860)">
                    <path d="M0,0.154333922 L4.52162926,0.154333922 C5.00917781,0.154333922 5.40786381,0.265312484 5.71828499,0.486472636 C6.02850694,0.708230517 6.25006557,1.00171602 6.38335939,1.36752686 L11.0709584,14.333489 C11.2813594,14.8985433 11.4949483,15.5138068 11.7107289,16.1788812 C11.9269079,16.8439556 12.12914,17.5419052 12.3176242,18.2733276 C12.4726356,17.5419052 12.6525523,16.8439556 12.8579723,16.1788812 C13.0627945,15.5138068 13.2652257,14.8985433 13.4644691,14.333489 L18.1191929,1.36752686 C18.229773,1.05730492 18.4457528,0.777567213 18.7675309,0.528114502 C19.088512,0.278661791 19.4822169,0.154333922 19.9476494,0.154333922 L24.5025523,0.154333922 L14.7946179,24.3739607 L9.70793443,24.3739607 L0,0.154333922 Z" id="Fill-2" fill="#0062E3"></path>
                    <polygon id="Fill-4" fill="#0062E3" points="31.8166772 7.1356227 25.1671286 24.3739607 20.0136986 24.3739607 26.6634464 7.1356227"></polygon>
                    <path d="M40.2936661,21.232291 C40.9587405,21.232291 41.5403319,21.1159329 42.0390381,20.8832166 C42.5379435,20.6499026 43.0420293,20.2735319 43.5516938,19.7527097 L43.5516938,17.3920741 C42.5212071,17.3920741 41.6736257,17.4594184 41.0085513,17.5931107 C40.3436762,17.7274008 39.8172752,17.8951637 39.4291491,18.0965987 C39.0412222,18.2976353 38.7726421,18.5267652 38.6230103,18.7841876 C38.4735778,19.0412116 38.3986623,19.3203516 38.3986623,19.6224045 C38.3986623,20.2149544 38.5590532,20.6309745 38.8808313,20.871262 C39.2020116,21.111948 39.673023,21.232291 40.2936661,21.232291 Z M46.2115929,24.3739607 C45.7238451,24.3739607 45.3556434,24.3074134 45.1059914,24.1743188 C44.8565387,24.0412242 44.6489271,23.7646744 44.4827581,23.3432747 L44.1169473,22.3956731 C43.6847884,22.761484 43.269366,23.0828636 42.8702815,23.3600111 C42.4713962,23.6369594 42.0581654,23.8722658 41.6317846,24.0661296 C41.2052045,24.2601927 40.7509296,24.4042456 40.2687607,24.4984878 C39.7865917,24.5925306 39.2520217,24.6397513 38.6646522,24.6397513 C37.8776409,24.6397513 37.1627556,24.5367425 36.5201957,24.3313226 C35.8774366,24.1255042 35.331709,23.8226542 34.8828136,23.4225735 C34.4343168,23.0220943 34.0876333,22.5243844 33.8439586,21.9298421 C33.6000847,21.3351006 33.478347,20.6483087 33.478347,19.8702633 C33.478347,19.2587854 33.6333584,18.630571 33.9437796,17.9856202 C34.2538023,17.3410678 34.7915602,16.7544953 35.5562562,16.2265004 C36.3207531,15.6983062 37.3514391,15.2561851 38.648115,14.9007349 C39.9445917,14.544687 41.5791844,14.3665634 43.5516938,14.3665634 L43.5516938,13.628566 C43.5516938,12.6112293 43.343883,11.8752242 42.9282613,11.4225433 C42.5128388,10.9694638 41.9226799,10.7429241 41.1581831,10.7429241 C40.5484984,10.7429241 40.0499914,10.8092721 39.6618653,10.9423667 C39.2739385,11.0754613 38.9278527,11.2248938 38.6230103,11.3908636 C38.3179687,11.5576303 38.0218931,11.7068636 37.7335879,11.8401574 C37.445482,11.973252 37.1021856,12.0397992 36.7031011,12.0397992 C36.3484479,12.0397992 36.046395,11.9539253 35.7973407,11.7815798 C35.547888,11.6102305 35.3508363,11.3970401 35.2071818,11.1420086 L34.2763168,9.52973115 C35.3179612,8.60962522 36.4731743,7.92522421 37.7421554,7.47652812 C39.0109372,7.02743354 40.3709725,6.80348398 41.8230583,6.80348398 C42.8645034,6.80348398 43.8039359,6.97224313 44.6407581,7.31055839 C45.4773811,7.6486744 46.1866875,8.11948651 46.7684782,8.72339319 C47.3500696,9.32710063 47.7961755,10.0447753 48.1065967,10.8758194 C48.4166194,11.7068636 48.57183,12.6162103 48.57183,13.6020666 L48.57183,24.3739607 L46.2115929,24.3739607 Z" id="Fill-6" fill="#0062E3"></path>
                    <polygon id="Fill-8" fill="#0062E3" points="67.8961665 0.171249685 67.8961665 4.4970227 57.9467491 4.4970227 57.9467491 10.1539407 65.5670113 10.1539407 65.5670113 14.3133455 57.9467491 14.3133455 57.9467491 20.0868209 67.8961665 20.0868209 67.8961665 24.4125939 52.289831 24.4125939 52.289831 0.171249685"></polygon>
                    <path d="M76.0816822,7.15917327 L76.0816822,18.1068 C76.0816822,18.9609564 76.275546,19.6208504 76.6638714,20.0868807 C77.0521967,20.5527117 77.6232282,20.7856272 78.3775637,20.7856272 C78.9432156,20.7856272 79.4728045,20.6692691 79.9665296,20.4361544 C80.4598562,20.2032388 80.9400328,19.8760812 81.4058638,19.4544822 L81.4058638,7.15917327 L86.5632787,7.15917327 L86.5632787,24.4126537 L83.3690088,24.4126537 C82.725652,24.4126537 82.3042522,24.1241493 82.1044111,23.5473397 L81.7884111,22.5491304 C81.4556747,22.8709084 81.1117806,23.162003 80.7567289,23.4226134 C80.4016772,23.683423 80.0219193,23.9051808 79.617256,24.0882855 C79.2121942,24.2711909 78.7768474,24.4150446 78.3110164,24.5206436 C77.8453846,24.6260434 77.3349231,24.6788429 76.7804288,24.6788429 C75.8376091,24.6788429 75.0027793,24.5150648 74.276338,24.1879072 C73.5498966,23.8609488 72.937024,23.4032868 72.4379193,22.8153195 C71.9388146,22.2277508 71.5614477,21.5339854 71.3066154,20.7356172 C71.0511854,19.9370497 70.9238689,19.0609765 70.9238689,18.1068 L70.9238689,7.15917327 L76.0816822,7.15917327 Z" id="Fill-10" fill="#0062E3"></path>
                    <path d="M90.722285,24.4125939 L90.722285,7.15911349 L93.7838588,7.15911349 C94.038691,7.15911349 94.2520807,7.18142875 94.424227,7.22566078 C94.596174,7.27009206 94.7404262,7.33962799 94.8567844,7.43347163 C94.9733417,7.52791299 95.062005,7.65263934 95.1229735,7.80784994 C95.1841412,7.96325977 95.2367415,8.15194325 95.2811728,8.37370113 L95.5640984,9.98757251 C96.1962976,9.01167844 96.9060025,8.24040731 97.6936116,7.67475536 C98.4810214,7.1091034 99.3407566,6.82617781 100.272618,6.82617781 C101.060028,6.82617781 101.692227,7.01506053 102.169216,7.392029 L101.503743,11.1854237 C101.459311,11.4183392 101.370648,11.5821173 101.237554,11.6761602 C101.10426,11.7706015 100.926933,11.817623 100.705175,11.817623 C100.516293,11.817623 100.294535,11.7927175 100.039503,11.7427074 C99.7844716,11.6928966 99.4626936,11.6677919 99.0745675,11.6677919 C97.7213064,11.6677919 96.6563506,12.389053 95.8800984,13.8309773 L95.8800984,24.4125939 L90.722285,24.4125939 Z" id="Fill-12" fill="#0062E3"></path>
                    <path d="M112.318195,20.8520948 C113.505088,20.8520948 114.378571,20.4334845 114.938644,19.5958653 C115.498717,18.7584454 115.778853,17.4856787 115.778853,15.7775652 C115.778853,14.0694517 115.498717,12.7992752 114.938644,11.9672348 C114.378571,11.1353937 113.505088,10.719772 112.318195,10.719772 C111.09783,10.719772 110.205219,11.1353937 109.639567,11.9672348 C109.073716,12.7992752 108.79099,14.0694517 108.79099,15.7775652 C108.79099,17.4856787 109.073716,18.7584454 109.639567,19.5958653 C110.205219,20.4334845 111.09783,20.8520948 112.318195,20.8520948 M112.318195,6.89270517 C113.626826,6.89270517 114.819497,7.09832434 115.895411,7.50836721 C116.971325,7.91900782 117.894619,8.50677579 118.665492,9.27206961 C119.436563,10.0373634 120.03529,10.9666346 120.462468,12.0588868 C120.889446,13.1515375 121.103035,14.3800721 121.103035,15.7440923 C121.103035,17.1198678 120.889446,18.3591617 120.462468,19.4625715 C120.03529,20.5665791 119.436563,21.5038199 118.665492,22.2746926 C117.894619,23.0455652 116.971325,23.638912 115.895411,24.0547329 C114.819497,24.4707531 113.626826,24.6787632 112.318195,24.6787632 C110.998009,24.6787632 109.797567,24.4707531 108.716074,24.0547329 C107.63478,23.638912 106.702919,23.0455652 105.920889,22.2746926 C105.139058,21.5038199 104.534354,20.5665791 104.107575,19.4625715 C103.680397,18.3591617 103.467007,17.1198678 103.467007,15.7440923 C103.467007,14.3800721 103.680397,13.1515375 104.107575,12.0588868 C104.534354,10.9666346 105.139058,10.0373634 105.920889,9.27206961 C106.702919,8.50677579 107.63478,7.91900782 108.716074,7.50836721 C109.797567,7.09832434 110.998009,6.89270517 112.318195,6.89270517" id="Fill-14" fill="#0062E3"></path>
                    <path d="M131.684393,10.7694832 C131.307225,10.7694832 130.96632,10.8057455 130.661079,10.8776724 C130.356037,10.9497985 130.073111,11.0524088 129.8127,11.1855034 C129.551891,11.318598 129.310806,11.4877556 129.089048,11.6929763 C128.866892,11.898197 128.645134,12.1339019 128.423376,12.400091 L128.423376,19.7206913 C128.811502,20.1532487 129.233101,20.4557001 129.687974,20.6274479 C130.142448,20.7995942 130.619636,20.8852689 131.118741,20.8852689 C131.59553,20.8852689 132.033666,20.791226 132.433149,20.6025425 C132.832433,20.413859 133.178917,20.1118061 133.473001,19.6957859 C133.766685,19.2797657 133.99721,18.7392184 134.163578,18.0735463 C134.329946,17.4080734 134.413031,16.5985475 134.413031,15.6445702 C134.413031,14.7350242 134.346483,13.9697304 134.213389,13.3482903 C134.080294,12.7272487 133.8944,12.2253546 133.655906,11.8426081 C133.417412,11.4600608 133.131896,11.1855034 132.799159,11.0191352 C132.466423,10.8525677 132.094635,10.7694832 131.684393,10.7694832 Z M123.265563,29.886487 L123.265563,7.15919319 L126.460231,7.15919319 C126.78181,7.15919319 127.050789,7.23131929 127.266968,7.37537226 C127.483545,7.51962446 127.635767,7.73580353 127.724431,8.02430794 L128.107177,9.28850719 C128.439913,8.9224971 128.797755,8.5899599 129.180501,8.2904971 C129.563248,7.9910343 129.97349,7.73301412 130.411626,7.51683506 C130.849762,7.30045675 131.320973,7.13149836 131.825855,7.00936217 C132.330539,6.88742522 132.882244,6.8262575 133.481369,6.8262575 C134.379757,6.8262575 135.211797,7.02589937 135.976892,7.4251831 C136.742385,7.82466608 137.402279,8.40127642 137.956774,9.15561185 C138.511467,9.91014653 138.946814,10.8334404 139.263013,11.9258918 C139.579013,13.0185425 139.737212,14.2580356 139.737212,15.6445702 C139.737212,16.9420431 139.556698,18.1400936 139.196466,19.2383231 C138.836035,20.3363533 138.331351,21.2905299 137.682415,22.0998565 C137.03348,22.9097808 136.256829,23.5417808 135.353061,23.9966535 C134.448895,24.4513269 133.448095,24.6788628 132.350065,24.6788628 C131.451676,24.6788628 130.697142,24.5511478 130.087059,24.2961163 C129.476975,24.0410847 128.92268,23.6971907 128.423376,23.2646333 L128.423376,29.886487 L123.265563,29.886487 Z" id="Fill-16" fill="#0062E3"></path>
                    <path d="M150.152062,10.4533039 C149.164612,10.4533039 148.393939,10.7336393 147.839245,11.2935132 C147.284552,11.8537856 146.918541,12.6607213 146.741215,13.7145195 L153.179964,13.7145195 C153.179964,13.3042774 153.127364,12.9049937 153.021964,12.5162699 C152.916564,12.128343 152.744617,11.7818588 152.506322,11.4766179 C152.267628,11.1715763 151.954418,10.924913 151.566093,10.7362295 C151.177767,10.5477453 150.706557,10.4533039 150.152062,10.4533039 M150.052241,6.89282472 C151.194504,6.89282472 152.239934,7.07035057 153.188332,7.42520303 C154.13693,7.78045397 154.952035,8.29609584 155.634244,8.97252711 C156.316254,9.64935687 156.848832,10.4782093 157.231379,11.4600807 C157.614125,12.4415536 157.805399,13.5539294 157.805399,14.7958134 C157.805399,15.184338 157.788862,15.5005372 157.755588,15.7442119 C157.722315,15.9884842 157.661147,16.1825473 157.572483,16.3266003 C157.483422,16.4708525 157.364473,16.5704741 157.214642,16.6258638 C157.065011,16.6818512 156.873737,16.7091475 156.640821,16.7091475 L146.691404,16.7091475 C146.857772,18.1512711 147.295709,19.1967011 148.005613,19.8456368 C148.715518,20.4943733 149.630443,20.8187415 150.750988,20.8187415 C151.349913,20.8187415 151.865755,20.7468146 152.298113,20.6023632 C152.730869,20.4585095 153.116206,20.2975208 153.454521,20.1201942 C153.792837,19.9428676 154.103457,19.7816797 154.386183,19.6376267 C154.669109,19.4935738 154.965782,19.4212484 155.276403,19.4212484 C155.686645,19.4212484 155.997465,19.5708802 156.208264,19.8705422 L157.705578,21.7173291 C157.1732,22.3274124 156.59918,22.8237276 155.983518,23.2064741 C155.368055,23.5890214 154.735855,23.8884842 154.08692,24.1048625 C153.437984,24.3210416 152.789248,24.4708726 152.140312,24.5539571 C151.491376,24.6370416 150.872925,24.6786835 150.285157,24.6786835 C149.075949,24.6786835 147.941855,24.4816318 146.882678,24.0883253 C145.823301,23.6946204 144.897018,23.1094426 144.104229,22.3327919 C143.311041,21.5565397 142.684221,20.591604 142.223969,19.4377856 C141.763717,18.2843657 141.533591,16.9420631 141.533591,15.4114754 C141.533591,14.2580555 141.730443,13.1652055 142.124148,12.1339218 C142.517853,11.1022396 143.083306,10.1984716 143.821303,9.42182093 C144.558902,8.64556873 145.451712,8.02990668 146.499931,7.57503405 C147.548151,7.12016141 148.732055,6.89282472 150.052241,6.89282472" id="Fill-18" fill="#0062E3"></path>
                    <g id="Group-20" transform="translate(141.462799, 6.774275)"></g>
                </g>
            </g>
        </g>
    </g>
</svg>