<?xml version="1.0" encoding="UTF-8"?>
<svg id="Layer_1" data-name="Layer 1" xmlns="http://www.w3.org/2000/svg" viewBox="0 0 1017 132">
  <defs>
    <style>
      .cls-1 {
        fill: #0076ce;
        stroke: #fff;
        stroke-miterlimit: 10;
      }
    </style>
  </defs>
  <path class="cls-1" d="m1015,84.89c0-12.23-6.8-17.66-20.39-20.38-13.58-2.71-21.73-4.08-21.73-13.58,0-6.79,5.43-10.87,14.95-10.87,12.23,0,16.3,5.43,16.3,12.23l1.36,1.36h5.43l1.36-1.36c0-13.58-10.87-19.02-24.46-19.02-14.95,0-23.09,8.15-23.09,17.67,0,10.87,8.15,16.3,21.73,19.02,13.59,2.72,20.38,4.08,20.38,14.95,0,6.79-4.07,12.23-17.66,12.23-12.23,0-17.66-6.8-17.66-14.95l-1.36-1.36h-5.43l-1.36,1.36c0,12.23,9.51,21.74,25.81,21.74,17.66,0,25.82-8.15,25.82-19.02m-58.42-13.58l1.35-1.36v-4.07c0-19.02-10.87-32.61-29.89-32.61s-29.89,13.59-29.89,32.61v2.71c0,19.02,9.51,35.32,31.25,35.32,19.02,0,25.81-12.23,27.17-20.38l-1.36-1.36h-5.43l-1.36,1.36c-2.72,8.15-8.15,13.59-19.02,13.59-17.67,0-23.1-16.3-23.1-24.45l1.36-1.36h48.91Zm-8.15-6.8h-40.76l-1.36-1.36c0-9.51,5.43-23.09,21.74-23.09s21.74,13.58,21.74,23.09l-1.36,1.36Zm-59.78,36.68V35.97l-1.36-1.36h-5.43l-1.36,1.36v65.22l1.36,1.36h5.43l1.36-1.36Zm0-78.8v-8.15l-1.36-1.36h-5.43l-1.36,1.36v8.15l1.36,1.36h5.43l1.36-1.36Zm-51.62,74.72c-13.59,0-21.74-9.51-21.74-28.53s8.15-28.53,21.74-28.53,21.73,9.51,21.73,28.53-8.15,28.53-21.73,28.53m21.73-4.08c0,17.66-4.08,31.25-20.38,31.25-12.23,0-16.3-5.43-17.66-12.23l-1.36-1.36h-5.43l-1.36,1.36c1.36,10.87,9.51,19.02,25.81,19.02,17.67,0,28.53-10.87,28.53-38.04v-57.06l-1.36-1.36h-4.08l-1.36,1.36-1.36,8.16h-1.36c-2.71-5.43-9.51-10.87-21.74-10.87-19.02,0-28.53,14.95-28.53,35.33s9.51,35.32,28.53,35.32c12.23,0,19.02-5.43,21.74-10.87h1.36Zm-88.3-52.98c13.58,0,23.09,10.87,23.09,28.53s-9.51,28.53-23.09,28.53-23.1-10.87-23.1-28.53,9.51-28.53,23.1-28.53m0,63.85c17.66,0,31.24-12.23,31.24-35.32s-13.58-35.33-31.24-35.33-31.25,12.23-31.25,35.33,13.58,35.32,31.25,35.32m-40.76-2.71V8.81l-1.36-1.36h-5.43l-1.36,1.36v92.39l1.36,1.36h5.43l1.36-1.36Zm-48.9-61.14c13.58,0,23.09,10.87,23.09,28.53s-9.51,28.53-23.09,28.53-23.1-10.87-23.1-28.53,9.51-28.53,23.1-28.53m0,63.85c17.66,0,31.25-12.23,31.25-35.32s-13.59-35.33-31.25-35.33-31.25,12.23-31.25,35.33,13.59,35.32,31.25,35.32m-39.4-2.71v-40.76c0-17.66-9.51-27.17-24.45-27.17-9.51,0-17.67,4.08-21.74,10.87h-1.36l-1.35-8.16-1.36-1.36h-4.08l-1.36,1.36v65.22l1.36,1.36h5.44l1.35-1.36v-36.68c0-14.95,6.8-24.45,21.74-24.45,10.87,0,17.66,6.79,17.66,20.37v40.76l1.36,1.36h5.43l1.36-1.36Zm-69.29,0v-40.76c0-17.66-9.51-27.17-24.45-27.17-9.51,0-17.66,4.08-21.74,10.87h-1.36V8.81l-1.36-1.36h-5.43l-1.36,1.36v92.39l1.36,1.36h5.43l1.36-1.36v-36.68c0-14.95,6.8-24.45,21.74-24.45,10.87,0,17.66,6.79,17.66,20.37v40.76l1.36,1.36h5.44l1.35-1.36Zm-116.83-32.61c0-19.02,9.51-28.53,23.09-28.53s19.02,8.15,20.37,16.3l1.36,1.36h5.44l1.36-1.36c-1.36-13.58-12.23-23.09-28.53-23.09-17.66,0-31.24,10.87-31.24,35.33s13.58,35.32,31.24,35.32c16.3,0,27.17-9.51,28.53-23.09l-1.36-1.36h-5.44l-1.36,1.36c-1.36,8.15-6.79,16.3-20.37,16.3s-23.09-9.51-23.09-28.53m-14.95,2.72l1.36-1.36v-4.07c0-19.02-10.87-32.61-29.9-32.61s-29.89,13.59-29.89,32.61v2.71c0,19.02,9.51,35.32,31.25,35.32,19.02,0,25.81-12.23,27.17-20.38l-1.36-1.36h-5.43l-1.36,1.36c-2.71,8.15-8.15,13.59-19.02,13.59-17.66,0-23.09-16.3-23.09-24.45l1.36-1.36h48.91Zm-8.15-6.8h-40.76l-1.36-1.36c0-9.51,5.43-23.09,21.73-23.09s21.74,13.58,21.74,23.09l-1.36,1.36Zm-36.61-51.62v-4.08l-1.36-1.36h-70.65l-1.36,1.36v4.08l1.36,1.36h29.89l1.36,1.36v85.59l1.36,1.36h5.43l1.36-1.36V15.6l1.36-1.36h29.89l1.36-1.36Z"/>
  <path class="cls-1" d="m322.2,83.65v18.9h-61.35V7.45h21.6v76.2h39.75ZM38.55,102.55c22.13,0,40.73-15.12,46.03-35.58l53.8,42.03,53.77-42.01v35.56h61.35v-18.9h-39.75V7.45h-21.6v35.56l-51.57,40.29-11.53-9.01,24.69-19.29,26.88-21-15.35-11.99-51.57,40.29-11.53-9.01,51.57-40.29-15.35-11.99-53.8,42.03C79.28,22.57,60.68,7.45,38.55,7.45H0v95.1h38.55Zm-16.95-18.9V26.35h16.95c14.33,0,25.95,12.83,25.95,28.65s-11.62,28.65-25.95,28.65h-16.95Z"/>
</svg>