<svg id="Layer_1" data-name="Layer 1" xmlns="http://www.w3.org/2000/svg" viewBox="0 0 528.52 101.53"><defs><style>.cls-1{fill:none;}.cls-2{fill:#e54f38;}.cls-3{fill:#3e9ad5;}.cls-4{fill:#1f2e3c;}</style></defs><title>clickfunnels_horizontal_Logo</title><path class="cls-1" d="M82.32,94.53h6.14A6,6,0,0,0,82.32,94.53Z" transform="translate(-2.63 -2.19)"/><circle class="cls-1" cx="74.9" cy="10.94" r="4.6"/><path class="cls-1" d="M93.34,81.17a39.07,39.07,0,0,0,15.22,13.36h4.52c1.12,0,1.23-.11,1.23-1.23v-68c0-1.11-.11-1.22-1.22-1.22H108.6a37.69,37.69,0,0,0-4.5,2.6A39.28,39.28,0,0,0,93.34,81.17Z" transform="translate(-2.63 -2.19)"/><path class="cls-1" d="M74.32,93.8a5.17,5.17,0,0,1,1.78-7.35c2.28-1.33,4-4.94,2.33-8a6,6,0,0,0-7.16-3.13,5.15,5.15,0,0,1-6.21-4,5.06,5.06,0,0,1,4.34-6,6.13,6.13,0,0,0,5.24-5.18,6,6,0,0,0-5.38-6.87,5.11,5.11,0,1,1,1.82-10.06A6.21,6.21,0,0,0,78,40.77c1.12-1.46,2.34-5.7-1.92-8.64C72.56,29.71,73,26,74.88,24.07H13.05c-1.11,0-1.22.11-1.22,1.22v68c0,1.12.1,1.23,1.22,1.23H74.91A4.19,4.19,0,0,1,74.32,93.8Z" transform="translate(-2.63 -2.19)"/><path class="cls-1" d="M86.61,24.72a6.21,6.21,0,0,0,1.78-.65h-6A6.33,6.33,0,0,0,86.61,24.72Z" transform="translate(-2.63 -2.19)"/><path class="cls-2" d="M76.09,32.13c4.26,2.94,3,7.18,1.92,8.64a6.21,6.21,0,0,1-6.93,2.42,5.11,5.11,0,1,0-1.82,10.06,6,6,0,0,1,5.38,6.87A6.13,6.13,0,0,1,69.4,65.3a5.06,5.06,0,0,0-4.34,6,5.15,5.15,0,0,0,6.21,4,6,6,0,0,1,7.16,3.13c1.65,3-.05,6.62-2.33,8a5.17,5.17,0,0,0-1.78,7.35,4.19,4.19,0,0,0,.59.73h33.65a39.31,39.31,0,0,1-4.46-67.86,37.69,37.69,0,0,1,4.5-2.6H74.88C73,26,72.56,29.71,76.09,32.13Z" transform="translate(-2.63 -2.19)"/><circle class="cls-1" cx="74.9" cy="10.94" r="4.6"/><path class="cls-1" d="M91.23,17.05a4.59,4.59,0,1,0-2.14-4.74,5.44,5.44,0,0,0-.07.82A4.58,4.58,0,0,0,91.23,17.05Z" transform="translate(-2.63 -2.19)"/><path class="cls-1" d="M109.71,17.72a4.6,4.6,0,1,0,0-9.19h-.11a4.58,4.58,0,0,0-4.41,3.79,4.17,4.17,0,0,0-.08.8A4.59,4.59,0,0,0,109.71,17.72Z" transform="translate(-2.63 -2.19)"/><path class="cls-1" d="M113.09,24.07H42.77c-.1.16-.19.31-.28.48A6.05,6.05,0,0,0,45.15,33a6.25,6.25,0,0,0,5.25,0,5.11,5.11,0,0,1,6.26,7.85,5,5,0,0,1-2.21,1.5,6.09,6.09,0,0,0-.35,11.45,7.73,7.73,0,0,0,2.83.43,5.12,5.12,0,1,1-.18,10.22,6,6,0,0,0-6.18,4.13,6.05,6.05,0,0,0,3.86,7.66,5.13,5.13,0,1,1-4,9.4,6,6,0,0,0-6.67,1,6.15,6.15,0,0,0-1,7.91h70.34c1.12,0,1.23-.11,1.23-1.23v-68C114.31,24.18,114.2,24.07,113.09,24.07Z" transform="translate(-2.63 -2.19)"/><path class="cls-1" d="M28,31.55a39.37,39.37,0,0,0-10.45-7.48H13.05c-1.11,0-1.22.11-1.22,1.22v68c0,1.12.1,1.23,1.22,1.23h4.62A39.32,39.32,0,0,0,28,87.11,39.29,39.29,0,0,0,28,31.55Z" transform="translate(-2.63 -2.19)"/><path class="cls-3" d="M43.71,86.62a6,6,0,0,1,6.67-1,5.13,5.13,0,1,0,4-9.4,6.05,6.05,0,0,1-3.86-7.66,6,6,0,0,1,6.18-4.13,5.12,5.12,0,1,0,.18-10.22,7.73,7.73,0,0,1-2.83-.43,6.09,6.09,0,0,1,.35-11.45,5,5,0,0,0,2.21-1.5A5.11,5.11,0,0,0,50.4,33a6.25,6.25,0,0,1-5.25,0,6.05,6.05,0,0,1-2.66-8.4c.09-.17.18-.32.28-.48H17.53A39.37,39.37,0,0,1,28,31.55a39.29,39.29,0,0,1,0,55.56,39.32,39.32,0,0,1-10.31,7.42H42.74A6.15,6.15,0,0,1,43.71,86.62Z" transform="translate(-2.63 -2.19)"/><path class="cls-4" d="M148,52.74a19.06,19.06,0,0,1,.87-5.82,12.75,12.75,0,0,1,2.72-4.78,12.61,12.61,0,0,1,4.75-3.24,18.51,18.51,0,0,1,7-1.17,17.71,17.71,0,0,1,6.06.93,11.15,11.15,0,0,1,4.13,2.51,3.32,3.32,0,0,1,1,2.24,4,4,0,0,1-.59,2.38,3.45,3.45,0,0,1-2,1.44,4.47,4.47,0,0,1-3.28-.55,17.78,17.78,0,0,0-2.27-1,8.88,8.88,0,0,0-3-.45,6.61,6.61,0,0,0-5.37,2.14,8.72,8.72,0,0,0-1.79,5.78v5a8.77,8.77,0,0,0,1.79,5.79A6.61,6.61,0,0,0,163.3,66a12.92,12.92,0,0,0,3.24-.38,9.25,9.25,0,0,0,2.27-.86,4.18,4.18,0,0,1,2.72-.51,3.41,3.41,0,0,1,2,1.1,3.62,3.62,0,0,1,.9,2.06,3.47,3.47,0,0,1-.76,2.45,8.06,8.06,0,0,1-4.16,2.72,20.11,20.11,0,0,1-6.24.93,18.71,18.71,0,0,1-7-1.17,12.61,12.61,0,0,1-4.75-3.24,12.79,12.79,0,0,1-2.72-4.79,19,19,0,0,1-.87-5.81Z" transform="translate(-2.63 -2.19)"/><path class="cls-4" d="M182.1,29.26A2.94,2.94,0,0,1,183.24,27a4.37,4.37,0,0,1,3-1,4,4,0,0,1,2.86,1,3,3,0,0,1,1.07,2.24v41a3,3,0,0,1-1.07,2.24,4,4,0,0,1-2.86,1,4.37,4.37,0,0,1-3-1,2.94,2.94,0,0,1-1.14-2.24Z" transform="translate(-2.63 -2.19)"/><path class="cls-4" d="M201.17,28.61a2.9,2.9,0,0,1,1.14-2.22,4.41,4.41,0,0,1,3-1,4,4,0,0,1,2.85,1,3,3,0,0,1,1.07,2.22v1.64a3,3,0,0,1-1.07,2.22,4,4,0,0,1-2.85,1,4.41,4.41,0,0,1-3-1,2.9,2.9,0,0,1-1.14-2.22Zm0,12.36a2.92,2.92,0,0,1,1.14-2.24,4.37,4.37,0,0,1,3-1,4,4,0,0,1,2.85,1A3,3,0,0,1,209.23,41V70.3a3,3,0,0,1-1.07,2.24,4,4,0,0,1-2.85,1,4.42,4.42,0,0,1-3-1,2.94,2.94,0,0,1-1.14-2.24Z" transform="translate(-2.63 -2.19)"/><path class="cls-4" d="M218.09,52.74a19.06,19.06,0,0,1,.87-5.82,12.75,12.75,0,0,1,2.72-4.78,12.61,12.61,0,0,1,4.75-3.24,18.51,18.51,0,0,1,6.95-1.17,17.71,17.71,0,0,1,6.06.93,11.15,11.15,0,0,1,4.13,2.51,3.32,3.32,0,0,1,1,2.24,4,4,0,0,1-.59,2.38,3.45,3.45,0,0,1-2,1.44,4.47,4.47,0,0,1-3.28-.55,17.78,17.78,0,0,0-2.27-1,8.88,8.88,0,0,0-3-.45A6.61,6.61,0,0,0,228,47.37a8.72,8.72,0,0,0-1.79,5.78v5A8.77,8.77,0,0,0,228,63.9,6.61,6.61,0,0,0,233.38,66a12.86,12.86,0,0,0,3.24-.38,9.25,9.25,0,0,0,2.27-.86,4.18,4.18,0,0,1,2.72-.51,3.41,3.41,0,0,1,2,1.1,3.62,3.62,0,0,1,.9,2.06,3.47,3.47,0,0,1-.76,2.45,8,8,0,0,1-4.17,2.72,20,20,0,0,1-6.23.93,18.71,18.71,0,0,1-6.95-1.17,12.61,12.61,0,0,1-4.75-3.24A12.79,12.79,0,0,1,219,64.34a19,19,0,0,1-.87-5.81Z" transform="translate(-2.63 -2.19)"/><path class="cls-4" d="M252.73,29.26A2.94,2.94,0,0,1,253.87,27a4.37,4.37,0,0,1,3-1,4,4,0,0,1,2.86,1,3,3,0,0,1,1.07,2.24V50.81H264l10-12.12a3.87,3.87,0,0,1,2.62-.93,4.06,4.06,0,0,1,3,1.21,3.4,3.4,0,0,1,.93,2.89,3.75,3.75,0,0,1-1.21,2.41l-8.88,9.78,10.95,13.7a2.74,2.74,0,0,1,.55,2.41A4,4,0,0,1,280,72.71a4,4,0,0,1-2.86.76,3.34,3.34,0,0,1-2.24-1.17L263.82,57.84h-3V70.23a3,3,0,0,1-1.07,2.24,4,4,0,0,1-2.86,1,4.37,4.37,0,0,1-3-1,2.94,2.94,0,0,1-1.14-2.24Z" transform="translate(-2.63 -2.19)"/><path class="cls-4" d="M308.44,38.42V36.35q0-6.47,3.13-9.09c2.09-1.74,5.16-2.62,9.2-2.62a15.07,15.07,0,0,1,2.89.28,8.37,8.37,0,0,1,2.44.86,5.17,5.17,0,0,1,1.69,1.41,3,3,0,0,1,.62,1.86,3.48,3.48,0,0,1-.79,2.41,3,3,0,0,1-2.38.9,7.17,7.17,0,0,1-2.1-.28,8.68,8.68,0,0,0-2.37-.27,4.72,4.72,0,0,0-3.38,1,4.63,4.63,0,0,0-1,3.31v2.34h5.3a2.92,2.92,0,0,1,2.07.86,3,3,0,0,1,.89,2.24,3.14,3.14,0,0,1-.89,2.37,2.88,2.88,0,0,1-2.07.86h-5.3V70.3a3,3,0,0,1-1.07,2.24,3.94,3.94,0,0,1-2.79,1,4.36,4.36,0,0,1-3-1,3,3,0,0,1-1.1-2.24V44.75H306a2.88,2.88,0,0,1-2.07-.86,3.14,3.14,0,0,1-.89-2.37,3,3,0,0,1,.89-2.24,2.92,2.92,0,0,1,2.07-.86Z" transform="translate(-2.63 -2.19)"/><path class="cls-4" d="M346.8,73.54a17.84,17.84,0,0,1-6.65-1.14,12.84,12.84,0,0,1-7.68-8,18.4,18.4,0,0,1-1-6V41a2.94,2.94,0,0,1,1.13-2.23,4.37,4.37,0,0,1,3-1,4,4,0,0,1,2.86,1A3,3,0,0,1,339.56,41V58.66q0,3.8,2.07,5.58A7.63,7.63,0,0,0,346.8,66a7.51,7.51,0,0,0,5.13-1.79q2-1.78,2-5.58V41a2.94,2.94,0,0,1,1.1-2.23,4.11,4.11,0,0,1,2.89-1,4.38,4.38,0,0,1,3,1A2.9,2.9,0,0,1,362.08,41V58.39a18.4,18.4,0,0,1-1,6,12.84,12.84,0,0,1-7.68,8A17.86,17.86,0,0,1,346.8,73.54Z" transform="translate(-2.63 -2.19)"/><path class="cls-4" d="M386.65,37.73a19.56,19.56,0,0,1,6.65,1,13.08,13.08,0,0,1,4.78,2.93A11.9,11.9,0,0,1,401,46.27a17.22,17.22,0,0,1,1,5.92V70.3a2.91,2.91,0,0,1-1.17,2.24,4.44,4.44,0,0,1-3,1,4.19,4.19,0,0,1-2.9-1,3,3,0,0,1-1.1-2.24V52.6q0-3.78-2-5.57a7.43,7.43,0,0,0-5.13-1.8,7.59,7.59,0,0,0-5.17,1.8q-2.06,1.78-2.06,5.57V70.3a3,3,0,0,1-1.07,2.24,4,4,0,0,1-2.86,1,4.39,4.39,0,0,1-3-1,2.94,2.94,0,0,1-1.14-2.24V52.88a18.16,18.16,0,0,1,1-6,12.8,12.8,0,0,1,7.68-8A17.83,17.83,0,0,1,386.65,37.73Z" transform="translate(-2.63 -2.19)"/><path class="cls-4" d="M426.86,37.73a19.52,19.52,0,0,1,6.65,1,13.08,13.08,0,0,1,4.78,2.93,12,12,0,0,1,2.9,4.58,17.46,17.46,0,0,1,1,5.92V70.3A2.91,2.91,0,0,1,441,72.54a4.44,4.44,0,0,1-3,1,4.16,4.16,0,0,1-2.89-1A3,3,0,0,1,434,70.3V52.6q0-3.78-2-5.57a7.43,7.43,0,0,0-5.13-1.8A7.58,7.58,0,0,0,421.7,47q-2.07,1.78-2.07,5.57V70.3a3,3,0,0,1-1.06,2.24,4.07,4.07,0,0,1-2.86,1,4.42,4.42,0,0,1-3-1,3,3,0,0,1-1.13-2.24V52.88a18.41,18.41,0,0,1,1-6,12.8,12.8,0,0,1,7.68-8A17.83,17.83,0,0,1,426.86,37.73Z" transform="translate(-2.63 -2.19)"/><path class="cls-4" d="M480.16,51.71c0,2.16-.42,3.67-1.24,4.54s-2.21,1.31-4.13,1.31H458.47v1.79a7.08,7.08,0,0,0,2,5.3,7.81,7.81,0,0,0,5.75,2,22.43,22.43,0,0,0,3.41-.24,9.71,9.71,0,0,0,2.44-.65l1.86-1a3.55,3.55,0,0,1,1.65-.48,2.77,2.77,0,0,1,2.14.82,3.1,3.1,0,0,1-.14,4.34,9.13,9.13,0,0,1-2.62,2A17.25,17.25,0,0,1,471.1,73a18.85,18.85,0,0,1-4.78.59,17.75,17.75,0,0,1-6.41-1.11,16,16,0,0,1-5-3,13.21,13.21,0,0,1-3.27-4.37,12.46,12.46,0,0,1-1.17-5.34V52.47a14.67,14.67,0,0,1,1.13-5.72,14.48,14.48,0,0,1,3.14-4.68,14.81,14.81,0,0,1,4.75-3.17,15.34,15.34,0,0,1,6.06-1.17A15.86,15.86,0,0,1,472.24,39a13,13,0,0,1,7.09,7.82A15.41,15.41,0,0,1,480.16,51.71Zm-14.67-7.3a6.37,6.37,0,0,0-4.92,2,8.39,8.39,0,0,0-2.1,5.2h14v-1a5.55,5.55,0,0,0-2-4.48A7.59,7.59,0,0,0,465.49,44.41Z" transform="translate(-2.63 -2.19)"/><path class="cls-4" d="M488.88,29.26A2.94,2.94,0,0,1,490,27a4.41,4.41,0,0,1,3-1,4,4,0,0,1,2.86,1,3,3,0,0,1,1.07,2.24v41a3,3,0,0,1-1.07,2.24,4,4,0,0,1-2.86,1,4.41,4.41,0,0,1-3-1,2.94,2.94,0,0,1-1.14-2.24Z" transform="translate(-2.63 -2.19)"/><path class="cls-4" d="M505.88,68.58a3.14,3.14,0,0,1-.28-1,3.21,3.21,0,0,1,.1-1.23,3.87,3.87,0,0,1,.56-1.18,2.26,2.26,0,0,1,1.06-.82A4.31,4.31,0,0,1,509,63.9a3.16,3.16,0,0,1,1.27.24,4.61,4.61,0,0,1,1,.62q.48.38,1,.72,2,1.51,6.27,1.51a5.89,5.89,0,0,0,3.54-1A3.12,3.12,0,0,0,522.2,61a11.37,11.37,0,0,0-3.14-1.58c-1.26-.44-2.61-.87-4.06-1.31a18.28,18.28,0,0,1-4.06-1.79,10.12,10.12,0,0,1-3.14-2.93,8.37,8.37,0,0,1-1.24-4.82,10,10,0,0,1,3.38-7.82q3.38-3,9.29-3a20.23,20.23,0,0,1,4.55.45,15.74,15.74,0,0,1,3.2,1.06,7.32,7.32,0,0,1,2,1.35,4.88,4.88,0,0,1,1,1.34,4.27,4.27,0,0,1,.38,2.24,2.55,2.55,0,0,1-1.07,2,3.17,3.17,0,0,1-2.55.59,9.21,9.21,0,0,1-2.13-.86c-.37-.19-1-.45-1.76-.8a9.76,9.76,0,0,0-3.62-.51,4.72,4.72,0,0,0-3.34,1.06,3.54,3.54,0,0,0-1.13,2.66,2.25,2.25,0,0,0,1.2,2,14.48,14.48,0,0,0,3,1.3c1.22.4,2.54.81,4,1.24a15.29,15.29,0,0,1,4,1.86,9.34,9.34,0,0,1,4.24,8.37,9.44,9.44,0,0,1-3.38,7.64q-3.37,2.83-9.22,2.83a22.86,22.86,0,0,1-4.17-.38,19,19,0,0,1-3.72-1.07,14.67,14.67,0,0,1-2.93-1.58A6.69,6.69,0,0,1,505.88,68.58Z" transform="translate(-2.63 -2.19)"/><path class="cls-4" d="M121.72,4.12a6.63,6.63,0,0,0-5.06-1.93H9.05a6.62,6.62,0,0,0-2,.29A6.25,6.25,0,0,0,4,4.6,6.53,6.53,0,0,0,2.63,8.46v89a6.34,6.34,0,0,0,2,4.54,6.24,6.24,0,0,0,4.46,1.73H117.19a6.43,6.43,0,0,0,4.68-2.09,6.22,6.22,0,0,0,1.63-4.16v-89A6.54,6.54,0,0,0,121.72,4.12Zm-12,4.41a4.6,4.6,0,1,1-4.6,4.6A4.6,4.6,0,0,1,109.71,8.53Zm-16.1,0A4.6,4.6,0,1,1,89,13.13,4.6,4.6,0,0,1,93.61,8.53Zm-16.08,0a4.6,4.6,0,1,1-4.59,4.6A4.6,4.6,0,0,1,77.53,8.53Zm35.55,86h-100c-1.12,0-1.22-.11-1.22-1.23v-68c0-1.11.11-1.22,1.22-1.22h100c1.11,0,1.22.11,1.22,1.22v68C114.31,94.42,114.2,94.53,113.08,94.53Z" transform="translate(-2.63 -2.19)"/></svg>