<svg fill="none" height="70" viewBox="0 0 190 70" width="190" xmlns="http://www.w3.org/2000/svg"><path d="m95.0756 29.7739h-2.2244c-.4045 0-.7078.3034-.7078.7078v14.8633c0 .4045.3033.7078.7078.7078h2.2244c.4045 0 .7078-.3033.7078-.7078v-14.8633c0-.4044-.3033-.7078-.7078-.7078zm23.6604-.3033c-2.225 0-4.045.91-5.46 2.8311l-.102.1011-.101-.2022c-.91-1.82-2.629-2.8311-4.853-2.8311-2.629 0-3.943 1.5167-4.954 2.8311l-.203.3033v-2.0222c0-.4044-.303-.7078-.707-.7078h-2.124c-.4042 0-.7075.3034-.7075.7078v14.8633c0 .4045.3033.7078.7075.7078h2.225c.404 0 .708-.3033.708-.7078v-8.4933c0-2.5278 1.415-4.2467 3.64-4.2467 2.224 0 3.437 1.5167 3.437 4.1456v8.5944c0 .4045.304.7078.708.7078h2.224c.405 0 .708-.3033.708-.7078v-8.4933c0-2.6289 1.416-4.2467 3.64-4.2467 3.034 0 3.438 2.6289 3.438 4.1456v8.5944c0 .4045.303.7078.708.7078h2.224c.405 0 .708-.3033.708-.7078v-9.7066c-.202-3.9434-2.224-6.1678-5.864-6.1678zm11.83.3033h-2.225c-.404 0-.708.3034-.708.7078v14.8633c0 .4045.304.7078.708.7078h2.225c.404 0 .707-.3033.707-.7078v-14.8633c0-.4044-.303-.7078-.707-.7078zm12.436 0h-3.741v-3.8422c0-.4044-.303-.7078-.708-.7078h-2.224c-.405 0-.708.3034-.708.7078v3.8422h-1.415c-.405 0-.708.3034-.708.7078v1.6178c0 .4044.303.7078.708.7078h1.415v8.7966c0 3.1345 1.517 4.7522 4.651 4.7522 1.112 0 2.022-.2022 2.932-.6066.203-.1011.405-.3034.405-.6067v-1.4155c0-.2023-.101-.4045-.303-.5056-.203-.1011-.405-.2022-.607-.1011-.405.1011-.91.2022-1.416.2022-1.415 0-2.123-.7078-2.123-2.2244v-8.2911h3.741c.405 0 .708-.3034.708-.7078v-1.6178c0-.4044-.303-.7078-.607-.7078zm17.897.3034c-.101-.2023-.303-.3034-.607-.3034h-2.224c-.304 0-.506.2023-.607.4045l-4.247 12.0322-4.55-12.0322c-.101-.3033-.303-.4045-.606-.4045h-2.326c-.202 0-.404.1011-.606.3034-.102.2022-.102.4044-.102.6066l6.472 15.47c-.708 1.6178-1.517 1.9211-2.427 1.9211-.506 0-1.011-.1011-1.618-.3033-.303-.1011-.708 0-.91.3033l-.607 1.4156c-.101.2022-.101.3033 0 .5055.102.2023.203.3034.405.4045 1.011.4044 2.022.6067 3.134.6067 2.629 0 4.045-1.2134 5.359-4.55l6.168-15.8745c0-.1011 0-.3033-.101-.5055zm-105.9645-6.5722h-2.2244c-.4044 0-.7078.3033-.7078.7077v8.3922l-.2022-.3033c-1.4156-1.9211-3.2355-2.8311-5.5611-2.8311-3.7411 0-7.5833 2.9322-7.5833 8.4933v.1011c0 5.46 3.8422 8.4934 7.5833 8.4934 2.2244 0 4.0444-1.0111 5.5611-3.0334l.2022-.3033v2.3256c0 .4044.3034.7077.7078.7077h2.2244c.4045 0 .7078-.3033.7078-.7077v-21.2334c-.1011-.5055-.4044-.8088-.7078-.8088zm-12.6388 14.4588c0-3.2355 2.0222-5.46 4.8533-5.46s4.8533 2.3256 4.8533 5.3589v.1011c0 3.0334-2.1233 5.3589-4.8533 5.3589s-4.8533-2.3255-4.8533-5.3589zm24.2666-8.4933c-4.8533 0-8.6955 3.7411-8.6955 8.4933v.1011c0 4.7523 3.7411 8.3923 8.5944 8.3923s8.6955-3.7412 8.6955-8.4934v-.1011c.1012-4.7522-3.7411-8.3922-8.5944-8.3922zm0 13.8522c-2.9322 0-5.1567-2.3255-5.1567-5.3589v-.1011c0-3.1344 2.1234-5.3589 5.0556-5.3589s5.1567 2.3256 5.1567 5.46v.1011c0 3.0334-2.1234 5.2578-5.0556 5.2578zm17.9978-5.6622 4.9544-6.8756c.1011-.2022.2022-.5055 0-.7077-.1011-.2023-.3033-.4045-.6066-.4045h-2.0223c-.2022 0-.4044.1011-.6066.3034l-3.64 5.3588-3.64-5.2577c-.1011-.2023-.3034-.3034-.6067-.3034h-2.1233c-.3034 0-.5056.1012-.6067.4045-.1011.2022-.1011.5055 0 .7078l4.9544 6.8755-5.1566 7.1789c-.1011.2022-.2022.5055 0 .7078.1011.2022.3033.4044.6066.4044h2.0223c.2022 0 .4044-.1011.6066-.3033l3.8423-5.6622 3.9433 5.6622c.1011.2022.3033.3033.6066.3033h2.1234c.3033 0 .5055-.1011.6066-.4044.1012-.2023.1012-.5056 0-.7078zm-50.4544-3.64c-.1011-.91-.1011-2.1233.4044-3.64.4045-1.3144 1.3145-2.6289 2.3256-3.64s2.4266-1.7189 3.9433-2.0222c1.4156-.3033 2.6289-.3033 3.5389-.2022.1011 0 .2022.1011.3033.1011v.4044s-.2022.1011-.3033.1011c-2.0222.1011-4.1456 1.2134-6.1678 3.1345-1.9211 1.7189-3.2355 4.0444-3.4378 5.9655 0 .1011-.1011.2022-.1011.3034-.1011 0-.3033 0-.4044-.1012-.1011-.1011-.1011-.2022-.1011-.4044zm-5.0556-2.2244c-.1011-1.2134-.1011-2.8311.5056-4.8534.5055-1.7189 1.7189-3.5389 3.1344-4.8533 1.3145-1.3144 3.2356-2.3255 5.2578-2.73 1.9211-.4044 3.5389-.4044 4.7522-.3033.2022 0 .3033.1011.4045.2022.1011.1011.1011.4044.1011.5056-.1011.1011-.2023.1011-.4045.1011-2.6289.2022-5.46 1.6177-8.19 4.1455-2.5277 2.3256-4.2466 5.3589-4.6511 7.8867 0 .2022-.1011.3033-.2022.4044s-.4044 0-.5056-.1011c-.1011-.1011-.2022-.2022-.2022-.4044zm65.0144-6.9767c-1.0111 0-1.82.8089-1.82 1.82s.8089 1.82 1.82 1.82 1.82-.8089 1.82-1.82c-.1011-1.0111-.91-1.82-1.82-1.82zm35.3885 0c-1.011 0-1.82.8089-1.82 1.82s.809 1.82 1.82 1.82 1.82-.8089 1.82-1.82-.809-1.82-1.82-1.82z" fill="#000"/></svg>