<?xml version="1.0" encoding="UTF-8"?>
<svg width="400" height="86.599" version="1.1" xmlns="http://www.w3.org/2000/svg">
 <path d="m38.62 16.04c-1.1809-1.9961-3.3841-3.3048-6.0103-3.3048-3.1506 0-6.0279 1.8947-7.4116 4.5694a7.7508 7.7508 0 0 0-0.86366 2.9126l-0.81078 9.1785s3.1329 0.0661 4.5386 0.0661c11.474 0 11.492-9.2446 11.492-9.2446a6.6096 6.6096 0 0 0-0.93416-4.1773zm17.463 19.397a6.9885 6.9885 0 0 0-3.0801-0.6874h-44.703a7.8434 7.8434 0 0 0-4.3535 1.2734 8.2928 8.2928 0 0 0-3.9173 6.2042c-0.26879 3.1153 1.4012 5.7768 4.0318 6.9092 0.87247 0.37454 1.8463 0.59486 2.9082 0.59486h14.757l-1.2911 14.51c-0.0881 1.0531 0.0176 2.0181 0.33048 2.9258 0.92095 2.6879 3.4546 4.5782 6.6008 4.5782 3.0713 0 5.8737-1.8242 7.3014-4.4064 0.52877-0.94298 0.87687-1.9653 0.96941-3.0977l1.2911-14.51h14.753c1.0663 0 2.0622-0.22032 3.0096-0.58605 2.8245-1.1413 4.9792-3.8027 5.2612-6.918a6.7197 6.7197 0 0 0-3.8688-6.7858m62.998 5.2047c6.2174-3.6176 9.7293-9.6632 10.478-18.018 0.63893-7.3146-1.5731-12.999-6.6096-16.894-4.9219-3.8071-11.038-5.7327-18.176-5.7327h-23.539c-0.0529 0-0.10575 9e-3 -0.15422 0.0132a8.5087 8.5087 0 0 0-4.4857 1.3351 9.1212 9.1212 0 0 0-2.1635 1.8903 8.1606 8.1606 0 0 0-2.071 4.7104l-6.2791 70.687c-0.17185 1.9212 0.3481 3.6 1.4717 5.0365 0.45386 0.59927 0.965 1.1368 1.5863 1.5731 1.2029 0.85485 2.6306 1.2955 4.2434 1.3307 0.0573 0 0.0969 0.022 0.16304 0.022h27.976c7.9491 0 15.026-2.0049 21.032-5.9707 6.1645-4.0583 9.6368-10.086 10.333-17.89 0.52876-5.8605-0.6169-10.875-3.3929-14.867-2.3046-3.3312-5.8032-5.7724-10.417-7.2265zm-32.025-26.853h14.162c3.7102 0 6.7242 0.95178 8.9274 2.8201 2.1591 1.8198 3.0712 4.3579 2.776 7.7508-0.37014 4.0098-1.7449 6.9224-4.1068 8.6718-2.4984 1.8551-5.3846 2.754-8.8128 2.754h-14.902zm24.485 56.124c-3.058 1.9168-6.9709 2.873-11.624 2.873h-18.097l1.952-22.067h18.727c4.9924 0 8.7908 0.32167 11.016 2.2825 2.3354 2.0622 3.2255 4.5694 2.9258 8.0064-0.37456 4.1817-1.9785 7.1075-4.8999 8.9053zm55.96-43.464a46.267 46.267 0 0 0-16.656 3.1285c-5.0409 1.9873-7.7244 4.5033-7.9888 7.4732-0.14542 1.6436 0.29522 3.0272 1.3043 4.1156 1.0091 1.084 2.3662 1.6392 4.0274 1.6392 0.74909 0 2.2693-0.2071 6.733-2.0446 3.5648-1.4585 6.9797-2.2032 10.152-2.2032 3.3268 0 5.627 0.89009 7.0194 2.6923 1.2162 1.6216 1.6832 4.1288 1.388 7.4468l-0.0264 0.30845c-10.624 0.90331-18.234 2.2913-23.23 4.2345-7.9976 3.0889-12.373 8.262-12.999 15.352-0.49792 5.5521 1.1809 9.9893 4.9792 13.175 3.7102 3.1285 8.447 4.7148 14.056 4.7148 5.8164 0 10.985-1.0091 15.396-2.9963 1.1897 1.952 3.2519 2.9963 6.0368 2.9963 2.049 0 3.9085-0.72265 5.5168-2.1283a7.6671 7.6671 0 0 0 2.7011-5.2084l2.7011-30.448c0.59486-6.6713-0.62131-11.928-3.6132-15.643-3.6309-4.3888-9.5178-6.6052-17.498-6.6052m3.8903 45.782c-3.3577 1.7361-6.7682 2.613-10.157 2.613-2.8686 0-5.2656-0.60368-7.1075-1.8066-1.6921-1.1016-2.4323-2.6394-2.2473-4.6972 0.50673-5.6402 11.17-7.6098 20.582-8.24l-1.0708 12.126m53.491-45.777a39.129 39.129 0 0 0-12.585 2.093l1.8859-21.089a6.636 6.636 0 0 0-0.44064-3.0933c-0.9694-2.5689-3.415-4.3491-6.4686-4.3491-2.613 0-5.0321 1.2911-6.5655 3.2784-0.96501 1.2162-1.5246 2.5998-1.6568 4.164l-6.1954 69.621c-0.39658 4.5606 1.6965 7.4776 6.094 8.4162 3.459 0.65216 8.1166 0.98704 13.818 0.98704 12.325 0 21.988-3.4546 28.725-10.254 5.0762-5.0674 8.0196-11.721 8.7291-19.767 0.79756-9.0199-1.1148-16.317-5.6666-21.715-4.6708-5.508-11.289-8.2928-19.675-8.2928m5.4316 41.222c-3.6529 4.0098-8.6542 5.9751-15.299 5.9751-2.732 0-4.9792-0.0969-6.7021-0.25116l2.8289-31.792a25.099 25.099 0 0 1 9.9893-2.0754c4.3535 0 7.7597 1.4189 10.381 4.3447 2.6747 3.1153 3.7983 7.3631 3.34 12.585-0.4098 4.5474-1.9344 8.3193-4.5386 11.214m56.441-41.221c-4.2522 0-8.4867 0.70502-12.567 2.093l1.8683-21.089a6.9313 6.9313 0 0 0-0.4054-3.058c-0.96059-2.5777-3.4194-4.3844-6.4994-4.3844-2.6174 0-5.0409 1.2999-6.5655 3.296a7.5966 7.5966 0 0 0-1.6656 4.1464l-6.1734 69.621c-0.41861 4.5606 1.6876 7.4776 6.0808 8.4162 3.459 0.65216 8.1078 0.98704 13.832 0.98704 12.303 0 21.97-3.4546 28.716-10.254 5.085-5.0674 8.0196-11.721 8.7335-19.767 0.79756-9.0199-1.1016-16.317-5.6842-21.715-4.662-5.508-11.294-8.2928-19.67-8.2928m5.4399 41.222c-3.6573 4.0098-8.663 5.9751-15.303 5.9751-2.7364 0-4.9792-0.0969-6.6977-0.25116l2.8245-31.792a25.037 25.037 0 0 1 9.9893-2.0754c4.3623 0 7.7552 1.4189 10.368 4.3447 2.6879 3.1153 3.8115 7.3631 3.3488 12.585-0.40538 4.5474-1.9344 8.3193-4.5298 11.214m56.52-41.221c-8.945 0-16.427 2.7804-22.239 8.2796-5.8781 5.5521-9.2358 12.629-9.9761 21.01-0.79315 8.945 1.2779 16.304 6.1646 21.851 5.0233 5.8913 12.545 8.8877 22.314 8.8877 6.31 0 12.259-1.1413 17.705-3.3929 4.5166-1.9168 6.9357-4.3711 7.2-7.3366a5.9354 5.9354 0 0 0-1.2823-4.4152c-1.3484-1.6744-3.1814-2.3486-5.7988-1.7317-0.63011 0.15422-1.1897 0.38336-1.6612 0.64333a13.105 13.105 0 0 1-1.4717 0.72266c-0.72707 0.32607-1.3528 0.62571-1.8419 0.83281-3.5648 1.5422-7.2265 2.3266-10.884 2.3266-5.3317 0-9.2094-1.6612-11.897-5.0365-1.7185-2.1591-2.7232-4.8206-2.9787-7.9668h33.762c2.3486 0 4.3271-0.79315 5.8605-2.3706 1.4938-1.529 2.353-3.4766 2.5601-5.8032 0.66097-7.4204-1.1809-13.664-5.4904-18.604-4.8646-5.2348-11.606-7.8963-20.045-7.8963m-15.71 23.653c0.66096-2.8377 1.9564-5.2612 3.8688-7.2265 2.7099-2.6571 6.2659-3.9569 10.857-3.9569 4.098 0 7.1516 1.2206 9.2975 3.7014 1.6656 2.0842 2.494 4.5298 2.516 7.4821h-26.54m66.961-42.65a6.6537 6.6537 0 0 0-0.92094-4.1596c-1.1809-1.9829-3.3665-3.2828-5.9839-3.2828-3.1329 0-5.9883 1.8815-7.3763 4.543a7.6495 7.6495 0 0 0-0.85484 2.8994l-6.3672 71.692a7.0502 7.0502 0 0 0 0.33049 2.8994c0.91212 2.6747 3.4414 4.5518 6.5743 4.5518 3.058 0 5.8385-1.8066 7.2706-4.3755 0.51995-0.93857 0.85925-1.9476 0.95619-3.0757l6.3716-71.692" fill="#ff790f"/>
</svg>