<?xml version="1.0" encoding="utf-8"?>
<!-- Generator: Adobe Illustrator 19.2.1, SVG Export Plug-In . SVG Version: 6.00 Build 0)  -->
<svg version="1.1" id="layer" xmlns="http://www.w3.org/2000/svg" xmlns:xlink="http://www.w3.org/1999/xlink" x="0px" y="0px"
	 viewBox="0 0 652 652" style="enable-background:new 0 0 652 652;" xml:space="preserve">
<style type="text/css">
	.st0{fill:#FD1015;}
	.st1{fill:#FFFFFF;}
</style>
<ellipse class="st0" cx="111.6" cy="317" rx="93.6" ry="93.5"/>
<path class="st1" d="M62,340.8c-0.1,0.5-0.5,1-1.1,1c0,0,0,0,0,0l-3.4,0c-0.6,0-1.1-0.5-1.1-1.1v-2.3c0-0.6,0.5-1.1,1.1-1.1l0-14.6
	c0-0.6,0.5-1.1,1.1-1.1h86.9c6,0,11.4,2.6,15.2,6.8c0.3,0.3,0.6,0.8,1.1,1.3c0.4,0.6,1.1,0.9,1.8,0.9h1.2c0.8,0,2,0,3.3,0
	c1.2,0,2.2,1,2.2,2.3v6.8c0,1.2-1,2.3-2.3,2.3h-7.9c0,0,0,0,0,0c-0.6,0-1.1-0.5-1.1-1.1c-0.6-6.9-6.4-12.4-13.5-12.4
	c-7.1,0-12.9,5.5-13.5,12.4c0,0.6-0.5,1.1-1.1,1.1c0,0,0,0,0,0l-40.6,0c-0.6,0-1.1-0.5-1.1-1.1h0c-0.6-6.9-6.4-12.4-13.5-12.4
	s-12.9,5.5-13.5,12.4c0,0,0,0,0,0C62,340.7,62,340.8,62,340.8z M168,324.9c0,0.6-0.5,1.1-1.1,1.1h-1.8c-0.3,0-0.6-0.1-0.8-0.4
	c-0.7-0.8-1.3-1.5-1.8-1.9c-4.4-4.2-10.4-6.8-17-6.8H58.6c-0.6,0-1.1-0.5-1.1-1.1l0-26.2c0-5.1,3.7-9.3,8.7-10
	c15.1-2.1,29.4-3.2,42.8-3.2c23.9,0,33.2,1.9,42.1,6.8c5.5,3,10.6,10.1,15.5,21.5c0.9,2.1,1.4,4.4,1.4,6.7V324.9z M57.5,318.1
	L57.5,318.1l0,2.3h0V318.1z M64.2,288.8c-0.6,0-1.1,0.5-1.1,1.1v16.9c0,0.6,0.5,1.1,1.1,1.1h16.9c0.6,0,1.1-0.5,1.1-1.1V290
	c0-0.6-0.5-1.1-1.1-1.1H64.2z M111.6,288.8c-0.6,0-1.1,0.5-1.1,1.1v16.9c0,0.6,0.5,1.1,1.1,1.1h16.9c0.6,0,1.1-0.5,1.1-1.1V290
	c0-0.6-0.5-1.1-1.1-1.1H111.6z M87.9,288.8c-0.6,0-1.1,0.5-1.1,1.1v16.9c0,0.6,0.5,1.1,1.1,1.1h16.9c0.6,0,1.1-0.5,1.1-1.1V290
	c0-0.6-0.5-1.1-1.1-1.1H87.9z M135.3,288.8c-0.6,0-1.1,0.5-1.1,1.1v16.9c0,0.6,0.5,1.1,1.1,1.1h26c0.1,0,0.3,0,0.4-0.1
	c0.6-0.2,0.9-0.9,0.6-1.5c-1.2-3.2-2.7-6.2-4.3-8.9c-0.2-0.4-0.5-0.8-0.7-1.2c-2.4-4.6-7.1-7.5-12.4-7.5H135.3z M75.5,350.8
	c-5,0-9-4-9-9s4-9,9-9s9,4,9,9S80.5,350.8,75.5,350.8z M75.5,346.3c2.5,0,4.5-2,4.5-4.5s-2-4.5-4.5-4.5s-4.5,2-4.5,4.5
	S73,346.3,75.5,346.3z M145.5,350.8c-5,0-9-4-9-9s4-9,9-9c5,0,9,4,9,9S150.4,350.8,145.5,350.8z M145.5,346.3c2.5,0,4.5-2,4.5-4.5
	s-2-4.5-4.5-4.5s-4.5,2-4.5,4.5S143,346.3,145.5,346.3z"/>
<path id="logo-font" d="M263.9,313.5h24.5c-2.1-4.7-6.8-7.9-12.3-7.9C270.7,305.6,266,308.9,263.9,313.5z M300.9,323.8
	c-0.3,0.5-0.8,0.8-1.4,0.8h-35.7c2.1,4.7,6.8,7.9,12.3,7.9c2.6,0,5.1-0.7,7.1-2c0.5-0.3,1-0.7,1.7-1.3c0.6-0.5,1.3-0.7,2-0.5
	l9.3,1.9c0.9,0.2,1.4,1,1.2,1.9c0,0.2-0.1,0.4-0.2,0.5c-0.1,0.1-0.2,0.3-0.3,0.4c-2.3,3.4-5.4,6.2-9,8.1c-3.6,1.9-7.6,3-11.9,3
	c-14,0-25.3-11.3-25.3-25.3c0-14,11.3-25.3,25.3-25.3c14,0,25.3,11.3,25.3,25.3c0,1.6-0.2,3.2-0.4,4.7H300.9z M233.4,341.1v-65.8
	c0-0.8,0.5-1.4,1.3-1.6l8.6-1.8c0.9-0.2,1.8,0.4,1.9,1.3c0,0.1,0,0.2,0,0.3v67.5c0,0.9-0.7,1.6-1.6,1.6h-8.6
	C234.2,342.8,233.4,342.1,233.4,341.1z M351.4,342.8h-9.5c-0.7,0-1.3-0.4-1.6-1.1l-15.1-44.2c-0.3-0.9,0.2-1.8,1-2.1
	c0.2-0.1,0.4-0.1,0.5-0.1h8.4c0.7,0,1.3,0.4,1.6,1.1l9.2,26.8c0.1,0.4,0.6,0.7,1,0.5c0.2-0.1,0.4-0.3,0.5-0.5l9.2-26.8
	c0.2-0.7,0.9-1.1,1.6-1.1h9.5c0.7,0,1.3,0.4,1.6,1.1l9.2,26.8c0.1,0.4,0.6,0.7,1,0.5c0.2-0.1,0.4-0.3,0.5-0.5l9.2-26.8
	c0.2-0.7,0.9-1.1,1.6-1.1h8.4c0.9,0,1.6,0.7,1.6,1.6c0,0.2,0,0.4-0.1,0.5l-15.1,44.2c-0.2,0.7-0.9,1.1-1.6,1.1h-9.5
	c-0.7,0-1.3-0.4-1.6-1.1l-9.2-26.8c-0.1-0.4-0.6-0.7-1-0.5c-0.2,0.1-0.4,0.3-0.5,0.5l-9.2,26.8C352.7,342.3,352.1,342.8,351.4,342.8
	z M440.7,340c-4.1,2.8-9,4.4-14.2,4.4c-14,0-25.3-11.3-25.3-25.3c0-14,11.3-25.3,25.3-25.3c5.3,0,10.2,1.6,14.2,4.4v-1.2
	c0-0.9,0.7-1.6,1.6-1.6h8.7c0.9,0,1.6,0.7,1.6,1.6v44.3c0,0.9-0.7,1.6-1.6,1.6h-8.7c-0.9,0-1.6-0.7-1.6-1.6V340z M427.3,332.5
	c7.4,0,13.5-6,13.5-13.4s-6-13.4-13.5-13.4c-7.4,0-13.5,6-13.5,13.4S419.9,332.5,427.3,332.5z M497.7,298.1v-1.2
	c0-0.9,0.7-1.6,1.6-1.6h8.7c0.9,0,1.6,0.7,1.6,1.6v44.3h0c-0.2,14-11.6,25.3-25.7,25.3c-3.7,0-7.2-0.8-10.3-2.2
	c-0.8-0.4-1.9-1-3.3-1.8c-0.9-0.6-1.4-1.7-1-2.8l2.8-8.1c0.3-0.8,1.2-1.3,2-1c0.2,0.1,0.4,0.2,0.6,0.3c1,1,1.9,1.6,2.7,2
	c1.9,1,4.2,1.6,6.5,1.6c7.5,0,13.6-6,13.8-13.4h0V340c-4.1,2.8-9,4.4-14.2,4.4c-14,0-25.3-11.3-25.3-25.3c0-14,11.3-25.3,25.3-25.3
	C488.8,293.7,493.7,295.4,497.7,298.1z M484.3,332.5c7.4,0,13.5-6,13.5-13.4s-6-13.4-13.5-13.4s-13.5,6-13.5,13.4
	S476.8,332.5,484.3,332.5z M540.4,344.4c-14,0-25.3-11.3-25.3-25.3c0-14,11.3-25.3,25.3-25.3c14,0,25.3,11.3,25.3,25.3
	C565.8,333,554.4,344.4,540.4,344.4z M540.4,332.5c7.4,0,13.5-6,13.5-13.4s-6-13.4-13.5-13.4c-7.4,0-13.5,6-13.5,13.4
	S533,332.5,540.4,332.5z M618,316.7v24.5c0,0.9-0.7,1.6-1.6,1.6h-9.5c-0.9,0-1.6-0.7-1.6-1.6v-23.7h0c0-0.3,0-0.5,0-0.8
	c0-6.1-5-11.1-11.1-11.1c-6.1,0-11.1,5-11.1,11.1c0,0.3,0,0.5,0,0.8h0v23.7c0,0.9-0.7,1.6-1.6,1.6h-8.7c-0.9,0-1.6-0.7-1.6-1.6
	v-44.3c0-0.9,0.7-1.6,1.6-1.6h8.7c0.9,0,1.6,0.7,1.6,1.6v0.1c3.5-2.1,7.5-3.3,11.9-3.3C607.7,293.7,618,304,618,316.7z"/>
</svg>
