<svg width="859" height="171" viewBox="0 0 859 171" fill="none" xmlns="http://www.w3.org/2000/svg">
<path d="M55.7357 43.3249C66.623 43.3249 76.4838 47.2636 82.5617 53.1907L87.3667 46.2378C79.776 39.3344 68.4226 34.9472 55.7357 34.9472C43.0151 34.9472 31.6348 39.3547 24.0441 46.2896L28.8446 53.2538C34.918 47.2906 44.8125 43.3249 55.7357 43.3249Z" fill="black"/>
<path d="M56.2516 25.5589C68.1497 25.5589 79.2454 29.0511 87.4949 35.3885C89.1713 36.6781 90.6818 38.0489 92.0175 39.4872L96.8291 32.5073C87.4613 23.1871 72.7708 17.1834 56.2539 17.1834C39.3357 17.1834 24.3382 23.478 15.0107 33.1881L19.8471 40.2019C21.4047 38.4294 23.1336 36.817 25.0083 35.3885C33.2601 29.0511 44.3558 25.5589 56.2539 25.5589H56.2516Z" fill="black"/>
<path d="M55.735 8.51936C74.6164 8.51936 91.3059 15.5061 101.227 26.1271L106.003 19.2148C94.4367 7.61756 76.221 0.141602 55.735 0.141602C35.2132 0.141602 16.9751 7.6401 5.40869 19.2666L10.1823 26.188C20.0947 15.5331 36.8156 8.51936 55.735 8.51936Z" fill="black"/>
<path fill-rule="evenodd" clip-rule="evenodd" d="M9.92089 69.4146C9.92089 65.9352 12.7415 63.1146 16.2209 63.1146L95.1906 63.1146C98.67 63.1146 101.491 65.9352 101.491 69.4146V121.631C101.491 125.11 98.67 127.931 95.1906 127.931L16.2209 127.931C12.7415 127.931 9.92089 125.11 9.92089 121.631L9.92089 69.4146ZM75.7893 100.944C70.1426 100.915 65.5865 96.2901 65.6085 90.6096C65.6085 84.8583 70.1645 80.2484 75.7893 80.2484C81.4554 80.2728 86.0311 84.9095 86.0141 90.6096C86.0093 96.2962 81.4421 100.913 75.7893 100.944ZM25.3335 90.6096C25.3115 96.2901 29.8676 100.915 35.5143 100.944C41.1671 100.913 45.7343 96.2962 45.7391 90.6096C45.7561 84.9095 41.1804 80.2728 35.5143 80.2484C29.8895 80.2484 25.3335 84.8583 25.3335 90.6096Z" fill="black"/>
<path d="M35.5269 95.5042C32.8487 95.4903 30.6879 93.2968 30.6983 90.6026C30.6983 87.8748 32.8592 85.6884 35.5269 85.6884C38.2143 85.7 40.3845 87.8991 40.3764 90.6026C40.3742 93.2997 38.208 95.4892 35.5269 95.5042Z" fill="black"/>
<path d="M75.8019 95.5042C73.1238 95.4903 70.9629 93.2968 70.9733 90.6026C70.9733 87.8748 73.1342 85.6884 75.8019 85.6884C78.4893 85.7 80.6595 87.8991 80.6514 90.6026C80.6492 93.2997 78.483 95.4892 75.8019 95.5042Z" fill="black"/>
<path d="M227.224 125.474C221.516 127.501 215.027 128.519 211.117 128.773C206.91 129.053 203.458 127.908 200.82 126.186C198.157 124.464 196.206 122.233 194.959 119.545C193.695 116.856 193.059 114.04 193.059 111.122V73.7937H183.5V60.0531H193.059V47.7799L209.768 35.6254V60.0446H224.603V73.7852H209.768V104.243C209.768 107.67 209.972 110.13 210.379 111.623C210.786 113.115 211.694 114.057 213.144 114.464C214.586 114.82 216.342 114.897 219.658 114.159L223.814 112.92C223.814 112.92 226.07 120.809 227.215 125.474H227.224Z" fill="black"/>
<path d="M294.799 89.9686V127.424H278.089V91.1645C278.089 84.8795 277.097 80.2314 275.07 77.2203C273.043 74.2263 269.743 72.708 265.155 72.708C261.253 72.708 258.055 73.624 255.57 75.4476C254.332 76.3382 253.187 77.3985 252.093 78.6199V127.433H235.383V31.9697H252.093V64.4806C253.84 63.4119 255.647 62.4026 257.546 61.4611C260.871 59.7902 264.849 58.9505 269.463 58.9505C275.401 58.9505 280.218 60.2651 283.967 62.903C287.699 65.5154 290.431 69.1626 292.186 73.8106C293.934 78.4757 294.799 83.8531 294.799 89.9686Z" fill="black"/>
<path d="M370.906 76.3467C368.192 70.9947 364.265 66.7368 359.091 63.5137C353.917 60.2906 347.683 58.696 340.355 58.696C333.026 58.696 326.784 60.2906 321.635 63.5137C316.461 66.7368 312.534 70.9947 309.82 76.3467C307.08 81.6988 305.74 87.5343 305.74 93.8702C305.74 100.206 307.08 105.94 309.82 111.241C312.534 116.542 316.461 120.8 321.635 123.972C326.784 127.17 333.043 128.764 340.355 128.764C347.666 128.764 353.926 127.17 359.091 123.972C364.265 120.8 368.192 116.542 370.906 111.241C373.62 105.94 374.986 100.155 374.986 93.8702C374.986 87.5852 373.62 81.6988 370.906 76.3467ZM353.332 109.138C350.287 113.065 345.978 115.024 340.346 115.024C334.714 115.024 330.482 113.073 327.411 109.138C324.366 105.21 322.848 100.113 322.848 93.8702C322.848 87.6276 324.366 82.3858 327.411 78.3993C330.482 74.4213 334.791 72.4366 340.346 72.4366C345.902 72.4366 350.287 74.4129 353.332 78.3993C356.377 82.3773 357.87 87.5258 357.87 93.8702C357.87 100.215 356.377 105.202 353.332 109.138Z" fill="black"/>
<path d="M444.495 60.0446V127.424H428.871L428.591 123.37C427.319 124.337 425.801 125.27 424.053 126.161C420.55 127.908 417.081 128.773 413.629 128.773C406.632 128.773 401.025 127.382 396.869 124.591C392.688 121.826 389.668 118.001 387.819 113.107C385.995 108.238 385.079 102.632 385.079 96.296V60.0616H401.763V96.296C401.763 102.556 402.832 107.178 404.91 110.215C406.988 113.26 410.415 114.752 415.131 114.752C418.88 114.752 422.026 113.862 424.512 112.064C425.699 111.199 426.819 110.189 427.786 108.993V60.0531H444.495V60.0446Z" fill="black"/>
<path d="M583.885 89.9686V127.424H567.176V91.1645C567.176 84.8795 566.158 80.2314 564.131 77.2203C562.129 74.2263 558.805 72.708 554.241 72.708C550.34 72.708 547.117 73.624 544.631 75.4476C543.393 76.3637 542.223 77.4239 541.154 78.6453V127.433H524.445V31.9697H541.154V64.4806C542.876 63.4119 544.708 62.4026 546.633 61.4611C549.958 59.7902 553.91 58.9505 558.55 58.9505C564.487 58.9505 569.305 60.2651 573.029 62.903C576.761 65.5154 579.492 69.1626 581.247 73.8106C582.995 78.4757 583.885 83.8531 583.885 89.9686Z" fill="black"/>
<path d="M707.084 76.4739C704.777 71.1728 701.376 66.9404 696.889 63.7427C692.402 60.545 686.846 58.9505 680.231 58.9505C675.515 58.9505 671.333 59.8156 667.677 61.512C665.599 62.5044 663.623 63.6918 661.766 65.0913V31.9697H645.082V127.424H660.705L661.011 122.963C662.911 124.261 664.912 125.346 666.973 126.288C670.697 127.933 675.116 128.773 680.239 128.773C686.855 128.773 692.41 127.178 696.897 123.981C701.384 120.809 704.785 116.551 707.093 111.249C709.425 105.948 710.57 100.164 710.57 93.8787C710.57 87.5936 709.425 81.7836 707.093 76.4824L707.084 76.4739ZM691.639 104.88C690.417 108.052 688.645 110.537 686.312 112.335C683.954 114.133 681.138 115.024 677.813 115.024C673.912 115.024 670.714 114.133 668.254 112.335C665.769 110.537 663.945 108.052 662.749 104.88C661.554 101.707 660.977 98.0348 660.977 93.8702C660.977 89.7056 661.562 86.0075 662.749 82.8353C663.937 79.6631 665.769 77.2034 668.254 75.4052C670.714 73.6071 673.912 72.691 677.813 72.691C681.138 72.691 683.954 73.6071 686.312 75.4052C688.645 77.2034 690.417 79.6631 691.639 82.8353C692.826 86.0075 693.437 89.6802 693.437 93.8702C693.437 98.0602 692.826 101.707 691.639 104.88Z" fill="black"/>
<path d="M783.293 76.3467C780.579 70.9947 776.627 66.7368 771.478 63.5137C766.304 60.2906 760.07 58.696 752.742 58.696C745.414 58.696 739.171 60.2906 734.031 63.5137C728.857 66.7368 724.904 70.9947 722.19 76.3467C719.476 81.6988 718.11 87.5343 718.11 93.8702C718.11 100.206 719.476 105.94 722.19 111.241C724.904 116.542 728.857 120.8 734.031 123.972C739.179 127.17 745.414 128.764 752.742 128.764C760.07 128.764 766.313 127.17 771.478 123.972C776.627 120.8 780.579 116.542 783.293 111.241C786.008 105.94 787.373 100.155 787.373 93.8702C787.373 87.5852 786.008 81.6988 783.293 76.3467ZM765.719 109.138C762.674 113.065 758.365 115.024 752.733 115.024C747.101 115.024 742.869 113.073 739.799 109.138C736.754 105.21 735.21 100.113 735.21 93.8702C735.21 87.6276 736.754 82.3858 739.799 78.3993C742.869 74.4213 747.152 72.4366 752.733 72.4366C758.314 72.4366 762.674 74.4129 765.719 78.3993C768.739 82.3773 770.257 87.5258 770.257 93.8702C770.257 100.215 768.739 105.202 765.719 109.138Z" fill="black"/>
<path d="M636.346 125.474C630.637 127.501 624.149 128.519 620.238 128.773C616.031 129.053 612.579 127.908 609.942 126.186C607.278 124.464 605.327 122.233 604.081 119.545C602.817 116.856 602.181 114.04 602.181 111.122V73.7937H592.622V60.0531H602.181V47.7799L618.89 35.6339V60.0531H633.725V73.7937H618.89V104.252C618.89 107.679 619.093 110.138 619.501 111.631C619.908 113.124 620.815 114.065 622.266 114.473C623.708 114.829 625.463 114.905 628.78 114.167L632.936 112.929C632.936 112.929 635.192 120.817 636.337 125.482L636.346 125.474Z" fill="black"/>
<path d="M836.5 125.474C830.792 127.501 824.303 128.519 820.393 128.773C816.186 129.053 812.734 127.908 810.096 126.186C807.433 124.464 805.482 122.233 804.235 119.545C802.971 116.856 802.335 114.04 802.335 111.122V73.7937H792.776V60.0531H802.335V47.7799L819.044 35.6339V60.0531H833.879V73.7937H819.044V104.252C819.044 107.679 819.248 110.138 819.655 111.631C820.062 113.124 820.97 114.065 822.42 114.473C823.862 114.829 825.618 114.905 828.934 114.167L833.09 112.929C833.09 112.929 835.346 120.817 836.492 125.482L836.5 125.474Z" fill="black"/>
<path d="M494.724 120.376C490.907 120.13 479.44 119.672 479.44 119.672C475.157 119.672 472.264 116.356 472.264 112.929C472.264 111.512 473.375 109.935 474.732 108.629C477.973 110.104 481.645 110.944 485.632 110.944C498.753 110.944 511.645 101.461 511.645 84.8031C511.645 77.2628 507.71 68.8827 500.67 63.6918L508.906 57.5255L501.247 47.3049L486.064 58.679C485.733 58.6706 485.403 58.6621 485.072 58.6621C465.954 58.6621 459.558 74.6928 459.558 84.8031C459.558 90.1976 461.246 95.4478 464.257 99.8075C459.983 103.327 456.836 109.265 456.641 114.786C456.471 119.35 457.862 123.921 461.458 126.211C457.972 129.808 453.969 134.566 453.969 140.325C453.969 155.889 470 162.03 486.794 162.03C503.588 162.03 516.107 157.018 516.107 139.324C516.107 128.137 506.794 121.156 494.724 120.376ZM477.167 75.0066C479.126 72.5977 481.925 71.3424 485.632 71.3424C489.338 71.3424 492.146 72.5977 494.003 75.0066C495.869 77.4239 496.811 80.664 496.811 84.7607C496.811 88.8574 495.869 92.089 494.003 94.5996C492.146 97.0085 489.364 98.2638 485.632 98.2638C481.9 98.2638 479.126 97.0085 477.167 94.5996C475.326 92.089 474.393 88.849 474.393 84.7607C474.393 80.6725 475.326 77.4239 477.167 75.0066ZM486.717 149.121C477.438 149.121 469.024 146.017 469.024 139.163C469.024 136.449 471.442 133.243 472.578 131.53C475.403 132.369 478.778 132.853 481.781 132.853C481.781 132.853 488.346 132.988 490.382 133.073C497.243 133.37 500.924 134.329 500.924 140.325C500.924 146.746 495.14 149.121 486.717 149.121Z" fill="black"/>
</svg>
