<?xml version="1.0" encoding="UTF-8"?>
<svg width="105" height="27" viewBox="0 0 105 27" version="1.1" xmlns="http://www.w3.org/2000/svg">
    <title>Beyond Finance</title>
    <g fill-rule="nonzero">
        <g>
            <path d="M0.110544,13.288212 L0.110544,0.022344 L2.176776,0.022344 L2.176776,7.962108 C3.720276,6.171648 5.65068,5.257896 7.967988,5.175576 C10.227672,5.093256 12.186888,5.867064 13.812708,7.51758 C15.46734,9.172212 16.294656,11.131428 16.294656,13.419924 C16.294656,15.6261 15.520848,17.527692 14.00616,19.128816 C12.491472,20.72994 10.614576,21.557256 8.437212,21.639576 C6.177528,21.721896 4.218312,20.923392 2.534868,19.26876 C0.851424,17.614128 0.05292,15.654912 0.106428,13.395228 L0.106428,13.288212 L0.110544,13.288212 Z M12.520284,17.614128 C13.652184,16.375212 14.203728,14.938728 14.174916,13.2594 C14.146104,11.604768 13.541052,10.197096 12.355644,9.011688 C11.199048,7.82628 9.791376,7.221228 8.107932,7.221228 C6.506808,7.221228 5.127948,7.801584 4.000164,8.986992 C2.868264,10.1724 2.263212,11.580072 2.2344,13.234704 C2.180892,14.971656 2.757132,16.49046 4.000164,17.782884 C5.243196,19.050612 6.704376,19.655664 8.412516,19.573344 C10.038336,19.491024 11.388384,18.85716 12.520284,17.614128 Z" fill="#000000"></path>
            <path d="M34.594392,16.128252 C34.014036,17.811696 33.02208,19.161744 31.614408,20.1537 C30.206736,21.145656 28.663236,21.643692 26.955096,21.668388 C24.802428,21.6972 22.900836,20.923392 21.246204,19.326384 C19.591572,17.700564 18.735444,15.794856 18.710748,13.563984 C18.65724,11.22198 19.484556,9.180444 21.192696,7.497 C22.929648,5.78886 24.942372,4.98624 27.288492,5.126184 C29.383536,5.262012 31.202808,6.11814 32.750424,7.719264 C34.240416,9.291576 34.985412,11.05734 34.985412,13.01244 L34.985412,14.14434 L20.867532,14.14434 C21.032172,15.716652 21.694848,17.042004 22.880256,18.058656 C24.065664,19.079424 25.444524,19.602156 27.045648,19.573344 C29.527596,19.544532 31.29336,18.387936 32.367636,16.124136 L34.594392,16.124136 L34.594392,16.128252 Z M32.910948,12.20982 C32.606364,10.74864 31.918992,9.563232 30.844716,8.653596 C29.77044,7.74396 28.4739,7.274736 26.955096,7.245924 C25.440408,7.217112 24.115056,7.686336 22.983156,8.595972 C21.851256,9.505608 21.163884,10.719828 20.8593,12.20982 L32.910948,12.20982 Z" fill="#000000"></path>
            <polygon fill="#000000" points="41.406372 26.772228 39.146688 26.772228 41.517504 20.787564 35.504028 5.566596 37.792524 5.566596 42.809928 18.029844 48.103104 5.566596 50.30928 5.566596"></polygon>
            <path d="M83.171424,21.281484 L81.047568,21.281484 L81.047568,12.098688 C81.047568,10.773336 80.549532,9.645552 79.586388,8.678292 C78.623244,7.711032 77.520156,7.245924 76.223616,7.245924 C74.927076,7.245924 73.77048,7.715148 72.80322,8.678292 C71.840076,9.641436 71.370852,10.773336 71.370852,12.098688 L71.370852,21.281484 L69.246996,21.281484 L69.246996,12.320952 C69.246996,10.279416 69.909672,8.600088 71.230908,7.245924 C72.552144,5.895876 74.210892,5.204388 76.223616,5.204388 C78.207528,5.204388 79.86216,5.895876 81.187512,7.245924 C82.508748,8.595972 83.171424,10.279416 83.171424,12.320952 L83.171424,21.281484 Z" fill="#000000"></path>
            <path d="M101.8416,13.50636 C101.899224,15.766044 101.096604,17.72526 99.41316,19.379892 C97.729716,21.005712 95.774616,21.808332 93.510816,21.721896 C91.333452,21.668388 89.456556,20.841072 87.941868,19.239948 C86.42718,17.638824 85.682184,15.737232 85.682184,13.531056 C85.682184,11.24256 86.5095,9.258648 88.13532,7.628712 C89.76114,5.97408 91.720356,5.175576 93.98004,5.257896 C96.297348,5.340216 98.227752,6.278664 99.771252,8.044428 L99.771252,0.133476 L101.8416,0.133476 L101.8416,13.50636 Z M93.543744,19.655664 C95.280696,19.737984 96.741876,19.157628 97.956096,17.865204 C99.195012,16.568664 99.775368,15.078672 99.72186,13.34172 C99.693048,11.687088 99.087996,10.279416 97.956096,9.094008 C96.824196,7.9086 95.474148,7.328244 93.848328,7.328244 C92.193696,7.299432 90.761328,7.9086 89.57592,9.094008 C88.390512,10.279416 87.810156,11.687088 87.78546,13.366416 C87.756648,15.021048 88.308192,16.482228 89.440092,17.721144 C90.56376,18.968292 91.917924,19.602156 93.543744,19.655664 Z" fill="#000000"></path>
            <g transform="translate(50.215200, 5.174400)">
                <path d="M7.301196,2.223816 C7.70868,2.223816 8.107932,2.264976 8.498952,2.330832 C8.889972,2.264976 9.289224,2.223816 9.696708,2.223816 C11.976972,2.223816 14.002044,3.285744 15.32328,4.93626 C14.368368,2.079756 11.676504,0.01764 8.498952,0.01764 C5.3214,0.01764 2.629536,2.079756 1.674624,4.93626 C2.991744,3.285744 5.020932,2.223816 7.301196,2.223816 Z" fill="#BF519E"></path>
                <path d="M2.87238,11.70708 C1.888656,10.476396 1.295952,8.916432 1.295952,7.22064 C1.295952,6.422136 1.43178,5.65656 1.670508,4.93626 C0.686784,6.166944 0.09408,7.726908 0.09408,9.4227 C0.09408,13.398756 3.316908,16.6257 7.29708,16.6257 C7.704564,16.6257 8.103816,16.58454 8.494836,16.518684 C5.85648,16.074156 3.703812,14.19726 2.87238,11.70708 Z" fill="#F37425"></path>
                <path d="M2.87238,11.70708 C2.633652,10.98678 2.497824,10.221204 2.497824,9.4227 C2.497824,5.854128 5.09502,2.902956 8.498952,2.330832 C8.107932,2.264976 7.70868,2.223816 7.301196,2.223816 C5.020932,2.223816 2.99586,3.285744 1.674624,4.93626 C1.435896,5.65656 1.300068,6.422136 1.300068,7.22064 C1.300068,8.916432 1.888656,10.476396 2.87238,11.70708 Z" fill="#C4255F"></path>
                <path d="M15.32328,4.93626 C15.562008,5.65656 15.697836,6.422136 15.697836,7.22064 C15.697836,8.920548 15.105132,10.476396 14.121408,11.70708 C13.289976,14.19726 11.137308,16.074156 8.494836,16.518684 C8.885856,16.58454 9.285108,16.6257 9.692592,16.6257 C13.668648,16.6257 16.8956133,13.402872 16.8956133,9.4227 C16.899708,7.726908 16.307004,6.166944 15.32328,4.93626 Z" fill="#2B87C8"></path>
                <path d="M9.696708,2.223816 C9.289224,2.223816 8.889972,2.264976 8.498952,2.330832 C11.902884,2.902956 14.50008,5.858244 14.50008,9.4227 C14.50008,10.221204 14.364252,10.98678 14.125524,11.70708 C15.109248,10.476396 15.701952,8.916432 15.701952,7.22064 C15.701952,6.422136 15.566124,5.65656 15.327396,4.93626 C14.00616,3.285744 11.976972,2.223816 9.696708,2.223816 Z" fill="#5B4B99"></path>
                <path d="M14.125524,11.70708 C12.804288,13.357596 10.779216,14.419524 8.498952,14.419524 C6.218688,14.419524 4.193616,13.357596 2.87238,11.70708 C3.703812,14.19726 5.85648,16.074156 8.498952,16.518684 C11.141424,16.074156 13.294092,14.19726 14.125524,11.70708 Z" fill="#20B35E"></path>
            </g>
        </g>
        <g transform="translate(101.841600, 18.816000)" fill="#000000">
            <path d="M2.49018,1.300656 C2.49018,1.988028 1.950984,2.527224 1.251264,2.527224 C0.55566,2.527224 0.004116,1.988028 0.004116,1.300656 C0.004116,0.629748 0.55566,0.090552 1.251264,0.090552 C1.950984,0.090552 2.49018,0.629748 2.49018,1.300656 Z M0.312816,1.300656 C0.312816,1.839852 0.712068,2.267916 1.259496,2.267916 C1.79046,2.267916 2.18148,1.839852 2.18148,1.308888 C2.18148,0.769692 1.79046,0.333396 1.251264,0.333396 C0.712068,0.333396 0.312816,0.769692 0.312816,1.300656 Z M1.057812,1.93452 L0.777924,1.93452 L0.777924,0.724416 C0.889056,0.703836 1.045464,0.687372 1.243032,0.687372 C1.473528,0.687372 1.576428,0.724416 1.662864,0.777924 C1.72872,0.831432 1.782228,0.9261 1.782228,1.045464 C1.782228,1.177176 1.679328,1.280076 1.531152,1.325352 L1.531152,1.341816 C1.650516,1.387092 1.716372,1.473528 1.753416,1.638168 C1.79046,1.823388 1.81104,1.897476 1.843968,1.942752 L1.539384,1.942752 C1.50234,1.897476 1.48176,1.786344 1.444716,1.6464 C1.424136,1.514688 1.350048,1.452948 1.19364,1.452948 L1.061928,1.452948 L1.061928,1.93452 L1.057812,1.93452 Z M1.066044,1.247148 L1.197756,1.247148 C1.354164,1.247148 1.477644,1.19364 1.477644,1.07016 C1.477644,0.959028 1.395324,0.88494 1.218336,0.88494 C1.144248,0.88494 1.09074,0.893172 1.061928,0.901404 L1.061928,1.247148 L1.066044,1.247148 Z"></path>
        </g>
    </g>
</svg>
