<?xml version="1.0" encoding="UTF-8"?>
<svg id="Layer_1" data-name="Layer 1" xmlns="http://www.w3.org/2000/svg" viewBox="0 0 467.94 113.79">
  <defs>
    <style>
      .cls-1 {
        fill: #fff;
        stroke-width: 0px;
      }
    </style>
  </defs>
  <g>
    <path class="cls-1" d="M130.73,73.89c0,9.2-5.68,14-16.4,14-3.68,0-8.16-.56-12.88-2.48v-10.08h5.76c1.92,4.32,4.8,6,7.36,6,3.2,0,5.84-2.08,5.84-6.64v-36.48c0-1.28-.56-2.24-2.32-2.24h-3.12v-6.64h21.04v6.64h-2.96c-1.68,0-2.24.8-2.32,1.92v36Z"/>
    <path class="cls-1" d="M154.51,87.9c-6.8,0-12.72-3.36-12.72-12.88v-23.52c0-1.68-.88-1.84-2-1.84h-3.2v-6.08h15.04v29.2c0,5.44,2.24,7.2,6.8,7.2,3.44,0,8.08-1.76,11.52-3.92v-24.88c-.08-1.44-.96-1.52-2.08-1.52h-3.92v-6.08h15.84v33.52c0,2.72,1.2,3.68,3.44,3.68h1.92v6.08c-1.52.4-3.92.72-6.16.72-3.6,0-7.2-.64-8.4-5.36-4.16,2.88-10.8,5.68-16.08,5.68Z"/>
    <path class="cls-1" d="M228.21,77.74c0,2,.96,3.12,3.12,3.12h2.24v6c-1.76.32-4.08.64-6.16.64-3.36,0-6.88-.72-8.16-4.48-5.04,3.2-10.08,4.88-15.2,4.88-8.32,0-16.56-5.28-16.56-21.84,0-17.68,9.44-23.6,21.28-23.6,2.88,0,6.56.72,9.6,1.36v-9.76c0-1.76-.8-2-2.08-2h-3.76v-6.16h15.68v51.84ZM206.85,80.62c3.76,0,7.76-1.6,11.52-4.4v-25.12c-2.32-.72-5.6-1.36-8-1.36-10,0-12.72,6-12.72,16.08s3.52,14.8,9.2,14.8Z"/>
    <path class="cls-1" d="M257.52,42.45c11.84,0,21.84,6.48,21.84,22.72s-10,22.72-21.84,22.72-21.92-6.24-21.92-22.72,9.92-22.72,21.92-22.72ZM257.52,80.77c8.56,0,11.76-6.08,11.76-15.6s-3.2-15.52-11.76-15.52-11.76,6-11.76,15.52,3.2,15.6,11.76,15.6Z"/>
    <path class="cls-1" d="M315.08,44.13v9.92h-4.8c-1.84-3.68-5.44-5.2-9.36-5.2-4.56,0-7.12,2.24-7.12,5.36,0,4.16,4.48,4.8,9.76,6.32,6,1.68,12.96,3.6,12.96,12.8,0,10.48-8.16,14.56-18.08,14.56-4.72,0-10.4-.96-14.72-2.32v-10.16h5.36c.96,3.84,5.12,6.32,9.12,6.32,4.4,0,8.08-1.6,8.08-6.88,0-4.48-5.12-5.76-10-7.04-6-1.6-12.48-4-12.48-12.56,0-9.44,7.92-12.8,17.84-12.8,4.32,0,9.28.72,13.44,1.68Z"/>
    <path class="cls-1" d="M342.85,80.45c4.4,0,6.88-2.4,8.48-6h5.6v10.72c-4.08,1.76-9.28,2.72-14.32,2.72-10.48,0-22.24-4.8-22.24-22.72s11.76-22.72,22.24-22.72c5.12,0,10.56,1.2,14.32,2.8v10.32h-5.76c-1.36-3.04-3.84-5.68-8.56-5.68-8,0-12.08,5.68-12.08,15.28,0,8.96,3.84,15.28,12.32,15.28Z"/>
    <path class="cls-1" d="M387.79,61.81v-5.44c0-4.08-2.8-7.28-8.24-7.28-2.88,0-8.4.4-9.92,6.4h-5.44v-10.64c5.44-1.44,11.52-2.4,16.08-2.4,10.56,0,17.28,4.8,17.28,15.68v19.6c0,1.84.88,3.04,3.28,3.04h2.16v6c-1.92.4-4.08.72-6.16.72-3.76,0-7.2-1.12-8.32-4.88-4.08,3.2-9.76,4.88-13.92,4.88-6.96,0-13.28-4.16-13.28-12.72,0-7.28,5.44-12.96,16.88-12.96h9.6ZM387.79,67.58h-7.76c-4.72,0-8.72,1.52-8.72,6.64,0,4.4,3.04,6.08,6.48,6.08s7.52-1.36,10-3.36v-9.36Z"/>
    <path class="cls-1" d="M409.07,32.05h-3.36v-6.16h15.28v53.12c0,1.6.8,1.76,2,1.76h3.44v6.16h-20.72v-6.16h3.36c1.2,0,2.08-.08,2.08-1.76v-45.04c0-1.76-.8-1.92-2.08-1.92Z"/>
    <path class="cls-1" d="M428.42,65.09c0-14.88,8-22.64,20.8-22.64,15.28,0,18.72,10.24,18.72,21.04v3.92h-29.04c0,9.28,4.16,13.2,11.92,13.2,4.16,0,9.76-.88,11.84-7.04h4.32v10.24c-4.72,2.48-12.32,4.08-16.88,4.08-14,0-21.68-6.96-21.68-22.8ZM458.58,61.25c0-5.6-1.44-11.92-9.6-11.92-7.2,0-10.24,5.2-10.24,11.92h19.84Z"/>
  </g>
  <g>
    <g>
      <path class="cls-1" d="M70.26,86.28c-4.34-3.79-5.7-7.4-6.06-11.22-2.57,1.23-5.33,2.2-8.19,2.91-.16.49-.43.94-.78,1.33,5.35,2.12,9.07,6.05,10.52,11.4-4.09-.6-8.38.71-12.43,3.65,1.3-4.21,1.07-9.27-.95-13.46-.59.12-1.21.17-1.85.11-.97-.08-1.86-.38-2.62-.82-2.15,2.9-3.1,6.68-2.8,10.07-2.66-2.95-5.77-4.68-9.05-4.9,1.39-2.7,3.5-4.69,6.16-5.92-.31,0-.62-.01-.93-.03-7.95-.36-15.03-2.77-20.85-6.77-2.46,4.05-5.87,7.71-10.4,11.16.94.95,2.3,1.91,3.9,2.84C7.44,93.62,1.6,102.17.05,110.61c-.45,2.44,2.36,4.11,4.33,2.6,8.91-6.83,20.32-12.06,34.3-13.77,12.61-1.54,24,6.08,28.83,13.04,1.46,2.11,4.75,1.51,5.37-.99,2-8.1-.37-16.58-5.04-23.7.92-.47,1.74-.98,2.43-1.52Z"/>
      <path class="cls-1" d="M79.56,73.25c.13,1.84-2.09,2.83-3.39,1.53-2.96-2.95-6.89-5.92-11.94-8.23-.01.91-.04,1.8-.08,2.67-2.59,1.67-6.19,3.1-10.01,4.14-.8-.54-1.8-.89-2.89-.99-2.36-.2-4.47.88-5.31,2.56-1.36.15-2.68.23-3.91.24-7.08.06-14.35-1.96-20.07-5.41.52-1.09.98-2.2,1.38-3.35-5.63,2.16-10.99,5-15.25,8.13-1.46,1.07-3.5-.12-3.27-1.91,2.18-17.01,16.66-30.47,32.92-33.29-4.63-6.93-6.83-16.35-4.4-23.42.11-.33.24-.65.37-.96-2.81,1.61-4.74,4.15-5.37,6.66-1.62-2.6-3.98-4.43-6.88-5.23,3.22-2.68,7.7-3.62,12.65-2.8-3.92-1.96-8.62-2.39-12.65-1.42,3.19-3.85,4.77-8.05,4.44-12.17,5.1,1.73,8.72,5.52,10.55,10.76,6.13-6.63,18.11-8.29,26.08-6.22,8.18,2.13,13.53,8.75,14.73,16.3-.27-.03-.54-.05-.81-.08-5.26-.57-10.77-2.09-15.78-2.94-1-.17-2.21.64-2.44,1.72-.63,3.05-.66,4.68-.18,7.88.22,1.43,1.77,2.48,2.83,2.18,4.72-1.36,9.25-1.75,14.04-1.26.7.07,1.4.16,2.11.27-.31,1.43-.78,2.86-1.42,4.25-2.17,4.76-6.3,9.46-11.24,12.52,8.6,6.22,14.37,16.3,15.18,27.88Z"/>
    </g>
    <path class="cls-1" d="M70.74,23.06c-.24,1.38-1.13,3.53-2.07,3.36-.94-.18-1.07-2.48-.83-3.83.23-1.35,1.08-2.36,1.88-2.23s1.26,1.33,1.02,2.71Z"/>
  </g>
</svg>