<?xml version="1.0" encoding="UTF-8"?>
<svg id="Layer_1" data-name="Layer 1" xmlns="http://www.w3.org/2000/svg" viewBox="0 0 720 160" width="720" height="160" fill="#ffffff">
  <path d="M26.75,87.41c0-19.31,14.84-33.9,33.64-33.9,15.51,0,28.64,10.51,30.62,24.7h-14.83c-1.45-6.18-8.28-11.04-16.03-11.04-10.77,0-19.06,8.5-19.06,20.23s8.28,20.11,19.06,20.11c7.75,0,14.57-4.74,16.17-11.56h14.72c-1.71,14.98-14.99,25.23-30.62,25.23-4.45.07-8.87-.76-12.99-2.43-4.12-1.67-7.87-4.16-11.01-7.31-3.14-3.15-5.62-6.9-7.28-11.03-1.66-4.13-2.47-8.55-2.39-13Z"/>
  <path d="M119.06,63.24c1.76-2.5,4.11-4.54,6.83-5.94,2.72-1.4,5.75-2.11,8.81-2.09h6.7v12.75h-7.36c-9.33,0-14.99,5.91-14.99,15.79v35.72h-14.57V55.21h14.57v8.03Z"/>
  <path d="M210.15,119.47h-14.37v-6.57c-2.42,2.61-5.35,4.69-8.6,6.12-3.26,1.43-6.77,2.16-10.33,2.17-15.11,0-25.51-11.04-25.51-29.04l.13-36.93h14.72l-.13,36.53c0,9.07,5.13,15.91,14.2,15.91s15.24-6.45,15.38-16.69v-35.76h14.57l-.06,64.26Z"/>
  <path d="M225.75,55.21h14.32v6.57c2.41-2.61,5.34-4.69,8.6-6.11,3.26-1.42,6.77-2.16,10.33-2.16,15.11,0,25.51,11.04,25.51,29.04v36.92h-14.73v-36.56c0-9.06-5.12-15.9-14.19-15.9s-15.24,6.44-15.24,16.69v35.77h-14.57V55.21Z"/>
  <path d="M296.31,87.41c-.08-4.45.73-8.88,2.39-13.01,1.66-4.13,4.13-7.89,7.27-11.05,3.14-3.16,6.88-5.66,11-7.35,4.12-1.69,8.54-2.53,12.99-2.48,15.51,0,28.65,10.51,30.62,24.7h-14.85c-1.45-6.18-8.27-11.04-16.03-11.04-10.77,0-19.04,8.5-19.04,20.23s8.27,20.11,19.04,20.11c7.76,0,14.58-4.74,16.17-11.56h14.72c-1.7,14.98-14.98,25.23-30.62,25.23-4.45.06-8.86-.77-12.98-2.44-4.12-1.68-7.86-4.16-11-7.31-3.14-3.15-5.61-6.9-7.27-11.03s-2.47-8.54-2.39-12.99Z"/>
  <path d="M373.98,27.48h14.32v34.3c2.42-2.61,5.34-4.69,8.6-6.11,3.26-1.42,6.77-2.16,10.32-2.16,15.12,0,25.51,11.04,25.51,29.04v36.92h-14.71v-36.56c0-9.06-5.12-15.9-14.2-15.9s-15.24,6.44-15.24,16.69v35.77h-14.58l-.02-91.99Z"/>
  <path d="M465.64,119.47h-14.57V27.48h14.57v91.99Z"/>
  <path d="M640.03,112.9v31.28h-14.57V55.21h14.57v6.57c5.63-5.37,13.12-8.34,20.89-8.28,18.4,0,32.33,13.93,32.33,33.64s-13.93,34.01-32.33,34.01c-7.77.06-15.26-2.89-20.89-8.25ZM659.46,107.24c10.93,0,19.32-8.67,19.32-19.85s-8.41-19.83-19.32-19.83-19.43,8.02-19.43,19.83,8.33,19.81,19.49,19.81l-.06.04Z"/>
  <path d="M546.16,101.51h3.69c1.68,0,3.36,0,5.04,0,.3,0,.35-.09.35-.36,0-3.31,0-6.63,0-9.94-.02-.12,0-.25.05-.37.35.65.68,1.29,1.02,1.91,1.46,2.65,3.11,5.18,5.15,7.43,3.27,3.62,7.29,5.85,12.12,6.63,2.65.42,5.31.59,7.98.36,6.71-.58,11.86-3.72,15.29-9.57,1.56-2.67,2.42-5.59,2.79-8.65.46-3.75.26-7.45-.79-11.09-.96-3.38-2.6-6.38-5.1-8.88-2.74-2.75-6.05-4.42-9.86-5.12-2.85-.52-5.7-.37-8.53.15-2.02.37-4,.9-5.87,1.79-3.44,1.62-6.37,4.14-8.47,7.3-1.26,1.88-2.24,3.91-3.23,5.94-2.07,4.24-5.32,5.69-10.04,6.3-.34.05-.72.06-1.31.16-.25,0-.12.6-.17,1.28.02.52,0,1.03,0,1.55v9.07c0,.41-.08.81-.23,1.19-1.47,3.7-3.63,6.97-6.28,9.92-2.92,3.27-6.4,6.01-10.26,8.09-3.62,1.96-7.55,3.28-11.62,3.89-6.03.9-11.95.42-17.74-1.5-4.45-1.47-8.53-3.88-11.95-7.08-4.4-4.09-7.44-9.04-9.3-14.74-.97-2.99-1.55-6.09-1.75-9.22-.33-5.03.24-9.94,1.83-14.73,1.57-4.74,4-8.98,7.38-12.67,2.82-3.09,6.22-5.61,9.99-7.42,3.19-1.53,6.59-2.56,10.08-3.06,2.44-.37,4.91-.5,7.37-.4,3.94.18,7.71,1.1,11.34,2.64,4.07,1.73,7.73,4.12,11.14,6.92,2.75,2.25,5.3,4.73,7.72,7.32.7.75,1.39,1.5,2.08,2.25.08.09.16.19.25.29-.12.05-.24.06-.37.04h-8.3c-.28,0-.36.06-.36.35.01,3.33,0,6.65,0,9.98v.35l-.05.02c-.27-.5-.53-1.01-.8-1.51-1.42-2.62-3.01-5.11-4.95-7.38-3.46-4.03-7.79-6.46-13.05-7.19-2.7-.38-5.41-.54-8.11-.22-6.7.79-11.72,4.13-14.95,10.08-1.44,2.66-2.22,5.53-2.54,8.53-.42,3.91-.12,7.76,1.11,11.5,1.06,3.23,2.76,6.07,5.25,8.42,2.59,2.43,5.63,3.95,9.09,4.65,3.18.65,6.33.41,9.49-.19,3.52-.64,6.82-2.16,9.6-4.41,2.33-1.87,4.07-4.21,5.51-6.8.79-1.42,1.41-2.35,2.2-3.78,2.16-3.89,5.13-5.51,9.57-6.06.32-.04,1.13-.1,1.45-.1.22,0,.16.06.16-1.82,0-2.99,0-5.72,0-8.72.01-.18.01-.37,0-.55.08-1.66.63-3.05,1.21-4.27,1.65-3.49,3.53-6.14,6.21-8.9,4.83-4.98,10.57-8.45,17.29-10.24,3.93-1.04,7.92-1.36,11.96-1.09,4.08.27,8.01,1.14,11.79,2.73,4.42,1.84,8.37,4.64,11.57,8.19,4.6,5.09,7.37,11.07,8.58,17.79.61,3.45.76,6.96.43,10.45-.44,4.85-1.73,9.46-4.01,13.78-3.51,6.67-8.63,11.68-15.47,14.9-3.56,1.68-7.32,2.67-11.23,3.1-2.47.29-4.97.32-7.44.1-3.6-.36-7.12-1.31-10.41-2.81-4.46-2-8.4-4.77-12.07-7.97-2.94-2.58-5.63-5.39-8.25-8.27-.08-.09-.15-.18-.27-.33Z"/>
</svg>