<?xml version="1.0" encoding="utf-8"?>
<!-- Generator: Adobe Illustrator 19.2.1, SVG Export Plug-In . SVG Version: 6.00 Build 0)  -->
<svg version="1.1" id="layer" xmlns="http://www.w3.org/2000/svg" xmlns:xlink="http://www.w3.org/1999/xlink" x="0px" y="0px"
	 viewBox="15 275 600 90" style="enable-background:new 0 0 652 652;" xml:space="preserve">
<style type="text/css">
	.st0{fill:#FF90E8;}
</style>
<path d="M417.4,286.5c-10.4,0-20.7,9.5-21.8,23.1v-22h-15V354h15.2v-32.1c0-9,6.4-21.7,21.7-21.7V286.5z M576.7,343.4v-45.5h8.8
	c11.7,0,21.3,7.3,21.3,22.4c0,15-9.5,23.1-21.3,23.1H576.7z M561.6,354h25.7c15.8,0,35.2-10.3,35.2-33.7c0-23.1-19.4-32.6-35.2-32.6
	h-25.7V354z M504.1,321c0-12.1,6.2-22,16.5-22c9.9,0,15.4,9.9,15.4,22c0,12.1-5.5,22-15.4,22C510.4,343,504.1,333.1,504.1,321z
	 M488.7,321.7c0,19.8,10.3,33.7,26.4,33.7c11.7,0,18.7-7.7,22.4-20.2V354h15v-66.4h-15v17.6c-3.3-11.7-10.3-18.7-21.3-18.7
	C499.7,286.6,488.7,301.6,488.7,321.7z M146.4,355.5c-18.7,0-29.7-15-29.7-33.7c0-19.4,12.1-35.2,35.2-35.2
	c23.8,0,31.9,16.1,32.3,25.3H167c-0.4-5.1-4.8-12.8-15.4-12.8c-11.4,0-18.7,9.9-18.7,22c0,12.1,7.3,22,18.7,22
	c10.3,0,14.7-8.1,16.5-16.1h-16.5v-6.6h34.6V354H171v-21.3C169.9,340.4,165.1,355.5,146.4,355.5z M217,355.5
	c-14.3,0-23.1-9.5-23.1-28.6v-39.2h15.4v39.2c0,9.9,4.8,14.7,12.8,14.7c15.8,0,21.6-19.4,21.6-33v-20.9h15.4V354h-15v-24.6
	C241.2,343,233.1,355.5,217,355.5z M351.2,286.5c-13.1,0-21.4,12.7-24.1,24.4c-0.5-15.7-8.2-24.4-20.6-24.4
	c-10.7,0-20.6,9.5-23.2,24.6v-23.5h-15V354h15.2v-23.8c0-5.9,2.5-30.1,17.8-30.1c9.9,0,10.9,8.9,10.9,21.2V354h15.2v-23.8
	c0-5.9,2.6-30.1,17.9-30.1c9.9,0,10.9,8.9,10.9,21.2V354h15.2v-39.3C371.5,295.9,364.8,286.5,351.2,286.5z M450,286.5
	c-19.7,0-33,15.4-33,34.5c0,21,12.7,34.5,33,34.5c19.7,0,33.3-15.4,33.3-34.5C483.2,300,470.3,286.5,450,286.5z M450,343.7
	c-11.5,0-18.9-9.7-18.9-22.7c0-13,7.4-22.7,18.9-22.7c11.4,0,18.6,9.7,18.6,22.7C468.6,334,461.4,343.7,450,343.7z"/>
<circle class="st0" cx="59.3" cy="321" r="36.8"/>
<path d="M56.1,339.5c-10.8,0-17.1-8.6-17.1-19.4c0-11.2,7-20.2,20.3-20.2c13.7,0,18.4,9.3,18.6,14.5h-9.9c-0.2-3-2.7-7.4-8.9-7.4
	c-6.5,0-10.8,5.7-10.8,12.6c0,7,4.2,12.6,10.8,12.6c5.9,0,8.5-4.6,9.5-9.3H59v-3.8H79v19.4h-8.8v-12.2
	C69.6,330.9,66.9,339.5,56.1,339.5z"/>
</svg>
