<?xml version="1.0" encoding="UTF-8"?>
<svg id="Layer_1" data-name="Layer 1" xmlns="http://www.w3.org/2000/svg" viewBox="0 0 363.6 359.7624" width="363.6" height="359.7624" fill="#ffffff">
  <path d="M311.83015,95.41637c5.37588-3.10411,9.22155-8.11545,10.82778-14.11147,1.60681-5.99602.78241-12.25899-2.3217-17.63487-4.139-7.16935-11.85814-11.62324-20.14522-11.62324-4.05673,0-8.06694,1.07745-11.59885,3.11602l-87.04043,50.25099c-7.16651,4.139-11.61814,11.85048-11.61814,20.12536v40.25384s121.77683-70.30769,121.89655-70.37663ZM256.16669,55.09927c10.8919-6.2885,14.80565-20.35656,8.72453-31.36052-4.02666-7.28538-11.87119-11.81076-20.47259-11.81076-4.21049,0-8.34836,1.10411-11.96594,3.1929l-30.89924,17.8394c-7.16765,4.13843-11.61984,11.85048-11.61984,20.12621v40.25214l66.23309-38.23937ZM150.42615,1.79949c-12.8136,0-23.23855,10.42438-23.23911,23.23798l-.0017,100.50452c.00113,8.27545,4.45389,15.98636,11.61984,20.12394l34.86065,20.12706.00057-140.75382c0-12.81445-10.42552-23.23968-23.24025-23.23968ZM76.05917,109.43961l34.85952,20.12621V53.0865c.00057-12.57672-10.2258-23.00025-22.79656-23.23571-.14128-.00255-.28369-.00397-.42383-.00397-12.60764,0-23.25897,10.8936-23.25897,23.78776v35.67881c0,8.27602,4.45219,15.98806,11.61984,20.12621ZM20.39515,149.75557l87.03816,50.25325c3.52794,2.03659,7.54552,3.11262,11.61871,3.11262,4.07375,0,8.09133-1.07659,11.61927-3.11347l34.86065-20.12678S43.64901,109.51166,43.63426,109.50344c-3.53021-2.03829-7.54155-3.11631-11.59885-3.11631-8.28708,0-16.00622,4.45389-20.14522,11.62353-6.40737,11.09644-2.59177,25.33727,8.50495,31.74491ZM56.30601,239.34777c4.07375,0,8.0919-1.07659,11.61984-3.11319l34.85952-20.12621-66.23366-38.23966c-3.53191-2.03943-7.54325-3.11716-11.59998-3.11716-8.10892,0-15.74239,4.30751-19.92054,11.24197-3.16255,5.24822-4.04028,11.48906-2.47092,17.57359,1.60737,6.23176,5.69928,11.63658,11.22665,14.82778l30.89924,17.83969c3.52794,2.03659,7.54552,3.11319,11.61984,3.11319ZM51.76985,264.34603c-5.37588,3.10411-9.22155,8.11545-10.82778,14.11147-1.60681,5.99602-.78241,12.25899,2.3217,17.63487,4.139,7.16935,11.85814,11.62324,20.14522,11.62324,4.05673,0,8.06694-1.07745,11.59885-3.11602l87.04043-50.25099c7.16651-4.139,11.61814-11.85048,11.61814-20.12536v-40.25384s-121.77683,70.30769-121.89655,70.37663ZM107.43331,304.66313c-10.8919,6.28822-14.80565,20.35656-8.72453,31.36052,4.02666,7.28538,11.87119,11.81076,20.47259,11.81076,4.21049,0,8.34836-1.10411,11.96594-3.1929l30.89924-17.8394c7.16765-4.13843,11.61984-11.85048,11.61984-20.12621v-40.25214l-66.23309,38.23937ZM224.79483,214.09647l-34.86065-20.12706-.00057,140.75382c0,12.81445,10.42552,23.23968,23.23968,23.23968s23.23911-10.42438,23.23968-23.23798l.0017-100.50452c-.00113-8.27545-4.45389-15.98636-11.61984-20.12394ZM287.54083,250.32279l-34.85952-20.12621v76.47931c-.00057,12.57672,10.2258,23.00025,22.79656,23.23571.14128.00255.28369.00397.42383.00397,12.60764,0,23.25897-10.8936,23.25897-23.78776v-35.67909c0-8.27602-4.45219-15.98778-11.61984-20.12593ZM343.20485,210.00683l-87.03816-50.25325c-3.52794-2.03659-7.54552-3.11262-11.61871-3.11262-4.07375,0-8.09133,1.07659-11.61927,3.11347l-34.86065,20.12678s121.88293,70.36954,121.89768,70.37776c3.53021,2.03829,7.54155,3.11631,11.59885,3.11631,8.28708,0,16.00622-4.45389,20.14522-11.62353,6.40737-11.09644,2.59177-25.33727-8.50495-31.74491ZM361.03972,156.19556c-1.60737-6.23205-5.69928-11.63686-11.22665-14.82806l-30.89924-17.83969c-3.52794-2.03659-7.54552-3.11347-11.61984-3.11347-4.07375,0-8.0919,1.07688-11.61984,3.11347l-34.85952,20.12621,66.23366,38.23966c3.53191,2.03915,7.54325,3.11716,11.59998,3.11716,8.10949,0,15.74239-4.30779,19.92054-11.24197,3.16255-5.24822,4.04028-11.48906,2.47092-17.57331Z"/>
</svg>