<svg width="500" height="346.95" overflow="visible" style="display: block;" viewBox="0 0 500 346.95" fill="none" xmlns="http://www.w3.org/2000/svg">
<g id="RailsAtScale_LogoLockup_dated-white">
<g id="Group">
<path id="Vector" d="M103.07 31.44L110.99 9.96H117.98L125.9 31.44H120.67L118.94 26.66H109.84L108.08 31.44H103.08H103.07ZM111.41 22.36H117.37L116.15 19.03L114.58 14.19H114.26L112.62 19.03L111.4 22.36H111.41Z" fill="var(--fill-0, white)"/>
<path id="Vector_2" d="M133.21 23.07V9.96H137.99V23.01C137.99 26.09 139.08 27.11 142.64 27.11C146.2 27.11 147.26 26.08 147.26 23.01V9.96H152.07V23.07C152.07 28.42 148.9 31.76 142.64 31.76C136.38 31.76 133.21 28.43 133.21 23.07Z" fill="var(--fill-0, white)"/>
<path id="Vector_3" d="M161.14 24.45V24.03H165.85V24.35C165.85 26.72 166.72 27.4 170.59 27.4C173.31 27.4 173.99 26.86 173.99 25.41C173.99 23.96 173.67 23.45 170.66 22.94L166.88 22.27C162.78 21.56 161.05 19.48 161.05 16.15C161.05 12.82 163.45 9.64 169.61 9.64C175.77 9.64 178.3 12.81 178.3 17.08V17.34H173.56V16.99C173.56 14.75 172.63 14.01 169.46 14.01C166.7 14.01 165.84 14.62 165.84 15.97C165.84 17.32 166.42 17.67 168.92 18.15L172.74 18.89C177.26 19.76 178.8 22.13 178.8 25.27C178.8 28.7 176.49 31.78 170.4 31.78C164.31 31.78 161.17 29.21 161.17 24.47L161.14 24.45Z" fill="var(--fill-0, white)"/>
<path id="Vector_4" d="M191.89 31.44V14.28H184.97V9.95H203.63V14.28H196.71V31.43H191.9L191.89 31.44Z" fill="var(--fill-0, white)"/>
<path id="Vector_5" d="M211.12 31.44V9.96H215.93V31.44H211.12Z" fill="var(--fill-0, white)"/>
<path id="Vector_6" d="M225.46 31.44V9.96H230.59L237.55 20.73L239.35 23.61H239.67L239.61 20.73V9.96H244.42V31.44H239.29L232.62 21.28L230.54 17.98H230.22L230.28 21.28V31.44H225.47H225.46Z" fill="var(--fill-0, white)"/>
<path id="Vector_7" d="M252.65 34.87V31.44H264.19V34.87H252.65Z" fill="var(--fill-0, white)"/>
<path id="Vector_8" d="M277.91 31.44V14.28H270.99V9.95H289.65V14.28H282.73V31.43H277.92L277.91 31.44Z" fill="var(--fill-0, white)"/>
<path id="Vector_9" d="M297.15 31.44V9.96H313.53V14.29H301.96V18.49H313.05V22.79H301.96V27.12H313.53V31.45H297.15V31.44Z" fill="var(--fill-0, white)"/>
<path id="Vector_10" d="M321.52 31.44L328.16 20.83V20.51L321.52 9.96H327.19L331.97 17.59H332.29L336.94 9.96H342.55L335.95 20.48V20.8L342.55 31.44H336.88L332.1 23.78H331.78L327.13 31.44H321.52Z" fill="var(--fill-0, white)"/>
<path id="Vector_11" d="M349.7 31.44L357.62 9.96H364.61L372.53 31.44H367.3L365.57 26.66H356.47L354.71 31.44H349.71H349.7ZM358.04 22.36H364L362.78 19.03L361.21 14.19H360.89L359.25 19.03L358.03 22.36H358.04Z" fill="var(--fill-0, white)"/>
<path id="Vector_12" d="M379.3 24.45V24.03H384.01V24.35C384.01 26.72 384.88 27.4 388.75 27.4C391.47 27.4 392.15 26.86 392.15 25.41C392.15 23.96 391.83 23.45 388.82 22.94L385.04 22.27C380.94 21.56 379.21 19.48 379.21 16.15C379.21 12.82 381.61 9.64 387.77 9.64C393.93 9.64 396.46 12.81 396.46 17.08V17.34H391.72V16.99C391.72 14.75 390.79 14.01 387.62 14.01C384.86 14.01 384 14.62 384 15.97C384 17.32 384.58 17.67 387.08 18.15L390.9 18.89C395.42 19.76 396.96 22.13 396.96 25.27C396.96 28.7 394.65 31.78 388.56 31.78C382.47 31.78 379.33 29.21 379.33 24.47L379.3 24.45Z" fill="var(--fill-0, white)"/>
</g>
<path id="Vector_13" d="M341.57 160.63H390V192.94H305.95V67.54H341.58V160.63H341.57ZM250.02 192.92H285.79V67.53H250.02V192.92ZM492.56 145.13C492.53 140.96 491.47 136.93 489.57 133.22C483.54 121.45 473.74 115.25 460.64 114.7C451.3 114.31 430.78 114.61 430.78 114.61L430.7 99.59L487.98 99.62V67.37C487.98 67.37 451.56 67.4 434.27 67.36C428.44 67.35 422.95 68.62 417.86 71.42C407.51 77.11 401.14 85.66 400.16 97.59C399.7 103.15 399.87 108.79 400.01 114.38C400.12 118.78 401.21 123.05 403.36 126.93C409.95 138.83 420.29 144.65 433.72 145.02C442.03 145.24 460.33 145.06 460.33 145.06V160.64H401.74V192.94C401.74 192.94 440.62 192.97 459.34 192.9C461.74 192.89 464.18 192.57 466.53 192.06C480.43 189.04 490.43 178.63 492.17 164.61C492.96 158.2 492.61 151.63 492.57 145.14L492.56 145.13ZM229.88 100.79V192.92H196.38V160.64H163.79V192.95H129.26C129.26 192.95 129.24 130.8 129.27 100.41C129.29 86.8 138.65 73.53 151.12 69.25C154.84 67.97 158.69 67.48 162.61 67.48C173.87 67.47 185.14 67.18 196.39 67.55C208.66 67.95 218.9 72.69 225.59 83.48C228.87 88.75 229.87 94.67 229.87 100.8L229.88 100.79ZM196.24 105.35C196.24 100.97 192.68 97.42 188.31 97.42H171.59C167.2 97.42 163.66 100.98 163.66 105.35V134.92H196.24V105.35ZM121.06 192.94H70.81L41.32 160.63V192.92H7.33V66.56C7.33 66.56 49.84 66.67 70.28 66.51C76.87 66.45 82.98 67.95 88.83 70.72C102.42 77.18 110.24 87.93 112.15 102.84C113.48 113.29 112.65 123.54 108.12 133.2C103.04 144.02 93.57 150.87 81.8 153.19C81.8 153.4 121.07 192.94 121.07 192.94H121.06ZM76.43 104.15C76.43 99.92 72.99 96.48 68.76 96.48H41.38V129.06H68.76C72.99 129.06 76.43 125.62 76.43 121.39V104.15Z" fill="var(--fill-0, white)"/>
<g id="Group_2">
<path id="Vector_14" d="M27.06 211.05H52.69L72.65 279.09H53.49L50.88 269.11H29.11L26.5 279.09H7.33L27.06 211.05ZM46.11 250.97L39.87 227.27L33.75 250.97H46.11Z" fill="var(--fill-0, white)"/>
<path id="Vector_15" d="M93.97 229.2H76.05V211.06H130.82V229.2H112.9V279.09H93.96V229.2H93.97Z" fill="var(--fill-0, white)"/>
<path id="Vector_16" d="M179.13 262.08H212.81V253.57H196.25C186.16 253.57 177.88 245.63 177.88 235.54V229.3C177.88 219.21 186.04 211.04 196.14 211.04H227.55V228.05H196.14V235.42H212.7C222.79 235.42 230.96 243.47 230.96 253.56V260.93C230.96 271.02 222.91 279.07 212.82 279.07H179.14V262.06L179.13 262.08Z" fill="var(--fill-0, white)"/>
<path id="Vector_17" d="M245.12 229.31C245.12 219.22 253.28 211.05 263.38 211.05H280.16C290.25 211.05 298.42 219.1 298.42 229.19V237.13H280.28V229.19H263.27V260.94H280.28V253H298.42V260.94C298.42 271.03 290.37 279.08 280.28 279.08H263.38C253.29 279.08 245.12 270.92 245.12 260.82V229.3V229.31Z" fill="var(--fill-0, white)"/>
<path id="Vector_18" d="M328.36 211.05H353.99L373.95 279.09H354.79L352.18 269.11H330.41L327.8 279.09H308.64L328.37 211.05H328.36ZM347.41 250.97L341.17 227.27L335.05 250.97H347.41Z" fill="var(--fill-0, white)"/>
<path id="Vector_19" d="M386.42 211.05H404.68V260.94H431.78V279.08H386.42V211.04V211.05Z" fill="var(--fill-0, white)"/>
<path id="Vector_20" d="M446.52 211.05H492.67V229.19H464.77V238.15H483.48V251.87H464.77V260.94H492.67V279.08H446.52V211.04V211.05Z" fill="var(--fill-0, white)"/>
</g>
<g id="Group_3">
<path id="Vector_21" d="M104.38 329.76V329.35H109.02V329.67C109.02 332.01 109.87 332.67 113.69 332.67C116.37 332.67 117.04 332.13 117.04 330.71C117.04 329.29 116.72 328.78 113.76 328.28L110.04 327.62C106 326.93 104.3 324.87 104.3 321.59C104.3 318.31 106.67 315.18 112.73 315.18C118.79 315.18 121.28 318.3 121.28 322.5V322.75H116.61V322.4C116.61 320.19 115.69 319.46 112.57 319.46C109.86 319.46 109 320.06 109 321.39C109 322.72 109.57 323.06 112.03 323.54L115.79 324.27C120.24 325.12 121.76 327.46 121.76 330.55C121.76 333.93 119.49 336.96 113.49 336.96C107.49 336.96 104.4 334.43 104.4 329.76H104.38Z" fill="var(--fill-0, white)"/>
<path id="Vector_22" d="M129.95 336.65V315.5H146.08V319.76H134.69V323.89H145.61V328.12H134.69V332.38H146.08V336.64H129.95V336.65Z" fill="var(--fill-0, white)"/>
<path id="Vector_23" d="M154.89 336.65V315.5H164.61C169.16 315.5 172.41 318.25 172.41 322.95C172.41 327.65 169.16 330.37 164.61 330.37H159.62V336.65H154.89ZM159.62 319.76V326.14H164.8C166.98 326.14 167.7 325.48 167.7 322.95C167.7 320.42 166.97 319.76 164.8 319.76H159.62Z" fill="var(--fill-0, white)"/>
<path id="Vector_24" d="M186.01 336.65V319.76H179.19V315.5H197.56V319.76H190.74V336.65H186.01Z" fill="var(--fill-0, white)"/>
<path id="Vector_25" d="M218.24 336.65V333.81C218.24 329.71 221.02 328 223.95 326.58L227.61 324.84C229.47 323.96 230.13 323.26 230.13 321.87C230.13 320.35 229.44 319.5 226.63 319.5C223.57 319.5 222.94 320.35 222.94 322.63V323.17H218.21V322.67C218.21 318.57 220.73 315.19 227.02 315.19C232.61 315.19 234.85 318.03 234.85 321.85C234.85 325.67 232.26 327.37 229.52 328.6L226.33 329.99C224.59 330.78 223.3 331.44 223.3 332.45L226.71 332.39H234.79V336.65H218.25H218.24Z" fill="var(--fill-0, white)"/>
<path id="Vector_26" d="M244.02 336.65V333.81C244.02 329.71 246.8 328 249.73 326.58L253.39 324.84C255.25 323.96 255.91 323.26 255.91 321.87C255.91 320.35 255.22 319.5 252.41 319.5C249.35 319.5 248.72 320.35 248.72 322.63V323.17H243.99V322.67C243.99 318.57 246.51 315.19 252.8 315.19C258.39 315.19 260.63 318.03 260.63 321.85C260.63 325.67 258.04 327.37 255.3 328.6L252.11 329.99C250.37 330.78 249.08 331.44 249.08 332.45L252.49 332.39H260.57V336.65H244.03H244.02Z" fill="var(--fill-0, white)"/>
<path id="Vector_27" d="M270.17 341.32V338.23H271.62C272.28 338.23 272.57 338.04 272.57 337.22V336.65H270.04V331.06H275.97V337.15C275.97 339.96 274.42 341.32 271.74 341.32H270.16H270.17Z" fill="var(--fill-0, white)"/>
<path id="Vector_28" d="M297.32 336.65V333.81C297.32 329.71 300.1 328 303.03 326.58L306.69 324.84C308.55 323.96 309.21 323.26 309.21 321.87C309.21 320.35 308.52 319.5 305.71 319.5C302.65 319.5 302.02 320.35 302.02 322.63V323.17H297.29V322.67C297.29 318.57 299.81 315.19 306.1 315.19C311.69 315.19 313.93 318.03 313.93 321.85C313.93 325.67 311.34 327.37 308.6 328.6L305.41 329.99C303.67 330.78 302.38 331.44 302.38 332.45L305.79 332.39H313.87V336.65H297.33H297.32Z" fill="var(--fill-0, white)"/>
<path id="Vector_29" d="M323.36 326.07C323.36 319.5 326.77 315.18 332.86 315.18C338.95 315.18 342.33 319.5 342.33 326.07C342.33 332.64 338.92 336.96 332.86 336.96C326.8 336.96 323.36 332.67 323.36 326.07ZM337.28 326.07C337.28 321.05 336.08 319.76 332.86 319.76C329.64 319.76 328.41 321.05 328.41 326.07C328.41 331.09 329.61 332.38 332.86 332.38C336.11 332.38 337.28 331.09 337.28 326.07Z" fill="var(--fill-0, white)"/>
<path id="Vector_30" d="M351.93 336.65V333.81C351.93 329.71 354.71 328 357.64 326.58L361.3 324.84C363.16 323.96 363.82 323.26 363.82 321.87C363.82 320.35 363.13 319.5 360.32 319.5C357.26 319.5 356.63 320.35 356.63 322.63V323.17H351.9V322.67C351.9 318.57 354.42 315.19 360.71 315.19C366.3 315.19 368.54 318.03 368.54 321.85C368.54 325.67 365.95 327.37 363.21 328.6L360.02 329.99C358.28 330.78 356.99 331.44 356.99 332.45L360.4 332.39H368.48V336.65H351.94H351.93Z" fill="var(--fill-0, white)"/>
<path id="Vector_31" d="M377.91 325.72C377.91 318.93 381.1 315.18 387.35 315.18C392.24 315.18 395.18 317.77 395.18 321.87V322.12H390.16V321.93C390.16 320.38 389.15 319.75 386.72 319.75C383.53 319.75 382.81 321.2 382.81 324.2V326.03H382.97C383.89 324.64 385.53 323.57 388.71 323.57C393.35 323.57 395.72 325.97 395.72 329.98C395.72 334.24 392.75 336.96 387.1 336.96C380.35 336.96 377.92 333.17 377.92 325.72H377.91ZM391.07 329.89C391.07 328.09 390.15 327.4 387.16 327.4C384.17 327.4 383.21 328.09 383.21 329.89C383.21 331.69 384.16 332.41 387.16 332.41C390.16 332.41 391.07 331.72 391.07 329.89Z" fill="var(--fill-0, white)"/>
</g>
</g>
</svg>
