<svg width="584" height="276" viewBox="0 0 584 276" fill="none" xmlns="http://www.w3.org/2000/svg">
<path d="M398.954 122.995H455.52V160.738H357.35V14.2515H398.966V122.995H398.954ZM292.023 160.715H333.803V14.2398H292.023V160.715ZM575.31 104.889C575.275 100.017 574.037 95.3098 571.818 90.9759C564.775 77.2267 553.328 69.9842 538.028 69.3417C527.119 68.8861 503.151 69.2366 503.151 69.2366L503.058 51.6909L569.961 51.7259V14.0529C569.961 14.0529 527.422 14.088 507.227 14.0412C500.418 14.0295 494.006 15.5131 488.061 18.7839C475.972 25.4307 468.532 35.4185 467.387 49.3546C466.85 55.8495 467.048 62.4379 467.212 68.9679C467.34 74.1078 468.613 79.0958 471.125 83.6282C478.822 97.5293 490.899 104.328 506.585 104.76C516.291 105.017 537.666 104.807 537.666 104.807V123.007H469.232V160.738C469.232 160.738 514.644 160.773 536.509 160.691C539.312 160.68 542.162 160.306 544.907 159.71C561.142 156.182 572.822 144.022 574.855 127.644C575.777 120.156 575.369 112.482 575.322 104.9L575.31 104.889ZM268.5 53.0927V160.715H229.372V123.007H191.307V160.75H150.976C150.976 160.75 150.952 88.149 150.987 52.6488C151.011 36.7502 161.943 21.2487 176.508 16.249C180.853 14.7538 185.35 14.1814 189.929 14.1814C203.08 14.1697 216.244 13.831 229.384 14.2632C243.715 14.7304 255.675 20.2675 263.489 32.8719C267.32 39.0281 268.488 45.9435 268.488 53.1043L268.5 53.0927ZM229.208 58.4194C229.208 53.3029 225.05 49.156 219.946 49.156H200.417C195.29 49.156 191.155 53.3146 191.155 58.4194V92.9618H229.208V58.4194ZM141.398 160.738H82.7062L48.2618 122.995V160.715H8.56152V13.1184C8.56152 13.1184 58.2132 13.2469 82.0871 13.06C89.7842 12.9899 96.9207 14.7421 103.754 17.9779C119.627 25.5242 128.76 38.0819 130.991 55.499C132.545 67.7063 131.575 79.6799 126.284 90.9642C120.351 103.604 109.29 111.606 95.5425 114.316C95.5425 114.561 141.41 160.75 141.41 160.75L141.398 160.738ZM89.2703 57.0177C89.2703 52.0764 85.2524 48.0579 80.3118 48.0579H48.3319V86.1164H80.3118C85.2524 86.1164 89.2703 82.0979 89.2703 77.1566V57.0177Z" fill="white"/>
<path d="M31.6062 181.894H61.542L84.8553 261.375H62.4764L59.4279 249.717H34.0006L30.9521 261.375H8.56152L31.6062 181.894ZM53.8566 228.526L46.5682 200.841L39.4201 228.526H53.8566Z" fill="white"/>
<path d="M109.757 203.095H88.8264V181.905H152.798V203.095H131.867V261.375H109.745V203.095H109.757Z" fill="white"/>
<path d="M209.224 241.504H248.562V231.563H229.22C217.435 231.563 207.764 222.288 207.764 210.502V203.212C207.764 191.426 217.295 181.882 229.092 181.882H265.778V201.752H229.092V210.361H248.434C260.219 210.361 269.761 219.765 269.761 231.552V240.161C269.761 251.948 260.359 261.351 248.574 261.351H209.236V241.481L209.224 241.504Z" fill="white"/>
<path d="M286.3 203.224C286.3 191.437 295.831 181.893 307.628 181.893H327.227C339.012 181.893 348.555 191.297 348.555 203.084V212.359H327.367V203.084H307.499V240.173H327.367V230.898H348.555V240.173C348.555 251.959 339.152 261.363 327.367 261.363H307.628C295.843 261.363 286.3 251.831 286.3 240.032V203.212V203.224Z" fill="white"/>
<path d="M383.525 181.893H413.46L436.774 261.375H414.395L411.346 249.717H385.919L382.871 261.375H360.492L383.536 181.893H383.525ZM405.775 228.526L398.487 200.841L391.339 228.526H405.775Z" fill="white"/>
<path d="M451.339 181.893H472.666V240.173H504.319V261.363H451.339V181.882V181.893Z" fill="white"/>
<path d="M521.535 181.893H575.439V203.084H542.851V213.55H564.705V229.578H542.851V240.173H575.439V261.363H521.535V181.882V181.893Z" fill="white"/>
</svg>
