<svg preserveAspectRatio="none" width="100%" height="100%" overflow="visible" style="display: block;" viewBox="0 0 366.913 26.1212" fill="none" xmlns="http://www.w3.org/2000/svg">
<g id="Group">
<path id="Vector" d="M0.09473 14.5749V14.1648H4.73609V14.4803C4.73609 16.8148 5.5886 17.4772 9.40904 17.4772C12.0928 17.4772 12.7559 16.9409 12.7559 15.5213C12.7559 14.1017 12.4401 13.5969 9.47218 13.0922L5.74645 12.4297C1.70499 11.7356 0 9.68504 0 6.40411C0 3.12319 2.36805 0 8.43024 0C14.4924 0 16.9868 3.12319 16.9868 7.31899V7.57138H12.3138V7.22435C12.3138 5.01604 11.3982 4.29045 8.27238 4.29045C5.55702 4.29045 4.70452 4.88985 4.70452 6.21484C4.70452 7.53983 5.27285 7.88685 7.73561 8.36006L11.4929 9.08564C15.9448 9.93742 17.4604 12.2719 17.4604 15.3636C17.4604 18.7392 15.1871 21.7677 9.18801 21.7677C3.18897 21.7677 0.09473 19.2439 0.09473 14.5749Z" fill="var(--fill-0, white)"/>
<path id="Vector_2" d="M25.6696 21.4522V0.315491H41.8039V4.57438H30.4057V8.7071H41.3303V12.9344H30.4057V17.1933H41.8039V21.4522H25.6696Z" fill="var(--fill-0, white)"/>
<path id="Vector_3" d="M50.613 21.4522V0.315491H60.3378C64.8844 0.315491 68.1366 3.06011 68.1366 7.76067C68.1366 12.4612 64.8844 15.1743 60.3378 15.1743H55.3491V21.4522H50.613ZM55.3491 4.57438V10.947H60.5272C62.7058 10.947 63.4321 10.2845 63.4321 7.76067C63.4321 5.23688 62.7058 4.57438 60.5272 4.57438H55.3491Z" fill="var(--fill-0, white)"/>
<path id="Vector_4" d="M81.7449 21.4522V4.57438H74.9249V0.315491H93.3009V4.57438H86.481V21.4522H81.7449Z" fill="var(--fill-0, white)"/>
<path id="Vector_5" d="M113.698 21.4522V18.613C113.698 14.5118 116.476 12.8082 119.413 11.3886L123.075 9.65349C124.938 8.77016 125.601 8.07614 125.601 6.68805C125.601 5.17378 124.906 4.322 122.096 4.322C119.034 4.322 118.402 5.17377 118.402 7.44518V7.98148H113.666V7.47674C113.666 3.37558 116.192 0 122.475 0C128.064 0 130.306 2.83927 130.306 6.6565C130.306 10.4737 127.716 12.1773 124.97 13.4076L121.781 14.7957C120.044 15.5844 118.749 16.2469 118.749 17.2564L122.159 17.1933H130.242V21.4522H113.698Z" fill="var(--fill-0, white)"/>
<path id="Vector_6" d="M139.273 14.985V14.291H143.914V14.9219C143.914 16.8463 144.64 17.4141 148.019 17.4141C150.608 17.4141 151.934 16.9725 151.934 15.0166C151.934 12.9344 151.05 12.5243 148.997 12.5243H144.545V8.67553H148.492C150.387 8.67553 151.113 8.29697 151.113 6.59341C151.113 4.88986 149.913 4.35353 147.703 4.35353C144.893 4.35353 143.914 4.92139 143.914 6.84578V7.12971H139.273V6.78269C139.273 2.58689 142.398 0 147.829 0C152.818 0 155.849 1.92438 155.849 5.71007C155.849 8.20231 154.649 9.90587 151.871 10.2213V10.4106C154.902 10.6946 156.733 12.5243 156.733 15.6475C156.733 19.7487 153.355 21.7677 148.019 21.7677C141.641 21.7677 139.273 19.1808 139.273 14.985Z" fill="var(--fill-0, white)"/>
<path id="Vector_7" d="M164.5 14.1648V10.1267H180.698V14.1648H164.5Z" fill="var(--fill-0, white)"/>
<path id="Vector_8" d="M189.412 21.4522V18.613C189.412 14.5118 192.191 12.8082 195.127 11.3886L198.789 9.65349C200.652 8.77016 201.315 8.07614 201.315 6.68805C201.315 5.17378 200.621 4.322 197.811 4.322C194.748 4.322 194.117 5.17377 194.117 7.44518V7.98148H189.38V7.47674C189.38 3.37558 191.906 0 198.19 0C203.778 0 206.02 2.83927 206.02 6.6565C206.02 10.4737 203.431 12.1773 200.684 13.4076L197.495 14.7957C195.758 15.5844 194.464 16.2469 194.464 17.2564L197.874 17.1933H205.957V21.4522H189.412Z" fill="var(--fill-0, white)"/>
<path id="Vector_9" d="M225.556 21.4522V17.4457H213.621V14.1333L224.798 0.315491H230.292V13.1868H233.323V17.4457H230.292V21.4522H225.556ZM225.556 13.1868V6.05711H225.272L219.589 12.8714V13.1868H225.556Z" fill="var(--fill-0, white)"/>
<path id="Vector_10" d="M241.351 26.1212V23.0296H242.803C243.467 23.0296 243.751 22.8403 243.751 22.0201V21.4522H241.225V15.8683H247.161V21.957C247.161 24.7647 245.614 26.1212 242.93 26.1212H241.351Z" fill="var(--fill-0, white)"/>
<path id="Vector_11" d="M268.497 21.4522V18.613C268.497 14.5118 271.275 12.8082 274.212 11.3886L277.874 9.65349C279.737 8.77016 280.4 8.07614 280.4 6.68805C280.4 5.17378 279.705 4.322 276.895 4.322C273.833 4.322 273.201 5.17377 273.201 7.44518V7.98148H268.465V7.47674C268.465 3.37558 270.991 0 277.274 0C282.863 0 285.105 2.83927 285.105 6.6565C285.105 10.4737 282.516 12.1773 279.769 13.4076L276.58 14.7957C274.843 15.5844 273.549 16.2469 273.549 17.2564L276.959 17.1933H285.041V21.4522H268.497Z" fill="var(--fill-0, white)"/>
<path id="Vector_12" d="M294.545 10.8838C294.545 4.32198 297.955 0 304.049 0C310.143 0 313.521 4.32198 313.521 10.8838C313.521 17.4457 310.111 21.7677 304.049 21.7677C297.987 21.7677 294.545 17.4772 294.545 10.8838ZM308.469 10.8838C308.469 5.8678 307.27 4.57436 304.049 4.57436C300.828 4.57436 299.597 5.8678 299.597 10.8838C299.597 15.8999 300.797 17.1933 304.049 17.1933C307.301 17.1933 308.469 15.8999 308.469 10.8838Z" fill="var(--fill-0, white)"/>
<path id="Vector_13" d="M323.12 21.4522V18.613C323.12 14.5118 325.898 12.8082 328.835 11.3886L332.497 9.65349C334.36 8.77016 335.023 8.07614 335.023 6.68805C335.023 5.17378 334.328 4.322 331.518 4.322C328.456 4.322 327.824 5.17377 327.824 7.44518V7.98148H323.088V7.47674C323.088 3.37558 325.614 0 331.897 0C337.486 0 339.727 2.83927 339.727 6.6565C339.727 10.4737 337.138 12.1773 334.392 13.4076L331.203 14.7957C329.466 15.5844 328.171 16.2469 328.171 17.2564L331.581 17.1933H339.664V21.4522H323.12Z" fill="var(--fill-0, white)"/>
<path id="Vector_14" d="M349.105 10.5368C349.105 3.75415 352.294 0 358.546 0C363.44 0 366.376 2.58689 366.376 6.68805V6.94041H361.356V6.75114C361.356 5.20532 360.345 4.57436 357.914 4.57436C354.725 4.57436 353.999 6.02555 353.999 9.02255V10.8523H354.157C355.073 9.46422 356.714 8.39161 359.903 8.39161C364.545 8.39161 366.913 10.7892 366.913 14.7957C366.913 19.0546 363.945 21.7677 358.293 21.7677C351.536 21.7677 349.105 17.982 349.105 10.5368ZM362.271 14.7011C362.271 12.9029 361.356 12.2088 358.356 12.2088C355.357 12.2088 354.409 12.9029 354.409 14.7011C354.409 16.4993 355.357 17.2249 358.356 17.2249C361.356 17.2249 362.271 16.5308 362.271 14.7011Z" fill="var(--fill-0, white)"/>
</g>
</svg>
