<svg preserveAspectRatio="none" width="100%" height="100%" overflow="visible" style="display: block;" viewBox="0 0 289.367 24.8199" fill="none" xmlns="http://www.w3.org/2000/svg">
<g id="Group">
<path id="Vector" d="M0 21.4522L7.79875 0.31546H14.6819L22.4806 21.4522H17.3341L15.6291 16.7516H6.6621L4.92552 21.4522H0ZM8.20922 12.5243H14.082L12.8822 9.24337L11.335 4.47971H11.0193L9.40903 9.24337L8.20922 12.5243Z" fill="var(--fill-0, white)"/>
<path id="Vector_2" d="M29.6795 13.2183V0.31546H34.384V13.1552C34.384 16.1838 35.4575 17.1933 38.9622 17.1933C42.467 17.1933 43.5089 16.1838 43.5089 13.1552V0.31546H48.245V13.2183C48.245 18.4867 45.1192 21.7677 38.9622 21.7677C32.8053 21.7677 29.6795 18.4867 29.6795 13.2183Z" fill="var(--fill-0, white)"/>
<path id="Vector_3" d="M57.1804 14.5749V14.1648H61.8217V14.4802C61.8217 16.8147 62.6742 17.4772 66.4947 17.4772C69.1785 17.4772 69.8415 16.9409 69.8415 15.5213C69.8415 14.1017 69.5258 13.5969 66.5578 13.0922L62.8321 12.4297C58.7906 11.7356 57.0856 9.68504 57.0856 6.40412C57.0856 3.12319 59.4537 0 65.5159 0C71.5781 0 74.0724 3.12319 74.0724 7.31899V7.57137H69.3995V7.22435C69.3995 5.01603 68.4838 4.29044 65.358 4.29044C62.6427 4.29044 61.7901 4.88984 61.7901 6.21483C61.7901 7.53982 62.3585 7.88684 64.8213 8.36005L68.5785 9.08564C73.0305 9.93742 74.546 12.2719 74.546 15.3636C74.546 18.7391 72.2727 21.7677 66.2737 21.7677C60.2746 21.7677 57.1804 19.2439 57.1804 14.5749Z" fill="var(--fill-0, white)"/>
<path id="Vector_4" d="M87.4598 21.4522V4.57435H80.6398V0.31546H99.0159V4.57435H92.1959V21.4522H87.4598Z" fill="var(--fill-0, white)"/>
<path id="Vector_5" d="M106.404 21.4522V0.31546H111.14V21.4522H106.404Z" fill="var(--fill-0, white)"/>
<path id="Vector_6" d="M120.518 21.4522V0.31546H125.569L132.421 10.9154L134.189 13.7546H134.505L134.442 10.9154V0.31546H139.178V21.4522H134.126L127.559 11.4517L125.506 8.2023H125.191L125.254 11.4517V21.4522H120.518Z" fill="var(--fill-0, white)"/>
<path id="Vector_7" d="M147.292 24.8199V21.4443H158.659V24.8199H147.292Z" fill="var(--fill-0, white)"/>
<path id="Vector_8" d="M172.165 21.4522V4.57435H165.345V0.31546H183.721V4.57435H176.901V21.4522H172.165Z" fill="var(--fill-0, white)"/>
<path id="Vector_9" d="M191.117 21.4522V0.31546H207.251V4.57435H195.853V8.70706H206.778V12.9344H195.853V17.1933H207.251V21.4522H191.117Z" fill="var(--fill-0, white)"/>
<path id="Vector_10" d="M215.105 21.4522L221.641 11.01V10.6945L215.105 0.31546H220.694L225.398 7.82374H225.714L230.292 0.31546H235.818L229.314 10.663V10.9785L235.818 21.4522H230.229L225.525 13.9124H225.209L220.631 21.4522H215.105Z" fill="var(--fill-0, white)"/>
<path id="Vector_11" d="M242.859 21.4522L250.657 0.31546H257.541L265.339 21.4522H260.193L258.488 16.7516H249.521L247.784 21.4522H242.859ZM251.068 12.5243H256.941L255.741 9.24337L254.194 4.47971H253.878L252.268 9.24337L251.068 12.5243Z" fill="var(--fill-0, white)"/>
<path id="Vector_12" d="M272.001 14.5749V14.1648H276.643V14.4802C276.643 16.8147 277.495 17.4772 281.316 17.4772C283.999 17.4772 284.663 16.9409 284.663 15.5213C284.663 14.1017 284.347 13.5969 281.379 13.0922L277.653 12.4297C273.612 11.7356 271.907 9.68504 271.907 6.40412C271.907 3.12319 274.275 0 280.337 0C286.399 0 288.893 3.12319 288.893 7.31899V7.57137H284.221V7.22435C284.221 5.01603 283.305 4.29044 280.179 4.29044C277.464 4.29044 276.611 4.88984 276.611 6.21483C276.611 7.53982 277.18 7.88684 279.642 8.36005L283.4 9.08564C287.852 9.93742 289.367 12.2719 289.367 15.3636C289.367 18.7391 287.094 21.7677 281.095 21.7677C275.096 21.7677 272.001 19.2439 272.001 14.5749Z" fill="var(--fill-0, white)"/>
</g>
</svg>
