<svg preserveAspectRatio="none" width="100%" height="100%" overflow="visible" style="display: block;" viewBox="0 0 345 99" fill="none" xmlns="http://www.w3.org/2000/svg">
<g id="svg103" clip-path="url(#clip0_0_4)">
<path id="path69" d="M82.3149 74.4052C82.2463 73.9357 82.1778 73.4628 82.1058 72.9795C82.1058 72.9761 82.1058 72.9726 82.1058 72.9692C82.0338 72.4894 81.9618 72.0027 81.8898 71.509C81.8521 71.2605 81.8144 71.0051 81.7802 70.7496C79.199 53.1726 75.641 28.9024 74.503 21.1254C74.4858 21.0183 74.4721 20.9182 74.4584 20.8181C74.4276 20.6076 74.4001 20.4108 74.3727 20.2313C74.2253 19.2372 74.143 18.6711 74.1396 18.6262C74.0813 18.1119 73.6289 17.884 73.2895 17.8254C72.9502 17.7701 66.1426 17.7114 66.1426 17.7114C66.1426 17.7114 60.4113 12.1125 59.8457 11.5429C59.8046 11.5015 59.7601 11.4635 59.7155 11.429C59.6744 11.4014 59.6298 11.3738 59.5887 11.3496C59.5064 11.3047 59.4207 11.2668 59.3316 11.2392C58.7694 11.0562 58.0839 11.1701 57.7479 11.2564C57.7479 11.2564 56.6682 11.6016 54.8549 12.1712C54.5704 11.2012 54.1145 9.99994 53.4906 8.80213C51.4511 4.86008 48.4998 2.80276 44.8697 2.80276C44.6435 2.80276 44.359 2.80276 44.1328 2.86144C44.0196 2.74753 43.9065 2.63017 43.7934 2.46103C42.2029 0.74544 40.2182 -0.0519455 37.8359 -0.00016729C33.1844 0.113745 28.5912 3.48623 24.7898 9.54084C22.1229 13.7659 20.1383 19.0784 19.5692 23.193C14.239 24.8499 10.4959 25.9925 10.4376 26.0477C7.77079 26.9073 7.65768 26.9625 7.31833 29.5341C7.03382 31.4223 0 86.3176 0 86.3176L59.0505 96.6008L84.6321 90.201C84.6321 90.201 83.662 83.5975 82.3149 74.4052ZM44.2459 15.485C41.1266 16.455 37.7776 17.4836 34.3773 18.5675C35.3405 14.912 37.1538 11.2564 39.3681 8.85736C40.2182 7.94262 41.3528 6.97264 42.7137 6.40308C44.0197 9.08519 44.2459 12.9133 44.2459 15.485ZM37.8942 3.1445C38.9705 3.1445 39.8789 3.37577 40.6707 3.88665C39.423 4.51835 38.1753 5.48833 37.0407 6.74481C34.0928 9.94471 31.8236 14.8567 30.9152 19.6549C28.0804 20.5109 25.3553 21.367 22.8051 22.1678C24.5053 14.6289 30.7438 3.37577 37.8942 3.1445ZM28.8723 45.9893C29.215 51.0152 42.2612 52.0991 42.9982 63.8113C43.5638 73.0658 38.1204 79.3483 30.2914 79.8626C20.8752 80.4322 15.713 74.8919 15.713 74.8919L17.6977 66.3795C17.6977 66.3795 22.9182 70.3216 27.059 70.0938C29.7806 69.9212 30.7438 67.6947 30.6307 66.0965C30.2365 59.5828 19.5692 59.928 18.8905 49.2444C18.3215 40.2177 24.2207 31.0806 37.2121 30.2211C42.316 29.7654 44.8697 31.0806 44.8697 31.0806L41.9218 42.275C41.9218 42.275 38.6312 40.7321 34.6584 41.0186C28.8723 41.3603 28.8174 45.0158 28.8723 45.9893ZM47.3103 14.515C47.2521 12.1712 46.9675 8.85736 45.8912 6.00266C49.463 6.68613 51.1666 10.6869 51.9036 13.0859C50.5427 13.4863 49.0105 14.0007 47.3103 14.515Z" fill="var(--fill-0, white)"/>
<path id="path71" d="M73.2895 17.8255C72.9502 17.7668 66.1426 17.7116 66.1426 17.7116C66.1426 17.7116 60.4148 12.1127 59.8458 11.5431C59.6195 11.3153 59.335 11.2014 59.0505 11.2014V96.6009L84.6321 90.2046C84.6321 90.2046 74.1945 19.1441 74.1396 18.6298C74.0265 18.1155 73.6289 17.8877 73.2895 17.829V17.8255Z" fill="var(--fill-0, white)"/>
<path id="path75" d="M332.804 38.3332C332.804 38.3332 325.486 56.8974 322.195 67.0114H322.027C321.797 63.7528 319.134 38.3332 319.134 38.3332H306.88L313.913 76.6629C314.085 77.5189 313.972 78.0333 313.687 78.6063C312.326 81.2332 310.057 83.8048 307.335 85.6895C305.121 87.2878 302.684 88.3164 300.696 89.0033L303.932 99C306.314 98.4857 311.192 96.5423 315.387 92.6002C320.721 87.5743 325.657 79.8041 330.706 69.2379L345 38.3332H332.804ZM303.873 28.6817C305.971 28.6817 307.617 29.2513 307.617 29.2513L309.886 20.0554C309.886 20.0554 307.846 19.0268 303.534 19.0268C299.222 19.0268 295.253 20.2246 292.075 22.9688C288.106 26.3965 286.234 31.3086 285.267 36.2758L284.928 38.2192H279.481L277.781 47.0733H283.228L277.044 80.0354H288.729L294.91 47.0733H302.965L304.669 38.2192H296.555L296.953 36.2758C297.635 32.2786 300.017 28.6817 303.873 28.6817ZM263.144 38.3332L255.319 80.0354H267.004L274.943 38.3332H263.144ZM271.656 20.5111C267.909 20.5111 264.961 23.4832 264.961 27.3665C264.961 30.8495 267.172 33.2485 270.463 33.2485H270.634C274.264 33.2485 277.442 30.7942 277.497 26.3965C277.497 22.9688 275.227 20.5111 271.656 20.5111ZM242.896 37.3632C235.009 37.3632 230.529 44.3325 230.529 44.3325H230.358L231.04 37.9914H220.715C220.205 42.2752 219.296 48.7302 218.333 53.587L210.223 96.6562H221.908L225.141 79.2345H225.367C225.367 79.2345 227.749 80.7775 232.229 80.7775C245.957 80.7775 254.921 66.611 254.921 52.2719C254.976 44.4464 251.459 37.3632 242.896 37.3632ZM231.722 72.0373C228.657 72.0373 226.899 70.3218 226.899 70.3218L228.829 59.2964C230.19 51.9854 233.988 47.0733 238.074 47.0733C241.649 47.0733 242.725 50.3871 242.725 53.587C242.725 61.1846 238.245 72.0373 231.722 72.0373ZM197.177 37.3632C183.109 37.3632 173.806 50.1593 173.806 64.4397C173.806 73.5803 179.421 80.8914 189.913 80.8914C203.7 80.8914 213.058 68.437 213.058 53.8149C213.003 45.4164 208.067 37.3632 197.177 37.3632ZM191.391 71.8648C187.418 71.8648 185.718 68.437 185.718 64.2119C185.718 57.4704 189.176 46.4451 195.531 46.4451C199.672 46.4451 201.033 50.0454 201.033 53.5284C201.033 60.7842 197.571 71.8648 191.391 71.8648ZM161.154 37.3632C155.992 37.3632 151.909 39.8175 148.79 43.5904L148.619 43.5317L153.099 19.8828H141.413L130.071 80.0354H141.756L145.671 59.469C147.199 51.7023 151.172 46.9007 154.915 46.9007C157.524 46.9007 158.545 48.6716 158.545 51.2432C158.545 52.8414 158.374 54.8435 158.035 56.4417L153.609 79.9767H165.295L169.891 55.6409C170.402 53.0727 170.742 49.9867 170.742 47.9881C170.742 41.4191 167.225 37.3632 161.154 37.3632ZM119.294 54.9574C116.343 53.3558 114.81 51.9854 114.81 50.1006C114.81 47.7016 116.912 46.1586 120.257 46.1586C124.113 46.1586 127.517 47.7603 127.517 47.7603L130.239 39.4205C130.239 39.4205 127.743 37.4771 120.428 37.4771C110.217 37.4771 103.125 43.3591 103.125 51.6436C103.125 56.3278 106.416 59.9281 110.841 62.4963C114.413 64.5537 115.66 65.9827 115.66 68.1505C115.66 70.3183 113.902 72.1513 110.556 72.1513C105.62 72.1513 100.969 69.5796 100.969 69.5796L98.0759 77.9194C98.0759 77.9194 102.388 80.8327 109.593 80.8327C120.086 80.8327 127.63 75.6342 127.63 66.2658C127.689 61.1846 123.887 57.5843 119.294 54.9574Z" fill="var(--fill-0, white)"/>
</g>
<defs>
<clipPath id="clip0_0_4">
<rect width="345" height="99" fill="white"/>
</clipPath>
</defs>
</svg>
