<?xml version="1.0" encoding="utf-8"?>
<!-- Generator: Adobe Illustrator 29.8.1, SVG Export Plug-In . SVG Version: 9.03 Build 0)  -->
<svg version="1.0" xmlns="http://www.w3.org/2000/svg" xmlns:xlink="http://www.w3.org/1999/xlink" x="0px" y="0px"
	 width="1000" height="197.61" viewBox="0 0 1000 197.61" style="enable-background:new 0 0 1000 197.61;" xml:space="preserve">
<style type="text/css">
	.st0{fill:#D0673A;}
	.st1{clip-path:url(#SVGID_00000114032976599152393720000011567356876080895367_);fill:#FFFFFF;}
	.st2{clip-path:url(#SVGID_00000114032976599152393720000011567356876080895367_);fill:#D56738;}
	.st3{clip-path:url(#SVGID_00000084509430736368185060000007430646361267325571_);fill:#212835;}
	.st4{clip-path:url(#SVGID_00000084509430736368185060000007430646361267325571_);fill:#D56738;}
	.st5{fill:#212835;}
	.st6{clip-path:url(#SVGID_00000079458116980953583420000018194811881950405044_);fill:#212835;}
	.st7{fill:#D56738;}
	.st8{clip-path:url(#SVGID_00000097459917662883932420000012107636909702243499_);fill:#FFFFFF;}
	.st9{fill:none;stroke:#D56738;stroke-width:5;stroke-linecap:round;stroke-linejoin:round;stroke-miterlimit:10;}
</style>
<g id="BG">
</g>
<g id="Object">
	<g>
		<defs>
			<rect id="SVGID_1_" width="1000" height="197.61"/>
		</defs>
		<clipPath id="SVGID_00000043451502964244003420000000675114129250991518_">
			<use xlink:href="#SVGID_1_"  style="overflow:visible;"/>
		</clipPath>
		<path style="clip-path:url(#SVGID_00000043451502964244003420000000675114129250991518_);fill:#FFFFFF;" d="M973.81,152.45
			c5.44-1.83,10.1-4.35,13.99-7.53c3.89-3.18,6.89-6.82,9.01-10.92c2.12-4.1,3.18-8.41,3.18-12.93c0-7.63-2.58-14.24-7.74-19.83
			c-5.16-5.58-13.04-9.65-23.64-12.19l-15.9-3.82c-4.24-1.13-7.6-2.4-10.07-3.82c-2.48-1.41-3.71-3.32-3.71-5.72
			c0-2.54,1.48-4.63,4.45-6.25c2.97-1.62,6.43-2.44,10.39-2.44c3.82,0,7.63,0.92,11.45,2.76c3.82,1.84,6.71,4.81,8.69,8.91
			l23.96-9.75c-3.68-8.48-9.4-14.66-17.17-18.55c-7.78-3.89-16.61-5.83-26.5-5.83c-5.94,0-11.49,0.74-16.64,2.23
			c-5.16,1.48-9.65,3.6-13.46,6.36c-3.82,2.76-6.82,6.12-9.01,10.07c-2.19,3.96-3.29,8.48-3.29,13.57c0,4.53,0.92,8.48,2.76,11.87
			c1.84,3.39,4.17,6.29,7,8.69c2.83,2.41,5.97,4.38,9.44,5.94c3.46,1.56,6.82,2.69,10.07,3.39l14.63,3.18
			c6.08,1.42,10.35,3,12.83,4.77c2.47,1.77,3.71,4.06,3.71,6.89c0,2.54-1.48,4.74-4.45,6.57c-2.97,1.84-7,2.76-12.09,2.76
			c-4.95,0-9.43-1.31-13.46-3.92c-4.03-2.61-7.25-6.6-9.65-11.98l-24.81,10.6c1.41,3.68,3.46,7.32,6.15,10.92
			c2.68,3.6,5.97,6.79,9.86,9.54c3.89,2.76,8.48,4.98,13.78,6.68c5.3,1.7,11.34,2.54,18.13,2.54
			C962.33,155.2,968.37,154.28,973.81,152.45 M808.05,151.81h27.78v-33.5l12.3-12.09l28.41,45.59h32.86v-1.7l-41.77-62.97
			l38.59-37.53v-1.7h-34.35L837.1,82.69h-1.27V0h-27.78V151.81z M725.53,151.81h27.78v-51.15c0-4.26,0.6-8.2,1.8-11.83
			c1.2-3.62,2.89-6.78,5.09-9.49c2.19-2.7,4.84-4.8,7.95-6.29c3.11-1.49,6.57-2.24,10.39-2.24c2.97,0,5.48,0.25,7.53,0.74
			c2.05,0.5,3.92,1.16,5.62,2.01l7.42-24.81c-1.84-1.26-4.06-2.28-6.68-3.06c-2.62-0.79-5.76-1.18-9.44-1.18
			c-2.97,0-5.97,0.49-9.01,1.45c-3.04,0.97-5.87,2.24-8.48,3.82c-2.62,1.58-4.98,3.42-7.1,5.54c-2.12,2.12-3.82,4.45-5.09,7h-1.7
			V47.92h-26.08V151.81z M645.98,127.53c-3.25-1.34-6.15-3.29-8.69-5.83s-4.56-5.65-6.04-9.33c-1.48-3.67-2.23-7.85-2.23-12.51
			s0.74-8.83,2.23-12.51c1.48-3.67,3.5-6.78,6.04-9.33s5.44-4.49,8.69-5.83c3.25-1.34,6.71-2.01,10.39-2.01
			c3.53,0,6.96,0.67,10.28,2.01c3.32,1.35,6.25,3.29,8.8,5.83s4.56,5.66,6.04,9.33c1.48,3.68,2.22,7.85,2.22,12.51
			s-0.74,8.84-2.22,12.51c-1.48,3.68-3.5,6.78-6.04,9.33s-5.48,4.49-8.8,5.83c-3.32,1.35-6.75,2.02-10.28,2.02
			C652.69,129.55,649.23,128.88,645.98,127.53 M634.21,48.66c-6.72,2.76-12.51,6.57-17.39,11.45c-4.88,4.88-8.69,10.71-11.45,17.49
			c-2.76,6.78-4.14,14.21-4.14,22.26s1.38,15.48,4.14,22.26c2.76,6.78,6.57,12.61,11.45,17.49s10.67,8.69,17.39,11.45
			c6.71,2.75,14.1,4.13,22.16,4.13s15.44-1.38,22.16-4.13c6.71-2.76,12.51-6.58,17.39-11.45c4.88-4.88,8.69-10.71,11.45-17.49
			c2.76-6.78,4.13-14.21,4.13-22.26s-1.38-15.48-4.13-22.26c-2.76-6.78-6.57-12.61-11.45-17.49c-4.88-4.88-10.68-8.69-17.39-11.45
			c-6.72-2.75-14.1-4.13-22.16-4.13S640.92,45.91,634.21,48.66 M449.3,151.81h27.56l23.75-73.15l4.45-16.75h1.7l4.45,16.75
			l23.75,73.15h27.56L602.81,0h-30.32l-22.05,88.63l-3.18,16.11h-1.7l-4.24-16.11l-22.05-68.27h-26.72l-21.84,68.27l-4.45,16.33
			h-1.7l-3.39-16.33L437.64,0h-30.32L449.3,151.81z"/>
		<path style="clip-path:url(#SVGID_00000043451502964244003420000000675114129250991518_);fill:#D56738;" d="M332.65,86.51
			c1.83-6.07,5.01-10.81,9.54-14.21c4.52-3.39,9.75-5.09,15.69-5.09c4.24,0,7.88,0.64,10.92,1.91c3.04,1.27,5.58,2.9,7.63,4.88
			c2.05,1.98,3.6,4.1,4.66,6.36c1.06,2.26,1.66,4.31,1.8,6.15H332.65z M385.02,115.34c-2.41,4.38-5.69,8.02-9.86,10.92
			c-4.17,2.9-9.43,4.35-15.79,4.35c-3.25,0-6.43-0.46-9.54-1.38c-3.11-0.92-5.98-2.4-8.59-4.45c-2.62-2.05-4.81-4.59-6.57-7.63
			c-1.77-3.04-2.94-6.68-3.5-10.92h78.24c0-0.85,0.07-1.62,0.21-2.33c0-0.71,0.07-1.48,0.21-2.33v-2.54
			c0-7.77-1.13-14.98-3.39-21.63c-2.26-6.64-5.59-12.4-9.97-17.28c-4.38-4.88-9.83-8.69-16.33-11.45
			c-6.5-2.75-13.92-4.13-22.26-4.13c-7.92,0-15.16,1.48-21.73,4.45c-6.57,2.97-12.26,6.96-17.07,11.98
			c-4.81,5.02-8.56,10.89-11.24,17.6c-2.69,6.71-4.03,13.82-4.03,21.31c0,8.06,1.38,15.44,4.13,22.16
			c2.76,6.71,6.61,12.55,11.56,17.49c4.95,4.95,10.78,8.8,17.49,11.56c6.71,2.75,14.03,4.13,21.95,4.13
			c11.73,0,21.66-2.62,29.79-7.85c8.13-5.23,14.59-12.09,19.4-20.57L385.02,115.34z M213.19,197.61h29.9l65.09-149.69h-30.96
			l-25.23,62.97h-1.48l-26.29-62.97h-31.59l43.68,98.8L213.19,197.61z M41.98,151.81h27.56l23.75-73.15l4.45-16.75h1.7l4.45,16.75
			l23.75,73.15h27.56L195.49,0h-30.32l-22.05,88.63l-3.18,16.11h-1.7L134,88.63l-22.05-68.27H85.23L63.4,88.63l-4.45,16.33h-1.7
			l-3.39-16.33L30.32,0H0L41.98,151.81z"/>
	</g>
</g>
</svg>
