<?xml version="1.0" encoding="UTF-8"?>
<svg id="LOGO" xmlns="http://www.w3.org/2000/svg" version="1.1" viewBox="0 0 990 380">
  <!-- Generator: Adobe Illustrator 29.0.0, SVG Export Plug-In . SVG Version: 2.1.0 Build 186)  -->
  <defs>
    <style>
      .st0 {
        fill: #fca326;
      }

      .st1 {
        fill: #fc6d26;
      }

      .st2 {
        fill: #e24329;
      }

      .st3 {
        fill: #171321;
      }
    </style>
  </defs>
  <g>
    <path class="st3" d="M428.9,171.5h22.8c-3.8-24.2-24.8-41.1-52.1-41.1s-56.5,23.7-56.5,63.5,23.1,63.3,57.2,63.3,52.4-19.6,52.4-51.5v-14.8h-50.1v17.5h28.4c-.4,17.6-12.1,28.7-30.7,28.7s-34.8-15.5-34.8-43.4,14.4-43.2,34.3-43.2,25,8,29,21h.1Z"/>
    <path class="st3" d="M467.8,255.5h21.8v-92.5h-21.8v92.5ZM478.7,148.3c6.9,0,12.6-5.3,12.6-11.8s-5.7-11.9-12.6-11.9-12.7,5.3-12.7,11.9,5.7,11.8,12.7,11.8Z"/>
    <path class="st3" d="M554.9,163h-18.3v-22.2h-21.8v22.2h-13.1v16.9h13.1v51.5c0,17.4,12.5,26,28.9,25.5,6.2-.2,10.5-1.4,12.8-2.2l-3.7-17.1c-1.2.3-3.7.8-6.4.8-5.5,0-9.9-1.9-9.9-10.7v-47.8h18.3v-16.9h.1Z"/>
    <path class="st3" d="M571.8,255.5h76.7v-18.7h-54.3v-104.7h-22.4v123.4Z"/>
    <path class="st3" d="M690.3,257.4c14.5,0,23.2-6.8,27.2-14.6h.7v12.7h21v-61.9c0-24.5-19.9-31.8-37.6-31.8s-34.4,8.7-39.2,25.5l20.4,2.9c2.2-6.3,8.3-11.7,19-11.7s15.7,5.2,15.7,14.3v.4c0,6.3-6.6,6.6-22.9,8.3-18,1.9-35.1,7.3-35.1,28.1s13.3,27.8,31,27.8h-.2ZM697.4,241.3c-9.1,0-15.6-4.2-15.6-12.2s7.3-11.9,17.1-13.3c5.7-.8,17.2-2.2,20-4.5v10.9c0,10.3-8.3,19-21.5,19h0Z"/>
    <path class="st3" d="M755.2,255.5h21.4v-14.6h1.3c3.4,6.7,10.6,16.2,26.5,16.2s38.1-17.3,38.1-47.8-16.8-47.6-38.2-47.6-23.1,9.8-26.5,16.5h-.9v-46.2h-21.8v123.4h.1ZM776.6,209.2c0-18,7.7-29.6,21.8-29.6s22,12.4,22,29.6-7.6,30-22,30-21.8-12.1-21.8-30Z"/>
  </g>
  <g>
    <path class="st2" d="M302,174.4l-.2-.6-21.2-55.3c-.4-1.1-1.2-2-2.2-2.6s-2.1-.9-3.3-.9-2.3.5-3.2,1.2c-.9.7-1.6,1.7-1.9,2.9l-14.3,43.8h-57.9l-14.3-43.8c-.3-1.1-1-2.1-1.9-2.9-.9-.7-2-1.2-3.2-1.2s-2.3.2-3.3.9c-1,.6-1.8,1.5-2.2,2.6l-21.2,55.3-.2.6c-6.3,16.4-.9,34.9,13.1,45.5h.2c0,.1,32.3,24.3,32.3,24.3l16,12.1,9.7,7.3c2.3,1.8,5.6,1.8,7.9,0l9.7-7.3,16-12.1,32.5-24.3h0c14-10.6,19.3-29.1,13-45.5h.1Z"/>
    <path class="st1" d="M302,174.4l-.2-.6c-10.5,2.2-20.2,6.6-28.5,12.8-.1,0-25.2,19.1-46.6,35.2,15.8,12,29.6,22.4,29.6,22.4l32.5-24.3h0c14-10.6,19.3-29.1,13-45.5h.2Z"/>
    <path class="st0" d="M197,244.2l16,12.1,9.7,7.3c2.3,1.8,5.6,1.8,7.9,0l9.7-7.3,16-12.1s-13.8-10.4-29.6-22.4c-15.9,12-29.7,22.4-29.7,22.4h0Z"/>
    <path class="st1" d="M180.1,186.6c-8.3-6.2-18-10.7-28.5-12.8l-.2.6c-6.3,16.4-.9,34.9,13.1,45.5h.2c0,.1,32.3,24.3,32.3,24.3,0,0,13.8-10.4,29.7-22.4-21.3-16.1-46.4-35.1-46.6-35.2h0Z"/>
  </g>
</svg>