<svg width="357" height="67" viewBox="0 0 357 67" fill="none" xmlns="http://www.w3.org/2000/svg">
<path d="M32.3432 17.1745C26.7271 17.1745 23.3728 21.4682 19.2732 22.1319C19.2732 21.943 19.3702 21.6571 19.3702 21.3712C19.3702 12.2119 0 20.0335 0 25.6649C0 29.2897 3.62488 30.3415 3.62488 34.4412C3.62488 40.0572 0.668817 39.6896 0.668817 43.4115C0.668817 47.6082 3.91079 49.0275 10.0169 49.0275C16.1231 49.0275 19.3702 47.598 19.3702 43.4115C19.3702 39.3271 16.409 38.8165 16.409 32.4398C16.409 30.5304 16.9808 27.0025 18.8902 27.0025C21.8463 27.0025 25.7622 32.8176 29.9589 32.8176C33.2979 32.8176 36.6369 30.0505 37.5916 25.1594C38.3523 21.2742 36.2488 17.1745 32.3432 17.1745Z" fill="#FF5A26"/>
<path d="M79.5687 36.5398V22.7091C79.5687 19.6458 77.6591 17.1748 73.1766 17.1748C70.9813 17.1748 63.0627 17.9355 63.0627 21.5604C63.0627 23.4698 64.2114 24.2357 65.2581 25.3793C68.8829 31.5824 65.447 44.2695 60.2036 44.2695C57.6509 44.2695 56.6707 40.6446 56.6707 36.5398V22.7091C56.6707 19.6458 54.7612 17.1748 50.1816 17.1748C47.9914 17.1748 40.0728 17.9355 40.0728 21.5604C40.0728 24.8994 43.7896 24.8075 43.7896 29.2186V37.0198C43.7896 44.3665 48.4662 49.038 56.8647 49.038C61.5362 49.038 64.6862 47.2256 67.2645 44.0755C68.4081 47.2256 71.2672 49.038 74.7032 49.038C78.3281 49.038 83.1017 46.4853 83.1017 42.9115C83.1017 39.9758 79.5687 39.7818 79.5687 36.5398Z" fill="#FF5A26"/>
<path d="M113.913 17.1748C109.837 17.1161 105.852 18.3887 102.564 20.7997V19.942C102.564 13.4529 105.423 10.9716 105.423 5.72323C105.423 1.53164 102.181 0 96.1716 0C90.0451 0 86.8184 1.53164 86.8184 5.72323C86.8184 10.9716 89.6826 13.4529 89.6826 19.942V29.1931C89.6826 35.6821 86.8184 38.1634 86.8184 43.4118C86.8184 47.6085 90.0655 49.0278 96.1716 49.0278C100.256 49.0278 103.039 48.359 104.468 46.6436C107.356 48.2446 110.611 49.0663 113.913 49.0278C123.649 49.0278 131.66 41.9669 131.66 33.0987C131.66 24.3276 123.649 17.1748 113.913 17.1748ZM109.257 43.5037C105.535 43.5037 102.579 38.8322 102.579 33.109C102.579 27.3857 105.52 22.7091 109.257 22.7091C112.994 22.7091 115.935 27.3806 115.935 33.109C115.935 38.8373 112.959 43.5037 109.257 43.5037Z" fill="#FF5A26"/>
<path d="M168.869 17.1748C165.244 17.1748 162.956 18.6043 161.43 22.0403C159.423 26.8088 162.191 28.7183 159.612 35.3145V35.4115C156.85 30.3571 156.37 26.3493 154.083 22.8163C151.602 19.1915 147.4 17.2003 141.391 17.2003C135.264 17.2003 130.133 19.6816 132.9 23.8783C136.433 29.1931 138.818 31.1995 143.586 37.7805C148.069 43.9836 152.934 51.1364 150.458 54.7664C148.263 58.1002 144.332 54.5724 141.391 52.7599C135.264 49.038 129.648 54.2916 130.23 59.249C130.899 64.3034 136.719 66.2128 141.973 66.2128C150.274 66.2128 154.665 59.5349 158.387 51.6163C159.623 49.0636 165.065 35.2788 165.065 35.2788C167.832 28.7948 171.835 26.6914 173.458 22.7806C174.689 19.942 172.493 17.1748 168.869 17.1748Z" fill="#FF5A26"/>
<path d="M342.015 32.961C340.484 33.8085 338.896 34.8143 337.359 35.7792C329.236 40.8847 326.531 41.722 324.79 39.547C322.533 36.739 324.279 29.0247 328.573 24.5267C332.024 20.9529 339.131 17.5935 339.131 17.5935C339.131 17.5935 329.895 17.328 327.899 17.5935C324.611 18.007 316.83 18.9567 308.718 26.2064C302.244 31.9756 297.041 36.3459 292.773 38.8527C290.455 40.2209 287.668 41.3697 286.866 40.5069C284.349 37.8469 287.218 29.862 291.293 24.9301C294.718 20.7793 301.156 17.18 301.156 17.18C301.156 17.18 292.191 16.9502 289.924 17.3944C288.214 17.7365 280.04 19.1915 265.301 31.899C257.612 38.5361 247.396 41.2523 241.188 41.1604C246.084 37.8265 252.006 33.8187 254.181 28.2078C255.422 25.0118 255.314 21.1469 252.404 18.7729C249.167 16.1436 242.301 16.7817 237.966 18.5687C233.223 20.524 228.266 24.1847 225.856 30.8677C224.784 33.88 224.375 37.0453 225.565 39.7972C220.73 41.8853 217.396 41.4003 216.212 40.4456C211.203 36.4123 212.893 24.5574 213.95 20.9427L214.205 20.0748L206.036 17.1085L184.17 34.9776L191.358 17.4148H182.117L169.129 49.3699H179.85L203.943 30.1223C203.943 35.8762 205.327 42.4367 210.58 46.6436C215.624 50.728 221.812 49.3751 227.193 47.9251C228.215 47.6443 230.451 46.6436 231.492 46.2556C241.729 52.2801 257.576 49.1504 270.906 38.1532C273.735 35.8251 277.334 31.9399 279.53 30.3623C277.845 35.1767 276.676 42.4163 280.551 46.5109C282.593 48.6654 285.309 49.3751 287.882 49.3751C296.051 49.3751 305.92 40.4252 314.553 32.7057C315.4 31.9597 316.301 31.2771 317.249 30.6635C315.15 35.3452 314.344 40.6804 318.01 45.0354C325.111 53.4696 335.307 47.4452 342.051 43.1872C343.547 42.2376 344.961 41.3493 346.279 40.6345C350.736 38.1634 356.944 38.5923 357 38.5923V30.3163C355.775 30.204 348.065 29.6118 342.015 32.961ZM233.728 32.8333C236.23 26.6506 240.845 24.8739 242.918 24.2561C245.736 23.4086 247.513 24.4348 246.941 26.2575C245.767 30.1734 240.263 33.9616 233.79 36.6777C233.218 35.6873 233.249 34.0178 233.728 32.8333Z" fill="#FF5A26"/>
</svg>
