<svg width="452" height="101" viewBox="0 0 452 101" fill="none" xmlns="http://www.w3.org/2000/svg">
<path d="M60.7774 1C96.1801 1 112.595 46.2394 114.487 74.7852C114.567 75.8637 114.329 76.9421 113.805 77.8877C105.551 92.0675 86.7166 99.9482 60.7774 99.9482C42.2767 100.192 24.5815 92.3921 12.2813 78.5703C10.9675 77.1111 10.5734 75.0425 11.2578 73.2021C14.5779 64.2659 23.6686 43.4784 35.0244 43.416C40.7956 43.416 45.1089 48.0076 48.584 51.6689C49.7363 52.9466 50.9697 54.1492 52.2764 55.2686C57.1526 49.0999 61.219 42.332 64.377 35.1309C65.6863 32.6436 68.7161 31.6201 71.2656 32.8037C73.8152 33.9875 74.9888 36.9629 73.9336 39.5684C61.5234 66.1574 54.8833 66.1592 52.7109 66.1592C47.8706 66.1592 44.3645 62.4354 40.9824 58.8672C39.4622 57.2538 36.2972 53.9037 35.0869 53.9033C32.3875 54.3687 26.5235 63.646 22.3037 73.8232C32.4712 84.0322 46.3722 89.6375 60.7774 89.3369C81.597 89.3369 97.1427 83.6591 103.845 73.8232C101.549 47.5425 86.9648 11.5186 60.7774 11.5186C38.5927 11.5187 21.8994 27.0331 11.1328 57.4404C10.0456 60.0076 7.14841 61.2857 4.51954 60.3574C1.89063 59.429 0.438022 56.6143 1.20411 53.9336C13.6152 18.8103 33.6594 1.00017 60.7774 1ZM435.18 40.0771C443.8 40.0773 450.535 46.4753 450.535 58.127V58.666C450.535 70.3175 443.935 76.8505 435.18 76.8506C429.724 76.8506 425.75 74.1566 423.932 70.7217V88.0986H414.166V40.8848H423.932V46.4082C425.885 43.0406 429.994 40.0771 435.18 40.0771ZM189.439 40.0771C198.06 40.0771 204.189 43.5789 204.189 53.1426V76.1094H194.693V71.8662C192.673 74.695 189.575 76.8506 184.052 76.8506C177.653 76.8506 172.266 73.7524 172.266 66.3438C172.266 58.1269 179.809 55.0283 190.585 55.0283H194.559V53.6143C194.559 49.4387 193.279 47.1486 188.834 47.1484C184.995 47.1484 183.244 49.102 182.84 52.1328H173.612C174.218 43.7813 180.819 40.0772 189.439 40.0771ZM222.776 40.0771C230.589 40.0772 236.449 42.9055 237.324 50.9873H228.366C227.827 48.0915 226.211 46.7442 222.844 46.7441C219.678 46.7441 217.859 48.2266 217.859 50.3818C217.86 52.6042 219.544 53.4799 224.662 54.2207C233.485 55.5004 238.334 57.7233 238.334 65.2666C238.334 72.8771 232.811 76.8506 223.517 76.8506C214.02 76.8505 208.498 72.6749 208.161 65.0645H217.253C217.657 68.2297 219.206 70.0478 223.449 70.0479C227.221 70.0479 228.973 68.6336 228.973 66.209C228.973 63.7844 226.884 62.7741 221.833 62.0332C212.471 60.6188 208.834 57.9245 208.834 51.0547C208.834 43.7136 215.57 40.0771 222.776 40.0771ZM258.77 40.0771C267.862 40.0771 275.944 45.3975 275.944 57.9922V60.6865H250.553C250.822 66.546 253.988 69.9131 259.309 69.9131C263.821 69.9131 266.043 67.9604 266.649 64.9971H275.877C274.732 72.6077 268.67 76.8506 259.039 76.8506C248.398 76.8506 240.653 70.183 240.652 58.9355V58.3965C240.652 47.2836 248.532 40.0772 258.77 40.0771ZM296.512 40.0771C304.661 40.0771 312.204 43.6464 313.08 53.749H303.854C303.18 49.6406 300.688 47.7549 296.714 47.7549C291.663 47.7551 288.295 51.5267 288.295 58.2617V58.8008C288.295 65.8724 291.461 69.5096 296.916 69.5098C300.822 69.5098 303.988 67.2195 304.46 62.707H313.282C312.743 71.0584 306.682 76.8504 296.445 76.8506C286.141 76.8506 278.327 70.4524 278.327 58.9355V58.3965C278.327 47.0143 286.477 40.0774 296.512 40.0771ZM332.59 40.0771C341.211 40.0771 347.34 43.5789 347.34 53.1426V76.1094H337.843V71.8662C335.822 74.6949 332.725 76.8505 327.202 76.8506C320.804 76.8506 315.415 73.7524 315.415 66.3438C315.415 58.127 322.958 55.0284 333.734 55.0283H337.709V53.6143C337.709 49.4385 336.429 47.1484 331.983 47.1484C328.145 47.1485 326.393 49.1021 325.989 52.1328H316.763C317.369 43.7812 323.969 40.0772 332.59 40.0771ZM151.813 27.9541C162.319 27.9541 167.775 32.2646 167.775 40.4814V40.75C167.775 45.8013 165.351 49.5065 159.963 51.0557C166.226 52.3354 169.594 55.9046 169.594 62.3701V62.6396C169.594 71.4627 163.801 76.1104 152.688 76.1104H132.888V27.9541H151.813ZM396.096 40.0771C402.629 40.0771 407.681 44.1851 407.681 53.5469V76.1094H397.982V54.625C397.982 50.1124 395.961 48.0918 392.459 48.0918C388.688 48.0919 385.656 50.5162 385.656 55.2979V76.1094H375.958V54.625C375.958 50.1125 373.87 48.0919 370.436 48.0918C366.664 48.0918 363.633 50.5161 363.633 55.2979V76.1094H353.867V40.8848H363.633V46.2734C365.384 42.9732 369.156 40.0771 374.409 40.0771C379.056 40.0772 382.558 42.0303 384.242 46.2061C387.071 41.963 391.651 40.0773 396.096 40.0771ZM190.787 60.8213C185.13 60.8213 181.829 62.0333 181.829 65.8047C181.829 68.364 183.379 70.0479 186.948 70.0479C191.258 70.0477 194.559 67.6904 194.559 63.7842V60.8213H190.787ZM333.937 60.8213C328.279 60.8213 324.98 62.0333 324.98 65.8047C324.98 68.364 326.528 70.0478 330.098 70.0479C334.408 70.0479 337.709 67.6906 337.709 63.7842V60.8213H333.937ZM432.216 47.5527C427.097 47.5528 423.595 51.1225 423.595 58.1943V58.7334C423.595 65.805 426.963 69.2402 432.283 69.2402C437.671 69.2402 440.635 65.6031 440.635 58.7334V58.1943C440.635 51.0551 437.132 47.5527 432.216 47.5527ZM143.528 68.5664H151.005C156.393 68.5664 158.817 66.1415 158.817 61.7637V61.4951C158.817 57.0499 156.393 54.7598 150.466 54.7598H143.528V68.5664ZM258.77 46.8115C254.392 46.8116 251.428 49.7085 250.688 54.6924H266.447C266.111 49.3716 263.417 46.8115 258.77 46.8115ZM143.528 47.7549H150.062C155.315 47.7549 157.403 45.8691 157.403 41.5586V41.2891C157.403 37.2481 155.113 35.4297 149.994 35.4297H143.528V47.7549Z" fill="#0B1215"/>
</svg>
