<svg width="190" height="70" viewBox="0 0 190 70" fill="none" xmlns="http://www.w3.org/2000/svg">
<g clip-path="url(#clip0_587_601)">
<path d="M67.655 21.4271L71.8667 15.4324L66.6132 20.2055C62.7119 15.9075 57.1259 13.1929 50.9193 13.1929C39.1267 13.1929 29.5508 22.9653 29.5508 35C29.5508 47.0572 39.1267 56.807 50.9193 56.807C62.734 56.807 72.2878 47.0346 72.2878 35C72.31 29.8649 70.5588 25.1596 67.655 21.4271ZM65.793 42.2162C65.793 46.6274 62.2907 50.179 57.9904 50.179H43.8703C39.5479 50.179 36.0677 46.6048 36.0677 42.2162V27.8063C36.0677 23.3951 39.57 19.8436 43.8703 19.8436H57.9904C60.3844 19.8436 62.5124 20.9294 63.931 22.6486L50.8528 34.5701L41.964 28.4171L48.3923 41.0399C48.4366 41.1077 48.481 41.1756 48.5475 41.2435C48.5696 41.2887 48.5918 41.3113 48.614 41.3566C48.6805 41.4471 48.7248 41.5376 48.8135 41.6054C48.88 41.6733 48.9465 41.7185 49.013 41.7864C49.8331 42.5329 50.9193 42.7817 51.9389 42.5329H51.9611C52.1384 42.4877 52.3158 42.4198 52.4931 42.3293C52.5153 42.3067 52.5374 42.3067 52.5818 42.2841C52.7369 42.2162 52.8699 42.1257 53.0251 42.0126C53.0694 41.99 53.1138 41.9447 53.1581 41.9221C53.2246 41.8769 53.3133 41.8316 53.3798 41.7638C53.4241 41.7185 53.4684 41.6507 53.5128 41.6054C53.5349 41.5828 53.5571 41.5602 53.5793 41.5376L53.6458 41.4471C53.7344 41.334 53.8231 41.2209 53.8896 41.1077L65.2389 24.8655C65.5935 25.7704 65.793 26.7657 65.793 27.8063V42.2162Z" fill="#0070E0"/>
<path d="M100.306 50.6541C90.5528 50.6541 84.0137 44.3427 84.0137 34.9774C84.0137 25.7479 90.708 19.3008 100.306 19.3008C106.646 19.3008 109.904 21.7665 110.746 22.513L108.796 27.6481C107.532 26.5849 104.473 24.7299 100.727 24.7299C94.7201 24.7299 90.6858 28.8018 90.6858 34.8643C90.6858 40.7912 94.8088 44.9535 100.727 44.9535C104.983 44.9535 107.732 43.2343 109.173 41.9675L111.278 46.8085C108.596 49.3195 104.895 50.6541 100.306 50.6541Z" fill="#0070E0"/>
<path d="M120.764 19.7305H114.27V50.1111H120.764V19.7305Z" fill="#0070E0"/>
<path d="M125.664 50.0885V28.666H132.159V50.1111H125.664V50.0885ZM128.923 25.1597C126.639 25.1597 125.154 23.8702 125.154 21.8569C125.154 19.8889 126.662 18.5542 128.923 18.5542C131.161 18.5542 132.691 19.8889 132.691 21.8569C132.669 23.8476 131.206 25.1597 128.923 25.1597Z" fill="#0070E0"/>
<path d="M147.807 50.6088C140.492 50.6088 135.572 46.1297 135.572 39.4564C135.572 32.7605 140.492 28.2588 147.807 28.2588C155.1 28.2588 159.999 32.7605 159.999 39.4564C159.977 46.1297 155.078 50.6088 147.807 50.6088ZM147.807 33.0545C144.438 33.0545 142.177 35.5655 142.177 39.3207C142.177 43.0758 144.438 45.5868 147.807 45.5868C151.177 45.5868 153.438 43.0758 153.438 39.3207C153.438 35.5655 151.177 33.0545 147.807 33.0545Z" fill="#0070E0"/>
</g>
<defs>
<clipPath id="clip0_587_601">
<rect width="131" height="44" fill="white" transform="translate(29 13)"/>
</clipPath>
</defs>
</svg>
