<svg width="190" height="70" viewBox="0 0 190 70" fill="none" xmlns="http://www.w3.org/2000/svg">
<path d="M164.793 20L160.953 23.8403H173.16V36.0446L177.001 32.2043V20H164.793Z" fill="#E61D47"/>
<path d="M57.2451 31.7969V31.4033H53.6726H53.4348V33.2619C52.1748 31.8652 50.4719 31.0151 48.359 31.0151C43.521 31.0151 40.3203 35.2737 40.3203 40.0433C40.3203 44.7446 43.3871 49.1043 48.359 49.1043C50.5074 49.1043 52.2158 48.2269 53.4348 46.811V48.6615H53.946H57.2506V31.7969H57.2451ZM48.8018 45.7314C45.9072 45.7314 44.27 43.0746 44.27 40.0433C44.27 36.8754 46.0412 34.3881 48.8018 34.3881C51.527 34.3881 53.6726 36.6376 53.6726 40.0105C53.6726 43.6213 51.3575 45.7314 48.8018 45.7314Z" fill="#141210"/>
<path d="M94.4131 31.7998V31.4062H90.8406H90.6028V33.2649C89.3427 31.8681 87.6399 31.0181 85.527 31.0181C80.689 31.0181 77.4883 35.2766 77.4883 40.0463C77.4883 44.7476 80.5551 49.1072 85.527 49.1072C87.6754 49.1072 89.3837 48.2298 90.6028 46.814V48.6644H91.1139H94.4185V31.7998H94.4131ZM85.9698 45.7343C83.0752 45.7343 81.4379 43.0775 81.4379 40.0463C81.4379 36.8783 83.2091 34.391 85.9698 34.391C88.6949 34.391 90.8406 36.6405 90.8406 40.0135C90.8433 43.6214 88.5255 45.7343 85.9698 45.7343Z" fill="#141210"/>
<path d="M165.614 31.7837V31.3901H162.042H161.804V33.2488C160.544 31.852 158.841 31.002 156.728 31.002C151.89 31.002 148.689 35.2605 148.689 40.0301C148.689 44.7315 151.756 49.0911 156.728 49.0911C158.877 49.0911 160.585 48.2137 161.804 46.7979V48.6483H162.315H165.62V31.7837H165.614ZM157.168 45.7182C154.274 45.7182 152.636 43.0614 152.636 40.0301C152.636 36.8622 154.408 34.3749 157.168 34.3749C159.893 34.3749 162.039 36.6244 162.039 39.9973C162.042 43.6053 159.724 45.7182 157.168 45.7182Z" fill="#141210"/>
<path d="M16.854 43.5669V40.3197C16.854 36.3345 18.5241 34.3583 20.5003 34.3583C22.3726 34.3583 23.1243 35.8917 23.1243 38.0373V43.5641H26.94V40.5575C26.94 36.3673 28.5745 34.3583 30.5862 34.3583C32.4613 34.3583 33.2102 35.8917 33.2102 38.0373V43.5641H37.026V37.5262C37.026 33.4727 34.8448 30.9854 31.4035 30.9854C29.2223 30.9854 27.35 31.9065 26.1582 33.9483C25.2726 32.0759 23.5698 30.9854 21.3203 30.9854C19.4835 30.9854 17.9364 31.6824 16.7911 33.1392V31.3735H13V43.5641H16.854V43.5669Z" fill="#141210"/>
<path d="M102.432 48.662V44.8135H98.6159V48.662H102.432Z" fill="#141210"/>
<path d="M113.387 48.661V44.8125H109.571V48.661H113.387Z" fill="#141210"/>
<path d="M141.625 48.6605V44.812H137.809V48.6605H141.625Z" fill="#141210"/>
<path d="M26.9336 48.6625V44.814H23.1179V48.6625H26.9336Z" fill="#141210"/>
<path d="M16.8477 48.661V44.8125H12.9991V48.661H16.8477Z" fill="#141210"/>
<path d="M37.0215 48.6625V44.814H33.2112V48.6625H37.0215Z" fill="#E61D47"/>
<path d="M72.0549 48.6453H77.4888L68.8569 40.0134L77.4888 31.3843H72.0549L63.4258 40.0134L72.0549 48.6453Z" fill="#141210"/>
<path d="M65.2845 27.3252H61.4688V48.667H65.2845V43.0446L65.2927 43.0364V37.9934L65.2845 38.0016V27.3252Z" fill="#141210"/>
<path d="M129.802 27.3062V33.2457C128.542 31.8489 126.839 30.9989 124.726 30.9989C119.787 30.9989 116.688 35.3585 116.688 40.0599C116.688 44.8295 119.855 49.0881 124.726 49.0881C126.976 49.0881 128.747 48.1341 129.974 46.6363L130.316 48.6453H133.62V27.3062H129.802ZM125.169 45.7151C122.343 45.7151 120.64 43.195 120.64 40.0599C120.64 36.9931 122.343 34.3718 125.169 34.3718C127.725 34.3718 130.043 36.4847 130.043 40.0599C130.04 43.4656 127.894 45.7151 125.169 45.7151Z" fill="#141210"/>
<path d="M141.651 43.5668V41.0357C141.651 37.1189 143.559 34.3937 147.033 34.3937V31.0181C144.477 31.0181 142.777 32.0977 141.651 33.7268V31.4062H137.811V43.564H141.651V43.5668Z" fill="#141210"/>
<path d="M102.452 43.567V40.727C102.452 36.7419 104.155 34.3912 106.916 34.3912C108.791 34.3912 109.572 35.9574 109.572 38.1031V43.5642H113.388V37.5947C113.388 33.5411 111.139 31.021 107.697 31.021C105.47 31.021 103.677 31.8273 102.452 33.4181V31.4638H101.908V31.4611L101.892 31.4638H98.6172V43.567H102.452Z" fill="#141210"/>
</svg>
