<svg width="95" height="70" viewBox="0 0 95 70" fill="none" xmlns="http://www.w3.org/2000/svg">
<path fill-rule="evenodd" clip-rule="evenodd" d="M11.6736 22C16.2474 22 18.0579 23.0131 18.3546 23.2248C18.4631 23.3025 18.4955 23.4175 18.4955 23.513L17.6151 27.2411C17.6151 27.445 17.4029 27.6734 17.1731 27.6033C16.4422 27.377 15.2941 26.9078 12.6283 26.9078C9.5489 26.9078 6.26874 27.8195 6.26874 34.7477C6.26874 41.6747 9.41877 42.4984 11.6736 42.4984C13.585 42.4984 14.2763 42.2627 14.2763 42.2627V37.4685H11.1974C10.9938 37.4685 10.8287 37.3027 10.8287 37.0993V33.2405C10.8287 33.0366 10.9938 32.8715 11.1974 32.8715H19.09C19.2937 32.8715 19.4587 33.0366 19.4587 33.2405V45.2756C19.4587 45.3447 19.447 45.4954 19.339 45.5551C19.339 45.5551 16.7199 47.4 12.4024 47.4C7.18794 47.4 1 45.7942 1 35.0179C1 24.2415 6.40486 22 11.6736 22ZM66.7879 30.5705C66.9906 30.5705 67.1548 30.7372 67.1548 30.9421V40.8858C67.1548 42.4426 67.5768 43.1641 69.1666 43.1641C70.7568 43.1641 71.8773 42.3446 71.8773 42.3446V30.9421C71.8773 30.7372 72.0421 30.5705 72.2442 30.5705H76.654C76.8574 30.5705 77.0219 30.7372 77.0219 30.9421L77.0235 46.5525C77.0235 46.7567 76.8579 46.9236 76.6561 46.9236L73.8088 46.9364C73.6664 46.9364 73.5347 46.8352 73.4844 46.7351C73.4338 46.6347 73.3222 45.7877 73.3222 45.7877C73.3222 45.7877 70.9769 47.3948 68.0678 47.3948C64.5222 47.3948 61.9448 46.2633 61.9448 41.6387V30.9421C61.9448 30.7372 62.1104 30.5705 62.3122 30.5705H66.7879ZM84.1322 22.9202C84.3345 22.9202 84.4988 23.0858 84.4988 23.291V31.1656C84.4988 31.1656 86.2024 30.048 88.707 30.048C91.2135 30.048 94.9231 30.9846 94.9231 38.1528C94.9231 45.3204 92.6005 47.3747 88.5503 47.3747C85.1006 47.3747 83.2784 45.6479 83.2784 45.6479C83.2784 45.6479 83.1676 46.5953 83.0907 46.7202C83.0127 46.8459 82.9073 46.9176 82.7681 46.9176H79.676C79.4728 46.9176 79.3083 46.7507 79.3083 46.5455V23.291C79.3083 23.0858 79.4728 22.9202 79.6754 22.9202H84.1322ZM36.3132 25.8794C36.5059 25.8794 36.592 25.9626 36.592 26.1295C36.592 26.1295 36.592 26.1505 36.592 26.1896L36.5929 26.9503C36.593 27.011 36.593 27.074 36.5931 27.139L36.5938 27.7679C36.5939 27.8415 36.594 27.9161 36.5941 27.9912L36.5948 28.6721C36.5949 28.7472 36.595 28.8217 36.5951 28.8954L36.5958 29.5242C36.5959 29.5892 36.5959 29.6522 36.596 29.7129L36.5969 30.5332H39.9305C40.1337 30.5332 40.2982 30.6986 40.2982 30.9038V34.4859C40.2982 34.6917 40.1337 34.8575 39.9305 34.8575H36.5967L36.5969 41.3956C36.5969 42.3811 37.1516 43.1425 38.7892 43.1425C39.3008 43.1425 39.7975 43.0635 39.9921 43.0635C40.1871 43.0635 40.3605 43.2296 40.3605 43.4348L40.3566 46.5807C40.3566 46.7288 40.28 46.8657 40.148 46.9142C39.9298 46.9948 38.6077 47.3497 37.5023 47.3497C35.0837 47.3497 31.4992 46.8477 31.4992 41.7375V34.8575H29.1701C28.967 34.8575 28.8027 34.6917 28.8027 34.4859V31.6261C28.8027 31.4574 28.9156 31.3161 29.0687 31.2717C29.138 31.2518 29.6371 31.1295 30.1652 31.001L30.5171 30.9155C31.0383 30.789 31.4992 30.6777 31.4992 30.6777V26.1269C31.4992 25.9571 31.5939 25.8794 31.7707 25.8794H36.3132ZM47.294 22.9202C47.4974 22.9202 47.6606 23.0858 47.6606 23.291V31.8793H54.5878L54.587 26.4274C54.587 26.333 54.587 26.2395 54.587 26.1469L54.5865 23.291C54.5865 23.0858 54.7516 22.9202 54.9545 22.9202H59.3984C59.6023 22.9202 59.765 23.0858 59.765 23.291V46.5455C59.7645 46.7507 59.6018 46.9176 59.3982 46.9176H54.9438C54.7404 46.9176 54.5756 46.7507 54.5756 46.5455L54.5759 46.2557C54.576 46.2185 54.576 46.178 54.5761 46.1344L54.5769 45.4715C54.577 45.4055 54.5771 45.3371 54.5772 45.2664L54.5777 44.8163C54.5778 44.7371 54.5779 44.6561 54.578 44.5732L54.579 43.7842C54.5793 43.5082 54.5797 43.2208 54.58 42.9266L54.5808 42.3304C54.5809 42.23 54.581 42.1291 54.5811 42.028L54.5819 41.4197C54.5823 41.1153 54.5826 40.8117 54.583 40.5135L54.5837 39.9254C54.5839 39.829 54.584 39.7336 54.5841 39.6392L54.5848 39.0877C54.5849 38.9984 54.585 38.9106 54.5851 38.8244L54.586 38.0962C54.5861 38.0212 54.5862 37.9482 54.5863 37.8775L54.587 37.3077C54.587 37.2522 54.5871 37.1995 54.5872 37.1498L54.5878 36.5989H47.6606V46.5455C47.6606 46.7507 47.4974 46.9176 47.294 46.9176H42.8503C42.6482 46.9176 42.4832 46.7507 42.4832 46.5455V23.291C42.4832 23.0858 42.6482 22.9202 42.8503 22.9202H47.294ZM26.7906 30.5353C26.9938 30.5353 27.1583 30.702 27.1583 30.9059V46.3204C27.1583 46.6991 27.0509 46.9142 26.6128 46.9142H22.6215C22.2572 46.9142 21.9756 46.7796 21.9756 46.3277V30.9489C21.9756 30.745 22.1574 30.5353 22.3605 30.5353H26.7906ZM89.798 38.4315C89.798 34.6432 88.2679 34.1636 86.6798 34.3057C85.424 34.4179 84.4005 35.0453 84.4005 35.0453V42.4095C84.4005 42.4095 85.4381 43.1036 86.9677 43.1501C89.1075 43.2147 89.798 42.4262 89.798 38.4315ZM24.6104 23.4493C26.1932 23.4493 27.4759 24.7425 27.4759 26.3428C27.4759 27.9413 26.1932 29.2378 24.6104 29.2378C23.0291 29.2378 21.7451 27.9413 21.7451 26.3428C21.7451 24.7425 23.0291 23.4493 24.6104 23.4493Z" fill="black"/>
</svg>
