<?xml version="1.0" encoding="UTF-8"?>
<svg id="Layer_1" data-name="Layer 1" xmlns="http://www.w3.org/2000/svg" width="9.89in" height="1.83in" viewBox="0 0 712 131.7">
  <defs>
    <style>
      .cls-1 {
        fill: #d91f28;
      }

      .cls-2 {
        fill: #1d1e21;
      }
    </style>
  </defs>
  <path class="cls-2" d="M0,1.58h22.08l9.05,78.45L42.41,1.74h17.63l11.75,77.97L80.85,1.58h21.76l-16.52,128.37h-22.4l-12.39-81.3-11.91,81.3h-22.71L0,1.58Z"/>
  <path class="cls-2" d="M128.99,79.08L103.9,1.58h24.62l13.82,45.17L155.04,1.58h23.98l-24.78,77.5v50.87h-25.26v-50.87Z"/>
  <path class="cls-2" d="M185.41,1.58h56.07v18.07h-30.02v34.07h23.19v18.23h-23.19v40.25h30.34v17.75h-56.39V1.58Z"/>
  <path class="cls-1" d="M245.94,1.58h22.08l9.05,78.45L288.35,1.74h17.63l11.75,77.97L326.79,1.58h21.76l-16.52,128.37h-22.4l-12.39-81.3-11.91,81.3h-22.71L245.94,1.58Z"/>
  <path class="cls-1" d="M393.69,131.7c-13.66,0-23.4-3.54-29.23-10.62-5.82-7.19-8.74-17.7-8.74-31.54v-47.86c0-13.84,2.91-24.25,8.74-31.22,5.82-6.97,15.57-10.46,29.23-10.46s23.24,3.54,29.07,10.62c5.93,6.97,8.89,17.33,8.89,31.06v48.02c0,13.73-2.97,24.19-8.89,31.38-5.82,7.08-15.51,10.62-29.07,10.62ZM393.69,113c4.45,0,7.41-1.48,8.89-4.44,1.59-3.06,2.38-7.24,2.38-12.52v-60.7c0-5.28-.79-9.35-2.38-12.2-1.48-2.96-4.45-4.44-8.89-4.44s-7.47,1.48-9.05,4.44c-1.48,2.85-2.22,6.92-2.22,12.2v60.7c0,5.39.74,9.56,2.22,12.52,1.48,2.96,4.5,4.44,9.05,4.44Z"/>
  <path class="cls-1" d="M444.39,1.58h33.36c13.87,0,24.3,2.54,31.29,7.61,6.99,5.07,10.48,13.84,10.48,26.31,0,8.35-1.16,15.11-3.49,20.29-2.33,5.07-6.46,8.93-12.39,11.57l17.79,62.6h-26.84l-14.61-58.16h-9.53v58.16h-26.05V1.58ZM478.22,56.26c6.14,0,10.43-1.48,12.87-4.44,2.54-3.06,3.81-7.82,3.81-14.26s-1.11-10.99-3.34-13.95c-2.22-2.96-6.25-4.44-12.07-4.44h-9.05v37.09h7.78Z"/>
  <path class="cls-1" d="M532.23,1.58h26.05v54.2l23.35-54.2h25.42l-24.14,57.69,26.05,70.68h-26.53l-19.85-57.37-4.29,6.97v50.4h-26.05V1.58Z"/>
  <path class="cls-1" d="M646.28,131.7c-11.86,0-20.75-3.22-26.68-9.67-5.93-6.55-9.16-16.64-9.69-30.27l22.56-3.8c.21,8.14,1.32,14.16,3.34,18.07,2.11,3.8,5.24,5.71,9.37,5.71,3.07,0,5.3-.95,6.67-2.85,1.37-2.01,2.06-4.54,2.06-7.61,0-5.07-1.17-9.35-3.49-12.84-2.23-3.59-5.77-7.5-10.65-11.73l-13.34-11.57c-5.3-4.44-9.37-9.19-12.23-14.26-2.75-5.07-4.13-11.15-4.13-18.23,0-10.46,3.07-18.49,9.21-24.09,6.25-5.71,14.82-8.56,25.73-8.56,11.65,0,19.75,3.38,24.3,10.14,4.55,6.66,7.15,15.16,7.78,25.52l-22.72,3.33c-.21-6.76-1-11.73-2.38-14.9-1.27-3.28-3.87-4.91-7.78-4.91-2.86,0-5.08,1.11-6.67,3.33-1.59,2.11-2.39,4.65-2.39,7.61,0,4.23.9,7.82,2.7,10.78,1.9,2.85,4.87,6.02,8.89,9.51l13.02,11.41c6.15,5.39,10.96,11.09,14.46,17.12,3.49,5.92,5.24,12.89,5.24,20.92,0,6.13-1.37,11.62-4.13,16.48-2.75,4.75-6.68,8.51-11.75,11.25-4.98,2.75-10.75,4.12-17.32,4.12Z"/>
  <ellipse class="cls-2" cx="699.56" cy="116.81" rx="12.44" ry="12.42"/>
</svg>