<svg width="190" height="70" viewBox="0 0 190 70" fill="none" xmlns="http://www.w3.org/2000/svg">
<mask id="mask0_587_599" style="mask-type:luminance" maskUnits="userSpaceOnUse" x="18" y="21" width="153" height="37">
<path d="M171 21H18V57.1935H171V21Z" fill="white"/>
</mask>
<g mask="url(#mask0_587_599)">
<path d="M18.1426 48.8407H29.3889C31.4898 48.8407 33.2418 48.1119 34.6469 46.6527C36.0617 45.2559 36.7823 43.3591 36.8069 40.9604C36.8069 39.516 36.4598 38.1768 35.7639 36.9462C35.0186 35.7535 33.9196 34.9605 32.467 34.5673V34.49C33.1684 34.1542 33.8215 33.7253 34.4082 33.2149C34.9331 32.7708 35.3362 32.302 35.6175 31.8067C36.158 30.8017 36.4289 29.6738 36.4039 28.5329C36.4039 26.3004 35.7392 24.5055 34.4082 23.1482C33.0889 21.8025 31.118 21.1181 28.4923 21.0918H18.1426V48.8407ZM28.4182 36.5267C29.9202 36.553 31.0193 36.9643 31.7152 37.7638C32.4111 38.5766 32.7598 39.5538 32.7598 40.6955C32.7598 41.8109 32.4111 42.7766 31.7152 43.5877C31.0193 44.4136 29.9202 44.838 28.4182 44.8627H22.1913V36.5267H28.4182ZM28.0333 24.8411C29.5106 24.8674 30.5981 25.2409 31.294 25.9648C32.0014 26.738 32.3568 27.684 32.3568 28.7994C32.3568 29.9181 32.0031 30.8426 31.294 31.5797C30.5981 32.3776 29.5106 32.7774 28.0333 32.7774H22.1913V24.8411H28.0333ZM40.7998 48.8407H44.6297V29.0856H40.7998V48.8407ZM40.7998 25.0698H44.6297V21.0918H40.7998V25.0698ZM60.4002 46.7662V48.8029C60.3755 50.1486 59.9725 51.2015 59.191 51.9616C58.3963 52.7101 57.3467 53.0852 56.0405 53.0852C55.3305 53.0559 54.6386 52.8531 54.0251 52.4946C53.4089 52.1778 52.8415 51.7739 52.3405 51.2953L49.3726 53.7515C51.1922 55.9067 53.3901 57.0122 55.9665 57.0632C58.2137 57.0632 60.1436 56.346 61.7558 54.9113C63.3548 53.5163 64.1791 51.3348 64.2285 48.3637V29.0873H60.4002V31.1816C59.0198 29.6187 57.3829 28.8405 55.491 28.8405C54.2571 28.8652 53.2322 29.112 52.4145 29.5808C51.5591 30.0777 50.906 30.6337 50.4536 31.2572C49.9534 31.8906 49.5931 32.672 49.3726 33.5983C49.1424 34.536 49.0255 36.3326 49.0255 38.9846C49.0255 41.5839 49.1407 43.3491 49.3726 44.2754C49.5931 45.2131 49.9534 46.0061 50.4536 46.6543C50.906 47.2252 51.5591 47.7566 52.4129 48.2517C53.2322 48.7733 54.2571 49.0464 55.4893 49.0711C57.5063 49.0217 59.1416 48.2517 60.4002 46.7678V46.7662ZM52.8538 38.9829C52.8538 37.4463 52.9031 36.3819 53.0002 35.7847C53.0858 35.1892 53.2865 34.7071 53.604 34.3369C53.8606 33.9832 54.2505 33.6345 54.777 33.2923C55.2772 32.9995 55.9007 32.8415 56.6443 32.8152C57.3895 32.8415 58.013 32.9995 58.5131 33.2923C59.0133 33.6345 59.3916 33.9832 59.6483 34.3387C59.9659 34.7071 60.1798 35.1892 60.29 35.7864C60.364 36.3819 60.4002 37.448 60.4002 38.9829C60.4002 40.4916 60.364 41.5329 60.29 42.1038C60.2042 42.6444 59.9835 43.1549 59.6483 43.5877C59.3916 43.9431 59.0133 44.2672 58.5131 44.5584C58.013 44.9137 57.3895 45.0914 56.6443 45.0914C55.899 45.0914 55.2772 44.9137 54.777 44.5584C54.2505 44.2672 53.8606 43.9431 53.604 43.5877C53.2865 43.1945 53.0858 42.6994 53.0002 42.1038C52.9015 41.5329 52.8522 40.4916 52.8522 38.9829H52.8538ZM69.5407 48.8407H80.787C82.8862 48.8407 84.64 48.1119 86.0433 46.6527C87.4598 45.2559 88.182 43.3591 88.205 40.9604C88.205 39.516 87.8562 38.1768 87.1603 36.9462C86.4167 35.7535 85.3178 34.9605 83.8634 34.5673V34.49C84.6334 34.1116 85.28 33.6838 85.8048 33.2149C86.3312 32.7708 86.7326 32.302 87.0139 31.8067C87.555 30.8018 87.8265 29.6739 87.8019 28.5329C87.8019 26.3004 87.1357 24.5055 85.8048 23.1482C84.487 21.8025 82.5144 21.1181 79.8888 21.0918H69.5407V48.8407ZM79.8164 36.5267C81.3184 36.553 82.4157 36.9643 83.1132 37.7638C83.8092 38.5766 84.1563 39.5538 84.1563 40.6955C84.1563 41.8109 83.8092 42.7766 83.1132 43.5877C82.4157 44.4136 81.3184 44.838 79.8147 44.8627H73.5877V36.5267H79.8164ZM79.4314 24.8411C80.9087 24.8674 81.9945 25.2409 82.6921 25.9648C83.3995 26.738 83.7532 27.684 83.7532 28.7994C83.7532 29.9181 83.3995 30.8426 82.6921 31.5797C81.9945 32.3776 80.9087 32.7774 79.4314 32.7774H73.5877V24.8411H79.4314ZM92.1978 48.8407H96.0261V29.0856H92.1978V48.8407ZM92.1978 25.0698H96.0261V21.0918H92.1978V25.0698ZM101.1 48.8424H104.928V37.0795C104.928 35.6975 105.288 34.643 106.009 33.9207C106.716 33.1837 107.621 32.8152 108.72 32.8152C109.82 32.8152 110.715 33.1837 111.412 33.9191C112.121 34.643 112.474 35.6959 112.474 37.0778V48.8407H116.303V35.709C116.242 33.4502 115.564 31.7376 114.27 30.5696C112.963 29.4163 111.522 28.8389 109.947 28.8389C107.907 28.8389 106.259 29.6187 105.002 31.18H104.928V29.0856H101.1V48.8407V48.8424ZM131.231 48.8424H135.059V35.3455C135.035 32.9353 134.309 31.2343 132.879 30.2454C131.452 29.2814 129.54 28.8109 127.146 28.8372C124.313 28.7862 122.171 29.7503 120.717 31.7294L123.721 34.1083C124.05 33.5374 124.502 33.1311 125.076 32.8909C125.626 32.6869 126.376 32.5865 127.33 32.5865C129.956 32.5355 131.255 33.3795 131.231 35.1168V37.1913H125.94C123.911 37.2177 122.373 37.7885 121.324 38.9039C120.272 39.9963 119.747 41.3717 119.747 43.0333C119.747 44.7723 120.353 46.2003 121.561 47.3173C122.709 48.459 124.346 49.0431 126.469 49.0677C127.764 49.0677 128.778 48.9032 129.512 48.5742C130.22 48.2899 130.804 47.7634 131.16 47.0886H131.233V48.8391L131.231 48.8424ZM131.231 41.8949C131.231 43.3788 130.933 44.3297 130.334 44.7492C129.674 45.167 128.544 45.3645 126.945 45.3381C125.675 45.3381 124.766 45.0783 124.215 44.5584C123.642 44.0895 123.356 43.5186 123.356 42.8474C123.331 41.3108 124.43 40.5179 126.652 40.4669H131.231V41.8949ZM140.005 48.8407H143.832V36.9462C143.858 35.4985 144.26 34.4521 145.042 33.8056C145.374 33.4836 145.767 33.2303 146.198 33.0604C146.628 32.8904 147.088 32.8071 147.551 32.8152C148.42 32.8152 149.255 33.1443 150.061 33.8056L152.845 30.3606C151.71 29.3719 150.377 28.8635 148.852 28.8389C146.812 28.8389 145.163 29.6187 143.907 31.18H143.832V29.0856H140.006L140.005 48.8407ZM160.582 48.0609L159.539 51.3726C159.368 51.9435 159.069 52.3745 158.641 52.6657C158.213 52.9454 157.749 53.0852 157.249 53.0852H156.13V56.8346H157.396C158.58 56.8346 159.643 56.5615 160.582 56.0152C161.51 55.4444 162.237 54.4178 162.762 52.9323L170.951 29.0856H166.885L162.397 42.9214H162.325L157.817 29.0856H153.769L160.584 48.0609H160.582Z" fill="#4F46E5"/>
</g>
</svg>
