<svg width="133" height="70" viewBox="0 0 133 70" fill="none" xmlns="http://www.w3.org/2000/svg">
<g clip-path="url(#clip0_590_621)">
<path d="M123.187 30.7176C123.187 30.7176 124.202 40.4484 124.291 41.702H124.351C124.653 40.7679 125.046 39.6469 125.47 38.4832L125.667 37.9435C125.734 37.763 125.8 37.582 125.868 37.401L126.069 36.8587C127.249 33.702 128.44 30.7176 128.44 30.7176H133.186L127.664 42.5677C125.724 46.6271 123.814 49.5822 121.754 51.5224C120.142 53.0148 118.262 53.7611 117.337 53.97L116.083 50.1493C116.829 49.8807 117.784 49.4926 118.62 48.8658C119.665 48.1494 120.53 47.1644 121.068 46.1496C121.187 45.9406 121.217 45.7317 121.157 45.4033L118.441 30.7176H123.187ZM93.726 30.3594C97.0392 30.3594 98.3824 33.0757 98.3824 36.0904C98.3824 41.5827 94.9199 47.0152 89.6068 47.0152C87.8756 47.0152 86.9502 46.4182 86.9502 46.4182H86.8607L85.607 53.1044H81.0998L84.234 36.6277C84.5922 34.7472 84.9503 32.2698 85.1593 30.6281H89.1591L88.8904 33.0458H88.9501C88.9501 33.0458 90.6814 30.3594 93.726 30.3594ZM14.5663 16.002C15.4916 15.9722 16.2677 16.2707 16.8647 16.9274C16.8946 16.9871 16.9543 17.0169 16.9841 17.0766C17.1035 17.0467 17.193 17.0467 17.2826 17.0467C18.6556 17.0467 19.8198 17.8527 20.5958 19.3451C20.8346 19.8227 21.0137 20.2704 21.1331 20.6585C21.8196 20.4495 22.2375 20.3301 22.2375 20.3301C22.2972 20.3301 22.3868 20.3003 22.5659 20.3003V52.985L0 49.0748C0 49.0748 0.636616 44.2033 1.3068 39.0681L1.4101 38.2766C2.09937 32.9944 2.79144 27.6833 2.83566 27.3148C2.95506 26.3298 2.98491 26.2999 4.02962 25.9716C4.05947 25.9418 5.49222 25.494 7.55181 24.8672C7.76075 23.2852 8.53682 21.2555 9.55169 19.6436C10.9844 17.3452 12.7754 16.0617 14.5663 16.002ZM23.2524 20.6585C23.8494 21.2555 25.4612 22.8076 25.4612 22.8076C25.4612 22.8076 26.0039 22.8199 26.61 22.8334L26.9774 22.8415C27.5896 22.855 28.1693 22.8673 28.2372 22.8673C28.3864 22.8673 28.5357 22.9867 28.5655 23.1658C28.5797 23.2506 29.4913 29.41 30.4469 35.8701L30.5745 36.7327C31.5963 43.6398 32.625 50.5971 32.625 50.5971L23.2524 52.9253V20.6585ZM76.0553 30.3594C80.2939 30.3594 82.1744 33.4339 82.1445 36.6874C82.1445 42.2692 78.5627 47.045 73.2197 47.045C69.1602 47.045 67.0111 44.2094 67.0111 40.717C67.0111 35.2547 70.6228 30.3594 76.0553 30.3594ZM46.4152 30.4191C49.2509 30.4191 50.2061 31.1653 50.2061 31.1653L49.1614 34.3592C49.1614 34.3592 47.848 33.7324 46.3555 33.7324C45.072 33.7324 44.2661 34.2995 44.2661 35.2248C44.2661 35.9412 44.8631 36.4486 45.9974 37.0755C47.7584 38.0903 49.2509 39.4634 49.1912 41.4334C49.1912 45.0153 46.2958 47.0152 42.2364 47.0152C39.4604 47.0152 37.7889 45.9108 37.7889 45.9108L38.8933 42.7169C38.8933 42.7169 40.6842 43.7019 42.5946 43.7019C43.8781 43.7019 44.5646 43.0154 44.5646 42.1498C44.5646 41.3439 44.087 40.7767 42.714 40.0007C41.0126 39.0156 39.7291 37.6426 39.7291 35.8516C39.7291 32.6876 42.4752 30.4191 46.4152 30.4191ZM59.0712 23.6434L57.34 32.7175L57.3997 32.7473C58.6235 31.3146 60.1756 30.3594 62.1755 30.3594C64.5336 30.3594 65.847 31.8817 65.7873 34.4786C65.7873 35.2845 65.6679 36.4486 65.4589 37.4336L63.6978 46.7465H59.1906L60.892 37.7023C61.0413 37.0754 61.101 36.3292 61.101 35.7024C61.101 34.7174 60.7129 34.0308 59.6981 34.0308C58.2653 34.0308 56.743 35.8516 56.146 38.8365L54.6536 46.7167H50.1464L54.5342 23.6434H59.0712ZM106.113 30.7176L103.039 46.7167H98.5018L101.546 30.7176H106.113ZM117.157 23.3449C118.829 23.3449 119.605 23.7329 119.605 23.7329L118.71 27.2551L118.677 27.2435C118.539 27.1957 117.975 27.0163 117.277 27.0163C115.755 27.0163 114.859 28.3894 114.59 29.9415L114.441 30.6878H117.575L116.949 34.0905H113.844L111.456 46.7167H106.949L109.337 34.0905H107.248L107.904 30.6878H109.994L110.113 29.9415C110.471 28.0312 111.188 26.1507 112.74 24.8373C113.964 23.7926 115.546 23.3449 117.157 23.3449ZM17.2527 27.9118C17.2527 27.9118 16.2677 27.4342 14.3275 27.5536C9.3129 27.8819 7.04437 31.3743 7.28316 34.8368C7.55181 38.9559 11.671 38.8067 11.8202 41.314C11.8501 41.911 11.462 42.7766 10.4173 42.8363C8.92486 42.9469 7.09973 41.6499 6.83753 41.4572L6.80558 41.4334L6.02951 44.7168C6.02951 44.7168 6.03124 44.7187 6.03469 44.7223L6.07597 44.7639C6.39521 45.0775 8.35071 46.8449 11.671 46.6271C14.6857 46.448 16.7752 44.0303 16.5662 40.4782C16.2677 35.971 11.2232 35.5531 11.1038 33.6428C11.074 33.2846 11.1038 31.8817 13.3127 31.7325C14.6364 31.6286 15.7796 32.0665 16.0553 32.1825L16.1113 32.2068L16.1185 32.2101L17.2527 27.9118ZM91.8753 34.0905C90.3232 34.0905 88.8606 35.971 88.3233 38.7768L87.5771 42.9856C87.5771 42.9856 88.2636 43.6422 89.4277 43.6422C91.935 43.6422 93.6663 39.4634 93.6663 36.568C93.6663 35.3741 93.2484 34.0905 91.8753 34.0905ZM75.4584 33.7921C73.0107 33.7921 71.6675 38.0008 71.6675 40.5976C71.6675 42.2393 72.2944 43.5527 73.8465 43.5527C76.2344 43.5527 77.5776 39.3141 77.5776 36.5083C77.5776 35.1651 77.0702 33.7921 75.4584 33.7921ZM104.83 23.8822C106.203 23.8822 107.098 24.8075 107.068 26.1507C107.039 27.8222 105.815 28.7774 104.412 28.7774H104.352C103.069 28.7774 102.233 27.8521 102.233 26.5089C102.233 25.0164 103.397 23.8822 104.83 23.8822ZM14.5663 17.2258C11.8202 17.2855 9.40244 21.6137 8.74577 24.4792C9.73078 24.1807 10.8053 23.8523 11.8799 23.524C12.2381 21.7032 13.1037 19.7929 14.238 18.569C14.6857 18.1213 15.1633 17.7333 15.6409 17.4945C15.3424 17.3154 14.9842 17.2258 14.5663 17.2258ZM16.417 18.4198C15.9095 18.6586 15.4618 19.0466 15.1335 19.375C14.2977 20.3003 13.5813 21.7032 13.2231 23.1061C14.5066 22.7181 15.82 22.3002 17.0139 21.942C17.0438 20.957 16.9244 19.4944 16.417 18.4198ZM17.6706 18.3303C18.0885 19.4048 18.2079 20.6883 18.2079 21.5838C18.8646 21.3749 19.4616 21.1958 19.9989 21.0465C19.7004 20.1212 19.0437 18.5989 17.6706 18.3303Z" fill="black"/>
</g>
<defs>
<clipPath id="clip0_590_621">
<rect width="133" height="70" fill="white"/>
</clipPath>
</defs>
</svg>
