<svg width="190" height="70" viewBox="0 0 190 70" fill="none" xmlns="http://www.w3.org/2000/svg">
<g clip-path="url(#clip0_587_603)">
<path d="M107.983 16.6323C106.658 15.443 105.211 14.3889 103.661 13.4902V24.5348C100.494 20.9365 95.86 18.6665 90.6973 18.6665C85.8617 18.6665 81.4893 20.6578 78.352 23.8675C79.211 25.139 79.9383 26.5071 80.5149 27.9524C82.889 24.9361 86.5675 22.9998 90.6973 22.9998C97.8572 22.9998 103.661 28.8201 103.661 35.9997C103.661 41.1418 100.684 45.5863 96.3642 47.6952C95.0294 48.3467 93.5661 48.7752 92.0227 48.9325C91.5872 48.9768 91.1448 48.9995 90.6973 48.9995C89.1489 48.9995 87.6635 48.7271 86.2871 48.2279C81.2983 46.418 77.7332 41.6265 77.7332 35.9997C77.7332 26.4269 69.9941 18.6665 60.4476 18.6665C50.9011 18.6665 43.1621 26.4269 43.1621 35.9997C43.1621 45.5724 50.9011 53.3328 60.4476 53.3328C65.2833 53.3328 69.6557 51.3415 72.7929 48.1318C71.9339 46.8604 71.2067 45.4922 70.63 44.0469C68.256 47.0632 64.5774 48.9995 60.4476 48.9995C53.2878 48.9995 47.4835 43.1792 47.4835 35.9997C47.4835 28.8201 53.2878 22.9998 60.4476 22.9998C67.6075 22.9998 73.4118 28.8201 73.4118 35.9997C73.4118 37.8089 73.6885 39.5531 74.2008 41.1924C75.027 43.8339 76.4664 46.2031 78.352 48.1318C79.7392 49.5512 81.3683 50.7323 83.1719 51.6082C85.447 52.7135 88 53.3328 90.6973 53.3328C93.3946 53.3328 95.7832 52.7527 98.0021 51.7137C98.0652 51.684 98.1288 51.6537 98.1918 51.6234C98.3179 51.5627 98.4427 51.5001 98.5675 51.4363C104.157 48.5654 107.983 42.7306 107.983 35.9997V16.6323H107.983Z" fill="#0056A9"/>
<path d="M148.864 18.6665H115.525C116.476 20.0328 117.317 21.4818 118.036 22.9998H125.269V52.8721C126.802 52.4765 128.253 51.8748 129.59 51.0994V22.9998H154.395C152.719 21.3561 150.884 19.8868 148.864 18.6665Z" fill="#0056A9"/>
<path d="M60.4485 62C67.7029 62 74.2609 59.0128 78.9667 54.198C77.7447 53.4042 76.6084 52.4904 75.573 51.473C71.6757 55.3045 66.3372 57.6667 60.4478 57.6667C48.5147 57.6667 38.8409 47.9663 38.8409 36.0003C38.8409 24.0343 48.5147 14.3333 60.4485 14.3333C63.1685 14.3333 65.7713 14.8376 68.1692 15.7577C69.2154 14.588 70.351 13.4997 71.5648 12.5044C68.1957 10.8986 64.4264 10 60.4485 10C46.1281 10 34.5195 21.6405 34.5195 35.9997C34.5195 50.3589 46.1281 61.9994 60.4478 61.9994L60.4485 62Z" fill="#343435"/>
<path d="M112.303 35.9999C112.303 47.9659 102.63 57.6663 90.6964 57.6663C87.9764 57.6663 85.3736 57.162 82.9757 56.2425C81.9295 57.4123 80.7939 58.5005 79.5801 59.4958C82.9492 61.1016 86.7185 61.9996 90.6964 61.9996C105.016 61.9996 116.625 50.3591 116.625 35.9999C116.625 30.6839 115.034 25.7408 112.303 21.623V35.9999Z" fill="#343435"/>
<path d="M90.6966 10C93.7273 10 96.6364 10.5214 99.3394 11.4794V16.1362C96.6925 14.9766 93.7695 14.3333 90.6966 14.3333C84.8072 14.3333 79.4693 16.6955 75.5714 20.527C74.536 19.5096 73.3997 18.5958 72.1777 17.8021C76.8835 12.9872 83.4422 10 90.6966 10Z" fill="#343435"/>
<path d="M106.287 10C108.315 11.2247 110.187 12.6814 111.868 14.3333H146.875C145.195 12.6814 143.322 11.2247 141.295 10H106.287Z" fill="#343435"/>
<path d="M140.755 27.333H145.399C146.355 30.0441 146.875 32.9605 146.875 35.9996C146.875 50.3587 135.267 61.9993 120.946 61.9993C116.969 61.9993 113.199 61.1006 109.83 59.4955C111.045 58.5001 112.18 57.4119 113.226 56.2422C115.623 57.1623 118.226 57.666 120.946 57.666C132.88 57.666 142.553 47.9655 142.553 35.9996C142.553 32.9182 141.912 29.9872 140.755 27.333Z" fill="#343435"/>
</g>
<defs>
<clipPath id="clip0_587_603">
<rect width="121" height="52" fill="white" transform="translate(34 10)"/>
</clipPath>
</defs>
</svg>
