<?xml version="1.0" encoding="UTF-8"?>
<svg id="Layer_1" data-name="Layer 1" xmlns="http://www.w3.org/2000/svg" width="150.13" height="20.16" viewBox="0 0 150.13 20.16">
  <defs>
    <style>
      .cls-1, .cls-2 {
        fill: #221f1b;
      }

      .cls-2 {
        stroke: #221f1b;
        stroke-miterlimit: 10;
        stroke-width: .26px;
      }
    </style>
  </defs>
  <path class="cls-1" d="M141.62,11.54c.08,2.34,1.76,3.47,3.4,3.47s2.54-.73,3.01-1.8h1.93c-.51,1.88-2.26,3.41-4.94,3.41-3.49,0-5.42-2.46-5.42-5.67,0-3.43,2.34-5.63,5.35-5.63,3.36,0,5.4,2.79,5.15,6.22h-8.49ZM141.64,9.97h6.5c-.04-1.53-1.21-3.07-3.18-3.07-1.66,0-3.16.89-3.32,3.07Z"/>
  <path class="cls-1" d="M136.53,1.74h1.87v14.63h-1.87v-1.63c-.68,1.15-1.85,1.9-3.61,1.9-2.52,0-4.72-2.06-4.72-5.65s2.2-5.65,4.72-5.65c1.76,0,2.93.75,3.61,1.9V1.74ZM133.39,6.9c-1.91,0-3.16,1.49-3.16,4.08s1.25,4.08,3.16,4.08c1.66,0,3.22-1.21,3.22-4.08s-1.56-4.08-3.22-4.08Z"/>
  <path class="cls-1" d="M127.54,10.98c0,3.94-2.73,5.65-5.29,5.65s-5.29-1.72-5.29-5.65,2.73-5.65,5.29-5.65,5.29,1.72,5.29,5.65ZM122.25,15.02c1.68,0,3.3-1.25,3.3-4.04s-1.62-4.04-3.3-4.04-3.3,1.07-3.3,4.04,1.62,4.04,3.3,4.04Z"/>
  <path class="cls-1" d="M116.32,9.14h-1.89c-.27-1.29-1.42-2.2-2.85-2.2-1.66,0-3.18,1.27-3.18,4s1.54,4.08,3.18,4.08,2.67-1.03,2.93-2.18h1.93c-.37,2.04-2.36,3.79-4.92,3.79-3.16,0-5.15-2.36-5.15-5.67s2.07-5.63,5.33-5.63c2.67,0,4.37,1.98,4.61,3.81Z"/>
  <path class="cls-1" d="M98.08,2.79h1.87v2.72h2.09v1.47h-2.09v6.44c0,1.13.08,1.41,1.15,1.41h.94v1.53h-1.35c-2.11,0-2.61-.46-2.61-2.72v-6.66h-1.74v-1.47h1.74v-2.72Z"/>
  <path class="cls-1" d="M88.53,7.15c.64-1.03,1.7-1.82,3.57-1.82,2.67,0,3.63,1.7,3.63,4.18v6.86h-1.87v-6.32c0-1.68-.29-3.13-2.42-3.13-1.81,0-2.91,1.23-2.91,3.55v5.89h-1.87V5.51h1.87v1.63Z"/>
  <path class="cls-1" d="M76.97,11.54c.08,2.34,1.76,3.47,3.4,3.47s2.54-.73,3.02-1.8h1.93c-.51,1.88-2.26,3.41-4.94,3.41-3.49,0-5.42-2.46-5.42-5.67,0-3.43,2.34-5.63,5.35-5.63,3.36,0,5.39,2.79,5.15,6.22h-8.49ZM76.99,9.97h6.5c-.04-1.53-1.21-3.07-3.18-3.07-1.66,0-3.16.89-3.32,3.07Z"/>
  <path class="cls-1" d="M60.11,16.37h-1.87V5.51h1.87v1.63c.64-1.03,1.66-1.82,3.32-1.82s2.69.73,3.18,1.92c.88-1.33,2.17-1.92,3.71-1.92,2.56,0,3.57,1.7,3.57,4.18v6.86h-1.87v-6.32c0-1.68-.33-3.13-2.36-3.13-1.6,0-2.67,1.23-2.67,3.55v5.89h-1.87v-6.32c0-1.68-.33-3.13-2.36-3.13-1.6,0-2.67,1.23-2.67,3.55v5.89Z"/>
  <path class="cls-1" d="M54.4,5.51h1.87v9.4c0,2.22-.41,3.13-1.05,3.81-.8.91-2.17,1.43-3.82,1.43-2.5,0-4.18-1.13-4.53-3.33h1.99c.25.97.84,1.72,2.56,1.72,1.01,0,1.76-.28,2.26-.81.41-.42.72-.93.72-2.4v-1.03c-.68,1.15-1.74,1.88-3.51,1.88-2.44,0-4.68-1.94-4.68-5.43s2.24-5.43,4.68-5.43c1.76,0,2.83.75,3.51,1.9v-1.72ZM51.37,6.9c-1.83,0-3.12,1.39-3.12,3.85s1.29,3.87,3.12,3.87c1.66,0,3.12-1.11,3.12-3.87s-1.46-3.85-3.12-3.85Z"/>
  <path class="cls-1" d="M43.12,14.81c-.64,1.03-1.64,1.82-3.47,1.82-2.56,0-3.53-1.7-3.53-4.18v-6.94h1.87v6.4c0,1.68.29,3.13,2.32,3.13,1.76,0,2.81-1.23,2.81-3.55v-5.97h1.87v10.86h-1.87v-1.55Z"/>
  <path class="cls-1" d="M25.15,13.5c0-2.56,2.93-3.31,7.47-3.81v-.26c0-1.98-1.13-2.64-2.5-2.64-1.54,0-2.44.83-2.52,2.16h-1.93c.18-2.34,2.28-3.65,4.43-3.65,3.04,0,4.41,1.43,4.39,4.48l-.02,2.5c-.02,1.82.08,3.07.29,4.1h-1.89c-.06-.4-.12-.85-.14-1.49-.68,1.11-1.83,1.76-3.77,1.76-2.07,0-3.79-1.13-3.79-3.13ZM32.76,11.14c-3.38.34-5.54.83-5.54,2.32,0,1.03.8,1.72,2.13,1.72,1.74,0,3.4-.79,3.4-3.35v-.69Z"/>
  <path class="cls-2" d="M3.24,17.46c-.33,0-.61-.06-.84-.17-.23-.11-.4-.29-.52-.52-.12-.23-.18-.51-.18-.84v-3.39c0-.42-.08-.72-.25-.91-.17-.19-.46-.29-.89-.3-.13,0-.24-.05-.32-.15-.08-.1-.12-.21-.12-.34,0-.14.04-.25.12-.34.08-.09.19-.14.32-.15.42-.01.72-.11.89-.3.17-.19.25-.49.25-.9v-3.39c0-.5.13-.88.39-1.14.26-.26.64-.39,1.14-.39h4.05c.15,0,.28.05.38.13.1.09.15.2.15.34,0,.13-.04.24-.13.34-.09.1-.2.14-.34.14h-3.76c-.21,0-.38.05-.49.16-.11.11-.17.28-.17.51v3.41c0,.3-.06.57-.18.81-.12.24-.28.44-.49.58-.2.14-.44.21-.71.21v-.06c.27,0,.51.07.71.21.2.14.36.33.49.58.12.24.18.52.18.81v3.42c0,.23.06.4.17.51.11.11.27.16.49.16h3.76c.14,0,.26.05.34.14.09.1.13.21.13.34s-.05.24-.15.34c-.1.1-.23.14-.38.14H3.24Z"/>
  <path class="cls-2" d="M13.18,17.46c-.15,0-.28-.05-.38-.14-.1-.1-.15-.21-.15-.34s.04-.24.13-.34c.09-.1.2-.14.34-.14h3.76c.21,0,.38-.05.49-.16.11-.11.17-.28.17-.51v-3.42c0-.3.06-.57.18-.81.12-.24.28-.44.49-.58.2-.14.44-.21.71-.21v.06c-.27,0-.51-.07-.71-.21-.2-.14-.36-.33-.49-.58-.12-.24-.18-.52-.18-.81v-3.41c0-.23-.06-.4-.17-.51-.11-.11-.27-.16-.49-.16h-3.76c-.14,0-.26-.05-.34-.14-.09-.09-.13-.21-.13-.34,0-.14.05-.25.15-.34.1-.09.23-.13.38-.13h4.05c.5,0,.88.13,1.14.39.26.26.39.64.39,1.14v3.39c0,.41.08.71.25.9.17.19.46.29.89.3.13,0,.24.06.32.15.08.09.12.2.12.34,0,.13-.04.24-.12.34-.08.1-.19.15-.32.15-.42,0-.72.11-.89.3-.17.19-.25.49-.25.91v3.39c0,.33-.06.61-.18.84-.12.23-.29.4-.52.52-.23.11-.51.17-.84.17h-4.05Z"/>
  <path class="cls-2" d="M14.22,12.14c.74,0,1.34-.59,1.34-1.31s-.6-1.31-1.34-1.31-1.34.59-1.34,1.31.6,1.31,1.34,1.31Z"/>
  <path class="cls-2" d="M6.73,12.14c.74,0,1.34-.59,1.34-1.31s-.6-1.31-1.34-1.31-1.34.59-1.34,1.31.6,1.31,1.34,1.31Z"/>
  <path class="cls-2" d="M9.78.43l-.1,2.69c0,.15-.14.23-.43.23s-.43-.08-.43-.23c-.03-.67-.05-1.19-.06-1.56,0-.38-.02-.64-.03-.8,0-.16-.01-.26-.01-.29v-.05c0-.19.18-.29.54-.29s.54.1.54.3ZM11.95.43l-.1,2.69c0,.15-.14.23-.43.23s-.43-.08-.43-.23c-.03-.67-.05-1.19-.06-1.56,0-.38-.02-.64-.03-.8,0-.16-.01-.26-.01-.29v-.05c0-.19.18-.29.54-.29s.54.1.54.3Z"/>
</svg>