<svg width="412" height="105" viewBox="0 0 412 105" fill="none" xmlns="http://www.w3.org/2000/svg">
<path d="M0 0H412V105H0V0Z" fill="white"/>
<path d="M60.3432 37.1745C54.7271 37.1745 51.3728 41.4682 47.2732 42.1319C47.2732 41.943 47.3702 41.6571 47.3702 41.3712C47.3702 32.2119 28 40.0335 28 45.6649C28 49.2897 31.6249 50.3415 31.6249 54.4412C31.6249 60.0572 28.6688 59.6896 28.6688 63.4115C28.6688 67.6082 31.9108 69.0275 38.0169 69.0275C44.1231 69.0275 47.3702 67.598 47.3702 63.4115C47.3702 59.3271 44.409 58.8165 44.409 52.4398C44.409 50.5304 44.9808 47.0025 46.8902 47.0025C49.8463 47.0025 53.7622 52.8176 57.9589 52.8176C61.2979 52.8176 64.6369 50.0505 65.5916 45.1594C66.3523 41.2742 64.2488 37.1745 60.3432 37.1745Z" fill="#FF5A26"/>
<path d="M107.569 56.5398V42.7091C107.569 39.6458 105.659 37.1748 101.177 37.1748C98.9813 37.1748 91.0627 37.9355 91.0627 41.5604C91.0627 43.4698 92.2114 44.2357 93.2581 45.3793C96.8829 51.5824 93.447 64.2695 88.2036 64.2695C85.6509 64.2695 84.6707 60.6446 84.6707 56.5398V42.7091C84.6707 39.6458 82.7612 37.1748 78.1816 37.1748C75.9914 37.1748 68.0728 37.9355 68.0728 41.5604C68.0728 44.8994 71.7896 44.8075 71.7896 49.2186V57.0198C71.7896 64.3665 76.4662 69.038 84.8647 69.038C89.5362 69.038 92.6862 67.2256 95.2645 64.0755C96.4081 67.2256 99.2672 69.038 102.703 69.038C106.328 69.038 111.102 66.4853 111.102 62.9115C111.102 59.9758 107.569 59.7818 107.569 56.5398Z" fill="#FF5A26"/>
<path d="M141.913 37.1748C137.837 37.1161 133.852 38.3887 130.564 40.7997V39.942C130.564 33.4529 133.423 30.9716 133.423 25.7232C133.423 21.5316 130.181 20 124.172 20C118.045 20 114.818 21.5316 114.818 25.7232C114.818 30.9716 117.683 33.4529 117.683 39.942V49.1931C117.683 55.6821 114.818 58.1634 114.818 63.4118C114.818 67.6085 118.065 69.0278 124.172 69.0278C128.256 69.0278 131.039 68.359 132.468 66.6436C135.356 68.2446 138.611 69.0663 141.913 69.0278C151.649 69.0278 159.66 61.9669 159.66 53.0987C159.66 44.3276 151.649 37.1748 141.913 37.1748ZM137.257 63.5037C133.535 63.5037 130.579 58.8322 130.579 53.109C130.579 47.3857 133.52 42.7091 137.257 42.7091C140.994 42.7091 143.935 47.3806 143.935 53.109C143.935 58.8373 140.959 63.5037 137.257 63.5037Z" fill="#FF5A26"/>
<path d="M196.869 37.1748C193.244 37.1748 190.956 38.6043 189.43 42.0403C187.423 46.8088 190.191 48.7183 187.612 55.3145V55.4115C184.85 50.3571 184.37 46.3493 182.083 42.8163C179.602 39.1915 175.4 37.2003 169.391 37.2003C163.264 37.2003 158.133 39.6816 160.9 43.8783C164.433 49.1931 166.818 51.1995 171.586 57.7805C176.069 63.9836 180.934 71.1364 178.458 74.7664C176.263 78.1002 172.332 74.5724 169.391 72.7599C163.264 69.038 157.648 74.2916 158.23 79.249C158.899 84.3034 164.719 86.2128 169.973 86.2128C178.274 86.2128 182.665 79.5349 186.387 71.6163C187.623 69.0636 193.065 55.2788 193.065 55.2788C195.832 48.7948 199.835 46.6914 201.458 42.7806C202.689 39.942 200.493 37.1748 196.869 37.1748Z" fill="#FF5A26"/>
<path d="M370.015 52.961C368.484 53.8085 366.896 54.8143 365.359 55.7792C357.236 60.8847 354.531 61.722 352.79 59.547C350.533 56.739 352.279 49.0247 356.573 44.5267C360.024 40.9529 367.131 37.5935 367.131 37.5935C367.131 37.5935 357.895 37.328 355.899 37.5935C352.611 38.007 344.83 38.9567 336.718 46.2064C330.244 51.9756 325.041 56.3459 320.773 58.8527C318.455 60.2209 315.668 61.3697 314.866 60.5069C312.349 57.8469 315.218 49.862 319.293 44.9301C322.718 40.7793 329.156 37.18 329.156 37.18C329.156 37.18 320.191 36.9502 317.924 37.3944C316.214 37.7365 308.04 39.1915 293.301 51.899C285.612 58.5361 275.396 61.2523 269.188 61.1604C274.084 57.8265 280.006 53.8187 282.181 48.2078C283.422 45.0118 283.314 41.1469 280.404 38.7729C277.167 36.1436 270.301 36.7817 265.966 38.5687C261.223 40.524 256.266 44.1847 253.856 50.8677C252.784 53.88 252.375 57.0453 253.565 59.7972C248.73 61.8853 245.396 61.4003 244.212 60.4456C239.203 56.4123 240.893 44.5574 241.95 40.9427L242.205 40.0748L234.036 37.1085L212.17 54.9776L219.358 37.4148H210.117L197.129 69.3699H207.85L231.943 50.1223C231.943 55.8762 233.327 62.4367 238.58 66.6436C243.624 70.728 249.812 69.3751 255.193 67.9251C256.215 67.6443 258.451 66.6436 259.492 66.2556C269.729 72.2801 285.576 69.1504 298.906 58.1532C301.735 55.8251 305.334 51.9399 307.53 50.3623C305.845 55.1767 304.676 62.4163 308.551 66.5109C310.593 68.6654 313.309 69.3751 315.882 69.3751C324.051 69.3751 333.92 60.4252 342.553 52.7057C343.4 51.9597 344.301 51.2771 345.249 50.6635C343.15 55.3452 342.344 60.6804 346.01 65.0354C353.111 73.4696 363.307 67.4452 370.051 63.1872C371.547 62.2376 372.961 61.3493 374.279 60.6345C378.736 58.1634 384.944 58.5923 385 58.5923V50.3163C383.775 50.204 376.065 49.6118 370.015 52.961ZM261.728 52.8333C264.23 46.6506 268.845 44.8739 270.918 44.2561C273.736 43.4086 275.513 44.4348 274.941 46.2575C273.767 50.1734 268.263 53.9616 261.79 56.6777C261.218 55.6873 261.249 54.0178 261.728 52.8333Z" fill="#FF5A26"/>
</svg>
