<svg width="1413.3" height="173.33" version="1.1" viewBox="0 0 1413.3 173.33" xmlns="http://www.w3.org/2000/svg">
 <defs>
  <clipPath id="clipPath3271">
   <path d="m0 130h1060v-130h-1060z"/>
  </clipPath>
 </defs>
 <g transform="matrix(1.3333 0 0 -1.3333 0 173.33)">
  <g transform="translate(173.58 94.536)">
   <path d="m0 0h-16.788v-59.091h39.608v15.223h-22.82z" fill="#fff"/>
  </g>
  <path d="m130.44 35.454h16.857v59.088h-16.857z" fill="#fff"/>
  <g clip-path="url(#clipPath3271)">
   <g transform="translate(244.73 57.974)">
    <path d="m0 0c-0.013 1.965-0.514 3.865-1.411 5.614-2.841 5.545-7.459 8.47-13.632 8.728-4.403 0.185-14.072 0.044-14.072 0.044l-0.036 7.076 26.99-0.014v15.195s-17.162-0.012-25.311 6e-3c-2.745 6e-3 -5.336-0.596-7.731-1.912-4.879-2.679-7.878-6.708-8.341-12.332-0.215-2.623-0.139-5.276-0.071-7.912 0.054-2.074 0.566-4.087 1.577-5.912 3.106-5.607 7.979-8.352 14.306-8.523 3.916-0.106 12.538-0.02 12.538-0.02v-7.343h-27.608v-15.221s18.323-0.015 27.144 0.017c1.131 5e-3 2.282 0.156 3.389 0.397 6.552 1.425 11.264 6.326 12.081 12.938 0.374 3.02 0.207 6.114 0.188 9.174" fill="#fff"/>
   </g>
   <g transform="translate(118.94 87.036)">
    <path d="m0 0c-3.155 5.086-7.982 7.316-13.762 7.505-5.302 0.172-10.612 0.04-15.92 0.034-1.845-2e-3 -3.661-0.231-5.413-0.834-5.878-2.019-10.288-8.274-10.296-14.687-0.018-14.322-5e-3 -43.606-5e-3 -43.606h16.271v15.22h15.357v-15.208h15.782s-1e-3 36.744 0 43.412c1e-3 2.888-0.472 5.68-2.014 8.164m-13.838-24.251h-15.351v13.934c0 2.063 1.673 3.737 3.737 3.737h7.877c2.063 0 3.737-1.674 3.737-3.737z" fill="#fff"/>
   </g>
   <g transform="translate(63.574 63.598)">
    <path d="m0 0c2.135 4.547 2.524 9.379 1.896 14.301-0.895 7.029-4.583 12.093-10.986 15.133-2.755 1.306-5.635 2.013-8.742 1.988-9.626-0.075-29.658-0.027-29.658-0.027v-59.539h16.018v15.215l13.894-15.224h23.676s-18.59 18.715-18.503 18.732c5.544 1.095 10.01 4.32 12.405 9.421m-14.934 5.562c0-1.995-1.617-3.613-3.613-3.613h-12.905v15.351h12.905c1.996 0 3.613-1.617 3.613-3.613z" fill="#fff"/>
   </g>
   <g transform="translate(859.13 84.417)">
    <path d="m0 0c0-7.249-3.594-16.675-13.447-16.675-6.516 0-9.579 4.137-9.579 10.495 0 6.373 3.67 16.508 13.344 16.508 6.726 0 9.682-4.57 9.682-10.328m-18.365-6.352c0-4.437 1.914-6.711 5.373-6.711 6.107 0 8.32 7.961 8.32 13.071 0 4.2-1.662 6.707-5.461 6.707-5.768 0-8.232-7.805-8.232-13.067" fill="#fff"/>
   </g>
   <g transform="translate(877.71 74.449)">
    <path d="m0 0c-1.12-3.666-3.8-6.703-9.169-6.703-4.654 0-7.021 2.797-7.021 7.539 0 5.379 3.008 12.85 10.312 12.85 5.821 0 7.266-4.089 6.925-7.155h-4.32c0.069 1.77-0.329 3.689-2.911 3.689-3.921 0-5.491-5.979-5.491-9.341 0-2.84 1.123-4.143 3.113-4.143 2.198 0 3.336 1.243 4.219 3.264z" fill="#fff"/>
   </g>
   <g transform="translate(881.83,87.775)">
    <path d="m0 0h3.107l1.236 5.462h4.213l-1.208-5.462h3.707l-0.746-3.416h-3.708l-2.407-11.091c-0.302-1.45-0.065-2.063 1.536-2.063 0.718 0 1.429 0.16 1.935 0.236l-0.655-3.058c-1.01-0.385-2.428-0.472-3.094-0.472-3.389 0-4.915 1.38-4.135 5.073l2.5 11.375h-3.028z" fill="#fff"/>
   </g>
   <g transform="translate(910.44 80.564)">
    <path d="m0 0c0-5.735-2.982-12.8-10.554-12.8-5.281 0-7.522 3.322-7.522 7.833 0 5.154 3.021 12.538 10.681 12.538 5.044 0 7.395-3.235 7.395-7.571m-13.533-4.92c0-2.698 0.967-4.344 3.397-4.344 4.1 0 5.701 5.722 5.701 9.191 0 2.733-1.051 4.109-3.416 4.109-3.998 0-5.682-5.33-5.682-8.956" fill="#fff"/>
   </g>
   <g transform="translate(918.04 95.941)">
    <path d="m0 0h4.374l-2.256-10.688c1.059 1.454 2.677 2.882 5.788 2.882 3.729 0 5.797-2.887 5.797-6.813 0-5.544-2.719-13.541-10.002-13.541-2.983 0-4.256 1.356-4.768 2.72-0.126-0.605-0.397-1.784-0.589-2.377h-4.296c0.26 1.17 0.829 3.706 1.295 5.835zm9.16-15.453c0 2.721-1.145 4.047-3.248 4.047-3.218 0-4.903-3.279-5.583-6.532-0.776-3.647-0.435-6.688 2.969-6.688 4.143 0 5.862 5.871 5.862 9.173" fill="#fff"/>
   </g>
   <g transform="translate(938.64 76.982)">
    <path d="m0 0c-0.084-0.428-0.187-1.051-0.187-1.743 0-2.185 0.786-4.015 3.274-4.015 2.609 0 3.431 1.657 4.062 2.835h4.385c-1.236-3.306-3.584-6.291-8.822-6.291-5.189 0-7.243 3.163-7.243 7.747 0 4.796 2.748 12.62 10.359 12.62 4.833 0 7.013-3.116 7.013-6.928 0-1.116-0.176-2.47-0.62-4.225zm8.479 2.906c0.115 0.516 0.165 0.949 0.165 1.472 0 1.982-0.878 3.454-3.229 3.454-2.81 0-4.218-2.69-4.761-4.926z" fill="#fff"/>
   </g>
   <g transform="translate(955.79 81.127)">
    <path d="m0 0c0.665 3.197 1.086 5.265 1.315 6.648h4.217c-0.038-0.581-0.329-2.334-0.618-3.677 1.375 2.408 3.419 3.984 6.758 3.984l-0.984-4.513c-3.999-0.011-6.234-1.996-7.152-6.324l-1.918-9.121h-4.375z" fill="#fff"/>
   </g>
   <g transform="translate(994.86 89.889)">
    <path d="m0 0h-10.035c-0.535-2.062-1.299-4.783-1.75-6.2 1.063 0.894 2.542 1.462 4.498 1.462 4.168 0 6.535-2.809 6.535-7.168 0-4.716-2.726-10.231-9.877-10.231-5.048 0-7.766 2.726-7.759 6.948h4.29c0.157-2.14 1.318-3.6 3.726-3.6 3.664 0 5 3.466 5 6.489 0 2.288-0.988 4.057-3.565 4.057-2.089 0-3.454-0.897-4.34-2.543l-3.849 0.58c1.079 3.198 3.032 10.092 3.957 13.887h14.061z" fill="#fff"/>
   </g>
   <g transform="translate(1023.6 83.848)">
    <path d="m0 0-7.425-9.3c-3.582-4.508-5.582-6.779-10.619-6.779-4.237 0-7.094 2.737-7.094 6.692 0 4.023 2.435 6.43 8.179 9.079 3.904 1.804 5.768 2.856 5.768 5.275 0 1.229-0.596 2.651-2.651 2.651-1.724 0-2.82-1.396-2.82-3.519 0-1.037 0.55-2.397 1.773-3.987l12.941-15.836h-5.251l-11.417 13.999c-1.219 1.729-2.068 3.498-2.068 5.444 0 3.602 2.394 7.166 7.216 7.166 4.253 0 6.164-3.067 6.164-5.735 0-3.673-2.109-5.478-7.685-7.952-4.401-2.024-5.659-3.46-5.659-5.925 0-1.653 1.187-3.435 3.412-3.435 2.579 0 3.986 1.02 7.293 5.41l5.117 6.752z" fill="#fff"/>
   </g>
   <g transform="translate(1041.8 87.701)">
    <path d="m0 0c-0.187 1.604-0.932 2.908-3.255 2.908-3.16 0-5.086-3.619-5.942-7.825 1.3 1.333 2.909 2.327 5.416 2.327 3.934 0 6.587-2.765 6.587-7.142 0-4.852-2.929-10.201-9.616-10.201-4.626 0-7.602 2.978-7.602 8.866 0 5.459 2.404 17.296 11.494 17.296 5.101 0 7.043-3.067 7.104-6.229zm-1.655-10.25c0 2.733-1.177 4.213-3.558 4.223-3.348 0.013-4.833-2.903-4.833-5.901 0-2.77 1.177-4.656 3.622-4.656 3.382 0 4.769 3.541 4.769 6.334" fill="#fff"/>
   </g>
   <g transform="translate(840.99 42.375)">
    <path d="m0 0-3.557-6.982h-4.657c4.212 8.204 8.387 16.351 13.532 26.265h5.783l2.77-26.265h-4.461l-0.756 6.982zm8.532 3.735c-0.516 5.814-0.99 9.772-1.017 12.01h-0.049c-1.293-2.938-3.303-7.138-5.82-12.01z" fill="#fff"/>
   </g>
   <g transform="translate(860.98 48.946)">
    <path d="m0 0c0.784 3.752 1.071 5.181 1.235 6.098h4.228c-0.077-0.642-0.252-1.88-0.412-2.587 1.33 1.74 2.947 2.947 5.581 2.947 2.672 0 3.769-1.522 4.072-3.053 1.212 1.601 3.131 3.053 5.971 3.053 3.312 0 5.828-1.824 4.677-7.311l-2.691-12.7h-4.268l2.669 12.621c0.424 1.975 0.157 3.778-2.124 3.778-2.55 0-3.821-2.032-4.467-5.097l-2.386-11.302h-4.293l2.619 12.452c0.458 2.193 0.114 3.92-2.114 3.92-2.327 0-3.732-1.776-4.516-5.43l-2.321-10.942h-4.32z" fill="#fff"/>
   </g>
   <g transform="translate(892.56 41.503)">
    <path d="m0 0c0.088-2.178 1.338-3.251 3.32-3.251 1.854 0 2.999 0.915 2.999 2.49 0 1.356-0.986 2.128-3.429 3.183-3.502 1.51-5.139 2.814-5.139 5.602 0 3.373 2.501 5.877 7.194 5.877 5.059 0 7.025-3.044 6.918-6.102h-4.229c-0.087 1.654-0.818 2.846-2.983 2.846-1.352 0-2.53-0.665-2.53-2.147 0-1.149 0.776-1.586 3.093-2.595 3.583-1.536 5.62-2.971 5.62-6.048 0-3.338-2.332-6.309-7.862-6.309-4.787 0-7.423 2.409-7.346 6.454z" fill="#fff"/>
   </g>
   <g transform="translate(907.22 55.044)">
    <path d="m0 0h3.108l1.235 5.462h4.213l-1.208-5.462h3.708l-0.747-3.416h-3.707l-2.408-11.091c-0.302-1.45-0.065-2.063 1.536-2.063 0.719 0 1.43 0.16 1.935 0.236l-0.655-3.058c-1.01-0.385-2.428-0.472-3.094-0.472-3.389 0-4.915 1.38-4.135 5.073l2.5 11.375h-3.027z" fill="#fff"/>
   </g>
   <g transform="translate(922.27 44.251)">
    <path d="m0 0c-0.084-0.428-0.187-1.051-0.187-1.743 0-2.185 0.787-4.015 3.274-4.015 2.609 0 3.431 1.656 4.062 2.835h4.386c-1.237-3.306-3.585-6.291-8.823-6.291-5.189 0-7.243 3.163-7.243 7.747 0 4.796 2.748 12.62 10.359 12.62 4.834 0 7.013-3.116 7.013-6.928 0-1.116-0.176-2.469-0.619-4.225zm8.48 2.906c0.114 0.516 0.164 0.949 0.164 1.472 0 1.982-0.878 3.454-3.229 3.454-2.81 0-4.218-2.69-4.761-4.926z" fill="#fff"/>
   </g>
   <g transform="translate(939.42 48.396)">
    <path d="m0 0c0.666 3.197 1.086 5.265 1.315 6.648h4.217c-0.038-0.581-0.329-2.334-0.619-3.677 1.376 2.408 3.421 3.983 6.759 3.983l-0.984-4.512c-3.998-0.011-6.234-1.996-7.152-6.324l-1.919-9.121h-4.373z" fill="#fff"/>
   </g>
   <g transform="translate(972.51 63.21)">
    <path d="m0 0-4.76-22.46c-0.478-2.157-0.871-4.255-1.077-5.357h-4.256c0.038 0.433 0.202 1.521 0.386 2.388-1.25-1.754-2.783-2.759-5.673-2.759-3.74 0-5.953 2.695-5.953 7.498 0 5.59 3.265 12.884 9.879 12.884 3.008 0 4.477-1.417 4.89-2.494l2.19 10.3zm-16.71-20.265c0-3 1.183-4.429 3.198-4.429 3.325 0 4.715 3.073 5.51 6.855 0.864 4.127 0.238 6.433-2.912 6.433-4.001 0-5.796-5.415-5.796-8.859" fill="#fff"/>
   </g>
   <g transform="translate(987.12 39.989)">
    <path d="m0 0c-0.364-1.769-0.769-3.68-0.91-4.597h-4.218c0.062 0.599 0.15 1.205 0.348 2.179-1.162-1.558-2.741-2.523-5.527-2.523-3.398 0-5.261 2.248-5.261 5.25 0 4.291 3.162 6.656 8.633 7.115 1.404 0.127 2.42 0.192 4.236 0.192l0.172 0.744c0.508 2.174 0.153 3.933-2.748 3.933-2.488 0-3.183-1.507-3.603-2.744h-4.316c0.687 3.032 2.626 5.866 8.256 5.866 4.815 0 7.805-2.066 6.585-7.724zm-3.285 4.639c-1.215 0.011-2.277-0.011-3.412-0.153-2.358-0.252-4.356-1.18-4.356-3.569 0-1.425 0.761-2.483 2.602-2.483 3.401 0 4.429 2.809 5.033 5.602z" fill="#fff"/>
   </g>
   <g transform="translate(994.17 48.946)">
    <path d="m0 0c0.784 3.752 1.071 5.181 1.235 6.098h4.228c-0.077-0.642-0.252-1.88-0.412-2.587 1.33 1.74 2.947 2.947 5.581 2.947 2.672 0 3.769-1.522 4.072-3.053 1.212 1.601 3.131 3.053 5.971 3.053 3.312 0 5.828-1.824 4.677-7.311l-2.691-12.7h-4.267l2.668 12.621c0.424 1.975 0.157 3.778-2.124 3.778-2.549 0-3.821-2.032-4.467-5.097l-2.386-11.302h-4.293l2.619 12.452c0.458 2.193 0.114 3.92-2.113 3.92-2.328 0-3.733-1.776-4.517-5.43l-2.321-10.942h-4.32z" fill="#fff"/>
   </g>
   <g transform="translate(361.35 36.498)">
    <path d="m0 0c-22.058 0-24.44 15.772-24.44 22.552 0 16.63 10.163 34.529 32.477 34.529 15.611 0 24.932-8.738 24.932-23.375 0-24.851-17.031-33.706-32.969-33.706m8.037 59.54c-24.004 0-34.936-19.173-34.936-36.988 0-15.661 10.056-25.012 26.899-25.012 26.15 0 35.428 19.483 35.428 36.166 0 12.489-7.195 25.834-27.391 25.834" fill="#fff"/>
   </g>
   <g transform="translate(294.17 37.973)">
    <path d="m0 0c0.27 5.194 0.692 10.202 1.138 15.493 0.411 4.879 0.835 9.923 1.176 15.515l0.079 1.304h-2.519l-0.282-0.838c-3.716-11.063-8.367-23.277-11.492-31.474h-19.903l-0.079 54.129h19.197c-1.47-12.15-3.088-24.71-4.342-33.701l-0.196-1.4h2.77l1.255 3.492c4.651 12.946 7.006 19.502 11.144 31.609h17.086c-0.193-3.149-0.359-5.956-0.515-8.612-0.455-7.706-0.848-14.361-1.618-24.428l-0.086-1.125 2.706-0.444 0.287 1.079c2.37 8.927 6.573 23.328 9.573 33.53h17.876l-23.377-54.129zm23.539 56.588-0.26-0.883c-2.052-6.975-4.873-16.61-7.211-24.895 0.348 5.151 0.61 9.58 0.904 14.563 0.178 3.014 0.368 6.225 0.595 9.909l0.081 1.306h-21.46l-0.285-0.832c-3.588-10.507-5.792-16.73-9.226-26.304 1.045 7.904 2.196 17.038 3.246 25.759l0.166 1.377h-24.434l0.085-59.048h24.054l0.302 0.792c2.589 6.789 6.024 15.796 9.197 24.749-0.199-2.551-0.405-4.994-0.606-7.381-0.484-5.744-0.94-11.169-1.208-16.872l-0.061-1.288h24.077l25.501 59.048z" fill="#fff"/>
   </g>
   <g transform="translate(693.89 37.973)">
    <path d="m0 0 0.19 0.884c2.715 12.693 7.62 19.209 20.188 26.818l1.158 0.703c7.866 4.773 11.121 6.748 11.121 12.207 0 2.587-1.38 4.195-3.601 4.195-3.379 0-4.857-3.066-5.976-7.708h-16.414c2.515 11.632 10.529 17.528 23.829 17.528 13.053 0 20.538-5.509 20.538-15.116 0-8.027-3.158-12.001-14.081-17.715-6.375-3.359-10.236-6.038-11.472-7.962l-1.219-1.895h23.1l-4.422-11.939zm38.095 19.618c11.801 6.173 15.398 10.821 15.398 19.893 0 5.284-2.241 17.576-22.998 17.576-15.224 0-23.903-6.867-26.534-20.993l-0.271-1.454h21.353l0.216 0.963c1.383 6.223 2.685 6.744 3.797 6.744 0.341 0 1.141 0 1.141-1.735 0-4.076-2.305-5.474-9.941-10.106l-1.154-0.701c-13.254-8.024-18.435-14.927-21.318-28.406l-0.826-3.859h47.691l6.248 16.859h-21.391c1.86 1.436 4.791 3.218 8.589 5.219" fill="#fff"/>
   </g>
   <g transform="translate(363.24 50.603)">
    <path d="m0 0c-1.948 0-4.183 0.765-4.183 6.727 0 6.302 2.83 22.142 9.514 22.142 1.91 0 4.101-0.773 4.101-6.806 0-6.493-2.714-22.063-9.432-22.063m5.331 31.329c-4.034 0-7.337-3.535-9.553-10.223-1.663-5.018-2.421-10.971-2.421-14.379 0-7.593 3.613-9.187 6.643-9.187 4.118 0 7.442 3.611 9.61 10.443 1.674 5.276 2.282 11.31 2.282 14.08 0 7.659-3.568 9.266-6.561 9.266" fill="#fff"/>
   </g>
   <g transform="translate(767.39 52.031)">
    <path d="m0 0c5e-3 -2.488 0.486-4.207 1.468-5.245 0.696-0.736 1.597-1.109 2.678-1.109 4.196 0 5.719 6.054 5.719 10.124 0 4.191-2.276 6.143-7.159 6.143h-2.872l2.164 9.737h3.079c5.681 0 8.684 2.709 8.684 7.835 0 3.787-2.578 4.196-3.686 4.196-3.156 0-4.484-2.562-5.401-5.421h-15.923c3.332 12.507 15.645 14.396 22.762 14.396 12.999 0 20.454-4.739 20.454-13.001 0-5.743-3.622-9.589-10.765-11.429l-0.923-0.237v-2.031l0.867-0.268c0.831-0.256 8.112-2.735 8.112-10.935 0-11.438-8.999-17.997-24.689-17.997-8.52 0-14.577 1.82-18.004 5.408-2.3 2.409-3.474 5.715-3.492 9.834zm24.764 14.78c6.328 2.438 9.663 6.87 9.663 12.875 0 9.826-8.352 15.461-22.914 15.461-19.129 0-24.197-11.182-25.514-17.847l-0.292-1.469h20.804l0.257 0.889c1.208 4.185 2.254 4.532 3.307 4.532 0.517 0 1.226 0 1.226-1.736 0-2.503-0.707-5.376-6.224-5.376h-5.053l-3.255-14.656h5.937c3.973 0 4.699-1.24 4.699-3.683 0-3.625-1.338-7.664-3.259-7.664-0.4 0-0.666 0.102-0.891 0.339-0.441 0.466-0.932 1.663-0.762 4.717l0.072 1.298h-21.87l-0.053-1.173c-0.249-5.366 1.145-9.679 4.145-12.821 3.908-4.093 10.564-6.168 19.782-6.168 16.999 0 27.148 7.647 27.148 20.457 0 5.112-2.578 9.53-6.953 12.025" fill="#fff"/>
   </g>
   <g transform="translate(433.59 76.109)">
    <path d="m0 0c0-4.134-3.077-5.002-5.659-5.002h-2.179l1.704 8.201h2.771c2.295 0 3.363-1.017 3.363-3.199m-3.363 5.659h-4.773l-2.725-13.121h5.202c5.083 0 8.119 2.79 8.119 7.462 0 3.543-2.177 5.659-5.823 5.659" fill="#fff"/>
   </g>
   <g transform="translate(608.64 51.807)">
    <path d="m0 0-1.216-1.895h23.097l-4.423-11.939h-42.938l0.19 0.884c2.714 12.693 7.619 19.21 20.187 26.819l1.154 0.7c7.869 4.773 11.126 6.749 11.126 12.21 0 2.587-1.38 4.194-3.602 4.194-3.379 0-4.857-3.065-5.976-7.708h-16.414c2.517 11.632 10.531 17.529 23.83 17.529 13.052 0 20.538-5.51 20.538-15.117 0-8.027-3.158-12.001-14.082-17.715-6.376-3.359-10.235-6.038-11.471-7.962m28.012 25.677c0 5.285-2.24 17.576-22.997 17.576-15.222 0-23.902-6.867-26.534-20.992l-0.271-1.455h21.353l0.215 0.963c1.384 6.223 2.686 6.744 3.797 6.744 0.342 0 1.143 0 1.143-1.734 0-4.076-2.304-5.474-9.943-10.107l-1.154-0.7c-13.254-8.025-18.435-14.928-21.317-28.407l-0.826-3.858h47.69l6.249 16.858h-21.39c1.858 1.435 4.788 3.219 8.587 5.219 11.801 6.173 15.398 10.821 15.398 19.893" fill="#fff"/>
   </g>
   <g transform="translate(542.49 92.102)">
    <path d="m0 0c15.355 0 24.522-8.431 24.522-22.554 0-29.298-25.486-31.575-33.297-31.575h-25.711l11.454 54.129zm0 2.46h-25.026l-12.495-59.048h28.746c13.026 0 22.753 4.055 28.91 12.054 5.957 7.738 6.846 17.093 6.846 21.98 0 15.663-10.086 25.014-26.981 25.014" fill="#fff"/>
   </g>
   <g transform="translate(539.87 78.324)">
    <path d="m0 0c3.086 0 4.758-1.098 4.758-6.89 0-6.649-2.799-19.683-9.268-19.683h-2.906l5.705 26.573zm4.812-20.238c1.775 4.742 2.406 10.154 2.406 13.348 0 4.353-0.821 9.35-7.218 9.35h-3.7l-6.76-31.492h5.95c3.944 0 7.168 3.041 9.322 8.794" fill="#fff"/>
   </g>
   <g transform="translate(669.7 80.489)">
    <path d="m0 0c0.428 0 0.52-0.113 0.563-0.167 1.025-1.266-0.48-8.309-1.937-15.121-1.092-5.209-3.365-16.047-5.741-16.047-0.255 0-0.309 0.066-0.355 0.123-1.294 1.602 0.823 11.457 1.728 15.675 2.888 13.926 4.66 15.537 5.742 15.537m-7.115-33.795c3.765 0 5.485 5.307 8.148 17.997 2.375 11.11 3.062 15.176 1.442 17.178-0.579 0.716-1.412 1.08-2.475 1.08-3.063 0-5.064-2.619-8.15-17.494-2.472-11.514-2.771-15.82-1.232-17.723 0.546-0.68 1.331-1.038 2.267-1.038" fill="#fff"/>
   </g>
   <g transform="translate(428.5 37.973)">
    <path d="m0 0c-0.063 2.273 0.446 5.855 1.624 11.471 0.558 2.603 0.983 5.291-0.442 7.054-1 1.238-2.675 1.814-5.271 1.814h-4.037l-4.183-20.339h-18.721l11.453 54.129h27.38c11.76 0 18.781-4.967 18.781-13.286 0-6.939-3.969-11.938-11.176-14.075l-3.528-1.047 3.448-1.286c5.802-2.162 5.726-8.675 4.641-13.757-0.717-3.284-1.603-7.932-1.849-10.678zm29.044 40.843c0 3.694-1.532 15.745-21.241 15.745h-29.374l-12.494-59.048h23.761l4.183 20.34h2.032c1.745 0 2.875-0.303 3.358-0.901 0.67-0.829 0.464-2.596-0.051-4.998-1.445-6.891-1.916-10.892-1.572-13.379l0.147-1.062h22.721v1.23c0 1.688 0.764 6.371 1.859 11.39 1.502 7.034 0.219 12.385-3.609 15.205 6.638 2.856 10.28 8.319 10.28 15.478" fill="#fff"/>
   </g>
   <g transform="translate(456.59 37.973)">
    <path d="m0 0 11.454 54.129h19.137l-8.939-42.237h23.367l-4.417-11.892zm24.686 14.352 8.939 42.236h-24.165l-12.494-59.048h45.346l6.245 16.812z" fill="#fff"/>
   </g>
   <g transform="translate(670.04 92.771)">
    <path d="m0 0c13.408 0 20.792-7.084 20.792-19.946 0-13.385-6.074-36.037-28.839-36.037-13.628 0-20.538 6.853-20.538 20.368 0 14.316 7.612 35.615 28.585 35.615m0 2.46c-10.248 0-18.628-4.656-24.235-13.466-4.265-6.7-6.81-15.899-6.81-24.609 0-14.934 7.953-22.828 22.998-22.828 24.706 0 31.299 24.198 31.299 38.497 0 14.239-8.476 22.406-23.252 22.406" fill="#fff"/>
   </g>
  </g>
 </g>
</svg>
