<?xml version="1.0" encoding="UTF-8"?><svg id="Layer_1" xmlns="http://www.w3.org/2000/svg" viewBox="0 0 1079 544.77"><defs><style>.cls-1{fill:#fff;stroke-width:0px;}</style></defs><polygon class="cls-1" points="648.61 30.1 584.45 30.1 584.45 255.92 735.82 255.92 735.82 197.74 648.61 197.74 648.61 30.1"/><rect class="cls-1" x="483.75" y="30.07" width="64.42" height="225.81"/><path class="cls-1" d="m920.51,169.82c-.05-7.51-1.96-14.77-5.39-21.46-10.86-21.19-28.51-32.37-52.1-33.35-16.83-.71-53.78-.17-53.78-.17l-.14-27.04,103.14.05V29.79s-65.58.05-96.73-.02c-10.49-.02-20.39,2.28-29.54,7.3-18.64,10.24-30.11,25.64-31.87,47.13-.82,10.02-.53,20.16-.27,30.24.21,7.93,2.16,15.62,6.02,22.59,11.87,21.43,30.49,31.92,54.67,32.57,14.97.4,47.92.08,47.92.08v28.06h-105.51v58.17s70.02.06,103.74-.07c4.32-.02,8.72-.6,12.95-1.52,25.04-5.44,43.05-24.18,46.17-49.44,1.43-11.54.79-23.37.72-35.06"/><path class="cls-1" d="m386.89,151.44h-58.66v-53.25c0-7.89,6.39-14.28,14.28-14.28h30.1c7.89,0,14.28,6.4,14.28,14.28v53.25Zm52.88-92.68c-12.06-19.44-30.5-27.96-52.59-28.68-20.26-.66-40.56-.15-60.84-.13-7.05,0-13.99.88-20.69,3.19-22.46,7.72-39.32,31.62-39.35,56.13-.07,54.73-.02,166.65-.02,166.65h62.18v-58.17h58.69v58.12h60.32s0-140.42,0-165.91c0-11.04-1.81-21.7-7.7-31.2"/><path class="cls-1" d="m171.13,127.07c0,7.63-6.18,13.81-13.81,13.81h-49.32v-58.66h49.32c7.63,0,13.81,6.18,13.81,13.81v31.05Zm57.07,21.26c8.16-17.38,9.65-35.84,7.25-54.65-3.42-26.86-17.52-46.21-41.99-57.83-10.53-4.99-21.53-7.69-33.41-7.6-36.79.29-113.34.1-113.34.1v227.54h61.21v-58.14l53.1,58.18h90.48s-71.05-71.52-70.71-71.59c21.18-4.19,38.25-16.51,47.41-36"/><path class="cls-1" d="m46.95,439.5l-.24-168.76h65.06c-3.91,32.53-9.05,73.13-13.45,104.68h1.47c15.9-44.27,23.23-64.57,36.93-104.68h57.48c-2.45,39.62-3.42,60.9-6.6,102.48l1.47.24c7.34-27.64,20.79-73.62,29.35-102.72h61.63l-72.88,168.76h-65.55c1.47-31.31,4.89-60.17,7.09-96.36h-.98c-11.01,32.77-24.21,67.5-35.22,96.36H46.95Z"/><path class="cls-1" d="m435.96,339.71c0,46.96-25.19,104.19-101.99,104.19-56.25,0-76.55-34.49-76.55-70.93,0-51.36,31.06-106.64,100.52-106.64,53.81,0,78.02,33.02,78.02,73.37Zm-112.51,38.4c0,11.74,2.69,23.72,16.14,23.72,24.7,0,31.8-53.07,31.8-69.46,0-10.52-1.96-23.97-15.9-23.97-23.97,0-32.04,51.36-32.04,69.7Z"/><path class="cls-1" d="m501.87,378.84l-12.47,60.66h-63.35l35.71-168.76h84.62c42.8,0,59.68,20.54,59.68,43.29s-13.7,38.89-35.95,45.49c14.43,5.38,21.52,20.06,16.14,45.25-2.94,13.45-5.63,28.86-5.63,34.73h-60.9c-.98-7.09.49-18.83,4.65-38.64,2.93-13.7,2.93-22.01-13.45-22.01h-9.05Zm8.56-38.15h11.01c12.72,0,20.54-6.36,20.54-18.59,0-7.09-3.42-13.21-13.7-13.21h-11.25l-6.6,31.8Z"/><path class="cls-1" d="m629.05,270.74h64.57l-26.66,125.96h70.44l-15.9,42.8h-128.16l35.71-168.76Z"/><path class="cls-1" d="m772.26,270.74h71.66c51.85,0,76.8,30.33,76.8,70.93,0,38.4-18.1,97.83-102.97,97.83h-81.2l35.71-168.76Zm37.18,127.67h13.21c23.23,0,31.31-42.8,31.31-62.37,0-16.14-4.16-24.21-17.85-24.21h-8.07l-18.59,86.58Z"/><path class="cls-1" d="m988.81,36.29c24.35,0,35.56,11.21,35.56,26.7,0,14.53-6.09,21.31-24.07,30.72-5.26,2.77-15.5,8.44-17.99,12.31h36.94l-8.72,23.52h-74.02l.83-3.87c4.7-22,13.56-32.79,33.9-45.11,14.11-8.58,19.09-11.21,19.09-19.37,0-2.91-1.25-4.84-3.87-4.84-4.15,0-6.23,3.87-8.16,12.59h-30.85c2.63-14.11,10.38-32.65,41.37-32.65m0-6.2c-15.51,0-27.55,4.35-35.79,12.94-5.89,6.14-9.71,14.24-11.67,24.77-.34,1.81.15,3.68,1.33,5.1,1.18,1.42,2.92,2.24,4.77,2.24h20.79l-.21.13c-22.53,13.64-31.81,26.03-36.74,49.11l-.83,3.87c-.39,1.83.06,3.74,1.24,5.2,1.18,1.46,2.95,2.3,4.82,2.3h74.02c2.59,0,4.91-1.61,5.81-4.04l8.72-23.52c.7-1.9.43-4.03-.72-5.69-1.16-1.67-3.06-2.66-5.09-2.66h-17.26c.39-.21.78-.42,1.19-.63,18.16-9.5,27.39-17.71,27.39-36.2,0-9.88-3.78-18.17-10.94-23.98-7.3-5.92-17.67-8.92-30.81-8.92h0Z"/><path class="cls-1" d="m990.12,137.27c24.49,0,35.97,13.7,35.97,34.59s-9.41,60.88-49.12,60.88c-26.01,0-35.56-14.94-35.56-35.28,0-24.07,12.59-60.19,48.7-60.19m-12.18,75.27c4.43,0,7.19-8.03,11.35-27.81,4.29-20.06,5.53-27.4.28-27.4-3.6,0-6.64,4.29-11.35,26.98-4.43,20.62-4.84,28.23-.28,28.23m12.18-81.47c-18.24,0-33.16,8.28-43.12,23.94-7.49,11.76-11.78,27.23-11.78,42.45,0,12.41,3.23,22.31,9.61,29.41,7.19,8.01,18.01,12.07,32.15,12.07,19.58,0,35.07-8.85,44.81-25.58,9.48-16.3,10.51-34.45,10.51-41.5,0-12.24-3.66-22.43-10.58-29.47-7.38-7.51-18.01-11.31-31.59-11.31h0Z"/><path class="cls-1" d="m988.81,238.8c24.35,0,35.56,11.21,35.56,26.7,0,14.53-6.09,21.31-24.07,30.72-5.26,2.77-15.5,8.44-17.99,12.31h36.94l-8.72,23.52h-74.02l.83-3.87c4.7-22,13.56-32.79,33.9-45.11,14.11-8.58,19.09-11.21,19.09-19.37,0-2.91-1.25-4.84-3.87-4.84-4.15,0-6.23,3.87-8.16,12.59h-30.85c2.63-14.11,10.38-32.65,41.37-32.65m0-6.2c-15.51,0-27.55,4.35-35.79,12.94-5.89,6.14-9.71,14.24-11.67,24.77-.34,1.81.15,3.68,1.33,5.1,1.18,1.42,2.92,2.24,4.77,2.24h20.79l-.21.13c-22.53,13.64-31.81,26.03-36.74,49.11l-.83,3.87c-.39,1.83.06,3.74,1.24,5.2,1.18,1.46,2.95,2.3,4.82,2.3h74.02c2.59,0,4.91-1.61,5.81-4.04l8.72-23.52c.7-1.9.43-4.03-.72-5.69-1.16-1.67-3.06-2.66-5.09-2.66h-17.26c.39-.21.78-.42,1.19-.63,18.16-9.5,27.39-17.71,27.39-36.2,0-9.88-3.78-18.17-10.94-23.98-7.3-5.92-17.67-8.92-30.81-8.92h0Z"/><path class="cls-1" d="m1025.06,341.71l-10.79,50.09h9.69l-6.36,23.38h-8.16l-3.74,18.13h-31.82l3.74-18.13h-40.4l4.43-20.62,40.26-52.85h43.17m-35.56,22c-4.29,7.33-12.31,19.51-17.99,28.09h10.93l1.25-5.26c1.11-5.12,4.01-16.47,5.81-22.83m35.56-28.2h-43.17c-1.93,0-3.76.9-4.93,2.44l-40.26,52.85c-.55.73-.94,1.56-1.13,2.45l-4.43,20.62c-.39,1.83.06,3.74,1.24,5.2,1.18,1.46,2.95,2.3,4.82,2.3h32.8l-2.2,10.68c-.38,1.82.09,3.72,1.27,5.17,1.18,1.44,2.94,2.28,4.8,2.28h31.82c2.94,0,5.48-2.07,6.07-4.95l2.72-13.18h3.11c2.8,0,5.25-1.87,5.98-4.57l6.36-23.38c.51-1.86.12-3.86-1.06-5.39-1.17-1.53-2.99-2.43-4.92-2.43h-2.01l9.18-42.58c.39-1.83-.06-3.74-1.24-5.2-1.18-1.46-2.95-2.3-4.82-2.3h0Z"/><path class="cls-1" d="m215.17,511.05l.3-1.4c1.7-7.96,4.9-11.86,12.26-16.31,5.1-3.1,6.91-4.05,6.91-7.01,0-1.05-.45-1.75-1.4-1.75-1.5,0-2.25,1.4-2.95,4.55h-11.16c.95-5.1,3.75-11.81,14.96-11.81,8.81,0,12.86,4.05,12.86,9.66,0,5.25-2.2,7.71-8.71,11.11-1.9,1-5.6,3.05-6.51,4.45h13.36l-3.15,8.51h-26.77Z"/><path class="cls-1" d="m274.61,486.73c.1-1.7-.2-2.8-1.75-2.8-1.8,0-3.15,1.85-4.15,7.11,1.6-1.55,3.95-2.3,6.81-2.3,5.05,0,8.66,3.1,8.66,8.66,0,9.01-6.51,14.36-16.06,14.36s-13.31-4.95-13.31-13.31c0-7.01,3.45-21.22,17.71-21.22,11.71,0,12.81,6.26,12.81,9.51h-10.71Zm-3.3,11.06c0-1.05-.3-2.15-1.6-2.15-2,0-3,3.65-3,6.81,0,1.4.5,2.35,1.65,2.35,1.95,0,2.95-4.2,2.95-7.01Z"/><path class="cls-1" d="m341.62,490.03l-12.51,11.86c-5.85,5.5-10.11,9.91-19.47,9.91-8.51,0-12.81-4.5-12.81-9.96,0-5.75,4.55-9.01,13.86-11.56,6.31-1.85,7.26-3.95,7.26-5.86,0-1.35-.75-2.2-1.85-2.2-1.25,0-2.2,1.05-2.2,2.45s1,2.95,2.45,4.2l22.42,22.17h-14.91l-17.96-18.21c-2.05-2.15-2.95-4.35-2.95-6.26,0-6.46,4.9-10.81,13.16-10.81,7.56,0,12.21,3.45,12.21,8.56,0,4.75-3.45,7.76-13.41,10.31-5.4,1.45-6.71,3.6-6.71,5.25,0,2.05,1.4,3.65,4.1,3.65,3.25,0,5-2.25,9.91-6.9l6.96-6.61h12.46Z"/><path class="cls-1" d="m351.13,511.05l.3-1.4c1.7-7.96,4.9-11.86,12.26-16.31,5.1-3.1,6.91-4.05,6.91-7.01,0-1.05-.45-1.75-1.4-1.75-1.5,0-2.25,1.4-2.95,4.55h-11.16c.95-5.1,3.75-11.81,14.96-11.81,8.81,0,12.86,4.05,12.86,9.66,0,5.25-2.2,7.71-8.71,11.11-1.9,1-5.6,3.05-6.51,4.45h13.36l-3.15,8.51h-26.77Z"/><path class="cls-1" d="m420.13,477.92l-1.6,7.51c-6.71,7.51-12.76,17.06-15.76,25.62h-13.31c2.65-7.81,10.26-19.07,16.26-24.37h-14.06l1.9-8.76h26.57Z"/><path class="cls-1" d="m59.07,500.14c.2,2,1.35,3.5,3.7,3.5,1.55,0,2.95-.6,2.95-2.3,0-1.6-1.35-2.35-4.9-3.45-7.76-2.4-11.16-5.15-11.16-10.11,0-7.4,5.7-12.16,15.56-12.16,9.06,0,15.36,3.6,15.41,11.11h-12.31c0-1.25-.55-2.85-3-2.85-1.65,0-2.4.8-2.4,1.95,0,1.3,1.55,2.1,5.2,3.15,9.06,2.65,11.36,6.3,11.36,10.81,0,8.51-7.56,12.16-16.91,12.16-10.86,0-15.66-4.65-15.86-11.81h12.36Z"/><path class="cls-1" d="m116.01,498.13h-14.11l-.9,4.15h16.31l-3.2,8.76h-27.42l7.31-34.53h27.17l-1.8,8.76h-14.66l-.9,4.1h14.11l-1.9,8.76Z"/><path class="cls-1" d="m132.07,476.52h16.21c8.96,0,12.81,4.75,12.81,10.21,0,7.36-5.55,12.61-15.26,12.61h-5.9l-2.4,11.71h-12.76l7.31-34.53Zm9.61,14.86h2.05c2.7,0,4.2-1.45,4.2-4.2,0-1.8-.85-2.75-3.05-2.75h-1.65l-1.55,6.96Z"/><path class="cls-1" d="m177.15,485.27h-8.61l1.9-8.76h30.27l-1.9,8.76h-8.51l-5.4,25.77h-13.16l5.4-25.77Z"/><path class="cls-1" d="m461.19,511.05l.3-1.4c1.7-7.96,4.9-11.86,12.26-16.31,5.1-3.1,6.91-4.05,6.91-7.01,0-1.05-.45-1.75-1.4-1.75-1.5,0-2.25,1.4-2.95,4.55h-11.16c.95-5.1,3.75-11.81,14.96-11.81,8.81,0,12.86,4.05,12.86,9.66,0,5.25-2.2,7.71-8.71,11.11-1.9,1-5.6,3.05-6.51,4.45h13.36l-3.15,8.51h-26.77Z"/><path class="cls-1" d="m531.2,489.73c0,7.66-3.4,22.02-17.76,22.02-9.41,0-12.86-5.41-12.86-12.76,0-8.71,4.55-21.77,17.61-21.77,8.86,0,13.01,4.95,13.01,12.51Zm-17.31,4.5c-1.6,7.46-1.75,10.21-.1,10.21s2.6-2.9,4.1-10.06c1.55-7.26,2-9.91.1-9.91-1.3,0-2.4,1.55-4.1,9.76Z"/><path class="cls-1" d="m536.8,511.05l.3-1.4c1.7-7.96,4.9-11.86,12.26-16.31,5.1-3.1,6.91-4.05,6.91-7.01,0-1.05-.45-1.75-1.4-1.75-1.5,0-2.25,1.4-2.95,4.55h-11.16c.95-5.1,3.75-11.81,14.96-11.81,8.81,0,12.86,4.05,12.86,9.66,0,5.25-2.2,7.71-8.71,11.11-1.9,1-5.6,3.05-6.51,4.45h13.36l-3.15,8.51h-26.77Z"/><path class="cls-1" d="m587.83,511.05l1.35-6.56h-14.61l1.6-7.46,14.56-19.12h15.61l-3.9,18.12h3.5l-2.3,8.46h-2.95l-1.35,6.56h-11.51Zm3.55-16.91c.4-1.85,1.45-5.96,2.1-8.26-1.55,2.65-4.45,7.06-6.51,10.16h3.95l.45-1.9Z"/><path class="cls-1" d="m608.8,515.75c3.1-5.25,5.5-11.46,6.51-16.66h10.36c-1.2,5.31-4.25,12.16-8.11,16.66h-8.76Z"/><path class="cls-1" d="m420.52,515.75c3.1-5.25,5.5-11.46,6.51-16.66h10.36c-1.2,5.31-4.25,12.16-8.11,16.66h-8.76Z"/><path class="cls-1" d="m659.63,485.27h-8.61l1.9-8.76h30.27l-1.9,8.76h-8.51l-5.4,25.77h-13.16l5.4-25.77Z"/><path class="cls-1" d="m723.63,490.63c0,9.61-5.15,21.32-20.87,21.32-11.51,0-15.66-7.06-15.66-14.51,0-10.51,6.35-21.82,20.57-21.82,11.01,0,15.96,6.76,15.96,15.01Zm-23.02,7.86c0,2.4.55,4.85,3.3,4.85,5.05,0,6.51-10.86,6.51-14.21,0-2.15-.4-4.9-3.25-4.9-4.9,0-6.56,10.51-6.56,14.26Z"/><path class="cls-1" d="m744.89,498.63l-2.55,12.41h-12.96l7.31-34.53h17.31c8.76,0,12.21,4.2,12.21,8.86s-2.8,7.96-7.36,9.31c2.95,1.1,4.4,4.1,3.3,9.26-.6,2.75-1.15,5.9-1.15,7.11h-12.46c-.2-1.45.1-3.85.95-7.91.6-2.8.6-4.5-2.75-4.5h-1.85Zm1.75-7.81h2.25c2.6,0,4.2-1.3,4.2-3.8,0-1.45-.7-2.7-2.8-2.7h-2.3l-1.35,6.51Z"/><path class="cls-1" d="m809.64,490.63c0,9.61-5.15,21.32-20.87,21.32-11.51,0-15.66-7.06-15.66-14.51,0-10.51,6.35-21.82,20.57-21.82,11.01,0,15.96,6.76,15.96,15.01Zm-23.02,7.86c0,2.4.55,4.85,3.3,4.85,5.05,0,6.51-10.86,6.51-14.21,0-2.15-.4-4.9-3.25-4.9-4.9,0-6.56,10.51-6.56,14.26Z"/><path class="cls-1" d="m815.39,511.05l7.31-34.53h15.26c.7,9.31.95,14.61,1.3,19.56h.25c.55-3.9,1.7-10.96,2.8-16.16l.7-3.4h12.11l-7.31,34.53h-14.61c-.6-6.66-1.3-15.01-1.65-20.47h-.2c-.4,4.05-1.75,10.46-3,16.36l-.85,4.1h-12.11Z"/><path class="cls-1" d="m870.58,485.27h-8.61l1.9-8.76h30.27l-1.9,8.76h-8.51l-5.4,25.77h-13.16l5.4-25.77Z"/><path class="cls-1" d="m934.58,490.63c0,9.61-5.15,21.32-20.87,21.32-11.51,0-15.66-7.06-15.66-14.51,0-10.51,6.35-21.82,20.57-21.82,11.01,0,15.96,6.76,15.96,15.01Zm-23.02,7.86c0,2.4.55,4.85,3.3,4.85,5.05,0,6.51-10.86,6.51-14.21,0-2.15-.4-4.9-3.25-4.9-4.9,0-6.56,10.51-6.56,14.26Z"/><path class="cls-1" d="m991.66,498.49c-2.45,10.11-9.91,13.46-18.61,13.46-10.71,0-15.06-6.26-15.06-14.51,0-9.91,5.5-21.82,20.22-21.82,10.91,0,15.51,5.96,15.01,13.11h-12.91c.15-2.55-.25-4.55-2.7-4.55-4.45,0-6.11,10.36-6.11,14.71,0,2.45.7,4.35,2.8,4.35,2.5,0,3.55-2.1,4.4-4.75h12.96Z"/><path class="cls-1" d="m1011.67,504.74l-2.35,6.31h-13.51l16.51-34.53h17.71l2.25,34.53h-13.16v-6.31h-7.46Zm7.61-8.76c0-2.25-.05-7.51-.05-10.66h-.3c-1.4,4.3-2.6,7.36-3.85,10.66h4.2Z"/></svg>