<?xml version="1.0" encoding="UTF-8"?><svg id="Layer_1" xmlns="http://www.w3.org/2000/svg" viewBox="0 0 1079 544.77"><defs><style>.cls-1{fill:#fff;stroke-width:0px;}</style></defs><polygon class="cls-1" points="648.61 30.1 584.45 30.1 584.45 255.92 735.82 255.92 735.82 197.74 648.61 197.74 648.61 30.1"/><rect class="cls-1" x="483.75" y="30.07" width="64.42" height="225.81"/><path class="cls-1" d="m920.51,169.82c-.05-7.51-1.96-14.77-5.39-21.46-10.86-21.19-28.51-32.37-52.1-33.35-16.83-.71-53.78-.17-53.78-.17l-.14-27.04,103.14.05V29.79s-65.58.05-96.73-.02c-10.49-.02-20.39,2.28-29.54,7.3-18.64,10.24-30.11,25.64-31.87,47.13-.82,10.02-.53,20.16-.27,30.24.21,7.93,2.16,15.62,6.02,22.59,11.87,21.43,30.49,31.92,54.67,32.57,14.97.4,47.92.08,47.92.08v28.06h-105.51v58.17s70.02.06,103.74-.07c4.32-.02,8.72-.6,12.95-1.52,25.04-5.44,43.05-24.18,46.17-49.44,1.43-11.54.79-23.37.72-35.06"/><path class="cls-1" d="m386.89,151.44h-58.66v-53.25c0-7.89,6.39-14.28,14.28-14.28h30.1c7.89,0,14.28,6.4,14.28,14.28v53.25Zm52.88-92.68c-12.06-19.44-30.5-27.96-52.59-28.68-20.26-.66-40.56-.15-60.84-.13-7.05,0-13.99.88-20.69,3.19-22.46,7.72-39.32,31.62-39.35,56.13-.07,54.73-.02,166.65-.02,166.65h62.18v-58.17h58.69v58.12h60.32s0-140.42,0-165.91c0-11.04-1.81-21.7-7.7-31.2"/><path class="cls-1" d="m171.13,127.07c0,7.63-6.18,13.81-13.81,13.81h-49.32v-58.66h49.32c7.63,0,13.81,6.18,13.81,13.81v31.05Zm57.07,21.26c8.16-17.38,9.65-35.84,7.25-54.65-3.42-26.86-17.52-46.21-41.99-57.83-10.53-4.99-21.53-7.69-33.41-7.6-36.79.29-113.34.1-113.34.1v227.54h61.21v-58.14l53.1,58.18h90.48s-71.05-71.52-70.71-71.59c21.18-4.19,38.25-16.51,47.41-36"/><path class="cls-1" d="m46.95,439.5l-.24-168.76h65.06c-3.91,32.53-9.05,73.13-13.45,104.68h1.47c15.9-44.27,23.23-64.57,36.93-104.68h57.48c-2.45,39.62-3.42,60.9-6.6,102.48l1.47.24c7.34-27.64,20.79-73.62,29.35-102.72h61.63l-72.88,168.76h-65.55c1.47-31.31,4.89-60.17,7.09-96.36h-.98c-11.01,32.77-24.21,67.5-35.22,96.36H46.95Z"/><path class="cls-1" d="m435.96,339.71c0,46.96-25.19,104.19-101.99,104.19-56.25,0-76.55-34.49-76.55-70.93,0-51.36,31.06-106.64,100.52-106.64,53.81,0,78.02,33.02,78.02,73.37Zm-112.51,38.4c0,11.74,2.69,23.72,16.14,23.72,24.7,0,31.8-53.07,31.8-69.46,0-10.52-1.96-23.97-15.9-23.97-23.97,0-32.04,51.36-32.04,69.7Z"/><path class="cls-1" d="m501.87,378.84l-12.47,60.66h-63.35l35.71-168.76h84.62c42.8,0,59.68,20.54,59.68,43.29s-13.7,38.89-35.95,45.49c14.43,5.38,21.52,20.06,16.14,45.25-2.94,13.45-5.63,28.86-5.63,34.73h-60.9c-.98-7.09.49-18.83,4.65-38.64,2.93-13.7,2.93-22.01-13.45-22.01h-9.05Zm8.56-38.15h11.01c12.72,0,20.54-6.36,20.54-18.59,0-7.09-3.42-13.21-13.7-13.21h-11.25l-6.6,31.8Z"/><path class="cls-1" d="m629.05,270.74h64.57l-26.66,125.96h70.44l-15.9,42.8h-128.16l35.71-168.76Z"/><path class="cls-1" d="m772.26,270.74h71.66c51.85,0,76.8,30.33,76.8,70.93,0,38.4-18.1,97.83-102.97,97.83h-81.2l35.71-168.76Zm37.18,127.67h13.21c23.23,0,31.31-42.8,31.31-62.37,0-16.14-4.16-24.21-17.85-24.21h-8.07l-18.59,86.58Z"/><path class="cls-1" d="m988.81,36.29c24.35,0,35.56,11.21,35.56,26.7,0,14.53-6.09,21.31-24.07,30.72-5.26,2.77-15.5,8.44-17.99,12.31h36.94l-8.72,23.52h-74.02l.83-3.87c4.7-22,13.56-32.79,33.9-45.11,14.11-8.58,19.09-11.21,19.09-19.37,0-2.91-1.25-4.84-3.87-4.84-4.15,0-6.23,3.87-8.16,12.59h-30.85c2.63-14.11,10.38-32.65,41.37-32.65m0-6.2c-15.51,0-27.55,4.35-35.79,12.94-5.89,6.14-9.71,14.24-11.67,24.77-.34,1.81.15,3.68,1.33,5.1,1.18,1.42,2.92,2.24,4.77,2.24h20.79l-.21.13c-22.53,13.64-31.81,26.03-36.74,49.11l-.83,3.87c-.39,1.83.06,3.74,1.24,5.2,1.18,1.46,2.95,2.3,4.82,2.3h74.02c2.59,0,4.91-1.61,5.81-4.04l8.72-23.52c.7-1.9.43-4.03-.72-5.69-1.16-1.67-3.06-2.66-5.09-2.66h-17.26c.39-.21.78-.42,1.19-.63,18.16-9.5,27.39-17.71,27.39-36.2,0-9.88-3.78-18.17-10.94-23.98-7.3-5.92-17.67-8.92-30.81-8.92h0Z"/><path class="cls-1" d="m990.12,137.27c24.49,0,35.97,13.7,35.97,34.59s-9.41,60.88-49.12,60.88c-26.01,0-35.56-14.94-35.56-35.28,0-24.07,12.59-60.19,48.7-60.19m-12.18,75.27c4.43,0,7.19-8.03,11.35-27.81,4.29-20.06,5.53-27.4.28-27.4-3.6,0-6.64,4.29-11.35,26.98-4.43,20.62-4.84,28.23-.28,28.23m12.18-81.47c-18.24,0-33.16,8.28-43.12,23.94-7.49,11.76-11.78,27.23-11.78,42.45,0,12.41,3.23,22.31,9.61,29.41,7.19,8.01,18.01,12.07,32.15,12.07,19.58,0,35.07-8.85,44.81-25.58,9.48-16.3,10.51-34.45,10.51-41.5,0-12.24-3.66-22.43-10.58-29.47-7.38-7.51-18.01-11.31-31.59-11.31h0Z"/><path class="cls-1" d="m988.81,238.8c24.35,0,35.56,11.21,35.56,26.7,0,14.53-6.09,21.31-24.07,30.72-5.26,2.77-15.5,8.44-17.99,12.31h36.94l-8.72,23.52h-74.02l.83-3.87c4.7-22,13.56-32.79,33.9-45.11,14.11-8.58,19.09-11.21,19.09-19.37,0-2.91-1.25-4.84-3.87-4.84-4.15,0-6.23,3.87-8.16,12.59h-30.85c2.63-14.11,10.38-32.65,41.37-32.65m0-6.2c-15.51,0-27.55,4.35-35.79,12.94-5.89,6.14-9.71,14.24-11.67,24.77-.34,1.81.15,3.68,1.33,5.1,1.18,1.42,2.92,2.24,4.77,2.24h20.79l-.21.13c-22.53,13.64-31.81,26.03-36.74,49.11l-.83,3.87c-.39,1.83.06,3.74,1.24,5.2,1.18,1.46,2.95,2.3,4.82,2.3h74.02c2.59,0,4.91-1.61,5.81-4.04l8.72-23.52c.7-1.9.43-4.03-.72-5.69-1.16-1.67-3.06-2.66-5.09-2.66h-17.26c.39-.21.78-.42,1.19-.63,18.16-9.5,27.39-17.71,27.39-36.2,0-9.88-3.78-18.17-10.94-23.98-7.3-5.92-17.67-8.92-30.81-8.92h0Z"/><path class="cls-1" d="m1025.06,341.71l-10.79,50.09h9.69l-6.36,23.38h-8.16l-3.74,18.13h-31.82l3.74-18.13h-40.4l4.43-20.62,40.26-52.85h43.17m-35.56,22c-4.29,7.33-12.31,19.51-17.99,28.09h10.93l1.25-5.26c1.11-5.12,4.01-16.47,5.81-22.83m35.56-28.2h-43.17c-1.93,0-3.76.9-4.93,2.44l-40.26,52.85c-.55.73-.94,1.56-1.13,2.45l-4.43,20.62c-.39,1.83.06,3.74,1.24,5.2,1.18,1.46,2.95,2.3,4.82,2.3h32.8l-2.2,10.68c-.38,1.82.09,3.72,1.27,5.17,1.18,1.44,2.94,2.28,4.8,2.28h31.82c2.94,0,5.48-2.07,6.07-4.95l2.72-13.18h3.11c2.8,0,5.25-1.87,5.98-4.57l6.36-23.38c.51-1.86.12-3.86-1.06-5.39-1.17-1.53-2.99-2.43-4.92-2.43h-2.01l9.18-42.58c.39-1.83-.06-3.74-1.24-5.2-1.18-1.46-2.95-2.3-4.82-2.3h0Z"/><path class="cls-1" d="m255.19,513.37l.37-1.73c2.11-9.85,6.07-14.68,15.17-20.19,6.32-3.84,8.55-5.02,8.55-8.67,0-1.3-.56-2.17-1.73-2.17-1.86,0-2.79,1.73-3.65,5.64h-13.81c1.18-6.32,4.65-14.62,18.52-14.62,10.9,0,15.92,5.02,15.92,11.95,0,6.5-2.72,9.54-10.78,13.75-2.35,1.24-6.94,3.78-8.05,5.51h16.54l-3.9,10.53h-33.13Z"/><path class="cls-1" d="m328.76,483.27c.12-2.11-.25-3.47-2.17-3.47-2.23,0-3.9,2.29-5.14,8.79,1.98-1.92,4.89-2.85,8.42-2.85,6.25,0,10.71,3.84,10.71,10.71,0,11.15-8.05,17.78-19.88,17.78s-16.47-6.13-16.47-16.47c0-8.67,4.27-26.26,21.92-26.26,14.49,0,15.85,7.74,15.85,11.77h-13.25Zm-4.09,13.69c0-1.3-.37-2.66-1.98-2.66-2.48,0-3.72,4.52-3.72,8.42,0,1.73.62,2.91,2.04,2.91,2.41,0,3.65-5.2,3.65-8.67Z"/><path class="cls-1" d="m411.69,487.36l-15.48,14.68c-7.25,6.81-12.51,12.26-24.09,12.26-10.53,0-15.85-5.57-15.85-12.32,0-7.12,5.64-11.15,17.15-14.3,7.8-2.29,8.98-4.89,8.98-7.25,0-1.67-.93-2.72-2.29-2.72-1.55,0-2.72,1.3-2.72,3.03s1.24,3.65,3.03,5.2l27.74,27.43h-18.45l-22.23-22.54c-2.54-2.66-3.65-5.39-3.65-7.74,0-7.99,6.07-13.38,16.29-13.38,9.35,0,15.11,4.27,15.11,10.59,0,5.88-4.27,9.6-16.6,12.76-6.69,1.8-8.3,4.46-8.3,6.5,0,2.54,1.73,4.52,5.08,4.52,4.03,0,6.19-2.79,12.26-8.55l8.61-8.18h15.42Z"/><path class="cls-1" d="m423.45,513.37l.37-1.73c2.11-9.85,6.07-14.68,15.17-20.19,6.32-3.84,8.55-5.02,8.55-8.67,0-1.3-.56-2.17-1.73-2.17-1.86,0-2.79,1.73-3.65,5.64h-13.81c1.18-6.32,4.65-14.62,18.52-14.62,10.9,0,15.92,5.02,15.92,11.95,0,6.5-2.72,9.54-10.78,13.75-2.35,1.24-6.94,3.78-8.05,5.51h16.54l-3.9,10.53h-33.13Z"/><path class="cls-1" d="m508.85,472.37l-1.98,9.29c-8.3,9.29-15.79,21.12-19.51,31.71h-16.47c3.28-9.66,12.7-23.6,20.13-30.16h-17.4l2.35-10.84h32.88Z"/><path class="cls-1" d="m62.01,499.87c.25,2.48,1.67,4.33,4.58,4.33,1.92,0,3.65-.74,3.65-2.85,0-1.98-1.67-2.91-6.07-4.27-9.6-2.97-13.81-6.38-13.81-12.51,0-9.16,7.06-15.05,19.26-15.05,11.21,0,19.01,4.46,19.07,13.75h-15.23c0-1.55-.68-3.53-3.72-3.53-2.04,0-2.97.99-2.97,2.41,0,1.61,1.92,2.6,6.44,3.9,11.21,3.28,14.06,7.8,14.06,13.38,0,10.53-9.35,15.05-20.93,15.05-13.44,0-19.38-5.76-19.63-14.62h15.3Z"/><path class="cls-1" d="m132.47,497.39h-17.46l-1.11,5.14h20.19l-3.96,10.84h-33.94l9.04-42.73h33.63l-2.23,10.84h-18.14l-1.12,5.08h17.46l-2.35,10.84Z"/><path class="cls-1" d="m152.35,470.64h20.06c11.09,0,15.85,5.88,15.85,12.63,0,9.1-6.87,15.61-18.89,15.61h-7.31l-2.97,14.49h-15.79l9.04-42.73Zm11.89,18.39h2.54c3.34,0,5.2-1.8,5.2-5.2,0-2.23-1.05-3.41-3.78-3.41h-2.04l-1.92,8.61Z"/><path class="cls-1" d="m208.14,481.47h-10.65l2.35-10.84h37.47l-2.35,10.84h-10.53l-6.69,31.89h-16.29l6.69-31.89Z"/><path class="cls-1" d="m509.32,519.19c3.84-6.5,6.81-14.18,8.05-20.62h12.82c-1.49,6.57-5.26,15.05-10.03,20.62h-10.84Z"/><path class="cls-1" d="m571.1,481.47h-10.65l2.35-10.84h37.47l-2.35,10.84h-10.53l-6.69,31.89h-16.29l6.69-31.89Z"/><path class="cls-1" d="m650.3,488.1c0,11.89-6.38,26.38-25.82,26.38-14.24,0-19.38-8.73-19.38-17.96,0-13,7.86-27,25.45-27,13.63,0,19.76,8.36,19.76,18.58Zm-28.49,9.72c0,2.97.68,6.01,4.09,6.01,6.25,0,8.05-13.44,8.05-17.59,0-2.66-.5-6.07-4.03-6.07-6.07,0-8.11,13.01-8.11,17.65Z"/><path class="cls-1" d="m676.61,498.01l-3.16,15.36h-16.04l9.04-42.73h21.43c10.84,0,15.11,5.2,15.11,10.96s-3.47,9.85-9.1,11.52c3.65,1.36,5.45,5.08,4.09,11.46-.74,3.41-1.42,7.31-1.42,8.79h-15.42c-.25-1.8.12-4.77,1.18-9.79.74-3.47.74-5.57-3.41-5.57h-2.29Zm2.17-9.66h2.79c3.22,0,5.2-1.61,5.2-4.71,0-1.8-.87-3.34-3.47-3.34h-2.85l-1.67,8.05Z"/><path class="cls-1" d="m756.74,488.1c0,11.89-6.38,26.38-25.82,26.38-14.24,0-19.38-8.73-19.38-17.96,0-13,7.86-27,25.45-27,13.63,0,19.76,8.36,19.76,18.58Zm-28.49,9.72c0,2.97.68,6.01,4.09,6.01,6.25,0,8.05-13.44,8.05-17.59,0-2.66-.5-6.07-4.03-6.07-6.07,0-8.11,13.01-8.11,17.65Z"/><path class="cls-1" d="m763.86,513.37l9.04-42.73h18.89c.87,11.52,1.18,18.08,1.61,24.21h.31c.68-4.83,2.11-13.56,3.47-20l.87-4.21h14.99l-9.04,42.73h-18.08c-.74-8.24-1.61-18.58-2.04-25.33h-.25c-.5,5.02-2.17,12.94-3.72,20.25l-1.05,5.08h-14.99Z"/><path class="cls-1" d="m832.16,481.47h-10.65l2.35-10.84h37.47l-2.35,10.84h-10.53l-6.69,31.89h-16.29l6.69-31.89Z"/><path class="cls-1" d="m911.36,488.1c0,11.89-6.38,26.38-25.82,26.38-14.24,0-19.38-8.73-19.38-17.96,0-13,7.86-27,25.45-27,13.63,0,19.76,8.36,19.76,18.58Zm-28.49,9.72c0,2.97.68,6.01,4.09,6.01,6.25,0,8.05-13.44,8.05-17.59,0-2.66-.5-6.07-4.03-6.07-6.07,0-8.11,13.01-8.11,17.65Z"/><path class="cls-1" d="m982.01,497.82c-3.03,12.51-12.26,16.66-23.04,16.66-13.25,0-18.64-7.74-18.64-17.96,0-12.26,6.81-27,25.02-27,13.5,0,19.2,7.37,18.58,16.23h-15.98c.19-3.16-.31-5.63-3.34-5.63-5.51,0-7.56,12.82-7.56,18.21,0,3.03.87,5.39,3.47,5.39,3.1,0,4.4-2.6,5.45-5.88h16.04Z"/><path class="cls-1" d="m1006.78,505.56l-2.91,7.8h-16.72l20.44-42.73h21.92l2.79,42.73h-16.29v-7.8h-9.23Zm9.41-10.84c0-2.79-.06-9.29-.06-13.19h-.37c-1.73,5.33-3.22,9.1-4.77,13.19h5.2Z"/></svg>