<svg width="527" height="303" viewBox="0 0 527 303" fill="none" xmlns="http://www.w3.org/2000/svg">
<path d="M317.447 19.2307H285.283V148.217H361.171V114.988H317.447V19.2307Z" fill="white"/>
<path d="M267.95 19.2307H236.096V148.217H267.95V19.2307Z" fill="white"/>
<path d="M452.875 99.1093C452.85 94.8272 451.903 90.6876 450.202 86.873C444.817 74.7905 436.064 68.41 424.361 67.8513C416.015 67.4464 397.687 67.7543 397.687 67.7543L397.618 52.3305L448.779 52.3591V19.2421C448.779 19.2421 416.249 19.2706 400.802 19.2307C395.6 19.2193 390.685 20.5308 386.148 23.3988C376.899 29.2376 371.217 38.0187 370.339 50.2778C369.932 55.9912 370.076 61.7787 370.205 67.5205C370.309 72.0422 371.276 76.427 373.195 80.407C379.081 92.6262 388.32 98.6076 400.316 98.9839C407.739 99.2177 424.084 99.0295 424.084 99.0295V115.035H371.752V148.209C371.752 148.209 406.484 148.243 423.206 148.169C425.348 148.158 427.53 147.827 429.628 147.302C442.045 144.195 450.981 133.515 452.528 119.106C453.237 112.526 452.92 105.781 452.885 99.1093" fill="white"/>
<path d="M187.442 88.6347H158.019V58.2679C158.019 53.7693 161.223 50.1259 165.179 50.1259H180.277C184.233 50.1259 187.437 53.775 187.437 58.2679V88.6347H187.442ZM213.966 35.7806C207.919 24.6967 198.668 19.8332 187.587 19.4227C177.424 19.0464 167.245 19.3372 157.077 19.3486C153.542 19.3486 150.062 19.8503 146.702 21.1674C135.436 25.569 126.982 39.2016 126.967 53.1763C126.932 84.3927 126.957 148.217 126.957 148.217H158.145V115.045H187.577V148.194H217.827C217.827 148.194 217.827 68.1089 217.827 53.5754C217.827 47.2808 216.919 41.1972 213.966 35.7806Z" fill="white"/>
<path d="M80.028 74.6973C80.028 79.0505 76.9611 82.5764 73.1747 82.5764H48.6946V49.0973H73.1747C76.9611 49.0973 80.028 52.6233 80.028 56.9765V74.6973ZM108.359 86.8269C112.408 76.911 113.148 66.3732 111.957 55.6357C110.26 40.3054 103.263 29.2655 91.1142 22.6301C85.8887 19.7832 80.425 18.237 74.5295 18.2941C56.2674 18.4595 18.2693 18.3511 18.2693 18.3511V148.2H48.6548V115.017L75.0108 148.217H119.922C119.922 148.217 84.658 107.4 84.8218 107.366C95.3374 104.976 103.808 97.941 108.354 86.8212" fill="white"/>
<path d="M18.3892 251.875L18.2693 156.196H50.7911C48.8369 174.64 46.2679 197.659 44.0638 215.547H44.7985C52.7453 190.449 56.4138 178.942 63.261 156.196H91.9944C90.7699 178.659 90.2801 190.727 88.6907 214.295L89.4254 214.431C93.0939 198.764 99.8162 172.69 104.099 156.19H134.912L98.4767 251.869H65.71C66.4447 234.122 68.1541 217.758 69.2536 197.234H68.7638C63.261 215.814 56.6587 235.505 51.1559 251.869H18.3892V251.875Z" fill="white"/>
<path d="M211.732 195.515C211.732 222.183 199.107 254.689 160.625 254.689C132.434 254.689 122.264 235.106 122.264 214.405C122.264 185.238 137.83 153.845 172.639 153.845C199.603 153.845 211.737 172.599 211.737 195.515H211.732ZM155.355 217.323C155.355 223.989 156.702 230.797 163.446 230.797C175.825 230.797 179.377 200.653 179.377 191.347C179.377 185.374 178.396 177.737 171.412 177.737C159.403 177.737 155.355 206.904 155.355 217.323Z" fill="white"/>
<path d="M244.269 217.484L238.068 251.875H206.584L224.333 156.19H266.397C287.669 156.19 296.057 167.839 296.057 180.735C296.057 193.631 289.249 202.785 278.188 206.527C285.358 209.576 288.887 217.898 286.213 232.182C284.752 239.806 283.416 248.547 283.416 251.875H253.149C252.662 247.856 253.393 241.195 255.46 229.966C256.921 222.2 256.921 217.484 248.771 217.484H244.274H244.269ZM248.523 195.853H253.994C260.314 195.853 264.205 192.248 264.205 185.315C264.205 181.296 262.501 177.827 257.398 177.827H251.807L248.523 195.853Z" fill="white"/>
<path d="M307.735 156.19H339.857L326.591 227.608H361.639L353.73 251.875H289.967L307.735 156.19Z" fill="white"/>
<path d="M379.347 156.19H414.892C440.609 156.19 452.986 173.388 452.986 196.406C452.986 218.177 444.01 251.875 401.915 251.875H361.639L379.352 156.196L379.347 156.19ZM397.789 228.573H404.34C415.864 228.573 419.866 204.307 419.866 193.215C419.866 184.061 417.803 179.487 411.009 179.487H407.008L397.789 228.573Z" fill="white"/>
<path d="M487.379 22.7858C499.555 22.7858 505.158 29.2034 505.158 38.0769C505.158 46.3952 502.114 50.2766 493.122 55.6638C490.493 57.2495 485.374 60.4955 484.129 62.7168H502.599L498.24 76.1874H461.231L461.646 73.9719C464.001 61.3715 468.424 55.1943 478.596 48.1413C485.654 43.2293 488.143 41.7237 488.143 37.0465C488.143 35.3805 487.518 34.2756 486.204 34.2756C484.129 34.2756 483.09 36.4911 482.12 41.4832H466.695C468.009 33.3997 471.883 22.7858 487.379 22.7858ZM487.379 19.2364C479.621 19.2364 473.603 21.7324 469.484 26.6444C466.54 30.1594 464.63 34.8023 463.651 40.8306C463.481 41.8668 463.726 42.9374 464.315 43.7503C464.905 44.5632 465.78 45.0327 466.7 45.0327H477.097L476.992 45.1071C465.725 52.9215 461.091 60.0147 458.622 73.2277L458.207 75.4432C458.012 76.4908 458.237 77.5843 458.827 78.4201C459.417 79.256 460.302 79.7368 461.236 79.7368H498.245C499.54 79.7368 500.7 78.8151 501.149 77.4183L505.508 63.9476C505.863 62.8599 505.723 61.6405 505.148 60.6845C504.568 59.7284 503.619 59.1617 502.604 59.1617H493.977C494.171 59.0414 494.366 58.9212 494.571 58.801C503.649 53.3624 508.262 48.6622 508.262 38.0712C508.262 32.4093 506.373 27.6634 502.789 24.343C499.135 20.9538 493.952 19.2307 487.384 19.2307L487.379 19.2364Z" fill="white"/>
<path d="M487.565 80.4319C499.859 80.4319 505.62 88.1739 505.62 99.9847C505.62 111.795 500.898 134.394 480.967 134.394C467.911 134.394 463.118 125.946 463.118 114.451C463.118 100.844 469.436 80.4319 487.565 80.4319ZM481.454 122.979C483.677 122.979 485.067 118.441 487.149 107.258C489.302 95.9159 489.929 91.7737 487.289 91.7737C485.483 91.7737 483.958 94.198 481.594 107.026C479.371 118.678 479.166 122.979 481.454 122.979ZM487.565 76.9283C478.408 76.9283 470.926 81.6074 465.923 90.457C462.165 97.1026 460.012 105.851 460.012 114.451C460.012 121.47 461.633 127.059 464.835 131.077C468.442 135.603 473.872 137.898 480.967 137.898C490.792 137.898 498.57 132.897 503.457 123.437C508.219 114.22 508.731 103.963 508.731 99.979C508.731 93.0621 506.894 87.298 503.422 83.3196C499.719 79.0757 494.385 76.9226 487.565 76.9226V76.9283Z" fill="white"/>
<path d="M487.379 138.562C499.555 138.562 505.158 144.83 505.158 153.497C505.158 161.622 502.114 165.413 493.122 170.675C490.493 172.224 485.374 175.394 484.129 177.564H502.599L498.24 190.721H461.231L461.646 188.552C464.001 176.244 468.424 170.211 478.596 163.322C485.654 158.524 488.143 157.054 488.143 152.485C488.143 150.858 487.518 149.779 486.204 149.779C484.129 149.779 483.09 151.943 482.12 156.819H466.695C468.009 148.923 471.883 138.556 487.379 138.556M487.379 135.089C479.621 135.089 473.603 137.527 469.484 142.325C466.54 145.758 464.63 150.293 463.651 156.181C463.481 157.193 463.726 158.239 464.315 159.033C464.905 159.827 465.78 160.286 466.7 160.286H477.097L476.992 160.358C465.725 167.991 461.091 174.919 458.622 187.825L458.207 189.989C458.012 191.012 458.237 192.08 458.827 192.897C459.417 193.713 460.302 194.183 461.236 194.183H498.245C499.54 194.183 500.7 193.282 501.149 191.918L505.508 178.761C505.863 177.698 505.723 176.507 505.148 175.573C504.568 174.64 503.619 174.086 502.604 174.086H493.977C494.171 173.969 494.366 173.851 494.571 173.734C503.649 168.422 508.262 163.831 508.262 153.486C508.262 147.956 506.373 143.32 502.789 140.077C499.135 136.767 493.952 135.084 487.384 135.084L487.379 135.089Z" fill="white"/>
<path d="M505.169 196.739L499.771 224.981H504.615L501.43 238.166H497.347L495.477 248.385H479.566L481.436 238.166H461.236L463.451 226.542L483.58 196.739H505.164M487.384 209.146C485.24 213.278 481.226 220.144 478.392 224.981H483.855L484.48 222.016C485.035 219.13 486.485 212.732 487.384 209.141M505.164 193.245H483.58C482.616 193.245 481.701 193.752 481.116 194.62L460.987 224.423C460.712 224.834 460.517 225.302 460.422 225.804L458.207 237.427C458.012 238.459 458.237 239.535 458.827 240.358C459.417 241.181 460.302 241.655 461.236 241.655H477.632L476.532 247.675C476.342 248.707 476.577 249.772 477.167 250.589C477.757 251.401 478.637 251.875 479.571 251.875H495.482C496.952 251.875 498.221 250.708 498.516 249.084L499.876 241.655H501.43C502.83 241.655 504.055 240.601 504.42 239.079L507.604 225.894C507.859 224.845 507.664 223.718 507.074 222.856C506.489 221.993 505.579 221.48 504.61 221.48H503.605L508.194 197.472C508.389 196.441 508.164 195.364 507.574 194.541C506.984 193.718 506.099 193.245 505.164 193.245Z" fill="white"/>
<path d="M121.332 282.362L121.522 281.484C122.602 276.503 124.632 274.06 129.291 271.276C132.526 269.336 133.671 268.739 133.671 266.892C133.671 266.236 133.386 265.797 132.781 265.797C131.831 265.797 131.356 266.675 130.911 268.645H123.837C124.442 265.451 126.217 261.255 133.321 261.255C138.905 261.255 141.47 263.793 141.47 267.297C141.47 270.585 140.075 272.12 135.951 274.247C134.746 274.874 132.396 276.158 131.826 277.036H140.295L138.296 282.362H121.327H121.332Z" fill="white"/>
<path d="M158.791 267.194C158.853 266.129 158.669 265.444 157.716 265.444C156.612 265.444 155.779 266.603 155.164 269.885C156.147 268.914 157.59 268.446 159.342 268.446C162.446 268.446 164.659 270.383 164.659 273.857C164.659 279.485 160.664 282.831 154.796 282.831C148.928 282.831 146.623 279.736 146.623 274.512C146.623 270.136 148.744 261.255 157.498 261.255C164.683 261.255 165.361 265.164 165.361 267.199H158.786L158.791 267.194ZM156.762 274.103C156.762 273.448 156.578 272.758 155.779 272.758C154.549 272.758 153.934 275.04 153.934 277.011C153.934 277.888 154.239 278.48 154.946 278.48C156.142 278.48 156.757 275.853 156.757 274.103H156.762Z" fill="white"/>
<path d="M199.557 269.222L191.837 276.638C188.226 280.08 185.597 282.831 179.824 282.831C174.572 282.831 171.919 280.016 171.919 276.604C171.919 273.004 174.728 270.973 180.472 269.38C184.361 268.221 184.95 266.91 184.95 265.721C184.95 264.878 184.487 264.346 183.806 264.346C183.032 264.346 182.448 265.002 182.448 265.879C182.448 266.757 183.066 267.723 183.962 268.507L197.795 282.368H188.591L177.502 270.983C176.237 269.637 175.682 268.261 175.682 267.073C175.682 263.039 178.709 260.317 183.806 260.317C188.469 260.317 191.341 262.477 191.341 265.667C191.341 268.641 189.209 270.514 183.066 272.112C179.732 273.019 178.929 274.365 178.929 275.396C178.929 276.678 179.795 277.679 181.46 277.679C183.465 277.679 184.546 276.273 187.573 273.364L191.867 269.232H199.557V269.222Z" fill="white"/>
<path d="M205.184 282.362L205.374 281.484C206.454 276.503 208.483 274.06 213.143 271.276C216.378 269.336 217.523 268.739 217.523 266.892C217.523 266.236 217.238 265.797 216.633 265.797C215.683 265.797 215.208 266.675 214.763 268.645H207.688C208.293 265.451 210.068 261.255 217.173 261.255C222.757 261.255 225.322 263.793 225.322 267.297C225.322 270.585 223.927 272.12 219.802 274.247C218.597 274.874 216.248 276.158 215.678 277.036H224.147L222.147 282.362H205.179H205.184Z" fill="white"/>
<path d="M247.807 261.724L246.829 266.402C242.734 271.08 239.033 277.031 237.202 282.362H229.069C230.688 277.498 235.338 270.486 239.004 267.179H230.414L231.575 261.724H247.807Z" fill="white"/>
<path d="M25.9575 275.519C26.08 276.76 26.7954 277.689 28.2556 277.689C29.2209 277.689 30.0882 277.318 30.0882 276.262C30.0882 275.27 29.2503 274.805 27.0404 274.121C22.2236 272.63 20.1068 270.929 20.1068 267.855C20.1068 263.265 23.6495 260.317 29.7746 260.317C35.3999 260.317 39.3199 262.551 39.3493 267.204H31.7003C31.7003 266.427 31.3573 265.435 29.8334 265.435C28.8093 265.435 28.3389 265.929 28.3389 266.642C28.3389 267.449 29.3042 267.947 31.5729 268.598C37.1982 270.24 38.629 272.503 38.629 275.294C38.629 280.563 33.9347 282.831 28.1233 282.831C21.3759 282.831 18.3918 279.947 18.2693 275.514H25.9477L25.9575 275.519Z" fill="white"/>
<path d="M60.4892 274.295H51.6696L51.1076 276.892H61.3026L59.3011 282.362H42.1599L46.725 260.786H63.7084L62.5843 266.257H53.4197L52.8577 268.819H61.6773L60.4892 274.29V274.295Z" fill="white"/>
<path d="M71.1427 260.786H81.3815C87.0414 260.786 89.4728 263.758 89.4728 267.164C89.4728 271.762 85.9652 275.044 79.8319 275.044H76.1001L74.5805 282.362H66.519L71.1327 260.786H71.1427ZM77.2112 270.071H78.5066C80.2156 270.071 81.1622 269.164 81.1622 267.444C81.1622 266.321 80.6241 265.724 79.2341 265.724H78.1927L77.2112 270.071Z" fill="white"/>
<path d="M98.2649 266.258H92.752L93.9697 260.786H113.364L112.146 266.258H106.693L103.232 282.362H94.7985L98.2598 266.258H98.2649Z" fill="white"/>
<path d="M247.807 284.707C249.788 281.455 251.325 277.612 251.965 274.389H258.581C257.815 277.675 255.865 281.919 253.401 284.707H247.807Z" fill="white"/>
<path d="M279.084 266.258H273.572L274.789 260.786H294.183L292.965 266.258H287.513L284.052 282.362H275.618L279.079 266.258H279.084Z" fill="white"/>
<path d="M318.542 269.619C318.542 275.573 315.306 282.831 305.43 282.831C298.2 282.831 295.588 278.457 295.588 273.837C295.588 267.327 299.582 260.317 308.507 260.317C315.425 260.317 318.537 264.501 318.537 269.619H318.542ZM304.082 274.488C304.082 275.973 304.429 277.494 306.158 277.494C309.335 277.494 310.247 270.763 310.247 268.686C310.247 267.351 309.994 265.645 308.205 265.645C305.123 265.645 304.087 272.156 304.087 274.483L304.082 274.488Z" fill="white"/>
<path d="M331.491 274.605L329.899 282.362H321.821L326.374 260.786H337.165C342.622 260.786 344.775 263.413 344.775 266.321C344.775 269.228 343.03 271.293 340.188 272.136C342.027 272.821 342.932 274.699 342.248 277.922C341.875 279.642 341.53 281.613 341.53 282.362H333.763C333.64 281.455 333.827 279.952 334.358 277.419C334.731 275.67 334.731 274.605 332.642 274.605H331.487H331.491ZM332.583 269.726H333.984C335.606 269.726 336.604 268.913 336.604 267.351C336.604 266.444 336.167 265.66 334.859 265.66H333.424L332.583 269.726Z" fill="white"/>
<path d="M371.945 269.619C371.945 275.573 368.709 282.831 358.833 282.831C351.603 282.831 348.991 278.457 348.991 273.837C348.991 267.327 352.985 260.317 361.91 260.317C368.828 260.317 371.94 264.501 371.94 269.619H371.945ZM357.485 274.488C357.485 275.973 357.832 277.494 359.561 277.494C362.738 277.494 363.65 270.763 363.65 268.686C363.65 267.351 363.397 265.645 361.608 265.645C358.526 265.645 357.49 272.156 357.49 274.483L357.485 274.488Z" fill="white"/>
<path d="M374.287 282.362L378.938 260.786H388.655C389.102 266.602 389.263 269.913 389.484 273.008H389.644C389.996 270.569 390.729 266.163 391.427 262.91L391.874 260.786H399.583L394.933 282.362H385.627C385.245 278.203 384.798 272.984 384.577 269.573H384.452C384.196 272.107 383.337 276.108 382.538 279.8L381.996 282.362H374.287Z" fill="white"/>
<path d="M408.936 266.258H403.799L404.934 260.786H423.005L421.871 266.258H416.79L413.565 282.362H405.706L408.931 266.258H408.936Z" fill="white"/>
<path d="M448.301 269.619C448.301 275.573 445.065 282.831 435.189 282.831C427.959 282.831 425.348 278.457 425.348 273.837C425.348 267.327 429.342 260.317 438.267 260.317C445.184 260.317 448.296 264.501 448.296 269.619H448.301ZM433.841 274.488C433.841 275.973 434.188 277.494 435.918 277.494C439.094 277.494 440.006 270.763 440.006 268.686C440.006 267.351 439.753 265.645 437.964 265.645C434.882 265.645 433.846 272.156 433.846 274.483L433.841 274.488Z" fill="white"/>
<path d="M483.404 274.488C481.905 280.749 477.35 282.831 472.029 282.831C465.484 282.831 462.823 278.955 462.823 273.837C462.823 267.698 466.187 260.317 475.176 260.317C481.842 260.317 484.657 264.008 484.349 268.441H476.459C476.55 266.857 476.304 265.621 474.805 265.621C472.082 265.621 471.075 272.039 471.075 274.737C471.075 276.257 471.504 277.435 472.786 277.435C474.314 277.435 474.955 276.135 475.475 274.488H483.394H483.404Z" fill="white"/>
<path d="M495.554 278.425L494.105 282.362H485.777L495.957 260.786H506.877L508.262 282.362H500.148V278.425H495.554ZM500.24 272.954C500.24 271.55 500.211 268.263 500.211 266.296H500.026C499.161 268.987 498.422 270.894 497.649 272.954H500.24Z" fill="white"/>
</svg>
