<svg height="66" viewBox="0 0 126 66" width="126" xmlns="http://www.w3.org/2000/svg"><path d="m123.091707 32.5686451c-2.122347-.0602297-4.245097-.1484425-6.368903-.2481668l-3.824135-.1883784-3.827267-.191896c-7.232775-.3523518-14.4868591-.6092829-21.788008-.1233942-1.9788786.0895965-2.8043187-2.9909882-1.0455815-3.9021634 1.9845902-.8988215 3.9044996-1.8948439 5.7986025-2.9030662l2.2630242-1.2102825c1.8796775-1.004382 3.7490982-1.9869634 5.6471362-2.8627432l-2.5205058-1.0639711-1.861219-.7750066-1.2316332-.5031344-.614004-.2469867-1.2259516-.4839465c-5.5134365-2.1461203-11.0071234-3.8510844-17.5103323-4.5467947-10.7136401-1.0037768-21.4441134.3117391-31.7117675 3.4074561l-.6993445.2138238c-22.2595094 6.6248417-38.84776113 23.6180677-38.98040419 47.2087351-.03011319 1.5486986-2.57668254 2.0112681-2.80941986.3121393-3.61729888-23.4664389 13.26373675-41.8586046 34.19738675-50.1094555 17.9294401-7.00595238 47.9887727-11.09742205 65.8757298.8405259-.740472-4.4245599-.387731-8.92190368 1.113167-13.28697228.653358-1.7156967 2.314101-2.16069154 3.737775-1.00153384 5.154597 4.3478779 8.845047 9.89767252 12.145912 15.68052692l.677732 1.1994603.61003 1.0978091.90452 1.6509469 1.790981 3.2992477.597521 1.0936657.600456 1.0882153.604994 1.0813195.611134 1.0729783c.204914.3561087.411117.7105863.618879 1.0631919 1.06276 1.4760057-.005011 3.3034632-1.776504 3.3378505zm-17.160293-15.1782915.121734.5914611c.110161.411125.012936.8774591-.085058 1.3436395 1.58862 1.7761039-.517847 3.8811597-2.509141 3.0938774l-.262987-.1493147-.207229.055527c-.895502.5333508-1.784943 1.089618-2.672365 1.6535239l-2.6602456 1.6993568c-.8874218.563906-1.7768635 1.1201731-2.6723648 1.6535239 4.250587-.0822628 8.5639144.0692375 12.8898594.2674443l3.246042.1544898c2.705701.1311681 5.411437.2623137 8.10497.3477686l-.341205-.6051824-.676363-1.2142541-.67066-1.2177633-1.670312-3.0465585-.673032-1.2142027c-.234753-.4207521-.470782-.8405016-.708622-1.2588696l-.719484-1.2505804c-2.419948-4.1522592-5.074357-8.128466-8.497377-11.54964207-.346899 3.43944167-.081955 6.91361837.66384 10.64575547z"/></svg>