<svg width="40" height="40" viewBox="0 0 40 40" fill="none" xmlns="http://www.w3.org/2000/svg">
<rect width="40" height="40" rx="5" fill="white"/>
<g clip-path="url(#clip0_1464_3)">
<path fill-rule="evenodd" clip-rule="evenodd" d="M19.9553 5C11.6854 5 5 11.7347 5 20.0664C5 26.7264 9.28357 32.364 15.226 34.3593C15.969 34.5093 16.2411 34.0351 16.2411 33.6362C16.2411 33.2869 16.2166 32.0897 16.2166 30.8422C12.0564 31.7404 11.1901 29.0462 11.1901 29.0462C10.5215 27.3001 9.53092 26.8513 9.53092 26.8513C8.16929 25.9284 9.6301 25.9284 9.6301 25.9284C11.1405 26.0282 11.9331 27.4749 11.9331 27.4749C13.2699 29.7696 15.4241 29.1212 16.2907 28.722C16.4144 27.7492 16.8108 27.0757 17.2317 26.7016C13.9137 26.3523 10.4227 25.0553 10.4227 19.2681C10.4227 17.6217 11.0165 16.2748 11.9576 15.2272C11.8091 14.8532 11.289 13.3063 12.1063 11.236C12.1063 11.236 13.3691 10.8368 16.2163 12.7826C17.4353 12.4528 18.6925 12.285 19.9553 12.2836C21.2181 12.2836 22.5053 12.4584 23.694 12.7826C26.5415 10.8368 27.8043 11.236 27.8043 11.236C28.6216 13.3063 28.1012 14.8532 27.9528 15.2272C28.9186 16.2748 29.488 17.6217 29.488 19.2681C29.488 25.0553 25.9969 26.3272 22.6541 26.7016C23.199 27.1755 23.6692 28.0734 23.6692 29.4953C23.6692 31.5157 23.6447 33.1372 23.6447 33.6359C23.6447 34.0351 23.9171 34.5093 24.6598 34.3596C30.6022 32.3637 34.8858 26.7264 34.8858 20.0664C34.9103 11.7347 28.2004 5 19.9553 5Z" fill="#24292F"/>
</g>
<defs>
<clipPath id="clip0_1464_3">
<rect width="30" height="29.3878" fill="white" transform="translate(5 5)"/>
</clipPath>
</defs>
</svg>
