<svg width="404" height="150" viewBox="0 0 404 150" fill="none" xmlns="http://www.w3.org/2000/svg">
<mask id="mask0_911_52" style="mask-type:alpha" maskUnits="userSpaceOnUse" x="0" y="0" width="404" height="150">
<rect width="404" height="150" rx="8" fill="#CC0000"/>
</mask>
<g mask="url(#mask0_911_52)">
<rect width="404" height="150" rx="8" fill="url(#paint0_linear_911_52)"/>
<path d="M293.649 157.719C298.673 150.596 301.54 142.177 301.907 133.469" stroke="white" stroke-width="4.5" stroke-linecap="round" stroke-linejoin="round"/>
<path d="M328.351 157.719C323.327 150.596 320.46 142.177 320.094 133.469" stroke="white" stroke-width="4.5" stroke-linecap="round" stroke-linejoin="round"/>
<path d="M241.281 115.287H380.719" stroke="white" stroke-width="4.5" stroke-linecap="round" stroke-linejoin="round"/>
<path d="M247.344 18.2873H374.656C374.656 18.2873 380.719 18.2873 380.719 24.3498V127.412C380.719 127.412 380.719 133.475 374.656 133.475H247.344C247.344 133.475 241.281 133.475 241.281 127.412V24.3498C241.281 24.3498 241.281 18.2873 247.344 18.2873Z" stroke="white" stroke-width="4.5" stroke-linecap="round" stroke-linejoin="round"/>
<path d="M319.712 66.7813C319.713 68.5045 319.203 70.1895 318.246 71.6229C317.29 73.0564 315.93 74.1739 314.338 74.8342C312.746 75.4945 310.994 75.6679 309.304 75.3325C307.614 74.997 306.061 74.1678 304.842 72.9496C303.623 71.7315 302.793 70.1792 302.456 68.4891C302.119 66.799 302.291 65.0471 302.951 63.4548C303.61 61.8626 304.726 60.5017 306.159 59.5441C307.592 58.5866 309.277 58.0755 311 58.0755C313.309 58.0755 315.524 58.9925 317.158 60.625C318.792 62.2575 319.71 64.4718 319.712 66.7813Z" stroke="white" stroke-width="4.5" stroke-linecap="round" stroke-linejoin="round"/>
<path d="M316.723 40.7125L318.705 47.2358C319.039 48.3137 319.768 49.2253 320.747 49.7876C321.725 50.3499 322.88 50.5212 323.979 50.267L330.588 48.7332C331.841 48.4504 333.153 48.5767 334.329 49.0935C335.506 49.6103 336.486 50.4905 337.126 51.6051C337.766 52.7196 338.032 54.0099 337.886 55.2867C337.739 56.5635 337.187 57.7597 336.311 58.6999L331.685 63.75C330.917 64.5821 330.49 65.673 330.49 66.8055C330.49 67.938 330.917 69.0289 331.685 69.861L336.311 74.8565C337.184 75.7971 337.734 76.9926 337.879 78.2681C338.025 79.5435 337.758 80.832 337.118 81.9451C336.479 83.0581 335.5 83.9374 334.325 84.4541C333.15 84.9709 331.84 85.0981 330.588 84.8172L323.979 83.2834C322.88 83.0292 321.725 83.2005 320.747 83.7628C319.768 84.325 319.039 85.2367 318.705 86.3146L316.723 92.85C316.352 94.0794 315.595 95.1566 314.564 95.9224C313.534 96.6881 312.284 97.1016 311 97.1016C309.716 97.1016 308.466 96.6881 307.435 95.9224C306.404 95.1566 305.647 94.0794 305.277 92.85L303.294 86.3268C302.96 85.2488 302.231 84.3372 301.253 83.7749C300.274 83.2126 299.119 83.0413 298.02 83.2955L291.412 84.8293C290.159 85.1103 288.85 84.983 287.674 84.4663C286.499 83.9495 285.52 83.0703 284.881 81.9572C284.241 80.8441 283.975 79.5556 284.12 78.2802C284.266 77.0047 284.815 75.8093 285.689 74.8686L290.314 69.8731C291.086 69.0404 291.515 67.9469 291.515 66.8116C291.515 65.6762 291.086 64.5828 290.314 63.75L285.689 58.7606C284.804 57.8216 284.245 56.6232 284.094 55.3423C283.943 54.0614 284.208 52.7657 284.849 51.6467C285.49 50.5277 286.475 49.6445 287.656 49.1275C288.838 48.6105 290.155 48.4872 291.412 48.7756L298.02 50.3094C299.119 50.5636 300.274 50.3923 301.253 49.8301C302.231 49.2678 302.96 48.3561 303.294 47.2782L305.277 40.7125C305.647 39.4832 306.404 38.4059 307.435 37.6401C308.466 36.8744 309.716 36.4609 311 36.4609C312.284 36.4609 313.534 36.8744 314.564 37.6401C315.595 38.4059 316.352 39.4832 316.723 40.7125Z" stroke="white" stroke-width="4.5" stroke-linecap="round" stroke-linejoin="round"/>
</g>
<defs>
<linearGradient id="paint0_linear_911_52" x1="202" y1="0" x2="202" y2="150" gradientUnits="userSpaceOnUse">
<stop stop-color="#DF161B"/>
<stop offset="1" stop-color="#C81418"/>
</linearGradient>
</defs>
</svg>
