<svg width="404" height="150" viewBox="0 0 404 150" fill="none" xmlns="http://www.w3.org/2000/svg">
<mask id="mask0_911_66" style="mask-type:alpha" maskUnits="userSpaceOnUse" x="0" y="0" width="404" height="150">
<rect width="404" height="150" rx="8" fill="#CC0000"/>
</mask>
<g mask="url(#mask0_911_66)">
<rect width="404" height="150" rx="8" fill="url(#paint0_linear_911_66)"/>
<path d="M266.089 94.8672L271.545 90.0172C273.364 88.1985 274.577 85.1672 274.577 82.7422C274.577 80.3172 273.364 77.2858 271.545 75.4671L266.089 70.6172C263.058 67.5859 261.845 63.3421 263.664 59.0983C265.483 55.4608 269.12 52.4296 273.364 53.0358L280.639 53.6422C283.67 53.6422 286.095 52.4297 288.52 50.6109C290.339 48.7922 291.552 45.7609 291.552 42.7296L290.945 35.4547C290.945 31.2109 293.37 27.5733 297.008 25.7546C300.645 23.9359 305.495 25.1484 308.526 28.1797L313.376 33.6358C315.195 35.4546 318.226 36.6671 320.651 36.6671C323.683 36.6671 326.108 35.4546 327.926 33.6358L332.776 28.1797C335.808 25.1484 340.051 23.9359 344.295 25.7546C347.933 27.5733 350.964 31.2109 350.358 35.4547L349.751 42.7296C349.751 45.7609 350.964 48.1859 352.783 50.6109C354.601 52.4297 357.633 53.6422 360.664 53.6422L367.939 53.0358C372.183 53.0358 375.82 55.4608 377.639 59.0983C379.458 62.7358 378.245 67.5859 375.214 70.6172L369.758 75.4671C367.939 77.2858 366.726 80.3172 366.726 82.7422C366.726 85.1672 367.939 88.1985 369.758 90.0172L375.214 94.8672C378.245 97.8985 379.458 102.142 377.639 106.386C375.82 110.023 372.183 113.055 367.939 112.448L360.664 111.842C357.633 111.842 355.208 113.055 352.783 114.873C350.964 116.692 349.751 119.723 349.751 122.755L350.358 130.03C350.358 134.273 347.933 137.911 344.295 139.73C340.658 141.548 335.808 140.336 332.776 137.305L327.926 131.848C326.108 130.03 323.076 128.817 320.651 128.817C317.62 128.817 315.195 130.03 313.376 131.848L308.526 137.305" stroke="white" stroke-width="4.5" stroke-miterlimit="10" stroke-linecap="round" stroke-linejoin="round"/>
<path d="M347.934 91.2298C346.721 94.8673 344.902 98.5048 341.871 101.536C333.99 109.417 322.471 111.236 312.165 107.599L261.846 157.917C257.602 162.161 250.933 162.161 246.69 157.917C242.446 153.674 242.446 147.005 246.69 142.761L297.008 92.4423C292.158 80.9235 295.796 66.9797 307.921 59.0984C315.196 54.2484 324.896 53.6421 332.777 57.2796C340.659 60.9171 345.509 66.3734 347.327 73.0422H326.109C321.259 73.0422 317.015 77.2859 317.015 82.136C317.015 86.986 321.259 91.2298 326.109 91.2298H347.934Z" stroke="white" stroke-width="4.5" stroke-miterlimit="10" stroke-linecap="round" stroke-linejoin="round"/>
</g>
<defs>
<linearGradient id="paint0_linear_911_66" x1="202" y1="0" x2="202" y2="150" gradientUnits="userSpaceOnUse">
<stop stop-color="#C81418"/>
<stop offset="1" stop-color="#B11215"/>
</linearGradient>
</defs>
</svg>
