<svg width="404" height="150" viewBox="0 0 404 150" fill="none" xmlns="http://www.w3.org/2000/svg">
<mask id="mask0_911_99" style="mask-type:alpha" maskUnits="userSpaceOnUse" x="0" y="0" width="404" height="150">
<rect width="404" height="150" rx="8" fill="#CC0000"/>
</mask>
<g mask="url(#mask0_911_99)">
<rect width="404" height="150" rx="8" fill="url(#paint0_linear_911_99)"/>
<path d="M241.281 88C241.281 106.491 248.627 124.224 261.701 137.299C274.776 150.373 292.509 157.719 311 157.719C329.491 157.719 347.224 150.373 360.299 137.299C373.373 124.224 380.719 106.491 380.719 88C380.719 69.5094 373.373 51.7762 360.299 38.7014C347.224 25.6266 329.491 18.2812 311 18.2812C292.509 18.2813 274.776 25.6266 261.701 38.7014C248.627 51.7762 241.281 69.5094 241.281 88Z" stroke="white" stroke-width="4.5" stroke-linecap="round" stroke-linejoin="round"/>
<path d="M298.875 88C298.875 91.2157 300.152 94.2998 302.426 96.5737C304.7 98.8475 307.784 100.125 311 100.125C314.216 100.125 317.3 98.8475 319.574 96.5737C321.848 94.2998 323.125 91.2157 323.125 88C323.125 84.7843 321.848 81.7002 319.574 79.4263C317.3 77.1525 314.216 75.875 311 75.875C307.784 75.875 304.7 77.1525 302.426 79.4263C300.152 81.7002 298.875 84.7843 298.875 88Z" stroke="white" stroke-width="4.5" stroke-linecap="round" stroke-linejoin="round"/>
<path d="M311 30.4062V36.4688" stroke="white" stroke-width="4.5" stroke-linecap="round" stroke-linejoin="round"/>
<path d="M368.594 88H362.531" stroke="white" stroke-width="4.5" stroke-linecap="round" stroke-linejoin="round"/>
<path d="M351.74 128.74L347.436 124.436" stroke="white" stroke-width="4.5" stroke-linecap="round" stroke-linejoin="round"/>
<path d="M311 145.594V139.531" stroke="white" stroke-width="4.5" stroke-linecap="round" stroke-linejoin="round"/>
<path d="M253.406 88H259.469" stroke="white" stroke-width="4.5" stroke-linecap="round" stroke-linejoin="round"/>
<path d="M270.26 47.26L274.564 51.5644" stroke="white" stroke-width="4.5" stroke-linecap="round" stroke-linejoin="round"/>
<path d="M350.891 55.6869C351.215 54.6335 351.246 53.5117 350.981 52.442C350.715 51.3724 350.163 50.3953 349.384 49.616C348.604 48.8366 347.627 48.2845 346.558 48.0189C345.488 47.7534 344.366 47.7844 343.313 48.1088L292.812 65.4475C291.807 65.8068 290.894 66.3847 290.139 67.1396C289.384 67.8944 288.806 68.8073 288.447 69.8125L271.108 120.313C270.784 121.366 270.753 122.488 271.018 123.558C271.284 124.628 271.836 125.605 272.616 126.384C273.395 127.163 274.372 127.716 275.442 127.981C276.511 128.247 277.633 128.216 278.686 127.891L329.187 110.553C330.175 110.192 331.072 109.62 331.815 108.877C332.559 108.133 333.131 107.236 333.491 106.248L350.891 55.6869Z" stroke="white" stroke-width="4.5" stroke-linecap="round" stroke-linejoin="round"/>
</g>
<defs>
<linearGradient id="paint0_linear_911_99" x1="202" y1="0" x2="202" y2="150" gradientUnits="userSpaceOnUse">
<stop stop-color="#DF161B"/>
<stop offset="1" stop-color="#C81418"/>
</linearGradient>
</defs>
</svg>
