<svg width="404" height="150" viewBox="0 0 404 150" fill="none" xmlns="http://www.w3.org/2000/svg">
<mask id="mask0_911_116" style="mask-type:alpha" maskUnits="userSpaceOnUse" x="0" y="0" width="404" height="150">
<rect width="404" height="150" rx="8" fill="#CC0000"/>
</mask>
<g mask="url(#mask0_911_116)">
<rect width="404" height="150" rx="8" fill="url(#paint0_linear_911_116)"/>
<path d="M307.969 122.406H326.156C332.588 122.406 338.756 124.961 343.304 129.509C347.851 134.057 350.406 140.225 350.406 146.656H241.281" stroke="white" stroke-width="4.5" stroke-linecap="round" stroke-linejoin="round"/>
<path d="M241.281 98.1562H283.719C290.15 98.1562 296.318 100.711 300.866 105.259C305.414 109.807 307.969 115.975 307.969 122.406H280.688" stroke="white" stroke-width="4.5" stroke-linecap="round" stroke-linejoin="round"/>
<path d="M241.281 92.0938V152.719" stroke="white" stroke-width="4.5" stroke-linecap="round" stroke-linejoin="round"/>
<path d="M341.616 79.3625C340.344 78.0872 339.372 76.5445 338.77 74.8466C338.169 73.1486 337.954 71.338 338.14 69.5464C338.326 67.7548 338.909 66.0272 339.847 64.4892C340.784 62.9511 342.053 61.6412 343.56 60.6547C345.067 59.6682 346.775 59.0299 348.559 58.7862C350.344 58.5424 352.161 58.6994 353.877 59.2456C355.593 59.7918 357.167 60.7136 358.482 61.944C359.798 63.1744 360.823 64.6824 361.482 66.3584C361.666 66.827 361.964 67.2424 362.348 67.5672C362.733 67.892 363.192 68.1159 363.685 68.2188C364.178 68.3217 364.688 68.3003 365.17 68.1564C365.653 68.0126 366.092 67.751 366.448 67.3951L375.911 57.9316C377.048 56.7947 377.686 55.2529 377.686 53.6454C377.686 52.0378 377.048 50.4961 375.911 49.3592L366.211 39.6592C368.264 39.1043 370.135 38.0193 371.636 36.513C373.137 35.0066 374.216 33.132 374.763 31.0772C375.311 29.0224 375.309 26.8597 374.757 24.8061C374.204 22.7524 373.122 20.8801 371.618 19.3771C370.113 17.874 368.24 16.793 366.186 16.2425C364.132 15.692 361.969 15.6915 359.915 16.2409C357.861 16.7903 355.987 17.8703 354.482 19.3726C352.977 20.8749 351.893 22.7467 351.34 24.8L341.64 15.1C340.503 13.9635 338.961 13.325 337.354 13.325C335.746 13.325 334.204 13.9635 333.068 15.1L324.259 23.8421C323.94 24.1596 323.696 24.544 323.545 24.9674C323.393 25.3908 323.338 25.8426 323.383 26.29C323.427 26.7375 323.571 27.1694 323.803 27.5545C324.036 27.9395 324.351 28.2681 324.726 28.5163C326.125 29.4573 327.312 30.6797 328.213 32.1056C329.113 33.5315 329.705 35.1295 329.953 36.7974C330.201 38.4654 330.098 40.1666 329.651 41.7925C329.204 43.4184 328.422 44.9332 327.357 46.24C326.291 47.5469 324.965 48.6172 323.462 49.3824C321.96 50.1477 320.314 50.5911 318.63 50.6844C316.947 50.7777 315.262 50.5188 313.684 49.9242C312.106 49.3296 310.67 48.4124 309.466 47.2313C308.89 46.6573 308.374 46.0255 307.926 45.3458C307.679 44.9694 307.35 44.6529 306.965 44.4194C306.58 44.1859 306.147 44.0413 305.699 43.996C305.25 43.9507 304.798 44.0059 304.373 44.1576C303.949 44.3093 303.564 44.5537 303.246 44.8729L294.462 53.6393C293.325 54.7762 292.687 56.3179 292.687 57.9255C292.687 59.5331 293.325 61.0748 294.462 62.2117L328.757 96.5072C329.894 97.6438 331.436 98.2823 333.043 98.2823C334.651 98.2823 336.193 97.6438 337.329 96.5072L346.799 87.0376C347.155 86.6817 347.417 86.2428 347.56 85.7604C347.704 85.2781 347.726 84.7675 347.623 84.2748C347.52 83.7821 347.296 83.3228 346.971 82.9383C346.646 82.5538 346.231 82.2562 345.762 82.0724C344.206 81.4684 342.794 80.5453 341.616 79.3625Z" stroke="white" stroke-width="4.5" stroke-linecap="round" stroke-linejoin="round"/>
</g>
<defs>
<linearGradient id="paint0_linear_911_116" x1="202" y1="0" x2="202" y2="150" gradientUnits="userSpaceOnUse">
<stop stop-color="#C81418"/>
<stop offset="1" stop-color="#B11215"/>
</linearGradient>
</defs>
</svg>
