<svg width="404" height="150" viewBox="0 0 404 150" fill="none" xmlns="http://www.w3.org/2000/svg">
<mask id="mask0_911_75" style="mask-type:alpha" maskUnits="userSpaceOnUse" x="0" y="0" width="404" height="150">
<rect width="404" height="150" rx="8" fill="#CC0000"/>
</mask>
<g mask="url(#mask0_911_75)">
<rect width="404" height="150" rx="8" fill="url(#paint0_linear_911_75)"/>
<path d="M227.704 127.063H375.023" stroke="white" stroke-width="4.86" stroke-linecap="round" stroke-linejoin="round"/>
<path d="M350.47 98.5618L378.297 127.063L350.47 155.558" stroke="white" stroke-width="4.86" stroke-linecap="round" stroke-linejoin="round"/>
<path d="M291.012 41.52C291.557 39.528 292.728 37.7641 294.353 36.4895C295.978 35.2148 297.97 34.497 300.034 34.4422C302.668 34.5561 305.148 35.71 306.932 37.6507C308.715 39.5913 309.656 42.1602 309.548 44.7938C309.565 47.25 308.661 49.6235 307.014 51.446L289.905 70.0606H309.548" stroke="white" stroke-width="4.86" stroke-linecap="round" stroke-linejoin="round"/>
<path d="M355.381 41.5659C355.308 39.7539 355.956 37.9869 357.183 36.6518C358.41 35.3166 360.116 34.5221 361.928 34.4422H366.884C369.143 34.5509 371.267 35.5491 372.792 37.2189C374.317 38.8886 375.119 41.094 375.023 43.3533C375.115 45.6158 374.307 47.8226 372.776 49.4904C371.244 51.1582 369.114 52.151 366.852 52.2514C369.114 52.3517 371.244 53.3445 372.776 55.0123C374.307 56.6801 375.115 58.8869 375.023 61.1494C375.114 63.4054 374.309 65.6058 372.785 67.2712C371.26 68.9367 369.14 69.9322 366.884 70.0409H361.928C360.116 69.961 358.41 69.1665 357.183 67.8313C355.956 66.4962 355.308 64.7292 355.381 62.9172" stroke="white" stroke-width="4.86" stroke-linecap="round" stroke-linejoin="round"/>
<path d="M244.073 70.0606V38.0367C244.083 37.3924 243.921 36.757 243.603 36.1964C243.285 35.6357 242.824 35.1702 242.265 34.8481C241.726 34.5541 241.11 34.4287 240.499 34.4883C239.887 34.5478 239.307 34.7895 238.835 35.182L230.978 41.5658" stroke="white" stroke-width="4.86" stroke-linecap="round" stroke-linejoin="round"/>
<path d="M237.525 70.0606H250.62" stroke="white" stroke-width="4.86" stroke-linecap="round" stroke-linejoin="round"/>
<path d="M266.223 52.2514C266.223 53.196 266.568 54.102 267.182 54.77C267.795 55.438 268.628 55.8132 269.496 55.8132C270.365 55.8132 271.197 55.438 271.811 54.77C272.425 54.102 272.77 53.196 272.77 52.2514C272.77 51.3067 272.425 50.4008 271.811 49.7328C271.197 49.0648 270.365 48.6895 269.496 48.6895C268.628 48.6895 267.795 49.0648 267.182 49.7328C266.568 50.4008 266.223 51.3067 266.223 52.2514Z" stroke="white" stroke-width="4.86" stroke-linecap="round" stroke-linejoin="round"/>
<path d="M331.698 52.2514C331.698 53.196 332.043 54.102 332.657 54.77C333.271 55.438 334.104 55.8132 334.972 55.8132C335.84 55.8132 336.673 55.438 337.287 54.77C337.901 54.102 338.246 53.196 338.246 52.2514C338.246 51.3067 337.901 50.4008 337.287 49.7328C336.673 49.0648 335.84 48.6895 334.972 48.6895C334.104 48.6895 333.271 49.0648 332.657 49.7328C332.043 50.4008 331.698 51.3067 331.698 52.2514Z" stroke="white" stroke-width="4.86" stroke-linecap="round" stroke-linejoin="round"/>
</g>
<defs>
<linearGradient id="paint0_linear_911_75" x1="202" y1="0" x2="202" y2="150" gradientUnits="userSpaceOnUse">
<stop stop-color="#DF161B"/>
<stop offset="1" stop-color="#C81418"/>
</linearGradient>
</defs>
</svg>
