<?xml version="1.0" encoding="UTF-8" standalone="no"?>
<!-- Created with Inkscape (http://www.inkscape.org/) -->

<svg
   version="1.1"
   id="svg2"
   xml:space="preserve"
   width="844.47241"
   height="912.30597"
   viewBox="0 0 844.47244 912.30598"
   xmlns="http://www.w3.org/2000/svg"
   xmlns:svg="http://www.w3.org/2000/svg"><defs
     id="defs6"><clipPath
       clipPathUnits="userSpaceOnUse"
       id="clipPath22"><path
         d="M 0,1000.007 H 1000 V 0 H 0 Z"
         id="path20" /></clipPath></defs><g
     id="g8"
     transform="matrix(1.3333333,0,0,-1.3333333,-246.52813,1136.1284)"><g
       id="g10"
       transform="translate(404.8804,420.7773)"><path
         d="M 0,0 V 103.35 L 184.195,-2.849 94.562,-54.603 Z m -106.528,164.769 87.9,-50.678 V 10.755 l -87.9,50.754 z m 87.9,179.688 V 240.172 l -87.9,-50.678 V 293.705 Z M 185.015,357.584 0,250.915 v 104.297 l 94.562,54.6 z M -90.683,177.132 -7.847,224.893 285.605,55.706 202.823,7.908 Z M 295.653,71.412 10.799,235.641 203.647,346.828 295.653,293.705 Z M 94.562,431.319 -125.156,304.462 V 50.75 L 94.562,-76.11 314.28,50.75 v 253.712 z"
         style="fill:#231f20;fill-opacity:1;fill-rule:nonzero;stroke:none"
         id="path12" /></g><path
       d="m 700.233,169.652 h 21.724 v 122.64 h -21.724 z"
       style="fill:#231f20;fill-opacity:1;fill-rule:nonzero;stroke:none"
       id="path14" /><g
       id="g16"><g
         id="g18"
         clip-path="url(#clipPath22)"><g
           id="g24"
           transform="translate(509.8027,292.292)"><path
             d="m 0,0 v -122.64 h 21.724 v 69.107 c 4.288,7.747 10.784,11.622 19.485,11.622 5.605,0 9.85,-1.386 12.742,-4.158 2.888,-2.772 4.335,-7.496 4.335,-14.167 V -122.64 H 80.01 v 63.207 c -0.3,23.538 -10.758,35.312 -31.378,35.312 -10.851,0 -19.82,-4.113 -26.908,-12.338 V 0 Z"
             style="fill:#231f20;fill-opacity:1;fill-rule:nonzero;stroke:none"
             id="path26" /></g><g
           id="g28"
           transform="translate(603.9492,266.3818)"><path
             d="m 0,0 v -62.667 c 0,-11.623 2.693,-20.505 8.089,-26.642 5.39,-6.139 13.335,-9.206 23.824,-9.206 11.738,0 20.798,3.753 27.176,11.263 l 0.539,-9.477 H 80.1 V 0 H 58.375 v -69.463 c -3.697,-7.568 -10.818,-11.353 -21.368,-11.353 -10.192,0 -15.287,6.137 -15.287,18.416 V 0 Z"
             style="fill:#231f20;fill-opacity:1;fill-rule:nonzero;stroke:none"
             id="path30" /></g><g
           id="g32"
           transform="translate(206.6211,201.2109)"><path
             d="M 0,0 9.653,9.924 38.352,-31.559 H 63.473 L 23.689,24.854 59.628,65.171 H 33.525 L 6.792,35.044 0,26.552 V 91.081 H -21.725 V -31.559 H 0 Z"
             style="fill:#231f20;fill-opacity:1;fill-rule:nonzero;stroke:none"
             id="path34" /></g><g
           id="g36"
           transform="translate(395.355,167.8672)"><path
             d="M 0,0 C 4.587,0 9.354,0.685 14.302,2.053 V 18.861 C 11.74,18.265 9.206,17.966 6.705,17.966 c -3.757,0 -6.364,0.82 -7.825,2.459 -1.459,1.639 -2.189,4.304 -2.189,8.001 V 82.424 H 13.767 V 98.515 H -3.309 v 23.512 H -25.033 V 98.515 H -40.949 V 82.424 h 15.916 V 27.62 C -25.033,9.206 -16.688,0 0,0"
             style="fill:#231f20;fill-opacity:1;fill-rule:nonzero;stroke:none"
             id="path38" /></g><g
           id="g40"
           transform="translate(472.959,196.8301)"><path
             d="m 0,0 c -1.908,-3.517 -4.754,-6.319 -8.537,-8.402 -3.784,-2.089 -7.822,-3.129 -12.113,-3.129 -4.649,0 -8.359,1.235 -11.129,3.708 -2.775,2.472 -4.159,5.797 -4.159,9.969 0,5.125 2.026,9.087 6.078,11.891 4.052,2.801 10.102,4.201 18.15,4.201 H 0 Z m -13.319,31.915 c -14.244,0 -25.196,-2.757 -32.854,-8.269 -7.661,-5.513 -11.49,-13.424 -11.49,-23.736 0,-8.165 3.069,-15.019 9.21,-20.56 6.136,-5.545 14.063,-8.313 23.78,-8.313 10.011,0 18.473,3.604 25.39,10.816 0.714,-4.174 1.549,-7.184 2.502,-9.031 H 25.39 v 1.52 c -2.443,5.185 -3.665,12.129 -3.665,20.831 v 43.626 c -0.178,10.311 -3.636,18.313 -10.371,24.005 -6.735,5.69 -15.763,8.537 -27.087,8.537 -7.453,0 -14.203,-1.312 -20.251,-3.936 -6.05,-2.62 -10.83,-6.242 -14.348,-10.862 -3.518,-4.617 -5.274,-9.579 -5.274,-14.884 h 21.725 c 0,3.814 1.577,6.959 4.739,9.432 3.156,2.473 7.21,3.712 12.157,3.712 5.722,0 9.98,-1.507 12.785,-4.516 C -1.399,47.277 0,43.268 0,38.264 v -6.349 z"
             style="fill:#231f20;fill-opacity:1;fill-rule:nonzero;stroke:none"
             id="path42" /></g><g
           id="g44"
           transform="translate(792.8594,196.8301)"><path
             d="m 0,0 c -1.907,-3.517 -4.754,-6.319 -8.536,-8.402 -3.784,-2.089 -7.821,-3.129 -12.113,-3.129 -4.649,0 -8.36,1.235 -11.128,3.708 -2.777,2.472 -4.161,5.797 -4.161,9.969 0,5.125 2.027,9.087 6.08,11.891 4.05,2.801 10.101,4.201 18.149,4.201 H 0 Z m 21.725,38.799 c -0.177,10.311 -3.636,18.313 -10.371,24.005 -6.737,5.69 -15.763,8.537 -27.085,8.537 -7.454,0 -14.204,-1.312 -20.254,-3.936 -6.046,-2.62 -10.828,-6.242 -14.346,-10.862 -3.518,-4.617 -5.276,-9.579 -5.276,-14.884 h 21.726 c 0,3.814 1.578,6.959 4.74,9.432 3.155,2.473 7.209,3.712 12.159,3.712 5.72,0 9.977,-1.507 12.783,-4.516 C -1.399,47.277 0,43.268 0,38.264 v -6.349 h -13.318 c -14.245,0 -25.197,-2.757 -32.855,-8.269 -7.662,-5.513 -11.489,-13.424 -11.489,-23.736 0,-8.165 3.068,-15.019 9.209,-20.56 6.137,-5.545 14.064,-8.313 23.781,-8.313 10.011,0 18.473,3.604 25.39,10.816 0.714,-4.174 1.549,-7.184 2.5,-9.031 h 22.173 v 1.52 c -2.444,5.185 -3.666,12.129 -3.666,20.831 z"
             style="fill:#231f20;fill-opacity:1;fill-rule:nonzero;stroke:none"
             id="path46" /></g><g
           id="g48"
           transform="translate(327.6738,196.8301)"><path
             d="m 0,0 c -1.909,-3.517 -4.754,-6.319 -8.538,-8.402 -3.784,-2.089 -7.82,-3.129 -12.113,-3.129 -4.649,0 -8.36,1.235 -11.129,3.708 -2.774,2.472 -4.16,5.797 -4.16,9.969 0,5.125 2.027,9.087 6.08,11.891 4.052,2.801 10.102,4.201 18.149,4.201 H 0 Z m -13.32,31.915 c -14.244,0 -25.196,-2.757 -32.854,-8.269 -7.66,-5.513 -11.49,-13.424 -11.49,-23.736 0,-8.165 3.071,-15.019 9.21,-20.56 6.136,-5.545 14.063,-8.313 23.781,-8.313 10.01,0 18.472,3.604 25.39,10.816 0.713,-4.174 1.549,-7.184 2.501,-9.031 h 22.171 v 1.52 c -2.442,5.185 -3.665,12.129 -3.665,20.831 v 43.626 c -0.178,10.311 -3.636,18.313 -10.371,24.005 -6.735,5.69 -15.763,8.537 -27.086,8.537 -7.453,0 -14.204,-1.312 -20.251,-3.936 -6.049,-2.62 -10.83,-6.242 -14.348,-10.862 -3.518,-4.617 -5.275,-9.579 -5.275,-14.884 h 21.724 c 0,3.814 1.579,6.959 4.739,9.432 3.158,2.473 7.21,3.712 12.159,3.712 5.723,0 9.98,-1.507 12.784,-4.516 C -1.4,47.277 0,43.268 0,38.264 v -6.349 z"
             style="fill:#231f20;fill-opacity:1;fill-rule:nonzero;stroke:none"
             id="path50" /></g></g></g></g></svg>
