<?xml version="1.0" encoding="UTF-8" standalone="no"?>
<!-- Created with Inkscape (http://www.inkscape.org/) -->

<svg
   version="1.1"
   id="svg1"
   width="135"
   height="44.199722"
   viewBox="0 0 135 44.199722"
   xmlns="http://www.w3.org/2000/svg"
   xmlns:svg="http://www.w3.org/2000/svg">
  <defs
     id="defs1">
    <clipPath
       clipPathUnits="userSpaceOnUse"
       id="clipPath4">
      <path
         d="M 0,425.197 H 1000 V 0 H 0 Z"
         transform="translate(-637.79492,-268.1621)"
         id="path4" />
    </clipPath>
    <clipPath
       clipPathUnits="userSpaceOnUse"
       id="clipPath6">
      <path
         d="M 0,425.197 H 1000 V 0 H 0 Z"
         transform="translate(-711.11042,-247.98491)"
         id="path6" />
    </clipPath>
    <clipPath
       clipPathUnits="userSpaceOnUse"
       id="clipPath8">
      <path
         d="M 0,425.197 H 1000 V 0 H 0 Z"
         transform="translate(-401.69431,-197.2334)"
         id="path8" />
    </clipPath>
    <clipPath
       clipPathUnits="userSpaceOnUse"
       id="clipPath10">
      <path
         d="M 0,425.197 H 1000 V 0 H 0 Z"
         transform="translate(-548.66992,-171.2666)"
         id="path10" />
    </clipPath>
    <clipPath
       clipPathUnits="userSpaceOnUse"
       id="clipPath12">
      <path
         d="M 0,425.197 H 1000 V 0 H 0 Z"
         transform="translate(-609.10352,-193.82131)"
         id="path12" />
    </clipPath>
    <clipPath
       clipPathUnits="userSpaceOnUse"
       id="clipPath14">
      <path
         d="M 0,425.197 H 1000 V 0 H 0 Z"
         transform="translate(-858.2236,-193.82131)"
         id="path14" />
    </clipPath>
    <clipPath
       clipPathUnits="userSpaceOnUse"
       id="clipPath16">
      <path
         d="M 0,425.197 H 1000 V 0 H 0 Z"
         transform="translate(-495.96341,-193.82131)"
         id="path16" />
    </clipPath>
  </defs>
  <g
     id="layer-MC0"
     transform="translate(-163.58813,-109.48427)">
    <path
       id="path1"
       d="m 174.48976,147.05432 v -9.00219 l 16.04437,9.25046 -7.80751,4.50789 z m -9.27906,-14.35192 7.65649,4.41405 v 9.00112 l -7.65649,-4.42102 z m 7.65649,-15.65189 v 9.0837 l -7.65649,4.41425 v -9.0771 z m 17.73827,-1.14355 -16.1157,9.29158 v -9.08478 l 8.23686,-4.75597 z m -24.01456,15.71838 7.21537,-4.16008 25.56099,14.73693 -7.21056,4.16329 z m 33.65162,9.20863 -24.81208,-14.30512 16.79811,-9.68478 8.01397,4.62729 z m -17.5159,-31.3497 -19.13849,11.05016 v 22.09941 l 19.13849,11.05015 19.13846,-11.05015 v -22.09941 z"
       style="fill:#231f20;fill-opacity:1;fill-rule:nonzero;stroke:none;stroke-width:0.178736" />
    <path
       id="path2"
       d="m 282.16151,139.94561 h 3.02385 v -17.07014 h -3.02385 z"
       style="fill:#231f20;fill-opacity:1;fill-rule:nonzero;stroke:none;stroke-width:0.178736" />
    <path
       id="path3"
       d="m 0,0 v -95.505 h 16.918 v 53.817 c 3.339,6.032 8.397,9.049 15.174,9.049 4.364,0 7.671,-1.078 9.923,-3.237 2.249,-2.159 3.375,-5.838 3.375,-11.034 v -48.595 h 16.918 v 49.222 c -0.235,18.331 -8.378,27.499 -24.436,27.499 -8.449,0 -15.434,-3.203 -20.954,-9.609 V 0 Z"
       style="fill:#231f20;fill-opacity:1;fill-rule:nonzero;stroke:none"
       transform="matrix(0.17873562,0,0,-0.17873562,255.65554,122.87544)"
       clip-path="url(#clipPath4)" />
    <path
       id="path5"
       d="m 0,0 v -48.802 c 0,-9.051 2.098,-15.968 6.3,-20.746 4.198,-4.782 10.384,-7.17 18.553,-7.17 9.141,0 16.196,2.923 21.164,8.771 l 0.419,-7.381 H 62.378 V 0 H 45.46 v -54.094 c -2.879,-5.894 -8.425,-8.841 -16.641,-8.841 -7.936,0 -11.905,4.779 -11.905,14.341 V 0 Z"
       style="fill:#231f20;fill-opacity:1;fill-rule:nonzero;stroke:none"
       transform="matrix(0.17873562,0,0,-0.17873562,268.75963,126.48184)"
       clip-path="url(#clipPath6)" />
    <path
       id="path7"
       d="M 0,0 7.517,7.728 29.866,-24.576 H 49.429 L 18.448,19.354 46.435,50.751 H 26.107 L 5.289,27.29 0,20.677 V 70.929 H -16.918 V -24.576 H 0 Z"
       style="fill:#231f20;fill-opacity:1;fill-rule:nonzero;stroke:none"
       transform="matrix(0.17873562,0,0,-0.17873562,213.45595,135.55294)"
       clip-path="url(#clipPath8)" />
    <path
       id="path9"
       d="M 0,0 C 3.572,0 7.284,0.533 11.138,1.599 V 14.688 C 9.143,14.224 7.169,13.991 5.222,13.991 c -2.926,0 -4.956,0.639 -6.094,1.915 -1.137,1.277 -1.705,3.352 -1.705,6.231 v 42.051 h 13.298 v 12.53 H -2.577 v 18.31 h -16.917 v -18.31 h -12.395 v -12.53 h 12.395 V 21.51 C -19.494,7.17 -12.996,0 0,0"
       style="fill:#231f20;fill-opacity:1;fill-rule:nonzero;stroke:none"
       transform="matrix(0.17873562,0,0,-0.17873562,239.72572,140.19414)"
       clip-path="url(#clipPath10)" />
    <path
       id="path11"
       d="m 0,0 c -1.486,-2.738 -3.702,-4.921 -6.648,-6.543 -2.947,-1.626 -6.091,-2.436 -9.433,-2.436 -3.62,0 -6.51,0.961 -8.667,2.887 -2.16,1.925 -3.238,4.514 -3.238,7.763 0,3.991 1.577,7.077 4.733,9.261 3.155,2.18 7.866,3.271 14.134,3.271 H 0 Z m -10.372,24.854 c -11.093,0 -19.621,-2.146 -25.585,-6.439 -5.966,-4.294 -8.947,-10.455 -8.947,-18.484 0,-6.359 2.389,-11.697 7.172,-16.012 4.778,-4.318 10.951,-6.474 18.518,-6.474 7.796,0 14.386,2.807 19.773,8.423 0.555,-3.25 1.206,-5.594 1.948,-7.032 h 17.265 v 1.184 c -1.902,4.038 -2.854,9.445 -2.854,16.221 v 33.974 c -0.139,8.03 -2.831,14.261 -8.076,18.693 -5.245,4.431 -12.276,6.649 -21.094,6.649 -5.804,0 -11.061,-1.022 -15.77,-3.064 -4.711,-2.042 -8.434,-4.863 -11.173,-8.459 -2.741,-3.596 -4.108,-7.461 -4.108,-11.592 h 16.918 c 0,2.971 1.229,5.419 3.691,7.346 2.458,1.924 5.615,2.889 9.467,2.889 4.456,0 7.772,-1.173 9.956,-3.516 C -1.09,36.817 0,33.695 0,29.798 v -4.944 z"
       style="fill:#231f20;fill-opacity:1;fill-rule:nonzero;stroke:none"
       transform="matrix(0.17873562,0,0,-0.17873562,250.52737,136.16281)"
       clip-path="url(#clipPath12)" />
    <path
       id="path13"
       d="m 0,0 c -1.485,-2.738 -3.702,-4.921 -6.647,-6.543 -2.947,-1.626 -6.091,-2.436 -9.433,-2.436 -3.62,0 -6.511,0.961 -8.667,2.887 -2.161,1.925 -3.239,4.514 -3.239,7.763 0,3.991 1.578,7.077 4.734,9.261 3.155,2.18 7.866,3.271 14.134,3.271 H 0 Z m 16.918,30.215 c -0.138,8.03 -2.83,14.261 -8.075,18.693 -5.246,4.431 -12.276,6.649 -21.094,6.649 -5.804,0 -11.061,-1.022 -15.771,-3.064 -4.71,-2.042 -8.433,-4.863 -11.173,-8.459 -2.739,-3.596 -4.108,-7.461 -4.108,-11.592 h 16.918 c 0,2.971 1.23,5.419 3.692,7.346 2.458,1.924 5.614,2.889 9.467,2.889 4.456,0 7.772,-1.173 9.955,-3.516 C -1.09,36.817 0,33.695 0,29.798 v -4.944 h -10.371 c -11.093,0 -19.621,-2.146 -25.585,-6.439 -5.967,-4.294 -8.947,-10.455 -8.947,-18.484 0,-6.359 2.389,-11.697 7.171,-16.012 4.779,-4.318 10.952,-6.474 18.519,-6.474 7.796,0 14.386,2.807 19.773,8.423 0.555,-3.25 1.206,-5.594 1.947,-7.032 h 17.266 v 1.184 c -1.903,4.038 -2.855,9.445 -2.855,16.221 z"
       style="fill:#231f20;fill-opacity:1;fill-rule:nonzero;stroke:none"
       transform="matrix(0.17873562,0,0,-0.17873562,295.05399,136.16281)"
       clip-path="url(#clipPath14)" />
    <path
       id="path15"
       d="m 0,0 c -1.486,-2.738 -3.703,-4.921 -6.649,-6.543 -2.946,-1.626 -6.09,-2.436 -9.433,-2.436 -3.62,0 -6.51,0.961 -8.667,2.887 -2.16,1.925 -3.239,4.514 -3.239,7.763 0,3.991 1.578,7.077 4.735,9.261 3.156,2.18 7.866,3.271 14.133,3.271 H 0 Z m -10.373,24.854 c -11.092,0 -19.621,-2.146 -25.585,-6.439 -5.965,-4.294 -8.947,-10.455 -8.947,-18.484 0,-6.359 2.391,-11.697 7.172,-16.012 4.778,-4.318 10.951,-6.474 18.519,-6.474 7.796,0 14.385,2.807 19.773,8.423 0.555,-3.25 1.205,-5.594 1.947,-7.032 h 17.266 v 1.184 c -1.902,4.038 -2.855,9.445 -2.855,16.221 v 33.974 c -0.138,8.03 -2.831,14.261 -8.076,18.693 -5.244,4.431 -12.275,6.649 -21.093,6.649 -5.804,0 -11.061,-1.022 -15.77,-3.064 -4.711,-2.042 -8.435,-4.863 -11.174,-8.459 -2.74,-3.596 -4.108,-7.461 -4.108,-11.592 h 16.918 c 0,2.971 1.23,5.419 3.691,7.346 2.459,1.924 5.614,2.889 9.468,2.889 4.456,0 7.772,-1.173 9.956,-3.516 C -1.09,36.817 0,33.695 0,29.798 v -4.944 z"
       style="fill:#231f20;fill-opacity:1;fill-rule:nonzero;stroke:none"
       transform="matrix(0.17873562,0,0,-0.17873562,230.3052,136.16281)"
       clip-path="url(#clipPath16)" />
  </g>
</svg>
