<svg height="11" viewBox="0 0 6 11" width="6" xmlns="http://www.w3.org/2000/svg"><path d="m378 193.586919c0 .157684-.049615.293912-.147266.403468l-2.446965 2.807252c-.059425.066678-.121759.11633-.187695.149049-.066088.032795-.138096.050511-.21546.053312-.078622.000047-.15083-.016442-.218543-.049409-.067784-.033002-.131224-.084445-.190362-.153556l-2.44708-2.80737c-.097014-.108834-.146629-.245062-.146629-.402746 0-.108355.023247-.207609.069762-.296033.045693-.086863.107054-.157139.183291-.209883.078067-.05401.166503-.081003.263591-.081003h4.966712c.094866 0 .182561.026965.261457.080653.077508.052745.139608.123134.185425.210233.046515.088424.069762.187678.069762.296033zm0-4.173838c0-.157684-.049615-.293912-.147266-.403468l-2.446965-2.807252c-.059425-.066678-.121759-.11633-.187695-.149049-.066088-.032795-.138096-.050511-.21546-.053312-.078622-.000047-.15083.016442-.218543.049409-.067784.033002-.131224.084445-.190362.153556l-2.44708 2.80737c-.097014.108834-.146629.245062-.146629.402746 0 .108355.023247.207609.069762.296033.045693.086863.107054.157139.183291.209883.078067.05401.166503.081003.263591.081003h4.966712c.094866 0 .182561-.026965.261457-.080653.077508-.052745.139608-.123134.185425-.210233.046515-.088424.069762-.187678.069762-.296033z" transform="translate(-372 -186)"/></svg>