<svg height="15" viewBox="0 0 19 15" width="19" xmlns="http://www.w3.org/2000/svg"><path d="m550.578462 23.7326923v.495c0 5.0030769-3.804231 10.7723077-10.764231 10.7723077-2.135769 0-4.146923-.4684615-5.814231-1.5415385.297692.045.595385.0634616.902308.0634616 1.766538 0 3.415384-.7661539 4.696154-1.7942308-1.64077-.0173077-3.056539-1.1353846-3.525-2.6319231.23423.045.468461.0726923.702692.0726923.343846 0 .685384-.0461538 1.010769-.1361538-1.730769-.3426923-3.038077-1.875-3.038077-3.7130769v-.045c.513462.2792307 1.090385.45 1.712308.4684615-1.026923-.6853846-1.693846-1.8392308-1.693846-3.1373077 0-.7026923.197307-1.2796154.513461-1.8392308 1.884231 2.2903847 4.660385 3.7142308 7.796539 3.8861539-.062308-.2711539-.08077-.5780769-.08077-.8746154 0-2.0919231 1.68577-3.7776923 3.777693-3.7776923 1.090384 0 2.073461.4684615 2.785384 1.1907692.846923-.171923 1.667308-.486923 2.388462-.9196154-.279231.8826924-.874615 1.6315385-1.667308 2.1.774231-.09 1.496539-.2976923 2.180769-.6046153-.513461.7753846-1.153846 1.4342307-1.883076 1.9661538" fill-rule="evenodd" transform="translate(-534 -20)"/></svg>