<svg height="9" viewBox="0 0 6 9" width="6" xmlns="http://www.w3.org/2000/svg"><path d="m164.537846 20c-.209647 0-.39077.0744224-.536428.2208987l-3.73237 3.6704474c-.088652.0891385-.154667.1826395-.198168.2815423-.043603.0991332-.067157.207144-.07088.3231904-.000063.117933.02186.2262457.065691.327815.043877.1016753.112273.1968362.204159.2855424l3.732528 3.6706196c.144698.1455218.325821.2199442.535468.2199442.144063 0 .276026-.034871.39359-.1046428.115488-.0685396.208924-.1605817.279049-.2749372.071809-.1171002.107697-.2497534.107697-.3953854l-.009657-.1241456c-.025708-.1619074-.10256-.3090927-.228403-.4386548l-3.235083-3.1622342 3.232872-3.1600157c.159286-.1601632.240271-.3501879.240271-.5650189 0-.1422981-.035851-.2738411-.107233-.3921842-.070125-.116262-.163711-.209413-.279513-.2781384-.117564-.0697718-.249527-.1046428-.39359-.1046428z" transform="matrix(-1 0 0 1 165.318182 -20)"/></svg>