<svg height="14" viewBox="0 0 9 14" width="9" xmlns="http://www.w3.org/2000/svg"><path d="m242.252796 20c-.335077 0-.624563.1157681-.857368.3436203l-5.965412 5.7095848c-.141691.1386598-.247202.2841059-.31673.4379547-.069689.1542072-.107336.3222239-.113286.5027405-.0001.1834514.034939.3519378.104994.5099344.070128.1581617.179444.3061897.326305.4441771l5.965663 5.7098528c.231271.2263673.520757.3421354.855834.3421354.230255 0 .44117-.0542438.629072-.1627776.184584-.1066172.33392-.2497938.446001-.4276802.114772-.1821559.172131-.3885053.172131-.6150439l-.015435-.1931155c-.041087-.2518559-.16392-.4808107-.365053-.6823518l-5.170604-4.919031 5.16707-4.91558c.254585-.2491428.384022-.5447368.384022-.8789183 0-.2213526-.057301-.425975-.171389-.6100643-.112081-.180852-.261659-.3257535-.446743-.4326598-.187902-.1085338-.398817-.1627776-.629072-.1627776z" transform="matrix(-1 0 0 1 243.5 -20)"/></svg>