<svg fill="none" height="15" viewBox="0 0 22 15" width="22" xmlns="http://www.w3.org/2000/svg"><path clip-rule="evenodd" d="m19.0851.448024c.9225.246943 1.6475.971896 1.8944 1.894406.4463 1.67038.4481 5.15757.4481 5.15757s0 3.4872-.4481 5.1576c-.2469.9225-.9719 1.6474-1.8944 1.8943-1.6703.4481-8.3714.4481-8.3714.4481s-6.70089 0-8.37128-.4481c-.9225-.2469-1.647453-.9718-1.894396-1.8943-.448024-1.6704-.448024-5.1576-.448024-5.1576s0-3.48719.448024-5.15757c.246943-.92251.971896-1.647463 1.894396-1.894406 1.67039-.448024 8.37128-.448024 8.37128-.448024s6.7011 0 8.3714.448024zm-4.949 7.052156-5.56676 3.21372v-6.42752z" fill="#000" fill-rule="evenodd"/></svg>