<svg height="15" viewBox="0 0 15 15" width="15" xmlns="http://www.w3.org/2000/svg"><path d="m563.496372 35c1.025641 0 1.990807-.1948209 2.8955-.5844627s1.702951-.9305421 2.394775-1.6227009 1.233672-1.4908035 1.625545-2.3959342c.391872-.9051307.587808-1.8707647.587808-2.8969022s-.195936-1.9917715-.587808-2.8969022c-.391873-.9051307-.933721-1.7025654-1.625545-2.392304s-1.490082-1.2306389-2.394775-1.6227009c-.904693-.3920619-1.872278-.5880929-2.902757-.5880929-1.025641 0-1.989599.196031-2.891873.5880929-.902273.392062-1.698113.9329623-2.387518 1.6227009s-1.230043 1.4871733-1.621916 2.392304c-.391872.9051307-.587808 1.8707647-.587808 2.8969022s.195936 1.9917715.587808 2.8969022c.391873.9051307.932511 1.7037754 1.621916 2.3959342s1.486454 1.2330591 2.391147 1.6227009 1.86986.5844627 2.895501.5844627zm-3.058201-11.4416457-.024673-.0078703c-.094727-.0310745-.187083-.0637947-.277068-.0981607-.359942-.1374637-.676536-.2973862-.949783-.4797676l-.050769-.0359245.119519-.1137511c.528091-.4809641 1.126558-.866503 1.795401-1.1566168.191098-.0828896.38522-.1554181.582366-.2175853l.080363-.0231407-.138135.144242c-.25418.2815298-.4871.6174182-.698759 1.007665-.145138.2675979-.276947.5551989-.395427.862803zm6.126909-.002788-.041547-.115319c-.118184-.3076041-.250363-.5952051-.396537-.862803-.213172-.3902468-.447131-.7261352-.701878-1.007665l-.132607-.1377367.059358.0166354c.197448.0621672.391721.1346957.582819.2175853.668844.2901138 1.269163.6756527 1.800957 1.1566168l.123368.1165391-.045805.0331365c-.273634.1823814-.591389.3423039-.953266.4797676l-.278229.0981607zm-3.569695.4135528-.262439-.0119071c-.371553-.0214908-.727866-.0590997-1.06894-.1128267l-.219855-.0378993.070585-.1863666c.038636-.0969399.078717-.1915941.120242-.2839626.249154-.554211.534591-.9910455.856314-1.3105034.160861-.1597289.325048-.2795256.492561-.3593901l.011532-.0037464zm1.016197-.0009294v-2.2991674l.122319.0646267c.124388.0748729.246905.1722077.36755.2920044.321723.3194579.60837.7562924.859942 1.3105034l.121352.2839626.068924.1854372-.219303.0388287c-.339623.053727-.695791.0913359-1.068505.1128267zm-4.213411 3.0240465h-2.608302l.00956-.1325133c.062137-.6307478.21748-1.2329078.466028-1.8064799.207124-.4779768.462911-.9200297.76736-1.3261587l.035195-.0441995.05635.0430373c.279909.2044768.611653.3879626.995232.5504574.179003.0758309.365935.1458804.560796.2101484l.064254.0206744-.06627.2701452c-.138226.6015766-.227086 1.2389613-.266579 1.9121541zm10.011495 0h-2.615733l-.012392-.3027346c-.038506-.6731928-.125145-1.3105775-.259915-1.9121541l-.066735-.2720038.059478-.0188158c.195129-.064268.382599-.1343175.562409-.2101484.385306-.1624948.718161-.3459806.998563-.5504574l.054325-.042108.034682.0432702c.306339.406129.563071.8481819.770195 1.3261587.248548.5735721.403891 1.1757321.466028 1.8064799zm-3.647721 0h-2.150363v-2.0147919l.376517-.0191674c.435994-.0296225.857184-.0814618 1.26357-.1555179l.194456-.0381317.03333.1284834c.027146.1152253.052814.2327363.077004.3525331.087082.4312681.14804.8760406.182873 1.3343175zm-3.16656 0h-2.158723l.024006-.4122749c.034833-.4582769.095791-.9030494.182873-1.3343175l.076903-.3525331.032038-.1275541.19222.0372024c.407838.0740561.829173.1258954 1.264006.1555179l.386677.0200968zm-4.510654 4.3483446-.051914-.0662471c-.304449-.4070744-.560236-.8495999-.76736-1.3275767-.248548-.5735721-.403891-1.1757321-.466028-1.8064799l-.010489-.1387863h2.607373l.015482.3374566c.039493.672205.128353 1.3073671.266579 1.9054863l.069986.2848403-.06797.0205001c-.194861.0642681-.381793.1343175-.560796.2101485-.383579.1624948-.715323.3459806-.995232.5504573zm2.675182-1.0705905-.039469-.1555381c-.027079-.1142169-.052713-.2306187-.076903-.3492053-.096758-.4743466-.161264-.965903-.193517-1.4746693l-.014291-.2890868h2.159652v2.0575411l-.386677.0189933c-.434833.0296224-.856168.0814617-1.264006.1555179zm4.676923.0009294-.185167-.0373766c-.406386-.0740562-.827576-.1258955-1.26357-.1555179l-.376517-.0180639v-2.0584705h2.152221l-.024471.4365537c-.034833.4530494-.095791.89303-.182873 1.3199419l-.077004.3493063zm2.67611 1.0696611-.037605-.0302009c-.280402-.2044767-.613257-.3879625-.998563-.5504573-.17981-.075831-.36728-.1458804-.562409-.2101485l-.066909-.0195708.070537-.2857696c.136499-.5981192.224248-1.2332813.263248-1.9054863l.014546-.3374566h2.614804l-.010024.1387863c-.062137.6307478-.21748 1.2329078-.466028 1.8064799-.207124.4779768-.463383.9205023-.768777 1.3275767zm-5.517561 2.0045692-.011532-.0050605c-.167513-.0804695-.3317-.2011737-.492561-.3621127-.321723-.3218781-.60716-.7599226-.856314-1.3141336l-.120242-.2836601-.057581-.1511221.206851-.0371443c.341074-.053727.697387-.0913359 1.06894-.1128267l.262439-.0108035zm1.016197-.0065053v-2.2694288l.252279.0098741c.372714.0214908.728882.0590997 1.068505.1128267l.20537.0371443-.054991.1463827c-.038972.0970743-.079423.1919974-.121352.2847693-.251572.5566311-.538219.9958857-.859942 1.3177638-.120645.1207042-.243162.2187764-.36755.2942166zm-2.306415.240697-.071549-.0207593c-.197448-.0621672-.391722-.1346957-.58282-.2175853-.668843-.2901138-1.26731-.6765791-1.795401-1.1593962l-.100941-.0956958.029724-.0221587c.270537-.1823814.586744-.342304.948621-.4797677l.278375-.0981607.033497-.0095547.036533.0993437c.11848.3067151.250289.5938716.395427.8614695.211659.3902468.445052.7261352.700177 1.007665zm3.583628-.0009293.129066-.1336709c.254747-.2815298.488706-.6174182.701878-1.007665.146174-.2675979.278576-.5547544.397204-.8614695l.035132-.097485.029638.007696c.095017.0310745.18776.0637948.278229.0981607.361877.1374637.679632.2973863.953266.4797677l.028156.0212294-.10124.0966251c-.529942.4828171-1.129335.8692824-1.798179 1.1593962-.191098.0828896-.385371.1554181-.582819.2175853z" transform="translate(-556 -20)"/></svg>