<svg fill="none" height="70" viewBox="0 0 190 70" width="190" xmlns="http://www.w3.org/2000/svg"><path d="m53.9829 15c5.8031 0 11.0264 2.4743 14.6807 6.4219l4.8984-4.3721-3.9307 5.501c2.7217 3.4167 4.3526 7.7413 4.3526 12.4492 0 11.0459-8.9551 20-20.001 20s-19.999-8.9541-19.999-20c0-11.0463 8.9531-20 19.999-20zm46.2051 5.5771c5.922 0 8.986 2.2626 9.765 2.9356l-1.832 4.7129c-1.18-.9721-4.041-2.6758-7.542-2.6758-5.6156 0-9.3881 3.7303-9.3881 9.2813 0 5.4404 3.8597 9.2402 9.3881 9.2402 3.99 0 6.55-1.5707 7.907-2.7471l1.976 4.4278c-2.524 2.3776-5.979 3.5839-10.274 3.5839-9.1223-.0001-15.252-5.7796-15.252-14.3798.0001-8.467 6.2723-14.3788 15.252-14.379zm44.431 8.2325c6.817 0 11.397 4.1248 11.397 10.2627 0 6.1139-4.58 10.2207-11.397 10.2207-6.844-.0001-11.441-4.1068-11.441-10.2207 0-6.1379 4.598-10.2627 11.441-10.2627zm-97.2435-7.7266c-4.0361.0002-7.3096 3.273-7.3096 7.3106v13.2138c.0003 4.036 3.2736 7.3084 7.3096 7.3086h13.2148c4.0369-.0002 7.3094-3.2722 7.3096-7.3086v-13.2138c0-.9512-.1878-1.8579-.5186-2.6915l-10.625 14.8721c-.0693.1105-.1471.2158-.2314.3184l-.0664.0898c-.0206.0216-.0448.0371-.0654.0586-.0431.0459-.0774.0986-.125.1426-.0619.0586-.1332.0998-.1993.1514-.0412.0318-.0803.0641-.122.0927-.133.0946-.2694.1759-.4121.2461-.0244.0122-.05.0259-.0762.0371-.1626.0746-.3294.1332-.5.1768-.0093.0028-.0185.005-.0273.0068-.9477.2348-1.9719.0021-2.7354-.6836-.0011-.0015-.0035-.0029-.0068-.0058-.0006-.0005-.0023-.0022-.003-.0039-.0631-.0561-.1309-.1033-.1884-.1651-.0693-.0744-.1178-.1582-.1768-.2373-.0257-.0313-.048-.062-.0713-.0937-.0431-.0614-.0982-.1184-.1357-.1817l-6.0059-11.5683 8.2969 5.6416 12.251-10.9356c-1.3408-1.5751-3.3347-2.578-5.5655-2.5781zm71.9625 27.7539h-6.08v-27.8437h6.08zm10.653-.001h-6.08v-19.6513h6.08zm14.628-15.6347c-3.155 0-5.275 2.3093-5.275 5.747 0 3.4368 2.12 5.7471 5.275 5.7471s5.274-2.3103 5.274-5.7471c0-3.4377-2.119-5.747-5.274-5.747zm-17.668-13.2901c2.102.0001 3.516 1.2162 3.516 3.0274 0 1.8381-1.38 3.0272-3.516 3.0273-2.137 0-3.517-1.1887-3.517-3.0273 0-1.8108 1.414-3.0274 3.517-3.0274z" fill="#000"/></svg>