<?xml version="1.0" encoding="utf-8"?>
<!-- Generator: Adobe Illustrator 27.6.1, SVG Export Plug-In . SVG Version: 6.00 Build 0)  -->
<svg height="70" viewBox="0 0 108 13.6" width="190" xmlns="http://www.w3.org/2000/svg">
<!-- <style type="text/css">
	.st0{fill:#020100;}
</style> -->
<path id="_Compound_Path_" d="M94.5,0H108v2.5h-9.9v3h6.3v2.5h-6.3v3h9.9v2.5H94.5V0z M45.3,2.8v8c0.1,1.5-1.1,2.7-2.6,2.8
	c-0.1,0-0.1,0-0.2,0h-8.8c-1.5,0.1-2.7-1.1-2.8-2.6c0-0.1,0-0.1,0-0.2v-8c0-1.5,1.1-2.7,2.6-2.8c0.1,0,0.1,0,0.2,0h8.8
	C44,0,45.3,1.1,45.3,2.6C45.4,2.7,45.4,2.7,45.3,2.8z M43.1,6.8l-2.5-4.3h-5l-2.4,4.3l2.5,4.3h5L43.1,6.8z M90.5,8.6l2.9,5h-3.8
	l-2.9-5h-4.2v5h-3.6V0h11.3c1.5-0.1,2.7,1.1,2.8,2.6c0,0.1,0,0.1,0,0.2v3.1C93,7.3,91.9,8.5,90.5,8.6z M89.5,3.4
	c0-0.5-0.4-0.8-0.8-0.8h-6.1v3.6h6.1c0.5,0,0.8-0.4,0.8-0.8V3.4z M77.3,2.8v8c0,1.5-1.1,2.7-2.6,2.8c-0.1,0-0.1,0-0.2,0h-8.8
	c-1.5,0-2.7-1.1-2.8-2.6c0-0.1,0-0.1,0-0.2v-8c-0.1-1.5,1.1-2.7,2.6-2.8c0.1,0,0.1,0,0.2,0h8.8c1.5,0,2.7,1.1,2.8,2.6
	C77.3,2.7,77.3,2.7,77.3,2.8z M75.1,6.8l-2.5-4.3h-5l-2.4,4.3l2.5,4.3h5L75.1,6.8z M58.6,0h-8.8c-1.5-0.1-2.7,1.1-2.8,2.6
	c0,0.1,0,0.1,0,0.2v8c0,1.5,1.1,2.7,2.6,2.8c0.1,0,0.1,0,0.2,0h8.8c1.5,0.1,2.7-1.1,2.8-2.6c0-0.1,0-0.1,0-0.2V8.6h-3.3l-1.4,2.5h-5
	l-2.4-4.3l2.5-4.3h5L58.2,5h3.3V2.8c0.1-1.5-1.1-2.7-2.6-2.8C58.8,0,58.7,0,58.6,0z M27,8.6l2.9,5h-3.8l-2.9-5H19v5h-3.5V0h11.3
	c1.5-0.1,2.7,1.1,2.8,2.6c0,0.1,0,0.1,0,0.2v3.1C29.6,7.3,28.4,8.5,27,8.6z M26,3.4c0-0.5-0.4-0.8-0.8-0.8H19v3.6h6.1
	c0.5,0,0.8-0.4,0.8-0.8L26,3.4z M14.1,2.8v3.1c0.1,1.5-1.1,2.7-2.6,2.8c-0.1,0-0.1,0-0.2,0H3.6v5H0V0h11.3c1.5-0.1,2.7,1.1,2.8,2.6
	C14.1,2.7,14.1,2.7,14.1,2.8z M10.5,3.4c0-0.5-0.4-0.8-0.9-0.8H3.6v3.6h6.1c0.5,0,0.8-0.4,0.9-0.8L10.5,3.4z"/>
<polygon class="st0" points="52.9,4.6 51.6,6.8 52.9,9 55.5,9 56.8,6.8 55.5,4.6 "/>
</svg>
