<svg height="70" viewBox="0 0 190 70" width="190" xmlns="http://www.w3.org/2000/svg"><path d="m59.4 15c1.988 0 3.6 1.612 3.6 3.6v32.8c0 1.988-1.612 3.6-3.6 3.6h-28.8c-1.988 0-3.6-1.612-3.6-3.6v-32.8c0-1.988 1.612-3.6 3.6-3.6zm0 2h-28.8c-.882 0-1.6.7175-1.6 1.6v32.8c0 .882.718 1.6 1.6 1.6h28.8c.8825 0 1.6-.718 1.6-1.6v-32.8c0-.8825-.7175-1.6-1.6-1.6zm-22.9 24 4.5 4-4.5 4zm4-20v11.3555c1.997-.65 4.7885-1.3555 7.5-1.3555 2.4725 0 3.9525.972 4.7585 1.7875 1.6488125 1.6675 1.7390955 3.7726189 1.7416556 4.1704654v12.0420346h-4.0001556v-11.945c-.0195-.9335-.469-2.055-2.5-2.055-3.8848955 0-8.2214551 1.8664219-8.6416725 2.0514319l-.0328275.0145681-2.8255 1.28v-17.346zm84.131968 6.7375248c3.365631 0 6.864707 2.1376826 6.864707 7.2624752s-3.499076 7.2624752-6.864707 7.2624752c-3.386161-.0012831-6.883954-2.1376826-6.883954-7.2624752 0-5.1235095 3.497793-7.2624752 6.883954-7.2624752zm30.792382.2656064v8.3595452c0 1.9285337.623597 2.7984909 2.137682 2.7984909 1.512802 0 2.117153-.8699572 2.117153-2.7984909v-8.3595452h3.705659v8.377509c0 3.7069418-1.777126 5.8240945-5.862589 5.8240945s-5.880552-2.1171527-5.880552-5.8240945v-8.377509zm-80.6400111 0v5.2028242h4.6546855v-5.2028242h3.7843389v14h-3.7843389v-5.6572529h-4.6546855v5.6572529h-3.7843389v-14zm64.7036251 0v5.0683352l3.85835-5.0683352h4.386997l-4.70906 5.5225607 5.124792 8.47246h-4.274082l-3.309174-5.5982649-1.077823 1.2484785v4.3497864h-3.782646v-13.9950207zm-41.4140723 0v3.1398016h-6.2026158v2.2698443h4.4254907v2.9498993h-4.4254907v2.590625h6.5246796v3.0448505h-10.3060426v-13.9950207zm9.9403523 0c3.592744 0 5.786884 1.1920211 5.786884 4.5576523 0 2.1928569-.926415 3.4618654-2.76128 4.08418l2.969146 5.3519053h-4.008476l-2.704823-4.8591862h-1.040612v4.8591862h-3.706942v-13.9937376zm16.616441 2.8562314c-1.986274 0-3.101308 1.5692593-3.101308 4.1406374 0 2.5726613 1.116317 4.2368716 3.101308 4.2368716 1.967027-.0012831 3.082061-1.6642103 3.082061-4.2368716 0-2.5713781-1.116317-4.1406374-3.082061-4.1406374zm-16.748602.2065828h-1.625717v3.196259h1.625717c1.551295 0 2.23135-.4349787 2.23135-1.6077529 0-1.1727743-.681338-1.5885061-2.23135-1.5885061zm-53.382083-10.0659454c-.27 2.272-1.191 4.45-3 6.5h-4c1.572-2.0625 2.559-4.233 3-6.5z"/></svg>