<svg height="70" viewBox="0 0 190 70" width="190" xmlns="http://www.w3.org/2000/svg"><path d="m39.7659847 18.28c11.7937695 0 17.2291589 14.9729595 17.844486 24.5105296.0362656.3263909-.0300637.6527818-.1763131.9383577-.010378.0311067-.019587.0595605-.028796.0871875-2.7689719 4.7175078-9.0247975 7.3839252-17.6393769 7.3839252-.1025545-.1025545-.3076636-.1025545-.4102181-.1025545-5.948162 0-11.6912149-2.5638629-15.6908411-7.0762617-.5127726-.4102181-.6153271-1.1280997-.4102181-1.7434268 1.1280997-2.974081 4.1021807-9.8452336 7.8966979-9.9477882 1.9485358 0 3.384299 1.5383178 4.5123987 2.768972.3076636.4102181.8204361.9229907 1.2306542 1.2306542.9229907-.9229906 2.6664175-3.7945171 3.9996262-6.7685981.410218-.9229907 1.4357632-1.2306542 2.3587539-.8204362.9229906.4102181 1.2306542 1.4357633.8204361 2.3587539-3.9849755 8.6673218-6.1311695 8.9149596-7.0026592 8.9220349l-.0736025.0002081c-1.6408722 0-2.7689719-1.2306542-3.8970716-2.4613084-.5127726-.5127726-1.5383178-1.6408723-1.9485358-1.6408723-.9229907.1025546-2.8715265 3.2817446-4.2047352 6.6660437 3.384299 3.384299 7.9992523 5.2302803 12.7167601 5.1277258 4.1021807 0 11.3835514-.7178816 14.3576324-5.1277258-.8204362-8.8196885-5.6404985-20.7160125-14.3576324-20.7160125-.1806932 0-.3574559-.0314437-.5249019-.0889449-7.0709031.2830929-12.3968268 5.4038017-15.8838209 15.2670134-.3076635.9229907-1.3332087 1.4357633-2.2561993 1.0255452-.9229907-.3076635-1.4357633-1.3332087-1.0255452-2.1536449 4.1021807-11.6912149 10.7682243-17.6393769 19.7930218-17.6393769zm125.7318383 12.8193146c2.871526 0 5.127726 2.1536449 5.127726 5.948162v.2051091c0 3.8970716-2.153645 6.0507165-5.127726 6.0507165-1.538318.1025545-2.974081-.7178816-3.691963-2.0510904v5.743053h-3.17919v-15.6908411h3.17919v1.8459813c.820436-1.3332087 2.256199-2.0510904 3.691963-2.0510904zm-46.046978-.1025545c2.666417 0 5.23028 1.1280997 5.435389 4.5123988h-3.076636c-.102554-1.1280997-1.128099-2.0510904-2.256199-1.9485358-1.640872 0-2.768972 1.2306542-2.768972 3.4868535v.2051091c0 2.3587539 1.025545 3.5894081 2.871527 3.5894081 1.333208.1025545 2.461308-.9229907 2.461308-2.2561994h2.871526c-.205109 2.768972-2.153644 4.7175078-5.537943 4.7175078-3.3843 0-6.050717-2.2561994-6.050717-6.0507165v-.2051091c-.102555-3.17919 2.358754-5.948162 5.537944-6.0507165zm-35.5864179 0c2.8715264 0 4.9226168 1.1280997 4.9226168 4.3072897v7.5890343h-3.17919v-1.3332087c-.8204362 1.1280997-2.1536449 1.7434268-3.4868536 1.6408723-2.2561994 0-3.9996262-1.0255452-3.9996262-3.4868536 0-2.6664175 2.4613084-3.6919626 6.0507165-3.6919626h1.3332087v-.5127726c0-1.4357633-.410218-2.1536449-1.8459813-2.1536449-.9229906-.1025545-1.8459813.5127726-1.9485358 1.5383178v.1025545h-3.0766355c.205109-2.768972 2.3587539-3.9996262 5.2302804-3.9996262zm47.6878509.1025545c2.871526 0 4.922616 1.1280997 4.922616 4.3072898v7.4864797h-3.17919v-1.3332087c-.820436 1.1280997-2.153645 1.7434268-3.486853 1.6408723-2.2562 0-3.999626-1.0255452-3.999626-3.4868536 0-2.6664175 2.461308-3.6919626 6.050716-3.6919626h1.333209v-.5127726c0-1.4357633-.410218-2.1536449-1.845982-2.1536449-.92299-.1025545-1.845981.5127726-1.948535 1.5383178v.205109h-3.076636c.205109-2.768972 2.358754-3.9996262 5.230281-3.9996262zm-24.613085-.1025545c2.974081 0 5.743053 1.7434268 5.743053 5.948162v.9229907h-8.512025c.102555 1.9485358 1.1281 3.0766355 2.871527 3.0766355 1.538318 0 2.256199-.6153271 2.461308-1.6408723h3.076636c-.410218 2.5638629-2.358754 3.8970717-5.537944 3.8970717-3.589408 0-6.153271-2.2561994-6.153271-5.948162v-.2051091c-.205109-3.17919 2.256199-5.948162 5.537944-6.0507165zm-12.1014326 0c2.5638629 0 4.5123987.9229907 4.8200623 3.5894081h-2.974081c-.205109-.9229906-.7178816-1.4357632-1.8459813-1.4357632s-1.6408723.5127726-1.6408723 1.2306542.5127726 1.0255452 2.2561994 1.2306542c2.8715265.4102181 4.5123988 1.1280997 4.5123988 3.6919626s-1.8459814 3.8970717-4.9226169 3.8970717-4.9226168-1.4357633-5.0251713-3.8970717h2.974081c.1025545 1.0255452.6153271 1.6408723 2.0510903 1.6408723 1.4357633 0 1.8459813-.5127726 1.8459813-1.2306542s-.7178816-1.1280997-2.3587539-1.4357633c-3.0766355-.5127725-4.3072897-1.3332087-4.3072897-3.6919626s2.1536449-3.5894081 4.6149533-3.5894081zm-23.5875389-3.9996261c3.4868535 0 5.3328348 1.4357632 5.3328348 4.1021806v.1025546c.1025546 1.6408722-1.0255451 3.0766355-2.5638629 3.384299 1.9485358.2051091 3.2817446 1.8459813 3.17919 3.7945172v.1025545c0 2.974081-1.9485358 4.5123987-5.6404984 4.5123987h-6.5634891v-15.9985046zm77.4286605 6.0507165c.922991-1.3332088 2.358754-2.0510904 3.897072-2.0510904 2.153644 0 3.897071 1.3332087 3.897071 4.5123988v7.3839252h-3.17919v-7.0762617c0-1.5383177-.615327-2.1536448-1.845981-2.1536448-1.230654-.1025545-2.2562.9229906-2.2562 2.0510903v7.1788162h-3.17919v-7.0762617c0-1.5383177-.717881-2.1536448-1.845981-2.1536448-1.230654-.1025545-2.153645.9229906-2.256199 2.0510903v7.1788162h-3.281745l-.102554-11.5886604h3.281744v1.7434268c.717882-1.3332088 2.051091-2.0510904 3.589408-2.0510904 1.435764-.1025545 2.768972.7178816 3.281745 2.0510904zm-63.1735827 4.8200623h-1.2306542c-1.8459813 0-2.974081.410218-2.974081 1.6408722 0 .8204362.5127726 1.4357633 1.7434268 1.4357633 1.3332087 0 2.4613084-.8204362 2.4613084-2.0510904zm47.5852957 0h-1.230654c-1.845981 0-2.974081.410218-2.974081 1.6408722 0 .8204362.512773 1.4357633 1.743427 1.4357633 1.435763 0 2.461308-.8204362 2.461308-2.0510904zm31.484237-4.4098443c-1.640872 0-2.871526 1.1280997-2.871526 3.4868536v.2051091c0 2.3587538 1.128099 3.4868535 2.871526 3.4868535s2.768972-1.2306542 2.768972-3.4868535v-.2051091c0-2.3587539-1.1281-3.4868536-2.768972-3.4868536zm-93.7348286 2.3587539h-2.2561994v4.6149533h2.4613084c1.7434268 0 2.5638629-.8204361 2.5638629-2.2561994v-.1025545c0-1.4357632-.8204361-2.2561994-2.7689719-2.2561994zm35.9966356-2.6664174c-1.435763 0-2.666418 1.1280997-2.666418 2.6664174h5.230281c-.102555-1.7434268-1.025545-2.6664174-2.563863-2.6664174zm-36.2017447-3.6919626h-2.1536448v4.1021807h2.1536448c1.7434268 0 2.4613085-.6153271 2.4613085-2.0510904v-.1025545c0-1.3332087-.7178817-1.9485358-2.4613085-1.9485358z"/></svg>