<svg height="70" viewBox="0 0 190 70" width="190" xmlns="http://www.w3.org/2000/svg"><path d="m66.1847481 29.9984513s-3.4513017 0-4.2656538 0c-1.5123682 0-2.2491629.3877867-2.2491629.3877867v-9.386238h-6.6699314v27.9612213h6.6311527v-11.0906998c0-.9694668.8143521-1.7838189 1.7838189-1.7838189h3.877867c.9694668 0 1.7838189.8143521 1.7838189 1.7838189v11.1294785h6.6699314v-12.021388c0-5.0412272-3.3737444-6.9801607-7.5618408-6.9801607zm63.9072499 0v11.1294785c0 .9694668-.814353 1.7838189-1.783819 1.7838189h-3.877867c-.969467 0-1.783819-.8143521-1.783819-1.7838189 0-.3877867 0-11.1294785 0-11.1294785h-6.669932v11.6723799c0 4.7697765 3.063515 7.2903901 7.561841 7.2903901h6.514817c4.149318 0 6.669931-2.9859576 6.669931-7.2903901v-11.6723799zm-37.4989751 11.1294785c0 .9694668-.8143521 1.7838189-1.7838189 1.7838189h-3.877867c-.9694668 0-1.7838189-.8143521-1.7838189-1.7838189 0-.3877867 0-11.1294785 0-11.1294785h-6.6699314v11.6723799c0 4.7697765 3.063515 7.2903901 7.5618408 7.2903901h6.5148167c4.1493178 0 6.6699314-2.9859576 6.6699314-7.2903901v-11.6723799h-6.6699314c.0387787 0 .0387787 10.7804705.0387787 11.1294785zm11.7111581 7.8720702h6.669932v-28h-6.669932z" fill-rule="evenodd"/></svg>