<svg height="70" viewBox="0 0 190 70" width="190" xmlns="http://www.w3.org/2000/svg"><g fill="none" fill-rule="nonzero" transform="translate(1 19)"><path d="m28.517668.4833802c-.2648084-.26512835-.6201562-.42957524-.9955853-.45306762-5.8261334-.35909795-9.5973783 2.59087701-11.5986242 5.36298136-2.0079861-2.77210435-5.7758261-5.72543583-11.60531572-5.36298136-.37879909.02349238-.73413298.18793927-.99895534.45306762-3.74105627 3.74871722-3.33208765 9.6519937-3.28180461 10.2292459.02346546.4195478.26482402 3.3292522 2.16887256 6.6685218 1.82359985 3.1983304 5.58811852 7.4537739 13.18418141 9.5882434.0368967.0134261.080464.0235131.1206959.0369392.0301567.0100174.056978.013426.0872041.0201043.0368272.010087.0770592.0134261.1172912.0201739.0670533.0134261.1374419.0134261.2044952.0134261s.1307018 0 .1944198-.0134261c.0368967-.0067478.0703886-.0134261.1072853-.0168348.0334919-.0066782.0636486-.013426.09721-.0234434.0435672-.0134261.0871345-.0235131.1341066-.0369392 14.0390173-3.9534608 15.2558437-15.1693913 15.339643-16.2198261.0368967-.3423304.5497676-6.43021213-3.2784552-10.26282848zm-14.1395625 13.0517155-.0134106-.0134261-4.1567493-4.48368697c-.57992426-.62761739-1.56209889-.66448695-2.18559044-.08389565-.62689632.58393044-.66379301 1.56389562-.08379926 2.18810432l6.426139 6.9336348.0134106.0134261v5.309287s-.0100753 0-.0134106 0c-10.64324319-3.8863305-11.21981826-12.4878609-11.23658507-12.8671305 0-.0268522-.00669838-.0570435-.00669838-.0838956-.00670533-.0469566-.4056204-4.4769809 1.99455452-7.34976699h.18772842c6.11440711 0 8.54479421 4.62461913 9.06100051 5.78921044 0 .01008695.0100753.01676521.0134106.02685217zm14.3407225-3.0842435c0 .023513-.0067401.0537043-.0067401.0772174-.0200813.3859478-.5966702 8.9841391-11.2398717 12.8603826-.0067401 0-.0100754 0-.0134107.0067478v-5.3059478l.0134107-.0134261 6.426139-6.9336348c.5799242-.6242087.5430275-1.60417388-.0837993-2.18810432-.6268963-.5805913-1.6057357-.54372174-2.1889952.08389565l-4.1533445 4.48368697-.0134107.0134261v-4.62128698s.0100059-.02017391.0134107-.0336c.512871-1.14775652 2.97675-5.78246261 9.0676919-5.78246261h.1776739c2.3834151 2.85600696 2.001246 7.30614959 1.9979107 7.34976699z" fill="#88b04b"/><path d="m57.4977607 1.26528698c.2480625 0 .4626331.0906087.640307.27184.1810092.18122435.2715485.39601391.2715485.6410087v2.39957565c0 .24835478-.0905393.46313739-.2715485.6410087-.1810092.1778713-.3955798.27184-.640307.27184h-10.7739728v6.90004867h10.1001739c.2480625 0 .4626331.0906435.640307.2718609s.2715485.3960348.2715485.6409739v2.3995826c0 .2483478-.0905393.4631652-.2715485.6410435s-.3955798.2717913-.640307.2717913h-10.1001739v7.7458087c0 .2483478-.0904699.4631652-.2714791.6410435-.1810091.1778087-.3955797.2717913-.6403069.2717913h-2.7353581c-.2480625 0-.4626331-.0905739-.640307-.2717913-.1810092-.181287-.2715485-.3960348-.2715485-.6410435v-22.18018088c0-.24834783.0905393-.46313739.2715485-.64100869.1810092-.18122435.3955798-.27184.640307-.27184h14.4245217zm4.0360533 7.34c0-.24834782.0904698-.46316522.271479-.64104348.1810787-.18121739.3955798-.2717913.640307-.2717913h2.5677596c.2480625 0 .4626331.09057391.640307.2717913s.2715485.39603479.2715485.64104348v8.58810432c0 1.3525566.288225 2.4365218.8614787 3.2453566.5732536.8121739 1.5151963 1.218226 2.8195047 1.218226 1.1930625 0 2.1047096-.4060521 2.7349412-1.218226.6302316-.812174.9456949-1.8928.9456949-3.2453566v-8.58810432c0-.24834782.0903309-.46316522.2709926-.64104348.1813566-.17787826.3960662-.2717913.6406544-.2717913h2.5674817c.2480625 0 .462772.09057391.6406544.2717913.1771875.18121739.2716875.39603479.2716875.64104348v15.76000002c0 .2483478-.0910258.4631652-.2716875.6410435-.1813567.1812174-.3953714.2718608-.6406544.2718608h-2.5674817c-.2480625 0-.462772-.0906434-.6406544-.2718608-.1806617-.1812174-.2709926-.3960348-.2709926-.6410435v-.7785739c-.51975.5202087-1.1604044.986713-1.9240478 1.4028521-.7643383.4161392-1.6898824.6242087-2.7692669.6242087-1.3744191 0-2.5107816-.2148174-3.4124923-.6409739-.9017802-.4296348-1.6224816-1.0034782-2.1621739-1.7250782-.5397618-.7215305-.9218614-1.5605566-1.1498427-2.5203479-.2245764-.9598608-.3385323-1.9666782-.3385323-3.0272v-9.09488692zm24.2131235 15.75979132c0 .2483478-.0903309.4630956-.2716875.6409739-.1806617.181287-.3953713.2718609-.6399595.2718609h-2.5681765c-.2480625 0-.4627721-.0905739-.6399596-.2718609-.1813566-.1812174-.2716875-.3959652-.2716875-.6409739v-22.18354784c0-.24834783.0903309-.46313739.2716875-.6410087.1806618-.18122434.3953714-.27184.6399596-.27184h2.5681765c.2480625 0 .4620772.09061566.6399595.27184.1813566.18123131.2716875.39601392.2716875.6410087zm8.1353383 0c0 .2483478-.0903309.4630956-.2709927.6409739-.1813566.181287-.3960662.2718609-.6406544.2718609h-2.5674816c-.2480625 0-.4627721-.0905739-.6406544-.2718609-.1806618-.1812174-.2709927-.3959652-.2709927-.6409739v-22.18354784c0-.24834783.0903309-.46313739.2709927-.6410087.1813566-.18122434.3960661-.27184.6406544-.27184h2.5674816c.2480625 0 .4627721.09061566.6406544.27184.1771875.18123131.2709927.39601392.2709927.6410087zm23.9647832-9.0646957c-.043081.3389913-.066706.7316174-.066706 1.1846957 0 .4530782.023625.8457739.066706 1.1846956.067401.698087.225132 1.2954435.473195 1.7921392.248062.4966956.555882.8960695.928323 1.2014608.371747.3053913.781015.5302957 1.233364.6779131.44957.1476869.912342.2181565 1.384842.2181565.562831 0 1.035331-.0436174 1.4175-.1342609.382169-.0905739.710835-.2180869.979048-.3892869.268213-.1711305.499599-.3590957.694158-.5738435.191085-.2148174.378695-.456487.556577-.7282783.134107-.2013913.291144-.4061217.4725-.6074434.180662-.2013913.395372-.3053913.63996-.3053913h2.568176c.248063 0 .465552.0905739.656636.2717913.191085.1812174.275162.3960347.255011.6410434-.023625.4731826-.191084 1.0470957-.506548 1.7250087-.314768.6779131-.803944 1.3256348-1.468224 1.9431653-.663584.6175304-1.514779 1.1444173-2.550805 1.5739826-1.036026.4295652-2.272864.6409739-3.713989.6409739-1.236838 0-2.353467-.2080696-3.345717-.6242087-.99225-.4161392-1.853867-.9799652-2.584158-1.6914783-.730985-.7114435-1.307713-1.5337043-1.723235-2.4700522-.415522-.9363478-.670533-1.9229913-.760864-2.96-.043776-.4061217-.067401-.8557913-.067401-1.3524869 0-.4966957.023625-.9598609.067401-1.386087.066706-1.0370087.314768-2.0304.744187-2.9768348.428725-.9463652 1.001978-1.7753043 1.722541-2.48681734.721257-.71151305 1.58218-1.27526957 2.584853-1.69147827 1.001978-.41613913 2.122081-.62420869 3.362393-.62420869 1.441125 0 2.677963.21481739 3.713989.64104348 1.036026.42956521 1.887221.95311304 2.550805 1.57398261.66428.62086961 1.153456 1.26859131 1.468224 1.94316521.315464.677913.482923 1.2517565.506548 1.7250087.023625.2483478-.060452.4630957-.255011.6409739-.191084.1812174-.412048.2718609-.656636.2718609h-2.568176c-.248063 0-.462077-.1006609-.63996-.3053913-.181356-.2013913-.338393-.4061218-.4725-.6074435-.181356-.2718609-.365492-.5135304-.556577-.7282783-.191085-.2148174-.422471-.4061217-.694158-.573913-.271688-.1677913-.596879-.2986435-.979048-.389287-.382169-.0906434-.854669-.1342608-1.4175-.1342608-.4725 0-.935272.0738782-1.384842.2181565-.448875.1476869-.861617.3725217-1.233364.677913-.372441.3053913-.680261.7047653-.928323 1.2014609-.248063.4966957-.405794 1.0941217-.473195 1.7921391zm23.247695-3.5504695c-1.350794 0-2.326368.2986434-2.923247.8960695-.596878.5973566-.89497 1.5739826-.89497 2.9264696v8.7928348c0 .2483478-.090331.4631652-.271688.6410435-.180661.1778782-.395371.2718608-.639959.2718608h-2.568177c-.248062 0-.462077-.0906434-.639959-.2718608-.181357-.1812174-.271688-.3960348-.271688-.6410435v-15.76000002c0-.24834782.090331-.46316522.271688-.64104348.180661-.18121739.395371-.2717913.639959-.2717913h2.568177c.248062 0 .462772.09057391.639959.2717913.181357.18121739.271688.39603479.271688.64104348v.77857391c.586456-.54031304 1.210434-.9597913 1.874018-1.25182608.663585-.29196522 1.53493-.43958261 2.618206-.43958261h.248063c.248062 0 .462077.09057391.639959.2717913s.271688.39603479.271688.64104348v2.23179132c0 .2483478-.090331.4630956-.271688.6409739-.180662.1812174-.395371.2718609-.639959.2718609zm8.541827-10.48462612c.248062 0 .462772.0906087.639959.27184.181357.18122435.271688.39601391.271688.6410087v2.63785739c0 .24834782-.090331.46313739-.271688.64100869-.180661.17787131-.395371.27184-.639959.27184h-2.90657c-.248062 0-.462772-.09061565-.63996-.27184-.177882-.18122434-.271687-.39601391-.271687-.64100869v-2.63450435c0-.24834783.090331-.46313739.271687-.64100869.180662-.17787131.395372-.27184.63996-.27184h2.90657zm.744187 23.09638262c0 .2483478-.09033.4631652-.271687.6410435-.180662.1778087-.395371.2717913-.63996.2717913h-2.568176c-.248063 0-.462772-.0905739-.63996-.2717913-.177882-.181287-.271687-.3960348-.271687-.6410435v-15.75666088c0-.24834783.090331-.46316522.271687-.64104348.180662-.17787826.395372-.27186087.63996-.27186087h2.568176c.248063 0 .462078.09064348.63996.27186087s.271687.39603479.271687.64104348v15.75999998zm13.193868 1.2553739c-.697632 0-1.32439-.0671304-1.874018-.2013913-.549629-.1342609-1.036026-.3053913-1.451548-.5067826-.415522-.2013217-.771287-.4228174-1.06243-.6578087-.291839-.2349217-.530173-.4564174-.710835-.6577391v7.2020869c0 .2483478-.090331.4631652-.271687.6409739-.180662.1778783-.395372.2718609-.63996.2718609h-2.568176c-.248063 0-.462772-.0905739-.63996-.2718609-.177882-.1812174-.271687-.3959652-.271687-.6409739v-22.19026085c0-.24834782.09033-.46316522.271687-.64097391.180662-.18128696.395371-.27186087.63996-.27186087h2.568176c.248063 0 .462077.09057391.63996.27186087.177882.18121739.271687.39596522.271687.64097391v.77864348c.180662-.2013913.415522-.42288696.710835-.6578087.294617-.23492174.646908-.45641739 1.06243-.65780869.415522-.20132174.901919-.37252174 1.451548-.50678261.553103-.1341913 1.176386-.20132174 1.874018-.20132174 1.126357 0 2.145011.21815652 3.056658.65773913.912342.43965217 1.689882 1.02699131 2.329842 1.7586087.640654.73161738 1.149982 1.57732178 1.518949 2.53718258.371746.9598609.579507 1.9565913.623283 2.9936.023625.3389913.033353.7316174.033353 1.1846957 0 .4530782-.009728.8457043-.033353 1.1846956-.043776 1.0370087-.255011 2.0337392-.623283 2.9936-.372442.9597913-.878295 1.8022261-1.518949 2.5371826-.63996.7316174-1.4175 1.318887-2.329842 1.7585392-.911647.4396521-1.930301.6578087-3.056658.6578087zm3.140735-8.1854609c.067401-.6309565.067401-1.2618434 0-1.8928-.134106-1.4666434-.586456-2.5204174-1.350794-3.1613913-.764338-.6410434-1.69961-.9632-2.802342-.9632-1.102731 0-2.03175.3254957-2.785665.9799652-.75461.6544-1.186809 1.5907479-1.300765 2.8056348-.043776.3389913-.067401.7652174-.067401 1.2853566 0 .5202086.023625.9464347.067401 1.285426.113956 1.1712696.546155 2.0975305 1.300765 2.7721044.753915.677913 1.682934 1.0134956 2.785665 1.0134956 1.102732 0 2.038004-.3221565 2.802342-.9632.764338-.6409739 1.216688-1.6981565 1.350794-3.1613913zm7.39532-9.81662605v-5.43342609c0-.24834783.090331-.46313739.271688-.6410087.180661-.18122434.395371-.27184.639959-.27184h2.567482c.248062 0 .462772.09061566.640654.27184.177883.18123131.271688.39601392.271688.6410087v5.51064348h4.357423c.248062 0 .462772.09064348.640654.27186087.180662.18121739.271687.39596522.271687.64097391v2.23179128c0 .2483479-.091025.4631652-.271687.6410435-.181357.1778087-.396066.2717913-.640654.2717913h-4.357423v7.1685565c0 .698087.184136 1.2585044.555882 1.6746435.372441.4162087 1.063125.6242783 2.079.6242783h2.061629c.248062 0 .462077.0905739.639959.2717913.180662.1812869.271688.3960348.271688.6410435v2.2317913c0 .2483478-.091026.4630956-.271688.6409739-.181356.1778782-.395371.2718608-.639959.2718608h-2.500776c-2.115827 0-3.744562-.5134608-4.881342-1.537113-1.136084-1.0269217-1.705864-2.5975652-1.705864-4.7186087zm-67.090831 12.63902605c0-.2483478-.080603-.4530782-.238334-.6108521-.157037-.1577044-.435673-.3053913-.831044-.4395826-.395372-.1342609-.92207-.2718609-1.575927-.4061218-.656636-.1342609-1.491154-.3154782-2.507029-.5436522-.995725-.2249043-1.820515-.5101217-2.4743716-.849113-.656636-.3389217-1.1798603-.7349565-1.5752316-1.1880348-.3953713-.4530782-.6740073-.9665391-.8310441-1.5437913-.1577316-.5772522-.2383346-1.2048-.2383346-1.882713 0-.6779826.1577317-1.3458087.4759743-2.0002087.3154632-.6544696.7740662-1.23840003 1.3709449-1.74852177.6003529-.51012174 1.3278639-.92292174 2.1860077-1.2384.858143-.31547826 1.83997-.4765913 2.94965-.4765913s2.094982.12417391 2.967022.37252173c.867872.24834783 1.608585.57725218 2.218666.98337392.610081.40605217 1.086055.87589565 1.425143 1.40953042.338394.5302261.529478 1.0672.576033 1.6109218.023625.2483478-.063231.4630956-.254316.644313-.191084.181287-.412743.2718609-.660805.2718609h-2.607783c-.338393 0-.593405-.0637913-.764338-.1879653-.16746-.1241739-.35507-.265113-.560052-.4228173-.204287-.157774-.475974-.2987131-.814367-.422887-.338394-.1241739-.847721-.1878957-1.525203-.1878957-.676786 0-1.277139.1006609-1.796889.3053914-.51975.2047304-.777541.5671652-.777541 1.0873739 0 .2483478.060452.4564174.18761.6275478.124379.1711304.362019.3221565.710835.4564174s.834518.2785391 1.458496.4228869c.619809.1476174 1.427923.3221566 2.423647.526887 2.010905.4295652 3.4291 1.1041391 4.25389 2.020313.824096.9162435 1.236838 2.0539131 1.236838 3.4098087 0 .6779131-.170933 1.3390609-.510022 1.9833739-.338393.6443827-.831044 1.2216348-1.474478 1.7317566-.643433.5101217-1.434871.9161739-2.373617 1.2216348-.938747.3053913-1.994228.4564173-3.167835.4564173-1.172912 0-2.252713-.1410087-3.167834-.4228869-.9151217-.2818783-1.6891879-.6510609-2.3194195-1.1041391-.6337059-.4530783-1.120103-.9598609-1.4584963-1.5270261-.3383934-.5638261-.51975-1.1209044-.5426802-1.6612174-.023625-.2483478.0597574-.4631652.2543162-.6443826.1910846-.1812174.4127426-.2718609.6608051-.2718609h2.6077831c.3383936 0 .5934046.0805565.7608636.2383304.170934.1577044.362019.3389218.576728.5436522.21471.2047304.512802.3859478.898445.5437217.382169.1577044.958897.2382609 1.729489.2382609.338394 0 .68721-.023513 1.049228-.0671304s.694158-.1174957.999199-.2214957c.30504-.1040695.559356-.2382608.760864-.4061217.200812-.1677913.30504-.3792.30504-.6275478zm81.892589-17.47730779c0 1.24947478-.814368 2.08102261-2.040784 2.08102261-1.226415 0-2.040783-.83154783-2.040783-2.08102261s.819232-2.08102261 2.040783-2.08102261c1.222247 0 2.040784.83154783 2.040784 2.08102261zm-3.709125 0c0 1.02112.667753 1.71048348 1.668341 1.71048348 1.001284 0 1.676681-.68936348 1.676681-1.71048348 0-1.02112696-.667059-1.71049044-1.676681-1.71049044-1.009621 0-1.668341.68936348-1.668341 1.71049044zm1.785077-1.05128348c.455128 0 .710834.23696696.710834.62473739 0 .28436174-.182051.46101565-.403014.53426087-.04725.0172313-.04725.03015652-.00417.05170087.151478.09047652.234166.20249739.290449.35330087l.203592.4610087c.02154.04739478 0 .07324521-.047945.07324521h-.273077c-.034048 0-.056283-.0172313-.073655-.05170087l-.138275-.34037565c-.11743-.2585113-.238335-.38776348-.563526-.38776348h-.186221v.71521392c0 .03877565-.02154.06462608-.065316.06462608h-.255011c-.039606 0-.065316-.02153739-.065316-.06462608v-1.96900174c0-.03877566.02154-.06462609.065316-.06462609h.810199zm-.489177.97803826h.359239c.290449 0 .4725-.10771478.4725-.32314435 0-.20249739-.147309-.28866782-.342562-.28866782h-.489177z" fill="#36485c"/></g></svg>