<svg width="190" height="70" viewBox="0 0 1063 300" fill="none" xmlns="http://www.w3.org/2000/svg">
<path fill-rule="evenodd" clip-rule="evenodd" d="M883.34 228.505C867.441 244.89 867.12 271.557 883.34 287.739C899.687 304.086 926.372 304.086 942.692 287.745C959.112 271.396 959.104 244.852 942.692 228.511C929.22 215.013 929.227 193.177 942.692 179.71C958.621 163.308 958.94 136.506 942.692 120.32C926.365 103.969 899.684 103.973 883.34 120.32C869.786 133.418 847.936 133.681 834.541 120.32C821.07 106.829 821.07 84.9905 834.536 71.5066C850.445 55.1131 850.769 28.4855 834.544 12.2871C818.216 -4.09477 791.633 -4.09477 775.29 12.2815C758.905 28.6496 758.906 55.1398 775.29 71.5066C788.376 85.0249 788.641 106.967 775.29 120.32C759.392 136.711 759.068 163.508 775.289 179.71C791.636 196.037 818.213 196.036 834.537 179.71C848.1 166.603 869.95 166.336 883.34 179.71C896.827 193.181 896.825 215.011 883.34 228.505ZM942.687 71.7027C959.105 55.293 959.105 28.7292 942.685 12.3177C926.307 -4.10692 899.704 -4.10693 883.342 12.3238C866.897 28.7273 866.888 55.3059 883.342 71.7079C899.696 88.0982 926.305 88.0982 942.687 71.7027ZM1050.69 179.708C1067.1 163.298 1067.1 136.729 1050.69 120.318C1034.31 103.893 1007.7 103.893 991.342 120.324C974.897 136.727 974.888 163.306 991.342 179.708C1007.7 196.098 1034.31 196.103 1050.69 179.708ZM86.4385 89.9961V108.587L53.3124 137.319C74.7768 137.826 90.8328 151.009 90.8328 172.98C90.8328 192.417 75.7908 212.867 46.3829 212.867C30.4959 212.867 17.4821 208.811 0.75 197.318L11.7357 181.262C25.2566 189.713 34.5522 193.431 45.7069 193.431C59.7348 193.431 68.0163 185.318 68.0163 173.149C68.0163 160.812 58.5517 153.882 44.5238 153.882C37.0873 153.882 32.6931 155.234 30.3269 156.079L20.3553 142.389L59.0588 108.925H7.0034V89.9961H86.4385ZM99.5464 108.925H160.897C140.616 135.967 121.349 173.995 116.447 209.994H141.968C147.545 171.29 166.475 132.418 187.094 107.066V89.9961H99.5464V108.925ZM184.945 147.798C184.945 133.094 197.79 120.756 220.945 120.756C235.48 120.756 245.958 124.136 258.127 134.277L246.296 148.643C235.818 140.53 229.226 138.502 220.438 138.502C211.649 138.502 205.903 142.051 205.903 147.122C205.903 152.492 211.074 153.632 224.434 156.576C224.949 156.689 225.476 156.805 226.015 156.924C249.677 162.164 259.479 168.417 259.479 184.473C259.479 201.036 245.958 212.698 222.466 212.698C206.579 212.698 194.748 208.811 180.72 196.304L193.396 182.107C206.072 192.417 212.832 194.952 222.973 194.952C231.592 194.952 238.015 191.741 238.015 185.825C238.015 179.261 230.354 177.611 219.443 175.261C218.556 175.07 217.647 174.874 216.72 174.671C192.382 169.262 184.945 163.178 184.945 147.798ZM296.587 100.475C296.587 107.573 290.84 113.32 283.573 113.32C276.305 113.32 270.559 107.573 270.559 100.475C270.559 93.3764 276.305 87.63 283.573 87.63C290.84 87.63 296.587 93.3764 296.587 100.475ZM272.587 209.994V123.629H294.558V209.994H272.587ZM372.735 133.263C367.496 125.488 359.046 120.756 346.37 120.756C324.567 120.756 308.342 138.502 308.342 164.361C308.342 190.389 324.567 207.966 346.37 207.966C358.031 207.966 366.144 203.74 371.552 196.98V203.909C371.552 219.12 362.257 224.867 350.426 224.867C340.454 224.867 332.511 221.825 320.342 214.557L309.694 230.444C323.722 239.571 337.074 243.12 350.764 243.12C374.595 243.12 393.017 230.444 393.017 205.769V123.629H372.735V133.263ZM351.271 189.375C338.764 189.375 330.483 179.234 330.483 164.361C330.483 149.488 338.764 139.516 351.271 139.516C363.44 139.516 372.228 149.488 372.228 164.361C372.228 179.234 363.44 189.375 351.271 189.375ZM457.504 120.756C445.673 120.756 436.885 125.657 431.476 133.432V123.629H411.026V209.994H432.997V157.938C432.997 147.122 440.265 139.685 450.405 139.685C460.884 139.685 466.461 146.108 466.461 157.431V209.994H488.433V150.84C488.433 133.263 477.616 120.756 457.504 120.756ZM544.3 120.756C527.23 120.756 514.723 127.348 503.907 140.192L517.766 152.868C526.723 144.249 532.808 138.84 544.638 138.84C554.61 138.84 560.863 143.573 560.863 152.023V154.051L540.582 157.769C520.977 161.319 503.231 168.248 503.231 188.191C503.231 205.769 517.766 212.867 534.16 212.867C547.512 212.867 556.807 208.304 562.047 201.036V209.994H581.821V151.685C581.821 133.432 569.145 120.756 544.3 120.756ZM537.878 195.29C529.596 195.29 524.695 192.079 524.695 186.67C524.695 178.558 533.315 175.516 546.328 172.811L560.863 169.769V174.84C560.863 189.882 549.033 195.29 537.878 195.29ZM600.168 89.9961V209.994H622.139V89.9961H600.168ZM637.613 147.798C637.613 133.094 650.458 120.756 673.613 120.756C688.148 120.756 698.626 124.136 710.795 134.277L698.964 148.643C688.486 140.53 681.894 138.502 673.106 138.502C664.317 138.502 658.571 142.051 658.571 147.122C658.571 152.492 663.742 153.632 677.102 156.576C677.617 156.689 678.144 156.805 678.683 156.924C702.345 162.164 712.147 168.417 712.147 184.473C712.147 201.036 698.626 212.698 675.134 212.698C659.247 212.698 647.416 208.811 633.388 196.304L646.064 182.107C658.74 192.417 665.5 194.952 675.641 194.952C684.26 194.952 690.683 191.741 690.683 185.825C690.683 179.261 683.022 177.611 672.111 175.261C671.224 175.07 670.315 174.874 669.388 174.671C645.05 169.262 637.613 163.178 637.613 147.798Z" fill="black"/>
</svg>
