<?xml version="1.0" encoding="utf-8"?>
<!-- Generator: Adobe Illustrator 27.6.1, SVG Export Plug-In . SVG Version: 6.00 Build 0)  -->
<svg version="1.1" id="Layer_1" xmlns="http://www.w3.org/2000/svg" xmlns:xlink="http://www.w3.org/1999/xlink" x="0px" y="0px"
	 viewBox="0 0 350.9 64.5" style="enable-background:new 0 0 350.9 64.5;" xml:space="preserve">
<g id="Layer_2_00000129206264475139707450000007199791181951736999_">
	<g id="Layer_1-2">
		<path d="M341.6,12.6c-5.5,0-9.4,4.8-13.4,10.2C325.7,11.4,322.9,0,314.1,0S302.5,11.4,300,22.8c-4-5.4-7.9-10.2-13.4-10.2
			c-3.5,0-9.4,2.4-9.4,11.2v16.1c0,8.7,4.6,10.8,7.4,11.5l0,0c4.8,1.2,16.4,2.4,29.4,2.4s24.6-1.2,29.4-2.4l0,0
			c2.8-0.7,7.4-2.8,7.4-11.5V23.8C350.8,14.9,345,12.6,341.6,12.6 M314.1,5c5.3,0,7.3,10.4,10.1,23c-3.1,3.8-6.4,6.9-10.1,6.9
			S307,31.8,304,28C306.6,16.3,308.6,5,314.1,5 M282.3,39.9V23.8c0-5.6,3-6.2,4.3-6.2c3.9,0,8,6.4,11.9,11.6
			c-2.8,11.7-5.8,18.8-12.8,17.4C284,46.1,282.3,44.9,282.3,39.9 M296,48c3-3.3,5-8.6,6.5-14.1c3.2,3.4,7,5.9,11.6,5.9
			s8.3-2.5,11.6-5.9c1.5,5.5,3.5,10.8,6.5,14.1c-5.4,0.5-11.9,0.8-18.1,0.8S301.3,48.5,296,48 M345.9,39.9c0,5-1.7,6.2-3.5,6.7
			c-7,1.5-9.9-5.7-12.7-17.4c4-5.2,8.1-11.6,11.9-11.6c1.3,0,4.3,0.6,4.3,6.2L345.9,39.9z"/>
		<path d="M1.1,52.1c-0.3,0-0.6-0.1-0.8-0.3C0.1,51.5,0,51.2,0,50.9c0-0.2,0-0.4,0.1-0.5L14,13.7c0.1-0.4,0.3-0.7,0.6-1
			c0.4-0.3,0.8-0.4,1.2-0.4h5c0.5,0,0.9,0.1,1.2,0.4c0.3,0.3,0.5,0.6,0.7,1l13.8,36.6c0,0.2,0.1,0.3,0.1,0.5c0,0.3-0.1,0.6-0.3,0.8
			c-0.2,0.2-0.5,0.3-0.8,0.3h-3.9c-0.4,0-0.8-0.1-1.1-0.4c-0.2-0.2-0.3-0.4-0.5-0.7l-2.9-7.5H9.5L6.6,51c-0.1,0.3-0.3,0.5-0.5,0.7
			c-0.3,0.3-0.7,0.4-1.1,0.4L1.1,52.1z M11.3,37.9h14.1l-7.1-18.8L11.3,37.9z"/>
		<path d="M42.5,62.8c-0.7,0-1.3-0.5-1.3-1.2c0,0,0-0.1,0-0.1V23.9c0-0.7,0.5-1.3,1.2-1.3c0,0,0.1,0,0.1,0h3.6
			c0.7,0,1.3,0.5,1.3,1.2c0,0,0,0.1,0,0.1v2.4c1-1.2,2.2-2.3,3.6-3c1.7-0.9,3.6-1.3,5.6-1.3c1.8-0.1,3.6,0.3,5.3,1
			c1.4,0.6,2.7,1.6,3.7,2.8c1,1.3,1.8,2.7,2.2,4.3c0.5,1.7,0.8,3.4,0.9,5.2c0,0.6,0.1,1.3,0.1,2s0,1.3-0.1,2c0,1.8-0.3,3.5-0.8,5.2
			c-0.5,1.5-1.2,3-2.2,4.2c-1,1.2-2.3,2.2-3.7,2.9c-1.7,0.7-3.5,1.1-5.4,1c-1.9,0.1-3.7-0.3-5.4-1.2c-1.4-0.7-2.6-1.7-3.5-3v13
			c0,0.4-0.1,0.7-0.4,0.9c-0.3,0.3-0.6,0.4-1,0.4L42.5,62.8z M55,47.3c1.5,0.1,2.9-0.3,4.2-1.2c1-0.8,1.8-1.8,2.2-3
			c0.5-1.3,0.7-2.7,0.8-4.1c0.1-1.1,0.1-2.2,0-3.3c-0.1-1.4-0.3-2.8-0.8-4.1c-0.4-1.2-1.2-2.2-2.2-3c-1.2-0.9-2.7-1.3-4.2-1.2
			c-2.9-0.2-5.5,1.5-6.5,4.2c-0.5,1.2-0.7,2.5-0.8,3.8c0,0.7-0.1,1.4-0.1,2.2c0,0.8,0,1.5,0.1,2.2c0,1.2,0.3,2.5,0.8,3.6
			c0.5,1.1,1.3,2.1,2.4,2.9C52.1,47,53.6,47.4,55,47.3z"/>
		<path d="M75.7,62.8c-0.7,0-1.3-0.5-1.3-1.2c0,0,0,0,0-0.1V23.9c0-0.7,0.5-1.3,1.2-1.3c0,0,0.1,0,0.1,0h3.6c0.3,0,0.7,0.1,0.9,0.4
			c0.2,0.2,0.4,0.6,0.4,0.9v2.4c1-1.2,2.2-2.3,3.6-3c1.7-0.9,3.6-1.3,5.5-1.3c1.8-0.1,3.6,0.3,5.3,1c1.4,0.6,2.7,1.6,3.7,2.8
			c1,1.3,1.8,2.7,2.2,4.3c0.5,1.7,0.8,3.4,0.9,5.2c0,0.6,0,1.3,0,2s0,1.3,0,2c0,1.8-0.3,3.5-0.8,5.2c-0.5,1.5-1.2,3-2.2,4.2
			c-1,1.2-2.3,2.2-3.7,2.9c-1.7,0.7-3.5,1.1-5.4,1c-1.9,0.1-3.7-0.3-5.3-1.2c-1.4-0.7-2.6-1.7-3.6-3v13c0,0.4-0.1,0.7-0.4,0.9
			c-0.3,0.3-0.6,0.4-1,0.4L75.7,62.8z M88.2,47.3c2.8,0.3,5.5-1.5,6.3-4.2c0.5-1.3,0.7-2.7,0.8-4.1c0.1-1.1,0.1-2.2,0-3.3
			c-0.1-1.4-0.3-2.8-0.8-4.1c-0.9-2.7-3.5-4.4-6.3-4.2c-2.9-0.2-5.5,1.5-6.5,4.2c-0.5,1.2-0.7,2.5-0.8,3.8c0,0.6-0.1,1.4-0.1,2.2
			s0,1.5,0.1,2.2c0,1.2,0.3,2.5,0.8,3.6c0.5,1.1,1.3,2.1,2.4,2.9C85.3,47,86.7,47.4,88.2,47.3z"/>
		<path d="M122.2,52.6c-2.9,0.1-5.8-0.4-8.6-1.5c-2.1-0.8-3.9-2.2-5.3-4c-1.2-1.5-1.8-3.3-1.9-5.2c0-0.3,0.1-0.6,0.3-0.8
			c0.2-0.2,0.5-0.3,0.8-0.3h4c0.4,0,0.7,0.1,1,0.3c0.2,0.2,0.4,0.5,0.6,0.8c0.3,0.9,0.7,1.7,1.4,2.4c0.8,0.9,1.8,1.6,2.9,2
			c1.5,0.6,3.1,0.8,4.7,0.8c3,0,5.2-0.5,6.6-1.5c1.4-0.9,2.2-2.5,2.1-4.2c0-1.1-0.4-2.1-1.1-2.9c-1-0.9-2.2-1.6-3.5-2
			c-1.6-0.6-3.6-1.2-6.2-1.9c-2.4-0.6-4.8-1.5-7-2.5c-1.7-0.8-3.1-2-4.2-3.6c-1-1.6-1.5-3.5-1.4-5.4c0-2,0.6-4,1.7-5.7
			c1.2-1.7,3-3.1,4.9-3.9c2.4-1,5-1.5,7.7-1.4c2.2,0,4.3,0.3,6.4,1c1.7,0.6,3.2,1.4,4.6,2.6c1.1,0.9,2.1,2.1,2.8,3.4
			c0.6,1.1,0.9,2.3,1,3.6c0,0.3-0.1,0.6-0.3,0.8c-0.2,0.2-0.5,0.4-0.9,0.4h-4.1c-0.3,0-0.6-0.1-0.9-0.2c-0.3-0.2-0.5-0.5-0.6-0.9
			c-0.3-1.4-1.2-2.7-2.4-3.5c-1.6-1-3.5-1.5-5.4-1.4c-1.9-0.1-3.8,0.4-5.4,1.3c-1.4,0.8-2.2,2.4-2.1,4c0,1.1,0.3,2.1,1,2.9
			c0.9,0.9,2,1.6,3.2,2c1.9,0.7,3.8,1.4,5.8,1.9c2.7,0.6,5.3,1.5,7.8,2.5c1.8,0.7,3.3,2,4.4,3.5c1,1.6,1.5,3.5,1.4,5.4
			c0.1,2.2-0.6,4.4-1.9,6.2c-1.4,1.8-3.3,3.2-5.4,4C127.8,52.2,125,52.7,122.2,52.6z"/>
		<path d="M143.8,17.4c-0.4,0-0.7-0.1-1-0.4c-0.2-0.2-0.4-0.6-0.4-0.9v-3.6c0-0.4,0.1-0.7,0.4-1c0.3-0.3,0.6-0.4,1-0.4h4.3
			c0.4,0,0.7,0.1,1,0.4c0.3,0.3,0.4,0.6,0.4,1v3.6c0,0.4-0.1,0.7-0.4,0.9c-0.3,0.2-0.6,0.4-1,0.4H143.8z M144.1,52.1
			c-0.4,0-0.7-0.1-1-0.4c-0.2-0.2-0.4-0.6-0.4-0.9V23.9c0-0.4,0.1-0.7,0.4-0.9c0.3-0.2,0.6-0.4,1-0.4h3.7c0.7,0,1.3,0.5,1.3,1.2
			c0,0,0,0.1,0,0.1v26.9c0,0.4-0.1,0.7-0.4,0.9c-0.2,0.2-0.6,0.4-0.9,0.4L144.1,52.1z"/>
		<path d="M168.5,64.5c-2.2,0.1-4.5-0.3-6.6-1c-1.5-0.6-2.8-1.4-4-2.5c-0.9-0.8-1.6-1.9-2.1-3c-0.3-0.8-0.6-1.6-0.6-2.4
			c-0.1-0.4,0.1-0.7,0.3-1c0.3-0.3,0.6-0.4,1-0.4h3.9c0.3,0,0.6,0.1,0.9,0.2c0.3,0.3,0.5,0.6,0.6,1c0.3,0.6,0.6,1.2,1,1.7
			c0.5,0.7,1.2,1.2,1.9,1.6c1.1,0.5,2.3,0.7,3.6,0.7c1.4,0,2.8-0.2,4.1-0.7c1.1-0.4,2-1.3,2.5-2.3c0.6-1.4,0.9-2.9,0.9-4.5v-3.8
			c-1,1.2-2.2,2.1-3.6,2.8c-1.7,0.8-3.5,1.1-5.4,1.1c-1.8,0.1-3.7-0.3-5.4-1c-1.4-0.6-2.7-1.6-3.7-2.9c-1-1.3-1.7-2.7-2.2-4.3
			c-0.5-1.7-0.8-3.5-0.8-5.3c0-1,0-2.1,0-3.1c0-1.7,0.3-3.5,0.8-5.2c0.4-1.6,1.2-3.1,2.2-4.4c1-1.3,2.3-2.3,3.7-2.9
			c1.7-0.8,3.5-1.1,5.4-1.1c1.9-0.1,3.8,0.4,5.5,1.2c1.4,0.8,2.7,1.8,3.7,3.1V24c0-0.4,0.1-0.7,0.4-1c0.3-0.3,0.6-0.4,1-0.4h3.6
			c0.7,0,1.3,0.6,1.4,1.3c0,0,0,0.1,0,0.1v27.4c0.1,2.4-0.4,4.7-1.4,6.9c-0.9,2-2.5,3.6-4.4,4.6C173.9,64.1,171.2,64.7,168.5,64.5z
			 M168.3,46.8c1.5,0.1,2.9-0.3,4.1-1.2c1-0.8,1.8-1.8,2.3-3c0.5-1.2,0.8-2.4,0.9-3.7c0-0.5,0.1-1.1,0.1-1.9s0-1.4-0.1-1.8
			c-0.1-1.3-0.4-2.6-0.9-3.7c-0.5-1.2-1.3-2.2-2.3-3c-1.2-0.8-2.7-1.2-4.1-1.2c-1.5-0.1-2.9,0.3-4.2,1.2c-1,0.8-1.8,1.8-2.2,3
			c-0.5,1.3-0.7,2.7-0.8,4.1c0,1,0,1.9,0,2.8c0.1,1.4,0.3,2.8,0.8,4.1c0.4,1.2,1.2,2.3,2.2,3.1C165.4,46.5,166.8,46.9,168.3,46.8z"
			/>
		<path d="M190.1,52.1c-0.4,0-0.7-0.1-1-0.4c-0.2-0.3-0.4-0.6-0.4-0.9V23.9c0-0.4,0.1-0.7,0.4-0.9c0.3-0.2,0.6-0.4,1-0.4h3.6
			c0.7,0,1.3,0.5,1.3,1.2c0,0,0,0.1,0,0.1v2.4c1-1.3,2.3-2.3,3.8-3.1c1.8-0.9,3.7-1.3,5.7-1.2c2.1-0.1,4.3,0.5,6.1,1.6
			c1.7,1.1,3.1,2.6,3.9,4.4c1,2.1,1.4,4.4,1.4,6.8v16c0,0.4-0.1,0.7-0.4,0.9c-0.3,0.3-0.6,0.4-1,0.4h-3.9c-0.3,0-0.7-0.1-0.9-0.4
			c-0.2-0.2-0.4-0.6-0.4-0.9V35.1c0.1-2-0.5-4.1-1.8-5.7c-1.3-1.4-3.2-2.1-5.1-2c-1.9-0.1-3.8,0.6-5.2,2c-1.4,1.5-2.1,3.6-2,5.7
			v15.7c0,0.4-0.1,0.7-0.4,0.9c-0.3,0.3-0.6,0.4-1,0.4H190.1z"/>
		<path d="M230.9,52.6c-1.8,0-3.6-0.4-5.2-1.2c-1.5-0.7-2.8-1.8-3.7-3.1c-0.9-1.3-1.4-2.8-1.4-4.4c-0.1-2.5,1.1-4.8,3.2-6.3
			c2.5-1.7,5.4-2.8,8.4-3.1l8-1.2V32c0.1-1.5-0.4-2.9-1.4-4c-0.9-0.9-2.4-1.4-4.5-1.4c-1.3-0.1-2.6,0.3-3.7,0.9
			c-0.9,0.6-1.6,1.4-2,2.4c-0.2,0.5-0.7,0.8-1.2,0.7h-3.5c-0.3,0-0.7-0.1-0.9-0.3c-0.2-0.3-0.3-0.6-0.3-0.9c0.1-0.7,0.3-1.5,0.7-2.1
			c0.5-1,1.2-1.8,2.1-2.5c1.1-0.9,2.3-1.6,3.7-2c1.7-0.6,3.5-0.9,5.4-0.8c2-0.1,4,0.2,5.9,0.9c1.4,0.5,2.7,1.3,3.8,2.4
			c0.9,1,1.6,2.1,2.1,3.4c0.4,1.3,0.7,2.6,0.6,4v18.1c0,0.4-0.1,0.7-0.4,0.9c-0.3,0.3-0.6,0.4-1,0.4h-3.6c-0.7,0-1.3-0.5-1.3-1.2
			c0,0,0-0.1,0-0.1v-2.4c-0.6,0.8-1.2,1.4-2,2c-0.9,0.7-1.9,1.2-3,1.6C233.9,52.4,232.4,52.7,230.9,52.6z M232.5,47.8
			c1.4,0,2.7-0.3,3.9-0.9c1.2-0.7,2.2-1.7,2.8-2.9c0.7-1.5,1.1-3.2,1-4.9v-1.4l-6.1,1c-1.9,0.2-3.8,0.8-5.5,1.8
			c-1.1,0.6-1.8,1.8-1.9,3.1c0,0.9,0.3,1.7,0.9,2.4c0.6,0.6,1.3,1.1,2.2,1.4C230.6,47.7,231.6,47.8,232.5,47.8z"/>
		<path d="M254.5,52.1c-0.7,0-1.3-0.5-1.3-1.2c0,0,0-0.1,0-0.1V13.1c0-0.7,0.5-1.3,1.2-1.3c0,0,0.1,0,0.1,0h3.7
			c0.7,0,1.3,0.5,1.3,1.2c0,0,0,0.1,0,0.1v37.6c0,0.7-0.5,1.3-1.2,1.3c0,0-0.1,0-0.1,0H254.5z"/>
	</g>
</g>
</svg>
