<svg fill="none" height="70" viewBox="0 0 190 70" width="190" xmlns="http://www.w3.org/2000/svg"><path d="m18.5349 48.8809h11.2553c2.1025 0 3.856-.7293 5.2621-2.1897 1.416-1.3979 2.1371-3.2962 2.1618-5.6969 0-1.4455-.3474-2.7857-1.0439-4.0173-.7458-1.1937-1.8457-1.9873-3.2994-2.3808v-.0774c.7019-.3361 1.3555-.7653 1.9427-1.276.5253-.4446.9287-.9137 1.2102-1.4094.541-1.0058.8121-2.1346.787-3.2764 0-2.2343-.6652-4.0306-1.9972-5.3889-1.3204-1.3468-3.2928-2.0318-5.9206-2.0581h-10.358zm10.2838-12.3238c1.5033.0264 2.6032.438 3.2996 1.2382.6965.8133 1.0455 1.7913 1.0455 2.934 0 1.1163-.349 2.0828-1.0455 2.8945-.6964.8265-1.7963 1.2513-3.2996 1.276h-6.2318v-8.3427zm-.3852-11.6948c1.4785.0263 2.5668.4001 3.2633 1.1245.708.7739 1.0637 1.7206 1.0637 2.8369 0 1.1196-.354 2.0449-1.0637 2.7825-.6965.7986-1.7848 1.1986-3.2633 1.1986h-5.8466v-7.9425zm12.7766 24.0186h3.833v-19.7707h-3.833zm0-23.7898h3.833v-3.9811h-3.833zm19.616 21.7136v2.0384c-.0247 1.3468-.428 2.4005-1.2102 3.1612-.7952.7491-1.8457 1.1245-3.1529 1.1245-.7105-.0293-1.403-.2323-2.017-.5911-.6167-.317-1.1845-.7212-1.686-1.2002l-2.9702 2.4581c1.821 2.1569 4.0207 3.2633 6.5991 3.3144 2.249 0 4.1804-.7178 5.7939-2.1536 1.6003-1.3962 2.4253-3.5794 2.4746-6.5529v-19.2917h-3.8313v2.096c-1.3814-1.5642-3.0197-2.343-4.9131-2.343-1.2348.0247-2.2605.2717-3.0789.741-.8561.4972-1.5097 1.0537-1.9625 1.6777-.5006.6339-.8611 1.4159-1.0818 2.3429-.2305.9385-.3474 2.7365-.3474 5.3906 0 2.6014.1153 4.368.3474 5.295.2207.9384.5812 1.7321 1.0818 2.3808.4528.5713 1.1064 1.1032 1.9609 1.5987.82.522 1.8457.7953 3.0789.82 2.0186-.0495 3.6552-.82 4.9147-2.3051zm-7.5523-7.7894c0-1.5378.0493-2.6031.1465-3.2008.0856-.5959.2865-1.0784.6043-1.4488.2568-.354.647-.703 1.1738-1.0455.5006-.293 1.1246-.4512 1.8688-.4775.7459.0263 1.3699.1845 1.8704.4775.5006.3425.8792.6915 1.1361 1.0472.3177.3687.5318.8512.6421 1.4489.0741.5959.1103 1.6628.1103 3.199 0 1.5099-.0362 2.5521-.1103 3.1234-.0858.5411-.3067 1.0519-.6421 1.4851-.2569.3556-.6355.68-1.1361.9714-.5005.3556-1.1245.5335-1.8704.5335s-1.3682-.1779-1.8688-.5335c-.5268-.2914-.917-.6158-1.1738-.9714-.3178-.3936-.5187-.8891-.6043-1.4851-.0988-.5713-.1482-1.6135-.1482-3.1234zm16.7001 9.8656h11.2552c2.1009 0 3.8561-.7293 5.2605-2.1897 1.4176-1.3979 2.1404-3.2962 2.1635-5.6969 0-1.4455-.3491-2.7857-1.0456-4.0173-.7442-1.1937-1.844-1.9873-3.2995-2.3808v-.0774c.7706-.3786 1.4177-.8068 1.9429-1.276.5268-.4446.9285-.9137 1.2101-1.4094.5415-1.0057.8132-2.1345.7886-3.2764 0-2.2343-.6667-4.0306-1.9987-5.3889-1.3189-1.3468-3.293-2.0318-5.9207-2.0581h-10.3563zm10.2838-12.3238c1.5033.0264 2.6014.438 3.2995 1.2382.6965.8133 1.0439 1.7913 1.0439 2.934 0 1.1163-.3474 2.0828-1.0439 2.8945-.6981.8265-1.7962 1.2513-3.3011 1.276h-6.2319v-8.3427zm-.3853-11.6948c1.4785.0263 2.5652.4001 3.2634 1.1245.7079.7739 1.0619 1.7206 1.0619 2.8369 0 1.1196-.354 2.0449-1.0619 2.7825-.6982.7986-1.7849 1.1986-3.2634 1.1986h-5.8482v-7.9425zm12.7766 24.0186h3.8313v-19.7707h-3.8313zm0-23.7898h3.8313v-3.9811h-3.8313zm8.909 23.7915h3.831v-11.7722c0-1.3831.361-2.4385 1.082-3.1613.708-.7376 1.614-1.1064 2.713-1.1064 1.101 0 1.997.3688 2.695 1.1048.709.7244 1.063 1.7782 1.063 3.1612v11.7722h3.831v-13.1421c-.061-2.2606-.739-3.9745-2.035-5.1435-1.307-1.1542-2.75-1.7321-4.326-1.7321-2.041 0-3.691.7804-4.949 2.343h-.074v-2.096h-3.831v19.7707zm30.155 0h3.831v-13.5076c-.024-2.4121-.75-4.1145-2.181-5.1041-1.429-.9648-3.343-1.4357-5.738-1.4093-2.835-.0511-4.979.9137-6.435 2.8944l3.007 2.3808c.329-.5713.782-.978 1.356-1.2183.551-.2042 1.302-.3046 2.256-.3046 2.628-.0511 3.928.7936 3.904 2.5323v2.0761h-5.295c-2.03.0264-3.57.5977-4.62 1.714-1.052 1.0933-1.577 2.4697-1.577 4.1327 0 1.7403.605 3.1694 1.814 4.2873 1.149 1.1427 2.788 1.7272 4.913 1.7518 1.296 0 2.31-.1646 3.044-.4939.709-.2845 1.294-.8114 1.65-1.4867h.073v1.7518zm0-6.953c0 1.4851-.298 2.4368-.897 2.8566-.661.4182-1.792.6157-3.392.5894-1.271 0-2.181-.2601-2.733-.7804-.573-.4693-.859-1.0406-.859-1.7123-.025-1.5378 1.075-2.3314 3.299-2.3825h4.582zm8.781 6.9513h3.831v-11.9039c.025-1.4489.428-2.4961 1.21-3.1431.333-.3223.726-.5757 1.157-.7458.431-.1702.891-.2535 1.354-.2454.87 0 1.706.3293 2.512.9912l2.786-3.4477c-1.136-.9895-2.469-1.4983-3.995-1.523-2.042 0-3.692.7804-4.95 2.343h-.074v-2.096h-3.83zm20.593-.7804-1.043 3.3143c-.171.5714-.471 1.0028-.899 1.2942-.428.2799-.893.4198-1.393.4198h-1.12v3.7524h1.267c1.185 0 2.248-.2733 3.188-.82.93-.5713 1.657-1.5987 2.182-3.0854l8.196-23.8656h-4.069l-4.492 13.8467h-.073l-4.511-13.8467h-4.051l6.82 18.9903z" fill="#000"/></svg>