<svg fill="none" height="70" viewBox="0 0 190 70" width="190" xmlns="http://www.w3.org/2000/svg"><path d="m164.793 16.9973-3.84 3.8403h12.207v12.2043l3.84-3.8403v-12.2043z" fill="#e61d47"/><g fill="#141210"><path d="m57.2449 28.7945v-.3936h-3.8102v1.8586c-1.2601-1.3967-2.963-2.2468-5.0758-2.2468-4.838 0-8.0387 4.2585-8.0387 9.0282 0 4.7013 3.0668 9.061 8.0387 9.061 2.1484 0 3.8567-.8774 5.0758-2.2933v1.8505h3.8157v-16.8646zm-8.4432 13.9344c-2.8946 0-4.5319-2.6568-4.5319-5.688 0-3.1679 1.7712-5.6553 4.5319-5.6553 2.7251 0 4.8708 2.2496 4.8708 5.6225 0 3.6107-2.3152 5.7208-4.8708 5.7208z"/><path d="m94.4128 28.7971v-.3936h-3.8103v1.8587c-1.26-1.3967-2.9629-2.2468-5.0758-2.2468-4.838 0-8.0387 4.2585-8.0387 9.0282 0 4.7013 3.0668 9.0609 8.0387 9.0609 2.1484 0 3.8568-.8774 5.0758-2.2932v1.8504h3.8158v-16.8646zm-8.4433 13.9345c-2.8946 0-4.5318-2.6568-4.5318-5.688 0-3.168 1.7712-5.6553 4.5318-5.6553 2.7252 0 4.8708 2.2495 4.8708 5.6225.0028 3.6079-2.3151 5.7208-4.8708 5.7208z"/><path d="m165.613 28.7808v-.3936h-3.81v1.8586c-1.26-1.3967-2.963-2.2468-5.076-2.2468-4.838 0-8.038 4.2586-8.038 9.0282 0 4.7013 3.066 9.061 8.038 9.061 2.149 0 3.857-.8774 5.076-2.2933v1.8505h3.816v-16.8646zm-8.446 13.9345c-2.894 0-4.532-2.6568-4.532-5.6881 0-3.1679 1.772-5.6552 4.532-5.6552 2.725 0 4.871 2.2495 4.871 5.6224.003 3.608-2.315 5.7209-4.871 5.7209z"/><path d="m16.8545 40.564v-3.2472c0-3.9852 1.6701-5.9614 3.6463-5.9614 1.8723 0 2.624 1.5334 2.624 3.6791v5.5268h3.8157v-3.0067c0-4.1902 1.6345-6.1992 3.6463-6.1992 1.875 0 2.624 1.5334 2.624 3.6791v5.5268h3.8157v-6.0379c0-4.0536-2.1812-6.5409-5.6225-6.5409-2.1812 0-4.0535.9212-5.2452 2.9629-.8856-1.8723-2.5885-2.9629-4.838-2.9629-1.8368 0-3.3839.697-4.5291 2.1539v-1.7657h-3.7912v12.1906h3.854z"/><path d="m102.431 45.6591v-3.8485h-3.8155v3.8485z"/><path d="m113.387 45.6582v-3.8485h-3.816v3.8485z"/><path d="m141.626 45.6577v-3.8485h-3.816v3.8485z"/><path d="m26.933 45.66v-3.8485h-3.8157v3.8485z"/><path d="m16.8486 45.6584v-3.8485h-3.8485v3.8485z"/></g><path d="m37.0222 45.6595v-3.8486h-3.8102v3.8486z" fill="#e61d47"/><path d="m72.0542 45.6427h5.4338l-8.6318-8.6319 8.6318-8.6291h-5.4338l-8.6292 8.6291z" fill="#141210"/><path d="m65.2837 24.3226h-3.8157v21.3418h3.8157v-5.6224l.0082-.0082v-5.043l-.0082.0082z" fill="#141210"/><path d="m129.801 24.3036v5.9395c-1.26-1.3967-2.963-2.2468-5.076-2.2468-4.939 0-8.038 4.3597-8.038 9.061 0 4.7697 3.168 9.0282 8.038 9.0282 2.25 0 4.021-.954 5.248-2.4518l.342 2.009h3.305v-21.3391zm-4.633 18.409c-2.826 0-4.529-2.5202-4.529-5.6553 0-3.0668 1.703-5.688 4.529-5.688 2.556 0 4.874 2.1128 4.874 5.688-.003 3.4057-2.149 5.6553-4.874 5.6553z" fill="#141210"/><path d="m141.65 40.5641v-2.5311c0-3.9168 1.908-6.642 5.382-6.642v-3.3756c-2.556 0-4.256 1.0797-5.382 2.7087v-2.3206h-3.84v12.1578h3.84z" fill="#141210"/><path d="m102.451 40.5642v-2.8399c0-3.9852 1.703-6.3359 4.464-6.3359 1.875 0 2.657 1.5662 2.657 3.7119v5.4612h3.816v-5.9696c0-4.0535-2.25-6.5737-5.691-6.5737-2.228 0-4.021.8064-5.246 2.3972v-1.9544h-.543v-.0027l-.017.0027h-3.2744v12.1032z" fill="#141210"/></svg>