<svg height="70" viewBox="0 0 190 70" width="190" xmlns="http://www.w3.org/2000/svg"><path d="m145.841905 42.2131516c-4.262392 7.2265658-11.012779 5.1296606-13.040163 3.4878632-.86284.5854263-2.375795 1.8686132-4.393247 1.7204447-4.296482-.3153947-5.835072-6.4552579-5.835072-6.4552579.030869.0245606-1.279831.4522895-1.988194.4446395-.009127 1.8005684-1.565566 6.1017474-5.766087 6.0467211-4.713608-.0614685-5.671871-7.0839-5.671871-7.0839s-.469066.6513236-2.25259 1.3000973c.089787-1.3833079.024158 5.5732263-5.6253 5.6754948-4.4662575.0809289-5.6718707-7.0839-5.6718707-7.0839s-.7747974.8048605-2.2763447 1.0840184c.0954237-1.4058553-.0597237 6.0235026-5.7098527 5.9998816-3.8182894-.0158369-5.1230842-4.4135132-5.021621-5.0239027.1295131-.7778842-1.2904342 5.1332842-4.9993421 5.0412158-1.5305369-.0449605-2.6715948-1.1531368-3.3876079-2.6305263-.9585316 1.0967684-2.3501605 2.6305263-3.9112974 2.6305263-2.8023158 0-4.0377237-2.3438526-3.8284895-9.0382737.01785-.7939894-.0394579-1.1062973-.82875-1.2250736-.4737631-.07905-.9589342-.2286948-1.4722894-.3076106-.1645421.5490553-1.5600632 10.3923237-6.3587606 10.5791448-1.6098686.0626763-2.4901421-1.3319053-3.2130536-2.3669369-1.1081629 1.4659816-2.571004 2.4136421-4.6549445 2.4136421-3.5300321 0-5.9351519-2.8537184-5.9351519-6.3739263 0-3.5203421 2.4051198-6.3737652 5.9351519-6.3737652.624146 0 .7993579.0894647 1.3695513.2558321-1.1726242-10.6764474 1.5966489-12.3450243 4.0191624-12.3450243 2.3257476 0 6.2990502 5.398019.7082692 19.0902574 1.2412595 4.0840263 3.9171758 3.85305 5.2030468-4.5541658.2617105-1.7089429-.4380631-4.0150555.6503842-4.3369192 1.9896711-.5882179 2.2007842 1.1766237 3.1336816 1.470679.9864474.3107779 1.5622105.2804329 2.5092.4781921 1.6181763.3160121 2.2496369 1.1852937 2.0524816 3.1213744-.2367474 2.4497448-.6509211 6.0153158.6118658 6.4498895.9106184.3156632 2.5732184-1.5728131 2.8649921-2.6061.2916395-1.0332868.352571-1.3869316.3784737-2.1448184.0394579-1.6197868.0889815-2.8071474.3651868-4.032154.1182395-.4740181.2529869-.7879231.7892921-.8093834.4412842-.0112468 1.2482921-.1441287 1.6035474.1323719.4734947.3557652.4143079.7167647.3599526 1.6668813-.5506658 13.5464052 3.6877026 6.7839395 4.951429 1.3692158-.4500079-6.1227782-.1410553-15.183202 3.6957552-15.3351617 1.9954421-.0790276 2.8776079 1.5195435 2.9746421 2.7127288.2744606 3.3699995-1.262921 8.9523387-3.2848026 12.7064487-1.1555526 7.6600658 5.0523553 9.1746315 6.0451105 3.0604026-1.6242158-.7722474-3.3795552-3.8980105-1.9511526-5.4212866.8015053-.8548942 4.1378447.3732261 4.1924684 3.0517998 1.6365632-.4376606 1.8550579-1.3617 1.8777395-1.2085658-.4498737-6.1227916-.0326132-14.7494886 3.8044658-14.9014492 1.9951732-.0790276 2.8772052 1.5195457 2.9742392 2.712731.274461 3.3699861-1.262921 8.9523387-3.284534 12.7065024-1.1556868 7.6599316 5.052355 9.1746316 6.044842 3.0604026-1.202526-.23205-3.740984-3.5567132-2.276345-5.4213403.782716-.9964192 4.106843 1.0757377 4.479008 3.1404324 1.572142-.4449079 1.785671-1.3395553 1.808219-1.188971-.450008-6.1225903-.032748-14.7492873 3.804331-14.9012475 1.995174-.0790276 2.877206 1.5195454 2.97424 2.7127306.27446 3.3699861-1.262921 8.9524461-3.284803 12.7065695-1.155418 7.6600658 5.05249 9.1743631 6.045245 3.0601342-1.652534-.2751316-4.001084-3.7855421-2.110863-5.5813729.755202-.7175432 3.640863 1.145044 4.316344 3.2699992.938535-.0361026 1.522753-.3598184 1.647972-.3924316-1.498327-7.1877789-.382903-15.8120425 3.744742-15.8840333 2.230981-.0388729 4.412036 1.2061058 3.454713 8.0443133-.91384 6.5244569-4.198642 9.2624858-4.190992 9.3043595.191115.7816421 1.876665 7.3230632 6.121208 3.8715711-.219703-.4975185-.439674-1.0057737-.562611-1.6215316-.703532-3.5867763.6783-7.6380687 4.434182-8.2928416 2.151931-.3751318 4.179047.6725558 4.499542 3.0344732.527313 3.8648605-2.962563 6.663821-4.289637 7.2709894-.594419-.3376736 5.388016 3.4991369 8.938421-4.1899184.205879-.4390026.454034-.4018263.775603-.1755474.227084.1598448 1.520605 1.3851869.918939 2.4223658zm-93.3389652-2.1152921c-.1806474-.5400631-.5513771-1.7301079-.682474-2.2457447-.7219989-.6278368-1.2373405-.7298368-2.164091-.7298368-2.0595277 0-3.2717305 1.9041789-3.2717305 3.9574657 0 2.0531527 1.3206047 3.9576 3.3801457 3.9576 1.7848256 0 3.1432374-1.2135315 3.5576795-2.9314263-.2900826-.6697105-.5778434-1.2852-.8195297-2.0080579zm2.7704676-14.6871544c-1.4471384 0-1.9380403 3.4521631-1.8427776 6.397185.0842708 2.6037513.8118395 4.8960536 1.1892663 5.9231668.0958263.1287079.07803.0449605.1635758.1814526 2.5126895-5.5054097 1.4705045-12.5018044.4899355-12.5018044zm30.1347055.1084421c-1.8703579-.2145087-1.8582789 7.5769358-1.6260947 9.3246521.9714158-1.5539969 2.6588447-8.9062374 1.6260947-9.3246521zm13.6580685 0c-1.8703579-.2145087-1.858279 7.5769358-1.6259606 9.3246521.9712816-1.5539969 2.6588452-8.9062374 1.6259606-9.3246521zm13.5498946.1084018c-1.870492-.2145087-1.858413 7.5769761-1.626095 9.3248132.971282-1.5541311 2.658845-8.9064253 1.626095-9.3248132zm13.332876-.5645029c-2.914113.5851847-2.235544 10.301329-1.792918 12.0054134 3.432568-4.7146144 3.503297-12.1825042 1.792918-12.0054134zm10.921382 12.1419055c-.148168-.6195158-.889011-.9506131-1.400353-.8690131-1.463163.1998395-2.882305 2.02215-2.332981 4.79655.122266.6179052.428266 1.1866895.4233 1.1677658 3.274602-2.1968921 3.552955-3.9280737 3.310034-5.0953027zm-61.7059737-4.6380741c-.4182.0000805-.8270053-.123863-1.1747447-.3561411-.3477395-.2322916-.6188448-.5624763-.7789579-.9488282-.1601132-.3863384-.2019869-.8114905-.1203869-1.2216513.0814658-.4101742.2829158-.7869434.5785816-1.0826763s.6723947-.4971292 1.0825421-.5787292.8353263-.0397398 1.2217184.1203063c.3863921.1600326.71655.4310574.9488685.7787834.2323184.3477261.3563289.7565447.3563289 1.1747313 0 .2776279-.0546237.5525448-.1609184.8090345-.1061605.2565032-.2618448.4895597-.4581948.6858829s-.4293394.352061-.6858157.4583155c-.2564764.1062679-.5313395.1609722-.8090211.1609722z" fill-rule="evenodd"/></svg>