<svg fill="none" height="70" viewBox="0 0 190 70" width="190" xmlns="http://www.w3.org/2000/svg"><path d="m28.7178 19.2915c8.6802.0002 15.7166 7.0327 15.7168 15.708 0 8.6758-7.0365 15.7088-15.7168 15.709-8.6804 0-15.7178-7.033-15.7178-15.709.0001-8.6754 7.0375-15.708 15.7178-15.708zm53.3222 10.4531c4.0003.0001 6.2168 2.2836 6.2168 6.2139v8.1562c0 .1556-.1264.2822-.2822.2823h-3.0908c-.1557 0-.2822-.1266-.2822-.2823v-.7041c0-.2837-.4196-.4104-.6123-.2021-.9806 1.0597-2.3724 1.5352-3.8204 1.5352-2.8778-.0002-4.9501-1.7343-4.9501-4.4219.0001-2.514 1.8137-4.1035 4.8066-4.1035h3.5976c.5179-.0001.6621-.1732.6622-.6065v-.2021c0-1.5606-.9213-2.4277-2.2452-2.4278-1.2676 0-2.0554.6852-2.5283 1.8418-.0548.1341-.1982.2123-.3388.1778l-3.1143-.7627c-.1583-.0389-.2512-.2044-.1953-.3575.9324-2.55 3.2065-4.1367 6.1767-4.1367zm13.5567 0c3.4556 0 5.3713 1.5739 6.0523 3.875.046.1549-.056.3118-.214.3418l-2.9711.5625c-.141.0267-.2789-.0574-.3301-.1914-.4138-1.0799-1.2768-1.7841-2.5654-1.7842-1.2951 0-2.0147.5491-2.0147 1.4161 0 2.6009 8.3173.8095 8.3173 6.0693 0 2.7164-2.2162 4.71-6.1015 4.71-3.0278-.0001-5.4934-1.1844-6.2304-3.6319-.0446-.1478.0485-.3.1982-.3379l2.9102-.7363c.139-.0351.2816.0395.3427.1689.5035 1.0668 1.5253 1.6475 2.9239 1.6475 1.4672-.0001 2.2156-.578 2.2158-1.4736 0-2.2542-8.3467-.6362-8.3467-6.0694.0001-2.543 2.0147-4.5663 5.8135-4.5664zm12.9293 0c3.456 0 5.372 1.5739 6.053 3.875.046.1549-.056.3118-.215.3418l-2.97.5625c-.142.0267-.279-.0574-.331-.1914-.413-1.08-1.276-1.7841-2.565-1.7842-1.295 0-2.015.5491-2.015 1.4161 0 2.6009 8.318.8095 8.318 6.0693 0 2.7164-2.217 4.71-6.102 4.71-3.028-.0001-5.492-1.1846-6.229-3.6319-.045-.1478.047-.3.197-.3379l2.91-.7363c.139-.0351.282.0395.343.1689.504 1.0666 1.524 1.6474 2.923 1.6475 1.467 0 2.216-.5779 2.217-1.4736 0-2.2542-8.347-.6362-8.347-6.0694 0-2.543 2.015-4.5663 5.813-4.5664zm35.644 0c4.317.0002 7.281 3.3533 7.281 7.5147 0 4.1324-2.965 7.4842-7.281 7.4844-4.288 0-7.281-3.3519-7.281-7.4844 0-4.1615 2.993-7.5147 7.281-7.5147zm32.548-4.0898c.156 0 .282.1257.282.2812v18.1787c0 .1557-.126.2823-.282.2823h-3.235c-.155 0-.282-.1266-.282-.2823v-2.2607c-.835 2.0806-2.389 2.8897-4.403 2.8897-3.713-.0001-6.245-3.2075-6.245-7.4844 0-4.2771 2.532-7.5146 6.245-7.5147 1.899 0 3.396.665 4.288 2.3408v-6.1494c0-.1555.126-.2812.282-.2812zm-119.6653-.2735c.1556.0002.2811.126.2813.2813v18.4521c0 .1556-.1256.2821-.2813.2823h-3.581c-.1557-.0002-.2813-.1267-.2813-.2823v-13.5097c0-.1557-.1266-.2822-.2822-.2822h-2.1992c-.1556-.0002-.2811-.1259-.2813-.2813v-2.7598c0-.1554.1259-.281.2813-.2861 1.5898-.0497 2.7502-.5276 3.374-1.4756.0554-.0842.1482-.1387.249-.1387zm10.8623.2315c4.3168 0 6.8203 2.6294 6.8204 6.2129 0 3.7858-2.5035 6.416-6.8204 6.416h-2.913c-.1554.0002-.2811.1258-.2813.2812v5.5928c-.0003.1554-.1266.2812-.2822.2813h-3.5518c-.1556-.0001-.2819-.1259-.2822-.2813v-18.2217c.0001-.1555.1265-.2811.2822-.2812zm50.663 4.4785c.134.0002.249.0946.276.2256l2.228 10.9004 2.596-10.9092c.03-.1269.143-.2168.274-.2168h3.559c.128 0 .241.0873.273.2119l2.795 10.9141 2.256-10.9014c.027-.1307.143-.2246.276-.2246h3.181c.183 0 .317.1721.273.3496l-3.372 13.7412c-.031.1262-.144.2149-.274.2149h-4.62c-.131 0-.245-.0906-.275-.2178l-2.28-9.6953-2.28 9.6953c-.03.1272-.144.2177-.275.2178h-4.476c-.13-.0001-.243-.0896-.274-.2158l-3.345-13.7413c-.043-.1774.092-.3486.274-.3486zm42.349-.3467c.51.0001.938.0831 1.284.2305.112.0476.169.1686.147.2881l-.602 3.4033c-.029.1609-.188.263-.349.2324-.379-.0722-.779-.1084-1.142-.1084-1.9 0-3.138.5787-3.138 3.0352v7.289c0 .1556-.126.2821-.281.2823h-3.466c-.156-.0002-.281-.1267-.281-.2823v-13.7412c0-.1554.125-.281.281-.2812h3.12c.156 0 .282.1256.282.2812v2.7813c.72-2.2828 2.217-3.4102 4.145-3.4102zm-133.3801-4.0908c-.6347 0-.9519.0007-1.1944.124-.2133.1087-.3874.282-.4961.4951-.1234.2424-.123.56-.123 1.1944v3.5967c0 .1581-.0004.2373.0195.3105.0177.0648.0469.1261.086.1807.0443.0617.1064.1119.2295.2119l.9101.7392c.1482.1203.222.1806.249.253.0237.0636.0237.1336 0 .1972-.0269.0725-.1008.1327-.249.253l-.9101.7392c-.1231.1-.1852.1502-.2295.2119-.0392.0547-.0683.1159-.086.1807-.02.0733-.0195.153-.0195.3115v7.8799c0 .6339-.0003.9511.123 1.1934.1087.2134.2828.3873.4961.4961.2425.1232.5599.123 1.1944.123h2.3408c.6349 0 .9528.0004 1.1953-.123.2133-.1088.3864-.2828.4951-.4961.1234-.2423.124-.5594.124-1.1934v-3.5967c0-.1585-.0004-.2384-.0205-.3115-.0177-.0648-.0467-.1261-.0859-.1807-.0443-.0617-.1064-.112-.2295-.2119l-.9101-.7392c-.1481-.1202-.2222-.1805-.2491-.253-.0235-.0635-.0236-.1337 0-.1972.0271-.0724.101-.1328.2491-.2529l.9101-.7393c.1229-.0998.1852-.1493.2295-.2109.0393-.0547.0682-.1168.0859-.1817.02-.0732.0205-.1523.0205-.3105v-7.8799c0-.6345-.0004-.952-.124-1.1944-.1087-.213-.2819-.3864-.4951-.4951-.2425-.1235-.5604-.124-1.1953-.124zm53.3711 13.1084c-1.2375 0-1.7558.5773-1.7559 1.4443 0 .9826.7483 1.5323 1.957 1.5323 1.7269-.0001 3.1661-1.0123 3.1661-2.6885v-.2881zm88.888-5.665c-2.073 0-3.166 1.7345-3.166 4.1621 0 2.4273 1.094 4.1318 3.166 4.1318 2.071-.0002 3.165-1.7047 3.165-4.1318 0-2.4274-1.093-4.1619-3.165-4.1621zm-25.636.0869c-1.785 0-3.166 1.532-3.166 4.0752 0 2.5429 1.382 4.0459 3.166 4.0459 1.784-.0002 3.194-1.5032 3.194-4.0459 0-2.543-1.41-4.075-3.194-4.0752zm-79.4493 1.5029h3.1943c1.4676 0 2.6473-.8381 2.6475-2.7451 0-1.9651-1.1798-2.7461-2.6475-2.7461h-3.1943z" fill="#000"/></svg>