<svg fill="none" height="70" viewBox="0 0 190 70" width="190" xmlns="http://www.w3.org/2000/svg"><path d="m35.8374 15c11.0698 0 20 8.9302 20 20s-8.9302 20-20 20-20-8.9302-20-20 8.9302-20 20-20zm5.209 17.0234h-1.6738v-9.8603h-3.5352v16.9297c-2.9767-1.9535-4.8369-5.0234-4.8369-10.8838v-3.7207h-3.7217v3.8144c-.0001 5.9533-1.6742 9.4885-5.209 11.628l2.1397 2.79c2.2325-1.3023 4.3725-4.0931 4.9306-6.5117.6512 2.4185 2.9765 4.837 4.4649 5.8603l2.1396-2.9765v7.8144h3.5342v-11.8144h1.6748v13.0234h3.5352l.0927.0928v-26.418h-3.5351zm106.5116 7.9073c0 1.023.28 1.7671.838 2.3252.558.5579 1.302.8369 2.232.8369.93-.0001 1.675-.2789 2.233-.8369.558-.6512.837-1.3958.837-2.419v-8.9297h3.628v15.1621h-3.442v-1.8603c-.465.6511-1.023 1.2099-1.767 1.582s-1.582.5576-2.512.5576v.0928c-1.767 0-3.163-.5575-4.187-1.6738-1.023-1.2093-1.488-2.6982-1.488-4.5586v-9.3018h3.628zm-72.9296-15.0703c1.9533 0 3.5345.4653 4.9297 1.3955 1.3952 1.0231 2.4184 2.2323 2.9766 3.8134l-3.1621 1.3955c-.4651-1.023-1.0235-1.8598-1.8604-2.4179-.8371-.5581-1.9536-.8379-2.8838-.8379s-1.768.279-2.3262.7441c-.5579.465-.8367 1.3022-.8369 1.8604 0 .5581.1865 1.0241.5586 1.4892.3721.4648.93.7436 1.6739 1.0225l3.8144 1.21c3.3486 1.1163 5.0225 2.977 5.0225 5.7675-.0001 1.209-.3717 2.2321-.9297 3.1621-.5581.9302-1.3955 1.5816-2.5117 2.1397-1.1163.4651-2.4191.7441-3.8145.7441h-.1855c-1.3023 0-2.6045-.279-3.7207-.7441-1.1162-.5581-2.0467-1.2089-2.8838-2.0459-.8372-.9302-1.3955-1.954-1.7676-3.0703l3.1631-1.3955c.5581 1.1163 1.3022 2.1398 2.2324 2.791 1.0232.6511 2.2327 1.0234 3.2559 1.0234 1.0229 0 1.8598-.1864 2.4179-.6513.6511-.4651.9306-1.3023.9307-1.8604 0-.5581-.1865-1.1162-.5586-1.4883-.2791-.3721-.8369-.6516-1.5811-.9306l-4-1.3018c-1.5814-.4651-2.7907-1.2101-3.6279-2.2334-.837-1.0231-1.2089-2.3251-1.209-3.5342 0-1.2093.2788-2.2328.8369-3.1631.5582-.9302 1.3957-1.6745 2.419-2.1396 1.0231-.465 1.6746-.7441 3.6279-.7441zm17.3955 5.581c1.2089.0001 2.3249.2793 3.2549.7441.9302.3721 1.6753 1.0242 2.2334 1.8614.5579.7441.8369 1.767.8369 2.79v10.1397h-3.4424v-1.5811c-1.2092 1.3021-2.7908 1.9531-4.7441 1.9531l-.0928-.0927c-1.5811-.0001-2.8833-.465-3.8135-1.209-.9302-.7442-1.3954-1.8608-1.3955-3.1631 0-1.3023.4646-2.3259 1.3018-3.1631.9302-.8371 2.2328-1.3947 4-1.6738l4.5586-.7442v-.4658c-.0001-.651-.1862-1.116-.7441-1.581-.5582-.4652-1.2097-.6514-2.0469-.6514-.8371 0-1.5816.1863-2.1397.6514-.558.465-1.0227 1.0237-1.3017 1.6748l-2.9766-1.4893c.3721-1.2089 1.2091-2.1388 2.418-2.8828 1.2093-.7442 2.8844-1.1172 4.0937-1.1172zm16.5581 0c1.581 0 2.883.3723 4 1.0234 1.116.6512 1.953 1.582 2.511 2.6983.558 1.1162.837 2.3255.837 3.7207v.8369c0 .186-.093.4653-.093.6514h-10.976c.093 1.116.558 2.0461 1.302 2.6972.744.6512 1.953 1.0235 2.791 1.0235.837 0 1.581-.1856 2.139-.5576.558-.3721 1.024-.8374 1.396-1.3956l2.976 1.4883c-.465 1.1163-1.209 1.9531-2.419 2.6973-1.209.6511-2.511 1.0234-4.092 1.0234l-.093-.0927c-1.581 0-2.884-.2794-4.093-1.0235-1.209-.7442-2.14-1.6745-2.791-2.8838-.651-1.2092-.931-2.4186-.931-4 0-1.5813.28-2.8835.931-4.0927.651-1.1163 1.581-2.1399 2.697-2.7911 1.21-.6511 2.326-1.0234 3.908-1.0234zm24.744.0938c1.488 0 2.883.3714 4.092 1.0224 1.21.6511 2.14 1.5818 2.884 2.791s1.116 2.6046 1.116 4.0928c0 1.4884-.372 2.8845-1.116 4.0938-.651 1.1161-1.674 2.1389-2.884 2.79-1.209.6511-2.511 1.0234-4 1.0234h-.092c-1.489 0-2.884-.3723-4.093-1.0234s-2.14-1.5809-2.884-2.79c-.651-1.2093-1.023-2.5124-1.023-4.0938 0-1.5812.279-2.8836 1.023-4.0928.651-1.1162 1.675-2.1399 2.884-2.791 1.209-.651 2.604-1.0224 4.093-1.0224zm-10.791 15.4414h-3.628v-21.1162h3.628zm45.861-15.5352c1.116.0001 2.139.2791 2.977.7441.93.4651 1.58 1.2098 2.045 2.0469.466.8372.745 1.8604.745 2.9766v9.7676h-3.628v-8.9297c0-.9303-.279-1.7681-.837-2.3262-.558-.651-1.303-.9297-2.233-.9297s-1.674.3717-2.232.9297c-.558.5581-.837 1.3029-.837 2.3262v8.9297h-3.814v-15.1631h3.442v1.8613c.465-.7441 1.022-1.3027 1.767-1.6748.837-.3721 1.489-.5586 2.605-.5586zm-77.582 9.3027c-1.3953.2791-2.1397 1.0237-2.1397 2.0469.0001.558.1866 1.0228.5586 1.3018.3721.279.372.4658 1.4883.4658 1.1162 0 2.0468-.373 2.791-1.1172.7439-.7441 1.1162-1.6742 1.1162-2.6973v-.6513zm42.604-5.7675c-.837 0-1.581.2793-2.232.6513-.651.3721-1.116.9301-1.488 1.5811-.372.6511-.558 1.4889-.558 2.3262 0 .837.186 1.5811.558 2.3252.372.651.837 1.2089 1.488 1.581.651.372 1.395.5585 2.232.5586.838 0 1.489-.1865 2.14-.5586s1.116-.9299 1.488-1.581.559-1.4881.559-2.3252c0-.8373-.187-1.6751-.559-2.3262-.372-.651-.837-1.209-1.488-1.5811-.558-.465-1.302-.6513-2.14-.6513zm-24.697-.4639c-.911.0091-1.732.2872-2.372.8359-.651.5582-1.117 1.3029-1.303 2.3262h7.163c-.093-.9302-.465-1.6753-1.116-2.2334-.64-.6401-1.46-.9195-2.372-.9287z" fill="#000"/></svg>