<svg fill="none" height="70" viewBox="0 0 190 70" width="190" xmlns="http://www.w3.org/2000/svg"><path d="m70.0293 27.7387c-.7792-.0022-1.5339.2697-2.1298.7675-.596.4978-.9945 1.1891-1.1246 1.951l-5.644-14.4572h-34.1131l-5.688 14.4572c-.1075-.6125-.3891-1.1817-.8118-1.6408s-.9688-.789-1.5741-.9507c-.6053-.1618-1.2446-.1487-1.8427.0375-.5981.1863-1.13.5381-1.5333 1.0141-.4033.4759-.6612 1.0562-.7432 1.6725s.0151 1.243.2801 1.8064c.2649.5634.6867 1.04 1.2155 1.3738.5289.3338 1.1428.5109 1.7697.5104v16.6087l7.821-5.6259h-.1686c-.9365.0012-1.8489-.294-2.6044-.8427-.7556-.5487-1.3147-1.3223-1.5961-2.208-.2814-.8858-.2703-1.8375.0316-2.7165.302-.8791.879-1.6396 1.6471-2.1709s1.6871-.8055 2.6233-.7829c.9362.0227 1.8407.3411 2.5817.9089.7411.5679 1.28 1.3554 1.5383 2.248.2583.8927.2225 1.8438-.1021 2.7148l.0806-.0581 23.6387 8.9476 16.4629-9.4492v-7.5738c.8748 0 1.7137-.3446 2.3323-.958s.9661-1.4454.9661-2.3128c0-.8675-.3475-1.6995-.9661-2.3129s-1.4575-.958-2.3323-.958zm-24.1885 3.2709h-21.579l4.7644-12.1022h30.0963l4.7204 12.1022h-2.6021c0-.0436 0-.0873 0-.1309 0-1.0022-.199-1.9946-.5858-2.9206s-.9537-1.7673-1.6684-2.476c-.7146-.7087-1.5631-1.2709-2.4968-1.6544-.9338-.3835-1.9346-.581-2.9453-.581s-2.0115.1975-2.9453.581c-.9337.3835-1.7822.9457-2.4968 1.6544-.7147.7087-1.2816 1.55-1.6684 2.476s-.5858 1.9184-.5858 2.9206c.0073.0436.0146.0873.0146.1309zm2.5655 0c0-.0436 0-.0873 0-.1309 0-1.3494.5405-2.6435 1.5028-3.5977.9622-.9542 2.2673-1.4903 3.6281-1.4903s2.6658.5361 3.6281 1.4903c.9622.9542 1.5028 2.2483 1.5028 3.5977v.1309zm13.9707 14.2972c-.8699 0-1.7202-.2558-2.4434-.735s-1.2869-1.1603-1.6198-1.9572c-.3328-.7969-.4199-1.6738-.2502-2.5197.1696-.846.5885-1.6231 1.2036-2.233.615-.6099 1.3987-1.0253 2.2518-1.1936.8531-.1682 1.7373-.0819 2.541.2482.8036.3301 1.4904.8891 1.9737 1.6063.4832.7171.7412 1.5603.7412 2.4229 0 1.1566-.4634 2.2659-1.2882 3.0838-.8247.8178-1.9434 1.2773-3.1097 1.2773z" fill="#000"/><path d="m78.8105 36.5991-2.7414 6.7016-1.0921-1.8099-21.4252 12.5092-23.6241-9.2819-15.9277 9.2819 15.9277-14.4717 23.6241 9.2674 19.065-11.2008-1.0629-1.7735z" fill="#262c2d"/><path clip-rule="evenodd" d="m155.312 27.4334c.416-.0157.818-.1527 1.156-.3938s.597-.5757.745-.9619c.147-.3862.176-.8069.084-1.2095-.093-.4027-.303-.7693-.604-1.0543-.301-.2849-.681-.4754-1.091-.5477s-.832-.0232-1.214.1412-.707.4368-.933.7831c-.227.3463-.346.7512-.342 1.1641.004.2806.064.5576.177.8148s.277.4895.482.6831.446.3447.711.4445c.264.0998.546.1461.829.1364zm-67.0167-3.5107v21.5658h3.7382v-8.7731h9.1915v-3.5107h-9.1915v-5.7713h10.7825v-3.5107zm16.0967 0v21.5658h3.738v-21.5658zm70.608 13.6213c0 4.79-3.445 8.2716-8.143 8.2716-4.699 0-8.115-3.4816-8.115-8.2716s3.445-8.2353 8.115-8.2353c4.669 0 8.143 3.4744 8.143 8.2353zm-3.768 0c0-3.2272-2.059-4.8845-4.397-4.8845-2.339 0-4.398 1.6573-4.398 4.8845s2.089 4.9499 4.398 4.9499c2.308 0 4.397-1.6936 4.397-4.9499zm-17.774-7.85h3.701v15.7945h-3.701zm-26.879 7.7918c0-4.9208 3.672-8.1771 7.63-8.1771 4.809 0 7.645 3.1546 7.645 8.0608.011.402-.021.804-.095 1.1994h-11.493c.029 1.0982.496 2.1404 1.298 2.898.802.7575 1.875 1.1687 2.983 1.1433.673.0476 1.347-.0844 1.951-.3822.605-.2978 1.118-.7506 1.486-1.3114h3.665c-.469 1.4746-1.418 2.7535-2.697 3.6372-1.28.8836-2.819 1.3222-4.376 1.2473-4.251 0-8.019-3.0528-7.997-8.3153zm5.046-4.1011c-.705.6397-1.138 1.5211-1.212 2.4657h7.659c-.066-1.8171-1.29-3.4453-3.863-3.4453-.955-.0102-1.879.3399-2.584.9796zm-14.274-4.076c-3.958 0-7.631 3.2563-7.631 8.1771 0 5.2697 3.768 8.3298 8.019 8.3298 1.558.0749 3.096-.3637 4.376-1.2473s2.228-2.1626 2.698-3.6372h-3.665c-.369.5608-.882 1.0136-1.486 1.3114-.605.2978-1.279.4298-1.952.3822-1.108.0254-2.18-.3858-2.983-1.1433-.802-.7576-1.269-1.7997-1.298-2.898h11.464c.074-.3953.106-.7973.095-1.1993 0-4.9208-2.829-8.0754-7.637-8.0754zm-3.797 6.5417c.074-.9446.508-1.826 1.213-2.4657s1.628-.9898 2.584-.9796c2.573 0 3.797 1.6282 3.863 3.4453zm37.148 6.5417c.395-.0101.79-.049 1.18-.1163l.022 3.0964c-.71.2258-1.454.329-2.199.3053-2.896 0-4.699-1.7226-4.699-4.6301v-8.228h-2.367v-3.1254h2.36v-5.088h3.709v5.088h3.174v3.1254h-3.174v7.6247c0 1.3738.608 1.948 1.994 1.948z" fill="#000" fill-rule="evenodd"/></svg>