<svg fill="none" height="70" viewBox="0 0 190 70" width="190" xmlns="http://www.w3.org/2000/svg"><path d="m91.0186 30.2578c.8743-.031 1.7418.168 2.5176.5772.6456.3503 1.2137.8303 1.669 1.4111v-1.0654c-.0077-.1706.0534-.3375.1689-.4619.1196-.1231.2857-.1884.4561-.1797h1.6279c.1673-.0028.3287.065.4453.1865.1164.1214.1785.2861.1709.4551v12.6386c.0248 1.0967-.1906 2.1857-.6299 3.1885-.4232.9077-1.1274 1.651-2.0058 2.1172-1.1162.5534-2.352.8155-3.5938.7617-1.0216.0345-2.0407-.1299-3.001-.4844-.6774-.2631-1.2972-.6584-1.8242-1.163-.4038-.3888-.7278-.8543-.9531-1.3702-.1537-.3486-.2541-.7194-.2969-1.0986-.0268-.1701.0315-.3426.1553-.4609.1193-.1237.2855-.189.456-.1797h1.7608c.1362-.0057.2713.0287.3877.1006.1325.1215.2217.284.2549.4619.1281.2792.2809.5461.456.7978.226.3193.5289.5754.8799.7432.5101.2347 1.0692.342 1.6289.3135.6287.018 1.2552-.0836 1.8467-.2998.4945-.202.8995-.5788 1.1396-1.0606.294-.6453.4308-1.3537.3975-2.0635v-1.7714c-.4571.543-1.0232.9816-1.6602 1.2871-.7684.3567-1.6091.528-2.4541.499-.838.0271-1.6723-.1308-2.4443-.4619-.6578-.296-1.2353-.7486-1.6826-1.3194-.4514-.5909-.7929-1.2601-1.0078-1.9746-.2381-.7885-.3641-1.6082-.3741-2.4326-.0182-.4705-.0182-.9505 0-1.4394.0125-.8068.1356-1.6082.3653-2.3809.204-.7344.5462-1.4221 1.0078-2.0254.4526-.5783 1.0315-1.0427 1.6914-1.3564.7678-.3474 1.6036-.5148 2.4443-.4893zm-50.2148 0c.8336-.0255 1.6629.1315 2.4307.461.6517.2979 1.2257.7457 1.6777 1.3066.4625.5824.8104 1.2492 1.0225 1.9648.2393.7796.3743 1.5885.4013 2.4043 0 .2953.0274.6046.0274.9229s0 .6184-.0274.9228c-.0102.8077-.1363 1.6098-.374 2.3809-.22.7066-.5664 1.3669-1.0215 1.9473-.4537.5716-1.0335 1.0287-1.6924 1.3339-.7697.341-1.6043.5063-2.4443.4844-.8457.0263-1.685-.1575-2.4443-.5351-.633-.3345-1.1844-.8079-1.6143-1.3848v5.999c.0054.1619-.0559.3189-.1689.4336-.1233.1164-.2877.1781-.4561.1709l-1.7285.0322c-.1598.0067-.315-.0551-.4277-.1699-.1128-.1149-.1729-.2728-.1651-.4346v-17.3681c-.0079-.1614.0522-.3184.1651-.4326.1129-.1143.2682-.175.4277-.167h1.6279c.1599-.0079.3161.052.4297.166.1136.1141.1746.2717.168.4336v1.0986c.451-.5705 1.0126-1.0422 1.6504-1.3847.7821-.4106 1.6554-.6122 2.5361-.586zm15.1357 0c.8335-.0259 1.6631.1312 2.4307.461.6532.2977 1.23.7455 1.6836 1.3066.4578.5901.8001 1.2632 1.0078 1.9834.2372.7801.3722 1.5886.4014 2.4043v1.8457c-.0117.8079-.1396 1.6099-.3789 2.3808-.2181.7076-.5645 1.368-1.0215 1.9473-.4538.5717-1.0335 1.0288-1.6924 1.334-.7695.3412-1.6044.5067-2.4443.4844-.8442.0263-1.682-.1574-2.4395-.5352-.6352-.3331-1.1886-.8066-1.6191-1.3847v5.999c.0053.1618-.056.3189-.169.4336-.1221.1181-.2874.1802-.456.1709l-1.7149.0136c-.1589.0036-.3127-.0587-.4248-.1728-.1121-.1143-.1729-.2707-.1679-.4317v-17.3681c-.0065-.161.0543-.3177.1669-.4317.1125-.1137.2669-.1744.4258-.1679h1.6328c.1577-.0044.3112.0553.4248.166.113.1147.1735.2717.168.4336v1.0986c.4518-.5717 1.0162-1.0435 1.6563-1.3847.7801-.4108 1.6512-.6126 2.5302-.586zm102.2925-10.1514c4.026.0003 5.294 5.2511 6.429 10.502 1.776-2.3958 3.505-4.5574 5.875-4.6904l.196-.0069c1.587 0 4.268 1.0936 4.268 5.1768v7.4336c0 4.0098-2.116 4.993-3.389 5.3252-2.184.5767-7.456 1.1074-13.389 1.1074s-11.205-.5307-13.394-1.1074c-1.268-.3322-3.384-1.3154-3.384-5.3252v-7.4336c.001-4.0831 2.682-5.1767 4.264-5.1768 2.49 0 4.282 2.2241 6.107 4.6973 1.121-5.251 2.39-10.502 6.417-10.502zm-87.6899 5.459c.9842-.0137 1.9641.1419 2.8965.461.7616.2561 1.4685.6555 2.0839 1.1767.5164.4363.9457.9686 1.2637 1.5684.2727.5072.4286 1.0707.4561 1.6474-.0043.1325-.0568.259-.1465.3555-.0997.115-.2455.178-.3965.1709h-1.8887c-.1402-.0007-.2777-.0376-.4004-.1064-.143-.0894-.249-.2286-.2968-.3916-.1314-.6672-.5354-1.2474-1.1123-1.5967-.7361-.4624-1.5933-.6908-2.459-.6553-.8605-.0382-1.7145.1665-2.4668.5908-.6294.3897-.9935 1.1008-.9444 1.8457-.0171.4862.1456.9615.4561 1.333.4081.4146.9041.7303 1.4502.9229.8585.3378 1.7346.6307 2.623.8769 1.2133.2769 2.3979.6694 3.5381 1.1719.8036.3426 1.4982.9036 2.0069 1.6201.454.7507.6784 1.6206.6435 2.5.0267 1.0272-.2866 2.0345-.8896 2.8614-.6409.8368-1.4999 1.4762-2.4805 1.8457-1.2029.4506-2.4805.664-3.7627.6279-1.3355.0404-2.6653-.2001-3.9043-.7061-.9468-.3918-1.7757-1.0283-2.4033-1.8457-.5285-.6989-.8351-1.5439-.8799-2.4228.0007-.1377.0569-.2691.1553-.3643.1022-.1043.2426-.1614.3877-.1572h1.8242c.1641-.0105.3266.0409.456.1436.106.1006.194.2194.2598.3505.1248.4089.3365.7852.6201 1.1026.3595.4043.806.72 1.3047.9228.6876.2663 1.4214.3901 2.1572.3643 1.3618-.0001 2.3662-.2355 3.0137-.7061.6276-.4348.9922-1.1634.9668-1.9326.0193-.495-.167-.9763-.5146-1.3252-.4713-.4094-1.0166-.7228-1.6055-.9228-.7204-.2768-1.66-.576-2.8135-.8897-1.1008-.281-2.1708-.6755-3.1924-1.1767-.7729-.3633-1.4338-.9331-1.9111-1.6475-.4485-.7563-.6687-1.6294-.6338-2.5107-.0126-.9338.2633-1.8487.7891-2.6162.57-.8034 1.3478-1.4321 2.248-1.8174 1.1076-.4706 2.301-.6985 3.502-.669zm51.2869 4.7061c.914-.0256 1.825.112 2.692.4062.651.2236 1.243.5943 1.732 1.084.424.4467.747.9828.944 1.5694.198.5946.298 1.2182.296 1.8457v8.3515c.005.1645-.061.323-.181.4336-.123.1168-.288.1786-.456.1709h-1.656c-.16.0067-.316-.0549-.428-.1699-.113-.115-.173-.2728-.165-.4346v-1.0986c-.256.3529-.564.6641-.913.9228-.413.3213-.875.5742-1.368.7481-.652.2065-1.332.305-2.015.291-.828.011-1.648-.1731-2.394-.5361-.676-.3253-1.263-.8152-1.706-1.4258-.42-.5871-.643-1.2956-.634-2.0205-.027-1.1496.517-2.2368 1.45-2.8936 1.138-.7914 2.453-1.2817 3.827-1.4258l3.648-.5488v-.6455c.044-.6741-.179-1.3386-.62-1.8457-.415-.4337-1.104-.6513-2.07-.6514-.596-.0279-1.188.1168-1.706.4161-.412.271-.731.6637-.913 1.125-.105.2188-.329.3535-.57.3417h-1.6c-.159.0132-.316-.0444-.429-.1572-.097-.1172-.146-.2664-.141-.4189.045-.344.155-.6765.323-.9785.237-.4438.558-.8356.945-1.1534.497-.4057 1.063-.7183 1.669-.9228.785-.2702 1.61-.3988 2.439-.3789zm-13.526-.0137c.98-.0281 1.948.2262 2.791.7334.779.487 1.401 1.1947 1.788 2.0352.437.9807.651 2.0485.625 3.124v7.3828c.003.1642-.064.322-.183.4336-.123.116-.287.1776-.456.1709h-1.788c-.158.0036-.311-.0582-.424-.1709-.113-.1147-.174-.2717-.169-.4336v-7.249c.056-.944-.235-1.8754-.816-2.6162-.604-.6458-1.462-.9843-2.339-.9229-.881-.0441-1.739.2912-2.362.9229-.636.7145-.964 1.656-.912 2.6162v7.2441c.005.1646-.062.323-.183.4336-.123.1169-.287.1786-.456.1709h-1.71c-.168.0072-.333-.0545-.456-.1709-.111-.1159-.172-.272-.169-.4336v-12.3984c-.003-.1616.058-.3177.169-.4336.124-.1152.288-.175.456-.166h1.655c.16-.0079.316.0519.43.166s.175.2717.168.4336v1.126c.477-.588 1.066-1.073 1.732-1.4258.809-.4073 1.706-.604 2.609-.5723zm-83.7844-4.457c.2061-.0127.409.0531.5694.1846.14.125.2471.2832.3105.4609l6.3028 16.8975c.0173.0787.0263.1595.0273.2402.0034.1465-.0528.288-.1553.3916-.0946.0987-.2244.1555-.3603.1572h-1.7881c-.179.015-.3558-.0471-.4873-.1709-.088-.0944-.1592-.204-.21-.3232l-1.3183-3.4512h-8.0899l-1.2949 3.4512c-.0515.1156-.1268.2194-.2197.3047-.1378.1225-.318.1843-.501.1709l-1.7881.0185c-.1359-.0017-.2657-.0585-.3603-.1572-.1024-.1036-.1587-.2451-.1553-.3916.0028-.0824.0202-.1639.0508-.2402l6.3339-16.8975c.0464-.179.1455-.3393.2833-.4609.1605-.1316.3641-.1974.5703-.1846zm57.8858 4.7295c.1591-.0066.3141.054.4267.1679.1126.114.1726.2707.1661.4317v12.3984c.0054.162-.0559.3189-.169.4336-.1126.1128-.2655.1746-.4238.1709h-1.6826c-.1685.0072-.3328-.0545-.4561-.1709-.1131-.1147-.1744-.2716-.1689-.4336v-12.3984c-.0055-.162.0558-.3189.1689-.4336.1237-.1152.2882-.175.4561-.166zm50.3516-4.9746c.16-.0067.316.0549.429.1699.112.1149.172.2728.165.4346v17.3681c.008.1618-.053.3196-.165.4346-.113.115-.269.1766-.429.1699h-1.705c-.16.0067-.315-.0551-.428-.1699-.113-.115-.173-.2728-.165-.4346v-17.3681c-.008-.1618.052-.3197.165-.4346.113-.1148.268-.1766.428-.1699zm30.747 10.207c-1.473 1.5595-3.165 2.7362-5.271 2.7363-2.107 0-3.804-1.1768-5.277-2.7363-.641 2.3968-1.483 4.6676-2.714 6.2158l-.273.2998c2.458.2307 5.422.3643 8.264.3643 2.841 0 5.8-.1336 8.258-.3643-1.404-1.5457-2.303-3.9593-2.987-6.5156zm-41.756 2.21c-.887.0781-1.747.3541-2.516.8076-.505.2901-.825.825-.844 1.4121-.016.4071.123.8053.387 1.1123.271.2966.609.522.985.6553.41.1456.843.2153 1.277.207.62.008 1.233-.139 1.783-.4287.546-.3029.988-.7665 1.268-1.3291.33-.702.487-1.4751.456-2.252v-.6455zm-66.5272-5.2325c-1.3067-.0924-2.5165.702-2.9648 1.9473-.2112.5572-.3374 1.1437-.3741 1.7393 0 .2953-.0224.6279-.0224.997s-.0004.7059.0224 1.0196c.018.5743.1499 1.1393.3877 1.6611.2404.5291.6154.9841 1.086 1.3193.553.3646 1.2061.5426 1.8652.5078 1.2928.118 2.4944-.6845 2.8955-1.9336.2105-.6109.332-1.2501.3604-1.8964.0319-.5054.0319-1.0123 0-1.5176-.0271-.6511-.1486-1.2948-.3604-1.9102-.4011-1.249-1.6028-2.0515-2.8955-1.9336zm-15.1367-.0136c-1.3051-.0903-2.5121.7037-2.96 1.9472-.2133.5566-.3396 1.1434-.374 1.7393-.0182.3076-.0273.6402-.0273.9971 0 .3644 0 .7058.0273 1.0195.018.5743.1499 1.1393.3877 1.6611.2404.5291.6154.9841 1.0859 1.3194.55.3687 1.2013.5514 1.8604.5214.6751.0419 1.3445-.1466 1.9014-.5351.4565-.3544.8019-.8351.9941-1.3838.2134-.6153.3367-1.2597.3652-1.9111.0319-.5054.0319-1.0123 0-1.5176-.0285-.6514-.1518-1.2949-.3652-1.9102-.1934-.5483-.5384-1.0293-.9941-1.3847-.5543-.3963-1.2234-.5942-1.9014-.5625zm51.6836-.0186c-.6743-.0342-1.3414.1535-1.9014.5352-.4674.3497-.8227.831-1.0215 1.3838-.2118.6154-.3333 1.2599-.3603 1.9111v1.3105c.0296.6461.1511 1.2844.3603 1.8955.1947.5627.5503 1.0543 1.0215 1.4121.5561.3931 1.2235.5921 1.9014.5674.6676.032 1.3275-.1609 1.875-.5488.4671-.3598.8336-.8368 1.0625-1.3838.2308-.5425.3649-1.1222.3965-1.7119 0-.2261.0273-.517.0273-.877 0-.3596 0-.641-.0273-.8486-.0321-.5942-.1661-1.179-.3965-1.7265-.2239-.55-.5913-1.0282-1.0625-1.3838-.5509-.3793-1.2094-.5671-1.875-.5352zm79.0013-4.4805c-1.756.0004-3.644 2.9669-5.446 5.3477 1.273 5.4033 2.61 8.6985 5.802 8.0156.825-.2307 1.605-.7624 1.605-3.0693l.018-7.4336c0-2.579-1.387-2.8604-1.979-2.8604zm-25.06 0c-.606.0001-1.974.2816-1.975 2.8604v7.4336c0 2.3071.776 2.8386 1.606 3.0693 3.178.6643 4.524-2.6124 5.814-8.0156-1.796-2.3809-3.689-5.3477-5.445-5.3477zm-125.5634 9.3623h6.4395l-3.2334-8.6836zm138.1094-15.1767c-2.495.0001-3.416 5.2054-4.615 10.6133 1.368 1.7441 2.878 3.165 4.593 3.165 1.714-.0001 3.206-1.4163 4.615-3.165-1.246-5.6143-2.146-10.3105-4.394-10.5987zm-75.7217 2.8105c.1703-.0029.3348.0636.4561.1846.1241.1194.1901.2878.1816.4609v1.6524c.0047.1631-.0615.3199-.1816.4287-.124.115-.2879.1765-.4561.1709h-1.9658c-.1688.0094-.3339-.0526-.4561-.1709-.1132-.1127-.1747-.2681-.1689-.4287v-1.6524c-.0091-.1706.0521-.3374.1689-.4609.1192-.1243.2851-.1914.4561-.1846z" fill="#000"/></svg>