<svg fill="none" height="70" viewBox="0 0 190 70" width="190" xmlns="http://www.w3.org/2000/svg"><path d="m26.4639 25.5902h-10.3223v18.8193h5.2725l-.8418 3.1368h-7.5723v-25.0928h14.3057zm11.666 21.9561h-14.3057l.8418-3.1368h10.3233v-18.8193h-5.2735l.8418-3.1367h7.5723zm60.4316-18.0791c3.5405.0001 5.3105 1.6844 5.3105 5.0517v5.8594h1.718v1.6924h-3.593v-2.3496h-.046c-1.231 1.7006-2.8751 2.5508-4.9324 2.5508-1.2149-.0001-2.2111-.3106-2.9864-.9336-.7752-.6398-1.1621-1.4986-1.1621-2.5762 0-1.3806.5989-2.3915 1.7959-3.0313 1.214-.6567 2.8751-.9843 4.9824-.9843h2.1256v-.3038c0-2.1047-1.096-3.1572-3.2886-3.1572-1.0282 0-1.77.1017-2.2256.3037-.4545.1851-.7845.3364-.9873.4541-.1698.1081-.2946.188-.3946.2539l-1.2265-1.2382c.2934-.3618.8748-.7167 1.748-1.0625.8939-.3535 1.9487-.5292 3.1621-.5293zm-44.957 0c1.7177 0 3.0163.6218 3.8935 1.8652v-1.7148h1.5967v4.9267h-1.7715v-.751c-.0236-.5994-.3702-1.1746-1.038-1.7246-.6745-.5557-1.532-.834-2.5772-.834-1.0291.0001-1.9737.4124-2.834 1.2373-.8591.8251-1.289 1.954-1.289 3.3848 0 1.4145.4213 2.543 1.2636 3.3848.8433.825 1.7879 1.2373 2.834 1.2373 1.045-.0001 1.929-.2185 2.6543-.6563.7273-.4454 1.2181-.8748 1.4756-1.2881l1.2695 1.043c-.0188.0372-.0381.073-.0664.1182-.0679.1177-.2277.3041-.4804.5566-.2359.2525-.5732.5387-1.0118.8584-.4206.3199-.9776.5898-1.6689.8086-.6753.219-1.4005.3281-2.1758.3281-1.7705 0-3.2532-.5814-4.4512-1.7431-1.18-1.1619-1.7705-2.7188-1.7705-4.6719 0-1.9701.5905-3.5194 1.7705-4.6475 1.198-1.145 2.6565-1.7177 4.376-1.7177zm14.5244-.001c1.7195 0 3.0687.5567 4.0459 1.668.8328.9307 1.31 2.1427 1.4346 3.6337v.0157c.0188.2057.0283.4174.0283.6338v.6933h-9.4609c.0679 1.3976.5061 2.4748 1.3154 3.2324.8263.7577 1.7541 1.1368 2.7822 1.1368 1.0291-.0001 1.9045-.2194 2.6289-.6573.731-.4312 1.2249-.8546 1.4815-1.2695l1.247 1.0254c-.0188.037-.047.0732-.0752.1172-.0669.1177-.2184.3041-.455.5566-.2349.2526-.5731.5386-1.0118.8584-.4216.32-.9776.5897-1.6689.8086-.6744.219-1.3996.3281-2.1758.3281-1.7705 0-3.2541-.5814-4.4512-1.7431-1.18-1.1619-1.7705-2.7187-1.7705-4.6719.0001-1.97.5905-3.5185 1.7705-4.6465 1.18-1.1451 2.6218-1.7187 4.3252-1.7187zm16.793-5.5283h3.4424v16.4423h1.7187v1.6924h-3.6133v-2.4775h-.0273c-.2689.7072-.7762 1.3302-1.5186 1.8691-.7414.5218-1.6439.7832-2.706.7832-1.6856 0-3.06-.5889-4.1231-1.7675-1.0451-1.1785-1.5663-2.7197-1.5664-4.6221 0-1.9196.5213-3.4612 1.5664-4.6231 1.063-1.1782 2.4461-1.7675 4.1485-1.7675 1.0451 0 1.914.2442 2.6054.7324.6914.4715 1.1904 1.0526 1.4942 1.7431h.0273c-.0283-.3369-.0273-.6151-.0273-.8339v-5.4805h-1.7432v-1.6924zm40.8351 5.5293c1.717.0003 3.013.6221 3.889 1.8652v-1.7139h1.6v4.9258h-1.774v-.751c-.024-.5994-.37-1.1744-1.036-1.7246-.675-.5555-1.534-.834-2.58-.834-1.028.0001-1.973.4127-2.833 1.2373-.86.8252-1.29 1.9546-1.29 3.3858 0 1.4141.421 2.5421 1.264 3.3838.843.8252 1.789 1.2383 2.834 1.2383 1.045-.0001 1.931-.2194 2.656-.6573.728-.4453 1.217-.874 1.475-1.2871l1.268 1.043c-.018.0379-.028.0722-.056.1172-.068.1177-.229.3041-.48.5566-.236.2526-.575.5387-1.014.8584-.421.3199-.975.5896-1.667.8086-.674.2191-1.402.3281-2.177.3281-1.77-.0001-3.255-.5815-4.451-1.7431-1.181-1.1618-1.771-2.7189-1.771-4.6719 0-1.9698.59-3.5185 1.771-4.6465 1.195-1.1443 2.654-1.7178 4.372-1.7187zm14.722 0c1.822 0 3.323.5812 4.503 1.7431 1.198 1.145 1.797 2.6857 1.797 4.6221 0 1.9193-.59 3.4679-1.77 4.6465-1.181 1.1786-2.692 1.7685-4.53 1.7685-1.837 0-3.345-.5813-4.526-1.7431-1.18-1.1787-1.77-2.7356-1.77-4.6719 0-1.9532.597-3.5035 1.795-4.6484 1.197-1.1448 2.698-1.7168 4.501-1.7168zm17.391-5.5293h3.442v16.4433h1.721v1.6914h-.301v.001h-2.201v-.001h-1.105v-2.4775h-.029c-.269.707-.775 1.3301-1.517 1.8691-.742.5219-1.645.7832-2.707.7832-1.687-.0001-3.061-.5889-4.123-1.7675-1.045-1.1785-1.567-2.7197-1.568-4.6221 0-1.9196.523-3.4602 1.568-4.6221 1.062-1.1785 2.446-1.7685 4.149-1.7685 1.045 0 1.913.2452 2.604.7334.692.4714 1.191 1.0526 1.496 1.7431h.027c-.028-.3369-.027-.6152-.027-.834v-5.4814h-1.743v-1.6924zm13.612 5.5273c1.719 0 3.068.5566 4.046 1.668.832.9308 1.311 2.1426 1.436 3.6338v.0156c.019.2058.036.4173.036.6338v.6933h-9.46c.068 1.3978.506 2.4748 1.315 3.2325.827.7576 1.753 1.1376 2.782 1.1377 1.028 0 1.905-.2194 2.63-.6573.73-.4311 1.224-.8547 1.48-1.2695l1.248 1.0244c-.009.0372-.029.074-.066.1182-.067.1177-.219.3041-.455.5566-.235.2526-.573.5387-1.012.8584-.422.32-.978.5897-1.669.8086-.674.219-1.4.3281-2.176.3281-1.769 0-3.254-.5815-4.451-1.7431-1.18-1.1619-1.77-2.7188-1.77-4.6719 0-1.9701.59-3.5194 1.77-4.6475 1.181-1.1448 2.622-1.7177 4.325-1.7177zm-53.641 2.1182h-.859c-1.45 0-2.606.4625-3.465 1.3886-.861.926-1.289 1.9785-1.289 3.1573v4.2431h1.67v1.6924h-5.483v-1.6992h1.72v-9.042h-1.716v-1.6807h3.616v3.461h.076c.052-.2695.23-.64.533-1.1113.303-.4714.63-.8592.985-1.1622.372-.3197.896-.6058 1.57-.8584.684-.25 1.45-.3788 2.299-.3789l.015-.0048h.328zm-35.341-.3487c-1.096 0-2.0239.4125-2.7822 1.2373-.7424.8252-1.1133 1.9373-1.1133 3.335 0 1.3973.3626 2.5251 1.0869 3.3838.7424.8587 1.6795 1.2891 2.8086 1.2891 1.1299-.0001 2.0569-.4219 2.7812-1.2637.7254-.8587 1.0869-1.995 1.087-3.4092 0-1.4144-.37-2.5268-1.1123-3.335-.7423-.8247-1.66-1.2372-2.7559-1.2373zm72.955 0c-1.096.0001-2.024.4124-2.782 1.2373-.742.8252-1.112 1.9373-1.112 3.335 0 1.3974.36 2.5252 1.086 3.3838.742.8587 1.678 1.289 2.808 1.2891 1.13 0 2.058-.4219 2.784-1.2637.724-.8588 1.085-1.995 1.085-3.4092 0-1.4144-.371-2.5267-1.113-3.335-.742-.8246-1.66-1.2373-2.756-1.2373zm-55.6796 5.0264c-.9782 0-1.7882.0503-2.4287.1514s-1.188.3205-1.6436.6572c-.4384.3369-.6572.7996-.6572 1.3887 0 .5894.2344 1.0784.707 1.4658.4885.3702 1.1223.5546 1.8975.5547 1.6356 0 3.0106-.7232 4.1236-2.1709v-2.0469zm40.7306-5.0264c-1.147 0-2.135.421-2.961 1.2627-.826.8419-1.238 1.9543-1.238 3.335s.403 2.4997 1.213 3.3584c.809.8585 1.796 1.288 2.959 1.2881 1.181 0 2.176-.4293 2.986-1.2881.809-.8587 1.214-1.9777 1.214-3.3584s-.413-2.4931-1.239-3.335c-.809-.8416-1.788-1.2626-2.934-1.2627zm-72.3869-.1005c-1.012 0-1.8801.2868-2.6045.8593-.7253.5722-1.1571 1.4313-1.2919 2.5762h7.3105c-.0509-1.0438-.3808-1.8779-.9873-2.501-.6065-.6229-1.4155-.9345-2.4268-.9345zm103.3719 0c-1.012 0-1.88.286-2.604.8584-.727.5721-1.157 1.4323-1.292 2.5771h7.31c-.05-1.0437-.381-1.8778-.987-2.501-.607-.6228-1.415-.9345-2.427-.9345z" fill="#000"/></svg>