<?xml version="1.0" encoding="UTF-8"?>
<svg id="Layer_1" data-name="Layer 1" xmlns="http://www.w3.org/2000/svg" viewBox="0 0 126.84 32">
  <defs>
    <style>
      .cls-1, .cls-2 {
        fill: #020202;
      }

      .cls-2 {
        fill-rule: evenodd;
      }
    </style>
  </defs>
  <path class="cls-1" d="M47.61,25.07c1.15,0,2.16-.21,3.02-.63.87-.42,1.55-.99,2.04-1.72.49-.73.74-1.58.74-2.53,0-2.23-1.33-3.76-3.99-4.61l-3.07-.96c-.6-.19-1.05-.46-1.37-.81-.3-.36-.45-.77-.45-1.23,0-.61.23-1.11.69-1.48.48-.39,1.11-.58,1.88-.58.87,0,1.63.23,2.28.69.66.45,1.15,1.09,1.48,1.93l2.51-1.12c-.45-1.25-1.23-2.26-2.35-3.02-1.1-.76-2.41-1.14-3.92-1.14-1.09,0-2.06.21-2.91.63-.84.4-1.49.97-1.97,1.7-.46.73-.69,1.58-.69,2.53,0,1.09.33,2.04.99,2.84.66.79,1.64,1.4,2.93,1.81l3.2,1.03c.58.19,1.02.45,1.3.76.3.31.45.72.45,1.21,0,.61-.25,1.1-.74,1.48-.48.37-1.11.56-1.9.56-.96,0-1.81-.27-2.58-.81-.76-.55-1.34-1.31-1.75-2.26l-2.53,1.1c.3.93.77,1.74,1.41,2.44.66.69,1.43,1.22,2.33,1.61.91.39,1.9.58,2.96.58Z"/>
  <path class="cls-1" d="M59.5,25.07c1.58,0,2.85-.52,3.81-1.57v1.3h2.78v-8.11c0-.85-.22-1.61-.65-2.26-.43-.66-1.03-1.16-1.79-1.52-.75-.37-1.62-.56-2.62-.56-1.22,0-2.31.29-3.27.87-.96.58-1.61,1.35-1.97,2.31l2.4,1.16c.22-.55.57-.99,1.05-1.32.48-.34,1.04-.52,1.68-.52s1.21.18,1.61.54c.42.34.63.78.63,1.3v.4l-3.63.58c-1.43.24-2.49.69-3.18,1.37-.69.67-1.03,1.52-1.03,2.53,0,1.08.38,1.93,1.14,2.55.76.63,1.78.94,3.05.94ZM58.36,21.46c0-.85.57-1.39,1.72-1.61l3.07-.52v.49c0,.84-.29,1.55-.87,2.13-.57.58-1.31.87-2.24.87-.49,0-.9-.12-1.21-.36-.31-.25-.47-.59-.47-1.01Z"/>
  <path class="cls-1" d="M74.58,25.07c1.24,0,2.32-.28,3.25-.83.94-.57,1.6-1.28,1.97-2.15l-2.37-1.16c-.27.46-.64.84-1.12,1.14-.46.28-1.03.43-1.7.43-.88,0-1.62-.27-2.22-.81-.6-.54-.94-1.25-1.03-2.15h8.78c.06-.16.1-.35.11-.56.03-.22.04-.45.04-.67,0-1.09-.23-2.08-.69-2.98-.46-.9-1.13-1.61-2.02-2.15-.88-.55-1.96-.83-3.23-.83-1.13,0-2.17.28-3.09.83-.91.55-1.64,1.31-2.17,2.26-.52.94-.78,2.02-.78,3.25s.26,2.25.78,3.23c.52.97,1.25,1.74,2.2,2.31.94.57,2.04.85,3.29.85ZM74.35,14.77c.78,0,1.42.24,1.93.72.52.46.81,1.07.87,1.81h-5.73c.16-.81.51-1.43,1.03-1.86.54-.45,1.17-.67,1.9-.67Z"/>
  <path class="cls-1" d="M82.51,24.8h2.93V7.84h-2.93v16.96Z"/>
  <path class="cls-1" d="M94.11,25.07c1.18,0,2.25-.27,3.23-.81.97-.55,1.75-1.31,2.33-2.26.58-.97.87-2.07.87-3.29s-.29-2.31-.87-3.27c-.57-.96-1.34-1.71-2.31-2.26-.97-.55-2.05-.83-3.25-.83s-2.3.28-3.27.83c-.97.55-1.75,1.31-2.33,2.26-.57.96-.85,2.05-.85,3.27s.28,2.31.85,3.27c.58.96,1.36,1.71,2.33,2.26.99.55,2.08.83,3.27.83ZM94.11,22.38c-.66,0-1.25-.16-1.77-.47-.51-.31-.91-.75-1.21-1.3-.28-.57-.43-1.2-.43-1.9s.14-1.33.43-1.88c.3-.55.7-.99,1.21-1.3.52-.33,1.11-.49,1.77-.49s1.23.16,1.72.49c.51.31.9.75,1.19,1.3.3.55.45,1.18.45,1.88s-.15,1.34-.45,1.9c-.28.55-.68.99-1.19,1.3-.49.31-1.07.47-1.72.47Z"/>
  <path class="cls-1" d="M107.11,25.07c.76,0,1.43-.14,2.02-.43.6-.3,1.07-.73,1.41-1.3v1.46h2.78v-12.19h-2.93v7.15c0,.81-.23,1.45-.69,1.93-.46.46-1.05.69-1.77.69s-1.33-.23-1.79-.69c-.45-.46-.67-1.08-.67-1.86v-7.21h-2.93v7.46c0,1.49.4,2.7,1.21,3.63.82.91,1.95,1.37,3.38,1.37Z"/>
  <path class="cls-1" d="M116.05,24.8h2.94v-7.15c0-.79.22-1.43.67-1.9.46-.48,1.06-.72,1.79-.72s1.32.24,1.77.72c.46.46.69,1.1.69,1.9v7.15h2.93v-7.84c0-.91-.19-1.71-.58-2.4-.39-.7-.93-1.25-1.64-1.64-.69-.39-1.48-.58-2.38-.58-.76,0-1.45.15-2.06.45-.6.3-1.06.74-1.39,1.32v-1.5h-2.76v12.19Z"/>
  <path class="cls-2" d="M16,32C7.16,32,0,24.84,0,16S7.16,0,16,0s16,7.16,16,16-7.16,16-16,16ZM23,26.58V5.42h-2.85v8.24h-1.35v-7.91h-2.8v13.59c-2.37-1.54-3.84-4.03-3.84-8.73v-3.01h-3v3.06c0,4.77-1.37,7.64-4.16,9.35l1.7,2.23c1.81-1.07,3.47-3.25,3.98-5.22.49,1.92,2.35,3.89,3.58,4.72l1.74-2.4v6.28h2.8v-9.5h1.35v10.45h2.85ZM16,19.34h0s0,0,0,0Z"/>
</svg>