<svg width="895" height="157" viewBox="0 0 895 157" fill="none" xmlns="http://www.w3.org/2000/svg">
<path d="M154.32 15.5942H193.947C198.904 15.5942 203.488 16.2678 207.717 17.6148C211.945 18.9619 215.575 20.8703 218.624 23.3399C221.674 25.8096 224.05 28.8592 225.752 32.4701C227.455 36.081 228.297 40.2158 228.297 44.8557C228.297 49.4956 227.156 53.9297 224.892 57.5406C222.628 61.1515 219.522 63.9954 215.612 66.0534C221.805 68.2237 226.538 71.5539 229.85 76.0442C233.143 80.5344 234.808 85.9227 234.808 92.2091C234.808 97.1671 233.91 101.601 232.095 105.511C230.28 109.44 227.736 112.752 224.443 115.502C221.131 118.234 217.09 120.329 212.3 121.77C207.511 123.211 202.16 123.94 196.285 123.94H154.339V15.5942H154.32ZM191.627 58.7755C195.649 58.7755 198.979 57.7651 201.617 55.7632C204.255 53.7426 205.565 50.7865 205.565 46.8576C205.565 42.9286 204.255 39.9725 201.617 37.9519C198.979 35.9313 195.649 34.9397 191.627 34.9397H177.071V58.7755H191.627ZM194.882 104.426C199.84 104.426 203.806 103.285 206.8 101.021C209.793 98.7574 211.29 95.3897 211.29 90.9556C211.29 86.5214 209.793 83.3034 206.8 80.9648C203.806 78.6448 199.84 77.4848 194.882 77.4848H177.089V104.408H194.882V104.426Z" fill="#214538"/>
<path d="M292.928 47.4753H315.529V123.94H292.928V114.193C290.664 117.804 287.633 120.666 283.872 122.78C280.112 124.895 275.696 125.961 270.645 125.961C261.87 125.961 255.004 123.173 250.065 117.598C245.107 112.023 242.637 104.389 242.637 94.6977V47.494H265.238V89.2907C265.238 94.3422 266.398 98.2712 268.718 101.059C271.038 103.847 274.368 105.231 278.709 105.231C283.049 105.231 286.492 103.716 289.074 100.666C291.656 97.6164 292.946 93.3693 292.946 87.8875V47.494L292.928 47.4753Z" fill="#214538"/>
<path d="M355.434 105.53H385.294V123.94H321.27L353.806 65.9038H323.441V47.4938H386.454L355.415 105.53H355.434Z" fill="#214538"/>
<path d="M422.89 105.53H452.75V123.94H388.727L421.262 65.9038H390.897V47.4938H453.91L422.871 105.53H422.89Z" fill="#214538"/>
<path d="M458.941 95.4647C463.076 98.7762 467.678 101.508 472.786 103.659C477.893 105.83 482.982 106.915 488.034 106.915C494.638 106.915 497.931 104.95 497.931 101.04C497.931 99.0756 496.958 97.6537 494.994 96.7931C493.029 95.9137 490.56 95.2028 487.566 94.6228C484.573 94.0615 481.373 93.4441 477.968 92.7705C474.563 92.097 471.364 91.0119 468.37 89.5151C465.377 88.0184 462.907 85.9229 460.943 83.2475C458.978 80.572 458.005 76.8489 458.005 72.0967C458.005 64.2575 460.812 57.8589 466.443 52.9009C472.075 47.9429 480.045 45.4733 490.354 45.4733C495.2 45.4733 499.877 46.0907 504.367 47.3255C508.857 48.5603 512.899 50.0571 516.51 51.8157V74.8844C512.693 71.3857 508.465 68.6916 503.825 66.8394C499.185 64.9871 494.433 64.0517 489.587 64.0517C485.864 64.0517 483.3 64.6129 481.841 65.7542C480.4 66.8955 479.671 68.2239 479.671 69.7767C479.671 71.5354 480.681 72.8264 482.683 73.6496C484.704 74.4728 487.192 75.165 490.185 75.745C493.179 76.3063 496.434 76.9798 499.933 77.7656C503.432 78.5327 506.687 79.7301 509.681 81.3204C512.674 82.9294 515.181 85.1371 517.183 87.9809C519.204 90.8248 520.195 94.6041 520.195 99.3562C520.195 103.697 519.372 107.514 517.726 110.806C516.079 114.118 513.797 116.868 510.915 119.095C508.034 121.321 504.629 123.024 500.7 124.202C496.771 125.381 492.599 125.98 488.165 125.98C481.972 125.98 476.472 125.325 471.682 124.053C466.892 122.762 462.627 121.097 458.922 119.02V95.5021L458.941 95.4647Z" fill="#214538"/>
<path d="M528.58 156.139V47.4752H551.012V57.6905C553.688 53.7615 557.224 50.7867 561.621 48.71C565.999 46.6519 570.732 45.6229 575.784 45.6229C580.835 45.6229 585.718 46.6519 590.096 48.71C594.474 50.768 598.291 53.5931 601.546 57.1479C604.802 60.7027 607.346 64.931 609.198 69.8328C611.051 74.7347 611.986 80.0294 611.986 85.6984C611.986 91.3673 611.051 96.6434 609.198 101.489C607.346 106.335 604.783 110.563 601.546 114.174C598.291 117.785 594.474 120.629 590.096 122.687C585.718 124.745 580.929 125.774 575.784 125.774C570.638 125.774 565.999 124.82 561.621 122.911C557.243 121.003 553.706 118.028 551.012 114.006V156.102H528.58V156.139ZM589.554 85.7171C589.554 82.9294 589.03 80.3475 588.001 77.9714C586.972 75.5953 585.569 73.5186 583.829 71.7038C582.07 69.9077 580.012 68.4858 577.636 67.4568C575.26 66.4277 572.678 65.9039 569.89 65.9039C567.102 65.9039 564.52 66.4277 562.144 67.4568C559.768 68.4858 557.71 69.9077 555.952 71.7038C554.193 73.5186 552.808 75.5953 551.779 77.9714C550.75 80.3475 550.227 82.9294 550.227 85.7171C550.227 88.5048 550.75 91.0867 551.779 93.4628C552.808 95.8389 554.212 97.9343 555.952 99.7304C557.71 101.545 559.768 102.948 562.144 103.996C564.52 105.025 567.102 105.549 569.89 105.549C572.678 105.549 575.26 105.025 577.636 103.996C580.012 102.967 582.07 101.545 583.829 99.7304C585.587 97.9343 586.972 95.8389 588.001 93.4628C589.03 91.0867 589.554 88.5048 589.554 85.7171Z" fill="#214538"/>
<path d="M669.277 69.4588C668.042 68.8414 666.134 68.5233 663.552 68.5233C657.266 68.5233 652.364 70.6936 648.846 75.0154C645.329 79.356 643.589 85.2869 643.589 92.8081V123.922H621.156V47.4753H643.439V60.0105C645.497 55.5764 648.435 52.0965 652.27 49.5707C656.087 47.0449 660.465 45.7727 665.423 45.7727C666.246 45.7727 667.051 45.8288 667.818 45.9224C668.585 46.0346 669.071 46.1282 669.296 46.2404V69.4588H669.277Z" fill="#214538"/>
<path d="M670.036 85.7173C670.036 80.0484 671.103 74.7536 673.217 69.8518C675.331 64.9499 678.25 60.7029 681.954 57.092C685.677 53.4811 690.055 50.6373 695.107 48.5792C700.158 46.5212 705.64 45.4922 711.515 45.4922C717.39 45.4922 722.871 46.5212 727.923 48.5792C732.974 50.6373 737.371 53.4811 741.076 57.092C744.799 60.7029 747.699 64.9686 749.813 69.8518C751.927 74.7536 752.993 80.0484 752.993 85.7173C752.993 91.3862 751.927 96.681 749.813 101.583C747.699 106.485 744.78 110.732 741.076 114.343C737.352 117.954 732.974 120.797 727.923 122.855C722.871 124.913 717.39 125.942 711.515 125.942C705.64 125.942 700.158 124.913 695.107 122.855C690.055 120.797 685.658 117.954 681.954 114.343C678.231 110.732 675.331 106.485 673.217 101.583C671.103 96.681 670.036 91.3862 670.036 85.7173ZM692.319 85.7173C692.319 88.505 692.843 91.0869 693.872 93.463C694.901 95.8391 696.267 97.8971 697.969 99.6558C699.672 101.414 701.692 102.799 704.012 103.828C706.332 104.857 708.839 105.381 711.515 105.381C714.19 105.381 716.566 104.857 718.942 103.828C721.319 102.799 723.358 101.396 725.06 99.6558C726.763 97.8971 728.129 95.8391 729.158 93.463C730.187 91.0869 730.711 88.505 730.711 85.7173C730.711 82.9296 730.187 80.3477 729.158 77.9716C728.129 75.5955 726.763 73.5375 725.06 71.7788C723.358 70.0202 721.319 68.6357 718.942 67.6066C716.566 66.5776 714.097 66.0538 711.515 66.0538C708.933 66.0538 706.332 66.5776 704.012 67.6066C701.692 68.6357 699.672 70.0389 697.969 71.7788C696.267 73.5375 694.901 75.5955 693.872 77.9716C692.843 80.3477 692.319 82.9296 692.319 85.7173Z" fill="#214538"/>
<path d="M811.345 47.4753H833.946V123.94H811.345V114.193C809.081 117.804 806.05 120.666 802.289 122.78C798.529 124.895 794.113 125.961 789.062 125.961C780.287 125.961 773.421 123.173 768.482 117.598C763.524 112.023 761.054 104.389 761.054 94.6977V47.494H783.655V89.2907C783.655 94.3422 784.815 98.2712 787.135 101.059C789.455 103.847 792.785 105.231 797.126 105.231C801.466 105.231 804.909 103.716 807.491 100.666C810.072 97.6164 811.363 93.3693 811.363 87.8875V47.494L811.345 47.4753Z" fill="#214538"/>
<path d="M875.093 25.9409L856.646 26.0532C856.646 26.0532 858.087 43.5277 840.5 47.4754V66.0538H852.642V99.4874C852.642 108.056 854.869 114.586 859.303 119.076C863.737 123.566 870.042 125.812 878.18 125.812C881.791 125.812 884.972 125.493 887.703 124.876C890.435 124.259 892.68 123.492 894.439 122.556V102.743C893.298 103.566 891.969 104.24 890.416 104.763C888.863 105.287 887.329 105.531 885.776 105.531C882.165 105.531 879.49 104.651 877.731 102.893C875.973 101.134 875.093 98.1965 875.093 94.0617V66.0538H894.439V47.4754H875.093V25.9409Z" fill="#214538"/>
<path d="M60.5211 34.3226L60.5772 0.327637H59.7353L25.0294 65.1743H60.5398L60.5211 98.9634H61.2695L96.0502 34.3226H60.5211Z" fill="#61D752"/>
<path d="M41.8789 83.7901C30.9901 72.9012 16.509 66.8955 1.11122 66.8768H0.194458L0.231877 67.7936C0.886704 82.892 7.13563 97.1112 17.8561 107.813C28.5578 118.515 42.777 124.782 57.8754 125.437L58.7922 125.475V124.558C58.7922 109.16 52.7678 94.6789 41.8789 83.7901Z" fill="#214538"/>
<path d="M119.952 66.8768C104.554 66.8768 90.073 72.9012 79.1841 83.7901C68.2953 94.6789 62.2896 109.16 62.2709 124.558V125.475L63.1876 125.437C78.2861 124.782 92.5052 118.533 103.207 107.813C113.909 97.1112 120.176 82.892 120.831 67.7936L120.869 66.8768H119.952Z" fill="#214538"/>
</svg>
