<svg height="70" viewBox="0 0 190 70" width="190" xmlns="http://www.w3.org/2000/svg"><path d="m54.104868 28.6699406c-4.9824196 0-8.8754696 3.7822641-8.8754696 8.8455719 0 5.0633461 3.7946672 8.8132242 8.8754696 8.8132242 5.080764 0 8.9414281-3.8146117 8.9414281-8.8455719 0-4.9986125-3.7946672-8.8132242-8.9414281-8.8132242zm.0336109 14.0097891c-2.8373297 0-4.9164609-2.2036219-4.9164609-5.1629539 0-2.992943 2.0455203-5.1953016 4.88285-5.1953016 2.8709023 0 4.9488086 2.2359695 4.9488086 5.1953016 0 2.959332-2.0779063 5.1629539-4.9151977 5.1629539zm9.9959617-10.1615664h2.4748446v13.4831539h3.9590468v-17.0026938h-6.4338914zm-28.8686562-.1979524c2.0791312 0 3.7287086 1.2823453 4.3549515 3.1896321h4.1906102c-.7594234-4.0772977-4.1246133-6.8399024-8.5119508-6.8399024-4.9824195 0-8.8754695 3.7822641-8.8754695 8.8468352s3.7947055 8.8132242 8.8754695 8.8132242c4.2889547 0 7.7201414-2.7626047 8.4795649-6.8735516h-4.1582243c-.593857 1.907325-2.2434726 3.2232813-4.3225656 3.2232813-2.8709406 0-4.88285-2.2036219-4.88285-5.1629539.0012633-2.992943 1.9807867-5.1965649 4.8504641-5.1965649zm104.0928056 3.5519258-2.90325-.4270273c-1.385399-.1966891-2.375352-.6573274-2.375352-1.7429453 0-1.1840008 1.287399-1.7753696 3.035321-1.7753696 1.913679 0 3.134851.8217071 3.398609 2.170011h3.827359c-.429515-3.4199703-3.069007-5.4256399-7.126437-5.4256399-4.190649 0-6.961828 2.1376633-6.961828 5.1629539 0 2.8933352 1.814914 4.5715852 5.476515 5.0969571l2.90325.4270273c1.419469.1966891 2.211125.7569352 2.211125 1.8089422 0 1.3483422-1.385398 1.907325-3.299078 1.907325-2.343195 0-3.66275-.9536625-3.860664-2.4003109h-3.893203c.363672 3.3215875 2.969477 5.6559398 7.72018 5.6559398 4.322718 0 7.192281-1.9732836 7.192281-5.3609063 0-3.0252906-2.077906-4.6039328-5.344828-5.096957zm-70.7697814-13.8777991c-1.451625 0-2.5407266 1.0520108-2.5407266 2.4986784s1.0879532 2.4986746 2.5407266 2.4986746c1.451625 0 2.5411094-1.052007 2.5411094-2.4986746s-1.0894844-2.4986784-2.5411094-2.4986784zm58.1009844 12.8257921c0-3.6826563-2.243281-6.1489641-6.994367-6.1489641-4.486946 0-6.994367 2.2696188-7.489727 5.7555477h3.926508c.197914-1.3483039 1.253711-2.4663078 3.497375-2.4663078 2.013211 0 3.002781.8876656 3.002781 1.9733218 0 1.4143008-1.815297 1.7753313-4.058578 2.0056696-3.03532.3286445-6.796453 1.3806515-6.796453 5.327257 0 3.0589398 2.276969 5.0309602 5.906414 5.0309602 2.837024 0 4.618633-1.1839625 5.510203-3.0589016.132071 1.6769867 1.385781 2.7626047 3.134852 2.7626047h2.309508v-3.5183149h-1.947368v-7.6628726zm-3.893203 4.2752883c0 2.2695804-1.979524 3.9465672-4.388563 3.9465672-1.484929 0-2.73864-.6249797-2.73864-1.9396727 0-1.6769867 2.012828-2.137625 3.860664-2.3343141 1.781609-.1643414 2.771179-.5590211 3.266539-1.3159562zm-21.016406-10.4254774c-2.2111254 0-4.0585785.9212766-5.3781332 2.4663078v-9.3062484h-3.9590469v24.1713172h3.8928203v-2.2359695c1.3195547 1.6109898 3.2010781 2.5646523 5.4443598 2.5646523 4.750703 0 8.347609-3.7486531 8.347609-8.8132242s-3.66275-8.8468352-8.347609-8.8468352zm-.593743 14.0097891c-2.8374058 0-4.9164605-2.2036219-4.9164605-5.1629539 0-2.9593321 2.1115937-5.1953016 4.9486175-5.1953016 2.871093 0 4.882773 2.2036219 4.882773 5.1953016 0 2.959332-2.077906 5.1629539-4.91493 5.1629539zm-18.2130699-14.0097891c-2.5732656 0-4.2564922 1.0520071-5.2460625 2.5322664v-2.2035836h-3.9268906v17.0014688h3.9590468v-9.2402516c0-2.5983015 1.6495391-4.4396297 4.0911172-4.4396297 2.2769688 0 3.6949063 1.6110282 3.6949063 3.9466055v9.7345008h3.9590477v-10.0295727c.0015304-4.2765133-2.2084462-7.3018039-6.5311649-7.3018039zm80.6027029 8.2878524c0-4.8666571-3.563219-8.2866274-8.347609-8.2866274-5.080688 0-8.809281 3.81465-8.809281 8.8456102 0 5.2949094 3.992351 8.8132242 8.875507 8.8132242 4.124422 0 7.357657-2.4339219 8.181852-5.8862781h-4.124805c-.593742 1.5126453-2.045367 2.3679633-3.992351 2.3679633-2.54111 0-4.454789-1.5786422-4.883157-4.3412469h13.098696v-1.5126453zm-12.868242-1.3159563c.627813-2.3679633 2.409039-3.5183148 4.454789-3.5183148 2.243281 0 3.959047 1.282307 4.354875 3.5183148z"/></svg>