<svg width="272" height="46" viewBox="0 0 272 46" fill="none" xmlns="http://www.w3.org/2000/svg">
<path d="M41.0413 0.694859C40.6602 0.313737 40.1488 0.0773446 39.6085 0.0435743C31.2238 -0.472629 25.7964 3.76796 22.9163 7.75286C20.0265 3.76796 14.604 -0.477454 6.21447 0.0435743C5.66932 0.0773446 5.15794 0.313737 4.77682 0.694859C-0.607134 6.08364 -0.0185654 14.5696 0.0537996 15.3994C0.08757 16.0025 0.434922 20.1852 3.17514 24.9854C5.79958 29.583 11.2173 35.7002 22.1492 38.7685C22.2023 38.7878 22.265 38.8023 22.3229 38.8216C22.3663 38.836 22.4049 38.8409 22.4484 38.8505C22.5014 38.865 22.5593 38.8698 22.6172 38.8795C22.7137 38.8988 22.815 38.8988 22.9115 38.8988C23.008 38.8988 23.0996 38.8988 23.1913 38.8795C23.2444 38.8698 23.2926 38.8602 23.3457 38.8553C23.3939 38.8457 23.4373 38.836 23.4856 38.8216C23.5483 38.8023 23.611 38.7878 23.6786 38.7685C43.8829 33.0854 45.6341 16.9625 45.7547 15.4525C45.8078 14.9604 46.5459 6.20907 41.0365 0.699684L41.0413 0.694859ZM20.6923 19.4567L20.673 19.4374L14.6908 12.9921C13.8562 12.0899 12.4427 12.0369 11.5454 12.8715C10.6432 13.7109 10.5901 15.1196 11.4248 16.0169L20.673 25.984L20.6923 26.0033V33.6354C20.6923 33.6354 20.6778 33.6354 20.673 33.6354C5.35574 28.0488 4.52596 15.6841 4.50183 15.1389C4.50183 15.1003 4.49219 15.0569 4.49219 15.0183C4.48254 14.9508 3.90844 8.58264 7.36266 4.45301C7.45433 4.45301 7.54116 4.45301 7.63283 4.45301C16.4324 4.45301 19.9301 11.1009 20.673 12.775C20.673 12.7895 20.6875 12.7991 20.6923 12.8136V19.4567ZM41.3308 15.0231C41.3308 15.0569 41.3211 15.1003 41.3211 15.1341C41.2922 15.6889 40.4624 28.0488 25.1452 33.6209C25.1355 33.6209 25.1307 33.6209 25.1259 33.6306V26.0033L25.1452 25.984L34.3934 16.0169C35.228 15.1196 35.1749 13.7109 34.2728 12.8715C33.3706 12.0369 31.9619 12.0899 31.1225 12.9921L25.1452 19.4374L25.1259 19.4567V12.8136C25.1259 12.8136 25.1403 12.7846 25.1452 12.7653C25.8833 11.1154 29.4292 4.45301 38.195 4.45301C38.2818 4.45301 38.3638 4.45301 38.4507 4.45301C41.8808 8.55852 41.3308 14.9556 41.326 15.0183L41.3308 15.0231Z" fill="#88B04B"/>
<path d="M82.7481 1.81885C83.1051 1.81885 83.4139 1.9491 83.6696 2.20962C83.9301 2.47013 84.0604 2.77889 84.0604 3.13107V6.58046C84.0604 6.93747 83.9301 7.24622 83.6696 7.50191C83.4091 7.7576 83.1003 7.89268 82.7481 7.89268H67.2427V17.8115H81.7784C82.1354 17.8115 82.4442 17.9418 82.6999 18.2023C82.9556 18.4628 83.0907 18.7716 83.0907 19.1237V22.5731C83.0907 22.9301 82.9604 23.2389 82.6999 23.4946C82.4394 23.7503 82.1306 23.8853 81.7784 23.8853H67.2427V35.0199C67.2427 35.3769 67.1125 35.6857 66.852 35.9414C66.5915 36.197 66.2827 36.3321 65.9305 36.3321H61.9939C61.6369 36.3321 61.3281 36.2019 61.0724 35.9414C60.8119 35.6808 60.6816 35.3721 60.6816 35.0199V3.13589C60.6816 2.77889 60.8119 2.47013 61.0724 2.21444C61.3329 1.95393 61.6417 1.82367 61.9939 1.82367H82.753L82.7481 1.81885Z" fill="#36485C"/>
<path d="M88.5566 12.3701C88.5566 12.0131 88.6868 11.7043 88.9473 11.4486C89.2079 11.1881 89.5166 11.0579 89.8688 11.0579H93.5642C93.9212 11.0579 94.23 11.1881 94.4857 11.4486C94.7414 11.7091 94.8765 12.0179 94.8765 12.3701V24.7155C94.8765 26.6598 95.2913 28.218 96.1163 29.3807C96.9413 30.5482 98.2969 31.1319 100.174 31.1319C101.891 31.1319 103.203 30.5482 104.11 29.3807C105.017 28.2132 105.471 26.6598 105.471 24.7155V12.3701C105.471 12.0131 105.601 11.7043 105.861 11.4486C106.122 11.1929 106.431 11.0579 106.783 11.0579H110.478C110.835 11.0579 111.144 11.1881 111.4 11.4486C111.655 11.7091 111.791 12.0179 111.791 12.3701V35.0251C111.791 35.3821 111.66 35.6909 111.4 35.9466C111.139 36.2071 110.831 36.3374 110.478 36.3374H106.783C106.426 36.3374 106.117 36.2071 105.861 35.9466C105.601 35.6861 105.471 35.3773 105.471 35.0251V33.9059C104.723 34.6537 103.801 35.3243 102.702 35.9225C101.602 36.5207 100.27 36.8198 98.7166 36.8198C96.7386 36.8198 95.1032 36.511 93.8055 35.8984C92.5077 35.2808 91.4705 34.4559 90.6938 33.4186C89.917 32.3814 89.3671 31.1753 89.039 29.7956C88.7158 28.4158 88.5518 26.9685 88.5518 25.444V12.3701H88.5566Z" fill="#36485C"/>
<path d="M123.403 35.0248C123.403 35.3818 123.273 35.6905 123.012 35.9462C122.752 36.2068 122.443 36.337 122.091 36.337H118.395C118.038 36.337 117.729 36.2068 117.474 35.9462C117.213 35.6857 117.083 35.377 117.083 35.0248V3.13595C117.083 2.77895 117.213 2.47019 117.474 2.2145C117.734 1.95399 118.043 1.82373 118.395 1.82373H122.091C122.448 1.82373 122.756 1.95399 123.012 2.2145C123.273 2.47502 123.403 2.78377 123.403 3.13595V35.0248Z" fill="#36485C"/>
<path d="M135.111 35.0248C135.111 35.3818 134.981 35.6905 134.721 35.9462C134.46 36.2068 134.151 36.337 133.799 36.337H130.104C129.747 36.337 129.438 36.2068 129.182 35.9462C128.922 35.6857 128.792 35.377 128.792 35.0248V3.13595C128.792 2.77895 128.922 2.47019 129.182 2.2145C129.443 1.95399 129.752 1.82373 130.104 1.82373H133.799C134.156 1.82373 134.465 1.95399 134.721 2.2145C134.976 2.47502 135.111 2.78377 135.111 3.13595V35.0248Z" fill="#36485C"/>
<path d="M169.6 21.9943C169.538 22.4816 169.504 23.046 169.504 23.6973C169.504 24.3486 169.538 24.9131 169.6 25.4003C169.697 26.4038 169.924 27.2625 170.281 27.9765C170.638 28.6905 171.081 29.2646 171.617 29.7036C172.152 30.1426 172.741 30.4659 173.392 30.6781C174.039 30.8904 174.705 30.9917 175.385 30.9917C176.195 30.9917 176.875 30.929 177.425 30.7987C177.975 30.6685 178.448 30.4852 178.834 30.2391C179.22 29.9931 179.553 29.7229 179.833 29.4142C180.108 29.1054 180.378 28.758 180.634 28.3673C180.827 28.0778 181.053 27.7835 181.314 27.4941C181.574 27.2046 181.883 27.0551 182.235 27.0551H185.931C186.288 27.0551 186.601 27.1853 186.876 27.4458C187.151 27.7063 187.272 28.0151 187.243 28.3673C187.209 29.0475 186.968 29.8725 186.514 30.847C186.061 31.8215 185.357 32.7526 184.401 33.6403C183.446 34.528 182.221 35.2854 180.73 35.9029C179.239 36.5204 177.459 36.8243 175.385 36.8243C173.605 36.8243 171.998 36.5252 170.57 35.927C169.142 35.3288 167.902 34.5183 166.851 33.4955C165.799 32.4728 164.969 31.2908 164.371 29.9448C163.773 28.5988 163.406 27.1805 163.276 25.6898C163.213 25.106 163.179 24.4596 163.179 23.7456C163.179 23.0316 163.213 22.3658 163.276 21.7531C163.372 20.2624 163.729 18.8344 164.347 17.4739C164.964 16.1135 165.789 14.9219 166.826 13.8991C167.864 12.8763 169.103 12.0659 170.546 11.4676C171.988 10.8694 173.6 10.5703 175.385 10.5703C177.459 10.5703 179.239 10.8791 180.73 11.4918C182.221 12.1093 183.446 12.8619 184.401 13.7544C185.357 14.6469 186.061 15.578 186.514 16.5477C186.968 17.5222 187.209 18.3471 187.243 19.0274C187.277 19.3844 187.156 19.6931 186.876 19.9488C186.601 20.2093 186.283 20.3396 185.931 20.3396H182.235C181.878 20.3396 181.57 20.1949 181.314 19.9006C181.053 19.6111 180.827 19.3168 180.634 19.0274C180.373 18.6366 180.108 18.2892 179.833 17.9805C179.558 17.6717 179.225 17.3967 178.834 17.1555C178.443 16.9143 177.975 16.7262 177.425 16.5959C176.875 16.4656 176.195 16.4029 175.385 16.4029C174.705 16.4029 174.039 16.5091 173.392 16.7165C172.746 16.9288 172.152 17.252 171.617 17.691C171.081 18.13 170.638 18.7041 170.281 19.4181C169.924 20.1321 169.697 20.9909 169.6 21.9943Z" fill="#36485C"/>
<path d="M203.057 16.8905C201.113 16.8905 199.709 17.3198 198.85 18.1786C197.991 19.0373 197.562 20.4412 197.562 22.3854V35.0251C197.562 35.3821 197.432 35.6909 197.171 35.9466C196.911 36.2023 196.602 36.3374 196.25 36.3374H192.554C192.197 36.3374 191.889 36.2071 191.633 35.9466C191.372 35.6861 191.242 35.3773 191.242 35.0251V12.3701C191.242 12.0131 191.372 11.7043 191.633 11.4486C191.893 11.1881 192.202 11.0579 192.554 11.0579H196.25C196.607 11.0579 196.916 11.1881 197.171 11.4486C197.432 11.7091 197.562 12.0179 197.562 12.3701V13.4893C198.406 12.7126 199.304 12.1096 200.259 11.6898C201.214 11.2701 202.468 11.0579 204.027 11.0579H204.384C204.741 11.0579 205.049 11.1881 205.305 11.4486C205.561 11.7091 205.696 12.0179 205.696 12.3701V15.5783C205.696 15.9353 205.566 16.244 205.305 16.4997C205.045 16.7602 204.736 16.8905 204.384 16.8905H203.057Z" fill="#36485C"/>
<path d="M215.35 1.81885C215.707 1.81885 216.016 1.9491 216.271 2.20962C216.532 2.47013 216.662 2.77889 216.662 3.13107V6.92299C216.662 7.27999 216.532 7.58875 216.271 7.84444C216.011 8.10013 215.702 8.23521 215.35 8.23521H211.167C210.81 8.23521 210.501 8.10495 210.246 7.84444C209.99 7.58393 209.855 7.27517 209.855 6.92299V3.13589C209.855 2.77889 209.985 2.47013 210.246 2.21444C210.506 1.95875 210.815 1.82367 211.167 1.82367H215.35V1.81885ZM216.421 35.0199C216.421 35.3769 216.291 35.6857 216.03 35.9414C215.77 36.197 215.461 36.3321 215.109 36.3321H211.413C211.056 36.3321 210.747 36.2019 210.492 35.9414C210.236 35.6808 210.101 35.3721 210.101 35.0199V12.3697C210.101 12.0127 210.231 11.7039 210.492 11.4482C210.752 11.1925 211.061 11.0574 211.413 11.0574H215.109C215.466 11.0574 215.774 11.1877 216.03 11.4482C216.286 11.7087 216.421 12.0175 216.421 12.3697V35.0247V35.0199Z" fill="#36485C"/>
<path d="M235.409 36.8245C234.405 36.8245 233.503 36.728 232.712 36.535C231.921 36.342 231.221 36.096 230.623 35.8065C230.025 35.5171 229.513 35.1987 229.094 34.8609C228.674 34.5232 228.331 34.2048 228.071 33.9154V44.2684C228.071 44.6254 227.941 44.9342 227.68 45.1898C227.42 45.4455 227.111 45.5806 226.759 45.5806H223.063C222.706 45.5806 222.397 45.4504 222.142 45.1898C221.886 44.9293 221.751 44.6206 221.751 44.2684V12.3699C221.751 12.0129 221.881 11.7041 222.142 11.4485C222.402 11.1879 222.711 11.0577 223.063 11.0577H226.759C227.116 11.0577 227.424 11.1879 227.68 11.4485C227.936 11.709 228.071 12.0177 228.071 12.3699V13.4892C228.331 13.1997 228.669 12.8813 229.094 12.5436C229.518 12.2059 230.025 11.8875 230.623 11.598C231.221 11.3086 231.921 11.0625 232.712 10.8695C233.508 10.6766 234.405 10.5801 235.409 10.5801C237.03 10.5801 238.496 10.8937 239.808 11.5256C241.121 12.1576 242.24 13.0019 243.161 14.0536C244.083 15.1053 244.816 16.321 245.347 17.7008C245.882 19.0806 246.181 20.5134 246.244 22.0041C246.278 22.4914 246.292 23.0558 246.292 23.7071C246.292 24.3584 246.278 24.9228 246.244 25.4101C246.181 26.9008 245.877 28.3336 245.347 29.7134C244.811 31.0931 244.083 32.3041 243.161 33.3606C242.24 34.4123 241.121 35.2565 239.808 35.8885C238.496 36.5205 237.03 36.8341 235.409 36.8341V36.8245ZM239.929 25.0579C240.026 24.1509 240.026 23.244 239.929 22.337C239.736 20.2287 239.085 18.7139 237.985 17.7925C236.885 16.871 235.539 16.4079 233.952 16.4079C232.365 16.4079 231.028 16.8758 229.943 17.8166C228.857 18.7573 228.235 20.1033 228.071 21.8497C228.008 22.337 227.974 22.9497 227.974 23.6974C227.974 24.4452 228.008 25.0579 228.071 25.5452C228.235 27.2289 228.857 28.5604 229.943 29.5301C231.028 30.5046 232.365 30.987 233.952 30.987C235.539 30.987 236.885 30.5239 237.985 29.6024C239.085 28.681 239.736 27.1613 239.929 25.0579Z" fill="#36485C"/>
<path d="M250.572 10.9465V3.13595C250.572 2.77895 250.702 2.47019 250.963 2.2145C251.223 1.95399 251.532 1.82373 251.884 1.82373H255.579C255.936 1.82373 256.245 1.95399 256.501 2.2145C256.757 2.47502 256.892 2.78377 256.892 3.13595V11.0575H263.163C263.52 11.0575 263.829 11.1878 264.085 11.4483C264.345 11.7088 264.476 12.0175 264.476 12.3697V15.5779C264.476 15.9349 264.345 16.2437 264.085 16.4994C263.824 16.755 263.515 16.8901 263.163 16.8901H256.892V27.1949C256.892 28.1984 257.157 29.004 257.692 29.6022C258.228 30.2005 259.222 30.4996 260.684 30.4996H263.651C264.008 30.4996 264.316 30.6298 264.572 30.8903C264.832 31.1509 264.963 31.4596 264.963 31.8118V35.02C264.963 35.377 264.832 35.6857 264.572 35.9414C264.311 36.1971 264.003 36.3322 263.651 36.3322H260.052C257.007 36.3322 254.663 35.5941 253.027 34.1226C251.392 32.6464 250.572 30.3886 250.572 27.3396V10.9465Z" fill="#36485C"/>
<path d="M154.018 29.1151C154.018 28.7581 153.902 28.4638 153.675 28.237C153.449 28.0103 153.048 27.798 152.479 27.6051C151.91 27.4121 151.152 27.2143 150.211 27.0213C149.266 26.8283 148.065 26.5678 146.603 26.2398C145.17 25.9165 143.983 25.5065 143.042 25.0192C142.097 24.532 141.344 23.9627 140.775 23.3114C140.206 22.6601 139.805 21.922 139.579 21.0922C139.352 20.2624 139.236 19.3603 139.236 18.3858C139.236 17.4112 139.463 16.4512 139.921 15.5105C140.375 14.5697 141.035 13.7303 141.894 12.997C142.758 12.2637 143.805 11.6703 145.04 11.2168C146.275 10.7633 147.688 10.5317 149.285 10.5317C150.882 10.5317 152.3 10.7102 153.555 11.0672C154.804 11.4242 155.87 11.897 156.748 12.4808C157.626 13.0645 158.311 13.7399 158.799 14.507C159.286 15.2692 159.561 16.0411 159.628 16.8227C159.662 17.1797 159.537 17.4884 159.262 17.7489C158.987 18.0095 158.668 18.1397 158.311 18.1397H154.558C154.071 18.1397 153.704 18.048 153.458 17.8695C153.217 17.691 152.947 17.4884 152.652 17.2617C152.358 17.0349 151.967 16.8323 151.48 16.6538C150.993 16.4753 150.26 16.3837 149.285 16.3837C148.311 16.3837 147.447 16.5284 146.699 16.8227C145.951 17.117 145.58 17.638 145.58 18.3858C145.58 18.7428 145.667 19.0419 145.85 19.2879C146.029 19.5339 146.371 19.751 146.873 19.944C147.375 20.137 148.074 20.3444 148.972 20.5519C149.864 20.7641 151.027 21.015 152.46 21.3093C155.354 21.9268 157.395 22.8965 158.582 24.2135C159.768 25.5306 160.362 27.166 160.362 29.1151C160.362 30.0896 160.116 31.04 159.628 31.9662C159.141 32.8925 158.432 33.7223 157.506 34.4556C156.58 35.1889 155.441 35.7726 154.09 36.2117C152.739 36.6507 151.22 36.8678 149.531 36.8678C147.843 36.8678 146.289 36.6651 144.972 36.2599C143.655 35.8547 142.541 35.324 141.634 34.6727C140.722 34.0214 140.022 33.2929 139.535 32.4776C139.048 31.6671 138.787 30.8663 138.754 30.0896C138.72 29.7326 138.84 29.4238 139.12 29.1633C139.395 28.9028 139.714 28.7725 140.071 28.7725H143.824C144.311 28.7725 144.678 28.8883 144.919 29.1151C145.165 29.3418 145.44 29.6023 145.749 29.8966C146.058 30.1909 146.487 30.4514 147.042 30.6782C147.592 30.9049 148.422 31.0207 149.531 31.0207C150.018 31.0207 150.52 30.9869 151.041 30.9242C151.562 30.8615 152.04 30.7553 152.479 30.6058C152.918 30.4562 153.284 30.2633 153.574 30.022C153.863 29.7808 154.013 29.4769 154.013 29.1199L154.018 29.1151Z" fill="#36485C"/>
<path d="M271.874 3.99147C271.874 5.78759 270.702 6.98294 268.937 6.98294C267.172 6.98294 266 5.78759 266 3.99147C266 2.19535 267.179 1 268.937 1C270.696 1 271.874 2.19535 271.874 3.99147ZM266.536 3.99147C266.536 5.45933 267.497 6.45029 268.937 6.45029C270.378 6.45029 271.35 5.45933 271.35 3.99147C271.35 2.5236 270.39 1.53264 268.937 1.53264C267.484 1.53264 266.536 2.5236 266.536 3.99147ZM269.105 2.48025C269.76 2.48025 270.128 2.82089 270.128 3.37831C270.128 3.78708 269.866 4.04102 269.548 4.14631C269.48 4.17108 269.48 4.18966 269.542 4.22063C269.76 4.35069 269.879 4.51172 269.96 4.7285L270.253 5.3912C270.284 5.45933 270.253 5.49649 270.184 5.49649H269.791C269.742 5.49649 269.71 5.47172 269.685 5.42217L269.486 4.93288C269.317 4.56127 269.143 4.37547 268.675 4.37547H268.407V5.40359C268.407 5.45933 268.376 5.49649 268.313 5.49649H267.946C267.889 5.49649 267.852 5.46553 267.852 5.40359V2.57315C267.852 2.51741 267.883 2.48025 267.946 2.48025H269.112H269.105ZM268.401 3.88618H268.918C269.336 3.88618 269.598 3.73134 269.598 3.42166C269.598 3.13057 269.386 3.0067 269.105 3.0067H268.401V3.88618Z" fill="#36485C"/>
</svg>
