<?xml version="1.0" encoding="utf-8"?>
<svg version="1.1" id="svg2" width="190px" height="70px" viewBox="0 0 190 70" xmlns="http://www.w3.org/2000/svg">
  <g id="g8" transform="matrix(0.285285, 0, 0, -0.285285, 29.529045, 51.423031)" style="">
    <g id="g10" transform="scale(0.1)">
      <path d="m 995.387,580.801 c 30.163,164.98 30.183,491.409 -488.418,546.159 -137.063,14.47 -349.317,-21.95 -501.87134,-48.8 -1.67969,-0.55 -3.13282,-1.77 -4.04297,-3.62 -1.457034,-2.97 -1.39844,-7.43 0.14453,-11.64 3.50391,-12.38 19.05858,-33.55 36.75388,-42.44 13.6016,-6.83 45.125,-4.9 49.3594,-4.52 C 560.039,1058.13 898.762,954.863 837.082,609.246 801.469,409.664 670.426,160.324 309.172,160.324 c -73.129,0 -82.328,6.184 -73.262,65.094 1.176,7.645 112.637,606.039 119.621,666.398 0.426,2.368 -1.008,4.477 -3.164,4.903 -3.512,0.465 -83.004,19.121 -101.953,-56.715 C 246.371,823.828 56.3086,115.879 47.5039,78.832 35.1758,26.9492 70.375,0 302.773,0 890.191,0 977.734,484.227 995.387,580.801" style="fill-opacity: 1; fill-rule: nonzero; paint-order: fill; stroke: rgb(0, 0, 0);" id="path12"/>
      <path d="m 1433.98,270.938 c -57.08,-83.583 -173.52,-111.028 -246.79,-59.079 -78.24,55.864 -77.07,187.977 -5.51,268.379 71.57,80.403 198.29,109.442 268.17,22.926 60.58,-75.008 24.23,-173.519 -15.87,-232.226 z m 727.31,-50.161 c -0.59,0.356 -1.16,0.801 -1.99,1.457 -18.92,15.059 -45.15,28.715 -62.59,8.2 -57.88,-68.204 -149.38,-105.125 -217.52,-87.793 -36.88,9.375 -84.61,38.617 -102.6,124.711 -17.6,84.609 -3.14,195.238 90.26,251.992 43.18,26.226 85.07,29.918 135.86,11.922 1.39,-0.457 3.04,-1.133 4.91,-1.907 11.17,-4.632 28.07,-11.613 44.33,7.692 8.36,10.277 15.78,21.457 22,33.203 4.62,8.199 1.31,13.894 -13.57,23.5 -45.61,30.965 -97.93,46.277 -149.61,46.277 -59.74,0 -118.64,-20.461 -165.36,-60.843 -22.52,-20.184 -42.12,-43.254 -58.54,-68.348 l -0.15,0.039 c -0.04,-0.07 -0.08,-0.149 -0.13,-0.219 0,0 -27.83,-40.996 -41.9,-57.672 -15.49,-17.773 -28.25,-30.691 -42.91,-40.867 -9.61,79.442 -46.2,155.922 -115.07,200.356 -100.98,63.406 -302.72,41.859 -412.78,-87.036 -110.063,-128.89 -129.481,-348.125 28.33,-456.7301 128.23,-70.53903 271.03,-47.4726 376.54,30.8985 49.04,36.9806 85.16,90.4886 105.53,148.4686 16,5.016 31.65,11.149 46.82,18.375 3.89,-42.57 13.9,-78.414 31.07,-111.215 43.41,-87.2575 143.58,-144.3278 243.92,-138.8982 119.15,3.3907 221.69,82.4688 255.23,196.7652 0.19,0.493 2.7,6.278 -0.08,7.672" style="fill-opacity: 1; fill-rule: nonzero; paint-order: fill; stroke: rgb(0, 0, 0);" id="path14"/>
      <path d="m 3029.63,270.938 c -57.08,-83.583 -173.53,-111.028 -246.79,-59.079 -78.24,55.864 -77.07,187.977 -5.51,268.379 71.56,80.403 198.29,109.442 268.17,22.926 60.58,-75.008 24.23,-173.519 -15.87,-232.226 z m 52.73,341.539 c -100.98,63.406 -302.72,41.859 -412.78,-87.036 -67.85,-79.453 -101.17,-193.226 -79.84,-294.265 -37.61,-35.008 -83.07,-58.621 -139,-46.719 -30.25,6.441 -64.47,39.625 -53.37,93.535 2.06,10.039 45.33,242.328 86.04,466.586 5.32,0.375 10.62,0.742 15.82,1.082 97.44,6.324 309.96,21.653 339.15,37.961 34.16,19.094 31.62,49.348 29.13,61.008 -0.6,2.809 -2.92,4.867 -5.79,4.992 -25.16,1.082 -150.84,6.395 -246.06,8.664 -27.19,0.649 -67.15,0.961 -111.53,1.074 19.8,110.344 36.92,208.021 45.38,261.641 0.63,2.46 -0.68,4.68 -2.83,5.25 -5.97,1.36 -12.26,2.03 -18.66,2.03 -33.04,0 -68.98,-17.92 -78.96,-50.69 0,0 -26.58,-93.762 -60.91,-218.305 -81.76,-0.25 -155.63,-0.805 -175.02,-0.961 -2.98,-0.023 -5.45,-2.136 -6.03,-5.051 -3.71,-18.875 -13.67,-85.597 26.39,-105.082 24.54,-11.941 69.66,-13.761 121.01,-11.914 -52.56,-193.722 -108.92,-409.824 -116.62,-472.882 -8.59,-70.45 14.08,-140.344 61.15,-182.7544 74.06,-69.3711 194.62,-82.58201 280.45,-30.8203 28.16,16.8281 53.48,36.4102 75.12,56.0197 12.63,-13.3986 26.97,-25.8908 43.31,-37.1291 128.23,-70.53903 271.03,-47.4726 376.54,30.8985 69.36,52.3086 113.06,137.6526 122.56,222.0196 14.3,107.016 -19.54,229.48 -114.65,290.848" style="fill-opacity: 1; fill-rule: nonzero; paint-order: fill; stroke: rgb(0, 0, 0);" id="path16"/>
      <path d="m 4524.97,491.031 c -69.88,86.52 -196.6,57.477 -268.16,-22.926 -71.56,-80.402 -86.44,-216.468 -8.2,-272.328 73.26,-51.953 203.41,-20.554 260.5,63.028 40.09,58.711 76.44,157.222 15.86,232.226 z M 4674.02,321.629 C 4664.52,237.262 4620.83,151.918 4551.47,99.6094 4509.07,68.1211 4460.61,45.7695 4409.54,34.6211 4309.32,4.51172 4197.99,16.0898 4119.59,78.1992 4102.85,91.4609 4087.08,108.781 4073.81,128.52 4040.12,86.9219 3987.94,37.9883 3919.68,21.6094 3831.25,0.390625 3735.55,52.4492 3695.57,132.352 3664.45,101.07 3620.32,64.6211 3567.15,42.3594 3475.64,4.05859 3365.53,20.332 3308.09,71.6289 c -61.53,54.9491 -71.96,122.3091 -57.39,191.7661 33.01,157.281 184.87,715.382 184.87,715.382 9.98,32.773 45.92,50.693 78.96,50.693 6.4,0 12.69,-0.67 18.66,-2.04 2.16,-0.56 3.4,-2.34 2.83,-5.24 -27.77,-175.967 -123.11,-727.112 -125.83,-744.198 -10.5,-64.765 23.12,-87.094 53.38,-93.535 103.93,-22.121 175.9,39.406 222.6,109.719 1.47,6.16 2.96,12.172 4.41,17.984 11.92,47.883 75.43,269.324 75.97,271.25 21.76,53.988 58.51,67.106 94.15,67.106 10.83,0 21.55,-1.215 31.73,-2.86 4.19,-0.804 6.99,-4.746 6.36,-8.976 -9.37,-64.547 -59.61,-352.77 -62.19,-382.075 -1.44,-18.082 -4.45,-55.71 44.49,-70.664 58.33,-17.8 112.35,9.122 156.54,77.661 6.53,36.613 199.17,814.388 199.17,814.388 9.81,32.79 45.96,50.75 79.07,50.75 6.27,0 12.43,-0.65 18.29,-1.96 1.06,-0.21 1.97,-0.82 2.58,-1.71 0.61,-0.89 0.83,-1.97 0.5,-3.59 -6.82,-43.38 -56.12,-386.73 -78.89,-511.617 104.93,49.828 228.77,47.985 301.02,2.614 95.11,-61.368 128.95,-183.832 114.65,-290.848 z M 3821.7,886.934 c 1.81,3.179 3.8,6.265 6.19,9.035 3.6,4.176 7.77,7.797 12.44,10.804 15.59,9.594 35.75,16.418 55.18,16.418 12.32,0 24.35,-2.742 34.74,-9.261 26.63,-17.188 32.42,-50.871 29.28,-74.508 -2.56,-22.738 -14.3,-44.012 -31.4,-56.91 -25.48,-18.907 -65.21,-28.707 -96.52,-7.985 -37.01,25.469 -31.82,73.922 -9.91,112.407" style="fill-opacity: 1; fill-rule: nonzero; paint-order: fill; stroke: rgb(0, 0, 0);" id="path18"/>
    </g>
  </g>
</svg>