<svg fill="none" height="140" viewBox="0 0 380 140" width="380" xmlns="http://www.w3.org/2000/svg"><path d="m190.151 59.5479h-4.449c-.809 0-1.415.6066-1.415 1.4155v29.7267c0 .8089.606 1.4155 1.415 1.4155h4.449c.809 0 1.416-.6066 1.416-1.4155v-29.7267c0-.8089-.607-1.4155-1.416-1.4155zm47.32-.6067c-4.449 0-8.089 1.82-10.92 5.6622l-.202.2023-.202-.4045c-1.82-3.64-5.258-5.6622-9.707-5.6622-5.258 0-7.887 3.0333-9.909 5.6622l-.404.6067v-4.0445c0-.8089-.607-1.4155-1.416-1.4155h-4.246c-.809 0-1.416.6066-1.416 1.4155v29.7267c0 .8089.607 1.4155 1.416 1.4155h4.448c.809 0 1.416-.6066 1.416-1.4155v-16.9867c0-5.0555 2.831-8.4933 7.28-8.4933s6.876 3.0333 6.876 8.2911v17.1889c0 .8089.606 1.4155 1.415 1.4155h4.449c.809 0 1.416-.6066 1.416-1.4155v-16.9867c0-5.2578 2.831-8.4933 7.28-8.4933 6.066 0 6.875 5.2578 6.875 8.2911v17.1889c0 .8089.607 1.4155 1.416 1.4155h4.449c.808 0 1.415-.6066 1.415-1.4155v-19.4133c-.404-7.8867-4.449-12.3356-11.729-12.3356zm23.66.6067h-4.449c-.809 0-1.415.6066-1.415 1.4155v29.7267c0 .8089.606 1.4155 1.415 1.4155h4.449c.809 0 1.416-.6066 1.416-1.4155v-29.7267c0-.8089-.607-1.4155-1.416-1.4155zm24.873 0h-7.482v-7.6845c0-.8088-.606-1.4155-1.415-1.4155h-4.449c-.809 0-1.416.6067-1.416 1.4155v7.6845h-2.831c-.809 0-1.415.6066-1.415 1.4155v3.2356c0 .8089.606 1.4155 1.415 1.4155h2.831v17.5934c0 6.2688 3.034 9.5044 9.303 9.5044 2.224 0 4.044-.4045 5.864-1.2133.404-.2023.809-.6067.809-1.2134v-2.8311c0-.4044-.202-.8089-.607-1.0111-.404-.2022-.809-.4044-1.213-.2022-.809.2022-1.82.4044-2.831.4044-2.831 0-4.247-1.4155-4.247-4.4489v-16.5822h7.482c.809 0 1.416-.6066 1.416-1.4155v-3.2356c0-.8089-.607-1.4155-1.214-1.4155zm35.794.6066c-.202-.4044-.607-.6066-1.214-.6066h-4.448c-.607 0-1.012.4044-1.214.8089l-8.493 24.0644-9.1-24.0644c-.202-.6067-.607-.8089-1.213-.8089h-4.652c-.404 0-.808.2022-1.213.6066-.202.4045-.202.8089-.202 1.2134l12.942 30.9399c-1.415 3.2356-3.033 3.8423-4.853 3.8423-1.011 0-2.022-.2023-3.236-.6067-.606-.2022-1.415 0-1.82.6067l-1.213 2.8311c-.202.4044-.202.6066 0 1.0111.202.4047.404.6067.809.8087 2.022.809 4.044 1.214 6.269 1.214 5.257 0 8.089-2.4272 10.717-9.1005l12.336-31.7488c0-.2023 0-.6067-.202-1.0112zm-211.929-13.1444h-4.449c-.809 0-1.415.6067-1.415 1.4156v16.7844l-.405-.6067c-2.831-3.8422-6.4709-5.6622-11.122-5.6622-7.4822 0-15.1667 5.8644-15.1667 16.9867v.2022c0 10.92 7.6845 16.9866 15.1667 16.9866 4.4489 0 8.089-2.0222 11.122-6.0666l.405-.6067v4.6511c0 .8089.606 1.4156 1.415 1.4156h4.449c.809 0 1.416-.6067 1.416-1.4156v-42.4666c-.203-1.0111-.809-1.6178-1.416-1.6178zm-25.2777 28.9178c0-6.4711 4.0445-10.92 9.7067-10.92s9.707 4.6511 9.707 10.7177v.2023c0 6.0666-4.247 10.7177-9.707 10.7177s-9.7067-4.6511-9.7067-10.7177zm48.5337-16.9867c-9.707 0-17.391 7.4822-17.391 16.9867v.2022c0 9.5044 7.482 16.7844 17.188 16.7844 9.707 0 17.391-7.4822 17.391-16.9866v-.2023c.203-9.5044-7.482-16.7844-17.188-16.7844zm0 27.7044c-5.865 0-10.314-4.6511-10.314-10.7177v-.2023c0-6.2688 4.247-10.7177 10.111-10.7177 5.865 0 10.314 4.6511 10.314 10.92v.2022c0 6.0666-4.247 10.5155-10.111 10.5155zm35.995-11.3244 9.909-13.7511c.202-.4044.404-1.0111 0-1.4156-.202-.4044-.607-.8088-1.213-.8088h-4.045c-.404 0-.809.2022-1.213.6066l-7.28 10.7178-7.28-10.5156c-.202-.4044-.607-.6066-1.213-.6066h-4.247c-.607 0-1.011.2022-1.213.8089-.203.4044-.203 1.0111 0 1.4155l9.908 13.7511-10.313 14.3578c-.202.4044-.404 1.0111 0 1.4155.202.4045.607.8089 1.213.8089h4.045c.404 0 .809-.2022 1.213-.6066l7.685-11.3245 7.886 11.3245c.203.4044.607.6066 1.214.6066h4.246c.607 0 1.011-.2022 1.214-.8089.202-.4044.202-1.0111 0-1.4155zm-100.9086-7.28c-.2023-1.82-.2023-4.2467.8088-7.28.8089-2.6289 2.6289-5.2578 4.6511-7.28 2.0223-2.0222 4.8534-3.4378 7.8867-4.0444 2.8311-.6067 5.2578-.6067 7.0778-.4045.2022 0 .4044.2023.6066.2023v.8088s-.4044.2023-.6066.2023c-4.0445.2022-8.2911 2.4266-12.3356 6.2688-3.8422 3.4378-6.4711 8.0889-6.8755 11.9311 0 .2023-.2022.4045-.2022.6067-.2023 0-.6067 0-.8089-.2022s-.2022-.4045-.2022-.8089zm-10.1111-4.4489c-.2023-2.4266-.2023-5.6622 1.0111-9.7066 1.0111-3.4378 3.4377-7.0778 6.2688-9.7067 2.6289-2.6289 6.4712-4.6511 10.5156-5.46 3.8422-.8089 7.0778-.8089 9.5044-.6067.4045 0 .6067.2023.8089.4045s.2022.8089.2022 1.0111c-.2022.2022-.4044.2022-.8088.2022-5.2578.4045-10.92 3.2356-16.38 8.2911-5.0556 4.6511-8.4934 10.7178-9.3022 15.7733 0 .4045-.2023.6067-.4045.8089-.2022.2023-.8089 0-1.0111-.2022s-.4044-.4044-.4044-.8089zm130.0287-13.9533c-2.022 0-3.64 1.6178-3.64 3.64s1.618 3.64 3.64 3.64 3.64-1.6178 3.64-3.64c-.202-2.0222-1.82-3.64-3.64-3.64zm70.778 0c-2.022 0-3.64 1.6178-3.64 3.64s1.618 3.64 3.64 3.64 3.64-1.6178 3.64-3.64-1.618-3.64-3.64-3.64z" fill="#000"/></svg>