<svg fill="none" height="70" viewBox="0 0 190 70" width="190" xmlns="http://www.w3.org/2000/svg"><path d="m144.772 13c4.307 0 7.297 4.2925 5.802 8.3369l-11.716 31.626c-.899 2.4293-3.215 4.037-5.801 4.0371h-87.8296c-4.3065 0-7.2953-4.2996-5.8008-8.3369l11.7149-31.626c.8995-2.4293 3.2157-4.0369 5.8007-4.0371zm-56.3659 42.9092h44.6509c2.125-.0001 4.045-1.3388 4.782-3.3291l11.715-31.626c.587-1.5865.375-3.2934-.595-4.6816-.971-1.3883-2.494-2.1885-4.187-2.1885h-40.869zm27.9139-24.9248c3.995 0 7.111 3.4771 7.112 8.5342v.0644c-.001 5.2342-3.145 8.7187-7.055 8.7188-1.877 0-3.131-.6089-4.087-1.4092-.347-.2904-.878-.0354-.878.4179v4.9014c0 .2975-.242.5381-.539.5381h-5.786c-.298 0-.539-.2406-.539-.5381v-20.2861c0-.2974.241-.5381.539-.5381l.007-.0068h5.787c.297.0002.538.2407.538.538v.1836c0 .4675.552.716.899.4043.942-.8428 2.132-1.5224 4.002-1.5224zm15.08.3965c.297.0002.538.2409.538.538v15.4483c0 .2971-.241.5379-.538.5381h-5.794c-.297 0-.539-.2409-.539-.5381v-15.4483c0-.2973.242-.538.539-.538zm-74.6843-5.6309c-.2973.0002-.5381.2407-.5381.5381v21.0156c.0002.2972.2409.5379.5381.5381h5.7871c.2973 0 .5378-.2408.5381-.5381v-8.1455c0-1.4237.9427-2.2383 1.9697-2.2383 1.0269.0002 1.877.8147 1.877 2.2383v8.1455c.0002.2973.2407.5381.538.5381h5.794c.2973 0 .5378-.2408.5381-.5381l-.0069-.0078v-10.3555c-.0001-3.7183-2.1816-6.0204-5.6591-6.0205-1.7423 0-3.1166.7014-4.1436 1.6221-.3471.3187-.9072.0849-.9072-.3897v-5.8642c0-.2975-.2406-.5381-.5381-.5381zm19.5781 5.5664c-.2975 0-.5381.2416-.5381.5391v15.4482c.0003.2973.2408.5381.5381.5381h5.794c.2972-.0001.5378-.2409.538-.5381v-15.4482c0-.2975-.2406-.539-.538-.5391zm37.7312 5.3193c-1.572 0-2.755 1.3035-2.756 2.9678v.0645c.001 1.636 1.184 2.9677 2.756 2.9677 1.573 0 2.755-1.3034 2.755-2.9677v-.0645c0-1.6642-1.183-2.9677-2.755-2.9678zm-38.3826-14.1582c.0003.2973.2408.5381.5381.5381h2.6563v-1.8349h-3.1944zm3.9092.5381h2.6563c.2973 0 .5378-.2408.5381-.5381h.0078v-1.2968h-3.2022zm48.6114 0h-2.656c-.298 0-.538-.2407-.538-.5381v-1.2959h3.194zm3.917-.5381c0 .2974-.241.538-.538.5381h-2.663v-1.834h3.201zm-3.91-2.0185h-3.201v-1.2969c0-.2973.24-.538.538-.5381h2.663zm3.372-1.835c.297.0002.538.2408.538.5381v1.2969h-3.194v-1.835zm-55.3683 0c-.2974 0-.539.2407-.5391.5381h-.0068v1.2959h3.2012v-1.834zm3.3711 1.834h3.1943v-1.2959c-.0001-.2974-.2407-.538-.5381-.5381h-2.6562z" fill="#000"/></svg>