<svg xmlns="http://www.w3.org/2000/svg" viewBox="0 0 190 70" height="70" width="190"><path d="M140.5,28.3c-1.3,0-2.9,0.2-4.3,0.7c-0.3,0.1-0.9,0.3-0.9,0.3l0.7,2.6l0.1,0c0,0,0.5-0.2,0.8-0.2c0,0,1.7-0.6,3.2-0.6 c1,0,1.7,0.2,2.2,0.6c0.4,0.4,0.6,1,0.7,1.9h-2.6c-1.9,0-3.4,0.4-4.4,1.2c-1,0.7-1.5,1.8-1.5,3.1c0,1.2,0.4,2.2,1.3,2.9 c0.8,0.7,1.7,1,3,1c0.1,0,0.1,0,0.2,0c0.8,0,1.9-0.1,2.9-0.5c0.3-0.1,0.7-0.3,1.1-0.6v1h2.9v-8.4c0-1.4-0.4-2.6-1.3-3.5 C143.6,28.8,142.2,28.3,140.5,28.3z M142.9,36.3v1.1c-0.3,0.4-0.9,0.8-1.5,1.1c-0.6,0.3-1.2,0.5-1.8,0.5c-1.6,0.1-2.5-0.4-2.5-1.4 c0-0.5,0.5-0.9,1-1.1c0.6-0.2,1.5-0.3,2.5-0.3H142.9z"/><path d="M126.8,28.3c-1.2,0-2.3,0.2-3.2,0.7v-0.7h-3.1v17.4h3.1V41c0.9,0.5,2,0.7,3.2,0.7c2,0,3.6-0.6,4.7-1.9 c1.2-1.3,1.8-2.9,1.8-4.9c0-2-0.6-3.6-1.8-4.9C130.3,28.9,128.8,28.3,126.8,28.3z M124.4,38.1c-0.3-0.3-0.6-0.7-0.8-1.2 c-0.2-0.5-0.3-1.1-0.3-1.9c0-0.7,0.1-1.4,0.3-1.9c0.6-1.4,1.7-2.1,3.2-2.1c0.9,0,1.7,0.3,2.4,0.9c0.8,0.7,1.2,1.7,1.2,3.1 c0,1.4-0.4,2.4-1.2,3.1c-0.3,0.3-0.7,0.5-1.1,0.7c-0.9,0.3-1.7,0.3-2.5,0C125.1,38.6,124.7,38.4,124.4,38.1z"/><path d="M157.1,24.4V29c-0.9-0.5-2-0.7-3.2-0.7c-2,0-3.6,0.6-4.7,1.9c-1.2,1.3-1.8,2.9-1.8,4.9c0,2,0.6,3.6,1.8,4.9 c1.2,1.2,2.8,1.9,4.7,1.9c1.2,0,2.3-0.2,3.2-0.7v0.7h3.1V24.4H157.1z M157.4,35c0,0.7-0.1,1.4-0.3,1.9c-0.6,1.4-1.7,2.1-3.2,2.1 c-0.9,0-1.7-0.3-2.4-0.9c-0.8-0.7-1.2-1.7-1.2-3.1c0-1.4,0.4-2.4,1.2-3.1c0.3-0.3,0.7-0.5,1.1-0.7c0.4-0.1,0.8-0.2,1.3-0.2 s0.8,0.1,1.3,0.2c0.4,0.1,0.8,0.4,1.1,0.7c0.3,0.3,0.6,0.7,0.8,1.2C157.3,33.7,157.4,34.3,157.4,35z"/><polygon points="119.1,30.6 117.1,28.2 110.4,33.5 110.4,24.4 107.3,24.4 107.3,41.7 110.4,41.7 110.4,37.4 112,36.2 116.9,41.8  119.2,39.8 114.5,34.2 	"/><path d="M84.4,28.3c-2.1,0-3.8,0.6-4.9,1.9c-1.2,1.2-1.8,2.9-1.8,4.9c0,2,0.6,3.6,1.8,4.9c1.2,1.2,2.9,1.9,4.9,1.9 c2.1,0,3.8-0.6,4.9-1.9c1.2-1.2,1.8-2.9,1.8-4.9c0-2-0.6-3.6-1.8-4.9C88.1,28.9,86.4,28.3,84.4,28.3z M86.8,38.1 c-0.4,0.3-0.8,0.5-1.2,0.7c-0.4,0.1-0.9,0.2-1.3,0.2c-0.4,0-0.9-0.1-1.3-0.2c-0.4-0.1-0.8-0.4-1.2-0.7c-0.8-0.7-1.2-1.7-1.2-3.1 c0-1.3,0.4-2.3,1.2-3.1c0.7-0.6,1.5-0.9,2.5-0.9c1,0,1.8,0.3,2.5,0.9c0.8,0.7,1.2,1.7,1.2,3.1C88,36.3,87.6,37.4,86.8,38.1z"/><path d="M99,28.3c-2.1,0-3.8,0.6-4.9,1.9c-1.2,1.2-1.8,2.9-1.8,4.9c0,2,0.6,3.6,1.8,4.9c1.2,1.2,2.9,1.9,4.9,1.9 c2.1,0,3.8-0.6,4.9-1.9c1.2-1.2,1.8-2.9,1.8-4.9c0-2-0.6-3.6-1.8-4.9C102.7,28.9,101,28.3,99,28.3z M101.4,38.1 c-0.4,0.3-0.8,0.5-1.2,0.7c-0.4,0.1-0.9,0.2-1.3,0.2c-0.4,0-0.9-0.1-1.3-0.2c-0.4-0.1-0.8-0.4-1.2-0.7c-0.8-0.7-1.2-1.7-1.2-3.1 c0-1.3,0.4-2.3,1.2-3.1C97.2,31.3,98,31,99,31s1.8,0.3,2.5,0.9c0.8,0.7,1.2,1.7,1.2,3.1C102.6,36.3,102.2,37.4,101.4,38.1z"/><path d="M67.5,35c0,0.6,0.1,1.4,0.5,2.1c0.3,0.5,0.7,0.9,1.2,1.3c0.6,0.4,1.3,0.6,2.1,0.6c0.4,0,0.7,0,1.1-0.1 c1-0.2,1.8-0.8,2.6-1.6l0.1-0.1l2,2c0,0-0.6,0.6-1.2,1.1c-1.3,0.9-2.8,1.6-4.7,1.6c-2.3,0-4.3-1-5.5-2.6c-0.9-1.2-1.2-2.7-1.2-4.1 s0.4-2.9,1.2-4.1c1.1-1.6,3.2-2.6,5.5-2.6c1.9,0,3.4,0.6,4.7,1.6c0.6,0.5,1.2,1.1,1.2,1.1l-2,2L75,32.8c-0.8-0.9-1.6-1.4-2.6-1.6 c-0.4-0.1-0.7-0.1-1.1-0.1c-0.8,0-1.5,0.2-2.1,0.6c-0.5,0.4-0.9,0.8-1.2,1.3C67.6,33.6,67.5,34.4,67.5,35z"/><path d="M51.3,35.4c-0.1,0-0.2,0-0.3,0l0.1-1c0.1-0.5-0.3-1-0.8-1c-0.5-0.1-0.9,0.3-1,0.8c0,0-0.4,3-0.7,5.8H36.9 c-0.5,0-0.9,0.4-0.9,0.9c0,0.5,0.4,0.9,0.9,0.9h11.5c-0.2,1.3-0.3,2.3-0.3,2.7c-1.3,0-11.9,0-13.6,0c0.2-1.4,0.9-7.2,1.1-9.3 c0,0-0.1,0-0.1,0c-2.1,0-3.9-1.7-3.9-3.8c0-2.1,1.7-3.8,3.9-3.8c1.2,0,2.3,0.6,3,1.4c0.1,0.1,0.2,0.1,0.3,0c0.2-1.9,1.8-3.4,3.8-3.4 c1.9,0,3.5,1.4,3.8,3.2c-0.1,0.2-0.3,0.5-0.4,0.8l1.6,0.9c0.5-1.5,2-2.6,3.7-2.6c2.1,0,3.9,1.7,3.9,3.8S53.5,35.4,51.3,35.4z"/><path d="M51.3,27.7c-1.7,0-3.1,1.1-3.7,2.6l-1.6-0.9c0.1-0.3,0.2-0.5,0.4-0.8c-0.3-1.8-1.9-3.2-3.8-3.2c-2,0-3.6,1.5-3.8,3.4 c0,0.2-0.2,0.2-0.3,0c-0.7-0.9-1.8-1.4-3-1.4c-2.1,0-3.9,1.7-3.9,3.8c0,2.1,1.7,3.8,3.9,3.8c0,0,0.1,0,0.1,0c-0.3,2.2-1,8-1.1,9.3 c1.7,0,12.2,0,13.6,0c0.1-0.4,0.2-1.4,0.3-2.7H36.9c-0.5,0-0.9-0.4-0.9-0.9c0-0.5,0.4-0.9,0.9-0.9h11.7c0.3-2.8,0.7-5.8,0.7-5.8 c0.1-0.5,0.5-0.9,1-0.8c0.5,0.1,0.8,0.5,0.8,1l-0.1,1c0.1,0,0.2,0,0.3,0c2.1,0,3.9-1.7,3.9-3.8C55.2,29.4,53.5,27.7,51.3,27.7z"/><path d="M42.7,16.5c-10.2,0-18.5,8.3-18.5,18.5c0,10.2,8.3,18.5,18.5,18.5S61.3,45.2,61.3,35C61.3,24.8,53,16.5,42.7,16.5z  M51.3,37.2c-0.2,0-0.4,0-0.6,0l-1,8.4c-0.1,0.5-0.4,0.8-0.9,0.8H33.5c-0.3,0-0.5-0.1-0.7-0.3c-0.2-0.2-0.2-0.5-0.2-0.7l1.1-8.6 c-2.2-0.8-3.7-2.9-3.7-5.4c0-3.1,2.5-5.7,5.7-5.7c0.8,0,1.6,0.2,2.4,0.5c1-1.6,2.8-2.6,4.7-2.6c2.3,0,4.3,1.4,5.2,3.5 c1-0.8,2.2-1.2,3.5-1.2c3.1,0,5.7,2.6,5.7,5.7C57,34.7,54.4,37.2,51.3,37.2z"/></svg>
