<?xml version="1.0" encoding="UTF-8"?>
<svg width="190px" height="70px" viewBox="0 0 190 70" version="1.1" xmlns="http://www.w3.org/2000/svg" xmlns:xlink="http://www.w3.org/1999/xlink">
    <title>logo-appsignal</title>
    <g id="logo-appsignal" stroke="none" fill="none" fill-rule="evenodd" stroke-width="1">
        <g id="Layer_2" transform="translate(0, 18)" fill="#000000">
            <path d="M183.027259,6.82054463 C180.101487,6.82054463 178.006291,9.43382167 175.852151,12.3398725 C174.51787,6.16993624 173.028191,0 168.296585,0 C163.564979,0 162.0753,6.16993624 160.757095,12.3398725 C158.613672,9.43382167 156.507759,6.82054463 153.581986,6.82054463 C151.722567,6.82054463 148.571735,8.1054962 148.571735,12.9037331 L148.571735,21.6381507 C148.571735,26.3496398 151.058106,27.5044697 152.547785,27.8948348 L152.547785,27.8948348 C155.119892,28.5725518 161.314385,29.1960515 168.285868,29.1960515 C175.257351,29.1960515 181.451843,28.5725518 184.018592,27.8948348 L184.018592,27.8948348 C185.513629,27.5044697 188,26.3496398 188,21.6381507 L188,12.9037331 C188,8.1054962 184.849168,6.82054463 182.98439,6.82054463 M168.296585,2.7108683 C171.131262,2.7108683 172.208332,8.3711613 173.719445,15.1808625 C172.063651,17.2357006 170.311402,18.9001738 168.296585,18.9001738 C166.281767,18.9001738 164.508085,17.2302789 162.900518,15.1808625 C164.309818,8.82658717 165.392247,2.7108683 168.323378,2.7108683 M151.261731,21.6381507 L151.261731,12.9037331 C151.261731,9.87298233 152.869298,9.5422564 153.581986,9.5422564 C155.645031,9.5422564 157.868832,13.028433 159.980104,15.8260491 C158.463632,22.1749027 156.882858,26.0243356 153.147943,25.2436056 C152.172686,24.9725187 151.261731,24.349019 151.261731,21.6381507 M158.613672,26.0514443 C160.221239,24.2351626 161.29295,21.3995943 162.096734,18.3959523 C163.827548,20.2284992 165.820931,21.611042 168.296585,21.611042 C170.772238,21.611042 172.760263,20.2284992 174.491077,18.3959523 C175.294861,21.3995943 176.350496,24.2351626 178.000932,26.0514443 C175.11267,26.3225311 171.634966,26.4797615 168.296585,26.4797615 C164.958204,26.4797615 161.475141,26.3225311 158.586879,26.0514443 M185.331438,21.6381507 C185.331438,24.349019 184.415125,24.9725187 183.445226,25.2436056 C179.694236,26.0460226 178.124179,22.1749027 176.629141,15.8260491 C178.745772,13.028433 180.964214,9.5422564 183.027259,9.5422564 C183.723871,9.5422564 185.352873,9.87298233 185.352873,12.9037331 L185.331438,21.6381507 Z" id="Shape" fill-rule="nonzero"></path>
            <path d="M0.605892863,28.2309824 C0.446160627,28.2289875 0.293805236,28.1626437 0.182566837,28.0466434 C0.0619603256,27.9247962 -0.00390655201,27.7581875 0.000179374239,27.5857958 C0.00350616889,27.4890457 0.0234591954,27.3936102 0.0593200192,27.3038655 L7.5023561,7.44946608 C7.55686508,7.23912468 7.67261884,7.05022381 7.83458665,6.90729242 C8.02318133,6.75276136 8.26218028,6.67537998 8.50440631,6.69042295 L11.183685,6.69042295 C11.425911,6.67537998 11.6649099,6.75276136 11.8535046,6.90729242 C12.0180052,7.05421776 12.1433142,7.24066851 12.2178865,7.44946608 L19.6234127,27.3038655 C19.6437735,27.3964582 19.6545488,27.4909446 19.6557606,27.5857958 C19.6598465,27.7581875 19.5939796,27.9247962 19.4733731,28.0466434 C19.3621347,28.1626437 19.2097793,28.2289875 19.0500471,28.2309824 L16.9494926,28.2309824 C16.7389804,28.2487744 16.5308101,28.1759416 16.376127,28.0303782 C16.2726976,27.9193984 16.1892733,27.7909516 16.1296333,27.6508566 L14.5810103,23.5953976 L5.07492965,23.5953976 L3.55309938,27.6508566 C3.49258117,27.7867536 3.40502172,27.9085674 3.29588862,28.0086912 C3.1339692,28.1528712 2.92157138,28.2251564 2.70644732,28.2092955 L0.605892863,28.2309824 Z M6.04482852,20.5429599 L13.6111114,20.5429599 L9.81189429,10.3392517 L6.04482852,20.5429599 Z" id="Shape" fill-rule="nonzero"></path>
            <path d="M22.7849615,34.0701927 C22.5969967,34.0780337 22.4144373,34.0055369 22.2819239,33.8704297 C22.1494104,33.7353225 22.0791594,33.5500606 22.0883491,33.3599452 L22.0883491,12.9525287 C22.0790364,12.7628654 22.1494338,12.5780632 22.2821467,12.4437856 C22.4148596,12.309508 22.5975083,12.2382805 22.7849615,12.247703 L24.6979665,12.247703 C24.8858664,12.2384049 25.0689694,12.3094842 25.2025022,12.4435601 C25.336035,12.5776359 25.407687,12.7623477 25.3999375,12.9525287 L25.3999375,14.242902 C25.9300274,13.5724426 26.5901837,13.0189013 27.3397352,12.616381 C28.2587452,12.1340316 29.2842388,11.8970294 30.3190931,11.9278205 C31.2986463,11.8978639 32.272999,12.0828246 33.1752041,12.4699942 C33.941047,12.8201024 34.6160878,13.3453441 35.1471532,14.0043456 C35.6906732,14.6887438 36.098261,15.4730275 36.34747,16.3140054 C36.6287385,17.2300211 36.7873361,18.1800617 36.8190231,19.1387302 C36.8190231,19.4857213 36.8511744,19.8489777 36.8511744,20.2230775 C36.8511744,20.5971773 36.8511744,20.9495902 36.8190231,21.3074248 C36.8070517,22.2565572 36.6590428,23.1989113 36.3796214,24.1050409 C36.1210629,24.935505 35.7142339,25.7109785 35.1793045,26.3930137 C34.6461614,27.0647112 33.9654304,27.6012363 33.1912798,27.9598956 C32.2867483,28.3605312 31.3061703,28.5548868 30.3190931,28.5291779 C29.3253011,28.56001 28.3391719,28.3440778 27.4469064,27.9002565 C26.703129,27.5072393 26.0551478,26.9516281 25.5499771,26.2737355 L25.5499771,33.3219931 C25.5563811,33.5123045 25.484606,33.6968021 25.3517104,33.8316363 C25.2068685,33.9684418 25.0138224,34.040711 24.8158547,34.0322406 L22.7849615,34.0701927 Z M29.472441,25.6448141 C30.2658446,25.6940014 31.0526318,25.4725544 31.7069594,25.0158926 C32.2435206,24.5993342 32.6492738,24.0343748 32.8751249,23.3893717 C33.1258735,22.6664458 33.27031,21.910174 33.3038095,21.1447727 C33.3413163,20.5507944 33.3413163,19.9549996 33.3038095,19.3610214 C33.27031,18.5956201 33.1258735,17.8393482 32.8751249,17.1164224 C32.6479141,16.4721443 32.2424191,15.9075444 31.7069594,15.4899014 C31.0555966,15.0240239 30.2692694,14.7912589 29.472441,14.8284496 C27.9389681,14.7223763 26.5210113,15.6552466 25.9947373,17.1164224 C25.7440188,17.7704621 25.5957661,18.4600991 25.5553356,19.1604171 C25.5339014,19.5218662 25.5231843,19.9122313 25.5231843,20.3315122 C25.5231843,20.7598294 25.5231843,21.1610379 25.5553356,21.529716 C25.5764609,22.204619 25.7313499,22.8683538 26.010813,23.4815412 C26.2932275,24.1032323 26.7332385,24.6382193 27.2861496,25.0321578 C27.9323845,25.4655161 28.6979379,25.6800443 29.472441,25.6448141 L29.472441,25.6448141 Z" id="Shape" fill-rule="nonzero"></path>
            <path d="M40.5700132,34.0703935 C40.3829749,34.07476 40.2023279,34.0012156 40.0705412,33.8668494 C39.9387546,33.7324833 39.8674536,33.5491482 39.8734007,33.3599452 L39.8734007,12.9525287 C39.8657587,12.7633327 39.9366945,12.5795299 40.0690277,12.4456364 C40.2013609,12.311743 40.3830219,12.2399709 40.5700132,12.247703 L42.4883767,12.247703 C42.6736353,12.242541 42.8531836,12.312863 42.9867225,12.4428855 C43.119618,12.5777197 43.1913932,12.7622173 43.1849891,12.9525287 L43.1849891,14.242902 C43.7158737,13.5711032 44.3780689,13.0173819 45.1301454,12.616381 C46.0470628,12.1335692 47.0709526,11.8965113 48.1041447,11.9278205 C49.0837376,11.8973468 50.0581989,12.0823281 50.9602558,12.4699942 C51.7277329,12.8198992 52.4045624,13.3451054 52.9375634,14.0043456 C53.4757626,14.6978591 53.8777466,15.4892215 54.1218046,16.3356923 C54.4004863,17.2523307 54.5590253,18.2020201 54.5933576,19.1604171 C54.5933576,19.5074083 54.5933576,19.8706646 54.5933576,20.2447644 C54.5933576,20.6188643 54.5933576,20.9712771 54.5933576,21.3291117 C54.5796508,22.27851 54.429836,23.2208701 54.1485973,24.1267278 C53.8923183,24.9581558 53.4852762,25.7340355 52.9482805,26.4147007 C52.4151374,27.0863982 51.7344064,27.6229232 50.9602558,27.9815825 C50.0558825,28.3827298 49.0751906,28.577108 48.088069,28.5508649 C47.0959767,28.5819136 46.1115315,28.3659471 45.2212409,27.9219434 C44.4749167,27.5305106 43.8248665,26.9746955 43.3189531,26.2954225 L43.3189531,33.34368 C43.3253571,33.5339914 43.253582,33.7184891 43.1206864,33.8533233 C42.9771839,33.9923105 42.7831851,34.0649364 42.5848307,34.0539275 L40.5700132,34.0703935 Z M47.2574927,25.6448141 C48.7766569,25.7836238 50.1887503,24.8408788 50.6601765,23.3731064 C50.9075625,22.65509 51.0501708,21.9044184 51.0835026,21.1447727 C51.1210094,20.5507944 51.1210094,19.9549996 51.0835026,19.3610214 C51.0517299,18.5958914 50.9091002,17.8396268 50.6601765,17.1164224 C50.1887503,15.6486501 48.7766569,14.7059051 47.2574927,14.8447148 C45.7221016,14.7361389 44.3012569,15.6694711 43.7744304,17.1326876 C43.5262571,17.787499 43.3780913,18.476732 43.3350287,19.1766823 C43.3350287,19.5236735 43.3082359,19.9140385 43.3082359,20.3477774 C43.3082359,20.7815164 43.3082359,21.1773031 43.3350287,21.5459812 C43.356154,22.2208842 43.511043,22.884619 43.7905061,23.4978064 C44.0729206,24.1194975 44.5129316,24.6544845 45.0658427,25.048423 C45.715631,25.4768225 46.4829793,25.685633 47.2574927,25.6448141 L47.2574927,25.6448141 Z" id="Shape" fill-rule="nonzero"></path>
            <path d="M65.4658704,28.5345997 C63.8966476,28.5820537 62.33476,28.299593 60.8789453,27.705074 C59.7663016,27.244621 58.7925544,26.4968199 58.0549856,25.5363793 C57.4339649,24.7150729 57.0733989,23.7226946 57.0207841,22.6899676 C57.0215473,22.5280947 57.0873109,22.3734894 57.202975,22.2616504 C57.3230434,22.1390728 57.4879551,22.0723304 57.6584524,22.0773114 L59.8018753,22.0773114 C59.9948272,22.0648997 60.1855518,22.1247214 60.337731,22.2453852 C60.462398,22.363768 60.5657524,22.5031987 60.6431688,22.6574372 C60.7897908,23.1379713 61.0385252,23.5802392 61.3719326,23.9532323 C61.7942792,24.428304 62.3185224,24.79923 62.90448,25.0375796 C63.7124895,25.3505821 64.5743921,25.4962335 65.4390776,25.4658968 C67.0395,25.4658968 68.2201688,25.1893882 68.9810839,24.6363711 C69.7186143,24.12536 70.1470644,23.2685807 70.1170981,22.3646634 C70.1397258,21.7830415 69.920045,21.2185129 69.5115811,20.808625 C68.957848,20.3274734 68.3173418,19.9592586 67.6253689,19.7242777 C66.7787169,19.3989735 65.6748541,19.0465606 64.3191391,18.6778826 C63.0254985,18.3476132 61.7686303,17.8843557 60.568149,17.2953397 C59.6598993,16.8684248 58.8837129,16.1992945 58.3229135,15.3597798 C57.7959243,14.4710611 57.5370389,13.4459235 57.578074,12.4103551 C57.5631774,11.3129782 57.8872644,10.2382738 58.5051044,9.33623041 C59.1748764,8.39200966 60.0889502,7.65287925 61.1468732,7.20006619 C62.4484355,6.64702237 63.8509866,6.37909566 65.2622452,6.41391439 C66.4186757,6.39778452 67.5693691,6.58113262 68.6649291,6.95608805 C69.5598469,7.25710124 70.390646,7.72614197 71.1137897,8.33863088 C71.7205668,8.85135372 72.2244533,9.47713481 72.5981101,10.1820213 C72.9185088,10.7781473 73.1016855,11.4397984 73.1339658,12.1175813 C73.128927,12.2732162 73.0679596,12.4216488 72.962492,12.535055 C72.8453332,12.6701785 72.6737614,12.7440061 72.4962975,12.7356593 L70.2778548,12.7356593 C70.1128031,12.7349079 69.950609,12.6920164 69.8063018,12.6109593 C69.6381527,12.5058918 69.5141544,12.3418284 69.4579955,12.1501117 C69.3036117,11.3660176 68.8286541,10.6845714 68.1505076,10.2741908 C67.2856238,9.73082991 66.2794609,9.46263013 65.2622452,9.50430424 C64.251024,9.45929768 63.2473412,9.69956778 62.3632657,10.1982865 C61.6236408,10.6561766 61.1963423,11.4916096 61.2540443,12.3669812 C61.233804,12.9385341 61.4248603,13.4971968 61.7899,13.933863 C62.2694836,14.4211307 62.8521292,14.791895 63.4939213,15.0182104 C64.5027216,15.4151514 65.5311546,15.7589882 66.5750917,16.0483403 C68.0009837,16.3737077 69.3932638,16.8348014 70.7333322,17.4254614 C71.6774794,17.82799 72.4933998,18.4865461 73.0910974,19.3284909 C73.6248113,20.2107842 73.8877621,21.2334772 73.846654,22.2670722 C73.8779872,23.4740269 73.510249,24.6570315 72.8017353,25.6285489 C72.0486259,26.6120162 71.0390176,27.3631279 69.8866801,27.7972435 C68.4732131,28.3267054 66.9725112,28.5770107 65.4658704,28.5345997 L65.4658704,28.5345997 Z" id="Path" fill-rule="nonzero"></path>
            <path d="M77.0403541,9.41755646 C76.8419997,9.42856531 76.6480009,9.35593945 76.5044984,9.2169522 C76.3713249,9.08452994 76.2993649,8.90152483 76.3062318,8.7127307 L76.3062318,6.771749 C76.2953512,6.57105594 76.3671307,6.37476984 76.5044984,6.22957534 C76.6445195,6.08349038 76.8393853,6.00462506 77.0403541,6.01270588 L79.3498923,6.01270588 C79.5500577,6.00919635 79.7431928,6.08736124 79.885748,6.22957534 C80.0319098,6.3700337 80.1101925,6.56804811 80.1000903,6.771749 L80.1000903,8.7127307 C80.1056406,8.90456419 80.0271992,9.08909061 79.885748,9.2169522 C79.7399669,9.35220955 79.547577,9.42423309 79.3498923,9.41755646 L77.0403541,9.41755646 Z M77.2225451,28.2309824 C77.0245773,28.2394529 76.8315313,28.1671837 76.6866893,28.0303782 C76.5537938,27.895544 76.4820186,27.7110463 76.4884227,27.5207349 L76.4884227,12.9525287 C76.4820186,12.7622173 76.5537938,12.5777197 76.6866893,12.4428855 C76.8320717,12.3075175 77.0252451,12.2371551 77.2225451,12.247703 L79.1998527,12.247703 C79.386844,12.2399709 79.568505,12.311743 79.7008382,12.4456364 C79.8331713,12.5795299 79.9041071,12.7633327 79.8964651,12.9525287 L79.8964651,27.5207349 C79.9028692,27.7110463 79.8310941,27.895544 79.6981985,28.0303782 C79.5658788,28.1629113 79.3859928,28.2353226 79.1998527,28.2309824 L77.2225451,28.2309824 Z" id="Shape" fill-rule="nonzero"></path>
            <path d="M90.2920663,34.991888 C89.0915681,35.0323599 87.8945639,34.8390965 86.7661356,34.4226056 C85.9701994,34.1134446 85.2419644,33.6492473 84.6227127,33.056328 C84.1481196,32.5995375 83.767504,32.0522855 83.5027742,31.4460722 C83.3222314,31.0364662 83.204767,30.6012951 83.154468,30.1556989 C83.1228469,29.9556104 83.1910508,29.7526454 83.3366589,29.6135253 C83.4768393,29.4682415 83.6721329,29.391179 83.8725147,29.4020775 L85.9409178,29.4020775 C86.1010689,29.3953124 86.2595976,29.4368272 86.3963951,29.5213557 C86.5521351,29.6641716 86.6575052,29.8545509 86.6964744,30.0635294 C86.84709,30.3917257 87.0264234,30.7056305 87.2323301,31.0014898 C87.4979834,31.3768059 87.8539638,31.6772648 88.2665316,31.8743894 C88.865929,32.1501597 89.5219142,32.2765825 90.1795366,32.2430675 C90.9183816,32.2643094 91.6545839,32.1447604 92.3497523,31.8906546 C92.9310695,31.6532524 93.40721,31.2100384 93.6893916,30.6436552 C94.0348542,29.8854065 94.1947605,29.0541326 94.1555861,28.220139 L94.1555861,26.1381921 C93.618461,26.7763076 92.9536564,27.2918773 92.2050713,27.6508566 C91.3021252,28.0700347 90.3150489,28.2705201 89.3221674,28.2364042 C88.3372546,28.2683788 87.3572403,28.0833846 86.4499807,27.6942305 C85.676825,27.3464405 84.9983939,26.8144107 84.4726731,26.1436138 C83.9422316,25.4490974 83.5409638,24.662819 83.2884319,23.8231106 C83.0086504,22.8966262 82.8606978,21.9345495 82.8490302,20.9658554 C82.827596,20.4128383 82.827596,19.8489777 82.8490302,19.2742736 C82.8635806,18.326182 83.0078462,17.3846981 83.2777148,16.4766575 C83.5174293,15.6135732 83.91953,14.8054127 84.461956,14.0965151 C84.9938933,13.416793 85.6743992,12.871166 86.4499807,12.5025246 C87.3522913,12.0942571 88.3341879,11.8977866 89.3221674,11.9278205 C90.3494564,11.8913261 91.3685591,12.1248221 92.2800911,12.6055376 C93.0389118,13.0173001 93.706364,13.5819134 94.241323,14.264589 L94.241323,13.0121678 C94.2323401,12.8117692 94.3038521,12.6162149 94.4395896,12.4699942 C94.5801611,12.3253093 94.7751766,12.2483565 94.9754454,12.2585464 L96.8884503,12.2585464 C97.0850251,12.2553515 97.2741729,12.3344587 97.4111462,12.4771532 C97.5481194,12.6198478 97.6207501,12.8134534 97.6118556,13.0121678 L97.6118556,27.8623043 C97.6410863,29.1509752 97.3885756,30.4302662 96.8723747,31.6087243 C96.3749703,32.6756937 95.5471884,33.5494021 94.5146094,34.0973014 C93.2030161,34.7475967 91.751331,35.0551502 90.2920663,34.991888 Z M90.2009708,25.4008359 C90.9854398,25.4383665 91.7600413,25.2114459 92.4033379,24.7556493 C92.9524803,24.3328075 93.3828799,23.7721112 93.6518817,23.1291283 C93.9231291,22.4916456 94.0809519,21.8106962 94.1180762,21.117664 C94.1180762,20.8519989 94.1502275,20.5104295 94.1502275,20.0875341 C94.1502275,19.6646386 94.1502275,19.3339127 94.1180762,19.0899345 C94.0803916,18.3917394 93.9226291,17.7055459 93.6518817,17.062205 C93.3887232,16.4157743 92.9572282,15.8536509 92.4033379,15.4356841 C91.7559997,14.9900474 90.983063,14.7693228 90.2009708,14.8067626 C89.4085261,14.7665383 88.6245334,14.9871988 87.9664524,15.4356841 C87.4171137,15.8467811 86.999633,16.4124993 86.7661356,17.062205 C86.517212,17.7854095 86.3745823,18.541674 86.3428096,19.306804 C86.3428096,19.8489777 86.3428096,20.3315122 86.3428096,20.8465772 C86.3775664,21.6060526 86.5201356,22.3565182 86.7661356,23.0749109 C86.99494,23.7360429 87.4127207,24.3134901 87.9664524,24.7339623 C88.6199603,25.1958586 89.4043217,25.4299448 90.2009708,25.4008359 Z" id="Shape" fill-rule="nonzero"></path>
            <path d="M101.882626,28.2309824 C101.684658,28.2394529 101.491612,28.1671837 101.34677,28.0303782 C101.215997,27.8941483 101.144593,27.7106034 101.148503,27.5207349 L101.148503,12.9525287 C101.144593,12.7626602 101.215997,12.5791153 101.34677,12.4428855 C101.492152,12.3075175 101.685326,12.2371551 101.882626,12.247703 L103.827782,12.247703 C104.015682,12.2384049 104.198785,12.3094842 104.332318,12.4435601 C104.465851,12.5776359 104.537503,12.7623477 104.529753,12.9525287 L104.529753,14.2754324 C105.090539,13.5844223 105.783038,13.0146717 106.566005,12.6001158 C107.516529,12.1215483 108.570037,11.8904727 109.6311,11.9278205 C110.782916,11.8947617 111.920283,12.1937379 112.910537,12.7898766 C113.826594,13.3620705 114.556865,14.1933113 115.011091,15.1808625 C115.524671,16.3332106 115.775567,17.5876599 115.745213,18.8513781 L115.745213,27.5261567 C115.748767,27.7191719 115.670798,27.9045603 115.530871,28.0357999 C115.38571,28.1720813 115.192888,28.2442667 114.995015,28.2364042 L112.894461,28.2364042 C112.708321,28.2407444 112.528435,28.168333 112.396115,28.0357999 C112.26322,27.9009657 112.191444,27.716468 112.197849,27.5261567 L112.197849,19.0086085 C112.262764,17.8994052 111.921264,16.8049174 111.238667,15.9344838 C110.528525,15.1755938 109.520147,14.7778288 108.489727,14.8501365 C107.454573,14.7982551 106.4461,15.1922178 105.713994,15.9344838 C104.966663,16.7740591 104.580956,17.8804294 104.642283,19.0086085 L104.642283,27.5207349 C104.647955,27.7141604 104.569629,27.9003988 104.42794,28.0303782 C104.283424,28.1677161 104.090148,28.2400712 103.892085,28.2309824 L101.882626,28.2309824 Z" id="Path" fill-rule="nonzero"></path>
            <path d="M123.740181,28.5345997 C122.767015,28.5475768 121.804103,28.3323107 120.926938,27.9056782 C120.132281,27.5234777 119.443698,26.9478608 118.922838,26.2303616 C118.428717,25.5403792 118.167527,24.7076449 118.177998,23.855641 C118.145737,22.5048637 118.785828,21.2279159 119.88202,20.4562122 C121.218585,19.5261663 122.764354,18.9501541 124.377849,18.7808955 L128.664695,18.1357089 L128.664695,17.3766658 C128.71682,16.5844304 128.454524,15.8038747 127.935931,15.2079711 C127.448303,14.6983279 126.63916,14.4435063 125.503146,14.4435063 C124.802903,14.4106496 124.107855,14.5798791 123.499046,14.9314626 C123.015501,15.2500319 122.641162,15.7121105 122.427334,16.2543663 C122.303404,16.5115552 122.039981,16.6693403 121.757515,16.6555748 L119.876661,16.6555748 C119.690253,16.671176 119.506369,16.6038806 119.372957,16.4712358 C119.259178,16.3332259 119.199994,16.1574447 119.206841,15.9778577 C119.259841,15.5736288 119.388994,15.1834409 119.587299,14.8284496 C119.865039,14.3070213 120.242021,13.8463608 120.69652,13.4730154 C121.281188,12.9962212 121.945375,12.6289979 122.657752,12.3886681 C123.580116,12.0711711 124.550575,11.9206741 125.524581,11.9440857 C126.597946,11.9140234 127.668152,12.0755295 128.686129,12.4211985 C129.451726,12.6838808 130.148102,13.119612 130.722381,13.6953066 C131.221062,14.2201829 131.599723,14.8494706 131.831602,15.5386971 C132.063892,16.2375207 132.18155,16.970106 132.179909,17.7073917 L132.179909,27.5207349 C132.185581,27.7141604 132.107255,27.9003988 131.965566,28.0303782 C131.82105,28.1677161 131.627774,28.2400712 131.429711,28.2309824 L129.484554,28.2309824 C129.29659,28.2388234 129.11403,28.1663266 128.981517,28.0312194 C128.849003,27.8961122 128.778752,27.7108503 128.787942,27.5207349 L128.787942,26.2303616 C128.487436,26.6449823 128.12602,27.0106595 127.71623,27.3147089 C127.230016,27.6922217 126.687323,27.9887308 126.108663,28.1930303 C125.342621,28.4357353 124.542737,28.5510903 123.740181,28.5345997 L123.740181,28.5345997 Z M124.592192,25.9213226 C125.321017,25.9307976 126.040827,25.7575712 126.687387,25.4171011 C127.32877,25.0612567 127.848245,24.5167512 128.177066,23.855641 C128.565294,23.0307872 128.749208,22.1227035 128.712922,21.2098335 L128.712922,20.4507904 L125.428126,20.9929641 C124.385071,21.0847025 123.374977,21.4087073 122.470203,21.941768 C121.877079,22.282714 121.50166,22.9109989 121.47887,23.6008194 C121.460339,24.0792155 121.62329,24.546677 121.934347,24.9074579 C122.251882,25.2562931 122.649387,25.5206975 123.091795,25.6773445 C123.573576,25.8484287 124.08169,25.9310527 124.592192,25.9213226 Z" id="Shape" fill-rule="nonzero"></path>
            <path d="M136.359583,28.2309824 C136.171619,28.2388234 135.989059,28.1663266 135.856546,28.0312194 C135.724032,27.8961122 135.653781,27.7108503 135.662971,27.5207349 L135.662971,7.11331841 C135.653781,6.92320307 135.724032,6.73794118 135.856546,6.60283397 C135.989059,6.46772676 136.171619,6.39522998 136.359583,6.40307091 L138.363684,6.40307091 C138.551649,6.39522998 138.734208,6.46772676 138.866721,6.60283397 C138.999235,6.73794118 139.069486,6.92320307 139.060296,7.11331841 L139.060296,27.5207349 C139.069486,27.7108503 138.999235,27.8961122 138.866721,28.0312194 C138.734208,28.1663266 138.551649,28.2388234 138.363684,28.2309824 L136.359583,28.2309824 Z" id="Path" fill-rule="nonzero"></path>
        </g>
    </g>
</svg>