<svg width="190" height="70" viewBox="0 0 190 70" fill="none" xmlns="http://www.w3.org/2000/svg"><path d="M40.216 18C50.4871 18.0001 58.6737 30.2569 60.3293 41.498C60.4205 42.1176 60.4666 42.4285 60.4006 43.0225C60.36 43.3854 60.1209 44.2079 59.9611 44.5361C59.6994 45.0734 59.5556 45.24 59.2697 45.5723C55.3088 50.1761 47.8935 51.956 40.216 51.9561C32.538 51.956 25.1229 50.1759 21.1613 45.5723C20.8754 45.2401 20.7326 45.0732 20.4709 44.5361C20.3111 44.2082 20.0721 43.3858 20.0314 43.0225C19.9654 42.4284 20.0104 42.1169 20.1017 41.4971C21.7577 30.2563 29.9445 18.0004 40.216 18ZM45.4514 26.0693C43.6739 26.0722 38.7081 34.8701 36.4299 34.8701C34.1514 34.8698 32.9665 30.8649 30.1652 30.8799C27.3913 30.896 24.5303 37.0683 23.175 40.4395C22.7949 41.3848 22.6058 41.859 22.7922 42.7402C22.9786 43.6212 23.2397 43.8749 23.7609 44.3818C25.7705 46.3361 30.3833 49.1786 40.216 49.1787C50.0642 49.1786 54.6757 46.3266 56.6799 44.3721C57.1956 43.8692 57.4545 43.6177 57.6349 42.7217C57.8153 41.8256 57.6218 41.3693 57.2365 40.459C56.3664 38.4029 54.8258 35.1989 52.6984 32.4531C50.295 29.3515 47.2291 26.0694 45.4514 26.0693ZM165.044 31.3135C167.828 31.3137 169.998 33.3243 169.998 37.1328V37.3135C169.998 41.0716 167.868 43.1824 165.044 43.1826C163.556 43.2363 162.16 42.4621 161.416 41.1719V46.7803H158.26V31.5449H161.416V33.3232C162.192 32.0662 163.567 31.3042 165.044 31.3135ZM108.625 31.2529C111.56 31.2529 114.173 32.9722 114.173 37.0322V37.9062H105.973C106.063 39.7953 107.088 40.9207 108.796 40.9209C110.253 40.9209 110.977 40.2876 111.168 39.333H114.183C113.821 41.785 111.861 43.1621 108.756 43.1621C105.279 43.1218 102.777 40.9707 102.777 37.333V37.1621C102.699 35.5833 103.289 34.0444 104.401 32.9209C105.513 31.7974 107.046 31.192 108.625 31.2529ZM120.867 31.2539C123.5 31.254 125.891 32.3993 126.213 35.665H123.198C123.158 35.0999 122.89 34.5752 122.457 34.21C122.024 33.8447 121.461 33.6699 120.897 33.7256C119.269 33.7258 118.174 34.9418 118.174 37.1221V37.293C118.174 39.574 119.179 40.7499 120.957 40.75C121.575 40.7941 122.184 40.59 122.651 40.1826C123.117 39.775 123.401 39.1971 123.44 38.5791H126.283C126.112 41.2823 124.153 43.1523 120.847 43.1523C117.541 43.1523 114.998 41.0512 114.998 37.333V37.1621C114.924 35.5806 115.516 34.0404 116.632 32.917C117.748 31.7935 119.285 31.1902 120.867 31.2539ZM86.1154 31.2734C88.8992 31.2734 90.8693 32.3992 90.8693 35.4844V42.9316H87.8547V41.5137C87.065 42.6309 85.7398 43.244 84.3771 43.1221C82.3673 43.122 80.5989 42.1162 80.5988 39.7246C80.599 37.0719 83.0308 36.0772 86.5178 36.0771H87.7941V35.6143C87.794 34.2679 87.3915 33.5547 85.9445 33.5547C85.4718 33.4925 84.9944 33.6304 84.6281 33.9355C84.2618 34.2409 84.0399 34.6859 84.0158 35.1621H81.0002C81.2013 32.4693 83.332 31.2736 86.1154 31.2734ZM132.524 31.2529C135.307 31.253 137.287 32.3788 137.287 35.4639V42.9316H134.272V41.5137C133.487 42.6146 132.183 43.2252 130.835 43.1221C128.765 43.122 127.027 42.1162 127.027 39.7246C127.027 37.0719 129.459 36.0772 132.936 36.0771H134.222V35.6152C134.222 34.2687 133.81 33.5343 132.373 33.5342C131.899 33.472 131.42 33.61 131.052 33.915C130.684 34.2201 130.459 34.6653 130.433 35.1426H127.418C127.619 32.4494 129.74 31.253 132.524 31.2529ZM96.9582 31.2529C99.4806 31.2529 101.37 32.1577 101.652 34.7705H98.757C98.7156 34.3456 98.4996 33.9574 98.1603 33.6982C97.8211 33.4391 97.3898 33.3326 96.9689 33.4043C95.9641 33.4043 95.3605 33.8767 95.3605 34.5801C95.3608 35.2831 95.9041 35.5844 97.5617 35.8154C100.406 36.2274 101.974 36.9412 101.974 39.3828C101.974 41.8248 100.194 43.1221 97.1896 43.1221C94.185 43.122 92.3461 41.7745 92.2355 39.3125H95.1701C95.3008 40.3174 95.8032 40.9209 97.1799 40.9209C98.3957 40.9209 98.9581 40.4683 98.9582 39.6846C98.9581 38.9009 98.2851 38.5791 96.6574 38.3379C93.6428 37.8756 92.4564 37.0116 92.4562 34.791C92.4562 32.5703 94.637 31.2532 96.9582 31.2529ZM73.9445 27.334C77.3311 27.334 79.0899 28.7308 79.09 31.3535V31.4346C79.1991 33.0146 78.127 34.4337 76.5773 34.7607C78.4385 34.9259 79.822 36.5557 79.6828 38.4189V38.5791C79.6827 41.4331 77.8134 42.9307 74.2258 42.9307H67.8342V27.334H73.9445ZM145.725 31.2432C147.11 31.132 148.402 31.9519 148.891 33.2529C149.741 31.9739 151.184 31.2163 152.72 31.2432C154.83 31.2433 156.458 32.5703 156.458 35.585V42.9307H153.332V35.9365C153.332 34.4795 152.679 33.8263 151.544 33.8262C150.93 33.7994 150.334 34.0414 149.913 34.4893C149.493 34.9371 149.288 35.5462 149.353 36.1572V42.9307H146.217V35.9365C146.217 34.4794 145.544 33.8262 144.439 33.8262C143.824 33.7998 143.228 34.0418 142.806 34.4893C142.384 34.9367 142.176 35.5452 142.237 36.1572V42.9307H139.092V31.5449H142.237V33.2529C142.936 31.9869 144.279 31.2129 145.725 31.2432ZM86.5783 37.9463C84.7495 37.9463 83.6839 38.338 83.6838 39.5537C83.6838 40.3777 84.1864 40.9208 85.342 40.9209C86.7287 40.9208 87.7941 40.1665 87.7941 38.9004V37.9463H86.5783ZM133.006 37.9463C131.177 37.9463 130.112 38.338 130.112 39.5537C130.112 40.3777 130.614 40.9208 131.76 40.9209C133.157 40.9209 134.222 40.1666 134.222 38.9004V37.9463H133.006ZM164.089 33.6953C162.501 33.6955 161.306 34.8417 161.306 37.1328V37.3027C161.306 39.5838 162.391 40.6894 164.11 40.6895C165.828 40.6894 166.803 39.4839 166.803 37.2734V37.1328C166.803 34.8214 165.677 33.6953 164.089 33.6953ZM71.3117 40.4492H73.6838C75.422 40.4491 76.2062 39.6648 76.2062 38.248V38.168C76.2062 36.731 75.422 35.9874 73.5129 35.9873H71.3117V40.4492ZM108.625 33.4238C107.209 33.4182 106.05 34.5507 106.023 35.9668H111.108C110.997 34.2483 110.102 33.4238 108.625 33.4238ZM71.3117 33.7656L73.382 33.7256C75.0701 33.7256 75.7433 33.1225 75.7433 31.7158V31.6455C75.7433 30.3391 75.0099 29.7461 73.3517 29.7461H71.3117V33.7656Z" fill="#000"/></svg>
