<?xml version="1.0" encoding="UTF-8"?>
<svg id="Layer_1" data-name="Layer 1" xmlns="http://www.w3.org/2000/svg" width="272" height="46" viewBox="0 0 272 46">
  <path d="M41.04.69c-.38-.38-.89-.62-1.43-.65-8.38-.52-13.81,3.72-16.69,7.71C20.03,3.77,14.6-.48,6.21.04c-.55.03-1.06.27-1.44.65C-.61,6.08-.02,14.57.05,15.4c.03.6.38,4.79,3.12,9.59,2.62,4.6,8.04,10.71,18.97,13.78.05.02.12.03.17.05.04.01.08.02.13.03.05.01.11.02.17.03.1.02.2.02.29.02s.19,0,.28-.02c.05,0,.1-.02.15-.02.05,0,.09-.02.14-.03.06-.02.13-.03.19-.05,20.2-5.68,21.96-21.81,22.08-23.32.05-.49.79-9.24-4.72-14.75h0ZM20.69,19.46l-.02-.02-5.98-6.45c-.83-.9-2.25-.96-3.15-.12-.9.84-.96,2.25-.12,3.15l9.25,9.97.02.02v7.63h-.02C5.36,28.05,4.53,15.68,4.5,15.14c0-.04,0-.08,0-.12,0-.07-.58-6.44,2.87-10.57h.27c8.8,0,12.3,6.65,13.04,8.32,0,.01.01.02.02.04v6.64ZM41.33,15.02s0,.08,0,.11c-.03.55-.86,12.91-16.18,18.49,0,0-.01,0-.02,0v-7.63l.02-.02,9.25-9.97c.83-.9.78-2.31-.12-3.15-.9-.83-2.31-.78-3.15.12l-5.98,6.45-.02.02v-6.64s.01-.03.02-.05c.74-1.65,4.28-8.31,13.05-8.31h.26c3.43,4.11,2.88,10.5,2.88,10.57h0Z"/>
  <path d="M82.75,1.82c.36,0,.67.13.92.39.26.26.39.57.39.92v3.45c0,.36-.13.67-.39.92-.26.26-.57.39-.92.39h-15.51v9.92h14.54c.36,0,.67.13.92.39s.39.57.39.92v3.45c0,.36-.13.67-.39.92-.26.26-.57.39-.92.39h-14.54v11.13c0,.36-.13.67-.39.92-.26.26-.57.39-.92.39h-3.94c-.36,0-.67-.13-.92-.39-.26-.26-.39-.57-.39-.92V3.14c0-.36.13-.67.39-.92.26-.26.57-.39.92-.39h20.76,0Z"/>
  <path d="M88.56,12.37c0-.36.13-.67.39-.92.26-.26.57-.39.92-.39h3.7c.36,0,.67.13.92.39s.39.57.39.92v12.35c0,1.94.41,3.5,1.24,4.67.82,1.17,2.18,1.75,4.06,1.75,1.72,0,3.03-.58,3.94-1.75.91-1.17,1.36-2.72,1.36-4.67v-12.35c0-.36.13-.67.39-.92.26-.26.57-.39.92-.39h3.69c.36,0,.67.13.92.39.25.26.39.57.39.92v22.66c0,.36-.13.67-.39.92-.26.26-.57.39-.92.39h-3.69c-.36,0-.67-.13-.92-.39-.26-.26-.39-.57-.39-.92v-1.12c-.75.75-1.67,1.42-2.77,2.02-1.1.6-2.43.9-3.99.9-1.98,0-3.61-.31-4.91-.92-1.3-.62-2.33-1.44-3.11-2.48-.78-1.04-1.33-2.24-1.65-3.62-.32-1.38-.49-2.83-.49-4.35v-13.07h0Z"/>
  <path d="M123.4,35.02c0,.36-.13.67-.39.92-.26.26-.57.39-.92.39h-3.7c-.36,0-.67-.13-.92-.39-.26-.26-.39-.57-.39-.92V3.14c0-.36.13-.67.39-.92.26-.26.57-.39.92-.39h3.7c.36,0,.66.13.92.39.26.26.39.57.39.92v31.89Z"/>
  <path d="M135.11,35.02c0,.36-.13.67-.39.92-.26.26-.57.39-.92.39h-3.69c-.36,0-.67-.13-.92-.39-.26-.26-.39-.57-.39-.92V3.14c0-.36.13-.67.39-.92.26-.26.57-.39.92-.39h3.69c.36,0,.67.13.92.39.26.26.39.57.39.92v31.89Z"/>
  <path d="M169.6,21.99c-.06.49-.1,1.05-.1,1.7s.03,1.22.1,1.7c.1,1,.32,1.86.68,2.58.36.71.8,1.29,1.34,1.73.53.44,1.12.76,1.77.97.65.21,1.31.31,1.99.31.81,0,1.49-.06,2.04-.19.55-.13,1.02-.31,1.41-.56.39-.25.72-.52,1-.82.28-.31.55-.66.8-1.05.19-.29.42-.58.68-.87.26-.29.57-.44.92-.44h3.7c.36,0,.67.13.95.39.27.26.4.57.37.92-.03.68-.27,1.51-.73,2.48-.45.97-1.16,1.91-2.11,2.79-.96.89-2.18,1.65-3.67,2.26s-3.27.92-5.35.92c-1.78,0-3.39-.3-4.81-.9-1.43-.6-2.67-1.41-3.72-2.43-1.05-1.02-1.88-2.2-2.48-3.55-.6-1.35-.96-2.76-1.1-4.25-.06-.58-.1-1.23-.1-1.94s.03-1.38.1-1.99c.1-1.49.45-2.92,1.07-4.28.62-1.36,1.44-2.55,2.48-3.57,1.04-1.02,2.28-1.83,3.72-2.43,1.44-.6,3.05-.9,4.84-.9,2.07,0,3.85.31,5.35.92,1.49.62,2.72,1.37,3.67,2.26.96.89,1.66,1.82,2.11,2.79.45.97.69,1.8.73,2.48.03.36-.09.67-.37.92-.28.26-.59.39-.95.39h-3.7c-.36,0-.66-.14-.92-.44-.26-.29-.49-.58-.68-.87-.26-.39-.53-.74-.8-1.05-.27-.31-.61-.58-1-.82s-.86-.43-1.41-.56-1.23-.19-2.04-.19c-.68,0-1.35.11-1.99.31-.65.21-1.24.54-1.77.97-.54.44-.98,1.01-1.34,1.73-.36.71-.58,1.57-.68,2.58Z"/>
  <path d="M203.06,16.89c-1.94,0-3.35.43-4.21,1.29-.86.86-1.29,2.26-1.29,4.21v12.64c0,.36-.13.67-.39.92-.26.26-.57.39-.92.39h-3.7c-.36,0-.66-.13-.92-.39-.26-.26-.39-.57-.39-.92V12.37c0-.36.13-.67.39-.92.26-.26.57-.39.92-.39h3.7c.36,0,.67.13.92.39.26.26.39.57.39.92v1.12c.84-.78,1.74-1.38,2.7-1.8.96-.42,2.21-.63,3.77-.63h.36c.36,0,.66.13.92.39.26.26.39.57.39.92v3.21c0,.36-.13.67-.39.92-.26.26-.57.39-.92.39h-1.33Z"/>
  <path d="M215.35,1.82c.36,0,.67.13.92.39.26.26.39.57.39.92v3.79c0,.36-.13.67-.39.92-.26.26-.57.39-.92.39h-4.18c-.36,0-.67-.13-.92-.39-.26-.26-.39-.57-.39-.92v-3.79c0-.36.13-.67.39-.92.26-.26.57-.39.92-.39h4.18ZM216.42,35.02c0,.36-.13.67-.39.92-.26.26-.57.39-.92.39h-3.7c-.36,0-.67-.13-.92-.39-.26-.26-.39-.57-.39-.92V12.37c0-.36.13-.67.39-.92.26-.26.57-.39.92-.39h3.7c.36,0,.67.13.92.39s.39.57.39.92v22.65h0Z"/>
  <path d="M235.41,36.82c-1,0-1.91-.1-2.7-.29s-1.49-.44-2.09-.73c-.6-.29-1.11-.61-1.53-.95-.42-.34-.76-.66-1.02-.95v10.35c0,.36-.13.67-.39.92-.26.26-.57.39-.92.39h-3.7c-.36,0-.67-.13-.92-.39-.26-.26-.39-.57-.39-.92V12.37c0-.36.13-.67.39-.92.26-.26.57-.39.92-.39h3.7c.36,0,.66.13.92.39.26.26.39.57.39.92v1.12c.26-.29.6-.61,1.02-.95.42-.34.93-.66,1.53-.95.6-.29,1.3-.54,2.09-.73.8-.19,1.69-.29,2.7-.29,1.62,0,3.09.31,4.4.95,1.31.63,2.43,1.48,3.35,2.53.92,1.05,1.65,2.27,2.19,3.65.54,1.38.83,2.81.9,4.3.03.49.05,1.05.05,1.7s-.01,1.22-.05,1.7c-.06,1.49-.37,2.92-.9,4.3-.54,1.38-1.26,2.59-2.19,3.65-.92,1.05-2.04,1.9-3.35,2.53-1.31.63-2.78.95-4.4.95h0ZM239.93,25.06c.1-.91.1-1.81,0-2.72-.19-2.11-.84-3.62-1.94-4.54-1.1-.92-2.45-1.38-4.03-1.38s-2.92.47-4.01,1.41c-1.09.94-1.71,2.29-1.87,4.03-.06.49-.1,1.1-.1,1.85s.03,1.36.1,1.85c.16,1.68.79,3.02,1.87,3.98,1.09.97,2.42,1.46,4.01,1.46s2.93-.46,4.03-1.38c1.1-.92,1.75-2.44,1.94-4.54Z"/>
  <path d="M250.57,10.95V3.14c0-.36.13-.67.39-.92.26-.26.57-.39.92-.39h3.69c.36,0,.67.13.92.39.26.26.39.57.39.92v7.92h6.27c.36,0,.67.13.92.39.26.26.39.57.39.92v3.21c0,.36-.13.67-.39.92-.26.26-.57.39-.92.39h-6.27v10.3c0,1,.27,1.81.8,2.41.54.6,1.53.9,2.99.9h2.97c.36,0,.67.13.92.39.26.26.39.57.39.92v3.21c0,.36-.13.67-.39.92-.26.26-.57.39-.92.39h-3.6c-3.05,0-5.39-.74-7.03-2.21-1.63-1.48-2.45-3.73-2.45-6.78V10.95Z"/>
  <path d="M154.02,29.12c0-.36-.12-.65-.34-.88-.23-.23-.63-.44-1.2-.63-.57-.19-1.33-.39-2.27-.58-.94-.19-2.15-.45-3.61-.78-1.43-.32-2.62-.73-3.56-1.22-.95-.49-1.7-1.06-2.27-1.71-.57-.65-.97-1.39-1.2-2.22-.23-.83-.34-1.73-.34-2.71s.23-1.93.69-2.88c.45-.94,1.11-1.78,1.97-2.51.86-.73,1.91-1.33,3.15-1.78s2.65-.69,4.25-.69,3.01.18,4.27.54c1.25.36,2.32.83,3.19,1.41.88.58,1.56,1.26,2.05,2.03.49.76.76,1.53.83,2.32.03.36-.09.67-.37.93-.27.26-.59.39-.95.39h-3.75c-.49,0-.85-.09-1.1-.27-.24-.18-.51-.38-.81-.61-.29-.23-.68-.43-1.17-.61-.49-.18-1.22-.27-2.19-.27s-1.84.14-2.59.44-1.12.82-1.12,1.56c0,.36.09.66.27.9.18.25.52.46,1.02.66.5.19,1.2.4,2.1.61.89.21,2.05.46,3.49.76,2.89.62,4.93,1.59,6.12,2.9,1.19,1.32,1.78,2.95,1.78,4.9,0,.97-.25,1.92-.73,2.85-.49.93-1.2,1.76-2.12,2.49-.93.73-2.07,1.32-3.42,1.76-1.35.44-2.87.66-4.56.66s-3.24-.2-4.56-.61-2.43-.94-3.34-1.59c-.91-.65-1.61-1.38-2.1-2.2-.49-.81-.75-1.61-.78-2.39-.03-.36.09-.67.37-.93.28-.26.59-.39.95-.39h3.75c.49,0,.85.12,1.1.34.25.23.52.49.83.78.31.29.74.55,1.29.78.55.23,1.38.34,2.49.34.49,0,.99-.03,1.51-.1s1-.17,1.44-.32c.44-.15.8-.34,1.1-.58.29-.24.44-.55.44-.9h0Z"/>
  <path d="M271.87,3.99c0,1.8-1.17,2.99-2.94,2.99s-2.94-1.2-2.94-2.99,1.18-2.99,2.94-2.99,2.94,1.2,2.94,2.99ZM266.54,3.99c0,1.47.96,2.46,2.4,2.46s2.41-.99,2.41-2.46-.96-2.46-2.41-2.46-2.4.99-2.4,2.46ZM269.11,2.48c.65,0,1.02.34,1.02.9,0,.41-.26.66-.58.77-.07.02-.07.04,0,.07.22.13.34.29.42.51l.29.66c.03.07,0,.11-.07.11h-.39s-.08-.02-.11-.07l-.2-.49c-.17-.37-.34-.56-.81-.56h-.27v1.03c0,.06-.03.09-.09.09h-.37c-.06,0-.09-.03-.09-.09v-2.83c0-.06.03-.09.09-.09h1.17,0ZM268.4,3.89h.52c.42,0,.68-.15.68-.46,0-.29-.21-.41-.49-.41h-.7v.88Z"/>
</svg>