<svg fill="none" height="70" viewBox="0 0 190 70" width="190" xmlns="http://www.w3.org/2000/svg"><g fill="#000"><path d="m54.5592 35.0001c0-1.4976 1.2403-2.7182 2.7628-2.7182s2.7629 1.2127 2.7629 2.7168c0 1.4976-1.2404 2.7169-2.7629 2.7169s-2.7628-1.2101-2.7628-2.7155zm7.4432-4.0281 6.6268-3.7669c.3045-.1698.5655-.408.7624-.6957s.3244-.6172.3725-.9625c.048-.3454.0154-.6971-.0954-1.0277-.1109-.3306-.2968-.631-.5433-.8775-2.121-2.133-4.784-3.6464-7.7018-4.3772-1.4726-.3675-2.9032.7074-2.9032 2.205v7.5337c.0078 1.7496 1.9346 2.8482 3.482 1.9688zm-5.8892-1.9688v-7.5258c0-1.4884-1.4306-2.5712-2.9045-2.205-2.9159.7348-5.5774 2.2477-7.7005 4.3772-1.0592 1.0578-.8111 2.8153.4962 3.5647l6.6268 3.7669c1.5553.8702 3.482-.2284 3.482-1.978zm7.0967 7.9735 6.6347 3.7669c1.3073.7402 2.9794.0735 3.3836-1.3519.8167-2.8668.8167-5.9047 0-8.7715-.4055-1.4306-2.0763-2.0895-3.3836-1.3492l-6.6347 3.7669c-.3514.1947-.6443.48-.8482.8262-.204.3462-.3115.7407-.3115 1.1425s.1075.7963.3115 1.1425c.2039.3462.4968.6328.8482.8276zm-10.5643 2.0501-6.6268 3.7669c-.3047.1698-.5659.408-.7629.6958-.1971.2879-.3247.6175-.3728.963s-.0153.6975.0956 1.0282c.111.3307.2972.6312.544.8777 2.1209 2.133 4.7839 3.6464 7.7017 4.3772 1.4726.3662 2.9033-.7087 2.9033-2.205v-7.5337c-.0158-1.7509-1.9425-2.8416-3.4821-1.9701zm-1.2062-5.9955-6.6347-3.7669c-1.3072-.7415-2.9793-.0748-3.3836 1.3493-.8166 2.8668-.8166 5.9046 0 8.7714.4056 1.4319 2.0764 2.0908 3.3836 1.3506l6.6347-3.7669c.3497-.1962.6408-.482.8434-.828s.3094-.7398.3094-1.1407c0-.401-.1068-.7948-.3094-1.1408s-.4937-.6318-.8434-.828zm7.0901 7.9734v7.5338c0 1.4884 1.4307 2.5712 2.9046 2.205 2.9163-.7346 5.5783-2.2475 7.7018-4.3772 1.0591-1.0579.8098-2.8153-.4962-3.5634l-6.6281-3.7669c-1.554-.8794-3.4821.21-3.4821 1.9687z"/><path clip-rule="evenodd" d="m57.3181 56c-11.7889 0-21.3517-9.3975-21.3517-21 0-11.5946 9.5628-21 21.3517-21 11.7968 0 21.3596 9.4054 21.3518 21 0 11.5946-9.555 21-21.3518 21zm18.9368-21c0-10.2677-8.4959-18.6165-18.9355-18.6165-10.4409 0-18.9289 8.3475-18.9289 18.6165 0 10.2677 8.488 18.6244 18.9289 18.6244 10.4396 0 18.9355-8.3567 18.9355-18.6244z" fill-rule="evenodd"/><path d="m107.411 34.5354h-3.682v10.6746h3.682zm-13.28 1.7588c0-.1799.0079-9.9672.0158-11.7338h-3.6816v11.7902c.0069 1.1679.2453 2.3229.7012 3.3982.456 1.0752 1.1206 2.0495 1.9553 2.8664.1812.1876.3807.3675.5867.5289 1.68 1.3834 3.7236 2.0829 6.0729 2.0829h2.1167v-3.612h-2.366c-2.9768-.0078-5.401-2.3927-5.401-5.3208zm38.618-6.9156c-1.258-1.2941-2.855-1.8152-4.591-1.8152-1.788 0-3.384.5696-4.609 1.8152-.91.9187-1.439 2.0987-1.439 2.0987s-.529-1.18-1.44-2.1c-1.233-1.2521-2.821-1.8139-4.607-1.8139-1.738 0-3.326.5211-4.591 1.8152-1.357 1.3991-2.036 3.4086-2.036 5.6871 0 3.9296 0 8.9013-.008 10.1128h3.657c.008-1.3821.048-7.5823.048-10.1128 0-3.133 1.738-4.2473 3.451-4.2473.381 0 .761.0656 1.125.1864.735.2126 1.538.92 1.894 1.4897.34.5447.563 1.1799.563 2.4648v10.2192h3.872v-10.2178c0-1.2863.223-1.9202.561-2.4649.356-.5696 1.159-1.2771 1.896-1.4897.363-.1208.744-.1864 1.124-.1864 1.713 0 3.45 1.1156 3.45 4.2473 0 2.5226.042 8.7294.05 10.1128h3.656c0-1.2115-.008-6.1753-.008-10.1128.016-2.2785-.653-4.288-2.018-5.6871zm21.285 6.8499c0-2.3756-.902-4.2551-2.473-5.9233-1.588-1.6931-3.978-2.7418-6.452-2.7418-2.623 0-4.882.9936-6.685 2.8639-1.621 1.676-2.267 3.6776-2.267 6.1425 0 2.474.993 4.8011 2.78 6.3787 1.877 1.6538 3.822 2.5069 6.635 2.5069 2.399 0 4.906-.9109 6.583-2.1157l-2.382-2.3415c-1.173.8058-2.704 1.3098-4.111 1.3098-2.026 0-4.318-1.2692-5.252-2.9531l13.584-2.352c.016-.2271.04-.546.04-.7744zm-14.014-.2598c.042-2.6369 1.54-5.1096 5.121-5.1096 3.161 0 4.649 2.0659 4.989 3.7104l-10.11 1.7483zm-34.448-3.5805c-2.209 0-2.763-1.2522-2.763-2.4242 0-1.1721.654-2.4242 2.763-2.4242s2.763 1.2521 2.763 2.4242c0 1.172-.554 2.4242-2.763 2.4242z"/></g></svg>