<?xml version="1.0" encoding="UTF-8"?>
<svg id="Layer_2" data-name="Layer 2" xmlns="http://www.w3.org/2000/svg" viewBox="0 0 158.02 62.12">
  <defs>
    <style>
      .cls-1 {
        fill: #231f20;
      }
    </style>
  </defs>
  <g id="Layer_1-2" data-name="Layer 1">
    <g>
      <path class="cls-1" d="M149.28,1.53c2.39,0,4.54,1.13,5.91,3.09,1.37,1.96,1.67,4.37.84,6.61l-16.54,44.65c-1.04,2.81-3.75,4.7-6.75,4.7h-63.04L91.58,1.53h57.7M149.28,0h-58.77l-23.01,62.12h65.24c3.65,0,6.92-2.27,8.19-5.7l16.54-44.65C159.58,6.06,155.36,0,149.28,0h0Z"/>
      <path class="cls-1" d="M25.28,0c-3.65,0-6.92,2.27-8.19,5.7L.55,50.35c-2.11,5.7,2.11,11.77,8.19,11.77h58.77L90.53,0H25.28ZM51.67,8.7c0-.42.34-.76.76-.76h3.75v2.59h-4.52v-1.83ZM49.02,48.43c0,.42-.34.76-.76.76h-8.18c-.42,0-.76-.34-.76-.76v-11.5c0-2.01-1.2-3.16-2.65-3.16s-2.78,1.15-2.78,3.16v11.5c0,.42-.34.76-.76.76h-8.17c-.42,0-.76-.34-.76-.76v-29.67c0-.42.34-.76.76-.76h8.17c.42,0,.76.34.76.76v8.28c0,.67.79,1,1.28.55,1.45-1.3,3.39-2.29,5.85-2.29,4.91,0,7.99,3.25,7.99,8.5v14.62ZM51.67,11.55h4.52v2.59h-3.75c-.42,0-.76-.34-.76-.76v-1.83ZM61.54,48.43c0,.42-.34.76-.76.76h-8.18c-.42,0-.76-.34-.76-.76v-21.81c0-.42.34-.76.76-.76h8.18c.42,0,.76.34.76.76v21.81ZM61.71,13.38c0,.42-.34.76-.76.76h-3.75v-2.59h4.52v1.83ZM61.71,10.53h-4.52v-2.59h3.75c.42,0,.76.34.76.76v1.83Z"/>
      <path class="cls-1" d="M93.26,25.95h8.17c.42,0,.76.34.76.76v.26c0,.66.78,1.01,1.27.57,1.33-1.19,3.01-2.15,5.65-2.15,5.64,0,10.04,4.91,10.04,12.05v.09c0,7.39-4.44,12.31-9.96,12.31-2.65,0-4.42-.86-5.77-1.99-.49-.41-1.24-.05-1.24.59v6.92c0,.42-.34.76-.76.76h-8.17c-.42,0-.76-.34-.76-.76v-28.64c0-.42.34-.76.76-.76ZM109.76,37.65v-.09c0-2.35-1.67-4.19-3.89-4.19s-3.89,1.84-3.89,4.19v.09c0,2.31,1.67,4.19,3.89,4.19s3.89-1.84,3.89-4.19Z"/>
      <rect class="cls-1" x="121.46" y="25.95" width="9.7" height="23.33" rx=".76" ry=".76"/>
      <g>
        <path class="cls-1" d="M130.6,14.14c.42,0,.76-.34.76-.76v-1.83h-4.52v2.59h3.75Z"/>
        <path class="cls-1" d="M121.32,11.55v1.83c0,.42.34.76.76.76h3.75v-2.59h-4.52Z"/>
        <path class="cls-1" d="M122.08,7.94c-.42,0-.76.34-.76.76v1.83h4.52v-2.59h-3.75Z"/>
        <path class="cls-1" d="M131.36,10.53v-1.83c0-.42-.34-.76-.76-.76h-3.75v2.59h4.52Z"/>
      </g>
    </g>
  </g>
</svg>