<svg xmlns="http://www.w3.org/2000/svg" width="164" height="42" viewBox="0 0 164 42"><g fill="#020202" fill-rule="evenodd" transform="translate(.1 .1)"><path fill-rule="nonzero" d="M8.75934579,21.9935748 C10.1875,21.9935748 11.5204439,21.7079439 12.6629673,21.2318925 C13.8054907,20.6606308 14.6623832,19.9941589 15.2336449,19.0420561 C15.8049065,18.0899533 16.1857477,17.0426402 16.1857477,15.8049065 C16.1857477,12.9485981 14.4719626,11.0443925 11.0443925,9.90186916 L7.14077103,8.66413551 C6.37908879,8.37850467 5.8078271,8.09287383 5.42698598,7.61682243 C5.04614486,7.14077103 4.8557243,6.66471963 4.8557243,6.09345794 C4.8557243,5.52219626 5.14135514,4.66530374 5.71261682,4.18925234 C6.2838785,3.71320093 7.14077103,3.42757009 8.09287383,3.42757009 C9.04497664,3.42757009 10.1875,3.71320093 11.0443925,4.28446262 C11.901285,4.8557243 12.4725467,5.71261682 12.9485981,6.75992991 L16.1857477,5.3317757 C15.614486,3.71320093 14.5671729,2.47546729 13.1390187,1.42815421 C11.7108645,0.476051402 10.0922897,0 8.09287383,0 C6.09345794,0 5.42698598,0.285630841 4.3796729,0.761682243 C3.33235981,1.23773364 2.47546729,1.99941589 1.90420561,2.95151869 C1.33294393,3.9036215 1.04731308,4.95093458 1.04731308,6.18866822 C1.04731308,7.42640187 1.42815421,8.75934579 2.28504673,9.80665888 C3.14193925,10.853972 4.3796729,11.6156542 5.99824766,12.0917056 L10.0922897,13.4246495 C10.853972,13.7102804 11.4252336,13.9959112 11.7108645,14.3767523 C12.0917056,14.7575935 12.2821262,15.3288551 12.2821262,15.9001168 C12.2821262,16.4713785 11.9964953,17.328271 11.3300234,17.8043224 C10.7587617,18.2803738 9.90186916,18.4707944 8.85455607,18.4707944 C7.80724299,18.4707944 6.56950935,18.0899533 5.52219626,17.4234813 C4.57009346,16.7570093 3.80841121,15.7096963 3.23714953,14.5671729 L6.76509731e-15,15.9953271 C0.380841121,17.1378505 0.952102804,18.1851636 1.80899533,19.1372664 C2.66588785,19.9941589 3.61799065,20.6606308 4.76051402,21.2318925 C5.90303738,21.7079439 7.23598131,21.9935748 8.56892523,21.9935748 L8.75934579,21.9935748 L8.75934579,21.9935748 Z" transform="translate(52.46 10.378)"/><path fill-rule="nonzero" d="M5.42698598,16.3761682 C7.42640187,16.3761682 9.04497664,15.7096963 10.2827103,14.3767523 L10.2827103,15.9953271 L13.8054907,15.9953271 L13.8054907,5.52219626 C13.8054907,4.47488318 13.5198598,3.42757009 12.9485981,2.66588785 C12.3773364,1.80899533 11.6156542,1.14252336 10.6635514,0.761682243 C9.7114486,0.285630841 8.56892523,0 7.33119159,0 C6.09345794,0 4.3796729,0.380841121 3.14193925,1.14252336 C1.90420561,1.90420561 1.04731308,2.85630841 0.666471963,4.09404206 L3.71320093,5.61740654 C3.99883178,4.95093458 4.47488318,4.3796729 5.04614486,3.9036215 C5.61740654,3.42757009 6.37908879,3.23714953 7.23598131,3.23714953 C8.09287383,3.23714953 8.75934579,3.42757009 9.33060748,3.9036215 C9.90186916,4.3796729 10.0922897,4.8557243 10.0922897,5.52219626 L10.0922897,5.99824766 L5.42698598,6.75992991 C3.61799065,7.04556075 2.28504673,7.61682243 1.33294393,8.47371495 C0.476051402,9.33060748 0,10.3779206 0,11.7108645 C0,13.0438084 0.476051402,14.1863318 1.42815421,14.948014 C2.38025701,15.7096963 3.71320093,16.1857477 5.3317757,16.1857477 L5.42698598,16.1857477 L5.42698598,16.3761682 Z M3.9036215,11.6156542 C3.9036215,10.5683411 4.66530374,9.80665888 6.09345794,9.52102804 L9.99707944,8.85455607 L9.99707944,9.52102804 C9.99707944,10.5683411 9.61623832,11.5204439 8.85455607,12.2821262 C8.09287383,13.0438084 7.14077103,13.4246495 5.99824766,13.4246495 C4.8557243,13.4246495 4.8557243,13.234229 4.47488318,12.9485981 C4.09404206,12.6629673 3.9036215,12.1869159 3.9036215,11.6156542 L3.9036215,11.6156542 Z" transform="translate(71.122 15.995)"/><path fill-rule="nonzero" d="M7.99766355,16.2809579 C9.61623832,16.2809579 10.9491822,15.9001168 12.1869159,15.2336449 C13.4246495,14.4719626 14.1863318,13.6150701 14.6623832,12.4725467 L11.6156542,10.9491822 C11.2348131,11.5204439 10.7587617,11.9964953 10.1875,12.3773364 C9.61623832,12.7581776 8.85455607,12.9485981 7.99766355,12.9485981 C7.14077103,12.9485981 5.90303738,12.567757 5.14135514,11.901285 C4.3796729,11.2348131 3.9036215,10.2827103 3.80841121,9.14018692 L15.1384346,9.14018692 C15.1384346,8.94976636 15.2336449,8.66413551 15.2336449,8.47371495 L15.2336449,7.61682243 C15.2336449,6.18866822 14.948014,4.95093458 14.3767523,3.80841121 C13.8054907,2.66588785 12.9485981,1.71378505 11.8060748,1.04731308 C10.6635514,0.380841121 9.33060748,0 7.71203271,0 C6.09345794,0 4.95093458,0.380841121 3.71320093,1.04731308 C2.57067757,1.71378505 1.61857477,2.76109813 0.952102804,3.9036215 C0.285630841,5.14135514 0,6.47429907 0,8.09287383 C0,9.7114486 0.285630841,10.9491822 0.952102804,12.1869159 C1.61857477,13.4246495 2.57067757,14.3767523 3.80841121,15.1384346 C5.04614486,15.9001168 6.37908879,16.1857477 7.99766355,16.1857477 L8.09287383,16.1857477 L7.99766355,16.2809579 Z M7.71203271,3.04672897 C8.66413551,3.04672897 9.52102804,3.33235981 10.1875,3.99883178 C10.853972,4.57009346 11.2348131,5.3317757 11.3300234,6.2838785 L3.9036215,6.2838785 C4.09404206,5.23656542 4.57009346,4.47488318 5.23656542,3.9036215 C5.90303738,3.33235981 6.75992991,3.04672897 7.71203271,3.04672897 L7.61682243,3.04672897 L7.71203271,3.04672897 Z" transform="translate(87.88 16.09)"/><polygon fill-rule="nonzero" points="0 21.803 3.713 21.803 3.713 0 0 0" transform="translate(106.16 10.188)"/><path fill-rule="nonzero" d="M8.28329439,16.1857477 C9.80665888,16.1857477 11.1396028,15.8049065 12.3773364,15.1384346 C13.6150701,14.4719626 14.6623832,13.4246495 15.3288551,12.2821262 C16.0905374,11.0443925 16.4713785,9.61623832 16.4713785,8.09287383 C16.4713785,6.56950935 16.0905374,5.14135514 15.3288551,3.9036215 C14.5671729,2.66588785 13.6150701,1.71378505 12.3773364,1.04731308 C11.1396028,0.380841121 9.7114486,0 8.18808411,0 C6.66471963,0 5.23656542,0.380841121 3.99883178,1.04731308 C2.76109813,1.71378505 1.71378505,2.76109813 1.04731308,3.9036215 C0.285630841,5.14135514 0,6.47429907 0,8.09287383 C0,9.7114486 0.380841121,11.0443925 1.04731308,12.2821262 C1.80899533,13.5198598 2.76109813,14.4719626 3.99883178,15.1384346 C5.23656542,15.8049065 6.66471963,16.1857477 8.18808411,16.1857477 L8.28329439,16.1857477 Z M8.28329439,12.6629673 C7.42640187,12.6629673 6.66471963,12.4725467 5.99824766,12.0917056 C5.3317757,11.7108645 4.8557243,11.1396028 4.47488318,10.4731308 C4.09404206,9.7114486 3.9036215,8.94976636 3.9036215,8.09287383 C3.9036215,7.23598131 4.09404206,6.37908879 4.47488318,5.71261682 C4.8557243,5.04614486 5.3317757,4.47488318 5.99824766,4.09404206 C6.66471963,3.71320093 7.42640187,3.42757009 8.28329439,3.42757009 C9.14018692,3.42757009 9.90186916,3.61799065 10.4731308,4.09404206 C11.1396028,4.47488318 11.6156542,5.04614486 11.9964953,5.71261682 C12.3773364,6.37908879 12.567757,7.23598131 12.567757,8.09287383 C12.567757,8.94976636 12.3773364,9.80665888 11.9964953,10.4731308 C11.6156542,11.1396028 11.1396028,11.7108645 10.4731308,12.0917056 C9.80665888,12.4725467 9.14018692,12.6629673 8.28329439,12.6629673 Z" transform="translate(112.824 16.186)"/><path fill-rule="nonzero" d="M5.8078271,15.9001168 C6.75992991,15.9001168 7.61682243,15.7096963 8.37850467,15.3288551 C9.14018692,14.948014 9.7114486,14.3767523 10.1875,13.7102804 L10.1875,15.614486 L13.7102804,15.614486 L13.7102804,3.38254865e-15 L9.99707944,3.38254865e-15 L9.99707944,9.2353972 C9.99707944,10.2827103 9.7114486,11.0443925 9.14018692,11.7108645 C8.56892523,12.2821262 7.80724299,12.567757 6.85514019,12.567757 C5.90303738,12.567757 5.14135514,12.2821262 4.57009346,11.7108645 C3.99883178,11.1396028 3.71320093,10.3779206 3.71320093,9.33060748 L3.71320093,3.38254865e-15 L0,3.38254865e-15 L0,9.61623832 C0,11.5204439 0.476051402,13.0438084 1.52336449,14.2815421 C2.57067757,15.4240654 3.99883178,15.9953271 5.8078271,15.9953271 L5.8078271,15.9953271 L5.8078271,15.9001168 Z" transform="translate(131.961 16.471)"/><path fill-rule="nonzero" d="M0.190420561,15.9953271 L3.9036215,15.9953271 L3.9036215,6.75992991 C3.9036215,5.71261682 4.18925234,4.95093458 4.76051402,4.3796729 C5.3317757,3.80841121 6.09345794,3.42757009 7.04556075,3.42757009 C7.99766355,3.42757009 8.75934579,3.71320093 9.33060748,4.3796729 C9.90186916,4.95093458 10.1875,5.8078271 10.1875,6.75992991 L10.1875,15.9953271 L13.9007009,15.9953271 L13.9007009,5.90303738 C13.9007009,4.76051402 13.6150701,3.71320093 13.1390187,2.85630841 C12.6629673,1.99941589 11.9964953,1.23773364 11.0443925,0.761682243 C10.1875,0.285630841 9.14018692,0 7.99766355,0 C6.85514019,0 6.18866822,0.190420561 5.3317757,0.571261682 C4.57009346,0.952102804 3.99883178,1.52336449 3.52278037,2.28504673 L3.52278037,0.380841121 L0,0.380841121 L0,15.9953271 L0.190420561,15.9953271 L0.190420561,15.9953271 Z" transform="translate(149.1 15.995)"/><path d="M20.5654206,41.2260514 C9.14018692,41.2260514 0,31.9906542 0,20.6606308 C0,9.33060748 9.14018692,-1.69127433e-15 20.5654206,-1.69127433e-15 C31.9906542,-1.69127433e-15 41.1308411,9.2353972 41.1308411,20.5654206 C41.1308411,31.8954439 31.8954439,41.1308411 20.5654206,41.1308411 L20.5654206,41.2260514 Z M29.6103972,34.2757009 L29.6103972,7.04556075 L25.9924065,7.04556075 L25.9924065,17.6139019 L24.2786215,17.6139019 L24.2786215,7.42640187 L20.6606308,7.42640187 L20.6606308,24.8498832 C17.6139019,22.8504673 15.7096963,19.708528 15.7096963,13.6150701 L15.7096963,9.80665888 L11.901285,9.80665888 L11.901285,13.7102804 C11.901285,19.8037383 10.1875,23.5169393 6.56950935,25.7067757 L8.75934579,28.5630841 C11.0443925,27.2301402 13.234229,24.3738318 13.8054907,21.8983645 C14.4719626,24.3738318 16.8522196,26.8492991 18.3755841,27.8966121 L20.5654206,24.8498832 L20.5654206,32.942757 L24.1834112,32.942757 L24.1834112,20.7558411 L25.8971963,20.7558411 L25.8971963,34.1804907 L29.6103972,34.1804907 L29.6103972,34.2757009 Z"/></g></svg>