<svg height="70" viewBox="0 0 190 70" width="190" xmlns="http://www.w3.org/2000/svg"><path d="m68.1998765 43.637977c-.1987398-.4844282-.3850583-.9936988-.5837981-1.4284421l-.9191714-2.0743463-.0372637-.0372637c-2.7326718-5.9621929-5.6516621-12.0237558-8.7445497-17.9859488l-.1242123-.2484247c-.3105309-.583798-.6210618-1.2297023-.9440139-1.8259216-.3974796-.7080104-.7825379-1.4657057-1.4160209-2.1861374-.6174596-.7538075-1.3946563-1.3611314-2.2753218-1.7781532-.8806656-.4170231-1.8429387-.6333392-2.8173846-.6333392-.974446 0-1.9367191.2163161-2.8173847.6333392-.8806655.4170218-1.6578622 1.0243457-2.2753218 1.7781532-.5837981.7204317-1.0185413 1.478127-1.4160209 2.1861374-.3105309.6459043-.6210617 1.2793873-.9440139 1.8631853l-.1242123.2484247c-3.0432027 5.962193-6.0118779 12.0237559-8.7445497 17.9859488l-.0745274.0745274c-.2732672.6459043-.5962193 1.316651-.9067489 2.0370826-.1987398.4347433-.3974796.9067502-.5962193 1.4284421-.5365569 1.3660875-.7078962 2.8484377-.4971324 4.3008527.2107645 1.4524151.7963574 2.8249616 1.699072 3.9821239.9027008 1.1572865 2.0913758 2.0593166 3.4488553 2.6171543 1.3574671.5579619 2.8369108.7526026 4.2924933.5646693 1.3954885-.1837101 2.7392302-.6485127 3.9499528-1.3663359 1.6147606-.9067501 3.167415-2.2234011 4.906388-4.1238501 1.7389729 1.900449 3.328891 3.2171 4.9063879 4.1362714 1.5170055.8903541 3.2349866 1.3818624 4.9933366 1.4285147 2.0363374.0083738 4.0068421-.7201317 5.5479448-2.0511913 1.5409785-1.3310595 2.5484649-3.1746193 2.8363891-5.1904616.3326407-1.4485644.2201043-2.9639552-.3229521-4.3474323zm-17.836894 2.0619251c-2.1364525-2.7326718-3.5276308-5.2417614-3.9996378-7.3906351-.1955102-.7963254-.2377424-1.6224617-.1242123-2.4345621.0869486-.633483.3229521-1.1924386.6459042-1.6644455.7452741-1.0806475 2.0495039-1.7513942 3.4779459-1.7513942.6783237-.0207435 1.3513062.1273176 1.958332.4308926.6070258.3034508 1.1292145.7529753 1.5196139 1.3080803.3229521.4968494.5589556 1.0433838.633483 1.6768668.1242124.7204317.0745274 1.5526544-.1242123 2.4345621-.472007 2.11161-1.8631853 4.645542-3.9872166 7.3906351zm15.8246539 1.8383428c-.1411053 1.0233856-.5479007 1.9919935-1.1800174 2.8093108-.6319925.8171931-1.4670721 1.4546509-2.4221409 1.8486524-.9440139.3974796-1.9873977.5092707-3.005939.3974796-.9936988-.1242124-1.9873976-.4471645-3.0059389-1.0433838-1.6911512-1.0452469-3.2117588-2.3438871-4.5089084-3.850583 2.6084594-3.2295211 4.1859563-6.1733539 4.7821756-8.7942346.2856884-1.2421235.3229521-2.3600347.1987397-3.3909972-.1551412-.9771786-.519456-1.9093923-1.0682262-2.7326718-.6265271-.8927142-1.4628489-1.6179901-2.4353074-2.1117342-.9724585-.4938683-2.051367-.7411751-3.1418273-.7203075-2.2979285 0-4.3474323 1.0682263-5.5895559 2.8196205-.5591543.821292-.9205253 1.7608343-1.055805 2.745093-.161476 1.0433837-.1242123 2.1985586.1987398 3.3909972.5962193 2.6208807 2.2109799 5.6019772 4.7821756 8.8190771-1.2750398 1.5355131-2.7992496 2.8455808-4.5089084 3.8754254-1.0309626.5962193-2.0122402.9067502-3.005939 1.0309626-1.5453383.1979945-3.1063646-.2220917-4.3437557-1.1687141-1.237391-.9466223-2.051131-2.3433902-2.2643415-3.8867287-.1242123-.9936988-.0372637-1.9873977.3602158-3.1053088.1242124-.3974796.3105309-.7949591.5092707-1.266966.2732672-.6459043.5962193-1.316651.9067502-1.9873977l.0496849-.0869486c2.6829868-5.9249293 5.6143984-11.9740709 8.657601-17.8990002l.1242124-.2484247c.3105309-.5962193.6210618-1.2297023.9440139-1.8259216.3229521-.633483.6707467-1.2421235 1.1179112-1.7389729.3870456-.4620451.8707286-.8336264 1.4168903-1.0885723.5461617-.2549582 1.1415115-.3870829 1.7443141-.3870829.6028025 0 1.1981523.1321247 1.744314.3870829.5461617.2549459 1.0298447.6265272 1.4168903 1.0885723.4347433.4968494.7949591 1.1054899 1.1179112 1.7389729.3105309.5962193.6210618 1.2421236.9440139 1.8259216l.1242124.2484247c3.0307814 5.9249293 5.9621929 11.9740709 8.6948647 17.8990002l.0372637.0372637c.3229521.6459042.5962193 1.3663358.9067502 1.9873976.1987398.4844282.3974795.8694865.5216919 1.2793873.2360035 1.1179111.3602158 2.11161.2360035 3.1053088zm17.2903596-2.11161c-.9359401.0136633-1.8630611-.1834617-2.7124252-.5769664s-1.5992341-.9732038-2.1939628-1.6961197c-1.3364007-1.5402332-2.0457775-3.5262645-1.9873977-5.5647134-.020495-2.0827928.7117368-4.1029825 2.0619251-5.6889258.6245397-.7321076 1.4019848-1.3183899 2.2775577-1.7174842.8755729-.3992185 1.8280332-.6015604 2.7903063-.5928656.9053839-.0247182 1.8023213.1811016 2.6062236.5983309.8040266.4171051 1.4886851 1.0319563 1.9896335 1.7865463l.1242124-1.9501339h3.6270007v15.0048523h-3.639422l-.1242123-2.1861375c-.516475.8057656-1.2304476 1.4660784-2.0739737 1.9182114-.8434019.452133-1.7885337.6811805-2.7454656.6654056zm.9440138-3.5773158c.7204317 0 1.3539147-.1987398 1.950134-.5589556.5465343-.3974795.9936988-.9191714 1.3414934-1.5526544.3105309-.633483.4720069-1.3911784.4720069-2.2358224.0484429-.7335981-.0944013-1.4671963-.4143724-2.1291239-.3200952-.6618034-.8065108-1.2293297-1.4115491-1.6469316-.5814381-.3622032-1.2526816-.5542355-1.9377128-.5542355-.6850311 0-1.3562747.1920323-1.9377127.5542355-.5465343.3974795-.9936988.9191714-1.3414934 1.5526544-.3284175.6985703-.4900177 1.464091-.4720069 2.2358224-.0484429.7335981.0944014 1.4671963.4143724 2.1291239.3200952.6618034.8065108 1.2293297 1.4115492 1.6469316.583798.3602158 1.217281.5589556 1.9252914.5589556zm13.8496774-15.8743388c0 .4347433-.0745274.8322228-.2732671 1.1551749-.1987398.3105309-.472007.5962193-.8322228.7949591-.3602158.1987397-.7452741.2732672-1.1427537.2732672-.3974795 0-.794959-.0745275-1.1551748-.2732672-.3407145-.1896599-.6271482-.4633245-.8322228-.7949591-.1924049-.3538437-.2866821-.7526523-.2732672-1.1551749 0-.4471644.0869487-.844644.2732672-1.1551749.1987398-.372637.4844282-.5962193.8322228-.794959.3602158-.1987398.7452741-.2856884 1.1551748-.2856884.395368-.0091048.7863885.0845389 1.1346799.2717766.3484156.1872377.6421779.4616601.8527178.7964496.180729.3621411.2702861.762962.2608459 1.1675961zm-4.22322 19.0044901v-14.9800098h3.9499529v15.0048523h-3.9623741zm14.5080028-11.0548994v.0496849c-.186318-.0869487-.434743-.1242124-.621062-.1614761-.248424-.0496849-.447164-.0496849-.683168-.0496849-1.10549 0-1.937712.3229521-2.484247.9936988-.596219.683168-.869486 1.6396031-.869486 2.8693054v7.3657925h-3.9623742v-15.0048523h3.6394222l.124212 2.2730861c.39748-.794959.869487-1.3911783 1.540233-1.8383428.667145-.4344948 1.452664-.6514938 2.248244-.6210618.285688 0 .558955.0248425.794959.0745274.124212.0372637.19874.0372637.273267.0745274zm1.589918 11.0548994v-21.1409425h3.949953v8.0738029c.558956-.7204316 1.192439-1.2793872 1.987398-1.7141305 1.258519-.6170869 2.688203-.7921021 4.05839-.4968494 1.370186.2952528 2.601007 1.043508 3.493721 2.1240313 1.339382 1.5434627 2.048883 3.5344625 1.987397 5.5771346.020496 2.0827928-.711736 4.1029825-2.061925 5.6889258-.624539.7321076-1.401984 1.31839-2.277557 1.7174842-.875573.3992186-1.828034.6015605-2.790307.5928656-.905383.0248425-1.802321-.1811016-2.606223-.5983309-.804027-.4171051-1.488685-1.0319562-1.989634-1.7865463l-.124212 1.950134-3.627001.0372637zm7.63906-3.1301513c.70801 0 1.341493-.1987398 1.937713-.5589556.546534-.3974795.993699-.9191714 1.341493-1.5526544.322952-.633483.472007-1.3911784.472007-2.2358224 0-.8322227-.149055-1.5899181-.472007-2.2234011-.326182-.6108763-.784525-1.1412631-1.341493-1.5526544-.581438-.3622032-1.252682-.5542355-1.937713-.5542355s-1.356275.1920323-1.937713.5542355c-.558955.3974795-.993699.9191714-1.353914 1.5526544-.328418.6985703-.490018 1.464091-.472007 2.2358224-.048443.7335981.094401 1.4671963.414372 2.1291239.320095.6618034.806511 1.2293297 1.411549 1.6469316.583798.3602158 1.217281.5589556 1.937713.5589556zm9.328348 3.1425725v-15.0048523h3.639422l.124212 1.950134c.45735-.7475099 1.106111-1.3592558 1.879209-1.7720134.772973-.4127577 1.642335-.6114975 2.517908-.5756001 1.001276-.0172655 1.985411.2609702 2.829309.8000518.844023.5390816 1.510298 1.3150362 1.915603 2.2307296.434743.9440139.670747 2.11161.670747 3.4158398v8.9929744h-3.962374v-8.4712826c0-1.0433837-.236004-1.8631853-.708011-2.4718258-.472006-.5962193-1.117911-.9191714-1.937712-.9191714-.59622 0-1.117911.1242123-1.577497.3974795-.434743.2856884-.794959.6459043-1.068226 1.1551749-.276249.514736-.413255 1.0928203-.39748 1.6768668v8.5954948zm15.551386 0v-21.165785h3.962374v8.073803c.536722-.7244065 1.23492-1.3137941 2.03907-1.7213348.804275-.4075407 1.692518-.6219313 2.594051-.6262787.93594-.0136633 1.863061.1835859 2.712425.5770906.849364.3933805 1.599234.9730796 2.193963 1.6959955 1.330314 1.5433385 2.034599 3.5283761 1.974977 5.5647134.021116 2.082917-.710495 4.1034793-2.061925 5.6889258-.62454.7321076-1.401985 1.3183899-2.277558 1.7174842-.875573.3992185-1.828033.6015604-2.790306.5928656-.905384.0248424-1.802322-.1811016-2.606224-.5983309-.804027-.4171051-1.488685-1.0319563-1.989634-1.7865463l-.111791 1.9501339zm7.676324-3.1425725c.720431 0 1.353914-.1987398 1.937713-.5589556.558955-.3974795.993698-.9191714 1.353914-1.5526544.310531-.633483.472007-1.3911784.472007-2.2358224.048443-.7335981-.094401-1.4671963-.414372-2.1291239-.320096-.6618034-.806511-1.2293297-1.411549-1.6469316-.581439-.3622032-1.252682-.5542355-1.937713-.5542355s-1.356275.1920323-1.937713.5542355c-.546534.3974795-.993699.9191714-1.341493 1.5526544-.346677.6923597-.509271 1.462352-.472007 2.2358224-.048443.7335981.094401 1.4671963.414496 2.1291239.319971.6618034.806387 1.2293297 1.411425 1.6469316.583798.3602158 1.180018.5589556 1.925292.5589556z"/></svg>