<svg xmlns="http://www.w3.org/2000/svg" width="190" height="70" viewBox="0 0 190 70"><g transform="translate(16 25)"><path d="M138.25,0.00850357666 L158,0.00850357666 L158,3.65658687 L143.516667,3.65658687 L143.516667,8.03428681 L152.733333,8.03428681 L152.733333,11.6823701 L143.516667,11.6823701 L143.516667,16.06007 L158,16.06007 L158,19.7081533 L138.25,19.7081533 L138.25,0.00850357666 Z M66.2722222,4.09435686 L66.2722222,15.7682234 C66.4185185,17.9570734 64.662963,19.7081533 62.4685185,19.8540767 C62.3222222,19.8540767 62.3222222,19.8540767 62.1759259,19.8540767 L49.3018519,19.8540767 C47.1074074,20 45.3518519,18.24892 45.2055556,16.06007 C45.2055556,15.9141467 45.2055556,15.9141467 45.2055556,15.7682234 L45.2055556,4.09435686 C45.2055556,1.90550689 46.8148148,0.154426908 49.0092593,0.00850357666 C49.1555556,0.00850357666 49.1555556,0.00850357666 49.3018519,0.00850357666 L62.1759259,0.00850357666 C64.3703704,0.00850357666 66.2722222,1.61366022 66.2722222,3.8025102 C66.4185185,3.94843353 66.4185185,3.94843353 66.2722222,4.09435686 Z M63.0537037,9.93129012 L59.3962963,3.65658687 L52.0814815,3.65658687 L48.5703704,9.93129012 L52.2277778,16.2059934 L59.5425926,16.2059934 L63.0537037,9.93129012 Z M132.398148,12.5579101 L136.640741,19.8540767 L131.081481,19.8540767 L126.838889,12.5579101 L120.694444,12.5579101 L120.694444,19.8540767 L115.427778,19.8540767 L115.427778,0.00850357666 L131.959259,0.00850357666 C134.153704,-0.137419755 135.909259,1.61366022 136.055556,3.8025102 C136.055556,3.94843353 136.055556,3.94843353 136.055556,4.09435686 L136.055556,8.61798014 C136.055556,10.6609068 134.446296,12.4119868 132.398148,12.5579101 Z M130.935185,4.96989685 C130.935185,4.24028019 130.35,3.8025102 129.764815,3.8025102 L120.840741,3.8025102 L120.840741,9.05575013 L129.764815,9.05575013 C130.496296,9.05575013 130.935185,8.47205681 130.935185,7.88836348 L130.935185,4.96989685 Z M113.087037,4.09435686 L113.087037,15.7682234 C113.087037,17.9570734 111.477778,19.7081533 109.283333,19.8540767 C109.137037,19.8540767 109.137037,19.8540767 108.990741,19.8540767 L96.1166667,19.8540767 C93.9222222,19.8540767 92.1666667,18.24892 92.0203704,16.06007 C92.0203704,15.9141467 92.0203704,15.9141467 92.0203704,15.7682234 L92.0203704,4.09435686 C91.8740741,1.90550689 93.6296296,0.154426908 95.8240741,0.00850357666 C95.9703704,0.00850357666 95.9703704,0.00850357666 96.1166667,0.00850357666 L108.990741,0.00850357666 C111.185185,0.00850357666 112.940741,1.61366022 113.087037,3.8025102 C113.087037,3.94843353 113.087037,3.94843353 113.087037,4.09435686 Z M109.868519,9.93129012 L106.211111,3.65658687 L98.8962963,3.65658687 L95.3851852,9.93129012 L99.0425926,16.2059934 L106.357407,16.2059934 L109.868519,9.93129012 Z M85.7296296,0.00850357666 L72.8555556,0.00850357666 C70.6611111,-0.137419755 68.9055556,1.61366022 68.7592593,3.8025102 C68.7592593,3.94843353 68.7592593,3.94843353 68.7592593,4.09435686 L68.7592593,15.7682234 C68.7592593,17.9570734 70.3685185,19.7081533 72.562963,19.8540767 C72.7092593,19.8540767 72.7092593,19.8540767 72.8555556,19.8540767 L85.7296296,19.8540767 C87.9240741,20 89.6796296,18.24892 89.8259259,16.06007 C89.8259259,15.9141467 89.8259259,15.9141467 89.8259259,15.7682234 L89.8259259,12.5579101 L84.9981481,12.5579101 L82.95,16.2059934 L75.6351852,16.2059934 L72.1240741,9.93129012 L75.7814815,3.65658687 L83.0962963,3.65658687 L85.1444444,7.30467015 L89.9722222,7.30467015 L89.9722222,4.09435686 C90.1185185,1.90550689 88.362963,0.154426908 86.1685185,0.00850357666 C86.0222222,0.00850357666 85.8759259,0.00850357666 85.7296296,0.00850357666 Z M39.5,12.5579101 L43.7425926,19.8540767 L38.1833333,19.8540767 L33.9407407,12.5579101 L27.7962963,12.5579101 L27.7962963,19.8540767 L22.6759259,19.8540767 L22.6759259,0.00850357666 L39.2074074,0.00850357666 C41.4018519,-0.137419755 43.1574074,1.61366022 43.3037037,3.8025102 C43.3037037,3.94843353 43.3037037,3.94843353 43.3037037,4.09435686 L43.3037037,8.61798014 C43.3037037,10.6609068 41.5481481,12.4119868 39.5,12.5579101 Z M38.037037,4.96989685 C38.037037,4.24028019 37.4518519,3.8025102 36.8666667,3.8025102 L27.7962963,3.8025102 L27.7962963,9.05575013 L36.7203704,9.05575013 C37.4518519,9.05575013 37.8907407,8.47205681 37.8907407,7.88836348 L38.037037,4.96989685 Z M20.6277778,4.09435686 L20.6277778,8.61798014 C20.7740741,10.8068301 19.0185185,12.5579101 16.8240741,12.7038334 C16.6777778,12.7038334 16.6777778,12.7038334 16.5314815,12.7038334 L5.26666667,12.7038334 L5.26666667,20 L0,20 L0,0.00850357666 L16.5314815,0.00850357666 C18.7259259,-0.137419755 20.4814815,1.61366022 20.6277778,3.8025102 C20.6277778,3.94843353 20.6277778,3.94843353 20.6277778,4.09435686 Z M15.3611111,4.96989685 C15.3611111,4.24028019 14.7759259,3.8025102 14.0444444,3.8025102 L5.26666667,3.8025102 L5.26666667,9.05575013 L14.1907407,9.05575013 C14.9222222,9.05575013 15.3611111,8.47205681 15.5074074,7.88836348 L15.3611111,4.96989685 Z"/><polygon points="77 7 75 10 77 13 81 13 83 10 81 7"/></g></svg>