<svg fill="none" height="70" viewBox="0 0 190 70" width="190" xmlns="http://www.w3.org/2000/svg"><path d="m39.2817 35.0044c-.0024 7.2541-5.8825 13.1343-13.1367 13.1367zm-13.1406-13.1455c5.3362.0001 9.9292 3.1812 11.9873 7.75l-17.3789 17.3789c-.7457-.3359-1.4551-.7399-2.1191-1.2031l10.7851-10.7842h-3.2744l-9.293 9.292c-2.3779-2.378-3.8485-5.6634-3.8486-9.292 0-7.2577 5.8838-13.1416 13.1416-13.1416zm44.6934 8.1435c1.9649 0 3.615.7275 4.6582 2.2559h.0488v-1.8916h2.5234v13.4404h-2.5234v-2.0869h-.0488c-.946 1.6013-2.6448 2.4268-4.5615 2.4268-3.9302-.0001-7.1328-2.9601-7.1329-6.8418 0-4.2943 3.0815-7.3028 7.0362-7.3028zm29.3545 0c3.954.0001 6.963 3.0567 6.963 6.9141 0 .3834 0 .7465-.059 1.166-.008.0542-.016.108-.026.1592h-11.1075c.5991 2.1957 2.357 3.6006 4.3995 3.6006 1.577-.0002 3.057-.8256 3.833-2.2569h2.523c-1.043 2.7657-3.566 4.5614-6.453 4.5616-3.7847 0-6.8426-3.3488-6.8426-6.9395.0003-4.2455 3.203-7.2051 6.7696-7.2051zm11.456.3663h2.818v2.2021h-2.818v7.5146c0 1.3188.639 1.686 1.354 1.753.05.0013.095.0028.133.0049.434.0232.774-.0431.982-.1114.296.6711.697 1.2863 1.193 1.8262-.875.5262-1.913.6251-2.697.5781-.378-.0197-.746-.0823-1.092-.1884-1.544-.4702-2.03-1.5797-2.205-2.0342h.012c-.133-.382-.206-.8139-.203-1.2949v-8.0479h-1.983v-2.2021h1.983v-4.5147h2.523zm24.547-.3663c2.963 0 5.677 1.8015 6.569 4.5645h-2.844c-.759-1.4182-1.936-2.2597-3.652-2.2598-2.645 0-4.416 2.0136-4.416 4.7549 0 2.6688 1.82 4.7803 4.367 4.7803 1.628 0 2.954-.824 3.688-2.2256h2.843c-1.118 2.8787-3.629 4.5302-6.531 4.5303-3.858 0-6.89-3.1062-6.89-6.9395 0-4.0514 2.935-7.205 6.866-7.2051zm14.072 0c1.965 0 3.615.7277 4.658 2.2559h.049v-1.8916h2.524v13.4404h-2.524v-2.0869h-.049c-.946 1.6012-2.644 2.4267-4.56 2.4268-3.93 0-7.133-2.9601-7.133-6.8418 0-4.2943 3.081-7.3027 7.035-7.3028zm19.773 0c2.472 0 4.574 1.1939 5.803 3.0313.458.6844.794 1.4585.984 2.293.103.4535.162.9252.175 1.4101.001.0597.001.1196.001.1797 0 .3607 0 .7033-.048 1.0918-.007.0555-.015.1124-.024.1699h-.002c-.003.0215-.006.0428-.01.0635h-11.108c.599 2.1956 2.357 3.6006 4.4 3.6006 1.379-.0001 2.684-.6323 3.509-1.749.118-.1596.227-.3289.324-.5079h2.523c-1.043 2.7658-3.567 4.5616-6.454 4.5616-3.311-.0001-6.066-2.5641-6.703-5.6104-.091-.435-.139-.8804-.139-1.3291 0-4.2453 3.203-7.2049 6.769-7.2051zm-48.045-4.1484c3.384 0 5.901 2.282 6.329 4.4863h-2.809c-.359-1.3887-1.724-2.2724-3.581-2.2724-2.17.0001-3.541 1.1975-3.541 2.6963-.008 1.6885 1.825 2.4025 3.203 2.7558l1.724.4483c2.24.5514 5.079 1.8278 5.079 5.0068 0 2.9896-2.386 5.1699-6.53 5.1699-3.735 0-6.155-1.8089-6.616-4.5283h2.806c.446 1.4836 1.985 2.1933 3.792 2.1934 2.266 0 3.912-1.1374 3.912-2.8604 0-1.5681-1.462-2.2327-3.348-2.7324l-2.085-.5694c-2.835-.7667-4.59-2.2731-4.59-4.7285 0-3.0411 2.714-5.0654 6.255-5.0654zm-69.4691-.001c3.4692 0 6.1708 2.64 6.1709 6.3926 0 3.383-2.7759 5.9614-6.1845 5.9961h-3.749v5.5654h-2.5108v-17.9541zm9.9971 17.9541h-2.5234v-17.9433h2.5234zm24.0186-13.8047c3.2267.0002 5.6045 2.0381 5.6045 5.75v8.0547h-2.5235v-7.3271c0-2.8385-1.1163-4.1729-3.3486-4.1729-2.2071.0002-3.5409 1.6256-3.541 4.1485v7.3515h-2.6924v-13.4404h2.5215v1.4307h.0488c.9946-1.2858 2.3781-1.795 3.9307-1.795zm75.4554 13.8047h-2.524v-17.9531h2.524zm-91.0873-11.5c-2.5228.0002-4.5849 2.1594-4.5849 4.8037 0 2.5232 2.062 4.7313 4.5849 4.7315 2.6208 0 4.6827-2.184 4.6827-4.7315-.0001-2.6201-1.8923-4.8037-4.6827-4.8037zm79.4303 0c-2.523 0-4.586 2.1593-4.586 4.8037 0 2.5233 2.063 4.7315 4.586 4.7315 2.62-.0002 4.682-2.1841 4.682-4.7315 0-2.62-1.891-4.8035-4.682-4.8037zm-101.5767 3.7354c.5884.0002 1.177-.0008 1.7656-.001.6507-.0001 1.3021.0006 1.9531.001 2.0944-.0111 3.8115-1.8605 3.8115-3.9639-.0002-2.2141-1.7276-4.0107-3.8301-4.0107h-3.7001zm51.5017-3.7354c-2.0034 0-4.007 1.5346-4.2976 3.7354h8.6436c-.289-2.1786-2.249-3.7351-4.346-3.7354zm69.848 0c-1.933.0001-3.867 1.4291-4.261 3.5069-.014.0752-.026.1516-.036.2285h8.643c-.289-2.1788-2.249-3.7354-4.346-3.7354z" fill="#000"/></svg>