<svg xmlns="http://www.w3.org/2000/svg" width="190" height="70" viewBox="0 0 190 70"><path d="M154.837999 5.60668524C152.389236 5.60668524 150.635635 7.75487465 148.832699 10.1437326 147.715955 5.0718663 146.469149 0 142.50897 0 138.54879 0 137.301984 5.0718663 136.198695 10.1437326 134.40473 7.75487465 132.642158 5.60668524 130.193395 5.60668524 128.63713 5.60668524 126 6.66295265 126 10.6072423L126 17.7871866C126 21.6601671 128.081 22.6094708 129.327806 22.9303621L129.327806 22.9303621C131.480565 23.4874652 136.665126 24 142.5 24 148.334874 24 153.519435 23.4874652 155.667709 22.9303621L155.667709 22.9303621C156.919 22.6094708 159 21.6601671 159 17.7871866L159 10.6072423C159 6.66295265 156.36287 5.60668524 154.80212 5.60668524M142.50897 2.22841226C144.88149 2.22841226 145.782957 6.88133705 147.047703 12.4791086 145.661865 14.1682451 144.195298 15.5364903 142.50897 15.5364903 140.822642 15.5364903 139.338135 14.1637883 137.992661 12.4791086 139.172194 7.25571031 140.078146 2.22841226 142.531394 2.22841226M128.251427 17.7871866 128.251427 10.6072423C128.251427 8.11587744 129.596901 7.84401114 130.193395 7.84401114 131.920087 7.84401114 133.781326 10.7097493 135.548383 13.0094708 134.279152 18.2284123 132.956102 21.3927577 129.830117 20.7509749 129.013862 20.5281337 128.251427 20.0155989 128.251427 17.7871866M134.40473 21.4150418C135.750204 19.9220056 136.647187 17.5910864 137.319924 15.1220056 138.768551 16.6284123 140.436939 17.7649025 142.50897 17.7649025 144.581 17.7649025 146.244904 16.6284123 147.693531 15.1220056 148.366268 17.5910864 149.249796 19.9220056 150.63115 21.4150418 148.213781 21.637883 145.303071 21.7671309 142.50897 21.7671309 139.714868 21.7671309 136.799674 21.637883 134.382305 21.4150418M156.766513 17.7871866C156.766513 20.0155989 155.999592 20.5281337 155.187823 20.7509749 152.048383 21.410585 150.734303 18.2284123 149.483012 13.0094708 151.254553 10.7097493 153.111307 7.84401114 154.837999 7.84401114 155.421038 7.84401114 156.784452 8.11587744 156.784452 10.6072423L156.766513 17.7871866ZM.524023715 23.9977969C.385874738 23.9961302.254105834 23.9407027.157898134 23.8437892.0535881539 23.7419909-.00337869288 23.6027961.000155136924 23.4587699.00303241012 23.3779391.0202893539 23.2982067.0513046097 23.2232287L6.48862655 6.63569056C6.53577019 6.45995894 6.63588314 6.30213998 6.77596561 6.18272666 6.9390771 6.05362229 7.14578216 5.98897331 7.35527824 6.0015411L9.67252876 6.0015411C9.88202485 5.98897331 10.0887299 6.05362229 10.2518414 6.18272666 10.3941144 6.30547677 10.5024915 6.46124874 10.5669875 6.63569056L16.9718679 23.2232287C16.9894775 23.3005861 16.9987968 23.3795256 16.9998449 23.4587699 17.0033787 23.6027961 16.9464118 23.7419909 16.8421019 23.8437892 16.7458942 23.9407027 16.6141253 23.9961302 16.4759763 23.9977969L14.6592519 23.9977969C14.4771844 24.0126614 14.2971423 23.9518126 14.1633603 23.8302003 14.0739064 23.7374812 14.0017545 23.6301692 13.9501732 23.5131256L12.6108024 20.1249556 4.38919758 20.1249556 3.07299929 23.5131256C3.02065839 23.626662 2.9449301 23.7284323 2.85054324 23.8120817 2.7105026 23.9325382 2.5268043 23.9929295 2.34074812 23.9796784L.524023715 23.9977969ZM5.22804227 17.5747688 11.7719577 17.5747688 8.4860965 9.04998816 5.22804227 17.5747688ZM19.5668779 27.9995058C19.4140987 28.0062328 19.2657131 27.944035 19.1580051 27.8281212 19.0502972 27.7122074 18.9931967 27.5532639 19.0006661 27.3901564L19.0006661 9.88182812C18.9930967 9.71910846 19.0503163 9.56055938 19.1581863 9.4453573 19.2660563 9.33015523 19.4145145 9.26904635 19.5668779 9.27713027L21.1217825 9.27713027C21.2745089 9.26915314 21.4233364 9.33013485 21.5318729 9.44516382 21.6404094 9.56019279 21.6986486 9.71866433 21.6923497 9.88182812L21.6923497 10.9888903C22.1232107 10.4136767 22.6597907 9.93877177 23.2690317 9.59343376 24.0160098 9.17960711 24.8495386 8.97627355 25.6906759 9.00269048 26.486864 8.97698951 27.2788251 9.13567462 28.0121441 9.46784267 28.6346269 9.76821437 29.183305 10.2188399 29.6149589 10.7842234 30.056736 11.3713956 30.3880264 12.0442636 30.5905853 12.7657717 30.8192025 13.5516577 30.9481118 14.366735 30.9738671 15.1892146 30.9738671 15.486912 31 15.7985639 31 16.1195189 31 16.440474 31 16.7428229 30.9738671 17.0498233 30.9641367 17.8641215 30.843834 18.6726043 30.6167182 19.4500086 30.40656 20.1624966 30.0758863 20.8278059 29.6410918 21.4129508 29.2077491 21.9892266 28.6544459 22.4495326 28.0252105 22.7572407 27.2900006 23.1009617 26.4929795 23.2677071 25.6906759 23.2456504 24.8829144 23.2721025 24.0813812 23.0868457 23.3561412 22.7060739 22.7515935 22.3688889 22.2249096 21.8922082 21.814303 21.3106174L21.814303 27.3575958C21.8195083 27.5208714 21.7611689 27.6791593 21.6531504 27.7948388 21.5354218 27.9122097 21.3785126 27.9742123 21.2176029 27.9669451L19.5668779 27.9995058ZM25.0025108 20.7710408C25.6473952 20.8132405 26.2869016 20.6232525 26.8187439 20.2314643 27.2548648 19.8740824 27.584664 19.3893814 27.7682375 18.8360077 27.9720478 18.2157811 28.0894469 17.5669457 28.1166755 16.9102777 28.1471613 16.4006803 28.1471613 15.8895244 28.1166755 15.379927 28.0894469 14.723259 27.9720478 14.0744235 27.7682375 13.4541969 27.5835589 12.9014452 27.2539695 12.4170527 26.8187439 12.0587404 26.2893114 11.6590456 25.6501788 11.4593474 25.0025108 11.4912547 23.7560926 11.4002502 22.6035669 12.2005965 22.1758075 13.4541969 21.9720216 14.0153234 21.8515207 14.6069902 21.8186585 15.2078207 21.8012366 15.5179221 21.7925256 15.8528317 21.7925256 16.2125494 21.7925256 16.5800196 21.7925256 16.9242322 21.8186585 17.2405357 21.8358293 17.8195616 21.9617242 18.3890059 22.1888739 18.9150836 22.4184225 19.448457 22.7760667 19.9074434 23.225477 20.2454188 23.7507414 20.617214 24.3729889 20.8012662 25.0025108 20.7710408L25.0025108 20.7710408ZM34.5683267 27.9998422C34.4158552 28.0035885 34.2685938 27.9404916 34.1611628 27.825213 34.0537318 27.7099345 33.995608 27.5526435 34.000456 27.3903181L34.000456 9.88191851C33.9942264 9.71959916 34.0520524 9.56190677 34.1599289 9.44703384 34.2678054 9.33216092 34.4158935 9.27058452 34.5683267 9.27721821L36.1321551 9.27721821C36.2831759 9.27278952 36.4295416 9.3331218 36.5384011 9.44467368 36.646736 9.56035373 36.7052463 9.71864221 36.7000258 9.88191851L36.7000258 10.9889852C37.1327969 10.4126201 37.672611 9.93755887 38.2856954 9.59352298 39.0331562 9.17929796 39.8678197 8.97591578 40.7100663 9.0027773 41.5086195 8.97663258 42.3029894 9.13533602 43.0383361 9.46793138 43.6639749 9.76812994 44.2157187 10.218727 44.6502151 10.7843174 45.0889491 11.3793125 45.4166419 12.0582563 45.6155952 12.78448 45.8427735 13.5709034 45.9720127 14.3856827 46 15.2079327 46 15.5056314 46 15.8172846 46 16.1382409 46 16.4591972 46 16.7615474 46 17.0685491 45.9888263 17.8830787 45.866699 18.6915699 45.6374364 19.4687441 45.4285206 20.182062 45.0967044 20.8477224 44.6589516 21.4316944 44.2243393 22.0079725 43.669415 22.4682804 43.0383361 22.7759897 42.3011011 23.1201511 41.5016521 23.2869166 40.6969616 23.2644014 39.888219 23.2910394 39.0857104 23.1057525 38.3599554 22.7248227 37.7515603 22.3889957 37.2216467 21.912138 36.8092317 21.3293605L36.8092317 27.3763635C36.8144522 27.5396398 36.7559419 27.6979283 36.647607 27.8136084 36.5306253 27.9328515 36.3724797 27.9951603 36.2107834 27.9857154L34.5683267 27.9998422ZM40.0198851 20.7711756C41.2582908 20.8902664 42.4094134 20.0814449 42.7937149 18.82218 42.9953811 18.2061628 43.1116338 17.5621294 43.1388055 16.9103967 43.1693807 16.4007972 43.1693807 15.8896392 43.1388055 15.3800398 43.1129047 14.7236018 42.9966346 14.07477 42.7937149 13.4543019 42.4094134 12.1950369 41.2582908 11.3862154 40.0198851 11.5053063 38.7682515 11.4121544 37.6099947 12.2129002 37.1805317 13.4682565 36.9782237 14.0300473 36.8574405 14.6213699 36.8223364 15.2218874 36.8223364 15.519586 36.8004952 15.8544969 36.8004952 16.2266202 36.8004952 16.5987435 36.8004952 16.9383059 36.8223364 17.2546107 36.8395575 17.833639 36.9658212 18.4030856 37.1936365 18.9291654 37.4238576 19.462541 37.7825497 19.9215292 38.2332766 20.2595061 38.7629767 20.6270483 39.3885105 20.8061959 40.0198851 20.7711756L40.0198851 20.7711756ZM56.025007 23.9955989C54.7196561 24.0363433 53.4204069 23.7938201 52.209394 23.2833607 51.2838464 22.8880117 50.4738392 22.245943 49.8602959 21.4213002 49.3437026 20.7161192 49.0437675 19.8640543 49 18.9773458 49.0006349 18.8383602 49.0553401 18.7056147 49.1515547 18.6095888 49.2514331 18.5043425 49.3886141 18.4470369 49.5304415 18.4513137L51.3134382 18.4513137C51.4739444 18.4406569 51.6325978 18.4920203 51.7591874 18.5956234 51.862891 18.6972678 51.948866 18.8169843 52.0132644 18.9494149 52.1352313 19.3620057 52.3421399 19.7417409 52.6194833 20.061996 52.9708104 20.4698968 53.4068998 20.7883772 53.8943259 20.9930263 54.566465 21.261773 55.2834348 21.3868306 56.0027195 21.3607832 57.3340237 21.3607832 58.3161577 21.1233705 58.9491215 20.6485451 59.5626328 20.2097865 59.9190371 19.4741481 59.8941098 18.6980367 59.9129325 18.1986509 59.7301921 17.7139416 59.3904132 17.3620083 58.9297928 16.9488872 58.3969907 16.6327347 57.8213761 16.430978 57.1170924 16.1516689 56.1988491 15.8490841 55.0711037 15.5325338 53.9949946 15.2489616 52.9494745 14.8512046 51.9508595 14.3454702 51.1953361 13.9789173 50.549669 13.404396 50.0831705 12.6835812 49.6447969 11.9205195 49.4294443 11.0403272 49.4635791 10.1511789 49.4511875 9.20896141 49.7207777 8.28621065 50.2347252 7.51170815 50.791872 6.70099181 51.5522401 6.06636787 52.4322686 5.67757855 53.5149673 5.2027302 54.6816732 4.97268594 55.8556223 5.00258161 56.8175938 4.98873237 57.7747929 5.14615667 58.6861295 5.46809674 59.4305629 5.72654935 60.1216594 6.12927189 60.7232032 6.65516032 61.227948 7.09538871 61.6471037 7.63268993 61.9579284 8.23791175 62.2244506 8.74975079 62.3768254 9.31785033 62.4036776 9.89980076 62.3994861 10.0334303 62.3487706 10.1608758 62.2610379 10.2582474 62.1635798 10.3742656 62.0208586 10.4376547 61.8732361 10.430488L60.0278345 10.430488C59.890537 10.4298429 59.7556166 10.3930159 59.6355752 10.3234195 59.4957012 10.2332077 59.3925538 10.0923414 59.3458383 9.92773167 59.2174148 9.25450153 58.8223235 8.66940572 58.2582103 8.31704932 57.5387606 7.85051479 56.7017886 7.62023608 55.8556223 7.65601784 55.0144425 7.61737481 54.1795334 7.82367285 53.4441192 8.25187721 52.8288657 8.64502567 52.4734193 9.36233587 52.5214185 10.1139377 52.5045817 10.6046781 52.663511 11.084351 52.9671676 11.4592764 53.3661071 11.8776488 53.8507782 12.1959903 54.38465 12.3903067 55.223816 12.7311238 56.0793133 13.0263451 56.9477077 13.2747854 58.1338295 13.5541488 59.2919915 13.9500479 60.4067213 14.4571939 61.1921059 14.8028085 61.8708256 15.3682506 62.3680177 16.091152 62.8119852 16.8486968 63.0307197 17.7267902 62.996524 18.614244 63.0225885 19.650546 62.716687 20.6662843 62.1273131 21.5004378 61.5008424 22.3448516 60.6610044 22.9897628 59.7024376 23.3624983 58.5266515 23.817099 57.2782994 24.0320133 56.025007 23.9955989L56.025007 23.9955989ZM65.5810633 7.91198587C65.4242947 7.92139959 65.2709686 7.8592969 65.157552 7.74044831 65.052299 7.62721346 64.9954256 7.47072499 65.0008528 7.30928631L65.0008528 5.64954444C64.9922534 5.47793093 65.0489841 5.31008583 65.157552 5.18592939 65.2682171 5.0610115 65.4222284 4.99357342 65.5810633 5.00048337L67.4063968 5.00048337C67.5645966 4.99748235 67.7172401 5.06432149 67.829908 5.18592939 67.9454263 5.30603594 68.0072967 5.47535892 67.9993125 5.64954444L67.9993125 7.30928631C68.0036991 7.47332396 67.9417033 7.6311133 67.829908 7.74044831 67.7146905 7.85610745 67.562636 7.91769509 67.4063968 7.91198587L65.5810633 7.91198587ZM65.7250571 23.9994281C65.5685942 24.0066712 65.4160211 23.9448735 65.3015458 23.8278905 65.1965124 23.7125932 65.1397852 23.5548284 65.1448467 23.3920924L65.1448467 10.934756C65.1397852 10.7720199 65.1965124 10.6142552 65.3015458 10.4989578 65.4164482 10.3832041 65.5691219 10.3230369 65.7250571 10.3320564L67.2878136 10.3320564C67.4356013 10.3254447 67.5791764 10.3868174 67.6837653 10.5013102 67.7883543 10.6158031 67.844418 10.7729737 67.8383782 10.934756L67.8383782 23.3920924C67.8434397 23.5548284 67.7867125 23.7125932 67.6816791 23.8278905 67.5771008 23.9412201 67.4349286 24.0031394 67.2878136 23.9994281L65.7250571 23.9994281ZM77.0556297 28.9933208C76.0810133 29.0266442 75.1092335 28.8675168 74.1931266 28.5245906 73.5469511 28.2700366 72.9557385 27.8878303 72.4530031 27.3996381 72.0677079 27.0235304 71.7587077 26.5729394 71.5437886 26.0738013 71.3972161 25.7365439 71.3018535 25.3782369 71.2610185 25.0113462 71.2353471 24.8465993 71.2907181 24.6794839 71.408929 24.5649365 71.5227335 24.4453142 71.6812813 24.3818632 71.8439599 24.3908367L73.523179 24.3908367C73.6531967 24.3852666 73.7818971 24.4194486 73.8929553 24.4890469 74.0193917 24.6066372 74.1049357 24.7633899 74.1365726 24.9354566 74.2588489 25.2056837 74.4044395 25.4641435 74.5716034 25.7077454 74.7872723 26.0167695 75.0762726 26.2641585 75.411213 26.426465 75.8978297 26.6535261 76.4303869 26.7576188 76.9642732 26.7300236 77.5640996 26.7475136 78.1617805 26.6490804 78.7261483 26.4398573 79.1980867 26.2443873 79.5846381 25.8794581 79.8137254 25.413115 80.0941869 24.7887955 80.2240057 24.1043492 80.1922023 23.4176636L80.1922023 21.7034503C79.7561409 22.2288557 79.2164237 22.6533605 78.6086899 22.9489334 77.8756393 23.2940722 77.074288 23.459146 76.2682238 23.4310559 75.468629 23.4573829 74.673011 23.3050641 73.9364584 22.9846462 73.3087771 22.6982862 72.7579974 22.2602287 72.3311945 21.7079144 71.9005591 21.1360702 71.5747926 20.4886719 71.3697762 19.7972809 71.1426375 19.0344412 71.0225232 18.2422958 71.0130509 17.4447018 70.9956497 16.9893639 70.9956497 16.5250978 71.0130509 16.0519035 71.0248636 15.271273 71.1419846 14.4960832 71.3610756 13.7484294 71.5556862 13.0377914 71.882129 12.372376 72.3224938 11.7886908 72.7543436 11.2290278 73.3068077 10.7797747 73.9364584 10.4762463 74.6689932 10.140091 75.4661393 9.97832304 76.2682238 10.003052 77.1022215 9.97300364 77.9295731 10.1652573 78.6695942 10.5610642 79.2856377 10.9000972 79.8275043 11.364983 80.2618072 11.9270778L80.2618072 10.8958714C80.2545145 10.7308691 80.312571 10.5698555 80.4227686 10.4494617 80.5368906 10.3303325 80.6952127 10.2669718 80.8577995 10.2753619L82.4108597 10.2753619C82.5704476 10.2727313 82.724006 10.3378658 82.8352068 10.4553563 82.9464077 10.5728467 83.0053724 10.7322558 82.9981514 10.8958714L82.9981514 23.1230332C83.0218822 24.1840866 82.816883 25.2374168 82.3978088 26.2077242 81.9939944 27.0862352 81.3219652 27.8056207 80.483673 28.2567448 79.4188647 28.7921786 78.2403239 29.045409 77.0556297 28.9933208ZM76.9816745 21.0963331C77.6185403 21.1272347 78.2473953 20.940395 78.7696513 20.5651056 79.2154689 20.2169503 79.5648859 19.7552895 79.7832733 19.2258765 80.0034836 18.7009922 80.131611 18.1403186 80.1617501 17.5696965 80.1617501 17.3509557 80.187852 17.0697176 80.187852 16.7215181 80.187852 16.3733185 80.187852 16.1010086 80.1617501 15.9001242 80.1311561 15.325251 80.0030777 14.7602596 79.7832733 14.2305519 79.5696298 13.6983 79.2193234 13.2354643 78.7696513 12.8913228 78.2441142 12.5243988 77.6166107 12.3426607 76.9816745 12.3734875 76.3383335 12.3403681 75.7018543 12.5220533 75.1675957 12.8913228 74.7216188 13.2298079 74.3826899 13.6956035 74.1931266 14.2305519 73.9910396 14.826017 73.8752467 15.4487027 73.8494522 16.0786881 73.8494522 16.5250978 73.8494522 16.9224024 73.8494522 17.3464916 73.8776693 17.9718211 73.9934131 18.5897323 74.1931266 19.1812355 74.3788799 19.7255919 74.7180523 20.2010449 75.1675957 20.5472492 75.6981417 20.9275609 76.3349203 21.1203005 76.9816745 21.0963331ZM86.6035416 22.9952163C86.4408209 23.0019665 86.2821455 22.9443746 86.1630918 22.8353533 86.0556025 22.7267908 85.9969111 22.5805226 86.0001254 22.429215L86.0001254 10.8197087C85.9969111 10.6684012 86.0556025 10.5221329 86.1630918 10.4135704 86.2825897 10.3056947 86.4413698 10.2496224 86.6035416 10.2580281L88.2023744 10.2580281C88.3568199 10.2506184 88.5073225 10.307262 88.6170806 10.414108 88.7268387 10.520954 88.7857335 10.6681521 88.7793637 10.8197087L88.7793637 11.87394C89.2403047 11.3232692 89.8095087 10.8692309 90.4530729 10.5388684 91.2343618 10.1574945 92.1002991 9.97334875 92.9724458 10.0031115 93.9191886 9.97676668 94.8540536 10.2150229 95.6679986 10.6900901 96.4209578 11.1460755 97.021208 11.8084971 97.3945618 12.5954836 97.8167019 13.5137979 98.0229278 14.5134774 97.9979781 15.5205434L97.9979781 22.4335357C98.0008993 22.5873509 97.9368119 22.7350882 97.8217981 22.839674 97.7024822 22.9482776 97.543991 23.0058026 97.3813483 22.9995369L95.6547851 22.9995369C95.5017861 23.0029957 95.3539278 22.9452905 95.2451668 22.839674 95.1359325 22.7322236 95.0769365 22.5851961 95.0822004 22.4335357L95.0822004 15.6458414C95.135558 14.7619095 94.8548603 13.8897044 94.2937952 13.1960498 93.7100896 12.591285 92.8812473 12.2743032 92.0342877 12.3319257 91.1834371 12.2905811 90.3545165 12.6045328 89.7527577 13.1960498 89.1384843 13.8651132 88.8214506 14.7467875 88.8718581 15.6458414L88.8718581 22.429215C88.8765209 22.5833572 88.8121396 22.7317719 88.6956782 22.8353533 88.5768917 22.9447989 88.4180278 23.0024592 88.2552284 22.9952163L86.6035416 22.9952163ZM104.767438 22.9986941C103.933496 23.0096415 103.108341 22.8280438 102.356666 22.4681379 101.675695 22.1457147 101.085623 21.6601261 100.639278 21.054846 100.215847 20.4727789 99.9920238 19.7702869 100.000998 19.051539 99.9733511 17.9120275 100.521869 16.8347982 101.461236 16.1837914 102.606589 15.3992075 103.931216 14.9132854 105.313879 14.7704995L108.987436 14.226222 108.987436 13.5858956C109.032104 12.9175683 108.807333 12.2590939 108.362932 11.7563915 107.945065 11.326458 107.251681 11.1114913 106.278188 11.1114913 105.678123 11.0837735 105.082511 11.226535 104.5608 11.5231297 104.146433 11.7918738 103.825647 12.1816819 103.642411 12.6391272 103.53621 12.8560909 103.310473 12.989198 103.068418 12.9775855L101.456644 12.9775855C101.296904 12.9907466 101.139327 12.9339764 101.025002 12.8220776 100.9275 12.705653 100.876783 12.5573644 100.882651 12.4058654 100.928068 12.0648592 101.038744 11.7356979 101.208679 11.4362283 101.446685 10.996353 101.769735 10.6077412 102.159212 10.2927882 102.660235 9.89056609 103.229402 9.58077764 103.839865 9.37803617 104.630272 9.11019668 105.461894 8.98323784 106.296556 9.00298783 107.216362 8.9776274 108.133462 9.11387342 109.005804 9.40547873 109.661872 9.62707668 110.258623 9.99465818 110.750744 10.4803124 111.178082 10.9230964 111.50257 11.4539615 111.701277 12.0353909 111.900334 12.6249163 112.00116 13.242923 111.999753 13.8648949L111.999753 22.1434009C112.004614 22.3065741 111.937493 22.4636842 111.816075 22.5733344 111.692233 22.6891923 111.526608 22.7502308 111.356881 22.7425635L109.690004 22.7425635C109.52893 22.7491781 109.372488 22.68802 109.258933 22.574044 109.145377 22.460068 109.085176 22.3037816 109.093051 22.1434009L109.093051 21.054846C108.835536 21.4046187 108.525825 21.7131029 108.174662 21.969598 107.758006 22.2880666 107.292953 22.5382008 106.797078 22.7105472 106.140628 22.9152925 105.455177 23.0126055 104.767438 22.9986941L104.767438 22.9986941ZM105.497557 20.7941417C106.122115 20.8021347 106.738946 20.6560014 107.293008 20.368782 107.842633 20.0685927 108.28779 19.6092495 108.569569 19.051539 108.902256 18.3556949 109.059859 17.5896383 109.028764 16.819544L109.028764 16.1792176 106.213901 16.6365936C105.320068 16.7139839 104.454481 16.9873134 103.679146 17.4370017 103.170877 17.7246226 102.849166 18.2546419 102.829636 18.8365723 102.813757 19.2401458 102.953395 19.6344949 103.219952 19.9388485 103.492059 20.2331248 103.832696 20.4561755 104.211812 20.5883225 104.624668 20.7326486 105.06009 20.8023499 105.497557 20.7941417ZM114.615559 23.999525C114.449655 24.0059906 114.288522 23.9462105 114.171562 23.8348026 114.054601 23.7233948 113.992596 23.5706299 114.000707 23.4138629L114.000707 6.58613707C113.992596 6.42937011 114.054601 6.27660524 114.171562 6.16519736 114.288522 6.05378948 114.449655 5.99400944 114.615559 6.00047499L116.384441 6.00047499C116.550345 5.99400944 116.711478 6.05378948 116.828438 6.16519736 116.945399 6.27660524 117.007404 6.42937011 116.999293 6.58613707L116.999293 23.4138629C117.007404 23.5706299 116.945399 23.7233948 116.828438 23.8348026 116.711478 23.9462105 116.550345 24.0059906 116.384441 23.999525L114.615559 23.999525Z" transform="translate(15 21)"/></svg>