<?xml version="1.0" encoding="UTF-8" standalone="no"?>
<!-- Created with Inkscape (http://www.inkscape.org/) -->

<svg
   xmlns:dc="http://purl.org/dc/elements/1.1/"
   xmlns:cc="http://creativecommons.org/ns#"
   xmlns:rdf="http://www.w3.org/1999/02/22-rdf-syntax-ns#"
   xmlns:svg="http://www.w3.org/2000/svg"
   xmlns="http://www.w3.org/2000/svg"
   xmlns:sodipodi="http://sodipodi.sourceforge.net/DTD/sodipodi-0.dtd"
   xmlns:inkscape="http://www.inkscape.org/namespaces/inkscape"
   width="156.10417mm"
   height="44.450001mm"
   viewBox="0 0 156.10417 44.45"
   version="1.1"
   id="svg8"
   inkscape:version="0.92.5 (2060ec1f9f, 2020-04-08)"
   sodipodi:docname="chime logo.svg">
  <defs
     id="defs2" />
  <sodipodi:namedview
     id="base"
     pagecolor="#ffffff"
     bordercolor="#666666"
     borderopacity="1.0"
     inkscape:pageopacity="0.0"
     inkscape:pageshadow="2"
     inkscape:zoom="1.1894531"
     inkscape:cx="526.58307"
     inkscape:cy="-81.804348"
     inkscape:document-units="mm"
     inkscape:current-layer="layer1"
     showgrid="false"
     fit-margin-top="0"
     fit-margin-left="0"
     fit-margin-right="0"
     fit-margin-bottom="0"
     inkscape:window-width="1920"
     inkscape:window-height="1017"
     inkscape:window-x="1912"
     inkscape:window-y="70"
     inkscape:window-maximized="1"
     inkscape:pagecheckerboard="true" />
  <metadata
     id="metadata5">
    <rdf:RDF>
      <cc:Work
         rdf:about="">
        <dc:format>image/svg+xml</dc:format>
        <dc:type
           rdf:resource="http://purl.org/dc/dcmitype/StillImage" />
        <dc:title></dc:title>
      </cc:Work>
    </rdf:RDF>
  </metadata>
  <g
     inkscape:label="Layer 1"
     inkscape:groupmode="layer"
     id="layer1"
     transform="translate(123.89757,-60.126245)">
    <g
       style="fill:none"
       id="g992"
       transform="matrix(0.2325401,0,0,0.23043027,-123.89757,60.126245)">
      <path
         id="path960"
         d="m 448.6,56.1001 c -11.8,0 -25.9,4.2 -39.4,18.8 -13.5,-14.6 -27.7,-18.8 -39.4,-18.8 0,0 -45.1,-3.4 -45.1,49.2999 v 85.3 h 32.7 v -80.5 c 0,-23.5999 15.8,-24.0999 18.9,-23.3999 0,0 5.7,0.3 10.9,5.7 0,0 -10.4,13.5999 -11.2,30.6999 0,0 -2.3,44.3 33.2,44.3 35.5,0 33.2,-44.3 33.2,-44.3 -0.8,-17.1 -11.2,-30.6999 -11.2,-30.6999 5.2,-5.4 10.9,-5.7 10.9,-5.7 3,-0.7 18.9,-0.2 18.9,23.3999 v 80.5 h 32.7 V 105.4 C 493.6,52.7001 448.6,56.1001 448.6,56.1001 Z M 409.1,143.5 c -7,0 -9.3,-8.8 -9.4,-17.2 -0.2,-14.6 9.3,-25.1 9.4,-25.3 0.2,0.2 9.6,10.7 9.4,25.3 0,8.4 -2.4,17.2 -9.4,17.2 z"
         inkscape:connector-curvature="0"
         style="fill:#1ec677" />
      <path
         id="path962"
         d="m 306.3,58.3 h -32.7 v 132.5 h 32.7 z"
         inkscape:connector-curvature="0"
         style="fill:#1ec677" />
      <path
         id="path964"
         d="m 290,0.899902 c -10.9,0 -19.9,8.799998 -19.9,19.599998 0,10.9 8.9,19.9 19.9,19.9 10.8,0 19.6,-8.9 19.6,-19.9 0,-10.6 -8.9,-19.599998 -19.6,-19.599998 z"
         inkscape:connector-curvature="0"
         style="fill:#1ec677" />
      <path
         id="path966"
         d="M 170.1,67.2 V 0 h -32.4 v 190.8 h 32.4 V 95.3 c 53.7,-26.1 51.7,15.2 51.7,15.2 v 80.3 h 32.5 v -80.3 c -0.1,-77.6 -67.9,-52 -84.2,-43.3 z"
         inkscape:connector-curvature="0"
         style="fill:#1ec677" />
      <path
         id="path968"
         d="m 538.6,131 c 17.4,6.1 39.5,5.6 39.5,5.6 52.4,-0.3 50.9,-38.4001 50.9,-38.4001 -1.3,-42.9 -51.7,-42.1 -51.7,-42.1 -41.7,0 -70.9,28.6 -70.9,69.5001 0,40.9 28.6,67.3 72.8,67.3 18.8,0 36.7,-5.2 49.2,-14.3 v -31.5 c -13.1,11.3 -28.8,17.3 -45.4,17.3 0.1,0 -45.3,2.3 -44.4,-33.4 z m 4,-27.9 c 5.5,-13.9001 16.9,-21.2001 33.1,-21.2001 13.3,0 21,5.6 21,14.5 C 596.7,108.9 582.6,110 569.4,110 c -13,0 -21,-1.4 -24.6,-2.3 l -3.5,-0.8 z"
         inkscape:connector-curvature="0"
         style="fill:#1ec677" />
      <path
         id="path970"
         d="m 70.6,192.9 c 23,0 39.3,-8.7 49,-16 V 145.2 C 105.3,156.5 88.5,163 73.6,163 49.8,163 33.1,146.6 33.1,123 33.1,100.6 48.3,85.0001 70,85.0001 c 7.1,0 13.2,1.8 19.7,3.6 6.7,1.9 13.7,4 22,4 2.6,0 5.2,-0.2 7.8,-0.6 v -30.2 c -2.2,0.2 -4.3,0.4 -6.5,0.4 -7.5,0 -14.3,-1.4 -21.4,-2.9 -7.5,-1.6 -15.2,-3.2 -24.3,-3.2 -18.1,0 -34.9,6.4 -47.2,18.2 C 7,86.8001 0,104.2 0,124.5 c 0,40.3 29,68.4 70.6,68.4 z"
         inkscape:connector-curvature="0"
         style="fill:#1ec677" />
      <path
         id="path972"
         d="m 667.512,72.3052 c 0,-1.9764 -0.319,-3.7929 -0.959,-5.4496 -0.639,-1.6567 -1.526,-3.0809 -2.659,-4.2725 -1.134,-1.1916 -2.456,-2.1072 -3.968,-2.7466 -1.511,-0.6685 -3.139,-1.0027 -4.882,-1.0027 -1.773,0 -3.43,0.3342 -4.97,1.0027 -1.512,0.6394 -2.834,1.555 -3.968,2.7466 -1.133,1.1916 -2.02,2.6158 -2.659,4.2725 -0.64,1.6567 -0.959,3.4732 -0.959,5.4496 0,1.8601 0.29,3.604 0.872,5.2316 0.581,1.6276 1.409,3.0518 2.485,4.2725 1.104,1.2207 2.427,2.1943 3.967,2.9209 1.54,0.6976 3.284,1.0464 5.232,1.0464 1.743,0 3.371,-0.3197 4.882,-0.9592 1.512,-0.6684 2.834,-1.5985 3.968,-2.7902 1.133,-1.1916 2.02,-2.6012 2.659,-4.2288 0.64,-1.6567 0.959,-3.4878 0.959,-5.4932 z m 3.488,0 c 0,2.4414 -0.436,4.6648 -1.308,6.6703 -0.843,2.0054 -2.005,3.7202 -3.488,5.1444 -1.453,1.4242 -3.153,2.5286 -5.1,3.3133 -1.919,0.7848 -3.939,1.1772 -6.06,1.1772 -2.355,0 -4.52,-0.4069 -6.496,-1.2208 -1.948,-0.8428 -3.633,-1.9909 -5.058,-3.4441 -1.395,-1.4532 -2.499,-3.168 -3.313,-5.1444 C 639.392,76.7956 639,74.6303 639,72.3052 c 0,-2.4414 0.421,-4.6649 1.264,-6.6703 0.872,-2.0055 2.035,-3.7203 3.488,-5.1444 1.482,-1.4242 3.197,-2.5286 5.144,-3.3134 1.948,-0.7847 3.997,-1.1771 6.148,-1.1771 2.121,0 4.141,0.3924 6.06,1.1771 1.947,0.7848 3.647,1.8892 5.1,3.3134 1.483,1.4241 2.645,3.1389 3.488,5.1444 0.872,2.0054 1.308,4.2289 1.308,6.6703 z m -15.869,-0.9156 c 0.552,0 1.075,-0.0145 1.569,-0.0436 0.523,-0.0581 0.974,-0.1889 1.352,-0.3923 0.378,-0.2035 0.683,-0.4796 0.915,-0.8284 0.233,-0.3778 0.349,-0.901 0.349,-1.5694 0,-0.5523 -0.131,-0.9882 -0.392,-1.3079 -0.233,-0.3198 -0.538,-0.5668 -0.916,-0.7412 -0.378,-0.1744 -0.799,-0.2761 -1.264,-0.3052 -0.465,-0.0581 -0.916,-0.0872 -1.352,-0.0872 h -3.575 v 5.2752 z m -3.314,10.2453 h -2.964 V 63.5858 h 6.845 c 2.179,0 3.822,0.4069 4.926,1.2207 1.104,0.8138 1.657,2.1363 1.657,3.9673 0,1.6277 -0.451,2.8193 -1.352,3.575 -0.901,0.7557 -2.02,1.2062 -3.357,1.3515 l 5.057,7.9346 h -3.357 l -4.664,-7.7166 h -2.791 z"
         inkscape:connector-curvature="0"
         style="fill:#1ec677" />
      <path
         id="path974"
         d="m 659.805,60.1108 c -1.471,-0.6506 -3.057,-0.9771 -4.761,-0.9771 -1.735,0 -3.35,0.3267 -4.851,0.978 l -0.003,0.0011 c -1.473,0.6233 -2.761,1.5151 -3.866,2.677 -1.105,1.161 -1.971,2.5508 -2.597,4.1738 -0.625,1.6185 -0.939,3.3979 -0.939,5.3415 0,1.8284 0.285,3.5379 0.854,5.1307 0.569,1.5934 1.378,2.9835 2.426,4.1736 1.077,1.1891 2.365,2.1385 3.87,2.8485 1.495,0.6768 3.195,1.0186 5.106,1.0186 1.705,0 3.292,-0.3123 4.763,-0.9345 1.475,-0.6525 2.764,-1.5593 3.869,-2.7216 1.105,-1.1616 1.971,-2.5375 2.598,-4.1311 0.624,-1.6178 0.938,-3.4113 0.938,-5.3842 0,-1.9436 -0.314,-3.723 -0.939,-5.3415 -0.626,-1.623 -1.492,-3.0128 -2.597,-4.1738 -1.105,-1.1619 -2.393,-2.0537 -3.867,-2.677 z m 0.121,24.7066 c -1.511,0.6395 -3.139,0.9592 -4.882,0.9592 -1.948,0 -3.692,-0.3488 -5.232,-1.0464 -1.54,-0.7266 -2.863,-1.7002 -3.967,-2.9209 -1.076,-1.2207 -1.904,-2.6449 -2.485,-4.2725 -0.582,-1.6276 -0.872,-3.3715 -0.872,-5.2316 0,-1.9764 0.319,-3.7929 0.959,-5.4496 0.639,-1.6567 1.526,-3.0809 2.659,-4.2725 1.134,-1.1916 2.456,-2.1072 3.968,-2.7466 1.54,-0.6685 3.197,-1.0027 4.97,-1.0027 1.743,0 3.371,0.3342 4.882,1.0027 1.512,0.6394 2.834,1.555 3.968,2.7466 1.133,1.1916 2.02,2.6158 2.659,4.2725 0.64,1.6567 0.959,3.4732 0.959,5.4496 0,2.0054 -0.319,3.8365 -0.959,5.4932 -0.639,1.6276 -1.526,3.0372 -2.659,4.2288 -1.134,1.1917 -2.456,2.1218 -3.968,2.7902 z m -11.498,2.8475 c -1.981,-0.8576 -3.699,-2.0273 -5.152,-3.5095 l -0.002,-0.0022 c -1.423,-1.4819 -2.547,-3.229 -3.374,-5.2379 l -0.002,-0.0049 c -0.8,-2.043 -1.198,-4.2457 -1.198,-6.6053 0,-2.4764 0.428,-4.74 1.288,-6.7865 l 10e-4,-0.0034 c 0.886,-2.0382 2.07,-3.7859 3.553,-5.239 l 0.002,-0.0021 c 1.511,-1.4513 3.258,-2.5765 5.24,-3.3753 1.984,-0.7995 4.071,-1.1988 6.26,-1.1988 2.159,0 4.217,0.3995 6.172,1.1991 1.982,0.7988 3.715,1.9241 5.197,3.376 1.513,1.4535 2.697,3.2021 3.555,5.2419 0.89,2.0469 1.332,4.3111 1.332,6.7881 0,2.4771 -0.442,4.7413 -1.332,6.7882 -0.858,2.0397 -2.042,3.7883 -3.555,5.2419 -1.482,1.4519 -3.215,2.5773 -5.197,3.3761 -1.955,0.7995 -4.013,1.199 -6.172,1.199 -2.39,0 -4.594,-0.4131 -6.611,-1.2433 z m 12.676,-0.2317 c 1.947,-0.7847 3.647,-1.8891 5.1,-3.3133 1.483,-1.4242 2.645,-3.139 3.488,-5.1444 0.872,-2.0055 1.308,-4.2289 1.308,-6.6703 0,-2.4414 -0.436,-4.6649 -1.308,-6.6703 -0.843,-2.0055 -2.005,-3.7203 -3.488,-5.1444 -1.453,-1.4242 -3.153,-2.5286 -5.1,-3.3134 C 659.185,56.3924 657.165,56 655.044,56 c -2.151,0 -4.2,0.3924 -6.148,1.1771 -1.947,0.7848 -3.662,1.8892 -5.144,3.3134 -1.453,1.4241 -2.616,3.1389 -3.488,5.1444 -0.843,2.0054 -1.264,4.2289 -1.264,6.6703 0,2.3251 0.392,4.4904 1.177,6.4959 0.814,1.9764 1.918,3.6912 3.313,5.1444 1.425,1.4532 3.11,2.6013 5.058,3.4441 1.976,0.8139 4.141,1.2208 6.496,1.2208 2.121,0 4.141,-0.3924 6.06,-1.1772 z m -2.418,-20.0019 -0.005,-0.0069 c -0.201,-0.2761 -0.465,-0.4912 -0.799,-0.6452 -0.34,-0.1571 -0.724,-0.2512 -1.157,-0.2782 l -0.009,-6e-4 -0.009,-0.0011 c -0.454,-0.0567 -0.892,-0.0849 -1.315,-0.0849 h -3.275 v 4.6752 h 3.014 c 0.544,0 1.058,-0.0142 1.544,-0.0426 0.49,-0.0552 0.899,-0.1768 1.234,-0.3575 0.334,-0.1798 0.601,-0.4213 0.806,-0.726 0.19,-0.3123 0.301,-0.7717 0.301,-1.4077 0,-0.5064 -0.12,-0.8675 -0.325,-1.1179 z m 0.281,2.694 c -0.232,0.3488 -0.537,0.6249 -0.915,0.8284 -0.378,0.2034 -0.829,0.3342 -1.352,0.3923 -0.494,0.0291 -1.017,0.0436 -1.569,0.0436 h -3.314 v -5.2752 h 3.575 c 0.436,0 0.887,0.0291 1.352,0.0872 0.465,0.0291 0.886,0.1308 1.264,0.3052 0.378,0.1744 0.683,0.4214 0.916,0.7412 0.261,0.3197 0.392,0.7556 0.392,1.3079 0,0.6684 -0.116,1.1916 -0.349,1.5694 z m -6.85,11.8095 h -3.564 v -18.649 h 7.144 c 2.209,0 3.926,0.4109 5.105,1.2792 1.205,0.8882 1.779,2.3171 1.779,4.2088 0,1.6806 -0.467,2.9726 -1.459,3.8048 -0.843,0.7069 -1.861,1.1562 -3.045,1.3549 l 5.099,8.0013 h -4.073 l -4.665,-7.7166 h -2.321 z m -0.3,-8.0165 h 2.791 l 4.664,7.7166 h 3.357 l -5.057,-7.9346 c 0.111,-0.0121 0.221,-0.0263 0.329,-0.0426 1.193,-0.1797 2.202,-0.616 3.028,-1.3089 0.901,-0.7557 1.352,-1.9473 1.352,-3.575 0,-1.831 -0.553,-3.1535 -1.657,-3.9673 -1.104,-0.8138 -2.747,-1.2207 -4.926,-1.2207 h -6.845 v 18.0491 h 2.964 z"
         inkscape:connector-curvature="0"
         style="clip-rule:evenodd;fill:#1ec677;fill-rule:evenodd" />
    </g>
  </g>
  <style
     id="style905">.st0{fill:#fff}</style>
</svg>
