<svg fill="none" height="70" viewBox="0 0 190 70" width="190" xmlns="http://www.w3.org/2000/svg"><path d="m14.7707 19.4692c-.9784 0-1.7705.7921-1.7705 1.7706v27.5207c0 .9784.7921 1.7705 1.7705 1.7705h27.521c.9784 0 1.7705-.7921 1.7705-1.7705v-11.6327c0-.5591-.6834-.8309-1.0716-.4271l-6.1348 6.3988c-2.6247 2.7334-5.3582 4.0923-8.2081 4.0768-2.8267 0-5.5135-1.258-8.0606-3.8051-2.7024-2.7023-4.1235-5.6299-4.271-8.7904-.1165-2.9198 1.025-5.7309 3.4168-8.4411.3028-.3416.8231-.3494 1.1493-.0233l5.3892 5.3893c.3184.3183.3262.8386.0466 1.2036-1.3046 1.6618-1.3512 3.0984-.1475 4.3021 1.2192 1.2191 2.5704 1.0405 4.0691-.5203l13.6517-14.2574c.1088-.1164.1709-.2718.1709-.4271v-.5668c0-.9785-.7921-1.7706-1.7705-1.7706z" fill="#3eb2a2"/><path clip-rule="evenodd" d="m86.4075 28.1432c-.5358 1.0949-.8076 2.3607-.8076 3.8128s.2718 2.7257.8076 3.8361c.5514 1.095 1.3046 1.9414 2.2443 2.5471.9396.5902 1.9957.8852 3.1528.8852.9939 0 1.8559-.2019 2.6014-.6057.5048-.2717.9319-.5979 1.2813-.9862.1476-.163.4582-.0699.4582.1553v1.0251c0 .1165.0932.2174.2174.2174h3.8831c.116 0 .217-.0932.217-.2174v-18.2488c0-.1165-.093-.2174-.217-.2174h-3.8831c-.1165 0-.2174.0932-.2174.2174v5.6067c0 .2096-.2951.3106-.4427.1553-.3727-.4038-.8309-.7378-1.3745-1.0095-.7532-.3883-1.5996-.5825-2.5237-.5825-1.1571 0-2.2132.2951-3.1528.8853-.9397.5902-1.6929 1.4288-2.2443 2.5238zm8.8294 1.289c.6057.6213.9086 1.4755.9086 2.5471s-.3029 1.9258-.9086 2.5471c-.5902.6212-1.3124.9318-2.1666.9318s-1.5919-.3106-2.1976-.9318c-.5902-.6368-.8853-1.4988-.8853-2.5704s.2951-1.9181.8853-2.5238c.6057-.6212 1.3357-.9318 2.1976-.9318.862 0 1.5842.3106 2.1666.9318z" fill="#3eb2a2" fill-rule="evenodd"/><path clip-rule="evenodd" d="m107.669 24.7419c.994 0 1.856.2019 2.602.6057.505.2718.932.5979 1.281.9784.148.1631.458.0622.458-.1553v-1.0172c0-.1165.094-.2175.218-.2175h3.883c.116 0 .217.0932.217.2175v13.838c0 1.2968-.264 2.4616-.784 3.5099-.505 1.0561-1.289 1.9026-2.346 2.5238-1.04.6212-2.345.9319-3.913.9319-2.089 0-3.774-.497-5.071-1.491-1.235-.9319-1.965-2.1743-2.19-3.7507-.016-.1243.085-.2407.21-.2407h3.851c.101 0 .187.0699.218.163.155.4582.458.8309.908 1.1027.505.3184 1.126.4815 1.864.4815.893 0 1.6-.264 2.12-.7843.536-.5048.808-1.3201.808-2.4461v-1.258c0-.2175-.303-.3107-.443-.1476-.357.3961-.792.7455-1.297 1.0328-.738.4038-1.607.6057-2.601.6057-1.165 0-2.214-.2951-3.153-.8852-.94-.6057-1.693-1.4522-2.244-2.5471-.536-1.1105-.808-2.3917-.808-3.8361s.272-2.7179.808-3.8128c.551-1.095 1.304-1.9336 2.244-2.5238.939-.5902 1.996-.8853 3.153-.8853zm4.341 7.2374c0-1.0794-.303-1.9258-.908-2.5471-.59-.6212-1.313-.9318-2.167-.9318s-1.592.3106-2.197.9318c-.591.6057-.886 1.4444-.886 2.5238s.295 1.9336.886 2.5703c.605.6213 1.335.9319 2.197.9319s1.584-.3106 2.167-.9319c.605-.6212.908-1.4754.908-2.547z" fill="#3eb2a2" fill-rule="evenodd"/><path clip-rule="evenodd" d="m131.455 31.7541c0 .3417-.015.6989-.054 1.0716-.008.1087-.101.1941-.21.1941h-9.342c-.124 0-.225.1088-.209.233.093.761.365 1.359.807 1.7861.505.4504 1.118.6833 1.841.6833 1.025 0 1.755-.4116 2.182-1.2347.039-.0776.116-.1242.202-.1242h4.177c.14 0 .241.132.202.264-.248.8154-.652 1.5608-1.211 2.2287-.606.7377-1.367 1.3201-2.299 1.7394-.924.4194-1.957.629-3.106.629-1.382 0-2.609-.2951-3.681-.8852-1.079-.5902-1.918-1.4289-2.523-2.5238-.606-1.0949-.909-2.3685-.909-3.8361 0-1.4677.295-2.7412.885-3.8361.606-1.095 1.445-1.9336 2.524-2.5238s2.314-.8853 3.712-.8853 2.57.2874 3.634.8542c1.056.5747 1.887 1.39 2.47 2.4461.605 1.0561.908 2.2986.908 3.7119zm-4.628-1.1338c.116 0 .217-.0932.21-.2174-.047-.6368-.295-1.1571-.746-1.5531-.505-.4349-1.134-.6523-1.895-.6523s-1.335.2097-1.84.629c-.435.3728-.722.893-.862 1.5453-.031.132.07.2485.202.2485z" fill="#3eb2a2" fill-rule="evenodd"/><path d="m84.4039 24.944c.1165 0 .2175.0932.2175.2175v13.6438c0 .1165-.0932.2175-.2175.2175h-3.8827c-.1165 0-.2175-.0932-.2175-.2175v-1.0172c0-.2097-.2873-.3106-.4348-.1553-.3728.3882-.8232.7144-1.359.9862-.7377.3727-1.5608.5513-2.4694.5513-1.0794 0-2.0268-.2329-2.8499-.7066-.8232-.4893-1.46-1.1881-1.9181-2.0967-.4582-.9086-.6834-1.9802-.6834-3.2071v-8.0062c0-.1165.0932-.2174.2174-.2174h3.8595c.1165 0 .2174.0932.2174.2174v7.4315c0 .9396.2408 1.6774.73 2.1976.4892.5203 1.1415.7844 1.9647.7844.8231 0 1.5065-.2641 1.9957-.7844.4892-.5202.7299-1.2502.7299-2.1976v-7.4315c0-.1165.0932-.2174.2175-.2174h3.8827z" fill="#3eb2a2"/><path d="m68.4923 33.3695v-11.8423c0-.1164-.0932-.2174-.2174-.2174h-3.8828c-.1165 0-.2174.0932-.2174.2174v11.8423c0 .6368-.1398 1.126-.4271 1.4599s-.6911.5048-1.2114.5048c-.5747 0-1.0095-.1864-1.3124-.5514-.2718-.3494-.4193-.8386-.4504-1.4754 0-.1165-.101-.2174-.2174-.2174h-3.8595c-.1165 0-.2174.0932-.2097.2174.0389 1.8482.6057 3.277 1.6852 4.3021 1.1259 1.0561 2.6247 1.5919 4.4884 1.5919s3.1994-.5048 4.24-1.5143c1.0561-1.0095 1.5919-2.4461 1.5919-4.3176z" fill="#3eb2a2"/><g fill="#0e415f"><path clip-rule="evenodd" d="m177 31.894c0 .3417-.016.6989-.055 1.0716-.007.1087-.1.1941-.209.1941h-9.342c-.124 0-.225.1088-.21.233.093.761.365 1.359.808 1.7861.505.4503 1.118.6833 1.84.6833 1.025 0 1.755-.4116 2.182-1.2347.039-.0776.117-.1242.202-.1242h4.178c.14 0 .241.132.202.264-.248.8154-.652 1.5608-1.211 2.2287-.606.7377-1.375 1.3201-2.299 1.7394-.924.4194-1.957.629-3.106.629-1.382 0-2.609-.2951-3.681-.8852-1.079-.5902-1.918-1.4289-2.524-2.5238s-.908-2.3685-.908-3.8361c0-1.4677.295-2.7412.885-3.8362.606-1.0949 1.444-1.9335 2.524-2.5237 1.079-.5902 2.314-.8853 3.712-.8853 1.397 0 2.57.2873 3.634.8542 1.064.5747 1.887 1.39 2.469 2.4461.606 1.0561.909 2.2986.909 3.7119zm-4.636-1.1415c.116 0 .217-.0932.21-.2175-.047-.6367-.296-1.157-.754-1.5531-.504-.4348-1.134-.6523-1.895-.6523s-1.335.2097-1.84.629c-.435.3728-.722.8931-.862 1.5454-.031.132.078.2485.202.2485z" fill-rule="evenodd"/><path d="m156.243 24.9282c1.747 0 3.137.5281 4.162 1.5919 1.04 1.0561 1.561 2.5316 1.561 4.4186v8.0061c0 .1165-.093.2175-.218.2175h-3.859c-.117 0-.218-.0932-.218-.2175v-7.4315c0-.9085-.24-1.6074-.73-2.0967-.473-.5047-1.126-.7532-1.964-.7532-.839 0-1.507.2485-1.996.7532-.474.4893-.707 1.1882-.707 2.0967v7.4315c0 .1165-.093.2175-.217.2175h-3.859c-.117 0-.218-.0932-.218-.2175v-7.4315c0-.9085-.241-1.6074-.73-2.0967-.474-.5047-1.126-.7532-1.965-.7532-.838 0-1.506.2485-1.995.7532-.474.4893-.707 1.1882-.707 2.0967v7.4315c0 .1165-.093.2175-.217.2175h-3.883c-.117 0-.218-.0932-.218-.2175v-13.6516c0-.1165.094-.2174.218-.2174h3.883c.116 0 .217.0932.217.2174v.9008c0 .2097.28.3028.427.1631.365-.3572.792-.6601 1.289-.8931.707-.3494 1.507-.528 2.4-.528 1.056 0 2.003.2252 2.826.6833.738.3961 1.328.9397 1.779 1.6308.093.1398.295.1398.388.0078.466-.6368 1.056-1.1726 1.786-1.592.839-.4892 1.755-.7299 2.749-.7299z"/><path d="m132.573 38.7043c.49.4348 1.111.6523 1.864.6523s1.344-.2175 1.817-.6523c.489-.4504.73-1.0095.73-1.6618s-.248-1.2347-.73-1.6929c-.473-.4504-1.079-.6833-1.817-.6833s-1.382.2252-1.864.6833c-.473.4504-.706 1.0173-.706 1.6929s.233 1.2114.706 1.6618z"/><path d="m175.618 44.4198c-.032-.3029-.171-.5359-.404-.7067s-.544-.2485-.924-.2485c-.264 0-.497.0388-.684.1242-.194.0777-.334.1864-.442.3262-.101.1398-.156.2951-.156.4737 0 .1475.031.2718.101.3805s.163.2019.28.2795c.116.0699.248.1321.388.1864.14.0544.287.0932.435.1243l.66.163c.264.0622.52.1476.769.2485.248.1088.474.2408.668.4038.194.1631.357.3572.466.5824.116.2252.17.497.17.7999 0 .4116-.108.7765-.318 1.0949-.21.3106-.52.5591-.916.7377s-.878.2641-1.445.2641-1.025-.0855-1.436-.2563c-.404-.1708-.722-.4193-.948-.7455-.225-.3261-.349-.7222-.365-1.1959h1.258c.016.2485.094.4504.226.6135s.31.2873.52.365c.217.0776.458.1242.722.1242s.52-.0388.73-.1242.38-.2019.497-.3495c.116-.1553.179-.3261.186-.528 0-.1864-.054-.3339-.163-.4582-.108-.1242-.256-.2252-.442-.3028-.187-.0854-.412-.1553-.66-.2175l-.808-.2096c-.582-.1476-1.041-.3728-1.382-.6834-.334-.3028-.505-.7144-.505-1.2192 0-.4193.116-.7843.342-1.0949.225-.3106.535-.5591.924-.7299.388-.1786.831-.2641 1.328-.2641s.939.0855 1.32.2641c.38.1708.675.4115.893.7222.217.3028.326.66.334 1.0561h-1.235z"/><path d="m163.131 49.5448-1.996-7.0665h1.374l1.274 5.195h.062l1.359-5.195h1.25l1.367 5.195h.062l1.274-5.195h1.374l-1.996 7.0665h-1.265l-1.414-4.9621h-.054l-1.421 4.9621h-1.266z"/><path d="m155.35 42.4705v7.0665h4.628v-1.0716h-3.347v-1.9259h3.075v-1.0716h-3.075v-1.918h3.316v-1.0717h-4.597z"/><path d="m153.579 42.4705v7.0665h-1.281v-7.0665z"/><path d="m147.654 48.0383-1.84-5.5678h-1.406l2.493 7.0665h1.584l2.493-7.0665h-1.406l-1.84 5.5678z"/><path d="m138.576 49.5448v-7.0665h4.597v1.0716h-3.316v1.9181h3.075v1.0716h-3.075v1.9258h3.347v1.0717h-4.628z"/><path clip-rule="evenodd" d="m131.867 42.4705v7.0665h1.281v-2.5859h1.305l1.39 2.5859h1.429l-1.53-2.7956c.046-.0155.093-.0388.132-.0621.372-.1786.652-.4348.846-.7688.194-.3339.288-.7299.288-1.1803s-.094-.8464-.288-1.1803c-.186-.3417-.466-.6057-.838-.7921-.365-.1864-.824-.2796-1.367-.2796h-2.648zm1.281 3.4245v-2.3451h1.173c.318 0 .582.0465.784.1397s.357.2252.45.4038c.101.1786.148.3883.148.6446 0 .2562-.047.4659-.148.6367-.093.1709-.248.3029-.45.3883s-.466.132-.777.132z" fill-rule="evenodd"/></g></svg>