<svg height="70" viewBox="0 0 190 70" width="190" xmlns="http://www.w3.org/2000/svg"><path d="m64.108352 49.8864368c1.0883254 0 1.8874369.4097968 2.5471004 1.0990285l-1.0088609.9784457c-.4491441-.4597701-.9491085-.7194929-1.5891368-.7194929-.7490611 0-.9990048.3204762-.9990048.6301723 0 .439288.299994.5785819 1.4088015.8392287 1.1095776.2597998 2.338891.6392584 2.338814 2.1587097 0 1.3284131-.8391517 2.2274712-2.7486877 2.2274712-1.16779 0-2.188124-.4892613-2.7175026-1.2686606l1.0090149-.8999052c.4900314.5711899 1.1194336.8006515 1.7889532.8006515.8277556 0 1.2186873-.2302316 1.2186873-.7596872 0-.4499141-.2401646-.6506544-1.5587216-.9498015-1.2882958-.29907-2.1882009-.7089438-2.1882009-2.0873302 0-1.2694306 1.1186636-2.04883 2.498744-2.04883zm53.575733.1090328v3.9083156c0 1.1185866.538465 1.8283005 1.429284 1.8283005.889202 0 1.437446-.6900017 1.437446-1.8086653v-3.9279508h1.399792v3.9083926c0 2.0266538-1.058834 3.1961378-2.837238 3.1961378-1.689007 0-2.828152-1.1391458-2.828152-3.1765026v-3.9280278zm-5.815388-.1090328c1.907842 0 3.037209 1.4784871 3.037132 3.6067816 0 2.1283715-1.12929 3.6059346-3.037132 3.6059346-1.909459 0-3.037978-1.4775631-3.037978-3.6059346 0-2.1282945 1.128519-3.6067816 3.037978-3.6067816zm-11.659496 0c1.318634 0 2.118515.6400284 2.558573 1.5489426l-1.298921.5990641c-.249944-.4794053-.649808-.7596872-1.27921-.7596872-1.0482083 0-1.6497364.9203103-1.6490434 2.2184621 0 1.2579576.6096902 2.2176921 1.6586684 2.2176921.629402 0 .999775-.2696558 1.369454-.890049l1.178493.6998577c-.479405.9892258-1.318634 1.5784338-2.588064 1.5784338-1.8283778 0-3.0568442-1.3980985-3.0568442-3.6059346 0-2.1282945 1.2801337-3.6067816 3.1068942-3.6067816zm-29.3054757 0c1.907919 0 3.0379787 1.4784871 3.0379787 3.6067816 0 2.1283715-1.1300597 3.6059346-3.0379787 3.6059346s-3.0363617-1.4775631-3.0363617-3.6059346c0-2.1282945 1.1285197-3.6067816 3.0363617-3.6067816zm5.8162346.1090328v3.9083156c0 1.1185866.5393117 1.8283005 1.4285138 1.8283005.888355 0 1.4390628-.6900017 1.4390628-1.8086653v-3.9279508h1.3988685v3.9083926c0 2.0266538-1.0596042 3.1961378-2.8380083 3.1961378-1.6881595 0-2.8281523-1.1391458-2.8281523-3.1765026v-3.9280278zm49.1668371 0c1.99878 0 3.47719.9391754 3.47719 3.4977488 0 2.4577798-1.777557 3.4977489-3.577214 3.4977489h-2.08733v-6.9954977zm-20.508782 0v5.6154173h2.805283v1.3800804h-4.204228v-6.9954977zm-12.9919133 0c1.9980096 0 3.4772667.9391754 3.4772667 3.4977488 0 2.4577798-1.7792511 3.4977489-3.5781374 3.4977489h-2.0872532v-6.9954977zm-8.3141317-.00077 2.4790319 3.6977192c.1697092.2605698.3991707.6096901.4892614.7900254 0-.2597998-.0196352-1.1383758-.0196352-1.5284605h-.000077v-2.9593611h1.3792334v6.9955747h-1.2489485l-2.5683525-3.8165311c-.1688621-.2606467-.3999407-.6106141-.4892613-.7901023 0 .2597997.0197121 1.1384527.0197121 1.5284604v3.07825h-1.3793104v-6.9955747zm27.796727 1.2808267c-1.130136 0-1.598915.9695136-1.598915 2.2184621 0 1.2481785.468779 2.2176921 1.598915 2.2176921 1.12775 0 1.597222-.9695136 1.597222-2.2176921 0-1.2489485-.469472-2.2184621-1.597222-2.2184621zm-40.9649717 0c-1.1285197 0-1.5989159.9695136-1.5989159 2.2184621 0 1.2481785.4704732 2.2176921 1.5989159 2.2176921 1.1301367 0 1.5989159-.9695136 1.5989159-2.2176921 0-1.2489485-.4687792-2.2184621-1.5989159-2.2184621zm54.9338687.0795416h-.740052v4.2770711h.689231c1.468554 0 2.138151-.8596339 2.138074-2.1389206 0-1.4292837-.60969-2.1381505-2.087253-2.1381505zm-33.5014657 0h-.739205v4.2770711h.6883077c1.469478 0 2.1398446-.8596339 2.1399216-2.1389206 0-1.4292837-.6097672-2.1381505-2.0890243-2.1381505zm11.2971317-37.6950679c8.641076 0 15.725047 6.6267422 16.470875 15.0743927 1.116199-.4679322 2.341355-.7277319 3.625569-.7277319 5.176207 0 9.372273 4.1976066 9.372273 9.3745828 0 5.1768993-4.196836 9.3737359-9.372966 9.3737359l-1.941143-.0009608c-.07932-.0000403-.160712-.0000818-.244107-.0001243l-1.702713-.000875c-.104977-.0000543-.211548-.0001095-.319645-.0001656l-1.366031-.0007119c-.119211-.0000624-.239676-.0001256-.361325-.0001894l-1.512293-.0007978c-.130036-.0000689-.260984-.0001384-.392776-.0002085l-1.617638-.0008646c-.137451-.0000739-.275473-.0001482-.413998-.0002229l-1.258457-.0006818c-.140927-.0000767-.282153-.0001537-.423609-.000231l-1.704149-.0009376c-.142205-.0000788-.284367-.0001578-.426419-.0002369l-1.273625-.0007135c-.140771-.0000794-.281228-.0001588-.4213-.0002381l-1.248451-.0007129c-.137157-.000079-.273725-.0001578-.409636-.0002365l-1.203637-.0007032c-.131359-.0000775-.261857-.0001547-.391425-.0002317l-1.505849-.0009084c-.121043-.0000743-.240884-.0001482-.359454-.0002216l-1.030996-.0006483c-.110335-.0000705-.219195-.0001405-.326512-.00021l-1.209375-.0008046c-.093882-.0000645-.185948-.0001282-.27613-.0001913l-1.2028994-.0008885c-.0696366-.0000551-.1370481-.0001093-.2021665-.0001627l-.9097351-.0008555c-.0351449-.0000414-.0675875-.0000816-.0972595-.0001207l-.2287633-.0004985c-.5597938-.0565954-1.0047798-.5343836-1.0121719-1.1080375v-29.7488448c.0065451-.5466267.1950424-.8285256.9022922-1.1022625 1.8201384-.7039388 3.8812885-1.1202806 5.9956455-1.1202806zm-12.0143145 4.0157314c.5245275 0 .9580405.4326659.9670496.9628915l.4082567 19.3605499-.4081797 7.770816-.0084488.112162c-.063619.4784065-.4715395.8508066-.9586008.8508066-.5245276 0-.9588106-.431973-.9671266-.9581176 0 0-.0746301-1.5900969-.1563678-3.3327722l-.0259695-.5537138c-.0911686-1.9440129-.1823372-3.889566-.1823372-3.895726l.3646745-19.3531579c.008239-.5318426.441752-.9637385.9670496-.9637385zm-3.2140789 3.1543265c.4948823 0 .889972.3942426.9014451.8973641l.4523781 16.2709808-.4526669 7.8265972c-.0102307.4609456-.3476843.8319916-.788837.8863182l-.1123193.0068551c-.4966534 0-.8932831-.3942427-.9031392-.8925131l-.4031747-7.8281044.4031747-16.2684398c.0097791-.5048155.4073328-.8990581.9031392-.8990581zm-12.612609 1.0555231c.3425754 0 .6244743.2785879.6417224.6359474l.6294023 15.4710224-.6294023 8.0830531c-.0164011.3565124-.299147.6360243-.6417224.6360243-.3458863 0-.6277853-.2795119-.6416454-.6327133l-.5580998-8.0863641.5572528-15.4710224c.0147841-.3565124.2966831-.6359474.6424924-.6359474zm6.2570627-1.9864595c.4188058 0 .7580701.3376473.7712372.7678492l.5408517 17.3281211-.5408517 7.9493802c-.0139371.4294319-.3515844.7662322-.7711602.7662322-.4204229 0-.7597642-.3368003-.7712373-.7629212l-.4810223-7.9535382.4802523-17.3272741c.0113961-.4310489.3506604-.7678492.7719303-.7678492zm3.1650295.3794586c.4565361 0 .8244446.3654445.8367647.8326067l.4974234 16.884752-.4965764 7.8789247-.0090338.1001821c-.060412.4154016-.4063129.7275736-.8277309.7275736-.4597701 0-.8276786-.3663685-.8375347-.8285257l-.442522-7.8773077.441675-16.885599c.0098561-.4670852.3777646-.8326067.8375347-.8326067zm-12.5149723 4.549191c.3056151 0 .5588699.2515607.576965.5711899l.6744476 12.5912028-.6747672 8.1368362.0003196.0011182-.0122798.090951c-.0569137.2731014-.2895623.4769279-.5646852.4769279-.3073091 0-.5605638-.2507907-.5761179-.5687259l-.5966-8.1371074.5966-12.5912028c.0147071-.3196292.2688088-.5711899.5761179-.5711899zm6.2096304-4.2977073c.3809986 0 .6908487.3073091.7064028.7007048l.584357 16.7634762-.585204 8.0002005c-.0155541.3933957-.3253273.7007818-.7064028.7007818-.3836167 0-.6941598-.3081561-.7064799-.6983178l-.5187525-8.0035115.5187525-16.7617822c.0123971-.3933957.3229402-.7015518.7073269-.7015518zm15.9102334-4.6737008c.5613338 0 1.0235679.4622341 1.03173 1.028496l.4597701 21.1167779-.4597701 7.6642472c-.0081621.5589468-.4703962 1.0203339-1.03173 1.0203339-.5629509 0-1.025185-.4613871-1.0325771-1.0211809l-.4237339-7.6634002.4228869-21.1151609c.0082391-.5678789.4703962-1.030113 1.0334241-1.030113zm-25.1865637 13.8868906c.2721969 0 .4918024.2156015.5114375.5015814l.7195699 7.7420948-.7195699 8.1387244c-.0204821.28598-.2401646.5031984-.5114375.5031984-.2753538 0-.4941123-.2172184-.5121304-.5039684l-.6335604-8.1379544.6335604-7.7387838c.0171711-.2877509.2368536-.5048924.5121304-.5048924zm-3.0429067-.5392347c.2335426 0 .4261209.1884973.4466801.438364l.7637682 8.3444699-.7637682 8.071503c-.0205592.2499437-.2131375.4384409-.4466801.4384409-.2360836 0-.4295089-.1884972-.447527-.4384409l-.6719836-8.071503.6719836-8.3427759c.0189421-.2515607.2115204-.440058.447527-.440058zm-3.0183436.287597c.1982764 0 .3588995.156619.3826927.3737605l.8072735 8.1198594-.8080436 7.8248703c-.0229461.2163714-.1835692.3729135-.3818456.3729135-.2016643 0-.3622874-.1573891-.3819996-.3745305l-.7113308-7.8232533.7113308-8.1198594c.0204822-.2163715.1811053-.3737605.3819226-.3737605zm-2.9937034 1.3416571c.1606231 0 .290908.1254339.3171652.3073091l.8513948 6.8438836-.8522418 6.6939637c-.0261802.1811052-.1565421.3073091-.3163182.3073091-.1622401 0-.295836-.1295149-.3171651-.3090032l-.7490611-6.6922696s.7490611-6.8422666.7490611-6.8438836c.0220991-.1777942.155695-.3073091.3171651-.3073091zm-2.8166791 2.6200199c.153231 0 .2802049.1228928.303998.297453l.6605105 4.2336428-.6605105 4.1615704-.016492.0713795c-.0444924.1354329-.1555051.2245335-.287506.2245335-.1590831 0-.28521-.1221228-.3057691-.297453l-.5572528-4.1599534.5572528-4.2328728c.0205591-.1753302.146763-.2983.3057691-.2983z"/></svg>