<?xml version="1.0" encoding="UTF-8"?>
<svg id="Layer_1" data-name="Layer 1" xmlns="http://www.w3.org/2000/svg" width="211.19" height="40" viewBox="0 0 211.19 40">
  <defs>
    <style>
      .cls-1 {
        fill-rule: evenodd;
      }
    </style>
  </defs>
  <path d="M2.28,0C1.02,0,0,1.02,0,2.28v35.44c0,1.26,1.02,2.28,2.28,2.28h35.44c1.26,0,2.28-1.02,2.28-2.28v-14.98c0-.72-.88-1.07-1.38-.55l-7.9,8.24c-3.38,3.52-6.9,5.27-10.57,5.25-3.64,0-7.1-1.62-10.38-4.9-3.48-3.48-5.31-7.25-5.5-11.32-.15-3.76,1.32-7.38,4.4-10.87.39-.44,1.06-.45,1.48-.03l6.94,6.94c.41.41.42,1.08.06,1.55-1.68,2.14-1.74,3.99-.19,5.54,1.57,1.57,3.31,1.34,5.24-.67L39.78,3.56c.14-.15.22-.35.22-.55v-.73c0-1.26-1.02-2.28-2.28-2.28H2.28Z"/>
  <path class="cls-1" d="M94.53,11.17c-.69,1.41-1.04,3.04-1.04,4.91s.35,3.51,1.04,4.94c.71,1.41,1.68,2.5,2.89,3.28,1.21.76,2.57,1.14,4.06,1.14,1.28,0,2.39-.26,3.35-.78.65-.35,1.2-.77,1.65-1.27.19-.21.59-.09.59.2v1.32c0,.15.12.28.28.28h5c.15,0,.28-.12.28-.28V1.41c0-.15-.12-.28-.28-.28h-5c-.15,0-.28.12-.28.28v7.22c0,.27-.38.4-.57.2-.48-.52-1.07-.95-1.77-1.3-.97-.5-2.06-.75-3.25-.75-1.49,0-2.85.38-4.06,1.14-1.21.76-2.18,1.84-2.89,3.25ZM105.9,12.83c.78.8,1.17,1.9,1.17,3.28s-.39,2.48-1.17,3.28c-.76.8-1.69,1.2-2.79,1.2s-2.05-.4-2.83-1.2c-.76-.82-1.14-1.93-1.14-3.31s.38-2.47,1.14-3.25c.78-.8,1.72-1.2,2.83-1.2s2.04.4,2.79,1.2Z"/>
  <path class="cls-1" d="M121.91,6.79c1.28,0,2.39.26,3.35.78.65.35,1.2.77,1.65,1.26.19.21.59.08.59-.2v-1.31c0-.15.12-.28.28-.28h5c.15,0,.28.12.28.28v17.82c0,1.67-.34,3.17-1.01,4.52-.65,1.36-1.66,2.45-3.02,3.25-1.34.8-3.02,1.2-5.04,1.2-2.69,0-4.86-.64-6.53-1.92-1.59-1.2-2.53-2.8-2.82-4.83-.02-.16.11-.31.27-.31h4.96c.13,0,.24.09.28.21.2.59.59,1.07,1.17,1.42.65.41,1.45.62,2.4.62,1.15,0,2.06-.34,2.73-1.01.69-.65,1.04-1.7,1.04-3.15v-1.62c0-.28-.39-.4-.57-.19-.46.51-1.02.96-1.67,1.33-.95.52-2.07.78-3.35.78-1.5,0-2.85-.38-4.06-1.14-1.21-.78-2.18-1.87-2.89-3.28-.69-1.43-1.04-3.08-1.04-4.94s.35-3.5,1.04-4.91c.71-1.41,1.68-2.49,2.89-3.25s2.57-1.14,4.06-1.14ZM127.5,16.11c0-1.39-.39-2.48-1.17-3.28-.76-.8-1.69-1.2-2.79-1.2s-2.05.4-2.83,1.2c-.76.78-1.14,1.86-1.14,3.25s.38,2.49,1.14,3.31c.78.8,1.72,1.2,2.83,1.2s2.04-.4,2.79-1.2c.78-.8,1.17-1.9,1.17-3.28Z"/>
  <path class="cls-1" d="M152.54,15.82c0,.44-.02.9-.07,1.38-.01.14-.13.25-.27.25h-12.03c-.16,0-.29.14-.27.3.12.98.47,1.75,1.04,2.3.65.58,1.44.88,2.37.88,1.32,0,2.26-.53,2.81-1.59.05-.1.15-.16.26-.16h5.38c.18,0,.31.17.26.34-.32,1.05-.84,2.01-1.56,2.87-.78.95-1.76,1.7-2.96,2.24-1.19.54-2.52.81-4,.81-1.78,0-3.36-.38-4.74-1.14-1.39-.76-2.47-1.84-3.25-3.25-.78-1.41-1.17-3.05-1.17-4.94s.38-3.53,1.14-4.94c.78-1.41,1.86-2.49,3.25-3.25,1.39-.76,2.98-1.14,4.78-1.14s3.31.37,4.68,1.1c1.36.74,2.43,1.79,3.18,3.15.78,1.36,1.17,2.96,1.17,4.78ZM146.58,14.36c.15,0,.28-.12.27-.28-.06-.82-.38-1.49-.96-2-.65-.56-1.46-.84-2.44-.84s-1.72.27-2.37.81c-.56.48-.93,1.15-1.11,1.99-.04.17.09.32.26.32h6.35Z"/>
  <path d="M91.95,7.05c.15,0,.28.12.28.28v17.57c0,.15-.12.28-.28.28h-5c-.15,0-.28-.12-.28-.28v-1.31c0-.27-.37-.4-.56-.2-.48.5-1.06.92-1.75,1.27-.95.48-2.01.71-3.18.71-1.39,0-2.61-.3-3.67-.91-1.06-.63-1.88-1.53-2.47-2.7s-.88-2.55-.88-4.13V7.32c0-.15.12-.28.28-.28h4.97c.15,0,.28.12.28.28v9.57c0,1.21.31,2.16.94,2.83.63.67,1.47,1.01,2.53,1.01s1.94-.34,2.57-1.01c.63-.67.94-1.61.94-2.83V7.32c0-.15.12-.28.28-.28h5Z"/>
  <path d="M71.46,17.9V2.65c0-.15-.12-.28-.28-.28h-5c-.15,0-.28.12-.28.28v15.25c0,.82-.18,1.45-.55,1.88-.37.43-.89.65-1.56.65-.74,0-1.3-.24-1.69-.71-.35-.45-.54-1.08-.58-1.9,0-.15-.13-.28-.28-.28h-4.97c-.15,0-.28.12-.27.28.05,2.38.78,4.22,2.17,5.54,1.45,1.36,3.38,2.05,5.78,2.05s4.12-.65,5.46-1.95c1.36-1.3,2.05-3.15,2.05-5.56Z"/>
  <path class="cls-1" d="M211.19,16c0,.44-.02.9-.07,1.38-.01.14-.13.25-.27.25h-12.03c-.16,0-.29.14-.27.3.12.98.47,1.75,1.04,2.3.65.58,1.44.88,2.37.88,1.32,0,2.26-.53,2.81-1.59.05-.1.15-.16.26-.16h5.38c.18,0,.31.17.26.34-.32,1.05-.84,2.01-1.56,2.87-.78.95-1.77,1.7-2.96,2.24-1.19.54-2.52.81-4,.81-1.78,0-3.36-.38-4.74-1.14-1.39-.76-2.47-1.84-3.25-3.25-.78-1.41-1.17-3.05-1.17-4.94s.38-3.53,1.14-4.94c.78-1.41,1.86-2.49,3.25-3.25,1.39-.76,2.98-1.14,4.78-1.14s3.31.37,4.68,1.1c1.37.74,2.43,1.79,3.18,3.15.78,1.36,1.17,2.96,1.17,4.78ZM205.22,14.53c.15,0,.28-.12.27-.28-.06-.82-.38-1.49-.97-2-.65-.56-1.46-.84-2.44-.84s-1.72.27-2.37.81c-.56.48-.93,1.15-1.11,1.99-.04.17.1.32.26.32h6.35Z"/>
  <path d="M184.46,7.03c2.25,0,4.04.68,5.36,2.05,1.34,1.36,2.01,3.26,2.01,5.69v10.31c0,.15-.12.28-.28.28h-4.97c-.15,0-.28-.12-.28-.28v-9.57c0-1.17-.31-2.07-.94-2.7-.61-.65-1.45-.97-2.53-.97s-1.94.32-2.57.97c-.61.63-.91,1.53-.91,2.7v9.57c0,.15-.12.28-.28.28h-4.97c-.15,0-.28-.12-.28-.28v-9.57c0-1.17-.31-2.07-.94-2.7-.61-.65-1.45-.97-2.53-.97s-1.94.32-2.57.97c-.61.63-.91,1.53-.91,2.7v9.57c0,.15-.12.28-.28.28h-5c-.15,0-.28-.12-.28-.28V7.5c0-.15.12-.28.28-.28h5c.15,0,.28.12.28.28v1.16c0,.27.36.39.55.21.47-.46,1.02-.85,1.66-1.15.91-.45,1.94-.68,3.09-.68,1.36,0,2.58.29,3.64.88.95.51,1.71,1.21,2.29,2.1.12.18.38.18.5.01.6-.82,1.36-1.51,2.3-2.05,1.08-.63,2.26-.94,3.54-.94Z"/>
  <path d="M153.98,24.77c.63.56,1.43.84,2.4.84s1.73-.28,2.34-.84c.63-.58.94-1.3.94-2.14s-.32-1.59-.94-2.18c-.61-.58-1.39-.88-2.34-.88s-1.78.29-2.4.88c-.61.58-.91,1.31-.91,2.18s.3,1.56.91,2.14Z"/>
  <path d="M209.41,32.13c-.04-.39-.22-.69-.52-.91-.3-.22-.7-.32-1.19-.32-.34,0-.64.05-.88.16-.25.1-.43.24-.57.42-.13.18-.2.38-.2.61,0,.19.04.35.13.49.09.14.21.26.36.36.15.09.32.17.5.24.18.07.37.12.56.16l.85.21c.34.08.67.19.99.32.32.14.61.31.86.52.25.21.46.46.6.75.15.29.22.64.22,1.03,0,.53-.14,1-.41,1.41-.27.4-.67.72-1.18.95-.51.23-1.13.34-1.86.34s-1.32-.11-1.85-.33c-.52-.22-.93-.54-1.22-.96-.29-.42-.45-.93-.47-1.54h1.62c.02.32.12.58.29.79s.4.37.67.47c.28.1.59.16.93.16s.67-.05.94-.16c.27-.11.49-.26.64-.45.15-.2.23-.42.24-.68,0-.24-.07-.43-.21-.59-.14-.16-.33-.29-.57-.39-.24-.11-.53-.2-.85-.28l-1.04-.27c-.75-.19-1.34-.48-1.78-.88-.43-.39-.65-.92-.65-1.57,0-.54.15-1.01.44-1.41.29-.4.69-.72,1.19-.94.5-.23,1.07-.34,1.71-.34s1.21.11,1.7.34c.49.22.87.53,1.15.93.28.39.42.85.43,1.36h-1.59Z"/>
  <path d="M193.33,38.73l-2.57-9.1h1.77l1.64,6.69h.08l1.75-6.69h1.61l1.76,6.69h.08l1.64-6.69h1.77l-2.57,9.1h-1.63l-1.82-6.39h-.07l-1.83,6.39h-1.63Z"/>
  <path d="M183.31,29.62v9.1h5.96v-1.38h-4.31v-2.48h3.96v-1.38h-3.96v-2.47h4.27v-1.38h-5.92Z"/>
  <path d="M181.03,29.62v9.1h-1.65v-9.1h1.65Z"/>
  <path d="M173.4,36.79l-2.37-7.17h-1.81l3.21,9.1h2.04l3.21-9.1h-1.81l-2.37,7.17h-.09Z"/>
  <path d="M161.71,38.73v-9.1h5.92v1.38h-4.27v2.47h3.96v1.38h-3.96v2.48h4.31v1.38h-5.96Z"/>
  <path class="cls-1" d="M153.07,29.62v9.1h1.65v-3.33h1.68l1.79,3.33h1.84l-1.97-3.6c.06-.02.12-.05.17-.08.48-.23.84-.56,1.09-.99.25-.43.37-.94.37-1.52s-.12-1.09-.37-1.52c-.24-.44-.6-.78-1.08-1.02-.47-.24-1.06-.36-1.76-.36h-3.41ZM154.72,34.03v-3.02h1.51c.41,0,.75.06,1.01.18.26.12.46.29.58.52.13.23.19.5.19.83s-.06.6-.19.82c-.12.22-.32.39-.58.5-.26.11-.6.17-1,.17h-1.52Z"/>
</svg>