<svg fill="#000" width="190" height="70" viewBox="0 0 270 41" version="1.1" xmlns="http://www.w3.org/2000/svg" xmlns:xlink="http://www.w3.org/1999/xlink">
<title>medium-logo-v2</title>
<desc>Created using Figma</desc>
<g id="Canvas" transform="translate(-10160 -258)">
<clipPath id="clip-0" clip-rule="evenodd">
<path d="M 10160 258L 10430 258L 10430 299L 10160 299L 10160 258Z" fill="#000"/>
</clipPath>
<g id="medium-logo-v2" clip-path="url(#clip-0)">
<g id="g4615">
<g id="path4583">
<use xlink:href="#path0_fill" transform="matrix(0.694743 0 0 0.694743 10160 258)" fill="#000"/>
</g>
<g id="g4613">
<g id="path4593">
<use xlink:href="#path1_fill" transform="matrix(3.3146 0 0 3.3146 10216.3 269.46)" fill="#000"/>
</g>
<g id="path4595">
<use xlink:href="#path2_fill" transform="matrix(3.3146 0 0 3.3146 10240.1 269.459)" fill="#000"/>
</g>
<g id="path4597">
<use xlink:href="#path3_fill" transform="matrix(3.3146 0 0 3.3146 10263.8 260.423)" fill="#000"/>
</g>
<g id="path4599">
<use xlink:href="#path4_fill" transform="matrix(3.3146 0 0 3.3146 10290.5 269.46)" fill="#000"/>
</g>
<g id="path4601">
<use xlink:href="#path5_fill" transform="matrix(3.3146 0 0 3.3146 10315.9 269.658)" fill="#000"/>
</g>
<g id="path4603">
<use xlink:href="#path6_fill" transform="matrix(3.3146 0 0 3.3146 10358 269.46)" fill="#000"/>
</g>
<g id="path4605">
<use xlink:href="#path7_fill" transform="matrix(3.3146 0 0 3.3146 10383 260.423)" fill="#000"/>
</g>
<g id="path4607">
<use xlink:href="#path8_fill" transform="matrix(3.3146 0 0 3.3146 10334.2 269.46)" fill="#000"/>
</g>
<g id="path4609">
<use xlink:href="#path9_fill" transform="matrix(3.3146 0 0 3.3146 10409 269.457)" fill="#000"/>
</g>
</g>
</g>
</g>
</g>
<defs>
<path id="path0_fill" d="M -7.77408e-05 8.37931e-05L -7.77408e-05 7.37687L -7.77408e-05 51.6378L -7.77408e-05 59.0146L 17.8083 59.0146L 19.7879 51.6378L 7.38802 51.6378L 7.38802 7.37687L 31.665 7.37687L 33.6446 8.37931e-05L -7.77408e-05 8.37931e-05ZM 41.2931 8.37931e-05L 39.3135 7.37687L 51.7137 7.37687L 51.7137 51.6378L 27.4365 51.6378L 25.4569 59.0146L 59.1015 59.0146L 59.1015 59.0144L 59.1015 51.6378L 59.1015 8.37931e-05L 41.2931 8.37931e-05Z"/>
<path id="path1_fill" d="M 3.02962 6.96462e-05C 2.18194 6.96462e-05 1.46321 0.282563 0.872673 0.847069C 0.290968 1.40312 -9.44514e-05 2.16663 -9.44514e-05 3.13778C -9.44514e-05 4.10056 0.290968 4.868 0.872673 5.44072C 1.46321 6.0134 2.19406 6.29997 3.06685 6.29997C 3.44908 6.29997 3.80649 6.24605 4.13942 6.13809C 4.48026 6.03019 4.75485 5.89726 4.96224 5.73953C 5.17846 5.5819 5.34458 5.44097 5.46083 5.31649C 5.58545 5.19196 5.66439 5.1002 5.69787 5.04216C 5.71182 5.01988 5.72126 5.00247 5.73056 4.98413L 5.10482 4.46994C 4.97788 4.67363 4.73587 4.88517 4.37737 5.10474C 4.01979 5.32059 3.58388 5.42848 3.06867 5.42848C 2.55299 5.42848 2.08758 5.22491 1.67188 4.81817C 1.25664 4.40322 1.04886 3.84727 1.04886 3.15002C 1.04886 2.4446 1.26098 1.88815 1.68459 1.48141C 2.10866 1.07477 2.57408 0.871554 3.08138 0.871554C 3.59659 0.871554 4.01947 1.00842 4.35194 1.28236C 4.68115 1.55347 4.85162 1.83705 4.86325 2.13253L 4.86325 2.50298L 5.73692 2.50298L 5.73692 1.43063L 5.73692 1.34493L 5.73692 0.0744315L 4.94952 0.0744315L 4.94952 0.919617C 4.51708 0.306684 3.87727 6.96462e-05 3.03052 6.96462e-05L 3.02962 6.96462e-05Z"/>
<path id="path2_fill" d="M 3.00542 0.000348231C 2.16564 0.000348231 1.4547 0.282842 0.872993 0.847347C 0.291288 1.4034 0.00022523 2.16691 0.00022523 3.13805C 0.00022523 4.10084 0.291288 4.86828 0.872993 5.441C 1.46307 6.01368 2.19438 6.30025 3.06717 6.30025C 3.44986 6.30025 3.80727 6.24632 4.13974 6.13837C 4.48058 6.03047 4.75471 5.89754 4.96256 5.73981C 5.17878 5.58218 5.34537 5.44125 5.46115 5.31676C 5.57787 5.19224 5.65246 5.10048 5.68547 5.04244C 5.69942 5.02062 5.71341 5.00274 5.72271 4.9844L 5.10787 4.47929C 4.98139 4.68382 4.73805 4.89246 4.37769 5.10502C 4.02057 5.32087 3.58901 5.42876 3.0817 5.42876C 2.57486 5.42876 2.11767 5.24186 1.71034 4.86833C 1.31138 4.49484 1.09537 3.96398 1.0619 3.27499L 3.94811 3.27499L 5.72543 3.27499C 5.72543 3.22243 5.72543 3.16644 5.72543 3.11221L 5.72543 3.06233C 5.72543 3.04562 5.72543 3.0294 5.72543 3.01246C 5.72543 3.01246 5.72543 3.00796 5.72543 3.00611C 5.72543 2.98196 5.72543 2.95812 5.72543 2.93356C 5.72543 2.82682 5.72111 2.72265 5.71181 2.62115C 5.71181 2.62115 5.71181 2.61576 5.71181 2.61344C 5.65043 1.8783 5.41492 1.28083 5.00433 0.821956C 4.5226 0.274165 3.85764 -0.000105195 3.00996 -0.000105195L 3.00542 0.000348231ZM 3.00542 0.821956C 3.50389 0.821956 3.90251 0.975589 4.2015 1.28264C 4.50049 1.58978 4.66318 2.00095 4.68828 2.5155L 1.0846 2.5155C 1.15109 1.95113 1.36366 1.52748 1.72124 1.24546C 2.07835 0.963203 2.50648 0.821956 3.00542 0.821956Z"/>
<path id="path3_fill" d="M 3.97899 0.000129861L 3.97899 0.140692C 3.97899 0.145335 3.97899 0.14651 3.97899 0.14976L 3.97899 0.684803C 3.97899 0.689446 3.97899 0.690621 3.97899 0.693871L 3.97899 0.834433L 4.13883 0.834433L 4.83814 0.834433L 4.83814 3.53594C 4.83814 3.6438 4.83781 3.78066 4.85176 3.94675L 4.83814 3.94675C 4.68841 3.60636 4.44244 3.31994 4.1016 3.08751C 3.76076 2.84686 3.33263 2.72658 2.81742 2.72658C 1.97811 2.72658 1.29623 3.01712 0.772184 3.59806C 0.256973 4.17079 0.00022523 4.93031 0.00022523 5.87653C 0.00022523 6.81443 0.256973 7.57405 0.772184 8.15499C 1.29623 8.73607 1.97377 9.02648 2.80471 9.02648C 3.32829 9.02648 3.77335 8.89784 4.13883 8.64061C 4.50478 8.37493 4.75466 8.06785 4.88718 7.71925L 4.9008 7.71925L 4.9008 8.41617C 4.9008 8.41617 4.9008 8.41651 4.9008 8.42115L 4.9008 8.94033L 5.44481 8.94033C 5.44481 8.94033 5.4447 8.94033 5.44935 8.94033L 6.53372 8.94033L 6.68176 8.94033L 6.68176 8.10602L 5.83442 8.10602L 5.83442 0.834887L 5.83442 0.00103671L 5.68366 0.00103671L 4.13792 0.00103671L 3.97899 0.000129861ZM 2.94366 3.59806C 3.48398 3.59806 3.93636 3.80128 4.30231 4.20792C 4.66825 4.6063 4.85085 5.15438 4.85085 5.85159C 4.85085 6.54879 4.6726 7.10913 4.31502 7.53244C 3.95791 7.94744 3.50072 8.15499 2.94366 8.15499C 2.38706 8.15499 1.92553 7.94305 1.55958 7.51974C 1.20247 7.09643 1.02375 6.54048 1.02375 5.85159C 1.02375 5.1626 1.20635 4.61465 1.5723 4.20792C 1.94615 3.80128 2.40334 3.59806 2.94366 3.59806Z"/>
<path id="path4_fill" d="M 2.80612 6.96462e-05C 2.20768 6.96462e-05 1.68758 0.0869417 1.24677 0.261243C 0.816184 0.431783 0.529509 0.606562 0.384897 0.78495L 0.989749 1.39526C 1.03904 1.36276 1.1004 1.32337 1.1841 1.27012C 1.28407 1.21208 1.44676 1.13736 1.67089 1.04612C 1.89548 0.946529 2.26114 0.896492 2.76798 0.896492C 3.84862 0.896492 4.38909 1.41515 4.38909 2.45265L 4.38909 2.60228L 3.34104 2.60228C 2.30225 2.60228 1.48375 2.76418 0.885308 3.0879C 0.295233 3.40326 -0.000174372 3.9014 -0.000174372 4.58194C -0.000174372 5.1132 0.190668 5.53662 0.572891 5.85198C 0.955115 6.15912 1.44615 6.31221 2.04506 6.31221C 3.05921 6.31221 3.86946 5.89317 4.47628 5.05486L 4.49898 5.05486L 4.49898 5.68966C 4.49898 5.68966 4.49898 5.6946 4.49898 5.69646L 4.49898 6.21291L 6.26995 6.21291L 6.26995 5.37861L 6.12191 5.37861L 5.42352 5.37861L 5.42352 2.49028C 5.42352 0.83029 4.55079 6.96462e-05 2.80521 6.96462e-05L 2.80612 6.96462e-05ZM 3.40371 3.34907L 4.38909 3.34907L 4.38909 4.35794C 3.8404 5.07159 3.16287 5.42848 2.35657 5.42848C 1.97435 5.42848 1.662 5.33713 1.42114 5.15461C 1.18818 4.96364 1.07239 4.72287 1.07239 4.43231C 1.07239 4.14183 1.1804 3.91372 1.39662 3.74763C 1.62121 3.58164 1.89099 3.47371 2.20672 3.42389C 2.52245 3.37407 2.92151 3.34907 3.40371 3.34907Z"/>
<path id="path5_fill" d="M 4.47747 0.00247897C 4.05898 0.00247897 3.68117 0.0660166 3.34405 0.18929C 3.01158 0.313771 2.75348 0.454704 2.57028 0.612337C 2.39544 0.761704 2.23412 0.953034 2.0844 1.18547C 1.93514 1.41781 1.84751 1.60037 1.82193 1.7332L 1.7847 1.7332L 1.7847 0.861267L 1.7847 0.0274174L 1.62213 0.0274174L 0.163583 0.0274174L 0.00192536 0.0274174L 0.00192536 0.173874L 0.00192536 0.70937L 0.00192536 0.855826L 0.161766 0.855826L 0.847447 0.855826L 0.847447 5.313L 0.161766 5.313L 0.000108982 5.313L 0.000108982 5.45946C 0.000108982 5.45946 0.000108982 5.45935 0.000108982 5.46399L 0.000108982 5.99949C 0.000108982 5.99949 0.000108982 5.99938 0.000108982 6.00402L 0.000108982 6.15048L 0.15995 6.15048L 2.54122 6.15048L 2.70287 6.15048L 2.70287 6.0013L 2.70287 5.46581L 2.70287 5.31617L 2.54031 5.31617L 1.87915 5.31617L 1.87915 3.22452C 1.87915 2.64344 2.09081 2.12483 2.51488 1.66837C 2.93849 1.21181 3.50802 0.983692 4.22318 0.983692L 4.25587 0.983692L 4.48474 0.983692L 4.64639 0.983692L 4.64639 0.821819L 4.64639 0.161631L 4.64639 0.00021184L 4.48474 0.00021184L 4.47747 0.00247897Z"/>
<path id="path6_fill" d="M 5.33696 5.42839C 4.75479 6.00939 4.01044 6.29987 3.10463 6.29987C 2.19883 6.29987 1.45539 6.01337 0.873218 5.44063C 0.291358 4.85963 0.000450461 4.09218 0.000450461 3.13768C 0.000450461 2.17486 0.294795 1.4109 0.885024 0.846523C 1.47525 0.282079 2.21526 -2.32154e-05 3.10463 -2.32154e-05C 4.00238 -2.32154e-05 4.74238 0.286479 5.32424 0.859219C 5.91447 1.4236 6.20972 2.18316 6.20972 3.13768C 6.20972 4.08391 5.91882 4.84739 5.33696 5.42839ZM 1.04759 3.13768C 1.04759 3.8183 1.24621 4.36985 1.64518 4.79314C 2.04445 5.21647 2.53114 5.42839 3.10463 5.42839C 3.68649 5.42839 4.17693 5.21647 4.5759 4.79314C 4.97486 4.36985 5.17439 3.8183 5.17439 3.13768C 5.17439 2.45707 4.97111 1.90901 4.56409 1.49401C 4.16482 1.07902 3.68247 0.871461 3.11735 0.871461C 2.55192 0.871461 2.06522 1.07902 1.65789 1.49401C 1.25056 1.90901 1.04759 2.45707 1.04759 3.13768Z"/>
<path id="path7_fill" d="M 3.97954 0.000129861L 3.97954 0.140692C 3.97954 0.145335 3.97954 0.14651 3.97954 0.14976L 3.97954 0.684803C 3.97954 0.689446 3.97954 0.691085 3.97954 0.693871L 3.97954 0.834433L 4.13938 0.834433L 4.83869 0.834433L 4.83869 3.5364C 4.83869 3.64421 4.83836 3.78112 4.85231 3.9472L 4.83869 3.9472C 4.6885 3.60677 4.44254 3.32039 4.10124 3.08796C 3.76087 2.84731 3.33318 2.72658 2.81797 2.72658C 1.9782 2.72658 1.29632 3.01757 0.772736 3.59852C 0.257525 4.17124 -0.000130779 4.93027 -0.000130779 5.87653C -0.000130779 6.81443 0.257525 7.57405 0.772736 8.15499C 1.29632 8.73607 1.97385 9.02648 2.80526 9.02648C 3.32884 9.02648 3.77344 8.89784 4.13938 8.64061C 4.50533 8.37489 4.75474 8.06781 4.88773 7.71925L 4.90135 7.71925L 4.90135 8.41662L 4.90135 8.42115L 4.90135 8.94033L 5.44627 8.94033L 5.44627 8.94078L 6.53155 8.94078L 6.53155 8.94033L 6.67958 8.94033L 6.67958 8.10648L 5.83134 8.10648L 5.83134 0.83534L 5.83134 0.00103671L 5.68149 0.00103671L 4.13484 0.00103671L 3.97954 0.000129861ZM 2.94421 3.59806C 3.48453 3.59806 3.93691 3.80128 4.30286 4.20792C 4.66881 4.60634 4.8514 5.15438 4.8514 5.85159C 4.8514 6.54884 4.67359 7.10908 4.31648 7.53244C 3.95844 7.94739 3.50127 8.15499 2.94421 8.15499C 2.38715 8.15499 1.92562 7.94305 1.56013 7.51974C 1.20209 7.09648 1.0243 6.54048 1.0243 5.85159C 1.0243 5.1626 1.2069 4.61465 1.57285 4.20792C 1.9467 3.80128 2.40389 3.59806 2.94421 3.59806Z"/>
<path id="path8_fill" d="M 3.0294 6.96462e-05C 2.18172 6.96462e-05 1.46206 0.282563 0.872455 0.847069C 0.290286 1.40312 -0.000312416 2.16663 -0.000312416 3.13778C -0.000312416 4.10056 0.290286 4.868 0.872455 5.44072C 1.46206 6.0134 2.19385 6.29997 3.06663 6.29997C 3.44886 6.29997 3.8072 6.24609 4.1392 6.13809C 4.48051 6.03014 4.75373 5.89726 4.96111 5.73953C 5.1778 5.5819 5.34481 5.44101 5.46152 5.31649C 5.58521 5.19201 5.66417 5.1002 5.69765 5.04216C 5.7116 5.01988 5.71651 5.00293 5.7258 4.98413L 5.10006 4.46994C 4.97312 4.67359 4.73202 4.88521 4.37351 5.10474C 4.01594 5.32059 3.57912 5.42848 3.06391 5.42848C 2.5487 5.42848 2.08282 5.22495 1.66712 4.81817C 1.25142 4.40322 1.0441 3.84718 1.0441 3.15002C 1.0441 2.44455 1.25576 1.88815 1.67983 1.48141C 2.10344 1.07477 2.56932 0.871554 3.07662 0.871554C 3.5923 0.871554 4.01562 1.00846 4.34809 1.28236C 4.67683 1.55356 4.84686 1.83705 4.85849 2.13253L 4.85849 2.50298L 5.73307 2.50298L 5.73307 1.43063L 5.73307 1.34493L 5.73307 0.0744315L 4.94476 0.0744315L 4.94476 0.919617C 4.51279 0.306638 3.87342 6.96462e-05 3.02667 6.96462e-05L 3.0294 6.96462e-05Z"/>
<path id="path9_fill" d="M 3.00533 0.000812539C 2.16555 0.000812539 1.45507 0.283306 0.872905 0.847812C 0.291201 1.40387 0.000138044 2.16737 0.000138044 3.13852C 0.000138044 4.10131 0.291201 4.86874 0.872905 5.44147C 1.46298 6.01415 2.19476 6.30071 3.06708 6.30071C 3.44977 6.30071 3.80718 6.24679 4.13965 6.13884C 4.48049 6.03093 4.75462 5.89805 4.96247 5.74028C 5.17916 5.58269 5.34528 5.44176 5.46106 5.31723C 5.57778 5.19275 5.65237 5.10095 5.68539 5.04291C 5.70399 5.02108 5.71343 5.00321 5.71808 4.98487L 5.10324 4.47975C 4.97676 4.68428 4.73343 4.89292 4.37306 5.10548C 4.01594 5.32134 3.58392 5.42923 3.07707 5.42923C 2.56977 5.42923 2.11305 5.24233 1.70571 4.86879C 1.30675 4.4953 1.09075 3.96444 1.05727 3.27545L 3.94348 3.27545L 5.72081 3.27545C 5.72081 3.22285 5.72081 3.1669 5.72081 3.11267L 5.72081 3.0628C 5.72081 3.04608 5.72081 3.03033 5.72081 3.01292C 5.72081 3.00828 5.72081 3.00844 5.72081 3.00612C 5.72081 2.98244 5.72081 2.95813 5.72081 2.93357C 5.72081 2.82683 5.71194 2.72266 5.70264 2.62116C 5.70264 2.61652 5.70264 2.61624 5.70264 2.61345C 5.64126 1.87831 5.40529 1.28084 4.99516 0.821967C 4.51297 0.27413 3.848 -9.43126e-05 3.00079 -9.43126e-05L 3.00533 0.000812539ZM 3.00533 0.82242C 3.50426 0.82242 3.90242 0.9761 4.20141 1.2831C 4.5004 1.59029 4.66355 2.00142 4.6882 2.51597L 1.08451 2.51597C 1.15101 1.95165 1.36311 1.52794 1.72115 1.24592C 2.07827 0.963667 2.50639 0.82242 3.00533 0.82242Z"/>
</defs>
</svg>
