<svg height="70" viewBox="0 0 190 70" width="190" xmlns="http://www.w3.org/2000/svg"><path d="m62.3227273 20.9987273c1.2412684-.0003376 2.4317947.4926048 3.3095041 1.3703142s1.3706518 2.0682357 1.3703142 3.3095041v18.6429091c0 1.2412167-.492828 2.4316448-1.3705007 3.3093176-.8776728.8776727-2.0681009 1.3705006-3.3093176 1.3705006h-18.6429091c-2.5845922 0-4.6798182-2.095226-4.6798182-4.6798182v-18.6429091c0-2.5845922 2.095226-4.6798183 4.6798182-4.6798183zm37.1318182 12.0909092v-1.9090909h1.7818185v17.8181818h-1.7818185v-7c-1.0181819 1.4-2.5454546 2.1636364-4.3272728 2.1636364-3.4363636 0-5.7272727-2.6727273-5.7272727-6.6181818 0-3.9454546 2.4181818-6.6181818 5.7272727-6.6181818 1.7818182-.1272728 3.3090909.7636363 4.3272728 2.1636363zm-18.3272728-7.1272727c2.4181818 0 4.4545455 1.0181818 5.8545455 2.8l.1272727.1272727-1.5272727 1.1454546-.1272727-.1272728c-1.1454546-1.2727272-2.6727273-2.0363636-4.4545455-2.0363636-1.9090909 0-3.8181818.8909091-3.8181818 2.8 0 1.0181818.5090909 1.7818182 1.7818182 2.2909091.6363636.2545454 1.4.5090909 2.2909091.7636364 2.6727272.7636363 6.1090909 1.6545454 6.1090909 5.2181818 0 3.1818182-2.5454546 5.2181818-6.2363637 5.2181818-2.8 0-5.0909091-1.1454546-6.4909091-3.1818182v-.1272727l1.5272728-1.1454546.1272727.1272728c1.4 2.1636363 3.6909091 2.5454545 4.9636364 2.5454545 2.4181818 0 4.0727272-1.2727273 4.0727272-3.3090909s-1.6545454-2.5454545-4.3272727-3.3090909c-2.5454545-.6363636-5.8545455-1.5272727-5.8545455-4.9636364 0-1.5272727.6363637-2.6727272 1.909091-3.6909091 1.0181818-.7636363 2.5454545-1.1454545 4.0727272-1.1454545zm24.9454543 5.2181818v7.6363636c0 2.4181819 1.018182 3.5636364 2.927273 3.5636364 2.418182 0 4.072727-1.7818182 4.072727-4.2v-7h1.654546v12.7272727h-1.781818v-1.7818181c-1.018182 1.2727272-2.418182 2.0363636-4.2 2.0363636-2.8 0-4.454546-1.7818182-4.454546-4.8363636v-8.1454546zm17.181818-.3818182c2.8 0 4.581819 1.4 4.581819 3.8181818v9.2909091h-1.781819v-1.4c-.890909 1.1454546-2.163636 1.6545455-3.945454 1.6545455-2.8 0-4.454546-1.5272727-4.454546-3.9454546 0-3.1818181 2.927273-3.5636363 4.2-3.8181818.254546 0 .381819-.1272727.636364-.1272727 1.781818-.2545455 3.436364-.5090909 3.436364-2.0363636 0-1.6545455-2.163637-1.7818182-2.8-1.7818182-1.145455 0-2.8.3818182-3.945455 1.2727273v.2545454l-.890909-1.5272727c1.272727-1.0181818 3.054546-1.6545455 4.963636-1.6545455zm21.381819 0c3.436363 0 5.727272 2.4181818 5.727272 5.9818182v1.0181818h-9.8c0 2.8 1.781819 4.5818182 4.327273 4.5818182 1.527273 0 2.8-.6363636 3.563636-1.6545454l.127273-.1272728 1.272727 1.1454546-.127272.1272727c-.890909 1.0181818-2.418182 2.2909091-4.963637 2.2909091-3.690909 0-6.109091-2.6727273-6.109091-6.6181818 0-3.9454546 2.418182-6.7454546 5.981819-6.7454546zm-84.2010913-4.7065456h-14.8648182c-.3917765 0-.7675553.1553891-1.0445832.4324169-.2770278.2770279-.4324169.6528068-.4324169 1.0445833v14.8654545c0 .3916663.1556325.7672816.432642 1.0441718s.6526919.432192 1.0443581.432192h14.8648182c.8153731 0 1.4763638-.6609907 1.4763638-1.4763638v-14.8654545c0-.3916663-.1553018-.7673486-.432192-1.0443582-.2768902-.2770095-.6525055-.432642-1.0441718-.432642zm75.9283633 4.8338184c.636364 0 1.4.2545454 1.781819.5090909l-.381819 1.6545454-.127272-.1272727c-.381819-.1272727-.890909-.2545455-1.4-.2545455-1.781819 0-3.436364 1.2727273-3.436364 4.3272728v6.8727272h-1.781818v-12.7272727h1.781818v1.6545455c.763636-1.1454546 2.163636-1.9090909 3.563636-1.9090909zm-40.9818178 1.6545454c-3.0545455 0-4.0727273 2.5454546-4.0727273 4.9636364 0 3.6909091 2.0363636 4.9636363 4.0727273 4.9636363 2.5454545 0 4.2-1.9090909 4.2-4.9636363 0-3.0545455-1.6545455-4.9636364-4.2-4.9636364zm30.5454548 4.4545455c-.890909.5090909-2.163637.7636363-3.181818 1.0181818l-.509091.1272727c-1.909091.1272727-2.8.6363636-2.8 2.0363636 0 2.0363637 1.909091 2.2909091 2.8 2.2909091 1.781818 0 3.690909-1.0181818 3.690909-3.6909091zm-69.9548185-5.8539091c.4696364 0 .8476364.3818182.8476364.8520909v5.9334545c0 .4702728-.378.8520909-.8476364.8520909h-5.9423636c-.4683636 0-.8476364-.3818181-.8476364-.8520909v-5.9334545c0-.4702727.3792728-.8520909.8476364-.8520909zm88.5366365 1.3993636c-2.163636 0-3.690909 1.4-3.945455 3.6909091h7.890909c-.127272-1.7818182-1.272727-3.6909091-3.945454-3.6909091z"/></svg>