<svg width="190" height="70" viewBox="0 0 170 40" fill="#000" xmlns="http://www.w3.org/2000/svg">
<g clip-path="url(#clip0_2359_1386)" fill="#000">
<path style="fill:#000000" d="M0.156372 30.7688H12.5855C14.9073 30.7688 16.8436 29.9634 18.3964 28.3507C19.96 26.807 20.7564 24.7107 20.7836 22.0597C20.7836 20.4634 20.4 18.9834 19.6309 17.6234C18.8073 16.3052 17.5927 15.4288 15.9873 14.9943V14.9088C16.7625 14.5377 17.4842 14.0637 18.1327 13.4997C18.7127 13.0088 19.1582 12.4907 19.4691 11.9434C20.0665 10.8326 20.3659 9.58608 20.3382 8.3252C20.3382 5.85793 19.6036 3.87429 18.1327 2.37429C16.6746 0.887017 14.4964 0.130653 11.5946 0.101562H0.156372V30.7688ZM11.5127 17.1597C13.1727 17.1888 14.3873 17.6434 15.1564 18.527C15.9255 19.4252 16.3109 20.5052 16.3109 21.767C16.3109 22.9997 15.9255 24.067 15.1564 24.9634C14.3873 25.8761 13.1727 26.3452 11.5127 26.3725H4.63092V17.1597H11.5127V17.1597ZM11.0873 4.2452C12.72 4.27429 13.9218 4.68702 14.6909 5.48702C15.4727 6.34156 15.8655 7.38702 15.8655 8.61974C15.8655 9.85611 15.4746 10.8779 14.6909 11.6925C13.9218 12.5743 12.72 13.0161 11.0873 13.0161H4.63092V4.2452H11.0873V4.2452ZM25.1964 30.7688H29.4291V8.93611H25.1964V30.7688ZM25.1964 4.49793H29.4291V0.101562H25.1964V4.49793V4.49793ZM46.8582 28.4761V30.727C46.8309 32.2143 46.3855 33.3779 45.5218 34.2179C44.6436 35.0452 43.4836 35.4597 42.04 35.4597C41.2554 35.4273 40.4907 35.2032 39.8127 34.807C39.1317 34.4569 38.5046 34.0105 37.9509 33.4816L34.6709 36.1961C36.6818 38.5779 39.1109 39.7997 41.9582 39.8561C44.4418 39.8561 46.5746 39.0634 48.3564 37.4779C50.1236 35.9361 51.0346 33.5252 51.0891 30.2416V8.93793H46.8582V11.2525C45.3327 9.5252 43.5236 8.6652 41.4327 8.6652C40.0691 8.69247 38.9364 8.9652 38.0327 9.48338C37.0873 10.0325 36.3655 10.647 35.8655 11.3361C35.3127 12.0361 34.9146 12.8997 34.6709 13.9234C34.4164 14.9597 34.2873 16.9452 34.2873 19.8761C34.2873 22.7488 34.4146 24.6997 34.6709 25.7234C34.9146 26.7597 35.3127 27.6361 35.8655 28.3525C36.3655 28.9834 37.0873 29.5707 38.0309 30.1179C38.9364 30.6943 40.0691 30.9961 41.4309 31.0234C43.66 30.9688 45.4673 30.1179 46.8582 28.4779V28.4761ZM38.5182 19.8743C38.5182 18.1761 38.5727 16.9997 38.68 16.3397C38.7746 15.6816 38.9964 15.1488 39.3473 14.7397C39.6309 14.3488 40.0618 13.9634 40.6436 13.5852C41.1964 13.2616 41.8855 13.087 42.7073 13.0579C43.5309 13.087 44.22 13.2616 44.7727 13.5852C45.3255 13.9634 45.7436 14.3488 46.0273 14.7416C46.3782 15.1488 46.6146 15.6816 46.7364 16.3416C46.8182 16.9997 46.8582 18.1779 46.8582 19.8743C46.8582 21.5416 46.8182 22.6925 46.7364 23.3234C46.6416 23.9209 46.3977 24.485 46.0273 24.9634C45.7436 25.3561 45.3255 25.7143 44.7727 26.0361C44.22 26.4288 43.5309 26.6252 42.7073 26.6252C41.8836 26.6252 41.1964 26.4288 40.6436 26.0361C40.0618 25.7143 39.6309 25.3561 39.3473 24.9634C38.9964 24.5288 38.7746 23.9816 38.68 23.3234C38.5709 22.6925 38.5164 21.5416 38.5164 19.8743H38.5182ZM56.96 30.7688H69.3891C71.7091 30.7688 73.6473 29.9634 75.1982 28.3507C76.7637 26.807 77.5618 24.7107 77.5873 22.0597C77.5873 20.4634 77.2018 18.9834 76.4327 17.6234C75.6109 16.3052 74.3964 15.4288 72.7891 14.9943V14.9088C73.64 14.4907 74.3546 14.0179 74.9346 13.4997C75.5164 13.0088 75.96 12.4907 76.2709 11.9434C76.8689 10.8328 77.1689 9.58624 77.1418 8.3252C77.1418 5.85793 76.4055 3.87429 74.9346 2.37429C73.4782 0.887017 71.2982 0.130653 68.3964 0.101562H56.96V30.7688V30.7688ZM68.3164 17.1597C69.9764 17.1888 71.1891 17.6434 71.96 18.527C72.7291 19.4252 73.1127 20.5052 73.1127 21.767C73.1127 22.9997 72.7291 24.067 71.96 24.9634C71.1891 25.8761 69.9764 26.3452 68.3146 26.3725H61.4327V17.1597H68.3164V17.1597ZM67.8909 4.2452C69.5236 4.27429 70.7236 4.68702 71.4946 5.48702C72.2764 6.34156 72.6673 7.38702 72.6673 8.61974C72.6673 9.85611 72.2764 10.8779 71.4946 11.6925C70.7236 12.5743 69.5236 13.0161 67.8909 13.0161H61.4327V4.2452H67.8909V4.2452ZM82 30.7688H86.2309V8.93611H82V30.7688V30.7688ZM82 4.49793H86.2309V0.101562H82V4.49793V4.49793ZM91.8382 30.7707H96.0691V17.7707C96.0691 16.2434 96.4673 15.0779 97.2636 14.2797C98.0455 13.4652 99.0455 13.0579 100.26 13.0579C101.475 13.0579 102.465 13.4652 103.235 14.2779C104.018 15.0779 104.409 16.2416 104.409 17.7688V30.7688H108.64V16.2561C108.573 13.7597 107.824 11.867 106.393 10.5761C104.949 9.30156 103.356 8.66338 101.616 8.66338C99.3618 8.66338 97.54 9.5252 96.1509 11.2507H96.0691V8.93611H91.8382V30.7688V30.7707ZM125.138 30.7707H129.369V15.8543C129.342 13.1907 128.54 11.3107 126.96 10.2179C125.382 9.15247 123.269 8.63247 120.624 8.66156C117.493 8.6052 115.125 9.67065 113.518 11.8579L116.838 14.487C117.202 13.8561 117.702 13.407 118.336 13.1416C118.944 12.9161 119.773 12.8052 120.827 12.8052C123.729 12.7488 125.165 13.6816 125.138 15.6016V17.8943H119.291C117.049 17.9234 115.349 18.5543 114.189 19.787C113.027 20.9943 112.447 22.5143 112.447 24.3507C112.447 26.2725 113.116 27.8507 114.451 29.0852C115.72 30.347 117.529 30.9925 119.876 31.0197C121.307 31.0197 122.427 30.8379 123.238 30.4743C124.021 30.1601 124.666 29.5782 125.06 28.8325H125.14V30.767L125.138 30.7707ZM125.138 23.0925C125.138 24.7325 124.809 25.7834 124.147 26.247C123.418 26.7088 122.169 26.927 120.402 26.8979C118.998 26.8979 117.993 26.6107 117.384 26.0361C116.751 25.5179 116.435 24.887 116.435 24.1452C116.407 22.447 117.622 21.5707 120.078 21.5143H125.138V23.0925V23.0925ZM134.835 30.7688H139.065V17.6234C139.093 16.0234 139.538 14.867 140.402 14.1525C140.769 13.7966 141.203 13.5167 141.679 13.3289C142.155 13.141 142.663 13.049 143.175 13.0579C144.135 13.0579 145.058 13.4216 145.949 14.1525L149.025 10.3452C147.771 9.25247 146.298 8.69065 144.613 8.66338C142.358 8.66338 140.536 9.5252 139.147 11.2507H139.065V8.93611H134.836V30.7688H134.835ZM157.576 29.907L156.424 33.567C156.235 34.1979 155.904 34.6743 155.431 34.9961C154.958 35.3052 154.445 35.4597 153.893 35.4597H152.656V39.6034H154.055C155.364 39.6034 156.538 39.3016 157.576 38.6979C158.602 38.067 159.405 36.9325 159.985 35.2907L169.036 8.93611H164.542L159.582 24.227H159.502L154.52 8.93611H150.047L157.578 29.907H157.576Z" fill="#4F46E5"/>
</g>
<defs>
<clipPath id="clip0_2359_1386">
<rect width="169.091" height="40" fill="#000"/>
</clipPath>
</defs>
</svg>
