<svg fill="none" height="70" viewBox="0 0 190 70" width="190" xmlns="http://www.w3.org/2000/svg"><path d="m139.245 27.6797c.073-.001 9.227-.1135 9.465 7.6377 0 0 .275 6.9112-9.319 6.9668-.039.0008-4.062.0834-7.232-1.0166h-.003c-.163 6.4522 8.086 6.0636 8.13 6.0605 3.041 0 5.913-1.0888 8.313-3.1386v5.7158c-2.289 1.6498-5.566 2.5947-9.008 2.5947-8.093 0-13.329-4.7886-13.329-12.21 0-7.4216 5.347-12.6103 12.983-12.6103zm-93.3773-.0029c1.6664 0 3.0772.2894 4.4492.581 1.2999.2722 2.5478.5244 3.9199.5244.4027 0 .7858-.0361 1.1885-.0722v5.4804c-.475.0722-.9528.1084-1.4277.1084-1.5193 0-2.7998-.3802-4.0274-.7246-1.1916-.325-2.3085-.6533-3.6084-.6533-3.9718.0001-6.7549 2.6116-6.7549 6.8945.0003 4.2827 3.0583 7.2568 7.416 7.2569 2.7276 0 5.8027-1.1798 8.4219-3.2295v5.7519c-1.7748 1.3249-4.7609 2.9024-8.9717 2.9024-7.616-.0001-12.9267-5.0997-12.9267-12.4102 0-3.6829 1.2809-6.8382 3.6807-9.1074 2.2525-2.1414 5.327-3.3027 8.6406-3.3027zm18.8213 2.0166c2.9837-1.5807 15.3956-6.2234 15.415 7.8554v14.5684h-5.9492v-14.5684s.3663-7.4941-9.4658-2.7588v17.3272h-5.9336v-34.6172h5.9336zm24.9365 22.4228h-5.9854v-24.0391h5.9854zm26.0475-24.4394s8.239-.6161 8.258 8.9443v15.4766h-5.985v-14.6045c0-4.2801-2.911-4.3719-3.461-4.2442 0 0-1.042.0528-1.994 1.0332.016.0212 1.903 2.4802 2.05 5.5694.003.0634.396 8.0378-6.078 8.038-6.473 0-6.081-7.9735-6.078-8.038.144-3.0839 2.027-5.54 2.05-5.5694-.95-.9775-1.994-1.0332-1.994-1.0332-.57-.1276-3.461-.0381-3.461 4.2442v14.6045h-5.9854v-15.4766c0-9.549 8.2384-8.9458 8.2574-8.9443 2.142 0 4.741.7615 7.213 3.4111 2.472-2.6498 5.053-3.4111 7.214-3.4111zm-7.224 8.1464c-.02.0362-1.758 1.942-1.722 4.5918.019 1.522.442 3.1188 1.722 3.1192 1.283 0 1.722-1.5943 1.722-3.1192.036-2.6498-1.686-4.5556-1.722-4.5918zm30.501-3.4668c-2.967.0001-5.053 1.3257-6.061 3.8477h-.003l-.239.6885.643.1445c.661.1639 2.086.417 4.504.417 2.42 0 4.999-.2004 4.999-2.4668 0-1.6138-1.407-2.6309-3.843-2.6309zm14.526-4.749c.403 0 .773.0724 1.131.2168.364.1444.681.3495.953.6133.278.2638.494.5808.649.9502.164.3722.245.7833.245 1.2305 0 .4471-.081.861-.245 1.2304-.158.3694-.374.6864-.649.9502-.272.2639-.589.4661-.953.6133-.358.1444-.737.2168-1.131.2168-.439 0-.842-.0747-1.211-.2246-.364-.1555-.678-.3673-.944-.6367-.261-.2693-.466-.5857-.616-.9492-.148-.3722-.22-.7725-.22-1.2002 0-.45.078-.8611.236-1.2305.161-.3694.377-.6891.65-.9502.277-.2639.598-.4661.959-.6133.363-.1443.744-.2167 1.146-.2168zm.695 5.8848c-.064.0155-.129.029-.195.04.066-.011.131-.0245.195-.04zm.674-.2471h.001zm-2.33-.3711c.283.1277.6.1885.958.1885l.001-.001c-.354-.0003-.673-.0637-.956-.1885-.06-.0278-.118-.0587-.175-.0908.056.032.113.0636.172.0918zm.961-4.6474c-.311 0-.614.0583-.889.1777-.269.1139-.505.2753-.708.4863-.202.211-.36.4636-.474.7578-.114.2945-.173.617-.173.9698 0 .3305.052.6418.155.9306.106.2889.254.5412.446.7578.197.2167.433.3889.708.5166.274.1222.585.1865.935.1866.311 0 .603-.0561.872-.17.27-.1194.506-.283.709-.4941s.361-.4612.475-.75c.114-.2944.172-.6193.172-.9775 0-.3583-.058-.6753-.172-.9698-.114-.2942-.272-.5468-.475-.7578-.203-.2111-.439-.3724-.709-.4863-.269-.1165-.561-.1777-.872-.1777zm-1.439.4482c-.07.056-.137.115-.2.1797-.208.2166-.369.4754-.486.7754-.116.2998-.175.6302-.175.9883 0 .336.053.653.158.9502.106.2944.259.5531.457.7754.083.0909.174.1715.27.247-.096-.0758-.186-.1572-.268-.248-.197-.2222-.35-.4801-.456-.7744-.105-.2945-.158-.6114-.158-.9502 0-.3583.058-.6893.175-.9893.117-.2998.281-.5578.486-.7744.062-.0647.128-.124.197-.1797zm1.561.3076c.406 0 .72.0751.937.2334.219.1611.325.4194.325.7637 0 .3053-.086.5387-.267.6914-.155.1278-.342.211-.558.2471l.933 1.4531h-.745l-.855-1.4004h-.425v1.3945h-.652v-3.3828zm.653 3.3272h.003l-.853-1.3994h-.002zm-3.694-1.3711c.024.2711.082.5159.169.7568-.087-.2432-.145-.4973-.169-.7656zm5.808.1611c-.008.052-.017.1035-.027.1543.01-.0505.019-.1016.027-.1533zm-2.405-.2314c.014-.0019.029-.0041.041-.0059.008-.0012.015-.0036.023-.0049-.021.0034-.042.0083-.064.0108zm-3.241-1.3233c-.118.3271-.176.6842-.176 1.0733l.015-.3243c.024-.2646.077-.515.161-.749zm4.07.6387c-.026.1595-.085.2888-.174.3877.089-.0976.148-.2264.174-.3867zm-1.905.2685h.006v-.956h.655c.081 0 .162.0055.248.0166.085.0055.159.0248.228.0547-.001-.0005-.002-.0015-.003-.002-.069-.0305-.147-.0491-.23-.0547-.086-.0111-.167-.0175-.247-.0175h-.657zm.062-.0566h.553c.099 0 .194.0005.283-.0078.089-.0111.164-.0339.225-.0645.061-.0332.111-.0773.147-.1298.036-.0556.055-.1392.055-.2559 0-.0916-.022-.1577-.058-.2021h-.005c-.036-.05-.086-.0924-.147-.1202-.062-.0277-.134-.0442-.211-.0498-.084-.0111-.165-.0166-.243-.0166h-.599zm3.269-.8506c.035.0936.065.1896.09.2881-.025-.0985-.055-.1945-.09-.2881zm-1.714-.2881v.001c.203.1472.303.3886.303.7188l-.005-.1211c-.015-.1934-.07-.3501-.165-.4707-.038-.0484-.082-.0913-.133-.128zm-.622-.207.001-.001zm.309-1.3018c.135.0334.269.0732.399.126.356.1417.667.3423.934.6006v-.001c-.067-.0646-.137-.1252-.209-.1826-.217-.1718-.458-.3108-.725-.417-.13-.0526-.263-.0926-.399-.126zm-2.775.7266c.068-.0646.138-.1263.212-.1836-.074.0573-.144.1181-.212.1826-.017.0164-.032.035-.048.0518.016-.0166.031-.0346.048-.0508zm1.152-.1172c-.049.0205-.096.0438-.143.0674.048-.0238.096-.0469.146-.0674.032-.0139.066-.0248.099-.0371-.034.0124-.069.0232-.102.0371zm.202-.6113c-.14.0335-.279.0746-.413.1279l.271-.0928c.047-.0137.094-.0237.142-.0351zm-66.1249-10.082c1.9582 0 3.5889 1.5586 3.5889 3.5556-.0002 1.9969-1.5753 3.6104-3.5889 3.6104-2.0135-.0002-3.6434-1.6525-3.6436-3.6104 0-1.958 1.6495-3.5554 3.6436-3.5556zm65.5339 10.9033c.016-.0106.033-.0181.049-.0283-.016.0102-.033.0177-.049.0283z" fill="#1ec677"/></svg>