<svg height="70" viewBox="0 0 190 70" width="190" xmlns="http://www.w3.org/2000/svg"><path d="m115.718661 30.7140782c5.294293 0 8.293232 4.0285937 8.034236 9.6159154h-12.51276c.443797 2.3190977 2.072764 3.8008588 4.923507 3.8008588 2.036161 0 3.516932-.8359515 4.405514-1.7106832l2.184356 2.3564928c-1.444168 1.4829483-3.442735 2.5852171-6.552277 2.5852171-5.331886 0-8.774621-3.5347393-8.774621-8.3233069 0-4.7513702 3.628722-8.324494 8.292045-8.324494zm-57.1270455 0c5.2940956 0 8.2930345 4.0285937 8.0340379 9.6159154h-12.5127594c.4437963 2.3190977 2.072764 3.8008588 4.923507 3.8008588 2.0361602 0 3.516932-.8359515 4.4055139-1.7106832l2.1845539 2.3564928c-1.444168 1.4829483-3.4427351 2.5852171-6.5524747 2.5852171-5.3316887 0-8.7744239-3.5347393-8.7744239-8.3233069 0-4.7513702 3.6285241-8.324494 8.2920453-8.324494zm45.5883425-7.0138803v23.3417443h-3.404153v-2.2067141c-1.2197963 1.5670381-3.2423042 2.5258596-5.3619607 2.5258596-4.0766732 0-7.993477-3.2288503-7.993477-8.3130183 0-5.116221 3.8196553-8.3140075 8.025728-8.3140075 2.1198542 0 4.1423622.9275599 5.3297097 2.3990324v-9.4328964zm28.659187 7.0029981c2.985287 0 5.201103 1.1822036 6.45315 3.100836l-2.858063 1.5672359c-.73821-1.1200761-1.990258-1.8228689-3.595087-1.8228689-1.830585 0-2.760915.895309-2.760915 1.9184345 0 1.1513376 1.476419 1.4704832 3.788394 1.9821448 2.632505.5761635 5.617792 1.4392216 5.617792 4.7648246 0 2.2057248-1.92536 5.1797336-6.485599 5.1474826-3.338266 0-5.682491-1.3424688-7.030698-3.7092503l3.081643-1.5982997c.867609 1.4702854 2.280516 2.3335413 4.109914 2.3335413 1.926547 0 2.921774-.9900831 2.921774-2.1099614 0-1.2791541-1.861847-1.5672359-3.884553-1.9821448-2.729653-.5761635-5.554081-1.4714725-5.554081-4.7638353 0-2.5268489 2.406946-4.8603902 6.196329-4.8281393zm-84.7443103.4010589v3.1332847l-9.6317441 9.7833036h9.7601542v3.0697721h-14.2232448v-3.1330868l9.6319419-9.7835015h-9.4063834v-3.0697721zm97.9343393-7.4042549v15.2835676l7.223808-7.929173h4.142362l-6.261029 6.842535 6.421888 9.1448147h-3.853291l-4.976533-7.0983659-2.697205 2.9419557v4.1564102h-3.402174v-23.3417443zm-68.8928897 7.0314898c4.0454116 0 7.4327465 2.621623 7.4327465 6.9705493v9.3393095h-3.4678632v-8.9067911c0-2.621623-1.2852878-4.1908376-3.8540826-4.1908376-2.5678056 0-4.0754862 1.5692146-4.0754862 4.1908376v8.9067911h-3.4678631v-9.3393095c0-4.3489263 3.3873348-6.9705493 7.4325486-6.9705493zm18.7599387 3.1045952c-2.8580638 0-5.07289 2.2702266-5.07289 5.1797335 0 2.9097048 2.2148262 5.2121823 5.07289 5.2121823 2.9215763 0 5.072692-2.3347284 5.072692-5.2121823 0-2.8450051-2.1511157-5.1797335-5.072692-5.1797335zm19.860031.0714269c-2.406947 0-4.07232 1.3675968-4.516117 3.7624742h8.736831c-.332995-2.1661531-1.628968-3.7624742-4.220714-3.7624742zm-57.1270454 0c-2.4069468 0-4.0725183 1.3675968-4.5163146 3.7624742h8.7370287c-.3331934-2.1661531-1.6289677-3.7624742-4.2207141-3.7624742z" fill-rule="evenodd"/></svg>