<svg height="70" viewBox="0 0 190 70" width="190" xmlns="http://www.w3.org/2000/svg"><path d="m29.3038968 39.9169947c0 2.0867022-1.7417759 3.8350981-3.9116541 3.8069201-1.1992639 0-2.4270452-.5639001-3.1693497-1.6355141l-.7995092-1.12797c-.3710673 1.6355141-1.7986411 2.7634841-3.6259696 2.7634841-2.1128432 0-3.7974142-1.6918702-3.7974142-3.778742v-9.4464308c0-2.0868718 1.6560535-3.778742 3.7974142-3.778742 1.855846 0 3.3119373 1.2125041 3.6546569 2.876366l.9135793-1.2408519c.7424742-1.0150881 1.9415683-1.6073361 3.1408321-1.6073361 2.0556384 0 3.7974143 1.6073361 3.7974143 3.6940382 0 .7894942-.2284797 1.5791581-.7137869 2.2277621l-1.8273285 2.5097121 1.8273285 2.5097121c.4853072.6766122.7137869 1.4380981.7137869 2.2275922zm5.2570702-13.1969947c2.290908 0 4.1234986 1.8641636 4.0948113 4.067482v8.8692903c0 2.2031487-1.8039033 4.067482-4.1234985 4.067482-2.2622208 0-4.0948113-1.8361553-4.0948113-4.067482v-8.8692903c0-2.2033184 1.8325905-4.067482 4.1234985-4.067482zm19.9658334 12.3309446c0 2.7307229-2.2822508 4.6733097-5.9448858 4.6733097-4.9022987 0-8.5087473-3.631741-8.5087473-8.5021271 0-4.8703862 3.6064486-8.5021272 8.5087473-8.5021272 3.662635 0 5.9448858 1.9425868 5.9448858 4.6733097 0 1.8298746-.9015273 3.0686896-2.7047516 3.8288175 1.8032243.7601278 2.7047516 2.0269511 2.7047516 3.8288174zm16.7207765.8660501c0 2.0867022-1.7448313 3.8350981-3.8902659 3.8069201-1.2014706 0-2.4314586-.5639001-3.1752908-1.6355141l-.8008672-1.12797c-.3719161 1.6355141-1.8022059 2.7634841-3.6329292 2.7634841-2.1167474 0-3.8043739-1.6918702-3.8043739-3.778742v-9.4464308c0-2.0868718 1.659109-3.778742 3.8043739-3.778742 1.8594106 0 3.3183877 1.2125041 3.6616165 2.876366l.8867592-1.2408519c.7436625-1.0150881 1.945133-1.6073361 3.1464338-1.6073361 2.0597123 0 3.8045436 1.6073361 3.8045436 3.6940382 0 .7894942-.2288192 1.5791581-.7151448 2.2277621l-1.8307234 2.5097121 1.8307234 2.5097121c.4863256.6766122.7151448 1.4380981.7151448 2.2275922zm14.4536332-1.4253671c0 3.3834009-2.6127487 5.5161045-7.0146326 5.5161045-4.487097 0-6.5887369-1.535533-6.5887369-4.0376065 0-1.7344767 1.3347221-2.8432653 3.2374183-2.8432653h.0285175l-1.0223873-.9385322c-1.2780265-1.1658236-2.1583354-2.3314775-2.1583354-4.0376065 0-3.3267053 2.4423224-5.4307216 6.6170847-5.4307216 4.2599753 0 6.2762323 1.5070155 6.2762323 4.0376065 0 1.5068457-1.0223873 2.530591-2.5558833 2.7580522l1.050735.9381927c1.2780266 1.1374759 2.1299877 2.3316473 2.1299877 4.0377762zm11.5562184 1.6901727c0 2.0970567-1.7887958 3.8259318-4.0885306 3.8259318-2.2148612 0-4.0036571-1.7288751-4.0036571-3.8259318v-5.8666323c-1.9023566-.1133912-3.4640307-1.6720098-3.4640307-3.6558451 0-2.0688787 1.6468871-3.6558451 3.6628047-3.6558451h7.6948095c2.0160873 0 3.6628047 1.6153142 3.6628047 3.6558451 0 1.9838353-1.561674 3.5709715-3.4642005 3.6558451zm9.9595765.5864766c-.96671 1.998773-2.331647 2.9559774-3.981081 2.9559774-2.986022 0-5.1472435-2.7307229-3.8106542-5.7994125l3.4978102-8.1081439c.881667-1.9987731 2.161221-3.0966979 4.322443-3.0966979 2.189738 0 3.469462 1.0979248 4.322612 3.0966979l3.49781 8.1081439c1.308072 3.0686896-.824802 5.7994125-3.839172 5.7994125-1.677611 0-3.042718-.9572044-4.009768-2.9559774zm9.375307-9.5421682c0-2.7774034 1.485118-4.2226309 4.141152-4.2226309h4.941001c2.998754 0 5.340756 2.2671434 5.340756 5.1862857 0 1.5869664-.657092 2.8906248-1.742286 3.7125406l1.485119 2.3521867c.399754.6234814.571199 1.3038281.571199 2.0121831 0 2.0972265-1.656563 3.7410582-3.741398 3.7410582-1.285156 0-2.541794-.6518292-3.255751-1.8422662l-.399924-.7085247c-.485477 1.5020928-1.827838 2.5507909-3.541436 2.5507909-2.084835 0-3.798432-1.7572228-3.798432-3.8826273zm26.583257 8.9556916c0 2.0970567-1.757053 3.8259318-4.109409 3.8259318-2.210448 0-3.996019-1.7288751-3.996019-3.8259318v-5.8666323c-1.898792-.1133912-3.45758-1.6720098-3.45758-3.6558451 0-2.0688787 1.643832-3.6558451 3.656015-3.6558451h7.708559c2.012183 0 3.655845 1.6153142 3.655845 3.6558451 0 1.9838353-1.558619 3.5709715-3.457411 3.6558451zm17.911044.5674649c0 1.8291956-1.464239 3.2866449-3.238437 3.2579577h-5.913652c-2.703563 0-4.167803-1.4287621-4.167803-4.2294209v-8.5449034c0-2.7719715 1.46424-4.2294208 4.167803-4.2294208h5.913652c1.774198 0 3.238437 1.4574493 3.238437 3.2864752 0 1.6574115-1.01373 2.8576938-2.478139 3.1435481.675933.4286116 1.042078 1.1430775 1.042078 2.0860231 0 .9431154-.394323 1.6575813-1.042078 2.0863626 1.436231.2856846 2.478139 1.5146542 2.478139 3.1433784zm1.133741-9.5231565c0-2.7774034 1.456601-4.2226309 4.141153-4.2226309h4.941001c2.998753 0 5.340586 2.2671434 5.340586 5.1862857 0 1.5869664-.656922 2.8906248-1.742116 3.7125406l1.485118 2.3521867c.399755.6234814.5712 1.3038281.5712 2.0121831 0 2.0972265-1.656563 3.7410582-3.741398 3.7410582-1.285156 0-2.541964-.6518292-3.255921-1.8422662l-.399754-.7085247c-.485477 1.5020928-1.827838 2.5507909-3.541436 2.5507909-2.085004 0-3.798433-1.7572228-3.798433-3.8826273z" fill-rule="evenodd"/></svg>