<svg fill="none" height="70" viewBox="0 0 190 70" width="190" xmlns="http://www.w3.org/2000/svg"><g fill="#000"><path clip-rule="evenodd" d="m70.0293 27.7387c-.7792-.0022-1.5339.2697-2.1298.7675-.596.4978-.9945 1.1891-1.1246 1.951l-5.644-14.4572h-34.1131l-5.688 14.4572c-.1075-.6125-.3891-1.1817-.8118-1.6408s-.9688-.789-1.5741-.9507c-.6053-.1618-1.2446-.1487-1.8427.0375-.5981.1863-1.13.5381-1.5333 1.0141-.4033.4759-.6612 1.0562-.7432 1.6725s.0151 1.243.2801 1.8064c.2649.5634.6867 1.04 1.2155 1.3738.5289.3338 1.1428.5109 1.7697.5104v16.0035l-4.09 3.7161 15.9277-9.2819 23.6241 9.2819 21.4252-12.5092 1.0921 1.8099 2.7414-6.7016-7.2566-.7777 1.0629 1.7735-2.5728 1.5116v-4.8261c.8748 0 1.7137-.3446 2.3323-.958s.9661-1.4454.9661-2.3128c0-.8675-.3475-1.6995-.9661-2.3129s-1.4575-.958-2.3323-.958zm-40.1147 11.8015-5.9106 5.3703c-.3047-.1295-.5954-.2935-.866-.49-.7556-.5487-1.3147-1.3223-1.5961-2.208-.2814-.8858-.2703-1.8375.0316-2.7165.302-.8791.879-1.6396 1.6471-2.1709s1.6871-.8055 2.6233-.7829c.9362.0227 1.8407.3411 2.5817.9089.6968.534 1.2149 1.2621 1.489 2.0891zm30.4225 5.2691 6.437-3.7818c.0005-.0272.0008-.0545.0008-.0818 0-.8626-.258-1.7058-.7412-2.4229-.4833-.7172-1.1701-1.2762-1.9737-1.6063-.8037-.3301-1.6879-.4164-2.541-.2482-.8531.1683-1.6368.5837-2.2518 1.1936-.6151.6099-1.034 1.387-1.2036 2.233-.1697.8459-.0826 1.7228.2502 2.5197.3329.7969.8966 1.478 1.6198 1.9572.1306.0865.2653.1658.4035.2375zm-14.4743-13.7997h-21.601l4.7644-12.1022h30.0963l4.7204 12.1022h-2.6021v-.1309c0-1.0022-.199-1.9946-.5858-2.9206s-.9537-1.7673-1.6684-2.476c-.7146-.7087-1.5631-1.2709-2.4968-1.6544-.9338-.3835-1.9346-.581-2.9453-.581s-2.0115.1975-2.9453.581c-.9337.3835-1.7822.9457-2.4968 1.6544-.7147.7087-1.2816 1.55-1.6684 2.476s-.5858 1.9184-.5858 2.9206c.0073.0436.0146.0873.0146.1309zm2.5435 0v-.1309c0-1.3494.5405-2.6435 1.5028-3.5977.9622-.9542 2.2673-1.4903 3.6281-1.4903s2.6658.5361 3.6281 1.4903c.9622.9542 1.5028 2.2483 1.5028 3.5977v.1309z" fill-rule="evenodd"/><path d="m156.468 27.0396c-.338.2411-.74.3781-1.156.3938-.283.0097-.565-.0366-.829-.1364-.265-.0998-.506-.2509-.711-.4445s-.369-.4259-.482-.6831-.173-.5342-.177-.8148c-.004-.4129.115-.8178.342-1.1641.226-.3463.551-.6187.933-.7831s.804-.2135 1.214-.1412.79.2628 1.091.5477c.301.285.511.6516.604 1.0543.092.4026.063.8233-.084 1.2095-.148.3862-.407.7208-.745.9619z"/><path d="m88.2953 45.4885v-21.5658h14.5207v3.5107h-10.7825v5.7713h9.1915v3.5107h-9.1915v8.7731z"/><path d="m104.392 45.4885v-21.5658h3.738v21.5658z"/><path clip-rule="evenodd" d="m166.857 45.8156c4.698 0 8.143-3.4816 8.143-8.2716 0-4.7609-3.474-8.2353-8.143-8.2353-4.67 0-8.115 3.4453-8.115 8.2353s3.416 8.2716 8.115 8.2716zm-.022-13.1561c2.338 0 4.397 1.6573 4.397 4.8845 0 3.2563-2.089 4.9499-4.397 4.9499-2.309 0-4.398-1.7227-4.398-4.9499s2.059-4.8845 4.398-4.8845z" fill-rule="evenodd"/><path d="m157.159 29.694h-3.701v15.7945h3.701z"/><path clip-rule="evenodd" d="m134.209 29.3087c-3.958 0-7.63 3.2563-7.63 8.1771-.022 5.2625 3.746 8.3153 7.997 8.3153 1.557.0749 3.096-.3637 4.376-1.2473 1.279-.8837 2.228-2.1626 2.697-3.6372h-3.665c-.368.5608-.881 1.0136-1.486 1.3114-.604.2978-1.278.4298-1.951.3822-1.108.0254-2.181-.3858-2.983-1.1433-.802-.7576-1.269-1.7998-1.298-2.898h11.493c.074-.3954.106-.7974.095-1.1994 0-4.9062-2.836-8.0608-7.645-8.0608zm-3.796 6.5417c.074-.9446.507-1.826 1.212-2.4657s1.629-.9898 2.584-.9796c2.573 0 3.797 1.6282 3.863 3.4453z" fill-rule="evenodd"/><path clip-rule="evenodd" d="m109.72 37.4858c0-4.9208 3.673-8.1771 7.631-8.1771 4.808 0 7.637 3.1546 7.637 8.0754.011.402-.021.804-.095 1.1993h-11.464c.029 1.0983.496 2.1404 1.298 2.898.803.7575 1.875 1.1687 2.983 1.1433.673.0476 1.347-.0844 1.952-.3822.604-.2978 1.117-.7506 1.486-1.3114h3.665c-.47 1.4746-1.418 2.7536-2.698 3.6372s-2.818 1.3222-4.376 1.2473c-4.251 0-8.019-3.0601-8.019-8.3298zm5.047-4.1011c-.705.6397-1.139 1.5211-1.213 2.4657h7.66c-.066-1.8171-1.29-3.4453-3.863-3.4453-.956-.0102-1.879.3399-2.584.9796z" fill-rule="evenodd"/><path d="m151.882 42.2758c-.39.0673-.785.1062-1.18.1163-1.386 0-1.994-.5742-1.994-1.948v-7.6247h3.174v-3.1254h-3.174v-5.088h-3.709v5.088h-2.36v3.1254h2.367v8.228c0 2.9075 1.803 4.6301 4.699 4.6301.745.0237 1.489-.0795 2.199-.3053z"/></g></svg>