<svg viewBox="0 0 190 70" xmlns="http://www.w3.org/2000/svg">
  <defs>
    <style>.cls-1{fill:#000;}</style>
  </defs>
  <g transform="scale(0.8) translate(19, 7)">
    <path class="cls-1" d="M 143.291 18.754 C 132.389 18.753 125.574 30.555 131.024 39.997 C 136.475 49.439 150.103 49.441 155.555 39.999 C 156.799 37.845 157.454 35.401 157.453 32.913 C 157.443 25.097 151.108 18.763 143.291 18.754 Z M 143.291 40.361 C 137.56 40.361 133.977 34.156 136.843 29.193 C 139.709 24.229 146.874 24.229 149.739 29.193 C 150.392 30.324 150.736 31.607 150.737 32.913 C 150.734 37.024 147.402 40.356 143.291 40.361 Z" style=""/>
    <path class="cls-1" d="M 101.593 30.051 L 99.119 28.815 C 98.046 28.286 97.374 27.87 97.103 27.566 C 96.845 27.296 96.7 26.938 96.696 26.564 C 96.696 26.087 96.909 25.687 97.339 25.365 C 97.768 25.043 98.361 24.882 99.119 24.882 C 100.506 24.882 102.047 25.723 103.744 27.405 L 107.923 23.226 C 105.854 20.411 102.563 18.757 99.07 18.775 C 96.513 18.775 94.416 19.529 92.776 21.037 C 91.136 22.545 90.316 24.363 90.315 26.49 C 90.315 29.788 92.491 32.533 96.844 34.726 L 99.119 35.863 C 101.077 36.853 102.057 37.867 102.057 38.906 C 102.057 39.466 101.785 39.961 101.241 40.389 C 100.698 40.818 99.981 41.032 99.09 41.032 C 98.265 41.032 97.321 40.746 96.259 40.175 C 95.2 39.608 94.248 38.863 93.443 37.972 L 89.326 42.462 C 91.666 45.528 94.798 47.061 98.723 47.061 C 101.674 47.061 104.028 46.262 105.784 44.663 C 107.541 43.064 108.418 41.069 108.418 38.678 C 108.418 36.882 107.931 35.316 106.958 33.979 C 105.986 32.642 104.197 31.333 101.593 30.051 Z" style=""/>
    <path class="cls-1" d="M 59.555 19.315 L 52.838 19.315 L 52.86 21.73 C 50.684 19.526 48.004 18.754 45.248 18.754 C 34.345 18.754 27.531 30.556 32.982 39.998 C 35.512 44.38 40.188 47.08 45.248 47.08 C 48.508 47.08 51.298 45.635 52.735 43.797 C 52.735 43.909 52.725 45.244 52.721 45.389 C 52.694 46.302 52.562 47.765 51.702 49.26 C 49.576 52.852 44.908 53.984 41.373 51.766 L 38.032 57.581 C 40.227 58.912 42.744 59.616 45.311 59.618 C 49.028 59.618 53.663 58.149 56.95 53.594 C 59.683 49.808 59.555 46.232 59.555 42.77 L 59.555 19.315 Z M 45.248 40.361 C 39.516 40.361 35.934 34.156 38.8 29.193 C 41.665 24.229 48.83 24.229 51.696 29.193 C 52.349 30.324 52.693 31.607 52.693 32.913 C 52.69 37.024 49.359 40.357 45.248 40.361 Z" style=""/>
    <path class="cls-1" d="M 86.334 19.315 L 79.583 19.315 C 79.583 19.315 79.583 32.577 79.583 32.781 C 79.596 34.688 79.594 37.992 78.187 39.409 C 77.513 40.087 76.778 40.694 75.22 40.694 C 73.661 40.694 72.921 40.082 72.247 39.409 C 70.841 37.992 70.844 34.688 70.858 32.781 C 70.858 32.58 70.858 19.315 70.858 19.315 L 64.111 19.315 L 64.111 32.733 C 64.093 35.496 64.059 40.641 67.446 44.051 C 69.434 46.051 71.802 47.066 75.225 47.066 C 78.647 47.066 81.016 46.051 83.004 44.051 C 86.392 40.641 86.358 35.496 86.339 32.733 L 86.334 19.315 Z" style=""/>
    <path class="cls-1" d="M 121.254 40.28 C 120.484 40.176 119.727 39.627 119.296 38.623 C 119.001 37.935 118.894 37.031 118.894 35.919 L 118.894 25.091 L 126.828 25.091 L 126.828 19.294 L 118.894 19.294 L 118.894 11.765 L 112.161 11.765 L 112.161 35.373 C 112.161 37.688 112.347 40.493 113.875 43.085 C 115.179 45.289 117.475 47.07 121.245 47.07 C 125.815 47.07 129.103 43.764 129.103 43.764 L 125.063 38.797 C 125.063 38.797 123.289 40.556 121.254 40.28 Z" style=""/>
  </g>
</svg>
