<svg height="70" viewBox="0 0 190 70" width="190" xmlns="http://www.w3.org/2000/svg"><path d="m28.2301246.48702809c-.2613722-.26688053-.6121613-.43543666-.983585-.45650617-5.7639455-.36520494-9.4988172 2.61261991-11.4797436 5.41486546-1.9878046-2.79522238-5.7226763-5.7800704-11.49350005-5.41486546-.37830191.02106951-.72909096.18962564-.9904632.45650617-3.70048057 3.7854896-3.29466578 9.74816251-3.24651826 10.33108571.02063465.4213903.26137223 3.3640993 2.1460036 6.7352218 1.80209276 3.230659 5.5300862 7.521817 13.04797701 9.6779307.0343911.0140464.0825386.0210696.1169297.0351159.0275129.0070232.0550257.0140463.0894168.0210695s.0756604.0140464.1169297.0210695c.0687822.0140464.1375643.0140464.1994683.0140464.0619039 0 .1306861 0 .19259-.0140464.0343911 0 .0687822-.0140463.1031733-.0140463s.0619039-.0140464.096295-.0210695c.0412693-.0140464.0894168-.0210695.1306861-.0351159 13.8939977-3.9891616 15.1045638-15.3175377 15.1871024-16.3780366.0343911-.3441355.5433792-6.4894108-3.2465182-10.35917847zm-13.9971709 13.18249351-.0137564-.0140464-4.1131736-4.52994579c-.57089199-.63208546-1.54759876-.67422449-2.16663826-.08427806s-.6603088 1.58021365-.0825386 2.21229915l6.36235046 7.0021023.0137564.0140463v5.3586801h-.0137564c-10.53054976-3.925953-11.10144175-12.6136166-11.1220764-12.9928678 0-.0280927 0-.0561854 0-.0842781 0-.0491622-.39893656-4.52292266 1.97404819-7.42349261h.18571185c6.05283066 0 8.46020646 4.67040925 8.96919456 5.84327894 0 .00702318.0068782.01404635.0137564.02809269v4.66338608zm14.1966392-3.1182883v.0772549c-.0206347.3862744-.5915266 9.0669148-11.1289546 12.9858447 0 0-.0068782 0-.0137564 0v-5.3586801l.0137564-.0140464 6.3623504-7.0021023c.570892-.6320854.5365009-1.62235266-.0825386-2.21229909-.6190395-.58292326-1.588868-.5478074-2.1666382.08427806l-4.1131736 4.52994583-.0137564.0140463v-4.66338605s.0068782-.02106952.0137564-.03511586c.5089881-1.15882335 2.9438768-5.83625577 8.9760728-5.83625577h.1788336c2.3592283 2.88652361 1.9809264 7.37433038 1.9809264 7.42349258zm28.4895734-9.2705868c.2476158 0 .4608406.09130123.632796.2739037.1788336.18260247.2682504.40032079.2682504.64613181v2.42299427c0 .25283419-.0894168.47055251-.2682504.64613181-.1788337.18260247-.3920584.2739037-.632796.2739037h-10.668114v6.96698641h10.000927c.2476158 0 .4608405.0913013.632796.2739037.1719554.1826025.2682504.4003208.2682504.6461318v2.4229943c0 .2528342-.0894168.4705525-.2682504.6461318-.1788337.1826025-.3920584.2739037-.632796.2739037h-10.000927v7.8167902c0 .2528342-.0894168.4705526-.2682505.6461318-.1788336.1826025-.3920583.2739037-.6327959.2739037h-2.7100174c-.2476158 0-.4608405-.0913012-.6327959-.2739037-.1788336-.1826024-.2682504-.4003207-.2682504-.6461318v-22.38284852c0-.25283419.0894168-.47055251.2682504-.64613181.1788336-.18260246.3920584-.2739037.6327959-.2739037h14.2791778zm3.9962439 7.40944626c0-.25283418.0894168-.47055251.2682505-.64613181.1788336-.18260246.3920583-.2739037.6327959-.2739037h2.5449402c.2476158 0 .4608405.09130124.6327959.2739037.1719554.18260247.2682505.4003208.2682505.64613181v8.67361714c0 1.3624954.2820068 2.4581102.8528988 3.2798213.5640138.8217111 1.4994513 1.229055 2.792556 1.229055 1.1830533 0 2.0840996-.4073439 2.7100174-1.229055.6259177-.8217111.9354374-1.9103028.9354374-3.2798213v-8.67361714c0-.25283418.0894169-.47055251.2682505-.64613181.1788336-.18260246.3920583-.2739037.6327959-.2739037h2.538062c.2476158 0 .4608405.09130124.6327959.2739037.1719554.18260247.2682505.4003208.2682505.64613181v15.91450734c0 .2528342-.0894169.4705525-.2682505.6461318-.1788336.1826025-.3920583.2739037-.6327959.2739037h-2.538062c-.2476158 0-.4608405-.0913012-.6327959-.2739037-.1788336-.1826025-.2682505-.4003208-.2682505-.6461318v-.7865953c-.5158662.5267379-1.1486622.9972904-1.905266 1.4186807-.7566038.4213904-1.6714066.6320855-2.7444084.6320855-1.3618869 0-2.4830363-.2177183-3.3772044-.6461318-.8941682-.4354366-1.6026245-1.0113367-2.1391254-1.7417466s-.9148028-1.5731905-1.1349058-2.5423882c-.2201029-.9691977-.3370326-1.9875576-.3370326-3.0550797v-9.1792856zm23.9637069 15.90748414c0 .2528342-.0894168.4705525-.2682504.6461318-.1788337.1826025-.3920584.2739037-.632796.2739037h-2.5449401c-.2476158 0-.4608406-.0913012-.632796-.2739037-.1788336-.1826024-.2682504-.4003208-.2682504-.6461318v-22.38987172c0-.25283419.0894168-.47055251.2682504-.64613181.1788337-.18260246.3920584-.2739037.632796-.2739037h2.5449401c.2476158 0 .4539623.09130124.632796.2739037.1788336.18260247.2682504.4003208.2682504.64613181v22.39689492zm8.0543917 0c0 .2528342-.0894168.4705525-.2682504.6461318-.1788337.1826025-.3920584.2739037-.632796.2739037h-2.5380619c-.2476158 0-.4608405-.0913012-.6327959-.2739037-.1788337-.1826024-.2682505-.4003208-.2682505-.6461318v-22.38987172c0-.25283419.0894168-.47055251.2682505-.64613181.1788336-.18260246.3920583-.2739037.6327959-.2739037h2.5380619c.2476158 0 .4608406.09130124.632796.2739037.1788336.18260247.2682504.4003208.2682504.64613181v22.39689492zm23.7229692-9.1511929c-.041269.3441355-.068782.7374331-.068782 1.1939393 0 .4565061.020635.8568269.068782 1.1939392.068782.7023171.220103 1.3063099.467719 1.8119783.247616.4986452.550257.9059891.921681 1.2150087.364545.3090196.77036.5337611 1.217444.6812477s.901047.2177183 1.368765.2177183c.557136 0 1.024855-.042139 1.403157-.1334403.378301-.0913012.701578-.2177183.969828-.3932976.268251-.1755793.495232-.3652049.687822-.5759001.19259-.2177183.378302-.4635293.550257-.737433.130686-.203672.288885-.407344.467719-.611016.178833-.2036719.392058-.3090195.632796-.3090195h2.54494c.247616 0 .46084.0913012.653431.2739037.185711.1826024.275128.4003208.254494.6461318-.020635.4775757-.185712 1.0604989-.50211 1.7417466-.30952.6812477-.797873 1.3414258-1.451304 1.9594649-.660309.6250623-1.499451 1.1588234-2.524306 1.5872369-1.024854.4284134-2.249176.6461318-3.679845.6461318-1.224323 0-2.331716-.2106952-3.308423-.6320855-.983585-.4213903-1.836483-.9902672-2.558696-1.7066307-.722213-.7163636-1.293105-1.5450978-1.705798-2.493226s-.660309-1.9383955-.756604-2.9848481c-.041269-.4073439-.068782-.8638501-.068782-1.3624953s.020635-.9691977.068782-1.3976112c.068782-1.0464526.30952-2.0507661.735969-3.0059175.42645-.9551514.990464-1.7909088 1.705798-2.50727235.715335-.71636353 1.568234-1.28524044 2.558697-1.70663075s2.097856-.63208547 3.329057-.63208547c1.42379 0 2.648113.21771833 3.679845.64613181 1.024855.43543665 1.870875.96217454 2.524306 1.58723683.660309.62506233 1.141784 1.27821723 1.451304 1.95946493.309519.6812477.474597 1.2641709.50211 1.7417466.020634.2528342-.061904.4705525-.254494.6461318-.192591.1826025-.405815.2739037-.653431.2739037h-2.54494c-.247616 0-.453963-.0983244-.632796-.3090195-.178834-.203672-.337033-.407344-.467719-.611016-.178834-.2739037-.364545-.5197147-.550257-.737433-.185712-.2177184-.419571-.407344-.687822-.5759001-.26825-.1685561-.591527-.3019964-.969828-.3932976-.378302-.0913013-.846021-.1334403-1.403157-.1334403-.467718 0-.928559.0772549-1.368765.2177183-.447084.1474866-.852899.3792513-1.217444.6812477-.371424.3090196-.674065.7093403-.921681 1.2150087-.247616.4986452-.398937 1.102638-.467719 1.8119783zm23.014513-3.5818176c-1.334374 0-2.304202.3019964-2.895729.9059892s-.88729 1.5872368-.88729 2.9567553v8.8772892c0 .2528342-.089417.4705525-.268251.6461318-.178833.1826025-.392058.2739037-.632795.2739037h-2.544941c-.247615 0-.453962-.0913012-.632796-.2739037-.178833-.1826025-.26825-.4003208-.26825-.6461318v-15.91450734c0-.25283418.089417-.47055251.26825-.64613181.178834-.18260246.392059-.2739037.632796-.2739037h2.544941c.247615 0 .46084.09130124.632795.2739037.178834.18260247.268251.4003208.268251.64613181v.78659524c.57777-.5478074 1.19681-.96919771 1.857118-1.26417092.660309-.29497322 1.520086-.44245983 2.593088-.44245983h.247616c.247616 0 .453962.09130124.632796.2739037.178833.18260247.26825.4003208.26825.64613181v2.25443814c0 .2528342-.089417.4705525-.26825.6461318-.178834.1826025-.392059.2739037-.632796.2739037zm8.453328-10.5839199c.247616 0 .460841.09130123.632796.2739037.178834.18260247.268251.40032079.268251.64613181v2.66178211c0 .25283419-.089417.47055252-.268251.64613181-.178833.18260247-.392058.2739037-.632796.2739037h-2.875094c-.247616 0-.460841-.09130123-.632796-.2739037-.178834-.18260247-.268251-.40032079-.268251-.64613181v-2.66178211c0-.25283419.089417-.47055251.268251-.64613181.178834-.18260247.392058-.2739037.632796-.2739037zm.73597 23.3169304c0 .2528342-.089417.4705525-.268251.6461318-.178834.1826025-.392058.2739037-.632796.2739037h-2.54494c-.247616 0-.460841-.0913012-.632796-.2739037-.178834-.1826024-.26825-.4003208-.26825-.6461318v-15.90748414c0-.25283418.089416-.47055251.26825-.64613181.178834-.18260246.392058-.2739037.632796-.2739037h2.54494c.247616 0 .460841.09130124.632796.2739037.171956.18260247.268251.4003208.268251.64613181zm13.061733 1.2641709c-.687822 0-1.313739-.0702317-1.857118-.2036719-.54338-.1334403-1.024855-.3090196-1.437548-.5126916s-.763482-.4284135-1.052367-.6672013c-.288885-.2387879-.522744-.4635293-.701578-.6672013v7.2689828c0 .2528342-.089417.4705525-.26825.6461318-.178834.1826025-.392059.2739037-.632796.2739037h-2.544941c-.247615 0-.46084-.0913012-.632795-.2739037-.178834-.1826025-.268251-.4003208-.268251-.6461318v-22.38987174c0-.25283418.089417-.47055251.268251-.64613181.178833-.18260246.392058-.2739037.632795-.2739037h2.544941c.247615 0 .453962.09130124.632796.2739037.178833.18260247.26825.4003208.26825.64613181v.78659524c.178834-.20367198.412693-.42841348.701578-.66720132s.639674-.46352934 1.052367-.66720132.894168-.37925128 1.437548-.51269154c.550257-.13344027 1.162418-.20367199 1.857118-.20367199 1.114271 0 2.125369.21771833 3.026415.66720133.901047.44245982 1.671407 1.03942942 2.304203 1.77686247.632796.73743307 1.134906 1.59425997 1.506329 2.56345767.371424.9691977.570892 1.9735113.61904 3.0199639.020635.3441354.034391.7374331.034391 1.1939392 0 .4565062-.006878.856827-.034391 1.1939392-.041269 1.0464526-.254494 2.0507662-.61904 3.0199639-.371423.9691977-.866655 1.8190015-1.506329 2.5634577-.632796.7374331-1.403156 1.3344027-2.304203 1.7768625-.901046.4424598-1.912144.6672013-3.026415.6672013zm3.108954-8.25925c.068782-.6391086.068782-1.2711941 0-1.9103027-.130686-1.4818893-.57777-2.5423882-1.334374-3.18852-.756604-.6461319-1.685163-.9691978-2.771921-.9691978-1.086759 0-2.00844.3300891-2.758165.9902673-.749726.6601781-1.176175 1.6083063-1.286227 2.8303382-.041269.3441354-.068782.7725489-.068782 1.2992868s.020635.9551514.068782 1.2992868c.110052 1.1798928.543379 2.1209979 1.286227 2.7952224.749725.6812476 1.664528 1.025383 2.758165 1.025383 1.093636 0 2.015317-.3230659 2.771921-.9691977s1.203688-1.7136539 1.334374-3.18852zm7.318422-9.90969544v-5.48509718c0-.25283419.089417-.47055251.268251-.64613181.178834-.18260246.392058-.2739037.632796-.2739037h2.538062c.247616 0 .46084.09130124.632796.2739037.178833.18260247.26825.4003208.26825.64613181v5.56235207h4.312642c.247616 0 .460841.09130124.632796.2739037.178834.18260247.26825.4003208.26825.64613181v2.25443814c0 .2528342-.089416.4705525-.26825.6461318-.178834.1826025-.392058.2739037-.632796.2739037h-4.312642v7.233867c0 .7023172.185712 1.2711941.550258 1.6925844.371423.4213903 1.052367.6320855 2.056586.6320855h2.042831c.247615 0 .46084.0913012.632796.2739037.178833.1826024.26825.4003207.26825.6461318v2.2544381c0 .2528342-.089417.4705525-.26825.6461318-.178834.1826025-.392059.2739037-.632796.2739037h-2.476158c-2.097856 0-3.707359-.5197147-4.835387-1.552121-1.121149-1.0394294-1.685163-2.619643-1.685163-4.7617104v-11.51097864zm-66.409181 12.76110314c0-.2528341-.082539-.4565061-.23386-.6180391-.158199-.1615329-.433327-.3090195-.825386-.4424598-.392058-.1334403-.914803-.2739037-1.561355-.407344-.646552-.1334402-1.478817-.3160427-2.483036-.5478074-.9835852-.2247415-1.802093-.5126915-2.4486454-.8568269-.6534305-.3441354-1.1692968-.7444562-1.5613551-1.2009624-.3920584-.4565062-.6671871-.9762209-.825386-1.5591441-.158199-.5829233-.2338594-1.2150088-.2338594-1.9032796s.158199-1.3554722.4745969-2.0226735c.3095198-.6601781.7634821-1.25012457 1.3550087-1.76281612.5915267-.51269154 1.3137394-.93408185 2.1666383-1.25012458.852899-.31604273 1.822727-.48459885 2.923242-.48459885s2.070343.12641709 2.936999.37925128c.859777.25283418 1.595746.58292326 2.194151.99026722.605283.40734397 1.073001.88491965 1.410034 1.42570385.337033.5337611.522745 1.0745453.570892 1.6293759.020635.2528342-.061904.4705525-.254494.653155-.185712.1826024-.405815.2739037-.653431.2739037h-2.579331c-.337032 0-.584648-.0632086-.756604-.1896257-.165077-.1264171-.350789-.2668805-.557135-.4284135-.199468-.1615329-.467719-.3019963-.804751-.4284134-.337033-.1264171-.839143-.1896257-1.50633-.1896257s-1.265592.0983244-1.781458.3090196c-.515866.2106951-.77036.5759001-.77036 1.0956148 0 .2528342.061904.4635293.185712.6320855.123807.1755792.357667.3230659.701578.4635293.34391.1334403.825386.2809269 1.444425.4284135.612161.1474866 1.410035.3230659 2.400498.533761 1.987804.4354367 3.390961 1.1166843 4.209468 2.0367199.818508.9270586 1.224323 2.0718356 1.224323 3.4413541 0 .6812477-.171956 1.348449-.50211 2.001604-.337033.653155-.825386 1.2360782-1.458182 1.7487698-.639674.5126915-1.423791.9270587-2.35235 1.2360782-.928559.3090196-1.974048.4635294-3.136467.4635294-1.162418 0-2.228542-.1404635-3.1364665-.4284135-.9079246-.2879501-1.6714067-.6601782-2.2973244-1.1166843-.6259177-.4565062-1.1073929-.9691977-1.4444255-1.5450978-.3370326-.5688769-.5158663-1.1307307-.5365009-1.6785381-.0206347-.2528342.0619039-.4705525.254494-.653155.1925901-.1826024.4058148-.2739037.6534306-.2739037h2.5793312c.3370327 0 .5846485.0842781.7566039.2387879.1719554.1615329.3576676.3441354.5708916.5478074.213225.203672.508988.3862744.88729.5478074.378302.1615329.949194.2387878 1.712676.2387878.337033 0 .680944-.0210695 1.038611-.0702317s.687822-.1193939.990463-.2247415c.302642-.1053476.550258-.2387878.756604-.407344.199468-.1685561.302642-.3862744.302642-.6320854zm81.059783-17.64923072c0 1.26417093-.804751 2.09992838-2.022196 2.09992838-1.217444 0-2.022195-.84278062-2.022195-2.09992838 0-1.25714775.811629-2.09992837 2.022195-2.09992837s2.022196.84278062 2.022196 2.09992837zm-3.666089 0c0 1.03240626.660308 1.72770027 1.650772 1.72770027.990463 0 1.65765-.69529401 1.65765-1.72770027 0-1.03240625-.660309-1.72770026-1.65765-1.72770026-.997342 0-1.650772.69529401-1.650772 1.72770026zm1.767701-1.06049894c.447084 0 .701578.23878784.701578.63208546 0 .28795005-.178833.46352934-.398936.54078423-.048148.01404635-.048148.02809269 0 .04916221.15132.09130123.233859.20367198.288885.35818176l.199468.46352934c.020635.0491622 0 .07725489-.048147.07725489h-.268251s-.055026-.01404635-.07566-.04916221l-.137565-.34413541c-.116929-.25985736-.233859-.39329763-.557135-.39329763h-.185712v.7233867c0 .04213903-.020635.06320855-.061904.06320855h-.254494c-.041269 0-.061904-.02106952-.061904-.06320855v-1.98755762c0-.04213903.020635-.06320855.061904-.06320855h.804751zm-.488353.99026723h.357667c.288885 0 .467719-.10534758.467719-.32306591 0-.20367198-.144443-.28795004-.337033-.28795004h-.481475v.61803912z" transform="translate(2 19)"/></svg>