<svg fill="none" height="70" viewBox="0 0 190 70" width="190" xmlns="http://www.w3.org/2000/svg"><path d="m85.5264 28.0159c2.1128 0 3.8161.8494 5.0761 2.2461v-1.8584h3.8106v.3935h.0049v16.8643h-3.8155v-1.8506c-1.219 1.4159-2.9277 2.2939-5.0761 2.2939-4.9717-.0002-8.0381-4.3603-8.0381-9.0615.0001-4.7694 3.2004-9.0271 8.0381-9.0273zm-37.168-.003c2.1127 0 3.8161.8496 5.0762 2.2461v-1.8584h3.8105v.3936h.0049v16.8652h-3.8154v-1.8506c-1.2191 1.4158-2.9279 2.293-5.0762 2.293-4.9715-.0003-8.0379-4.3595-8.0381-9.0605 0-4.7695 3.2004-9.0281 8.0381-9.0284zm108.3696-.0136c2.112 0 3.815.8496 5.075 2.2461v-1.8584h3.81v.3935h.006v16.8653h-3.816v-1.8506c-1.219 1.4156-2.927 2.2929-5.075 2.2929-4.972 0-8.039-4.3593-8.04-9.0605 0-4.7697 3.202-9.0283 8.04-9.0283zm-23.108 17.6435h-3.305l-.341-2.0088c-1.228 1.4978-2.999 2.4512-5.248 2.4512-4.871 0-8.039-4.2587-8.039-9.0283 0-4.7012 3.1-9.0606 8.039-9.0606 2.112.0001 3.815.8505 5.075 2.2471v-5.9394h3.819zm-68.3358-10.6435.0078-.0088v.1533l6.7617-6.7617h5.4346l-8.6319 8.6289 8.6319 8.6318h-5.4346l-6.7617-6.7646v1.1552l-.0078.0088v5.6221h-3.8164v-21.3418h3.8164zm-38.3516 10.6611h-3.8154v-3.8486h3.8154zm10.0899-.001h-3.8106v-3.8486h3.8106zm65.4095 0h-3.8168v-3.8486h3.8168zm-85.5834-.001h-3.8486v-3.8486h3.8486zm96.5394 0h-3.817v-3.8486h3.817zm28.238-.0009h-3.816v-3.8487h3.816zm-55.6563-14.2696c-2.7605 0-4.5321 2.4876-4.5322 5.6553 0 3.0313 1.6376 5.6885 4.5322 5.6885 2.5556-.0001 4.8728-2.113 4.8701-5.7207 0-3.3729-2.145-5.623-4.8701-5.6231zm-37.1679-.0019c-2.7607 0-4.5323 2.4873-4.5323 5.6553.0002 3.0311 1.6378 5.6875 4.5323 5.6875 2.5556-.0001 4.8711-2.1101 4.8711-5.7207-.0001-3.3729-2.1461-5.6221-4.8711-5.6221zm108.3652-.0137c-2.76.0002-4.531 2.4875-4.531 5.6553 0 3.031 1.637 5.6873 4.531 5.6875 2.556 0 4.874-2.1127 4.871-5.7207 0-3.3729-2.146-5.6221-4.871-5.6221zm-31.999-.0029c-2.826.0002-4.529 2.621-4.529 5.6875 0 3.135 1.703 5.6551 4.529 5.6553 2.725 0 4.871-2.2496 4.874-5.6553 0-3.5749-2.318-5.6875-4.874-5.6875zm-17.472-3.3516c3.442 0 5.692 2.5207 5.692 6.5742v5.9698h-3.816v-5.4619c0-2.1455-.782-3.712-2.657-3.712-2.761 0-4.464 2.351-4.464 6.336v2.8398h-3.8348v-12.1025h3.2758l.015-.0029v.0029h.544v1.9541c1.225-1.5907 3.018-2.3974 5.245-2.3975zm-76.2917-.0351c3.4411.0001 5.6221 2.4876 5.6221 6.541v6.0381h-3.8155v-5.5274c0-2.1455-.749-3.6786-2.624-3.6787-2.0117 0-3.6465 2.009-3.6465 6.1992v3.0069h-3.8154v-5.5274c0-2.1455-.7519-3.6786-2.624-3.6787-1.9762 0-3.6465 1.9759-3.6465 5.961v3.2451h-3.8535v-12.1914h3.791v1.7656c1.1451-1.4565 2.6919-2.1532 4.5283-2.1533 2.2495 0 3.9533 1.0905 4.8389 2.9629 1.1917-2.0418 3.0639-2.9629 5.2451-2.9629zm115.6277 3.4082c-3.474 0-5.382 2.7257-5.382 6.6425v2.5284h-3.84v-12.1582h3.84v2.3203c1.127-1.6289 2.827-2.708 5.382-2.708zm29.968-2.1895-3.84 3.8408v-12.205h-12.207l3.84-3.8399h12.207z" fill="#141210"/></svg>