<?xml version="1.0" encoding="UTF-8"?>
<svg id="Layer_1" data-name="Layer 1" xmlns="http://www.w3.org/2000/svg" version="1.1" viewBox="0 0 545.8 187.6">
  <defs>
    <style>
      .cls-1 {
        fill: #010002;
      }

      .cls-1, .cls-2 {
        stroke-width: 0px;
      }

      .cls-2 {
        fill: #010002;
      }
    </style>
  </defs>
  <path class="cls-1" d="M207.8,81.9c2.7-.5,5.4-.9,8.2-1.2,6.5-.2,11.8,2,15.4,7.8,1.3,2.1,2.1,4.5,2.1,7,.1,4.2.2,8.5,0,12.7-.4,8.5-6.6,14.4-15.4,15-6.1.3-12.3-.5-18.1-2.6-1-.3-1.2-1-1.2-1.9v-50.2c0-2.3.1-2.4,2.3-2.4h5.2c1.2,0,1.6.5,1.6,1.7v13c-.1.4-.1.7-.1,1.1ZM207.8,102.4v10.3c0,1.1.3,1.6,1.3,1.7,2.7.3,5.3.5,8,.6,4.3-.3,6.6-2.5,7-6.8.3-4.3.3-8.5,0-12.8,0-2.9-2-5.3-4.8-6-3.6-1.1-7.4-.7-10.7,1.1-.5.4-.8.9-.8,1.5v10.4Z"/>
  <path class="cls-1" d="M363,81.9c3.4-1,6.9-1.4,10.4-1.2,8.6.5,14.5,6,15,14.6.4,7.5.2,15,.3,22.5v3.1c0,1-.4,1.5-1.5,1.5h-5.9c-1.4,0-1.8-.6-1.8-1.8v-21.5c0-1.2-.1-2.5-.3-3.7-.6-3.8-2.6-5.8-6.4-6.3-2.9-.4-5.8,0-8.6.7-1,.3-1.3.8-1.3,1.9v28.5c0,2.2-.1,2.3-2.3,2.3h-4.3c-1.7,0-2.6-.8-2.6-2.5v-51.8c0-1.8.2-2,2-2h5.3c1.6,0,1.9.3,1.9,1.9v13.8h0Z"/>
  <path class="cls-1" d="M485.8,97.1c4.1-4.5,8.1-8.6,11.8-12.9,1.7-2,3.1-2.5,6.1-2.6h5.2c1.7,0,1,1.3.7,1.7-4.4,4.7-8.8,9.4-13.2,14-.5.5-1,1.1-1.6,1.7l4.8,6.3c3.8,5,7.7,9.9,11.5,14.9.7.9,1.2,2-1,2.1h-7c-1,0-1.9-.4-2.5-1.2-3.6-4.8-7.3-9.6-11-14.4-.3-.4-.6-.8-1-1.2-.8.8-1.6,1.6-2.3,2.4-.3.4-.4.9-.4,1.4v11.2c0,1.7-.2,1.9-1.9,2h-5.3c-1.8,0-1.9,0-1.9-2v-52.1c0-2.1.1-2.2,2.2-2.2h5c1.7,0,1.9.3,1.9,2v27.2c-.1.6-.1,1.2-.1,1.8h0Z"/>
  <path class="cls-1" d="M307.2,81.7c.7-7.4,6-13.6,13.2-15.4,8.6-2.4,16.6-1,24.2,3.7,1.4.9,1.5,1.2.5,2.7s-2,2.9-3,4.4c-.3.7-1.1,1-1.8.7-.1,0-.3,0-.4-.2-2.9-1.9-6.2-3-9.7-3.3-3.9-.3-7.6.2-10.7,3-2.1,1.9-3.2,4.7-3.1,7.5-.1,6.3-.1,12.7,0,19,.1,6.1,4.2,10.2,10.4,10.6,5,.4,10-.9,14.2-3.6,1.5-1,1.6-1,2.6.6s2.1,3,3.1,4.5c.5.5.5,1.3,0,1.8,0,0-.1,0-.2.2-7.6,6.3-22.3,7.4-30.8,2.4-5.8-3.4-8.4-8.7-8.8-15.3-.2-3.5,0-7.1,0-10.6s-.1-8.6.3-12.7h0Z"/>
  <path class="cls-1" d="M273.8,105.8c-.5,5.4,1.6,8.7,6.1,9.2,2.3.2,4.6,0,6.9-.4,2.1-.6,4.1-1.5,5.9-2.7,1.1-.6,1.7-.6,2.4.5.9,1.3,1.8,2.5,2.7,3.7.5.5.5,1.2,0,1.7-.1,0-.2.2-.3.2-7.3,5.4-15.3,6.9-23.8,3.8-5.3-1.7-9-6.6-9.1-12.2-.3-5-.3-9.9,0-14.9.6-7.3,5.3-12.2,12.5-13.5,4.5-.8,8.9-.7,13.1,1.3,5.5,2.6,8.1,7,8.4,12.9.2,2.9,0,5.9.1,8.8,0,1.4-.5,1.8-1.8,1.8h-21.5c-.5-.2-1.1-.2-1.6-.2h0ZM289.9,98.6c.2-3.6,0-7.1-3.5-8.9-3.1-1.8-7-1.6-9.9.5-2.8,2-2.7,5.2-2.7,8.4h16.1Z"/>
  <path class="cls-1" d="M406.2,105.8c-.8,6.2,2.7,9.8,8.7,9.4,3.6,0,7.1-1.3,10-3.3,1.1-.7,1.8-.6,2.5.5s1.8,2.4,2.7,3.6c.5.7.6,1.3-.2,1.9-7.4,5.5-15.5,7-24.2,3.7-5.2-1.8-8.7-6.6-8.8-12.1-.2-4.9-.2-9.9,0-14.8.6-7.3,5.2-12.2,12.4-13.6,4.4-1,9-.6,13.1,1.2,5.5,2.5,8.1,7,8.5,12.9.2,2.9.1,5.9.1,8.8s-.2,1.8-1.9,1.8h-22.9ZM422.1,98.6c.6-4-.5-7.2-3.1-8.7-3-1.9-6.8-1.8-9.8,0-3.2,2-3.1,5.3-3.1,8.6h16Z"/>
  <path class="cls-1" d="M180.1,98.1c.1-2.3.1-4.4-.9-6.3-1-1.8-3-3-5.1-2.9-3.9-.4-7.8.3-11.3,2.1-1.2.6-1.9.5-2.6-.7s-1.6-2.5-2.4-3.7c-.7-1-.6-1.6.5-2.2,4.8-2.9,10.1-3.8,15.7-3.6,3.7,0,7.2,1.1,10.2,3.2,3.1,2.4,5,6.1,5,10,.3,5.5.2,11,.2,16.5v8.7c.1,1-.5,1.9-1.4,2.1-7.2,1.9-14.4,3-21.8,1.5-4-.8-7.6-2.5-9.7-6.4-3.9-7.3-.2-15.4,7.8-17.6,4.4-1.1,9.1-1.4,13.6-.7h2.2ZM180.1,105.5c-1.1,0-2-.3-2.9-.4-3.2-.2-6.5-.6-9.7.4-1.9.5-3.3,2.2-3.3,4.2-.2,2,1,3.9,2.9,4.6,4.3,1.8,8.6.9,12.9,0,.1-3,.1-5.9.1-8.9h0Z"/>
  <path class="cls-1" d="M132,74.8h-15.5c-1,0-1.6-.4-1.6-1.5v-5.9c0-1,.5-1.4,1.5-1.4h39.8c2.2,0,2.3,0,2.3,2.3v4.5c0,1.8-.2,2-2,2h-15.1v45.1c0,1.6-.8,2.4-2.4,2.4h-5.6c-1,0-1.5-.4-1.4-1.4v-46.1Z"/>
  <path class="cls-1" d="M438.6,92.6c1.3-6.4,5.7-10.1,11.9-11.4,6-1.3,12.2-.3,17.5,2.8,1.5.9,1.5,1.2.6,2.6-.6,1-1.3,1.9-1.9,2.9-1.3,2.1-1.3,2-3.5,1-2.5-1.2-5.2-1.8-7.9-1.7-5.2.2-7.8,2.9-7.9,8,0,3.5-.1,7.1,0,10.6.1,4.6,2.7,7.2,7.2,7.5,3.5.3,6.9-.6,9.8-2.5,1.2-.8,2-.6,2.7.6s1.8,2.6,2.7,3.9c.6.8.5,1.4-.4,2-7.1,4.7-14.7,5.6-22.6,2.4-5.7-2.3-8.3-7-8.7-13-.1-2.2,0-4.5,0-6.7-.1-3,0-6,.5-9h0Z"/>
  <path class="cls-1" d="M241.8,88.8v-20.9c0-1.6.2-1.9,1.8-1.9h5.4c1.6,0,1.9.3,1.9,1.9v16.5c0,8.1,0,16.3.1,24.4,0,.7.1,1.5.3,2.2.6,2.7,1.9,3.8,4.7,3.9h2.9c.9,0,1.4.4,1.4,1.3.1,1.9,0,3.7-.1,5.6,0,.5-.6,1.3-1,1.3-3.1.3-6.3.6-9.4-.6-4.8-1.8-6.9-5.7-7.7-10.4-.2-1.9-.3-3.8-.3-5.7v-17.5h0Z"/>
  <g>
    <path class="cls-2" d="M61.9,74.6l-8.9-8.9c-.3-.3-.9-.4-1.3-.3-7.2,3.2-13,9-16.2,16.1-.2.4,0,1,.3,1.3l8.9,8.9c.3.3.9.2,1-.3,1.3-8.1,7.7-14.6,15.9-15.9.4,0,.6-.6.3-.9Z"/>
    <path class="cls-2" d="M84.4,91.8l8.9-8.9c.3-.3.4-.9.3-1.3-3.2-7.2-9-13-16.1-16.2-.4-.2-1,0-1.3.3l-8.9,8.9c-.3.3-.2.9.3,1,8.1,1.3,14.6,7.7,15.9,15.9,0,.4.6.6.9.3Z"/>
    <path class="cls-2" d="M93.3,106.1l-8.9-9c-.3-.3-.9-.2-1,.3-1.3,8.1-7.7,14.6-15.9,15.9-.5,0-.7.7-.3,1l8.9,8.9c.3.3.9.4,1.3.3,7.2-3.2,12.9-9,16.1-16.1.3-.5.2-1-.2-1.3Z"/>
    <path class="cls-2" d="M44.7,97.1l-8.9,9c-.3.3-.4.9-.3,1.3,3.2,7.2,9,12.9,16.1,16.1.4.2,1,0,1.3-.3l8.9-8.9c.3-.3.2-.9-.3-1-8.1-1.3-14.6-7.7-15.9-15.9,0-.4-.6-.6-.9-.3Z"/>
  </g>
</svg>
