<svg width="190" height="70" viewBox="0 0 190 70" fill="none" xmlns="http://www.w3.org/2000/svg">
<g transform="translate(51.336 19.000) scale(0.94117)">
<g clip-path="url(#clip0_4004_135)">
<path d="M69.275 31.5715H64.2367V9.71423H69.275V31.5715ZM69.275 7.28595H64.2367V2.42871H69.275V7.28595ZM47.8628 31.5715H42.8245V2.42871H61.7175V7.28595H47.8624V14.5718H61.7175V19.429H47.8624V31.5718L47.8628 31.5715Z" fill="#111111"/>
<path d="M76.8324 12.4464V9.71414H71.7941V31.5714L76.8324 31.568V20.2378C76.8324 15.76 79.299 13.4579 82.8151 13.4579C86.3313 13.4579 87.7744 16.2153 87.7483 20.263V31.571H92.7866V19.327C92.8127 12.1676 88.9294 9.3364 84.046 9.2854C81.3134 9.2854 78.3982 10.2201 76.8324 12.446V12.4464Z" fill="#111111"/>
<path d="M30.3695 21.7219C33.1024 21.7219 35.3126 19.5639 35.2664 16.9198C35.2216 14.3303 32.9744 12.2781 30.2881 12.2781H28.4094C27.0047 12.2781 25.7164 11.8021 24.7056 11.0095C24.6076 10.933 24.6076 10.7896 24.7056 10.7131C25.7164 9.92086 27.0047 9.44486 28.4094 9.44486H30.2824C33.0153 9.44486 35.2862 7.3236 35.2664 4.68895C35.2467 2.05395 33.0809 0.0187055 30.4038 0.000685455C27.6709 -0.0183545 25.4706 2.17193 25.4706 4.80591V6.61164C25.4706 7.96586 24.9768 9.20788 24.1551 10.1823C24.0757 10.2768 23.9269 10.2768 23.8476 10.1823C23.0258 9.20754 22.5321 7.96586 22.5321 6.61164V4.72295C22.5317 2.08795 20.2933 -0.0438545 17.5506 0.000685455C14.8646 0.0442054 12.7359 2.21068 12.7359 4.80012V6.61164C12.7359 7.96586 12.2421 9.20788 11.4204 10.1823C11.341 10.2768 11.1922 10.2768 11.1129 10.1823C10.2911 9.20754 9.79739 7.96586 9.79739 6.61164V4.72295C9.79739 2.05395 7.50008 -0.0985945 4.70831 0.00442545C2.17012 0.0969054 0.101336 2.09169 0.00435088 4.53867C-0.101451 7.2301 2.12991 9.44486 4.8984 9.44486H6.8575C8.2622 9.44486 9.55052 9.92086 10.5613 10.7131C10.6593 10.7896 10.6593 10.933 10.5613 11.0095C9.55052 11.8021 8.2622 12.2781 6.8575 12.2781H4.97881C2.29285 12.2781 0.0456137 14.33 0.000471474 16.9198C-0.0446707 19.5092 2.16448 21.7219 4.89734 21.7219H6.85645C8.26115 21.7219 9.54946 22.1979 10.5602 22.9901C10.6583 23.0666 10.6583 23.2101 10.5602 23.2866C9.54911 24.0791 8.26115 24.5551 6.85645 24.5551H4.89734C2.12921 24.5551 -0.103215 26.7699 0.00329286 29.4613C0.0992201 31.9083 2.168 33.9031 4.70725 33.9956C7.49902 34.0976 9.79633 31.9464 9.79633 29.2774V27.3887C9.79633 26.0345 10.2901 24.7925 11.1118 23.818C11.1912 23.7238 11.34 23.7238 11.4193 23.818C12.2411 24.7928 12.7348 26.0345 12.7348 27.3887V29.1999C12.7348 31.7893 14.8635 33.9558 17.5495 33.9993C20.2933 34.0439 22.5307 31.9131 22.5307 29.2784V27.3897C22.5307 26.0355 23.0244 24.7935 23.8461 23.819C23.9255 23.7245 24.0743 23.7245 24.1537 23.819C24.9754 24.7935 25.4691 26.0355 25.4691 27.3897V29.2784C25.4691 31.9474 27.7665 34.0996 30.5582 33.9966C33.0964 33.9041 35.1652 31.9093 35.2611 29.4613C35.3669 26.7699 33.1356 24.5551 30.3671 24.5551H28.408C27.0033 24.5551 25.715 24.0791 24.7042 23.2866C24.6062 23.2101 24.6062 23.0666 24.7042 22.9901C25.715 22.1979 27.0033 21.7219 28.408 21.7219H30.3692H30.3695ZM15.6768 9.44486H19.595C20.9997 9.44486 22.288 9.92086 23.2988 10.7131C23.3968 10.7896 23.3968 10.933 23.2988 11.0095C22.288 11.8021 20.9997 12.2781 19.595 12.2781H15.6768C14.2721 12.2781 12.9838 11.8021 11.973 11.0095C11.875 10.933 11.875 10.7896 11.973 10.7131C12.9838 9.92086 14.2721 9.44486 15.6768 9.44486ZM9.79915 17V15.1113C9.79915 13.7571 10.2929 12.5151 11.1146 11.5406C11.194 11.4461 11.3428 11.4461 11.4222 11.5406C12.2442 12.5154 12.7376 13.7571 12.7376 15.1113V18.888C12.7376 20.2422 12.2439 21.4843 11.4222 22.4587C11.3428 22.5529 11.194 22.5529 11.1146 22.4587C10.2929 21.4839 9.79915 20.2422 9.79915 18.888V16.9993V17.0003V17ZM19.595 24.5551H15.6768C14.2721 24.5551 12.9838 24.0791 11.973 23.2866C11.875 23.2101 11.875 23.0666 11.973 22.9901C12.9838 22.1979 14.2721 21.7219 15.6768 21.7219H19.595C20.9997 21.7219 22.288 22.1979 23.2988 22.9901C23.3968 23.0666 23.3968 23.2101 23.2988 23.2866C22.288 24.0791 20.9997 24.5551 19.595 24.5551ZM25.4727 17V18.8887C25.4727 20.2429 24.9789 21.4849 24.1572 22.4594C24.0778 22.5539 23.929 22.5539 23.8497 22.4594C23.0279 21.4849 22.5342 20.2429 22.5342 18.8887V15.111C22.5342 13.7567 23.0279 12.5147 23.8497 11.5403C23.929 11.4458 24.0778 11.4458 24.1572 11.5403C24.9789 12.5151 25.4727 13.7567 25.4727 15.111V16.9997V17Z" fill="#111111"/>
</g>
<defs>
<clipPath id="clip0_4004_135">
<rect width="93" height="34" fill="white"/>
</clipPath>
</defs>
</g>
</svg>
