<?xml version="1.0" encoding="UTF-8"?>
<svg id="Layer_1" xmlns="http://www.w3.org/2000/svg" xmlns:ns0="http://www.w3.org/2000/svg" version="1.1" viewBox="0 0 190 70">
  <!-- Generator: Adobe Illustrator 29.0.0, SVG Export Plug-In . SVG Version: 2.1.0 Build 186)  -->
  <defs>
    <style>
      .st0, .st1 {
        fill: #020202;
      }

      .st2 {
        fill: #none;
      }

      .st1 {
        fill-rule: evenodd;
      }
    </style>
  </defs>
  <rect class="st2" y="8" width="190" height="54"/>
  <g id="_747227">
    <g vector-effect="non-scaling-stroke">
      <g id="Layer_1-2">
        <path class="st0" d="M71.4,47.1c1.5,0,2.9-.3,4.1-.8,1.2-.6,2.1-1.3,2.7-2.3s1-2.1,1-3.4c0-3-1.8-5-5.4-6.2l-4.1-1.3c-.8-.3-1.4-.6-1.8-1.1s-.6-1-.6-1.6.3-1.5.9-2,1.5-.8,2.5-.8,2.2.3,3.1.9,1.5,1.5,2,2.6l3.4-1.5c-.6-1.7-1.7-3-3.2-4.1-1.5-1-3.2-1.5-5.3-1.5s-2.8.3-3.9.8c-1.1.5-2,1.3-2.6,2.3s-.9,2.1-.9,3.4.4,2.7,1.3,3.8c.9,1.1,2.2,1.9,3.9,2.4l4.3,1.4c.8.3,1.4.6,1.7,1,.4.4.6,1,.6,1.6s-.3,1.5-1,2c-.6.5-1.5.7-2.6.7s-2.4-.4-3.5-1.1c-1-.7-1.8-1.8-2.4-3l-3.4,1.5c.4,1.2,1,2.3,1.9,3.3.9.9,1.9,1.6,3.1,2.2,1.2.5,2.6.8,4,.8h.2Z"/>
      </g>
      <g id="Layer_1-3">
        <path class="st0" d="M87.5,47.1c2.1,0,3.8-.7,5.1-2.1v1.7h3.7v-11c0-1.1-.3-2.2-.9-3-.6-.9-1.4-1.6-2.4-2-1-.5-2.2-.8-3.5-.8s-3.1.4-4.4,1.2-2.2,1.8-2.6,3.1l3.2,1.6c.3-.7.8-1.3,1.4-1.8s1.4-.7,2.3-.7,1.6.2,2.2.7.8,1,.8,1.7v.5l-4.9.8c-1.9.3-3.3.9-4.3,1.8-.9.9-1.4,2-1.4,3.4s.5,2.6,1.5,3.4c1,.8,2.4,1.3,4.1,1.3h.1ZM85.9,42.1c0-1.1.8-1.9,2.3-2.2l4.1-.7v.7c0,1.1-.4,2.1-1.2,2.9-.8.8-1.8,1.2-3,1.2s-1.2-.2-1.6-.5-.6-.8-.6-1.4h0Z"/>
      </g>
      <g id="Layer_1-4">
        <path class="st0" d="M107.8,47.1c1.7,0,3.1-.4,4.4-1.1,1.3-.8,2.1-1.7,2.6-2.9l-3.2-1.6c-.4.6-.9,1.1-1.5,1.5s-1.4.6-2.3.6-2.2-.4-3-1.1c-.8-.7-1.3-1.7-1.4-2.9h11.9c0-.2.1-.5.1-.7v-.9c0-1.5-.3-2.8-.9-4s-1.5-2.2-2.7-2.9c-1.2-.7-2.6-1.1-4.3-1.1s-2.9.4-4.2,1.1c-1.2.7-2.2,1.8-2.9,3-.7,1.3-1,2.7-1,4.4s.3,3,1,4.3,1.7,2.3,3,3.1,2.7,1.1,4.4,1.1h.1ZM107.5,33.2c1,0,1.9.3,2.6,1,.7.6,1.1,1.4,1.2,2.4h-7.8c.2-1.1.7-1.9,1.4-2.5.7-.6,1.6-.9,2.6-.9h-.1Z"/>
      </g>
      <g id="Layer_1-5">
        <path class="st0" d="M118.6,46.7h3.9v-22.9h-3.9v22.9Z"/>
      </g>
      <g id="Layer_1-6">
        <path class="st0" d="M134.3,47.1c1.6,0,3-.4,4.3-1.1,1.3-.7,2.4-1.8,3.1-3,.8-1.3,1.2-2.8,1.2-4.4s-.4-3.1-1.2-4.4-1.8-2.3-3.1-3-2.8-1.1-4.4-1.1-3.1.4-4.4,1.1c-1.3.7-2.4,1.8-3.1,3-.8,1.3-1.1,2.7-1.1,4.4s.4,3.1,1.1,4.4c.8,1.3,1.8,2.3,3.1,3,1.3.7,2.8,1.1,4.4,1.1h.1ZM134.3,43.4c-.9,0-1.7-.2-2.4-.6-.7-.4-1.2-1-1.6-1.7-.4-.8-.6-1.6-.6-2.5s.2-1.8.6-2.5c.4-.7.9-1.3,1.6-1.7.7-.4,1.5-.7,2.4-.7s1.7.2,2.3.7c.7.4,1.2,1,1.6,1.7.4.7.6,1.6.6,2.5s-.2,1.8-.6,2.5c-.4.7-.9,1.3-1.6,1.7-.7.4-1.4.6-2.3.6Z"/>
      </g>
      <g id="Layer_1-7">
        <path class="st0" d="M151.8,47.1c1,0,1.9-.2,2.7-.6.8-.4,1.4-1,1.9-1.7v2h3.7v-16.4h-3.9v9.7c0,1.1-.3,1.9-.9,2.6-.6.6-1.4.9-2.4.9s-1.8-.3-2.4-.9c-.6-.6-.9-1.4-.9-2.5v-9.8h-3.9v10.1c0,2,.5,3.6,1.6,4.9,1.1,1.2,2.6,1.8,4.5,1.8h0Z"/>
      </g>
      <g id="Layer_1-8">
        <path class="st0" d="M163.9,46.7h3.9v-9.7c0-1.1.3-1.9.9-2.5.6-.6,1.4-1,2.4-1s1.8.3,2.4,1c.6.6.9,1.5.9,2.5v9.7h3.9v-10.6c0-1.2-.3-2.3-.8-3.2-.5-.9-1.2-1.7-2.2-2.2-.9-.5-2-.8-3.2-.8s-1.9.2-2.8.6c-.8.4-1.4,1-1.9,1.8v-2h-3.7v16.4h.2Z"/>
      </g>
      <g id="Layer_1-9">
        <path class="st1" d="M28.7,56.4c-12,0-21.6-9.7-21.6-21.6S16.7,13.1,28.7,13.1s21.6,9.7,21.6,21.6-9.7,21.6-21.6,21.6ZM38.2,49.1v-28.6h-3.8v11.1h-1.8v-10.7h-3.8v18.3c-3.2-2.1-5.2-5.4-5.2-11.8v-4h-4v4.1c0,6.4-1.8,10.3-5.6,12.6l2.3,3c2.4-1.4,4.7-4.4,5.3-7,.7,2.6,3.2,5.2,4.8,6.3l2.3-3.2v8.5h3.8v-12.8h1.8v14.1h3.9ZM28.7,39.3h0Z"/>
      </g>
    </g>
  </g>
</svg>
