<svg fill="none" height="140" viewBox="0 0 380 140" width="380" xmlns="http://www.w3.org/2000/svg"><g fill="#000"><path d="m137.159 58.9542c0-1.6243-1.253-2.957-3.007-2.957s-3.006 1.3327-3.006 2.957v23.988c0 1.6245 1.252 2.9572 3.006 2.9572 1.796 0 3.007-1.3327 3.007-2.9572z"/><path d="m166.767 55.9972c-1.754 0-2.965 1.3327-2.965 2.957v10.2449l.167 9.1623-3.633-8.5794-4.761-9.745c-1.461-3.0404-3.131-4.0398-5.512-4.0398-3.507 0-5.052 2.2073-5.052 5.3724v21.5726c0 1.6245 1.21 2.9572 2.965 2.9572 1.753 0 2.964-1.3327 2.964-2.9572l-.041-10.1197-.126-10.3701 3.884 9.4952 4.802 9.9118c1.503 3.1653 3.09 4.0816 5.512 4.0816 3.132 0 4.76-1.916 4.76-5.4556v-21.5312c0-1.6243-1.21-2.957-2.964-2.957z"/><path d="m191.903 62.1193 6.806.1664c1.588.0418 2.84-1.1659 2.84-2.9151s-1.252-2.9569-2.84-2.9569l-19.71-.0417c-1.545 0-2.839 1.2077-2.839 2.9569 0 1.7491 1.294 2.9568 2.839 2.9153l6.849-.1249v20.8229c0 1.6245 1.252 2.9572 3.006 2.9572 1.796 0 3.049-1.3327 3.049-2.9572z"/><path d="m212.082 85.5244h14.657c1.544 0 2.797-1.1661 2.797-2.7904 0-1.6657-1.253-2.8318-2.797-2.8318l-12.737.0416v-6.955h11.024c1.503 0 2.714-1.1245 2.714-2.6651 0-1.5828-1.211-2.7073-2.714-2.7073l-11.024.0833v-5.7471h12.737c1.544 0 2.797-1.1661 2.797-2.8319 0-1.6659-1.253-2.7903-2.797-2.7903l-14.616.0416c-2.674 0-4.175 1.4992-4.175 4.1647v20.8232c0 2.6651 1.501 4.1645 4.134 4.1645z"/><path d="m253.41 73.6554c3.967-1.0413 6.305-4.123 6.305-8.2044 0-4.5394-2.965-9.079-10.063-9.079h-9.188c-2.672 0-4.175 1.4992-4.175 4.1647v22.4055c0 1.6245 1.253 2.9572 3.091 2.9572 1.795 0 3.089-1.3327 3.089-2.9572l-.041-7.8295h5.053l5.135 9.2456c.835 1.4161 2.589 1.9991 4.218 1.1661 1.629-.8744 2.088-2.6238 1.211-4.0395zm-10.982-11.7443h7.266c2.463 0 4.008 1.5407 4.008 3.8314 0 2.2489-1.462 3.915-3.926 3.915h-7.348z"/><path d="m278.159 86.0657c6.097 0 10.023-2.7485 11.358-7.2047.709-2.5405-.792-4.3728-3.048-4.3728-1.378 0-2.297.7078-2.84 2.2489-.835 2.3323-2.881 3.7899-5.804 3.7899-4.635 0-6.64-3.1237-6.64-9.6205 0-6.3719 2.046-9.412 6.64-9.412 2.881 0 4.551 1.2078 5.596 3.9981.584 1.5825 1.545 2.2904 2.964 2.2904 2.171 0 3.759-1.749 3.091-4.1645-1.337-4.9143-5.22-7.6629-11.484-7.6629-8.603 0-12.987 5.2473-12.987 14.9509 0 9.7868 4.384 15.1592 13.154 15.1592z"/><path d="m307.847 85.9828c8.854 0 13.238-5.4144 13.238-15.0763 0-9.7451-4.51-15.1176-13.238-15.1176-8.769 0-13.154 5.4558-13.195 15.1176 0 9.7035 4.467 15.0763 13.195 15.0763zm0-5.5807c-4.927 0-7.056-3.1235-7.056-9.4956 0-6.455 2.172-9.5785 7.015-9.5785 4.886 0 7.182 3.1235 7.14 9.5785 0 6.4135-2.171 9.4956-7.099 9.4956z"/><path d="m359.959 61.2029c0-3.2899-2.046-5.2473-5.222-5.2473-2.587 0-4.551 1.4159-5.511 4.6643l-3.215 10.4533-2.13 7.5378-2.046-7.5378-3.425-10.4533c-.96-3.0402-2.63-4.6643-5.553-4.6643-3.216 0-5.219 1.9156-5.219 5.2473v21.7393c0 1.6245 1.168 2.9572 2.881 2.9572 1.711 0 2.881-1.3327 2.881-2.9572l-.043-10.4947-.292-11.2446 3.299 11.4946 3.508 10.1614c.751 2.2489 2.172 2.9988 4.009 2.9988 1.713 0 3.091-.6248 3.8-2.9155l3.34-10.2447 3.55-11.5777-.334 11.3277v10.4947c0 1.6245 1.212 2.9572 2.882 2.9572 1.711 0 2.881-1.3327 2.881-2.9572z"/><path d="m87.5927 74.8419c0 .6942-.2734 1.3598-.7604 1.8504-.4871.4908-1.1473.7666-1.8361.7666s-1.3491-.2758-1.8361-.7666c-.487-.4906-.7604-1.1562-.7604-1.8504v-23.3781c0-.6939.2734-1.3594.7604-1.8502s1.1473-.7665 1.8361-.7665 1.349.2757 1.8361.7665c.487.4908.7604 1.1563.7604 1.8502zm-.9015 16.1984c-.3431.3459-9.9992 8.4558-27.7021 8.4558-17.7028 0-27.2945-8.0666-27.7022-8.4128-.2569-.2182-.4686-.4855-.6228-.7864-.1542-.3012-.248-.6296-.2759-.9674-.0279-.3374.0106-.6771.1133-.9998.1026-.3224.2675-.6214.485-.8796.4481-.5225 1.0831-.8452 1.7664-.8981.6834-.0527 1.3597.1693 1.8814.6169.1503.1084 8.7764 7.1584 24.3333 7.1584 15.557 0 24.2475-7.0935 24.3335-7.1584.5275-.4438 1.2061-.6628 1.8911-.6101.6854.0525 1.3233.3722 1.778.8913.4378.5149.6564 1.1831.6082 1.8592-.0482.6762-.3593 1.3062-.8656 1.7525zm-56.327-39.5765c.0388-.6961.3495-1.3485.8642-1.8145.5146-.4661 1.1914-.7078 1.8824-.6724.6406.0367 1.245.3111 1.6967.7703.4518.4593.7188 1.0709.7495 1.7166v23.3351c0 .6938-.2735 1.3595-.7604 1.8501-.487.4909-1.1474.7665-1.836.7665s-1.349-.2756-1.8359-.7665c-.4869-.4906-.7605-1.1563-.7605-1.8501zm13.025-5.1902c.0389-.6962.3496-1.3486.8642-1.8146.5146-.4661 1.1914-.7078 1.8825-.6724.6405.0366 1.2449.311 1.6966.7703.4518.4592.7187 1.0708.7496 1.7167v34.6021c0 .6942-.2736 1.3598-.7605 1.8504-.487.4908-1.1475.7664-1.8361.7664s-1.3488-.2756-1.8359-.7664c-.4868-.4906-.7604-1.1562-.7604-1.8504zm13.0894-1.2976c0-.694.2735-1.3596.7605-1.8503.487-.4908 1.1473-.7665 1.8357-.7665.6888 0 1.3492.2757 1.8361.7665.487.4907.7604 1.1563.7604 1.8503v37.6299c0 .694-.2734 1.3594-.7604 1.8504-.4869.4908-1.1473.7664-1.8361.7664-.6884 0-1.3487-.2756-1.8357-.7664-.487-.491-.7605-1.1564-.7605-1.8504zm12.8748 1.2976c0-.694.2736-1.3596.7605-1.8504.487-.4907 1.1473-.7664 1.8357-.7664.6887 0 1.3492.2757 1.8361.7664.487.4908.7604 1.1564.7604 1.8504v34.6021c0 .6942-.2734 1.3598-.7604 1.8504-.4869.4908-1.1474.7664-1.8361.7664-.6884 0-1.3487-.2756-1.8357-.7664-.4869-.4906-.7605-1.1562-.7605-1.8504zm18.9473-14.2734h-58.5373c-1.2755-.0085-2.5402.2366-3.7215.7213-1.1814.4847-2.2563 1.1995-3.1632 2.1035s-1.628 1.9793-2.122 3.1646c-.4939 1.1852-.7511 2.4569-.7567 3.7425v58.3909c.0056 1.286.2628 2.558.7567 3.743.494 1.185 1.2151 2.26 2.122 3.164s1.9818 1.619 3.1632 2.104c1.1813.485 2.446.729 3.7215.721h58.5373c1.2736.008 2.5366-.236 3.7164-.719 1.1803-.483 2.2541-1.196 3.1608-2.098.9064-.902 1.628-1.975 2.1233-3.157.4954-1.183.7545-2.453.7627-3.736v-58.4129c-.0055-1.2837-.2619-2.5537-.7547-3.7375-.4924-1.1838-1.2114-2.2582-2.1163-3.1619-.9047-.9037-1.9769-1.619-3.1559-2.105-1.1789-.486-2.4412-.7332-3.7148-.7275"/></g></svg>