<svg height="70" viewBox="0 0 190 70" width="190" xmlns="http://www.w3.org/2000/svg"><path d="m126.594715 26.9903712c-.402974.1389573-1.141758.4504133-1.141758.4504133l.95946 3.4164333.172703-.0527079 1.007433-.3114561c1.348881-.4462417 2.753814-.701089 4.173652-.7570778 1.324055 0 2.307502.273123 2.921556.8049941.614055.5318711.858717 1.327282.892298 2.510815h-3.401286c-2.494597 0-4.456693.5270794-5.833518 1.5716551-1.294583.9606346-2.03213 2.4967198-1.971691 4.1064282-.047958 1.4839022.571568 2.9113482 1.68865 3.8908048 1.110155.9225966 2.513731 1.4187903 3.957773 1.3991564h.24946c1.869721.0816772 3.720127-.4062796 5.305815-1.3991564v1.3895731h3.83784v-11.1740847c.051237-1.7134649-.56237-3.3804348-1.712636-4.6526742-1.280879-1.4374894-3.089462-2.1466509-5.387369-2.1466509-1.944788.0115515-3.874754.3349886-5.718382.9535347zm8.994939 11.1980428c-.544422.6239797-1.206164 1.1351654-1.947705 1.5045723-.740204.4042541-1.557643.647563-2.39865.7139531-2.072434.1389573-3.271759-.5558292-3.271759-1.8495697 0-.6804117.676419-1.2506159 1.348042-1.509364 1.058441-.2987837 2.159155-.4202211 3.257367-.3593723l3.012705-.0047917zm-21.38157-12.1851189c-1.473692-.0300164-2.93253.2989034-4.250408.9583263v-.9583263h-4.096895v23.1867049h4.120881v-6.1524549c1.31782.6595873 2.776699.9885163 4.250409.9583263 2.590542 0 4.701354-.8385355 6.279666-2.49644s2.36507-3.8572634 2.36507-6.502244c0-2.6449805-.796352-4.8299645-2.36507-6.5022439-1.568717-1.6722794-3.684327-2.49644-6.279666-2.49644zm3.166219 13.0955289c-.440744.3939556-.956269.6954094-1.515947.8864519-1.084471.3948305-2.27364.3948305-3.358111 0-.554866-.188268-1.063395-.4920452-1.49196-.8912435h.023986c-.47475-.4577476-.846043-1.0115777-1.088987-1.6243631-.5763-1.6062959-.5763-3.362626 0-4.9689219.801149-1.8687363 2.197164-2.7791463 4.2648-2.7791463 1.163616-.0304233 2.294195.3883232 3.156624 1.1691581 1.021825.9583263 1.539934 2.328733 1.539934 4.0776785s-.518109 3.2056014-1.530339 4.1303863zm36.963202-18.308824v6.1812047c-1.317878-.6594229-2.776717-.9883427-4.250409-.9583263-2.590542 0-4.701354.8385355-6.279666 2.49644s-2.36507 3.8572633-2.36507 6.5022439.796352 4.8299646 2.36507 6.502244c1.568717 1.6722794 3.684327 2.49644 6.279666 2.49644 1.473692.0300164 2.932531-.2989034 4.250409-.9583263v.9583263h4.096895v-23.2202463zm.450946 14.2167707c.024161.8494596-.122658 1.6951196-.431757 2.4868568-.801149 1.8687363-2.197164 2.7791462-4.2648 2.7791462-1.163699.0309206-2.294457-.3878923-3.156624-1.169158-1.021825-.9583263-1.539934-2.328733-1.539934-4.0776785s.518109-3.2008098 1.530339-4.1303863c.440744-.3939556.956269-.6954094 1.515947-.8864519 1.085116-.3911652 2.272995-.3911652 3.358111 0 .554866.188268 1.063395.4920452 1.49196.8912435.474523.4579378.84578 1.0117155 1.088987 1.6243631.308592.7902079.455405 1.6342006.431758 2.4820651zm-53.355579-9.0753501-8.9325735 7.0820314v-12.223452h-4.0920975v23.2106631h4.0920975v-5.7403746l2.1731772-1.7201957 6.3804103 7.5324447 3.113448-2.678522-6.2748695-7.4078623 6.0685855-4.810798zm-43.4251657.0766462c-2.7152722-.0047717-4.9843955.8529303-6.5531128 2.4964599-1.5687173 1.6435297-2.3986504 3.8333053-2.3986504 6.4974524s.8155412 4.8443394 2.3986504 6.4926607c1.5831092 1.6483212 3.8378406 2.49644 6.5531128 2.49644s4.9843954-.8624937 6.5531128-2.49644c1.5687173-1.6339464 2.3986503-3.8333052 2.3986503-6.4926607s-.8155411-4.8443395-2.3986503-6.4926607c-1.5831093-1.6483213-3.8378406-2.5012516-6.5531128-2.5012516zm1.7030417 13.9676258c-1.1041146.3860358-2.3067661.3860358-3.4108808 0-.5740267-.1888805-1.1053706-.4884257-1.56392-.8816602-1.0458116-.9247849-1.5783119-2.314358-1.5783119-4.1303864 0-1.8160283.5181084-3.1049772 1.5879065-4.0728868 1.8950756-1.5580112 4.6292534-1.5580112 6.524329 0 1.069798.9583263 1.5879065 2.2999832 1.5879065 4.0728868 0 1.7729037-.5325004 3.2008099-1.5783119 4.1255948-.4596388.3953862-.992666.6965895-1.5687174.8864518zm17.6492694-13.9676256c-2.7152722-.0047719-4.9843954.8625134-6.5531128 2.4964597-1.5687173 1.6339464-2.3986503 3.8333053-2.3986503 6.4974524s.8155411 4.8443394 2.3986503 6.4926607c1.5831093 1.6483212 3.8378406 2.49644 6.5531128 2.49644s4.9843955-.8624937 6.5531128-2.49644c1.5687173-1.6339464 2.3986504-3.8333052 2.3986504-6.4926607s-.8155412-4.8443395-2.3986504-6.4926607c-1.5831092-1.6483213-3.8378406-2.5012514-6.5531128-2.5012514zm1.7030418 13.9676256c-.5483813.1871835-1.1235314.284277-1.7030418.2874979-.5809978-.0041261-1.1575826-.1011884-1.7078391-.2874979-.5740217-.188892-1.1053634-.4884359-1.56392-.8816602-1.0458115-.9247849-1.5783119-2.314358-1.5783119-4.1303864 0-1.8160283.5181085-3.1049772 1.5879065-4.0728868 1.8950756-1.5580112 4.6292534-1.5580112 6.524329 0 1.0697981.9583263 1.5879065 2.2999832 1.5879065 4.0728868 0 1.7729037-.5325003 3.2008099-1.5783119 4.1255948-.4595665.3954889-.992615.6967044-1.5687173.8864518zm-41.2232051-9.4395141c.8238802-.5443297 1.7948986-.8235857 2.7824344-.8002025.4978426-.0000296.9938975.0594909 1.4775686.1772904 1.3583548.3526867 2.5736154 1.1178147 3.478043 2.1897756l.1199325.1341657 2.64811-2.5922727c-.4853869-.5494379-1.0218925-1.0516169-1.6022984-1.4997806-1.7984377-1.3743335-4.0008485-2.1171477-6.2652747-2.1131421-3.0318941 0-5.7615582 1.3512727-7.2679106 3.4739654-2.1931447 3.3470283-2.1931447 7.6737242 0 11.0207525 1.5111497 2.1274844 4.2360165 3.4739655 7.2679106 3.4739655 2.2644262.0040056 4.466837-.7388086 6.2652747-2.1131421.5804867-.448069 1.1170009-.9502561 1.6022984-1.4997807l-2.6625019-2.6210224-.1199325.1341656c-.9044276 1.071961-2.1196882 1.837089-3.478043 2.1897756-.4836744.1177814-.9797271.1773017-1.4775686.1772904-.9875757.0236917-1.9586847-.2555903-2.7824344-.8002024-.6513632-.4418597-1.1888926-1.031294-1.5687174-1.7201958-.4068743-.8562111-.6151291-1.7930691-.6092572-2.7408132l.0143919-.0143749c-.0053148-.9461462.2029304-1.8813232.6092572-2.7360216.3799732-.6887957.9174738-1.2781983 1.5687174-1.7201957z"/></svg>