<svg fill="none" height="70" viewBox="0 0 190 70" width="190" xmlns="http://www.w3.org/2000/svg"><path clip-rule="evenodd" d="m40.4388 24.8265c0 1.7608 1.1584 2.8729 2.9655 2.8729 1.8072 0 2.9656-1.0657 2.9656-2.8265s-1.1584-2.8729-2.9656-2.8729c-1.7607 0-2.9655 1.1121-2.9655 2.8265zm5.6067 22.0099v-18.0249h-5.3287v18.0249zm-14.179-20.5271c-1.0657 0-1.8535.4633-2.5485 1.4827l-2.0388 2.9656v-8.4333h-4.9117v8.4333l-2.0388-2.9656c-.695-1.0194-1.4828-1.4827-2.5485-1.4827-1.6681 0-2.7802 1.2047-2.7802 2.6875 0 1.2511.6024 2.0851 1.8535 2.9192l7.9235 5.097 7.9236-5.097c1.251-.8341 1.8534-1.6218 1.8534-2.9192.0463-1.4828-1.0657-2.6875-2.6875-2.6875zm-7.0895 11.9548c4.7263 0 8.5722 3.5215 8.5722 8.5722h-17.1445c0-5.0507 3.8923-8.5722 8.5723-8.5722zm29.1921-9.4526v3.3362h.278c1.0194-2.3632 2.7802-3.7069 5.6067-3.7069 3.8459 0 6.2091 2.2705 6.2091 6.7188v11.6768h-5.3287v-10.6574c0-2.5022-1.0657-3.6143-3.1972-3.6143-2.1778 0-3.4289 1.2048-3.4289 3.7533v10.5184h-5.3287v-18.0249zm21.7318 14.6886c-1.7145 0-2.6876-.7877-2.8729-2.3632h-5.1434c.3707 3.6606 2.9192 6.0701 7.9699 6.0701 4.9117 0 7.6455-2.5022 7.6455-6.0237 0-3.2436-1.7607-4.8654-5.8384-5.4214l-2.5948-.3244c-1.3438-.1853-1.8998-.6487-1.8998-1.5291 0-.973.7877-1.7144 2.5485-1.7144 1.7145 0 2.5022.7877 2.6412 2.1314h4.9117c-.3244-3.5215-2.5949-5.8384-7.4602-5.8384-4.958 0-7.5529 2.5022-7.5529 5.9311 0 3.0582 1.7145 4.9117 5.8384 5.3751l2.3169.278c1.6217.139 2.1314.7414 2.1314 1.7144 0 .9731-.7413 1.7145-2.6411 1.7145zm10.7037-1.9462v-8.5259h-2.2705v-3.5216c2.9655-.1853 4.124-1.2974 4.2166-4.0313h3.3826v3.3363h4.0313v4.2166h-4.0313v7.5992c0 1.8071.7414 2.3631 2.2241 2.3631.4171 0 .8804-.0463 1.3438-.139v4.0313c-.8804.2317-1.7144.3244-2.6412.3244-4.4019 0-6.2554-1.9925-6.2554-5.6531zm21.0834 2.2706h.231.047v2.9655h5.143v-11.6768c0-4.0312-2.502-6.6724-7.692-6.6724-4.819 0-7.6453 2.4558-8.2013 6.3481h5.0503c.186-1.4364 1.112-2.2705 2.966-2.2705 1.668 0 2.548.695 2.548 1.9461 0 .9268-.556 1.4828-2.131 1.7608l-3.058.5561c-4.1242.7877-5.607 2.6411-5.607 5.2823 0 2.8729 1.9461 5.097 5.514 5.097 2.78 0 4.356-1.2047 5.19-3.3362zm-1.854-4.4946c.834-.1854 1.437-.4634 1.9-.7878h.046v1.8072c0 2.3168-1.204 3.2899-3.011 3.2899-1.53 0-2.41-.7414-2.41-1.9925 0-.9731.51-1.6218 1.9-1.9461zm18.813-10.8891c5.607 0 8.757 3.0582 9.128 7.9699h-5.282c-.278-2.2242-1.483-3.6606-3.892-3.6606-2.734 0-4.263 1.7144-4.263 4.9116 0 3.429 1.668 5.1434 4.309 5.1434 2.27 0 3.66-1.3438 3.938-3.7533h5.283c-.51 5.0507-3.892 8.0626-9.406 8.0626-6.071 0-9.546-3.6606-9.546-9.3136.093-5.6068 3.892-9.36 9.731-9.36zm21.315 15.3837h.231.047v2.9655h5.143v-11.6768c0-4.0312-2.502-6.6724-7.692-6.6724-4.819 0-7.645 2.4558-8.201 6.3481h5.05c.186-1.4364 1.112-2.2705 2.966-2.2705 1.668 0 2.548.695 2.548 1.9461 0 .9268-.556 1.4828-2.131 1.7608l-3.058.5561c-4.124.7877-5.607 2.6411-5.607 5.2823 0 2.8729 1.946 5.097 5.514 5.097 2.78 0 4.356-1.2047 5.19-3.3362zm-1.854-4.4946c.834-.1854 1.437-.4634 1.9-.7878h.046v1.8072c0 2.3168-1.204 3.2899-3.012 3.2899-1.529 0-2.409-.7414-2.409-1.9925 0-.9731.51-1.6218 1.9-1.9461zm14.828-10.5185v4.3556h.278c.88-3.6606 2.178-4.68 3.939-4.68.37 0 .741.0464 1.065.1854v5.0043c-.417-.0463-.88-.0926-1.436-.0926-2.502 0-3.522 1.0194-3.522 3.8459v9.4526h-5.328v-18.0712zm8.943-3.3363c-.093 1.8535-.649 2.9656-2.039 3.5216v12.5572c0 3.7069 1.9 5.6531 6.255 5.6531.927 0 1.761-.0927 2.642-.3244v-4.0313c-.464.0927-.927.139-1.344.139-1.483 0-2.224-.556-2.224-2.3631v-7.5992h4.031v-4.2166h-4.031v-3.3363z" fill="#000" fill-rule="evenodd"/></svg>