<svg fill="none" height="70" viewBox="0 0 190 70" width="190" xmlns="http://www.w3.org/2000/svg"><path d="m42.291 19.4692c.9785 0 1.7705.7921 1.7705 1.7705v.5665c0 .1552-.0613.3112-.1699.4277l-13.6523 14.2568c-1.4988 1.5609-2.8502 1.7397-4.0694.5205-1.2033-1.2035-1.1568-2.6402.1475-4.3017.2795-.365.2725-.8857-.0459-1.2041l-5.3897-5.3887c-.3261-.3261-.8465-.3182-1.1494.0234-2.3915 2.71-3.5334 5.5209-3.417 8.4405.1476 3.1605 1.5691 6.0886 4.2715 8.791 2.547 2.5469 5.234 3.8047 8.0606 3.8047 2.8499.0155 5.5832-1.3437 8.208-4.0772l6.1347-6.3984c.3882-.4037 1.071-.1321 1.0713.4267v11.6329c0 .9784-.792 1.7705-1.7705 1.7705h-27.5205c-.9784-.0001-1.7705-.7921-1.7705-1.7705v-27.5206c0-.9784.7921-1.7704 1.7705-1.7705zm131.998 22.9082c.497 0 .94.0852 1.32.2637.381.1709.676.4121.894.7227.217.3027.326.6598.334 1.0556h-1.22c-.031-.3025-.17-.5353-.403-.706-.233-.1709-.544-.249-.925-.249-.264 0-.496.0387-.683.124-.194.0776-.334.1864-.443.3262-.101.1396-.155.2952-.155.4736 0 .1475.031.2721.101.3808s.163.2017.28.2793c.116.0699.249.1322.388.1866.14.0543.287.0929.435.124l.66.1631c.264.0621.52.1481.769.249.248.1087.473.2403.668.4033.194.1631.357.3578.465.583.117.2252.171.4971.171.7998 0 .4115-.108.7764-.318 1.0948-.21.3104-.52.5587-.916.7373-.396.1785-.878.2646-1.444.2646-.567 0-1.026-.086-1.438-.2568-.403-.1709-.722-.4191-.947-.7451-.225-.3262-.349-.7227-.364-1.1963h1.257c.016.2485.093.4512.225.6142s.311.2866.521.3643c.217.0776.458.125.722.125.264-.0001.52-.0396.73-.125.209-.0854.38-.2013.497-.3487.116-.1552.178-.3265.186-.5283 0-.1862-.054-.3338-.163-.458-.108-.1241-.256-.2251-.442-.3027-.187-.0854-.412-.1557-.66-.2178l-.808-.2099c-.582-.1476-1.041-.373-1.383-.6836-.333-.3029-.505-.7142-.505-1.2188 0-.4192.117-.7842.342-1.0947.225-.3106.537-.5596.925-.7305.388-.1784.83-.2636 1.327-.2637zm-10.506 5.2959h.062l1.359-5.1953h1.25l1.367 5.1953h.062l1.273-5.1953h1.375l-1.996 7.0664h-1.265l-1.414-4.9619h-.054l-1.421 4.9619h-1.25l-1.996-7.0664h1.374zm-31.917-5.1953h2.649c.543 0 1.001.094 1.366.2803.373.1864.652.4503.839.792.194.3338.288.7295.288 1.1797 0 .4504-.094.8467-.288 1.1806-.194.3338-.474.59-.846.7686-.039.0233-.086.047-.133.0625l1.53 2.7949h-1.428l-1.391-2.5849h-1.305v2.5849h-1.281zm11.307 1.0723h-3.316v1.918h3.076v1.0713h-3.076v1.9257h3.347v1.0713h-4.628v-7.0586h4.597zm4.481 4.4883h.077l1.841-5.5684h1.406l-2.494 7.0664h-1.584l-2.492-7.0664h1.405zm5.925 1.498h-1.281v-7.0664h1.281zm6.367-5.9863h-3.315v1.918h3.075v1.0713h-3.075v1.9257h3.347v1.0713h-4.628v-7.0586h4.596zm-52.277-18.8086c.994 0 1.856.2018 2.602.6055.504.2717.931.5981 1.281.9785.147.1631.458.0621.458-.1553v-1.0166c0-.1165.093-.2177.218-.2178h3.882c.117 0 .218.0936.218.2178v13.8379c0 1.2967-.264 2.4615-.784 3.5098-.505 1.056-1.29 1.9022-2.346 2.5234-1.04.6212-2.345.9326-3.914.9326-2.088 0-3.773-.4974-5.07-1.4912-1.235-.9318-1.965-2.1746-2.191-3.751-.015-.1242.086-.2402.21-.2402h3.852c.101 0 .187.0699.218.1631.155.4579.458.8308.908 1.1025.505.3184 1.126.4815 1.864.4815.893-.0001 1.599-.2643 2.119-.7842.536-.5047.808-1.3204.808-2.4463v-1.2578c0-.2174-.303-.3105-.442-.1475-.358.3959-.793.745-1.297 1.0323-.738.4037-1.608.6054-2.602.6054-1.164 0-2.213-.2947-3.152-.8847-.94-.6057-1.693-1.4522-2.244-2.5469-.536-1.1105-.808-2.3926-.808-3.8369 0-1.4442.272-2.7177.808-3.8125.551-1.0949 1.304-1.9333 2.244-2.5235.939-.5901 1.995-.8857 3.152-.8857zm25.478 18.8086v2.3447h1.181c.311 0 .575-.0465.776-.1318.202-.0854.358-.2178.452-.3887.1-.1707.147-.3807.147-.6367 0-.2561-.046-.466-.147-.6445-.094-.1786-.25-.3102-.452-.4034-.201-.0931-.465-.1396-.784-.1396zm36.84-18.6758c1.398 0 2.571.2867 3.635.8535 1.064.5746 1.886 1.3904 2.469 2.4463.606 1.0561.909 2.2986.909 3.7119v.0078c0 .3416-.016.6987-.055 1.0713-.007.1087-.101.1944-.21.1944h-9.341c-.125.0001-.226.1092-.21.2334.093.7608.365 1.3591.807 1.7861.505.4504 1.119.6826 1.841.6826 1.025 0 1.756-.4112 2.183-1.2344.038-.0774.116-.1239.201-.124h4.178c.139 0 .24.1317.202.2637-.249.8152-.652 1.5608-1.211 2.2285-.606.7377-1.375 1.3199-2.299 1.7393-.924.4193-1.957.6298-3.107.6298-1.382 0-2.609-.2955-3.68-.8857-1.079-.5901-1.918-1.4287-2.524-2.5234-.605-1.0949-.909-2.3685-.909-3.836 0-1.4676.296-2.742.886-3.8369.606-1.0947 1.444-1.9333 2.523-2.5234 1.08-.5902 2.315-.8848 3.712-.8848zm-35.55 9.792c.737 0 1.343.2324 1.817.6826.481.4582.73 1.0411.73 1.6934s-.241 1.2117-.73 1.6621c-.474.4347-1.064.6523-1.817.6523s-1.375-.2176-1.864-.6523c-.473-.4504-.707-.9865-.707-1.6621s.234-1.243.707-1.6934c.482-.4579 1.126-.6825 1.864-.6826zm-34.192-14.3193c.124 0 .218.1003.218.2168v18.249c0 .1242-.101.2178-.218.2178h-3.8827c-.124-.0003-.2167-.1015-.2168-.2178v-1.0254c-.0002-.2249-.3104-.3179-.458-.1553-.3494.3882-.7767.7146-1.2813.9864-.7454.4037-1.6077.6054-2.6015.6054-1.1571 0-2.2137-.2946-3.1533-.8847-.9396-.6057-1.6928-1.4521-2.2442-2.5469-.5358-1.1105-.8076-2.3848-.8076-3.8369.0001-1.452.2719-2.7177.8076-3.8125.5513-1.0948 1.3047-1.9333 2.2442-2.5235.9396-.5901 1.9962-.8857 3.1533-.8857.924 0 1.7703.1948 2.5234.583.5436.2718 1.0023.605 1.375 1.0088.1476.1553.4424.0544.4424-.1553v-5.6064c.0001-.1241.1005-.2166.2168-.2168zm24.197 4.3867c1.398 0 2.571.2876 3.635.8545 1.056.5746 1.887 1.3902 2.47 2.4463.605 1.056.908 2.2987.908 3.7119v.0078c0 .3416-.016.6987-.055 1.0713-.007.1086-.1.1941-.209.1943h-9.342c-.124.0003-.225.1085-.209.2324.093.761.365 1.3591.807 1.7862.505.4503 1.118.6835 1.84.6836 1.025 0 1.756-.4114 2.183-1.2344.039-.0777.116-.124.202-.124h4.178c.139.0002.24.1317.201.2636-.249.8153-.652 1.5608-1.211 2.2286-.606.7377-1.367 1.3199-2.299 1.7392-.924.4193-1.957.6289-3.106.6289-1.383 0-2.61-.2946-3.681-.8847-1.079-.5901-1.918-1.4288-2.524-2.5235-.605-1.0949-.908-2.3692-.908-3.8369 0-1.4675.295-2.7411.885-3.8359.606-1.0948 1.444-1.9333 2.523-2.5235 1.08-.5901 2.315-.8857 3.712-.8857zm-56.1676-3.4238c.1241 0 .2176.1004.2178.2168v11.8427c0 1.8714-.5358 3.3079-1.5918 4.3174-1.0406 1.0095-2.3765 1.5147-4.2402 1.5147-1.8636-.0001-3.3624-.5359-4.4883-1.5918-1.0794-1.0251-1.6467-2.4546-1.6856-4.3028-.0076-.1241.0936-.2167.21-.2168h3.8594c.1164 0 .2176.1005.2177.2168.0311.6368.1785 1.1262.4502 1.4756.3029.365.7379.5518 1.3125.5518.5201-.0001.9237-.1712 1.211-.5049.2873-.3339.4277-.8233.4277-1.46v-11.8427c.0002-.124.1006-.2167.2168-.2168zm6.3916 3.6259c.1164.0001.2168.0936.2168.2178v7.4316c.0001.9395.2413 1.6771.7305 2.1973.4892.5203 1.1417.7842 1.9648.7842.823-.0001 1.506-.2641 1.9951-.7842.4892-.5202.7305-1.25.7305-2.1973v-7.4316c0-.1163.0928-.2175.2168-.2178h3.8828v.0078c.1165 0 .2178.0936.2178.2178v13.6436c0 .1165-.0935.2177-.2178.2177h-3.8828c-.1163-.0002-.2168-.0936-.2168-.2177v-1.0176c-.0003-.2092-.287-.3099-.4346-.1553-.3727.3883-.8236.7146-1.3593.9864-.7378.3727-1.5612.5517-2.4698.5517-1.0793 0-2.0265-.2334-2.8496-.707-.8231-.4892-1.4598-1.1882-1.9179-2.0967-.4582-.9085-.6836-1.9801-.6836-3.207v-8.0059c0-.1165.0935-.2178.2177-.2178zm81.576-.0078c1.747 0 3.137.5282 4.162 1.5918 1.041 1.0561 1.562 2.532 1.562 4.419v8.0058c0 .1165-.094.2178-.218.2178h-3.859c-.117 0-.218-.0935-.218-.2178v-7.4316c0-.9085-.24-1.6075-.73-2.0967-.473-.5047-1.126-.7529-1.964-.7529-.839 0-1.507.2482-1.997.7529-.473.4892-.706 1.1883-.706 2.0967v7.4316c0 .1165-.093.2178-.217.2178h-3.86c-.116 0-.218-.0936-.218-.2178v-7.4316c0-.9085-.24-1.6075-.729-2.0967-.474-.5047-1.126-.7529-1.965-.7529-.838 0-1.507.2482-1.996.7529-.474.4892-.706 1.1883-.706 2.0967v7.4316c0 .1165-.094.2178-.218.2178h-3.883c-.116-.0001-.216-.0936-.216-.2178v-13.6513c0-.1164.092-.2177.216-.2178h3.883c.117 0 .218.0935.218.2178v.9003c0 .2097.279.3029.427.1631.365-.3571.792-.6596 1.289-.8925.706-.3494 1.506-.5283 2.399-.5284 1.056 0 2.004.2255 2.827.6836.738.3961 1.328.9398 1.779 1.6309.093.1393.294.1393.387.0078.466-.6368 1.057-1.1734 1.787-1.5928.838-.4891 1.755-.7294 2.749-.7295zm-63.1717 3.5723c-.862 0-1.5925.3104-2.1982.9316-.59.6056-.8847 1.4521-.8848 2.5235 0 1.0713.2949 1.9336.8848 2.5703.6057.6212 1.344.9326 2.1982.9326s1.5759-.3114 2.166-.9326c.6057-.6213.9092-1.4753.9092-2.5469 0-1.0715-.3035-1.9257-.9092-2.5469-.5823-.621-1.3042-.9316-2.166-.9316zm15.8647 0c-.854.0001-1.592.3105-2.198.9316-.59.6056-.884 1.4443-.884 2.5235 0 1.0794.294 1.9345.884 2.5713.606.6209 1.336.9315 2.198.9316.861 0 1.584-.3106 2.167-.9316.605-.6213.908-1.4763.908-2.5479 0-1.0792-.303-1.9257-.908-2.5469-.591-.6212-1.313-.9316-2.167-.9316zm60.991-.1709c-.761 0-1.336.2096-1.841.6289-.435.3727-.723.8936-.862 1.5459-.031.1318.078.248.202.248h4.938c.117 0 .218-.0935.21-.2177-.046-.6366-.295-1.1568-.753-1.5528-.504-.4347-1.133-.6522-1.894-.6523zm-45.53-.1318c-.761 0-1.336.2095-1.84.6289-.435.3727-.723.8927-.863 1.5449-.031.1319.071.2489.203.249h4.931c.116-.0002.217-.0937.209-.2178-.046-.6366-.295-1.1567-.745-1.5527-.505-.4348-1.134-.6523-1.895-.6523z" fill="#000"/></svg>