<?xml version="1.0" encoding="UTF-8"?>
<svg id="Layer_1" data-name="Layer 1" xmlns="http://www.w3.org/2000/svg" viewBox="0 0 316.75 87.42">
  <defs>
    <style>
      .cls-1, .cls-2 {
        fill: #020202;
      }

      .cls-3 {
        fill: #fff;
      }

      .cls-2 {
        fill-rule: evenodd;
      }
    </style>
  </defs>
  <rect class="cls-3" width="316.75" height="87.42"/>
  <g id="_747227" data-name="747227">
    <g vector-effect="non-scaling-stroke">
      <g id="Layer_1-2" data-name="Layer 1">
        <path class="cls-1" d="M124.38,61.61c2.52,0,4.72-.46,6.61-1.38,1.9-.92,3.39-2.17,4.46-3.76s1.62-3.46,1.62-5.53c0-4.88-2.91-8.23-8.73-10.08l-6.72-2.1c-1.31-.42-2.3-1.01-3-1.77-.66-.79-.98-1.68-.98-2.69,0-1.33.5-2.43,1.51-3.24,1.05-.85,2.43-1.27,4.11-1.27,1.9,0,3.57.5,4.99,1.51,1.44.98,2.52,2.38,3.24,4.22l5.49-2.45c-.98-2.73-2.69-4.94-5.14-6.61-2.41-1.66-5.27-2.49-8.58-2.49-2.38,0-4.51.46-6.37,1.38-1.84.87-3.26,2.12-4.31,3.72-1.01,1.6-1.51,3.46-1.51,5.53,0,2.38.72,4.46,2.17,6.21,1.44,1.73,3.59,3.06,6.41,3.96l7,2.25c1.27.42,2.23.98,2.84,1.66.66.68.98,1.57.98,2.65,0,1.33-.55,2.41-1.62,3.24-1.05.81-2.43,1.22-4.16,1.22-2.1,0-3.96-.59-5.64-1.77-1.66-1.2-2.93-2.87-3.83-4.94l-5.53,2.41c.66,2.03,1.68,3.81,3.08,5.34,1.44,1.51,3.13,2.67,5.1,3.52,1.99.85,4.16,1.27,6.47,1.27h.02Z"/>
      </g>
      <g id="Layer_1-3" data-name="Layer 1">
        <path class="cls-1" d="M150.39,61.61c3.46,0,6.23-1.14,8.33-3.43v2.84h6.08v-17.74c0-1.86-.48-3.52-1.42-4.94-.94-1.44-2.25-2.54-3.92-3.33-1.64-.81-3.54-1.23-5.73-1.23-2.67,0-5.05.63-7.15,1.9s-3.52,2.95-4.31,5.05l5.25,2.54c.48-1.2,1.25-2.17,2.3-2.89,1.05-.74,2.28-1.14,3.68-1.14s2.65.39,3.52,1.18c.92.74,1.38,1.71,1.38,2.84v.87l-7.94,1.27c-3.13.52-5.45,1.51-6.96,3-1.51,1.47-2.25,3.33-2.25,5.53,0,2.36.83,4.22,2.49,5.58,1.66,1.38,3.89,2.06,6.67,2.06l-.02.02ZM147.9,53.71c0-1.86,1.25-3.04,3.76-3.52l6.72-1.14v1.07c0,1.84-.63,3.39-1.9,4.66-1.25,1.27-2.87,1.9-4.9,1.9-1.07,0-1.97-.26-2.65-.79-.68-.55-1.03-1.29-1.03-2.21v.02Z"/>
      </g>
      <g id="Layer_1-4" data-name="Layer 1">
        <path class="cls-1" d="M183.38,61.61c2.71,0,5.07-.61,7.11-1.82,2.06-1.25,3.5-2.8,4.31-4.7l-5.18-2.54c-.59,1.01-1.4,1.84-2.45,2.49-1.01.61-2.25.94-3.72.94-1.92,0-3.54-.59-4.86-1.77-1.31-1.18-2.06-2.73-2.25-4.7h19.21c.13-.35.22-.77.24-1.22.07-.48.09-.98.09-1.47,0-2.38-.5-4.55-1.51-6.52s-2.47-3.52-4.42-4.7c-1.92-1.2-4.29-1.82-7.07-1.82-2.47,0-4.75.61-6.76,1.82-1.99,1.2-3.59,2.87-4.75,4.94-1.14,2.06-1.71,4.42-1.71,7.11s.57,4.92,1.71,7.07c1.14,2.12,2.73,3.81,4.81,5.05,2.06,1.25,4.46,1.86,7.2,1.86v-.02ZM182.88,39.08c1.71,0,3.11.52,4.22,1.58,1.14,1.01,1.77,2.34,1.9,3.96h-12.53c.35-1.77,1.12-3.13,2.25-4.07,1.18-.98,2.56-1.47,4.16-1.47Z"/>
      </g>
      <g id="Layer_1-5" data-name="Layer 1">
        <path class="cls-1" d="M200.73,61.02h6.41V23.92h-6.41v37.1Z"/>
      </g>
      <g id="Layer_1-6" data-name="Layer 1">
        <path class="cls-1" d="M226.1,61.61c2.58,0,4.92-.59,7.07-1.77,2.12-1.2,3.83-2.87,5.1-4.94,1.27-2.12,1.9-4.53,1.9-7.2s-.63-5.05-1.9-7.15c-1.25-2.1-2.93-3.74-5.05-4.94s-4.48-1.82-7.11-1.82-5.03.61-7.15,1.82c-2.12,1.2-3.83,2.87-5.1,4.94-1.25,2.1-1.86,4.48-1.86,7.15s.61,5.05,1.86,7.15c1.27,2.1,2.98,3.74,5.1,4.94,2.17,1.2,4.55,1.82,7.15,1.82h0ZM226.1,55.72c-1.44,0-2.73-.35-3.87-1.03-1.12-.68-1.99-1.64-2.65-2.84-.61-1.25-.94-2.63-.94-4.16s.31-2.91.94-4.11c.66-1.2,1.53-2.17,2.65-2.84,1.14-.72,2.43-1.07,3.87-1.07s2.69.35,3.76,1.07c1.12.68,1.97,1.64,2.6,2.84.66,1.2.98,2.58.98,4.11s-.33,2.93-.98,4.16c-.61,1.2-1.49,2.17-2.6,2.84-1.07.68-2.34,1.03-3.76,1.03Z"/>
      </g>
      <g id="Layer_1-7" data-name="Layer 1">
        <path class="cls-1" d="M254.54,61.61c1.66,0,3.13-.31,4.42-.94,1.31-.66,2.34-1.6,3.08-2.84v3.19h6.08v-26.67h-6.41v15.64c0,1.77-.5,3.17-1.51,4.22-1.01,1.01-2.3,1.51-3.87,1.51s-2.91-.5-3.92-1.51c-.98-1.01-1.47-2.36-1.47-4.07v-15.77h-6.41v16.32c0,3.26.88,5.91,2.65,7.94,1.79,1.99,4.27,3,7.39,3l-.04-.02Z"/>
      </g>
      <g id="Layer_1-8" data-name="Layer 1">
        <path class="cls-1" d="M274.1,61.02h6.43v-15.64c0-1.73.48-3.13,1.47-4.16,1.01-1.05,2.32-1.58,3.92-1.58s2.89.52,3.87,1.58c1.01,1.01,1.51,2.41,1.51,4.16v15.64h6.41v-17.15c0-1.99-.42-3.74-1.27-5.25-.85-1.53-2.03-2.73-3.59-3.59-1.51-.85-3.24-1.27-5.21-1.27-1.66,0-3.17.33-4.51.98-1.31.66-2.32,1.62-3.04,2.89v-3.28h-6.04v26.67h.04Z"/>
      </g>
      <g id="Layer_1-9" data-name="Layer 1">
        <path class="cls-2" d="M55.24,76.77c-19.34,0-35-15.66-35-35S35.9,6.77,55.24,6.77s35,15.66,35,35-15.66,35-35,35ZM70.55,64.91V18.62h-6.23v18.02h-2.95v-17.3h-6.13v29.73c-5.18-3.37-8.4-8.82-8.4-19.1v-6.58h-6.56v6.69c0,10.43-3,16.71-9.1,20.45l3.72,4.88c3.96-2.34,7.59-7.11,8.71-11.42,1.07,4.2,5.14,8.51,7.83,10.32l3.81-5.25v13.74h6.12v-20.78h2.95v22.86h6.23v.02ZM55.24,49.07h0Z"/>
      </g>
    </g>
  </g>
</svg>