<?xml version="1.0" encoding="utf-8"?>
<!-- Generator: Adobe Illustrator 25.2.2, SVG Export Plug-In . SVG Version: 6.00 Build 0)  -->
<svg version="1.1" id="Layer_1" xmlns="http://www.w3.org/2000/svg" xmlns:xlink="http://www.w3.org/1999/xlink" x="0px" y="0px"
	 viewBox="0 0 2612.04 861.21" style="enable-background:new 0 0 2612.04 861.21;" xml:space="preserve">
<g>
	<path d="M765.88,165.87l83.86-117.38l-104.5,93.29C667.27,57.55,555.82,4.76,432,4.76C196.32,4.76,5.29,195.8,5.29,431.49
		c0,235.68,191.03,426.73,426.71,426.73c235.68,0,426.75-191.05,426.75-426.73C858.75,331.04,823.95,238.77,765.88,165.87z
		 M728.92,572.46c0,86.13-69.81,155.95-155.95,155.95H291.03c-86.12,0-155.96-69.83-155.96-155.95V290.53
		c0-86.15,69.84-155.97,155.96-155.97h281.94c47.6,0,90.14,21.38,118.75,54.99L430.34,422.89L253.3,302.52l128.16,246.82
		c0.8,1.35,1.96,2.56,2.88,3.87c0.5,0.68,0.97,1.34,1.52,2.01c1.26,1.69,2.3,3.48,3.78,5.07c1.23,1.32,2.68,2.32,4.03,3.52
		c0.02,0.05,0.06,0.08,0.06,0.08c0.08,0.07,0.13,0.09,0.15,0.13c16.29,14.63,38.13,19.59,58.35,14.58c0.19-0.04,0.39-0.09,0.59-0.15
		c3.64-0.93,7.19-2.19,10.66-3.78c0.56-0.24,1.1-0.52,1.62-0.78c3.05-1.5,5.97-3.23,8.81-5.25c0.89-0.61,1.72-1.3,2.6-1.98
		c1.41-1.1,2.92-1.98,4.24-3.23c1.02-0.94,1.76-2.06,2.68-3.04c0.44-0.46,0.95-0.79,1.39-1.25l1.41-1.92
		c1.8-2.19,3.47-4.43,4.95-6.79l226.69-317.33c7.06,17.79,11.06,37.14,11.06,57.44V572.46z"/>
	<g>
		<g id="Logotype_3_">
			<path d="M1417.86,737.37c-194.64,0-325.43-123.31-325.43-306.81c0-180.66,133.83-306.81,325.43-306.81
				c126.35,0,191.71,48.28,208.33,62.64l-39.09,100.57c-25.16-20.74-86.2-57.1-160.91-57.1c-119.81,0-200.31,79.59-200.31,198.03
				c0,116.08,82.36,197.15,200.31,197.15c85.16,0,139.78-33.52,168.72-58.62l42.16,94.49
				C1583.21,711.64,1509.49,737.37,1417.86,737.37z"/>
			<rect x="1696.72" y="132.62" width="129.73" height="594.09"/>
			<path d="M1924.01,726.71v-419.3h129.74v419.3H1924.01z M1988.87,238.73c-45.58,0-75.03-25.35-75.03-64.58
				c0-38.64,30.16-64.6,75.03-64.6c44.87,0,75.03,25.95,75.03,64.6C2063.9,213.37,2034.45,238.73,1988.87,238.73z"/>
			<path d="M2365.85,736.46c-146.01,0-244.1-87.63-244.1-218.08c0-130.96,98.1-218.97,244.1-218.97
				c145.46,0,243.19,88.01,243.19,218.97C2609.04,648.83,2511.31,736.46,2365.85,736.46z M2365.85,393.11
				c-67.32,0-112.54,49.27-112.54,122.62c0,73.33,45.22,122.62,112.54,122.62c67.32,0,112.54-49.29,112.54-122.62
				C2478.39,442.38,2433.17,393.11,2365.85,393.11z"/>
		</g>
	</g>
</g>
</svg>
