<svg fill="none" height="70" viewBox="0 0 190 70" width="190" xmlns="http://www.w3.org/2000/svg"><path d="m56.0811 23.7573c2.1884.0001 4.317.6131 6.0449 2.3633l-.0176-1.918h5.334v19.6612c-.0102 2.4265-.1703 4.9297-2.0693 7.5605-2.6102 3.6169-6.2907 4.7832-9.2422 4.7832-2.0384-.0016-4.0373-.5602-5.7803-1.6172l2.6533-4.6181c2.8071 1.7612 6.5138.8629 8.2022-1.9893.6828-1.1871.7881-2.3492.8095-3.0742.0032-.1152.0108-1.1757.0108-1.2647-1.1411 1.4596-3.3566 2.6074-5.9453 2.6075-4.0181 0-7.7312-2.1443-9.7403-5.6241-4.3286-7.4979 1.0822-16.8701 9.7403-16.8701zm77.8559 0c6.207.0072 11.238 5.0375 11.246 11.2442 0 1.9756-.52 3.9165-1.508 5.6269-4.33 7.4977-15.151 7.4959-19.48-.0019-4.327-7.4979 1.084-16.87 9.742-16.8692zm-19.374-5.5498v5.9795h6.3v4.6026h-6.3v8.5986c0 .8829.085 1.6011.319 2.1474.342.7972.943 1.2337 1.555 1.3165 1.609.2183 3.014-1.1672 3.025-1.1778l3.208 3.9444c-.022.0224-2.627 2.625-6.24 2.625-2.994-.0001-4.817-1.4149-5.853-3.1651-1.213-2.0582-1.361-4.2858-1.361-6.124v-18.7471zm-38.145 16.6885c-.0111 1.5143-.0139 4.1384 1.1025 5.2637.5352.5344 1.1234 1.0205 2.3613 1.0205 1.2369-.0001 1.8204-.4822 2.3555-1.0205 1.1173-1.1253 1.1187-3.7494 1.1084-5.2637v-10.6934h5.3613l.0039 10.6553c.0151 2.1941.042 6.2804-2.6484 8.9883-1.5785 1.5879-3.4597 2.3935-6.1767 2.3935-2.7182 0-4.5991-.8053-6.1778-2.3935-2.3534-2.3694-2.6264-5.7941-2.6484-8.083v-11.5606h5.3584zm22.4023-11.1211c2.7737-.0143 5.3877 1.2988 7.0307 3.5342l-3.319 3.3183c-1.347-1.3356-2.5712-2.0039-3.6726-2.0039-.6017.0001-1.0725.1283-1.4131.3838-.3414.2557-.5107.5735-.5107.9522.0031.297.1183.5815.3232.7959.2152.2414.7486.5721 1.6006.9922l1.9646.9814c2.068 1.018 3.489 2.0575 4.261 3.1191.772 1.0617 1.159 2.3054 1.159 3.7315 0 1.8986-.696 3.4832-2.092 4.7529-1.394 1.2697-3.264 1.9043-5.6071 1.9043-3.1166 0-5.6038-1.2177-7.4619-3.6523l3.2695-3.5655c.6393.7075 1.3955 1.2989 2.2364 1.7491.8432.4533 1.593.6806 2.248.6806.7074 0 1.2771-.1701 1.7081-.5107.432-.3398.647-.7331.647-1.1777 0-.825-.778-1.63-2.3326-2.4161l-1.8067-.9033c-3.4564-1.7414-5.1845-3.9212-5.1845-6.54.0008-1.6889.652-3.1327 1.9541-4.3301 1.3022-1.1974 2.9677-1.7958 4.998-1.7959zm-37.6191 8.2725c-2.2759-3.9419-7.9651-3.9419-10.2403 0-2.2758 3.9411.5684 8.8681 5.1202 8.8681 3.2644-.0032 5.9096-2.6496 5.9121-5.914 0-1.0371-.2735-2.056-.792-2.9541zm77.8558 0c-2.275-3.9419-7.965-3.9419-10.241 0-2.275 3.9411.57 8.8681 5.121 8.8681 3.264-.004 5.91-2.6496 5.913-5.914-.001-1.0371-.275-2.056-.793-2.9541z" fill="#000"/></svg>