<svg fill="none" height="70" viewBox="0 0 190 70" width="190" xmlns="http://www.w3.org/2000/svg"><g fill="#323232"><path d="m72.3572 30.7084c.9297-.1722 1.8594-.3099 2.8235-.4132 2.2382-.0689 4.0632.6886 5.3028 2.6858.4477.7231.7231 1.5495.7231 2.4104.0345 1.4462.0689 2.9269 0 4.3731-.1377 2.9269-2.2726 4.9584-5.3028 5.1651-2.1004.1033-4.2353-.1722-6.2325-.8953-.3443-.1033-.4132-.3444-.4132-.6543v-17.2858c0-.7919.0345-.8264.792-.8264h1.7906c.4132 0 .5509.1722.5509.5854v4.4764c-.0344.1377-.0344.241-.0344.3788zm0 10.6056c0 .3788.1033.5509.4476.5854.9297.1033 1.825.1721 2.7547.2066 1.4807-.1033 2.2726-.8609 2.4104-2.3415.1033-1.4807.1033-2.9269 0-4.4076 0-.9985-.6887-1.825-1.6529-2.066-1.2396-.3788-2.5481-.241-3.6844.3788-.1721.1377-.2754.3099-.2754.5165z"/><path d="m125.798 30.7081c1.171-.3443 2.376-.4821 3.582-.4132 2.961.1722 4.992 2.066 5.165 5.0274.137 2.5825.068 5.165.103 7.7476v1.0674c0 .3444-.138.5165-.517.5165h-2.031c-.482 0-.62-.2066-.62-.6198v-7.4033c0-.4132-.034-.8608-.103-1.274-.207-1.3085-.896-1.9972-2.204-2.1693-.999-.1378-1.997 0-2.961.241-.345.1033-.448.2755-.448.6542v9.8137c0 .7575-.034.792-.792.792h-1.481c-.585 0-.895-.2755-.895-.8609v-17.8367c0-.6198.069-.6887.689-.6887h1.825c.551 0 .654.1033.654.6542v4.7519z"/><path d="m168.083 35.9421c1.412-1.5496 2.789-2.9613 4.063-4.442.586-.6887 1.068-.8608 2.101-.8953h1.79c.586 0 .345.4477.241.5854-1.515 1.6184-3.03 3.2368-4.545 4.8207-.172.1722-.344.3788-.551.5854l1.653 2.1693c1.308 1.7217 2.651 3.409 3.96 5.1307.241.3099.413.6887-.345.7231h-2.41c-.344 0-.654-.1377-.861-.4132-1.239-1.6528-2.513-3.3057-3.787-4.9585-.104-.1377-.207-.2755-.345-.4132-.275.2755-.551.551-.792.8264-.103.1378-.138.3099-.138.4821v3.8566c0 .5854-.068.6542-.654.6887h-1.825c-.62 0-.654 0-.654-.6887v-17.9401c0-.7231.034-.7575.758-.7575h1.721c.586 0 .654.1033.654.6887v9.366c-.034.2066-.034.4132-.034.6198z"/><path d="m106.584 30.6393c.241-2.5481 2.066-4.683 4.546-5.3028 2.961-.8264 5.716-.3443 8.333 1.2741.482.3099.516.4132.172.9297-.345.5165-.689.9986-1.033 1.5151-.104.241-.379.3443-.62.241-.035 0-.103 0-.138-.0689-.998-.6542-2.135-1.033-3.34-1.1363-1.343-.1033-2.617.0689-3.684 1.033-.723.6543-1.102 1.6184-1.068 2.5826-.034 2.1693-.034 4.3731 0 6.5424.035 2.1005 1.446 3.5123 3.581 3.65 1.722.1377 3.444-.3099 4.89-1.2396.516-.3444.551-.3444.895.2066.345.5509.723 1.033 1.068 1.5495.172.1722.172.4476 0 .6198 0 0-.035 0-.069.0689-2.617 2.1693-7.679 2.5481-10.606.8264-1.997-1.1708-2.892-2.9958-3.03-5.2684-.069-1.2052 0-2.4448 0-3.65s-.034-2.9613.103-4.3731z"/><path d="m95.0835 38.9377c-.1722 1.8594.5509 2.9957 2.1004 3.1679.792.0689 1.584 0 2.3759-.1377.7232-.2066 1.4122-.5165 2.0312-.9297.379-.2066.586-.2066.827.1721.31.4477.62.8609.93 1.2741.172.1721.172.4132 0 .5854-.035 0-.069.0688-.104.0688-2.513 1.8595-5.2681 2.376-8.195 1.3085-1.825-.5854-3.099-2.2726-3.1334-4.2009-.1034-1.7217-.1034-3.409 0-5.1307.2066-2.5136 1.8249-4.2009 4.3042-4.6485 1.5495-.2755 3.0646-.2411 4.5112.4476 1.893.8953 2.789 2.4104 2.892 4.442.069.9986 0 2.0316.034 3.0302 0 .482-.172.6198-.619.6198h-7.4036c-.1722-.0689-.3788-.0689-.5509-.0689zm5.5435-2.4792c.069-1.2397 0-2.4448-1.2049-3.0647-1.0674-.6198-2.4104-.5509-3.4089.1722-.9642.6887-.9297 1.7906-.9297 2.8925z"/><path d="m140.674 38.9379c-.276 2.1349.929 3.3745 2.996 3.2368 1.239 0 2.444-.4476 3.443-1.1363.379-.241.62-.2066.861.1722.241.3787.62.8264.929 1.2396.173.241.207.4476-.068.6542-2.549 1.8939-5.338 2.4104-8.333 1.2741-1.791-.6198-2.996-2.2727-3.031-4.1665-.068-1.6873-.068-3.409 0-5.0962.207-2.5137 1.791-4.201 4.27-4.683 1.515-.3444 3.099-.2066 4.511.4132 1.894.8608 2.789 2.4103 2.927 4.4419.069.9986.034 2.0316.034 3.0302s-.068.6198-.654.6198zm5.475-2.4792c.206-1.3774-.172-2.4793-1.068-2.9958-1.033-.6542-2.341-.6198-3.374 0-1.102.6887-1.068 1.825-1.068 2.9613h5.51z"/><path d="m62.819 36.2863c.0344-.792.0344-1.5151-.3099-2.1693-.3443-.6198-1.033-1.0331-1.7561-.9986-1.3429-.1378-2.6859.1033-3.891.7231-.4132.2066-.6543.1722-.8953-.241-.2411-.4133-.551-.8609-.8264-1.2741-.2411-.3443-.2066-.5509.1721-.7575 1.6529-.9986 3.4779-1.3085 5.4061-1.2397 1.2741 0 2.4793.3788 3.5123 1.1019 1.0674.8264 1.7217 2.1005 1.7217 3.4434.1033 1.8939.0688 3.7877.0688 5.6816v2.9957c.0345.3444-.1721.6543-.482.7232-2.4793.6542-4.9585 1.033-7.5066.5165-1.3773-.2755-2.617-.8609-3.3401-2.2038-1.3429-2.5137-.0688-5.3028 2.6859-6.0604 1.5151-.3787 3.1334-.482 4.683-.241zm0 2.5481c-.3788 0-.6887-.1033-.9986-.1377-1.1019-.0689-2.2382-.2066-3.34.1377-.6543.1722-1.1364.7575-1.1364 1.4462-.0688.6887.3444 1.3429.9986 1.584 1.4807.6198 2.9613.3099 4.442 0 .0344-1.033.0344-2.0316.0344-3.0646z"/><path d="m46.2564 28.2633h-5.3373c-.3443 0-.5509-.1377-.5509-.5165v-2.0316c0-.3443.1722-.482.5165-.482h13.7046c.7576 0 .792 0 .792.7919v1.5496c0 .6198-.0688.6886-.6887.6886h-5.1995v15.5297c0 .5509-.2754.8264-.8264.8264h-1.9283c-.3443 0-.5165-.1377-.482-.4821z"/><path d="m151.83 34.3924c.448-2.2037 1.963-3.4778 4.098-3.9254 2.066-.4477 4.201-.1033 6.026.9641.516.3099.516.4132.206.8953-.206.3443-.447.6543-.654.9986-.447.7231-.447.6887-1.205.3443-.861-.4132-1.791-.6198-2.72-.5853-1.791.0688-2.686.9985-2.721 2.7547 0 1.2051-.034 2.4448 0 3.6499.035 1.584.93 2.4793 2.48 2.5826 1.205.1033 2.376-.2066 3.374-.8609.413-.2754.689-.2066.93.2066.241.4133.62.8953.93 1.343.206.2754.172.482-.138.6886-2.445 1.6184-5.062 1.9283-7.782.8265-1.963-.792-2.858-2.4104-2.996-4.4764-.034-.7576 0-1.5496 0-2.3071-.034-1.033 0-2.066.172-3.0991z"/><path d="m84.0646 25.8874c0-.5509.0689-.6542.6198-.6542h1.8595c.5509 0 .6542.1033.6542.6542v5.6816c0 2.7891 0 5.6127.0344 8.4018 0 .2411.0345.5166.1033.7576.2066.9297.6543 1.3085 1.6184 1.3429h.9986c.3099 0 .4821.1377.4821.4476.0344.6543 0 1.2741-.0344 1.9283 0 .1722-.2067.4477-.3444.4477-1.0674.1033-2.1693.2066-3.2368-.2066-1.6528-.6198-2.3759-1.9627-2.6514-3.5811-.0688-.6543-.1033-1.3085-.1033-1.9628z"/></g><path d="m22.1183 28.1947-3.0646-3.0646c-.1033-.1033-.3099-.1377-.4477-.1033-2.4792 1.1019-4.4764 3.0991-5.5782 5.5439-.0689.1377 0 .3443.1033.4476l3.0646 3.0646c.1033.1033.3099.0689.3443-.1033.4476-2.7891 2.6514-5.0273 5.475-5.475.1377 0 .2066-.2066.1033-.3099z" fill="#7935d2"/><path d="m29.8659 34.117 3.0646-3.0646c.1033-.1033.1377-.3099.1033-.4476-1.1019-2.4793-3.0991-4.4764-5.5439-5.5783-.1377-.0689-.3443 0-.4476.1033l-3.0646 3.0646c-.1033.1033-.0689.3099.1033.3444 2.7891.4476 5.0273 2.6514 5.475 5.4749 0 .1378.2066.2066.3099.1033z" fill="#7935d2"/><path d="m32.9305 39.0414-3.0646-3.099c-.1033-.1033-.3099-.0689-.3444.1033-.4476 2.7891-2.6514 5.0273-5.4749 5.475-.1722 0-.2411.241-.1033.3443l3.0646 3.0646c.1033.1033.3099.1378.4476.1033 2.4792-1.1019 4.442-3.099 5.5438-5.5438.1034-.1722.0689-.3444-.0688-.4477z" fill="#7935d2"/><path d="m16.1957 35.9423-3.0647 3.0991c-.1033.1033-.1377.3099-.1033.4476 1.1019 2.4792 3.0991 4.442 5.5439 5.5439.1377.0688.3443 0 .4476-.1033l3.0646-3.0647c.1033-.1033.0689-.3099-.1033-.3443-2.7891-.4476-5.0273-2.6514-5.4749-5.475 0-.1377-.2066-.2066-.3099-.1033z" fill="#7935d2"/></svg>