<?xml version="1.0" encoding="UTF-8"?>
<svg id="Layer_1" xmlns="http://www.w3.org/2000/svg" version="1.1" viewBox="0 0 188.7 53.6">
  <!-- Generator: Adobe Illustrator 29.0.0, SVG Export Plug-In . SVG Version: 2.1.0 Build 186)  -->
  <defs>
    <style>
      .st0, .st1 {
        fill: #020202;
      }

      .st2 {
        fill: #fff;
      }

      .st1 {
        fill-rule: evenodd;
      }
    </style>
  </defs>
  <rect class="st2" width="188.7" height="53.6"/>
  <g id="_747227">
    <g vector-effect="non-scaling-stroke">
      <g id="Layer_1-2">
        <path class="st0" d="M70.9,38.8c1.5,0,2.9-.3,4.1-.8,1.2-.6,2.1-1.3,2.7-2.3s1-2.1,1-3.4c0-3-1.8-5-5.4-6.2l-4.1-1.3c-.8-.3-1.4-.6-1.8-1.1-.4-.5-.6-1-.6-1.6s.3-1.5.9-2c.6-.5,1.5-.8,2.5-.8s2.2.3,3.1.9c.9.6,1.5,1.5,2,2.6l3.4-1.5c-.6-1.7-1.7-3-3.2-4.1-1.5-1-3.2-1.5-5.3-1.5s-2.8.3-3.9.8c-1.1.5-2,1.3-2.6,2.3-.6,1-.9,2.1-.9,3.4s.4,2.7,1.3,3.8c.9,1.1,2.2,1.9,3.9,2.4l4.3,1.4c.8.3,1.4.6,1.7,1,.4.4.6,1,.6,1.6s-.3,1.5-1,2c-.6.5-1.5.7-2.6.7s-2.4-.4-3.5-1.1c-1-.7-1.8-1.8-2.4-3l-3.4,1.5c.4,1.2,1,2.3,1.9,3.3.9.9,1.9,1.6,3.1,2.2,1.2.5,2.6.8,4,.8h0Z"/>
      </g>
      <g id="Layer_1-3">
        <path class="st0" d="M86.9,38.8c2.1,0,3.8-.7,5.1-2.1v1.7h3.7v-10.9c0-1.1-.3-2.2-.9-3-.6-.9-1.4-1.6-2.4-2-1-.5-2.2-.8-3.5-.8s-3.1.4-4.4,1.2-2.2,1.8-2.6,3.1l3.2,1.6c.3-.7.8-1.3,1.4-1.8.6-.5,1.4-.7,2.3-.7s1.6.2,2.2.7c.6.5.8,1,.8,1.7v.5l-4.9.8c-1.9.3-3.3.9-4.3,1.8-.9.9-1.4,2-1.4,3.4s.5,2.6,1.5,3.4c1,.8,2.4,1.3,4.1,1.3h0s0,0,0,0ZM85.3,33.9c0-1.1.8-1.9,2.3-2.2l4.1-.7v.7c0,1.1-.4,2.1-1.2,2.9-.8.8-1.8,1.2-3,1.2s-1.2-.2-1.6-.5c-.4-.3-.6-.8-.6-1.4h0s0,0,0,0Z"/>
      </g>
      <g id="Layer_1-4">
        <path class="st0" d="M107.1,38.8c1.7,0,3.1-.4,4.4-1.1,1.3-.8,2.1-1.7,2.6-2.9l-3.2-1.6c-.4.6-.9,1.1-1.5,1.5-.6.4-1.4.6-2.3.6s-2.2-.4-3-1.1c-.8-.7-1.3-1.7-1.4-2.9h11.8c0-.2.1-.5.1-.7,0-.3,0-.6,0-.9,0-1.5-.3-2.8-.9-4s-1.5-2.2-2.7-2.9c-1.2-.7-2.6-1.1-4.3-1.1s-2.9.4-4.2,1.1c-1.2.7-2.2,1.8-2.9,3-.7,1.3-1,2.7-1,4.4s.3,3,1,4.3c.7,1.3,1.7,2.3,3,3.1,1.3.8,2.7,1.1,4.4,1.1h0s0,0,0,0ZM106.8,25c1,0,1.9.3,2.6,1,.7.6,1.1,1.4,1.2,2.4h-7.7c.2-1.1.7-1.9,1.4-2.5.7-.6,1.6-.9,2.6-.9Z"/>
      </g>
      <g id="Layer_1-5">
        <path class="st0" d="M117.8,38.4h3.9V15.7h-3.9v22.7Z"/>
      </g>
      <g id="Layer_1-6">
        <path class="st0" d="M133.4,38.8c1.6,0,3-.4,4.3-1.1,1.3-.7,2.4-1.8,3.1-3,.8-1.3,1.2-2.8,1.2-4.4s-.4-3.1-1.2-4.4c-.8-1.3-1.8-2.3-3.1-3s-2.8-1.1-4.4-1.1-3.1.4-4.4,1.1c-1.3.7-2.4,1.8-3.1,3-.8,1.3-1.1,2.7-1.1,4.4s.4,3.1,1.1,4.4c.8,1.3,1.8,2.3,3.1,3,1.3.7,2.8,1.1,4.4,1.1h0ZM133.4,35.2c-.9,0-1.7-.2-2.4-.6-.7-.4-1.2-1-1.6-1.7-.4-.8-.6-1.6-.6-2.5s.2-1.8.6-2.5c.4-.7.9-1.3,1.6-1.7.7-.4,1.5-.7,2.4-.7s1.7.2,2.3.7c.7.4,1.2,1,1.6,1.7.4.7.6,1.6.6,2.5s-.2,1.8-.6,2.5c-.4.7-.9,1.3-1.6,1.7-.7.4-1.4.6-2.3.6Z"/>
      </g>
      <g id="Layer_1-7">
        <path class="st0" d="M150.8,38.8c1,0,1.9-.2,2.7-.6.8-.4,1.4-1,1.9-1.7v2h3.7v-16.3h-3.9v9.6c0,1.1-.3,1.9-.9,2.6-.6.6-1.4.9-2.4.9s-1.8-.3-2.4-.9c-.6-.6-.9-1.4-.9-2.5v-9.7h-3.9v10c0,2,.5,3.6,1.6,4.9,1.1,1.2,2.6,1.8,4.5,1.8h0s0,0,0,0Z"/>
      </g>
      <g id="Layer_1-8">
        <path class="st0" d="M162.8,38.4h3.9v-9.6c0-1.1.3-1.9.9-2.5.6-.6,1.4-1,2.4-1s1.8.3,2.4,1c.6.6.9,1.5.9,2.5v9.6h3.9v-10.5c0-1.2-.3-2.3-.8-3.2-.5-.9-1.2-1.7-2.2-2.2-.9-.5-2-.8-3.2-.8s-1.9.2-2.8.6c-.8.4-1.4,1-1.9,1.8v-2h-3.7v16.3h0Z"/>
      </g>
      <g id="Layer_1-9">
        <path class="st1" d="M28.5,48.1c-11.9,0-21.5-9.6-21.5-21.5S16.6,5.1,28.5,5.1s21.5,9.6,21.5,21.5-9.6,21.5-21.5,21.5ZM37.9,40.8V12.4h-3.8v11h-1.8v-10.6h-3.8v18.2c-3.2-2.1-5.2-5.4-5.2-11.7v-4h-4v4.1c0,6.4-1.8,10.2-5.6,12.5l2.3,3c2.4-1.4,4.7-4.4,5.3-7,.7,2.6,3.2,5.2,4.8,6.3l2.3-3.2v8.4h3.8v-12.7h1.8v14h3.8s0,0,0,0ZM28.5,31.1h0Z"/>
      </g>
    </g>
  </g>
</svg>