<svg fill="none" height="70" viewBox="0 0 190 70" width="190" xmlns="http://www.w3.org/2000/svg"><path d="m16.1963 35.9425c.1034-.103.3096-.0341.3096.1035.4477 2.8234 2.6856 5.0269 5.4746 5.4746.1722.0344.2068.2414.1035.3447l-3.0644 3.0645c-.1032.1032-.3096.172-.4473.1035-2.4447-1.1019-4.4421-3.0648-5.544-5.544-.0343-.1375-.0004-.3438.1026-.4472zm13.3252.1035c.0344-.1722.2414-.2068.3447-.1035l3.0645 3.0996c.1375.1033.1725.2752.0693.4472-1.1018 2.4448-3.0648 4.4421-5.5439 5.544-.1378.0344-.345-.0002-.4483-.1035l-3.0644-3.0645c-.1377-.1033-.0687-.3447.1035-.3447 2.8234-.4477 5.0269-2.6856 5.4746-5.4746zm31.1973-5.7168c1.274 0 2.4787.3795 3.5117 1.1025 1.0674.8264 1.7227 2.1005 1.7227 3.4434.1032 1.8937.0683 3.7879.0683 5.6816v2.9951c.0344.3444-.1725.6548-.4824.7237-2.479.6541-4.9581 1.0329-7.5059.5166-1.3773-.2755-2.6177-.8612-3.3408-2.2041-1.3428-2.5137-.0681-5.303 2.6865-6.0606 1.515-.3787 3.1333-.4822 4.6827-.2412h.7578c.0344-.7919.0337-1.5148-.3106-2.1689-.3443-.6198-1.0328-1.0335-1.7558-.9991-1.3429-.1376-2.6856.1039-3.8907.7237-.4132.2066-.6544.172-.8955-.2412-.241-.4132-.5507-.8612-.8261-1.2744-.2409-.3442-.2067-.5503.1718-.7569 1.6528-.9986 3.478-1.3091 5.4063-1.2402zm50.4112-4.9922c2.961-.8264 5.716-.3449 8.333 1.2734.482.3099.516.4142.172.9307-.344.5164-.689.9983-1.033 1.5146-.104.2409-.379.3443-.62.2413-.034 0-.103-.0005-.137-.0694-.999-.6542-2.136-1.0324-3.341-1.1357-1.343-.1032-2.616.0685-3.684 1.0322-.723.6542-1.102 1.6189-1.068 2.583-.034 2.1692-.034 4.3728 0 6.542.034 2.1005 1.447 3.5127 3.582 3.6504 1.721.1376 3.443-.3098 4.889-1.2393.516-.3442.551-.3446.895.2061.345.5509.723 1.0333 1.068 1.5498.172.1722.172.4479 0 .6201-.004.0002-.036.0037-.069.0684-2.617 2.1693-7.678 2.5478-10.605.8261-1.997-1.1706-2.893-2.9951-3.031-5.2675-.068-1.2052 0-2.4452 0-3.6504s-.034-2.9613.104-4.3731c.241-2.5481 2.066-4.6829 4.545-5.3027zm-14.9102 5.1299c1.5494-.2755 3.0645-.2404 4.5102.4482 1.894.8952 2.79 2.41 2.893 4.4414.069.9985 0 2.0318.034 3.0303 0 .482-.171.6201-.619.6201h-7.4032c-.1721-.0688-.3787-.0693-.5508-.0693-.1722 1.8594.5511 2.9958 2.1006 3.168.7917.0687 1.5833-.0001 2.375-.1377.7234-.2066 1.4124-.5165 2.0324-.9297.378-.2065.585-.2059.826.1728.31.4475.62.8604.93 1.2735.172.1721.172.4137 0 .5859-.035.0001-.069.0684-.104.0684-2.513 1.8593-5.2683 2.376-8.1951 1.3085-1.8248-.5854-3.0984-2.273-3.1329-4.2011-.1032-1.7215-.1032-3.4085 0-5.1299.2066-2.5136 1.8246-4.2017 4.3038-4.6494zm-9.6758-5.2334c.5509 0 .6543.1033.6543.6543v5.6816c0 2.789-.0003 5.6124.0341 8.4014 0 .241.0347.5168.1036.7578.2065.9296.6542 1.3083 1.6181 1.3428h.9991c.3098 0 .4824.1383.4824.4482.0344.654-.0008 1.2737-.0352 1.9277 0 .1721-.206.4469-.3437.4473-1.0675.1033-2.1699.2072-3.2373-.206-1.6527-.6199-2.3759-1.9628-2.6514-3.5811-.0689-.6542-.1035-1.3086-.1035-1.9629v-13.2568c0-.5509.0692-.6543.6201-.6543zm55.197 5.1992c1.515-.3443 3.099-.2066 4.511.4131 1.894.8608 2.789 2.4108 2.927 4.4424.069.9986.035 2.0317.035 3.0302 0 .9984-.069.6203-.654.6202h-7.886c-.275 2.1346.93 3.374 2.996 3.2363 1.239-.0001 2.445-.4481 3.443-1.1367.379-.2408.62-.2058.861.1728.241.3787.619.8261.929 1.2393.172.241.207.4477-.068.6543-2.548 1.8938-5.337 2.4106-8.333 1.2744-1.791-.6198-2.996-2.2731-3.03-4.167-.069-1.6871-.069-3.4086 0-5.0957.206-2.5136 1.79-4.2015 4.269-4.6836zm-69.9002-5.165c.4133 0 .5508.1727.5508.5859v4.4766c-.0343.1373-.0342.2405-.0342.3779.9296-.1722 1.8593-.3098 2.8233-.4131 2.2382-.0689 4.0631.6894 5.3027 2.6865.4476.7231.7237 1.5494.7237 2.4102.0344 1.4462.0688 2.9269 0 4.373-.1378 2.9268-2.2728 4.9584-5.3028 5.1651-2.1003.1033-4.2353-.1725-6.2324-.8955-.3443-.1033-.4141-.3444-.4141-.6543v-17.2852c0-.7918.0349-.8271.792-.8271zm84.0872 5.1992c2.066-.4477 4.201-.1026 6.026.9648.516.3098.516.4126.206.8946-.206.3443-.447.6547-.653.999-.448.7231-.449.6881-1.206.3437-.861-.413-1.79-.6193-2.72-.5849-1.79.0688-2.686.9987-2.721 2.7549 0 1.2049-.034 2.4444 0 3.6494.035 1.5839.93 2.4797 2.48 2.583 1.205.1033 2.376-.2071 3.375-.8614.413-.275.689-.206.93.2071s.619.8952.929 1.3427c.207.2753.172.482-.137.6885-2.445 1.6184-5.063 1.9289-7.783.8272-1.962-.792-2.858-2.4106-2.996-4.4766-.034-.7575 0-1.5501 0-2.3076-.034-1.0329 0-2.0658.172-3.0986.448-2.2037 1.963-3.4781 4.098-3.9258zm-30.818-5.1641c.551.0001.654.103.654.6533v4.752h.035c1.17-.3443 2.376-.482 3.581-.4131 2.961.1722 4.993 2.0662 5.165 5.0273.138 2.5826.069 5.1656.103 7.7481v1.0674c0 .3442-.138.5165-.516.5166h-2.032c-.482-.0001-.62-.207-.62-.6201v-7.4034c0-.413-.034-.8604-.103-1.2734-.207-1.3085-.896-1.9977-2.204-2.1699-.999-.1377-1.997.0002-2.961.2412-.344.1033-.448.2755-.448.6543v9.8135c0 .7575-.035.792-.792.792h-1.481c-.585-.0001-.894-.2754-.894-.8604v-17.8369c0-.6198.068-.6885.688-.6885zm42.354 0c.585.0001.653.1033.653.6885v9.3662c-.032.1946-.034.3893-.034.584 1.412-1.5494 2.79-2.9609 4.064-4.4414.585-.6885 1.067-.8601 2.1-.8945h1.79c.586 0 .345.4472.241.5849-1.515 1.6183-3.03 3.2365-4.545 4.8203-.172.1722-.344.3794-.55.586l1.652 2.1689c1.308 1.7217 2.651 3.4092 3.96 5.1309.241.3099.413.6892-.345.7236h-2.41c-.344-.0001-.654-.1387-.86-.4141-1.24-1.6527-2.514-3.3052-3.788-4.958-.104-.1376-.207-.2754-.344-.4131-.276.2754-.551.5508-.792.8262-.103.1378-.139.3103-.139.4824v3.8565c0 .5851-.068.654-.653.6885h-1.825c-.62 0-.655 0-.655-.6885v-17.9404c0-.7229.035-.7569.758-.7569zm-112.8741-.0693c.7572 0 .792.0001.792.792v1.5498c-.0001.6194-.0698.6885-.6895.6885h-5.1992v15.5293c0 .5509-.2753.8261-.8262.8261h-1.9287c-.344-.0001-.5158-.1374-.4814-.4814v-15.874h-5.3379c-.3441-.0001-.5508-.1381-.5508-.5166v-2.0323c.0002-.3439.1725-.4814.5166-.4814zm7.2304 13.4629c-1.1017-.0689-2.238-.2057-3.3398.1386-.654.1722-1.1365.7569-1.1367 1.4454-.0689.6886.3448 1.3429.999 1.5839 1.4807.6199 2.9617.3099 4.4424 0 .0172-.5164.025-1.0243.0293-1.5322l.0049-1.4971c-.3788 0-.6892-.1042-.9991-.1386zm14.4971-5.4053c-1.2396-.3788-2.5482-.2409-3.6846.3789-.1721.1377-.2754.31-.2754.5166v7.1279c.0001.3784.1033.5505.4473.585.9297.1033 1.8252.1726 2.7549.207 1.4806-.1033 2.2724-.8612 2.4102-2.3418.1032-1.4805.1032-2.9267 0-4.4072 0-.9985-.6883-1.8253-1.6524-2.0664zm23.1045.1035c-1.0674-.6197-2.4097-.5511-3.4082.1719-.9641.6887-.9297 1.7907-.9297 2.8926h5.544c.069-1.2397-.001-2.4447-1.2061-3.0645zm45.6591.0684c-1.033-.654-2.341-.6197-3.374 0-1.102.6887-1.067 1.8256-1.067 2.9619h5.509v.0342c.207-1.3774-.173-2.4796-1.068-2.9961zm-118.039-8.333c.1033-.1033.3105-.1724.4483-.1035 2.4447 1.1018 4.442 3.099 5.5439 5.5781.0344.1377-.0002.3449-.1035.4482l-3.0645 3.0645c-.1033.1033-.3105.0342-.3105-.1035-.4477-2.8235-2.6856-5.027-5.4746-5.4747-.1721-.0344-.2067-.2414-.1035-.3447zm-8.4355-.1026c.1376-.0343.3439-.0005.4472.1026l3.0645 3.0654c.1031.1032.0349.3091-.1025.3096-2.8235.4476-5.0279 2.6856-5.4756 5.4746-.0345.1721-.2404.2066-.3438.1035l-3.0654-3.0645c-.1032-.1033-.1712-.3096-.1026-.4472 1.1019-2.4448 3.0989-4.4421 5.5782-5.544z" fill="#000"/></svg>