<svg fill="none" height="70" viewBox="0 0 190 70" width="190" xmlns="http://www.w3.org/2000/svg"><path d="m116.435 29.1099c.979.0622 1.763.2877 2.427.7002 1.223.7581 1.951 2.0835 2.181 3.9775.074.6015.086 1.2356.074 4.0908-.009 2.33-.015 2.8675-.045 3.1348-.079.7004-.192 1.2512-.367 1.7627-.113.3295-.387.8919-.562 1.1523-.728 1.0855-1.821 1.7078-3.386 1.9268-.371.0507-1.486.0687-2.044.0342-1.071-.0692-2.141-.2096-2.962-.3916l-.191-.0411v3.3389c0 2.3599-.007 3.3369-.026 3.3369-.027.0019-1.077.147-2.347.3233-1.277.1774-2.34.3222-2.361.3222-.034-.0019-.037-.9744-.037-11.6728v-11.6729h3.745l.217.5713c.12.3134.233.6021.249.6436l.028.0713.249-.1494c.315-.189.928-.4977 1.339-.6729 1.053-.4471 2.107-.722 3.012-.7842.369-.0276.427-.0273.807-.0019zm37.933-.0098c.24-.0138.819.0123 1.119.0469 2.221.2675 3.611 1.6221 4.079 3.9726.17.8573.183 1.1779.183 4.3789 0 3.219-.013 3.549-.183 4.4014-.231 1.15-.642 1.9775-1.315 2.6504-.35.3502-.62.5464-1.062.7676-.539.2741-1.196.4609-1.91.5508-.372.046-1.879.0389-2.42-.0118-.95-.0898-1.556-.1729-2.251-.3134l-.422-.085v3.3369c0 2.1087-.01 3.3369-.024 3.3369-.016.0007-1.069.1462-2.345.3233-1.279.1774-2.345.3222-2.366.3222-.034-.0071-.036-.9298-.036-11.6728v-11.6729h3.747l.136.3506c.074.1935.185.4835.247.6426l.113.291.247-.1474c1.366-.8159 3.104-1.3881 4.463-1.4688zm-111.649-11.8682c3.7303-.005 7.3342-.2639 10.42 2.2276.5834.4768 1.1109 1.035 1.5625 1.6386.543.7257.9898 1.5228 1.3095 2.3702.3755.9843.6038 2.055.6494 3.1103h-6.2119c-.0964-.1724-.9332-1.3236-1.2988-1.6894-1.1876-1.1265-3.0454-1.5174-4.6035-1.0557-3.5678 1.0554-4.4256 5.4947-1.3555 7.6514.4923.345 1.0457.6149 1.6446.7011v4.7393c-3.1923.472-4.6389 4.379-2.6241 6.835.5511.9603 2.6081 1.6286 2.6241 1.6337v6.4903h-10.3028v-6.4854c.68-.1826 1.1011-.5784 1.5528-.9336 2.8573-2.2479 1.751-6.4642-1.6241-7.4638-1.5834-.4719-3.2685-.0717-4.5322.9736-.3806.3146-.8223.8221-1.2334 1.3701-.9337 0-2.0981.0057-3.2822.0108l-3.4063-.0157v-8.2304c0-3.7752-.2645-7.5051 2.3897-10.5547.4922-.5632 1.0559-1.0756 1.6699-1.5069.7713-.5479 1.6089-.9795 2.5019-1.289 1.1064-.3856 2.2588-.5273 3.4209-.5274v6.4082c-2.1162.5633-3.9584 2.4766-3.3496 5.6426 1.5835 4.6937 9.2575 3.5372 9.1358-1.4863-.0711-1.5172-.9847-2.8522-3.2432-4.1563v-6.4082zm-14.0234 24.6358c.1067 1.2228.9145 2.2985 1.9092 2.9277.3149.203 1.0152.4972 1.3906.5986.0051 2.1312 0 4.3136 0 6.4854-5.6334 0-9.9832-4.3794-9.9834-10.0117zm27.9648-12.8125v8.8847c0 4.4502.1882 8.8496-3.7197 11.879-.7257.5631-1.5175 1.0145-2.3701 1.3544-.9105.3642-1.8251.5657-2.7842.668l-.4131-6.4473c2.9282-.6953 4.1668-4.4149 2.3399-6.7744-.6445-.8118-1.2742-1.0756-2.3399-1.6894v-4.7393c1.426-.8118 2.1466-1.4717 3.0752-3.1357zm28.1895.0449c.2836-.0161 1.2102.0123 1.5674.0469.6728.0622 1.3897.2141 1.9082.3984 2.053.7375 3.166 2.3067 3.4473 4.8574.0622.5554.083 1.3119.083 3.0772v1.7012h-8.7188l.0147.4765c.0161.553.0569.8481.1513 1.1338.2258.6752.6755.9911 1.6201 1.1455.3157.0507 1.528.071 2.0997.0342 1.2997-.083 2.9063-.348 3.8466-.6338.0987-.0275.1109-.0274.1201.0068.0162.053.6817 3.4968.6817 3.5245-.0032.0721-1.333.4535-2.2354.6377-1.2674.2603-2.3066.3757-3.5371.3964-1.0301.0162-1.5676-.0154-2.3535-.1445-1.7076-.2766-3.033-.9749-3.8926-2.0488-.6084-.7582-1.0209-1.7932-1.1845-2.9639-.0899-.6384-.0985-1.0212-.087-3.5586.0093-2.5786.0111-2.6066.1309-3.291.4771-2.7238 2.2287-4.2998 5.2197-4.7031.2282-.03.7172-.0721 1.1182-.0928zm-17.5498-5.9219c.2512-.0184 2.7405.0063 3.0654.0293 1.2882.0945 2.2635.2098 3.3789.3965.5291.0871 1.4378.2629 1.4649.2832.0092.0069-.4725 4.1076-.4864 4.1514-.0099.0148-.2325-.0128-.6035-.0742-.8388-.1383-1.9334-.2922-2.5556-.3614-1.611-.1774-3.4753-.2191-4.252-.0947-.9631.1544-1.3345.532-1.4267 1.4512-.0531.5323-.0179 1.4871.0673 1.8213.1199.4722.3914.7421.9834.9795.4241.1682.7032.2441 2.8418.7695 3.3763.8296 4.794 1.588 5.4278 2.9062.3248.6775.444 1.3528.497 2.7998.0991 2.7218-.189 4.3167-.9795 5.4229-.9932 1.3917-2.7535 2.0645-5.832 2.2305-.5738.0299-2.2548.0167-2.6973-.0225-1.7119-.1544-3.1705-.4496-4.5507-.9219-.3513-.1194-1.1102-.4173-1.1455-.4492-.0139-.0138.8011-3.7991.8222-3.8262.0115-.0092.2145.0393.4541.1084 2.3644.696 4.3325.9747 6.4434.9102 1.6063-.0461 2.231-.3895 2.4385-1.332.1175-.5439.1178-1.7511-.002-2.2559-.1728-.7236-.7076-1.0578-2.3623-1.4727-.3042-.076-.9287-.2234-1.3896-.3271-.9933-.2235-1.7106-.4104-2.2637-.5879-2.5853-.8388-3.4564-1.8921-3.6846-4.459-.076-.8457-.0876-2.3853-.0254-3.1113.1798-2.0463.8436-3.2724 2.1778-4.0283.8573-.4863 2.1392-.7973 3.7109-.9033.2025-.0139.4209-.0277.4834-.0323zm36.3779 5.9912c.267-.0714.323-.0735.323-.0205 0 .0231.088 1.0324.194 2.2422.107 1.2022.187 2.1952.179 2.2168-.009.0069-.174.0789-.368.1572-1.399.5647-2.828 1.2694-3.651 1.8018l-.248.1621v9.8584h-4.7708v-16.1553h3.9795l.1572.7422c.0853.4102.1631.7563.17.7725.0095.0158.1116-.0332.291-.1436 1.0781-.652 2.7051-1.3618 3.7441-1.6338zm64.322 16.418h-4.77v-16.1553h4.77zm-31.842-22.0898 3.38 11.039 3.379 11.0391-2.582.0068c-2.051.0046-2.583.0005-2.594-.0224-.005-.0162-.274-.9844-.599-2.1504l-.588-2.1201-3.704-.0069-3.705-.0049-.012.0508c-.009.03-.277.9958-.595 2.1504l-.581 2.0967-2.588.0068c-1.421.0023-2.586.0001-2.586-.0068.02-.0755 6.688-21.9704 6.718-22.0615.007-.0231.688-.0281 3.333-.0235zm-21.59 9.7392c-.708.0507-1.342.24-2.037.6133-.268.1428-.719.4398-.872.5713l-.099.0859v6.8604l.088.0254c.163.0414.656.1383 1.018.1982.602.0968 1.118.1502 1.637.1641.567.0161.786-.007 1.063-.1084.518-.189.82-.5858.93-1.2149.051-.2951.051-5.5612 0-5.8769-.064-.4032-.201-.6798-.447-.9102-.247-.2303-.535-.3429-.993-.3867-.134-.0115-.263-.0215-.288-.0215zm38.39.0235c-.822.0783-1.885.5372-2.638 1.1386l-.134.1035v6.8653l.087.0234c.17.0461.899.1844 1.215.2305.631.0899.952.1199 1.463.1338.565.0138.717-.0006 1.019-.0996.458-.1499.781-.5166.924-1.0489l.051-.1933v-5.8301l-.051-.1963c-.125-.4655-.353-.7725-.705-.9453-.228-.1106-.394-.1559-.685-.1836-.244-.0253-.279-.0257-.546.002zm-20.126-5.3487c-.007 0-.583 2.0602-1.277 4.5791-.694 2.5165-1.268 4.591-1.274 4.6094-.005.025.433.0293 2.526.0293 1.396 0 2.537-.007 2.537-.0186-.006-.0314-.566-2.0965-1.249-4.6084-.681-2.5031-1.247-4.5578-1.263-4.5908zm-47.0837 4.9541c-.3203-.0391-.7212-.0251-1.0576.0371-.3917.0715-.7142.2262-.9746.4659-.4217.3917-.5858.9333-.5674 1.8828l.0069.3457h4.1718l-.0029-.5528c-.0023-.9495-.1146-1.3421-.4902-1.7177-.265-.2627-.5859-.3988-1.086-.461zm82.2517-5.4609h-4.77v-5.0703h4.77z" fill="#000"/></svg>