<svg fill="none" height="70" viewBox="0 0 190 70" width="190" xmlns="http://www.w3.org/2000/svg"><path d="m56.9427 13c-2.5853 0-4.9015 1.6079-5.801 4.0373l-11.7154 31.6259c-1.4945 4.0374 1.4945 8.3368 5.801 8.3368h41.6272l16.3055-44zm16.8152 34.3033c0 .2975-.2408.5383-.5383.5383h-5.794c-.2974 0-.5383-.2408-.5383-.5383v-8.1455c0-1.4237-.8499-2.2383-1.877-2.2383-1.027 0-1.9691.8146-1.9691 2.2383v8.1455c0 .2975-.2408.5383-.5383.5383h-5.7868c-.2975 0-.5384-.2408-.5384-.5383v-21.0155c0-.2975.2409-.5383.5384-.5383h5.7868c.2975 0 .5383.2408.5383.5383v5.8648c0 .4746.5596.7083.9067.3896 1.027-.9208 2.4011-1.622 4.1436-1.622 3.4777 0 5.6593 2.302 5.6593 6.0206v10.3554zm8.868 0c0 .2975-.2408.5383-.5383.5383h-5.794c-.2974 0-.5383-.2408-.5383-.5383v-15.4482c0-.2975.2409-.5383.5383-.5383h5.794c.2975 0 .5383.2408.5383.5383z" fill="#445982"/><path d="m144.773 14.0837c1.693 0 3.215.8004 4.186 2.1887.97 1.3883 1.183 3.0953.595 4.6819l-11.716 31.6259c-.736 1.9903-2.656 3.329-4.781 3.329h-44.6513l15.4973-41.8255zm0-1.0837h-41.627l-16.2986 44h46.2096c2.586 0 4.902-1.6079 5.801-4.0373l11.716-31.6259c1.494-4.0445-1.495-8.3368-5.801-8.3368z" fill="#445982"/><g fill="#f7941d"><path d="m75.6349 19.1621c0-.2975.2408-.5383.5383-.5383h2.6562v1.8345h-3.2016v-1.2962z"/><path d="m75.6349 21.181h3.2016v1.8345h-2.6562c-.2975 0-.5383-.2408-.5383-.5383v-1.2962z"/><path d="m82.7463 22.4772c0 .2975-.2408.5383-.5383.5383h-2.6562v-1.8345h3.2016v1.2962z"/><path d="m82.7464 20.4583h-3.2016v-1.8345h2.6562c.2975 0 .5383.2408.5383.5383v1.2962z"/></g><path d="m105.093 31.3804h5.787c.298 0 .539.2408.539.5383v.1842c0 .4675.552.7154.899.4037.942-.8429 2.132-1.5228 4.002-1.5228 3.995 0 7.111 3.4777 7.111 8.5351v.0637c0 5.2344-3.144 8.7193-7.054 8.7193-1.877 0-3.131-.6092-4.087-1.4096-.347-.2904-.879-.0354-.879.4179v4.9015c0 .2975-.24.5383-.538.5383h-5.787c-.297 0-.538-.2408-.538-.5383v-20.2859c0-.2975.241-.5383.538-.5383zm11.687 8.2872v-.0637c0-1.6646-1.182-2.9679-2.755-2.9679-1.572 0-2.755 1.3033-2.755 2.9679v.0637c0 1.6362 1.183 2.9678 2.755 2.9678 1.573 0 2.755-1.3033 2.755-2.9678z" fill="#445982"/><path d="m131.4 31.3804h-5.794c-.297 0-.538.241-.538.5383v15.4482c0 .2973.241.5383.538.5383h5.794c.297 0 .538-.241.538-.5383v-15.4482c0-.2973-.241-.5383-.538-.5383z" fill="#445982"/><path d="m131.542 23.0155c.297 0 .538-.2408.538-.5383v-1.2962h-3.202v1.8345z" fill="#f7941d"/><path d="m124.968 21.181v1.2962c0 .2975.241.5383.539.5383h2.656v-1.8345h-3.202z" fill="#f7941d"/><path d="m125.507 18.6238c-.298 0-.539.2408-.539.5383v1.2962h3.202v-1.8345z" fill="#f7941d"/><path d="m132.08 20.4583v-1.2962c0-.2975-.241-.5383-.538-.5383h-2.657v1.8345h3.202z" fill="#f7941d"/></svg>