<svg fill="none" height="70" viewBox="0 0 190 70" width="190" xmlns="http://www.w3.org/2000/svg"><path d="m27.0849 47.6454c.4448 0 .872.1767 1.1866.4912.3145.3145.4912.7417.4912 1.1865-.0001.4446-.1769.8711-.4912 1.1856-.3146.3145-.7418.4912-1.1866.4912h-2.3984c-.4447-.0002-.8711-.1768-1.1856-.4912-.3144-.3145-.4911-.7409-.4912-1.1856 0-.4448.1767-.872.4912-1.1865.3145-.3144.741-.4911 1.1856-.4912zm16.6993 0c.4446 0 .871.1768 1.1855.4912.3145.3145.4912.7417.4912 1.1865-.0001.4447-.1768.8711-.4912 1.1856-.3145.3143-.7409.4912-1.1855.4912h-9.5489c-.4447-.0001-.8711-.1768-1.1855-.4912-.3145-.3145-.4911-.7409-.4912-1.1856 0-.4448.1766-.872.4912-1.1865.3144-.3144.7409-.4912 1.1855-.4912zm9.5429 0c.4447 0 .8711.1768 1.1856.4912.3145.3145.4912.7417.4912 1.1865-.0001.4447-.1768.8711-.4912 1.1856-.3145.3143-.7409.4912-1.1856.4912h-2.3867c-.4448 0-.872-.1767-1.1865-.4912-.3144-.3145-.4911-.741-.4912-1.1856 0-.4448.1767-.872.4912-1.1865s.7417-.4912 1.1865-.4912zm47.3679-18.7617c5.026 0 7.922 4.0089 7.945 9.0068 0 .2347 0 .4975-.034.8887h-13.4791c.3578 3.5834 2.9915 5.6572 5.9821 5.6572 1.014.0095 2.018-.2004 2.944-.6152.925-.415 1.75-1.0246 2.418-1.7881l1.553 1.414c-.848 1.0294-1.92 1.8522-3.133 2.4053-1.214.5531-2.538.8223-3.871.7871-4.6685 0-8.481-3.5838-8.481-8.8779.0001-4.9307 3.4547-8.8779 8.156-8.8779zm57.449 0c2.354.0082 4.609.9514 6.268 2.622 1.659 1.6707 2.586 3.9326 2.578 6.2871-.008 2.3543-.951 4.6086-2.622 6.2676-1.67 1.6591-3.932 2.5872-6.286 2.5791-1.166.0121-2.323-.2098-3.402-.6523-1.079-.4427-2.059-1.0972-2.881-1.9248s-1.469-1.8115-1.904-2.8936c-.436-1.0822-.65-2.241-.629-3.4072-.011-1.1686.212-2.3275.654-3.4092.442-1.0818 1.096-2.0651 1.923-2.8916.826-.8263 1.809-1.4795 2.89-1.9219 1.082-.4424 2.242-.6657 3.411-.6552zm-24.532 10.2919c0 3.1529 1.778 5.1268 4.701 5.127 2.924 0 5.094-2.136 5.094-5.3281l-.012-9.7158h2.533v16.9892h-1.956l-.341-2.0068h-.236c-.324.9559-2.409 2.3642-5.456 2.3642-4.41 0-6.871-2.7612-6.871-6.8086v-10.538h2.544zm-13.227-10.2919c4.411 0 6.871 2.7619 6.871 6.8037v10.5547h-2.528v-9.9112c0-3.1586-1.771-5.1269-4.701-5.1269-2.929 0-5.098 2.1357-5.098 5.3222v9.7276h-2.533v-16.9951h1.957l.346 1.9902h.23c.324-.9559 2.415-2.3651 5.456-2.3652zm-38.9153-5.6573c3.9411 0 7.9826 2.6945 8.2959 7.0547v.8115c-.0095 1.5365-.4789 3.0345-1.3477 4.3018-.8688 1.2674-2.0974 2.2458-3.5273 2.8086l6.0439 8.0391h-3.3037l-5.5293-7.4073c-.851.0801-1.7059.1115-2.5605.0948h-5.0762v7.3125h-2.5996v-23.0157zm76.6123 7.8936c-3.684 0-6.217 2.9911-6.217 6.6416s2.684 6.5916 6.279 6.6084v-.0176c3.672-.0001 6.25-2.9403 6.25-6.5908-.001-3.6505-2.729-6.6415-6.312-6.6416zm-133.8799 7.0722c.2642-.0798.5439-.0932.8145-.039.1067.0232.2118.0546.3134.0947.1009.0444.1975.0975.2901.1572.09.061.1747.1296.2519.2061.0797.078.1514.1648.2129.2578.059.09.1091.1858.1504.2852.0826.2043.1266.4222.1289.6425-.0002.1108-.0111.2216-.0332.3301-.0205.1073-.0531.2119-.0957.3125-.0424.1007-.0924.1984-.1504.291-.1274.1797-.2851.3365-.4648.4639-.0926.0579-.1894.1089-.2901.1514-.1007.0426-.206.0741-.3134.0947-.1093.0145-.2201.0179-.3301.0107-.4444-.0005-.8705-.1768-1.1846-.4912-.0765-.0773-.146-.1619-.207-.2519-.0588-.0855-.1108-.1754-.1563-.2686-.04-.1015-.0725-.2059-.0957-.3125-.022-.1085-.0329-.2193-.0332-.3301.0001-.1088.0111-.2176.0332-.3242.0232-.1085.0557-.2149.0957-.3183.0433-.0996.0955-.1953.1563-.2852.0596-.0929.1291-.1797.207-.2578.1953-.1951.436-.339.7002-.419zm7.1553-.0224c.2643-.08.5447-.0933.8154-.0391.1066.0232.2111.0548.3125.0948.2073.0852.3975.2084.5596.3632.0779.0781.1475.165.207.2578.0608.0899.1131.1857.1563.2852.04.1034.0716.2099.0947.3184.0222.1066.0341.2153.0342.3242-.0003.1107-.0122.2215-.0342.3301-.0232.1065-.0547.211-.0947.3125-.0444.1008-.0965.1984-.1563.291-.061.09-.1305.1746-.207.2519-.079.0783-.1651.1491-.2568.2119-.0921.0591-.1897.1101-.2911.1514-.1007.0426-.206.0742-.3134.0947-.1102.023-.2225.0339-.335.0332-.2211.0006-.4402-.0425-.6445-.1269-.2044-.0844-.3907-.2078-.5469-.3643-.0749-.0786-.1434-.1632-.2061-.2519-.0601-.0915-.1111-.1892-.1513-.291-.0443-.1004-.0781-.2051-.1006-.3125-.0176-.1091-.0273-.2197-.0283-.3301.001-.1086.0107-.2171.0283-.3242.0224-.1093.0562-.216.1006-.3184.0391-.1005.0902-.1963.1513-.2852.0613-.0915.1298-.1783.2061-.2578.1952-.1951.436-.3389.7002-.4189zm21.9697-.0723c.4448 0 .8711.1767 1.1856.4912s.4912.7408.4912 1.1856-.1767.871-.4912 1.1855-.7408.4912-1.1856.4912h-14.3174c-.4447 0-.871-.1767-1.1855-.4912s-.4912-.7407-.4912-1.1855.1767-.8711.4912-1.1856.7408-.4912 1.1855-.4912zm47.3009-7.0781c-2.9293.0002-5.1657 2.4321-5.5235 5.7246h10.9465c-.297-3.0914-2.069-5.7246-5.423-5.7246zm-26.1632 5.5742h6.7529c3.4493 0 5.9209-2.4434 5.9209-5.4678 0-2.8231-2.1748-5.4949-5.8867-5.4951h-6.7871zm-28.2939-8.039c.4448 0 .872.1766 1.1865.4912.3143.3144.4912.7409.4912 1.1855s-.1769.8711-.4912 1.1856c-.3145.3145-.7417.4912-1.1865.4912h-21.4844c-.4447-.0001-.8711-.1768-1.1856-.4912-.3143-.3145-.4912-.7409-.4912-1.1856.0001-.4447.1768-.8711.4912-1.1855.3145-.3145.7409-.4911 1.1856-.4912zm7.1865-.001c.4404 0 .8651.1658 1.1885.4648.0749.0807.1443.1664.207.2569.0609.0919.113.1895.1563.291.0399.1014.0715.2059.0947.3125.0447.2157.0447.4385 0 .6543-.0232.1067-.0547.2118-.0947.3134-.0432.1013-.0956.1983-.1563.2901-.0627.0905-.132.1771-.207.2578-.3139.3171-.7395.4997-1.1856.5088-.4447-.0017-.8716-.1762-1.1904-.4863-.1549-.1621-.278-.3523-.3633-.5596-.04-.1014-.0715-.206-.0947-.3125-.0448-.2157-.0447-.4386 0-.6543.0232-.1068.0546-.2119.0947-.3135.0852-.2072.2085-.3966.3633-.5586.3232-.2989.7472-.4647 1.1875-.4648zm-29-9.5088c.2174-.0447.4417-.0447.6592 0 .1074.0206.2127.0521.3134.0947.1017.0402.1987.0913.2901.1514.09.0629.1748.1337.2519.2119.0797.076.1514.1607.2129.2519.0591.0921.1091.1898.1504.2911.0426.1006.0752.2052.0957.3125.0448.2156.0447.4386 0 .6543-.0198.1076-.0523.213-.0957.3134-.0795.2102-.2035.4006-.3633.5586-.0773.0766-.1619.146-.2519.2071-.0925.0596-.1894.1119-.2901.1562-.1016.0401-.2067.0725-.3134.0957-.1091.0164-.22.0219-.3301.0166-.1106-.0003-.2207-.0122-.3291-.0342-.1068-.0231-.2119-.0546-.3135-.0947-.0996-.0432-.1952-.0954-.2851-.1562-.0929-.0596-.1788-.1292-.2569-.2071-.3146-.3142-.4918-.7409-.4922-1.1855-.0001-.1106.0108-.2209.0332-.3291.0232-.1068.0557-.2119.0957-.3135.0436-.0995.0957-.195.1563-.2852.0596-.091.1292-.1758.207-.2519.0779-.0795.164-.1505.2569-.2119.0888-.0612.1845-.1123.2851-.1514.1007-.0426.2061-.0741.3135-.0947zm14.6523-.0391c.4447 0 .8711.1769 1.1856.4912.3144.3145.4911.7409.4912 1.1856 0 .4448-.1767.872-.4912 1.1865-.3145.3143-.7409.4912-1.1856.4912h-7.1611c-.4448 0-.872-.1767-1.1865-.4912s-.4912-.7418-.4912-1.1865c.0001-.4446.1769-.8712.4912-1.1856.3145-.3145.7417-.4912 1.1865-.4912zm6.837.0283c.2157-.0447.4385-.0447.6542 0 .1075.0206.2128.0522.3135.0948.1012.0413.1981.0923.2901.1513.093.0616.1798.1322.2578.212.0765.0772.146.1619.207.2519.0596.0924.1119.1894.1563.29.04.1017.0715.2068.0947.3135.0447.2176.0447.4426 0 .6602-.0232.1065-.0548.2111-.0947.3125-.0433.0996-.0955.1952-.1563.2851-.1193.1864-.2785.3446-.4648.4639-.0918.0608-.1888.1131-.2901.1563-.1016.04-.2067.0725-.3135.0957-.1084.0225-.2193.0334-.33.0332-.4447-.0001-.8711-.1768-1.1856-.4913-.3144-.3144-.4911-.7408-.4912-1.1855-.0083-.1098-.0083-.2203 0-.3301.0225-.1076.0562-.2129.1006-.3135.0497-.099.1096-.1926.1787-.2793.0589-.0935.1262-.1814.2012-.2626.0759-.0797.1607-.1504.2519-.212.0975-.06.2006-.111.3077-.1513.1005-.0425.2052-.0742.3125-.0948zm7.1562.0108c.2157-.0447.4386-.0448.6543 0 .1072.0205.212.0522.3125.0947.1013.0413.1989.0923.291.1514.0918.0628.1778.1337.2568.2119.075.0787.1444.1632.2071.2519.0601.0915.1111.1893.1513.2911.0443.1003.0782.2051.1006.3125.0221.1085.033.2193.0332.33-.004.444-.1806.8693-.4922 1.1856-.162.1547-.3513.2781-.5585.3633-.1017.04-.2068.0715-.3135.0947-.0941.0159-.1897.0235-.2852.0225-.1105.0001-.2208-.0108-.3291-.0332-.1067-.0232-.2118-.0557-.3135-.0957-.1014-.0433-.199-.0954-.291-.1563-.1862-.1193-.3446-.2776-.4638-.4639-.0609-.0899-.113-.1855-.1563-.2851-.0496-.1008-.0908-.2059-.123-.3135-.0372-.2182-.0372-.441 0-.6592.0231-.1067.0546-.2118.0947-.3135.0449-.0969.0971-.1903.1562-.2793.0611-.09.1305-.1746.2071-.2519.0779-.0797.1648-.1504.2578-.2119.092-.059.1888-.1101.29-.1514.1007-.0426.2061-.0741.3135-.0947z" fill="#000"/></svg>