<?xml version="1.0" encoding="utf-8"?>
<!-- Generator: Adobe Illustrator 27.6.1, SVG Export Plug-In . SVG Version: 6.00 Build 0)  -->
<svg version="1.1" id="Layer_1" xmlns="http://www.w3.org/2000/svg" xmlns:xlink="http://www.w3.org/1999/xlink" x="0px" y="0px"
	 viewBox="0 0 170 40" style="enable-background:new 0 0 170 40;" xml:space="preserve">
<style type="text/css">
	.st0{clip-path:url(#SVGID_00000026155473127725681480000009501199130548614072_);}
</style>
<g>
	<defs>
		<rect id="SVGID_1_" width="169.1" height="40"/>
	</defs>
	<clipPath id="SVGID_00000060749081217027666530000014501124167492297863_">
		<use xlink:href="#SVGID_1_"  style="overflow:visible;"/>
	</clipPath>
	<g style="clip-path:url(#SVGID_00000060749081217027666530000014501124167492297863_);">
		<path d="M0.2,30.8h12.4c2.3,0,4.3-0.8,5.8-2.4c1.6-1.5,2.4-3.6,2.4-6.3c0-1.6-0.4-3.1-1.2-4.4c-0.8-1.3-2-2.2-3.6-2.6v-0.1
			c0.8-0.4,1.5-0.8,2.1-1.4c0.6-0.5,1-1,1.3-1.6c0.6-1.1,0.9-2.4,0.9-3.6c0-2.5-0.7-4.5-2.2-6c-1.5-1.5-3.6-2.2-6.5-2.3H0.2V30.8z
			 M11.5,17.2c1.7,0,2.9,0.5,3.6,1.4c0.8,0.9,1.2,2,1.2,3.2c0,1.2-0.4,2.3-1.2,3.2c-0.8,0.9-2,1.4-3.6,1.4H4.6v-9.2H11.5L11.5,17.2z
			 M11.1,4.2c1.6,0,2.8,0.4,3.6,1.2c0.8,0.9,1.2,1.9,1.2,3.1c0,1.2-0.4,2.3-1.2,3.1c-0.8,0.9-2,1.3-3.6,1.3H4.6V4.2H11.1L11.1,4.2z
			 M25.2,30.8h4.2V8.9h-4.2V30.8z M25.2,4.5h4.2V0.1h-4.2V4.5L25.2,4.5z M46.9,28.5v2.3c0,1.5-0.5,2.7-1.3,3.5
			c-0.9,0.8-2,1.2-3.5,1.2c-0.8,0-1.5-0.3-2.2-0.7c-0.7-0.4-1.3-0.8-1.9-1.3l-3.3,2.7c2,2.4,4.4,3.6,7.3,3.7c2.5,0,4.6-0.8,6.4-2.4
			c1.8-1.5,2.7-4,2.7-7.2V8.9h-4.2v2.3c-1.5-1.7-3.3-2.6-5.4-2.6c-1.4,0-2.5,0.3-3.4,0.8c-0.9,0.5-1.7,1.2-2.2,1.9
			c-0.6,0.7-1,1.6-1.2,2.6c-0.3,1-0.4,3-0.4,6c0,2.9,0.1,4.8,0.4,5.8c0.2,1,0.6,1.9,1.2,2.6c0.5,0.6,1.2,1.2,2.2,1.8
			c0.9,0.6,2,0.9,3.4,0.9C43.7,31,45.5,30.1,46.9,28.5L46.9,28.5z M38.5,19.9c0-1.7,0.1-2.9,0.2-3.5c0.1-0.7,0.3-1.2,0.7-1.6
			c0.3-0.4,0.7-0.8,1.3-1.2c0.6-0.3,1.2-0.5,2.1-0.5c0.8,0,1.5,0.2,2.1,0.5c0.6,0.4,1,0.8,1.3,1.2c0.4,0.4,0.6,0.9,0.7,1.6
			c0.1,0.7,0.1,1.8,0.1,3.5c0,1.7,0,2.8-0.1,3.4c-0.1,0.6-0.3,1.2-0.7,1.6c-0.3,0.4-0.7,0.8-1.3,1.1c-0.6,0.4-1.2,0.6-2.1,0.6
			c-0.8,0-1.5-0.2-2.1-0.6c-0.6-0.3-1-0.7-1.3-1.1c-0.4-0.4-0.6-1-0.7-1.6C38.6,22.7,38.5,21.5,38.5,19.9L38.5,19.9z M57,30.8h12.4
			c2.3,0,4.3-0.8,5.8-2.4c1.6-1.5,2.4-3.6,2.4-6.3c0-1.6-0.4-3.1-1.2-4.4c-0.8-1.3-2-2.2-3.6-2.6v-0.1c0.9-0.4,1.6-0.9,2.1-1.4
			c0.6-0.5,1-1,1.3-1.6c0.6-1.1,0.9-2.4,0.9-3.6c0-2.5-0.7-4.5-2.2-6c-1.5-1.5-3.6-2.2-6.5-2.3H57V30.8L57,30.8z M68.3,17.2
			c1.7,0,2.9,0.5,3.6,1.4c0.8,0.9,1.2,2,1.2,3.2c0,1.2-0.4,2.3-1.2,3.2c-0.8,0.9-2,1.4-3.6,1.4h-6.9v-9.2H68.3L68.3,17.2z M67.9,4.2
			c1.6,0,2.8,0.4,3.6,1.2c0.8,0.9,1.2,1.9,1.2,3.1c0,1.2-0.4,2.3-1.2,3.1c-0.8,0.9-2,1.3-3.6,1.3h-6.5V4.2H67.9L67.9,4.2z M82,30.8
			h4.2V8.9H82V30.8L82,30.8z M82,4.5h4.2V0.1H82V4.5L82,4.5z M91.8,30.8h4.2v-13c0-1.5,0.4-2.7,1.2-3.5c0.8-0.8,1.8-1.2,3-1.2
			c1.2,0,2.2,0.4,3,1.2c0.8,0.8,1.2,2,1.2,3.5v13h4.2V16.3c-0.1-2.5-0.8-4.4-2.2-5.7c-1.4-1.3-3-1.9-4.8-1.9c-2.3,0-4.1,0.9-5.5,2.6
			h-0.1V8.9h-4.2V30.8L91.8,30.8z M125.1,30.8h4.2V15.9c0-2.7-0.8-4.5-2.4-5.6c-1.6-1.1-3.7-1.6-6.3-1.6c-3.1-0.1-5.5,1-7.1,3.2
			l3.3,2.6c0.4-0.6,0.9-1.1,1.5-1.3c0.6-0.2,1.4-0.3,2.5-0.3c2.9-0.1,4.3,0.9,4.3,2.8v2.3h-5.8c-2.2,0-3.9,0.7-5.1,1.9
			c-1.2,1.2-1.7,2.7-1.7,4.6c0,1.9,0.7,3.5,2,4.7c1.3,1.3,3.1,1.9,5.4,1.9c1.4,0,2.6-0.2,3.4-0.5c0.8-0.3,1.4-0.9,1.8-1.6h0.1
			L125.1,30.8L125.1,30.8z M125.1,23.1c0,1.6-0.3,2.7-1,3.2c-0.7,0.5-2,0.7-3.7,0.7c-1.4,0-2.4-0.3-3-0.9c-0.6-0.5-0.9-1.1-0.9-1.9
			c0-1.7,1.2-2.6,3.6-2.6h5.1V23.1L125.1,23.1z M134.8,30.8h4.2V17.6c0-1.6,0.5-2.8,1.3-3.5c0.4-0.4,0.8-0.6,1.3-0.8
			c0.5-0.2,1-0.3,1.5-0.3c1,0,1.9,0.4,2.8,1.1l3.1-3.8c-1.3-1.1-2.7-1.7-4.4-1.7c-2.3,0-4.1,0.9-5.5,2.6h-0.1V8.9h-4.2L134.8,30.8
			L134.8,30.8z M157.6,29.9l-1.2,3.7c-0.2,0.6-0.5,1.1-1,1.4c-0.5,0.3-1,0.5-1.5,0.5h-1.2v4.1h1.4c1.3,0,2.5-0.3,3.5-0.9
			c1-0.6,1.8-1.8,2.4-3.4L169,8.9h-4.5l-5,15.3h-0.1l-5-15.3H150L157.6,29.9L157.6,29.9z"/>
	</g>
</g>
</svg>
