<svg height="70" viewBox="0 0 190 70" width="190" xmlns="http://www.w3.org/2000/svg"><path d="m70.7847798 17.111403c.5534875-.3183299 1.227205-.347622 1.8062326-.0785318 2.6995325 1.1190789 5.4677804 7.9513503 6.7537395 12.4669319 1.1034407-1.1556766 2.5020745-1.9873884 4.0443905-2.4050381 1.405142-.4253518 2.9299673-.0184782 3.9364092 1.0503636 2.2676073 2.5719182 1.7375173 8.6875864-1.6589854 18.1801243-.1843308.5204633-.7556793.7929526-1.2761426.6086219-.5204634-.1843308-.7929527-.7556793-.6086219-1.2761427 4.2603531-11.9073924 2.8565962-15.2842621 2.0516447-16.1873785-.5173421-.5073201-1.2720551-.6884512-1.9632964-.4711911-1.5875592.4726317-2.9703646 1.4647946-3.9265927 2.8173303 1.4037569 5.6248441 2.4344875 12.0546397.6773372 14.6167414-.422619.6493633-1.1145268 1.0745983-1.8847645 1.1583449-.6101568.0553234-1.2073902-.1990538-1.59027-.6773373-1.894581-2.2479743-.9129328-10.4251037.0687153-14.0277525.1377672-.4935102.3355752-.9682493.588989-1.4135734-.0981649-.3828428-.2061462-.775502-.3141275-1.1779778-1.8062326-6.5083274-4.7020948-11.4754672-5.7328253-11.4754672-.7951351.5006406-2.8762292 4.9082409 1.9142139 17.9150793.1935663.5041602-.0564515 1.0699899-.5595395 1.2663261-.493425.213396-1.0667064-.0097899-1.2859591-.5006405-4.9376903-10.7195982-7.2838295-13.8314229-8.1673128-14.7247227-.3435769 1.6491689-.549723 6.5574098 5.3401661 17.3555398.2664078.4692074.1041886 1.0654726-.3632099 1.3350415-.4560637.2834686-1.0552583.1478845-1.344858-.3043109-2.8271467-4.2407202-6.5770428-9.8557478-8.0789645-11.3871189-.1668802 1.5804536.3337604 6.2727319 5.4383309 14.017936.3198681.4472732.2165859 1.0691641-.2306873 1.3890321-.4472732.3198681-1.0691641.2165859-1.3890322-.2306872-3.2373049-4.1472502-5.0708901-5.4714639-5.8899996-5.898009l-.1126729-.0562366c-.0527607-.0251377-.1001915-.0459722-.1424451-.0632578.0785319 1.2270602 1.4332064 5.2518178 4.5253981 8.5992381 2.0712777 2.2381578 5.4874134 4.7315442 10.022628 3.8480608.3507091-.0683882.7112624.0555195.9458429.3250483.2345806.2695289.30755.6437311.1914214.9816482-.1161286.3379172-.4037124.5882116-.7544216.6565999-.750792.142523-1.5132247.2148227-2.2774237.2159626-5.4579639 0-9.2176764-3.9364092-11.0926245-6.498511-2.3166897-3.1216412-4.1916377-7.7255711-3.2983379-9.3649236.2653119-.4817539.7569576-.7959637 1.3055921-.834401 1.0026053.0606119 1.9562114.4544927 2.709349 1.119079-2.1988919-5.0064058-2.2774238-8.3636425-1.5706371-9.6986841.2300157-.4939973.712532-.8219576 1.2565097-.8540339.8344009-.0392659 1.5608206.3730263 3.9265927 3.6124653-1.9632964-5.9978704-1.1583448-8.7857512-.7558691-9.679051.2209906-.545049.7469534-.9047147 1.3350415-.9129328.019633.0003218.0400152.0006226.0612072.0011427l.0660657.0024588c.0343081.0017989.0705745.0046324.1090034.009312l.0798018.0120612c.7176547.1300312 2.1259729.977272 5.289133 6.7680307-.9620152-5.9880539.1374308-9.1489611 1.8258657-10.1306093zm63.5028212 5.8997056c.266117-.0385442.530264.0816743.675991.3076559.145726.2259817.146252.5161993.001346.7427077l-6.302182 13.6154602c-.291652.7048131-.454565 1.4562105-.481007 2.2185249v5.948788c.000011.3089206-.123375.6050476-.342735.8225638-.219359.2175162-.516517.338399-.825426.3358227h-4.024758c-.307212 0-.601842-.1220812-.819073-.339313-.217232-.2172318-.339272-.5118613-.339272-.8190735v-5.948788c-.024962-.7635034-.191388-1.5157458-.490824-2.2185249l-3.818611-8.2949271c-.319564-.6192977-.943471-1.0227824-1.639353-1.06018h-5.889889c-.30892-.0000111-.605047.123375-.822564.3427346-.217516.2193595-.338399.5165172-.335781.8254267v1.4332064c-.000022.6413434.517024 1.1627718 1.158345 1.1681613h4.348702c.639736 0 1.158344.5186086 1.158344 1.1583448v2.9842105c0 .6397362-.518608 1.1583449-1.158344 1.1583449h-4.348702c-.641321.0053894-1.158367.5268178-1.158345 1.1681613v1.9632964c-.000022.6413434.517024 1.1627719 1.158345 1.1681613h7.205298c.639736 0 1.158345.5186087 1.158345 1.1583448v2.9842105c0 .6397362-.518609 1.1583449-1.158345 1.1583449h-13.576195c-.639736 0-1.158344-.5186087-1.158344-1.1583449v-7.2052976c.000011-.3089206-.123376-.6050476-.342735-.8225638-.21936-.2175162-.516517-.3383991-.825427-.3357811h-4.8297088c-.625913.0263219-1.1196322.5416954-1.119079 1.1681614v7.2052976c0 .6397362-.5186086 1.1583865-1.1583448 1.1583865h-4.0247576c-.6413434 0-1.1627718-.5170657-1.1681613-1.1583865v-3.524117c2.139993-7.4016273 2.139993-12.368767 0-15.097749v-3.0529258c.0053895-.6413209.5268179-1.1583675 1.1681613-1.1583449h4.0247576c.6204909.0263154 1.1098202.5372965 1.1092624 1.1583449v6.6064922c.0053359.6429346.5252268 1.1628255 1.1681614 1.1681614h4.8297088c.645158 0 1.168162-.5230037 1.168162-1.1681614v-6.6064922c0-.6397362.518608-1.1583449 1.158344-1.1583449h16.648754c.686202.0268687 1.293042.4531929 1.551004 1.0896295l.981648 2.8271468c.215962.6086218.559539 1.59027.765685 2.1988919l1.050364 3.1510906c.11419.3834084.272302.7523372.471191 1.099446.191872-.3458817.346528-.7111334.461375-1.0896295l1.099446-3.1707236.785318-2.1890754.981648-2.8271468c.2565-.6333003.858603-1.0589909 1.541188-1.0896295zm-55.5809204 12.3098682c-.8049515 4.2407201-.8049515 9.4140061-.0687154 10.2876729.141845-.0517073.2603263-.1527648.3337604-.2846779.3730263-.5202736 1.2565097-2.6700831-.265045-10.002995z"/></svg>