<svg width="280" height="291" viewBox="0 0 280 291" fill="none" xmlns="http://www.w3.org/2000/svg">
<circle cx="140" cy="140" r="140" fill="#CC0000"/>
<path fill-rule="evenodd" clip-rule="evenodd" d="M99.5106 84.9951H98.9471C97.3129 84.9951 95.6786 85.0515 94.0444 85.2206L92.9738 81.8958C94.8334 81.6704 96.6366 81.5577 98.3835 81.5577L99.5106 84.9951ZM125.376 86.8547L125.151 90.6303C123.347 89.8978 121.544 89.2215 119.685 88.6017L119.91 84.8824C123.46 85.8968 124.869 86.573 125.376 86.8547ZM76.9135 160H32.3954C32.3954 160 34.0859 143.319 45.9199 123.596C57.7538 103.873 77.9278 88.9398 94.3262 87.4746C126.954 84.2062 156.257 113.453 156.257 113.453C156.257 113.453 155.299 114.129 154.285 114.974C123.428 92.158 104.146 101.707 97.2952 105.099C97.0396 105.225 96.8013 105.343 96.5803 105.451C68.4043 121.173 76.9135 160 76.9135 160ZM119.797 102.577L119.572 106.127C121.431 106.183 123.291 106.409 125.151 106.803L125.376 103.309C123.46 102.915 121.6 102.69 119.797 102.577ZM101.652 105.733L102.948 109.621C104.582 108.832 106.216 108.156 107.851 107.649L106.611 103.929C104.695 104.493 103.061 105.113 101.652 105.733ZM73.5323 87.0238L76.0681 90.9121C74.603 91.6447 73.1942 92.49 71.729 93.3916L69.1368 89.447C70.6583 88.5453 72.1235 87.7564 73.5323 87.0238ZM87.6202 116.271L90.3251 120.328C91.2831 118.919 92.4101 117.623 93.6498 116.327L91.114 112.495C89.8179 113.678 88.6345 114.974 87.6202 116.271ZM84.0137 138.022L79.4492 134.416C79.9 132.387 80.4072 130.302 81.1398 128.217L85.1971 131.429C84.6336 133.627 84.2391 135.825 84.0137 138.022ZM54.767 107.649L50.7661 104.155C49.3009 105.564 47.8921 106.972 46.596 108.381L50.9351 112.1C52.1185 110.579 53.4146 109.057 54.767 107.649ZM31.2683 130.471L37.7488 132.838C36.8471 134.923 35.6637 137.684 34.9312 139.6L28.4507 137.233C29.0142 135.712 30.1976 132.894 31.2683 130.471ZM78.6039 148.729C78.7166 151.716 78.9984 154.139 79.2802 155.83L86.0424 158.253C85.5352 156.055 85.0281 153.576 84.69 150.927L78.6039 148.729ZM133.602 133.856C133.602 146.535 123.784 147.377 123.784 147.377L136.295 159.999H120.362L111.049 150.35V159.999H100.278V119.999H121.708C121.708 119.999 133.602 121.177 133.602 133.856ZM111.049 139.186H119.633C119.633 139.186 122.101 138.232 122.101 134.586C122.101 130.939 119.689 130.041 119.689 130.041H111.049V139.186ZM160.634 119.999H149.618C141.766 119.999 139.11 127.118 139.11 130.507V159.997H150.127V152.935H160.465V159.997H171.142V130.507C171.142 121.92 163.346 119.999 160.634 119.999ZM160.408 141.523H150.07V131.75C150.07 131.75 150.07 129.547 153.516 129.547H157.301C160.352 129.547 160.408 131.75 160.408 131.75V141.523ZM176.17 119.999H187.638V159.997H176.17V119.999ZM203.739 119.999V149.658H219.161V159.997H192.327V119.999H203.739ZM222.946 159.997V149.771L241.646 149.715V144.743C234.723 144.743 237.349 144.763 238.077 144.768C237.645 144.765 236.268 144.758 232.946 144.743C228.37 144.743 222.381 141.184 222.381 134.236V130.677C222.381 123.728 228.426 119.999 232.946 119.999H250.458V130.281H232.211V135.027H241.42C246.504 135.027 251.927 138.925 251.927 145.534V149.489C251.701 157.228 245.205 159.997 241.42 159.997H222.946Z" fill="white"/>
<rect x="25" y="203" width="239" height="88" rx="2" transform="rotate(-5 25 203)" fill="#CC0000"/>
<rect x="33.6668" y="210.272" width="223" height="72" transform="rotate(-5 33.6668 210.272)" fill="white"/>
<path fill-rule="evenodd" clip-rule="evenodd" d="M75.2715 262.842L62.2558 263.981L51.0004 224.817L61.891 223.864L69.0128 248.669L71.0551 223.062L81.1491 222.179L87.6068 247.042L90.3131 221.378L101.337 220.413L97.0529 260.937L83.9707 262.081L77.9438 243.672L75.2715 262.842ZM105.706 249.406C106.223 255.316 111.423 259.679 117.333 259.162L128.556 258.18C134.466 257.663 138.768 252.536 138.251 246.626L136.624 228.032C136.107 222.122 130.914 217.825 125.003 218.343L113.847 219.319C107.937 219.836 103.574 225.035 104.091 230.945L105.706 249.406ZM118.329 248.369C117.229 248.465 116.259 247.651 116.163 246.551L114.885 231.942C114.788 230.841 115.602 229.871 116.703 229.775L124.007 229.136C125.107 229.04 126.077 229.854 126.174 230.954L127.452 245.563C127.548 246.663 126.734 247.633 125.634 247.73L118.329 248.369ZM174.944 227.775C175.722 240.213 165.712 242.058 165.712 242.058L179.307 253.143L162.979 254.797L152.844 246.298L153.436 255.765L142.398 256.883L139.945 217.641L161.906 215.416C161.906 215.416 174.167 215.336 174.944 227.775ZM152.105 235.212L160.842 234.328C160.842 234.328 163.297 233.142 163.075 229.58C162.854 226.017 160.344 225.389 160.344 225.389L151.549 226.278L152.105 235.212ZM191.897 242.263L189.313 212.72L177.946 213.715L181.431 253.556L209.489 251.101L208.588 240.803L191.897 242.263ZM233.77 248.975L212.586 250.829L209.1 210.985L230.218 209.137C236.061 208.626 241.321 212.917 241.839 218.827L243.465 237.421C243.982 243.331 239.614 248.464 233.77 248.975ZM220.655 220.68L222.282 239.274L230.848 238.525C231.948 238.428 232.762 237.458 232.666 236.358L231.388 221.749C231.292 220.649 230.322 219.835 229.221 219.931L220.655 220.68Z" fill="#CC0000"/>
</svg>
