<?xml version="1.0" encoding="UTF-8"?>
<svg id="Ebene_1" data-name="Ebene 1" xmlns="http://www.w3.org/2000/svg" version="1.1" viewBox="0 0 600 161.5">
  <defs>
    <style>
      .cls-1 {
        fill: #141210;
        stroke-width: 0px;
      }
    </style>
  </defs>
  <polygon class="cls-1" points="555.3 20.3 541.3 34.3 586 34.3 586 79 600 64.9 600 20.3 555.3 20.3"/>
  <path class="cls-1" d="M161.9,63.4v-1.4h-13.9v6.8c-4.6-5.1-10.8-8.2-18.6-8.2-17.7,0-29.4,15.6-29.4,33s11.2,33.2,29.4,33.2,14.1-3.2,18.6-8.4v6.8h14v-61.7h0ZM131,114.4c-10.6,0-16.6-9.7-16.6-20.8s6.5-20.7,16.6-20.7,17.8,8.2,17.8,20.6c0,13.2-8.5,20.9-17.8,20.9Z"/>
  <path class="cls-1" d="M297.9,63.4v-1.4h-13.9v6.8c-4.6-5.1-10.8-8.2-18.6-8.2-17.7,0-29.4,15.6-29.4,33s11.2,33.2,29.4,33.2,14.1-3.2,18.6-8.4v6.8h14v-61.7h0ZM267,114.4c-10.6,0-16.6-9.7-16.6-20.8s6.5-20.7,16.6-20.7,17.8,8.2,17.8,20.6c0,13.2-8.5,20.9-17.8,20.9Z"/>
  <path class="cls-1" d="M558.3,63.4v-1.4h-13.9v6.8c-4.6-5.1-10.8-8.2-18.6-8.2-17.7,0-29.4,15.6-29.4,33s11.2,33.2,29.4,33.2,14.1-3.2,18.6-8.4v6.8h14v-61.7h0ZM527.4,114.3c-10.6,0-16.6-9.7-16.6-20.8s6.5-20.7,16.6-20.7,17.8,8.2,17.8,20.6c0,13.2-8.5,20.9-17.8,20.9Z"/>
  <path class="cls-1" d="M14.1,106.5v-11.9c0-14.6,6.1-21.8,13.3-21.8s9.6,5.6,9.6,13.5v20.2h14v-11c0-15.3,6-22.7,13.3-22.7s9.6,5.6,9.6,13.5v20.2h14v-22.1c0-14.8-8-23.9-20.6-23.9s-14.8,3.4-19.2,10.8c-3.2-6.8-9.5-10.8-17.7-10.8s-12.4,2.5-16.6,7.9v-6.5H0v44.6h14.1Z"/>
  <rect class="cls-1" x="313.2" y="111" width="14" height="14.1"/>
  <rect class="cls-1" x="353.3" y="111" width="14" height="14.1"/>
  <rect class="cls-1" x="456.6" y="111" width="14" height="14.1"/>
  <rect class="cls-1" x="37" y="111" width="14" height="14.1"/>
  <rect class="cls-1" y="111" width="14.1" height="14.1"/>
  <rect class="cls-1" x="73.9" y="111" width="13.9" height="14.1"/>
  <g>
    <polygon class="cls-1" points="216.1 125.1 235.9 125.1 204.4 93.5 235.9 61.9 216.1 61.9 184.5 93.5 216.1 125.1"/>
    <polygon class="cls-1" points="191.3 47.1 177.3 47.1 177.3 125.1 191.3 125.1 191.3 104.6 191.3 104.5 191.3 86.1 191.3 86.1 191.3 47.1"/>
  </g>
  <path class="cls-1" d="M427.3,47v21.7c-4.6-5.1-10.8-8.2-18.6-8.2-18.1,0-29.4,16-29.4,33.2s11.6,33,29.4,33,14.7-3.5,19.2-9l1.2,7.3h12.1V47h-14ZM410.4,114.3c-10.3,0-16.6-9.2-16.6-20.7s6.2-20.8,16.6-20.8,17.8,7.7,17.8,20.8c0,12.5-7.9,20.7-17.8,20.7Z"/>
  <path class="cls-1" d="M470.7,106.5v-9.3c0-14.3,7-24.3,19.7-24.3v-12.4c-9.4,0-15.6,4-19.7,9.9v-8.5h-14v44.5h14Z"/>
  <path class="cls-1" d="M327.3,106.5v-10.4c0-14.6,6.2-23.2,16.3-23.2s9.7,5.7,9.7,13.6v20h14v-21.8c0-14.8-8.2-24-20.8-24s-14.7,3-19.2,8.8v-7.1h-2s0,0,0,0h-12v44.3s14,0,14,0Z"/>
</svg>