<svg fill="none" height="70" viewBox="0 0 190 70" width="190" xmlns="http://www.w3.org/2000/svg"><path d="m63.7009 24.4058c.2119 0 .3943.0781.5414.2344.153.1562.2295.3425.2295.5528v2.0731c0 .2164-.0765.4027-.2295.5529-.153.1562-.3354.2343-.5414.2343h-9.1278v5.9611h8.5569c.2119 0 .3943.0781.5415.2344.1471.1562.2295.3425.2295.5528v2.0731c0 .2164-.0765.4027-.2295.5529-.153.1562-.3355.2343-.5415.2343h-8.5569v6.6882c0 .2163-.0765.4026-.2295.5528-.153.1563-.3355.2344-.5415.2344h-2.3187c-.2119 0-.3943-.0781-.5414-.2344-.153-.1562-.2295-.3425-.2295-.5528v-19.1511c0-.2163.0765-.4026.2295-.5528.153-.1563.3354-.2344.5414-.2344h12.2175zm3.4192 6.3396c0-.2163.0765-.4026.2296-.5528.153-.1562.3354-.2344.5414-.2344h2.1775c.2118 0 .3943.0782.5414.2344s.2295.3425.2295.5528v7.4213c0 1.1658.2413 2.1032.7298 2.8063.4826.703 1.2829 1.0516 2.3893 1.0516 1.0123 0 1.7832-.3486 2.3188-1.0516.5355-.7031.8003-1.6345.8003-2.8063v-7.4213c0-.2163.0765-.4026.2296-.5528.153-.1562.3354-.2344.5414-.2344h2.1716c.2119 0 .3943.0782.5414.2344s.2295.3425.2295.5528v13.6167c0 .2164-.0765.4026-.2295.5529-.153.1562-.3354.2343-.5414.2343h-2.1716c-.2119 0-.3943-.0781-.5414-.2343-.1531-.1563-.2296-.3426-.2296-.5529v-.673c-.4414.4507-.9828.8533-1.6301 1.2138-.6474.3606-1.4301.5409-2.3482.5409-1.1652 0-2.1245-.1863-2.8896-.5529-.765-.3725-1.3712-.8653-1.8303-1.4902-.459-.625-.7827-1.3461-.971-2.1753-.1883-.8293-.2884-1.7006-.2884-2.614zm20.5037 13.6107c0 .2163-.0765.4026-.2295.5529-.153.1562-.3354.2343-.5414.2343h-2.1775c-.2119 0-.3943-.0781-.5414-.2343-.153-.1563-.2295-.3426-.2295-.5529v-19.1571c0-.2163.0765-.4026.2295-.5528.153-.1563.3354-.2344.5414-.2344h2.1775c.2119 0 .3884.0781.5414.2344.153.1562.2295.3425.2295.5528v19.1631zm6.8915 0c0 .2163-.0765.4026-.2295.5529-.153.1562-.3355.2343-.5414.2343h-2.1717c-.2118 0-.3943-.0781-.5414-.2343-.153-.1563-.2295-.3426-.2295-.5529v-19.1571c0-.2163.0765-.4026.2295-.5528.153-.1563.3355-.2344.5414-.2344h2.1717c.2118 0 .3943.0781.5414.2344.153.1562.2295.3425.2295.5528v19.1631zm20.2977-7.8299c-.035.2945-.059.631-.059 1.0216s.018.7331.059 1.0215c.059.6009.188 1.1177.4 1.5504.212.4266.471.7752.789 1.0396.312.2644.659.4566 1.041.5828.383.1262.771.1863 1.172.1863.476 0 .877-.036 1.2-.1141.324-.0782.6-.1863.83-.3366.229-.1502.424-.3124.588-.4927.165-.1863.324-.3966.471-.631.112-.1742.247-.3485.4-.5228.153-.1742.336-.2644.542-.2644h2.177c.212 0 .395.0782.559.2344.159.1562.236.3425.218.5528-.017.4087-.159.9074-.429 1.4903-.265.5829-.683 1.1477-1.242 1.6765-.565.5349-1.283.9916-2.16 1.3581-.877.3666-1.924.5528-3.148.5528-1.048 0-1.996-.1802-2.831-.5408-.842-.3605-1.572-.8473-2.189-1.4602-.618-.6129-1.107-1.322-1.46-2.1332-.353-.8113-.565-1.6586-.647-2.5539-.036-.3485-.059-.7391-.059-1.1658 0-.4266.017-.8292.059-1.1958.058-.8954.264-1.7547.629-2.5719.365-.8173.848-1.5323 1.46-2.1453.612-.6129 1.342-1.0996 2.189-1.4602.848-.3605 1.795-.5408 2.849-.5408 1.218 0 2.265.1863 3.148.5528.877.3726 1.601.8233 2.16 1.3581.565.5348.977 1.0937 1.242 1.6765.264.5829.406 1.0817.429 1.4903.018.2163-.053.4026-.218.5528-.164.1563-.347.2344-.559.2344h-2.177c-.212 0-.389-.0841-.542-.2644-.153-.1743-.288-.3485-.4-.5228-.153-.2344-.312-.4447-.471-.631-.158-.1862-.359-.3485-.588-.4927-.23-.1442-.506-.2584-.83-.3365-.323-.0781-.724-.1142-1.2-.1142-.401 0-.795.0661-1.172.1863-.382.1262-.729.3245-1.041.5829-.318.2644-.577.6069-.789 1.0396-.212.4266-.341.9434-.4 1.5503zm19.692-3.0646c-1.142 0-1.972.2584-2.478.7751-.506.5168-.759 1.3581-.759 2.5299v7.5955c0 .2164-.077.4026-.23.5529-.153.1562-.335.2343-.541.2343h-2.178c-.212 0-.388-.0781-.541-.2343-.153-.1563-.23-.3426-.23-.5529v-13.6167c0-.2163.077-.4026.23-.5528.153-.1562.335-.2344.541-.2344h2.178c.212 0 .394.0782.541.2344.153.1562.23.3425.23.5528v.6731c.494-.4688 1.024-.8293 1.589-1.0817s1.3-.3786 2.218-.3786h.212c.212 0 .389.0782.542.2344s.229.3425.229.5528v1.929c0 .2163-.076.4026-.229.5528-.153.1562-.336.2344-.542.2344zm7.232-9.0558c.212 0 .395.0781.542.2344.153.1562.229.3425.229.5528v2.2775c0 .2163-.076.4026-.229.5528-.153.1562-.336.2344-.542.2344h-2.46c-.211 0-.394-.0782-.541-.2344-.153-.1562-.23-.3425-.23-.5528v-2.2775c0-.2163.077-.4026.23-.5528.153-.1563.335-.2344.541-.2344zm.63 19.9503c0 .2163-.076.4026-.229.5529-.153.1562-.336.2343-.542.2343h-2.177c-.212 0-.395-.0781-.542-.2343-.153-.1563-.229-.3426-.229-.5529v-13.6107c0-.2163.076-.4026.229-.5528.153-.1562.336-.2344.542-.2344h2.177c.212 0 .394.0782.542.2344.147.1562.229.3425.229.5528zm11.176 1.0817c-.589 0-1.124-.0601-1.589-.1743s-.877-.2644-1.23-.4387c-.353-.1742-.653-.3665-.9-.5708-.248-.2044-.448-.3966-.601-.5709v6.2194c0 .2164-.076.4027-.229.5529-.153.1562-.336.2343-.542.2343h-2.177c-.212 0-.395-.0781-.542-.2343-.153-.1563-.229-.3425-.229-.5529v-19.1571c0-.2163.076-.4026.229-.5528.153-.1562.336-.2344.542-.2344h2.177c.212 0 .389.0782.542.2344s.229.3425.229.5528v.6731c.153-.1743.353-.3666.601-.5709.247-.2043.547-.3966.9-.5709.353-.1742.765-.3245 1.23-.4386.471-.1142.995-.1743 1.589-.1743.953 0 1.818.1863 2.589.5709.771.3785 1.43.8893 1.972 1.5203.541.6309.971 1.364 1.289 2.1933.317.8293.488 1.6886.529 2.5839.018.2945.03.631.03 1.0216s-.006.7331-.03 1.0215c-.035.8954-.217 1.7547-.529 2.584-.318.8292-.742 1.5563-1.289 2.1933-.542.6309-1.201 1.1417-1.972 1.5203s-1.636.5709-2.589.5709zm2.66-7.0668c.059-.5468.059-1.0876 0-1.6345-.112-1.2679-.494-2.1753-1.142-2.7281-.647-.5528-1.442-.8293-2.371-.8293-.93 0-1.719.2825-2.36.8473-.642.5649-1.007 1.3761-1.101 2.4217-.035.2944-.059.661-.059 1.1117s.018.8172.059 1.1117c.094 1.0095.465 1.8147 1.101 2.3916.641.5829 1.424.8773 2.36.8773.935 0 1.724-.2764 2.371-.8292.648-.5529 1.03-1.4662 1.142-2.7282zm6.262-8.4789v-4.6931c0-.2163.076-.4026.229-.5528.153-.1563.336-.2344.542-.2344h2.171c.212 0 .395.0781.542.2344.153.1562.229.3425.229.5528v4.7592h3.69c.212 0 .394.0782.542.2344.153.1562.229.3425.229.5528v1.929c0 .2163-.076.4026-.229.5528-.153.1562-.336.2344-.542.2344h-3.69v6.1894c0 .6009.159 1.0876.471 1.4482.318.3605.9.5408 1.76.5408h1.748c.211 0 .394.0781.541.2343.153.1563.23.3426.23.5529v1.9289c0 .2163-.077.4026-.23.5529-.153.1562-.335.2343-.541.2343h-2.119c-1.795 0-3.172-.4447-4.137-1.328-.96-.8894-1.442-2.2414-1.442-4.0742v-9.849zm-56.821 10.9186c0-.2163-.071-.3906-.2-.5288-.135-.1382-.371-.2644-.706-.3786-.336-.1141-.783-.2343-1.336-.3485s-1.265-.2704-2.125-.4687c-.841-.1923-1.5416-.4387-2.0948-.7331-.5591-.2945-1.0005-.637-1.3359-1.0276-.3355-.3906-.5709-.8352-.7062-1.334-.1354-.4988-.2001-1.0396-.2001-1.6285s.1353-1.1597.406-1.7306c.2649-.5649.6533-1.0696 1.1594-1.5083s1.1241-.7992 1.8536-1.0696c.73-.2704 1.56-.4146 2.501-.4146.942 0 1.772.1081 2.513.3244.736.2164 1.366.4988 1.878.8473.518.3486.918.7572 1.206 1.2199.288.4567.447.9194.489 1.3941.017.2163-.053.4026-.218.5589-.159.1562-.347.2343-.559.2343h-2.207c-.289 0-.5-.0541-.648-.1622-.141-.1082-.3-.2284-.476-.3666-.171-.1382-.4-.2584-.689-.3666-.288-.1081-.718-.1622-1.289-.1622-.57 0-1.082.0841-1.524.2644-.441.1803-.659.4928-.659.9374 0 .2164.053.3966.159.5408.106.1503.306.2765.6.3967.294.1141.706.2403 1.236.3665.524.1262 1.207.2764 2.054.4567 1.701.3726 2.901.9555 3.602 1.7427.7.7932 1.047 1.7726 1.047 2.9444 0 .5829-.147 1.1538-.429 1.7126-.289.5589-.707 1.0576-1.248 1.4963-.547.4387-1.218.7932-2.013 1.0576-.794.2644-1.689.3966-2.683.3966-.995 0-1.907-.1202-2.684-.3665-.7768-.2464-1.4301-.5649-1.9656-.9555-.5356-.3906-.9475-.8293-1.2359-1.322-.2884-.4867-.4414-.9675-.459-1.4362-.0177-.2163.0529-.4026.2177-.5588.1648-.1563.3473-.2344.5591-.2344h2.2069c.2884 0 .4998.0721.6478.2043.147.1382.306.2945.488.4687.182.1743.436.3305.759.4687.324.1383.812.2044 1.466.2044.288 0 .582-.0181.888-.0601.306-.0421.589-.1022.848-.1923.259-.0902.471-.2043.647-.3486.171-.1442.259-.3305.259-.5408zm69.356-15.1009c0 1.0816-.689 1.7967-1.73 1.7967-1.042 0-1.73-.7211-1.73-1.7967 0-1.0757.694-1.7968 1.73-1.7968s1.73.7211 1.73 1.7968zm-3.137 0c0 .8833.565 1.4782 1.413 1.4782.847 0 1.418-.5949 1.418-1.4782 0-.8834-.565-1.4783-1.418-1.4783-.854 0-1.413.5949-1.413 1.4783zm1.513-.9074c.382 0 .6.2043.6.5408 0 .2464-.153.3966-.341.4627-.042.012-.042.0241 0 .0421.129.0781.2.1743.247.3065l.17.3966c.018.042.001.0661-.041.0661h-.229s-.047-.0121-.065-.0421l-.118-.2945c-.1-.2223-.2-.3365-.476-.3365h-.159v.619c0 .036-.018.0541-.053.0541h-.218c-.035 0-.053-.0181-.053-.0541v-1.7006c0-.0361.018-.0541.053-.0541h.689zm-.418.8473h.306c.247 0 .4-.0901.4-.2764 0-.1743-.124-.2464-.288-.2464h-.412v.5288z" fill="#36485c"/><path d="m39.1541 23.7268c-.2236-.2284-.5238-.3726-.8416-.3906-4.9317-.3125-8.1273 2.2354-9.8222 4.633-1.7008-2.3916-4.8964-4.9455-9.834-4.633-.3237.018-.6238.1622-.8475.3906-3.1661 3.2389-2.8189 8.3406-2.7777 8.8394.0176.3605.2236 2.8784 1.8361 5.7628 1.5419 2.7642 4.7316 6.4357 11.1641 8.2805.0294.0121.0706.0181.1.0301.0236.006.0471.012.0765.018s.0648.012.1001.018c.0588.0121.1177.0121.1706.0121.053 0 .1119 0 .1648-.0121.0294 0 .0589-.012.0883-.012s.053-.012.0824-.018c.0353-.012.0765-.018.1118-.0301 11.8879-3.4131 12.9237-13.1059 12.9943-14.0132.0294-.2945.4649-5.5525-2.7778-8.8635zm-11.9762 11.2791-.0117-.012-3.5193-3.8759c-.4885-.5408-1.3242-.5769-1.8538-.0721-.5297.5048-.565 1.352-.0707 1.8929l5.4438 5.9911.0117.012v4.585h-.0117c-9.0101-3.3592-9.4986-10.7924-9.5163-11.1169 0-.0241 0-.0481 0-.0721 0-.0421-.3413-3.8699 1.6891-6.3517h.1589c5.1789 0 7.2386 3.9961 7.6741 4.9996 0 .006.0059.012.0118.024v3.9901zm12.1469-2.668v.0661c-.0177.3305-.5061 7.7577-9.5221 11.1108 0 0-.0059 0-.0118 0v-4.5849l.0118-.0121 5.4437-5.9911c.4885-.5408.459-1.3881-.0706-1.8928-.5297-.4988-1.3595-.4687-1.8538.0721l-3.5193 3.8759-.0118.012v-3.9901s.0059-.018.0118-.03c.4355-.9915 2.5188-4.9936 7.68-4.9936h.1531c2.0186 2.4697 1.6949 6.3096 1.6949 6.3516z" fill="#88b04b"/></svg>