<?xml version="1.0" encoding="UTF-8"?>
<svg id="svg8" xmlns="http://www.w3.org/2000/svg" width="442.5" height="126" viewBox="0 0 442.5 126">
  <defs>
    <style>
      .cls-1 {
        fill-rule: evenodd;
      }
    </style>
  </defs>
  <g id="layer1">
    <g id="g992">
      <path id="path960" d="M295.7,36.64c-7.78,0-17.07,2.74-25.97,12.28-8.9-9.54-18.26-12.28-25.97-12.28,0,0-29.73-2.22-29.73,32.2v55.72h21.55v-52.58c0-15.42,10.41-15.74,12.46-15.28,0,0,3.76.2,7.18,3.72,0,0-6.86,8.88-7.38,20.05,0,0-1.52,28.94,21.88,28.94s21.88-28.94,21.88-28.94c-.53-11.17-7.38-20.05-7.38-20.05,3.43-3.53,7.18-3.72,7.18-3.72,1.98-.46,12.46-.13,12.46,15.28v52.58h21.55v-55.72c-.07-34.42-29.73-32.2-29.73-32.2ZM269.67,93.73c-4.61,0-6.13-5.75-6.2-11.23-.13-9.54,6.13-16.4,6.2-16.53.13.13,6.33,6.99,6.2,16.53,0,5.49-1.58,11.23-6.2,11.23Z"/>
      <path id="path962" d="M201.9,38.08h-21.55v86.55h21.55V38.08Z"/>
      <path id="path964" d="M191.16.59c-7.18,0-13.12,5.75-13.12,12.8s5.87,13,13.12,13,12.92-5.81,12.92-13-5.87-12.8-12.92-12.8Z"/>
      <path id="path966" d="M112.12,43.89V0h-21.36v124.63h21.36v-62.38c35.4-17.05,34.08,9.93,34.08,9.93v52.45h21.42v-52.45c-.07-50.69-44.76-33.97-55.5-28.28Z"/>
      <path id="path968" d="M355.03,85.57c11.47,3.98,26.04,3.66,26.04,3.66,34.54-.2,33.55-25.08,33.55-25.08-.86-28.02-34.08-27.5-34.08-27.5-27.49,0-46.74,18.68-46.74,45.4s18.85,43.96,47.99,43.96c12.39,0,24.19-3.4,32.43-9.34v-20.58c-8.64,7.38-18.98,11.3-29.93,11.3.07,0-29.86,1.5-29.27-21.82ZM357.66,67.34c3.63-9.08,11.14-13.85,21.82-13.85,8.77,0,13.84,3.66,13.84,9.47,0,8.16-9.29,8.88-18,8.88s-13.84-.91-16.22-1.5l-2.31-.52.86-2.48Z"/>
      <path id="path970" d="M46.54,126c15.16,0,25.91-5.68,32.3-10.45v-20.71c-9.43,7.38-20.5,11.63-30.32,11.63-15.69,0-26.7-10.71-26.7-26.13s10.02-24.82,24.32-24.82c4.68,0,8.7,1.18,12.99,2.35,4.42,1.24,9.03,2.61,14.5,2.61,1.71,0,3.43-.13,5.14-.39v-19.73c-1.45.13-2.83.26-4.28.26-4.94,0-9.43-.91-14.11-1.89-4.94-1.05-10.02-2.09-16.02-2.09-11.93,0-23,4.18-31.11,11.89C4.61,56.7,0,68.06,0,81.32c0,26.32,19.12,44.68,46.54,44.68Z"/>
      <path id="path972" d="M440,47.23c0-1.29-.21-2.48-.63-3.56-.42-1.08-1.01-2.01-1.75-2.79-.75-.78-1.62-1.38-2.62-1.79-1-.44-2.07-.65-3.22-.65s-2.26.22-3.28.65c-1,.42-1.87,1.02-2.62,1.79-.75.78-1.33,1.71-1.75,2.79-.42,1.08-.63,2.27-.63,3.56,0,1.21.19,2.35.57,3.42.38,1.06.93,1.99,1.64,2.79.73.8,1.6,1.43,2.61,1.91,1.02.46,2.16.68,3.45.68,1.15,0,2.22-.21,3.22-.63,1-.44,1.87-1.04,2.62-1.82.75-.78,1.33-1.7,1.75-2.76.42-1.08.63-2.28.63-3.59ZM442.3,47.23c0,1.59-.29,3.05-.86,4.36-.56,1.31-1.32,2.43-2.3,3.36-.96.93-2.08,1.65-3.36,2.16-1.26.51-2.6.77-3.99.77-1.55,0-2.98-.27-4.28-.8-1.28-.55-2.39-1.3-3.33-2.25-.92-.95-1.65-2.07-2.18-3.36-.52-1.31-.78-2.72-.78-4.24,0-1.59.28-3.05.83-4.36.57-1.31,1.34-2.43,2.3-3.36.98-.93,2.11-1.65,3.39-2.16,1.28-.51,2.63-.77,4.05-.77s2.73.26,3.99.77c1.28.51,2.4,1.23,3.36,2.16.98.93,1.74,2.05,2.3,3.36.57,1.31.86,2.76.86,4.36h0ZM431.84,46.63c.36,0,.71,0,1.03-.03.34-.04.64-.12.89-.26.25-.13.45-.31.6-.54.15-.25.23-.59.23-1.03,0-.36-.09-.65-.26-.85-.15-.21-.35-.37-.6-.48s-.53-.18-.83-.2c-.31-.04-.6-.06-.89-.06h-2.36v3.45h2.18ZM429.66,53.32h-1.95v-11.79h4.51c1.44,0,2.52.27,3.25.8.73.53,1.09,1.4,1.09,2.59,0,1.06-.3,1.84-.89,2.34s-1.33.79-2.21.88l3.33,5.18h-2.21l-3.07-5.04h-1.84v5.04Z"/>
      <path id="path974" class="cls-1" d="M434.92,39.26c-.97-.42-2.02-.64-3.14-.64s-2.21.21-3.2.64h0c-.97.41-1.82.99-2.55,1.75-.73.76-1.3,1.67-1.71,2.73-.41,1.06-.62,2.22-.62,3.49,0,1.19.19,2.31.56,3.35.38,1.04.91,1.95,1.6,2.73.71.78,1.56,1.4,2.55,1.86.99.44,2.11.67,3.37.67,1.12,0,2.17-.2,3.14-.61.97-.43,1.82-1.02,2.55-1.78.73-.76,1.3-1.66,1.71-2.7.41-1.06.62-2.23.62-3.52s-.21-2.43-.62-3.49c-.41-1.06-.98-1.97-1.71-2.73-.73-.76-1.58-1.34-2.55-1.75h0ZM435,55.4c-1,.42-2.07.63-3.22.63-1.28,0-2.43-.23-3.45-.68-1.02-.47-1.89-1.11-2.61-1.91-.71-.8-1.26-1.73-1.64-2.79-.38-1.06-.57-2.2-.57-3.42,0-1.29.21-2.48.63-3.56.42-1.08,1.01-2.01,1.75-2.79.75-.78,1.62-1.38,2.62-1.79,1.02-.44,2.11-.65,3.28-.65s2.22.22,3.22.65c1,.42,1.87,1.02,2.62,1.79.75.78,1.33,1.71,1.75,2.79.42,1.08.63,2.27.63,3.56s-.21,2.51-.63,3.59c-.42,1.06-1.01,1.98-1.75,2.76-.75.78-1.62,1.39-2.62,1.82ZM427.42,57.26c-1.31-.56-2.44-1.32-3.4-2.29h0c-.94-.97-1.68-2.11-2.22-3.42h0c-.53-1.34-.79-2.78-.79-4.32,0-1.62.28-3.1.85-4.43h0c.58-1.33,1.36-2.48,2.34-3.42h0c1-.95,2.15-1.68,3.45-2.21,1.31-.52,2.68-.78,4.13-.78s2.78.26,4.07.78c1.31.52,2.45,1.26,3.43,2.21,1,.95,1.78,2.09,2.34,3.42.59,1.34.88,2.82.88,4.43s-.29,3.1-.88,4.43c-.57,1.33-1.35,2.47-2.34,3.42-.98.95-2.12,1.68-3.43,2.21-1.29.52-2.65.78-4.07.78-1.58,0-3.03-.27-4.36-.81h0ZM435.78,57.11c1.28-.51,2.4-1.23,3.36-2.16.98-.93,1.74-2.05,2.3-3.36.57-1.31.86-2.76.86-4.36s-.29-3.05-.86-4.36c-.56-1.31-1.32-2.43-2.3-3.36-.96-.93-2.08-1.65-3.36-2.16-1.26-.51-2.6-.77-3.99-.77s-2.77.26-4.05.77c-1.28.51-2.41,1.23-3.39,2.16-.96.93-1.72,2.05-2.3,3.36-.56,1.31-.83,2.76-.83,4.36s.26,2.93.78,4.24c.54,1.29,1.26,2.41,2.18,3.36.94.95,2.05,1.7,3.33,2.25,1.3.53,2.73.8,4.28.8,1.4,0,2.73-.26,3.99-.77ZM434.19,44.05h0c-.13-.18-.31-.33-.53-.43-.22-.1-.48-.16-.76-.18h0s0,0,0,0c-.3-.04-.59-.06-.87-.06h-2.16v3.05h1.99c.36,0,.7,0,1.02-.03.32-.04.59-.12.81-.23.22-.12.4-.28.53-.47.13-.2.2-.5.2-.92,0-.33-.08-.57-.21-.73h0ZM434.37,45.81c-.15.23-.35.41-.6.54-.25.13-.55.22-.89.26-.33.02-.67.03-1.03.03h-2.18v-3.45h2.36c.29,0,.58.02.89.06.31.02.58.09.83.2s.45.28.6.48c.17.21.26.49.26.85,0,.44-.08.78-.23,1.03h0ZM429.86,53.52h-2.35v-12.18h4.71c1.46,0,2.59.27,3.37.84.79.58,1.17,1.51,1.17,2.75,0,1.1-.31,1.94-.96,2.49-.56.46-1.23.76-2.01.89l3.36,5.23h-2.68l-3.08-5.04h-1.53v5.04ZM429.66,48.28h1.84l3.07,5.04h2.21l-3.33-5.18c.07,0,.15-.02.22-.03.79-.12,1.45-.4,2-.85.59-.49.89-1.27.89-2.34,0-1.2-.36-2.06-1.09-2.59-.73-.53-1.81-.8-3.25-.8h-4.51v11.79h1.95v-5.04Z"/>
    </g>
  </g>
</svg>