<svg fill="none" height="140" viewBox="0 0 380 140" width="380" xmlns="http://www.w3.org/2000/svg"><path d="m140.059 55.4774c-1.559-.0044-3.068.5394-4.26 1.535s-1.989 2.3782-2.249 3.902l-11.288-28.9144h-68.2264l-11.376 28.9144c-.215-1.225-.7782-2.3634-1.6236-3.2816s-1.9376-1.578-3.1482-1.9014c-1.2106-.3236-2.4892-.2974-3.6854.075-1.1962.3726-2.26 1.0762-3.0666 2.0282-.8066.9518-1.3224 2.1124-1.4864 3.345s.0302 2.486.5602 3.6128c.5298 1.1268 1.3734 2.08 2.431 2.7476 1.0578.6676 2.2856 1.0218 3.5394 1.0208v33.2172l15.642-11.2516h-.3372c-1.873.0024-3.6978-.588-5.2088-1.6854-1.5112-1.0974-2.6294-2.6446-3.1922-4.416-.5628-1.7716-.5406-3.675.0632-5.433.604-1.7582 1.758-3.2792 3.2942-4.3418s3.3742-1.611 5.2466-1.5658c1.8724.0454 3.6814.6822 5.1634 1.8178 1.4822 1.1358 2.56 2.7108 3.0766 4.496.5166 1.7854.445 3.6876-.2042 5.4296l.1612-.1162 47.2772 17.8954 32.926-18.8986v-15.1476c1.75 0 3.427-.6892 4.665-1.916 1.237-1.2268 1.932-2.8908 1.932-4.6256 0-1.735-.695-3.399-1.932-4.6258-1.238-1.2268-2.915-1.916-4.665-1.916zm-48.3774 6.5418h-43.158l9.5288-24.2044h60.1926l9.441 24.2044h-5.204c0-.0872 0-.1746 0-.2618 0-2.0044-.398-3.9892-1.172-5.8412s-1.907-3.5346-3.337-4.952c-1.429-1.4174-3.126-2.5418-4.993-3.3088-1.868-.767-3.87-1.162-5.891-1.162s-4.023.395-5.891 1.162c-1.867.767-3.564 1.8914-4.9932 3.3088-1.4294 1.4174-2.5632 3.1-3.3368 4.952s-1.1716 3.8368-1.1716 5.8412c.0146.0872.0292.1746.0292.2618zm5.131 0c0-.0872 0-.1746 0-.2618 0-2.6988 1.081-5.287 3.0056-7.1954 1.9248-1.9084 4.5348-2.9806 7.2558-2.9806 2.722 0 5.332 1.0722 7.257 2.9806 1.924 1.9084 3.005 4.4966 3.005 7.1954v.2618zm27.9414 28.5944c-1.74 0-3.44-.5116-4.887-1.47-1.446-.9584-2.574-2.3206-3.239-3.9144-.666-1.5938-.84-3.3476-.501-5.0394.339-1.692 1.177-3.2462 2.407-4.466s2.798-2.0506 4.504-2.3872c1.706-.3364 3.475-.1638 5.082.4964s2.981 1.7782 3.947 3.2126c.967 1.4342 1.483 3.1206 1.483 4.8458 0 2.3132-.927 4.5318-2.577 6.1676-1.649 1.6356-3.886 2.5546-6.219 2.5546z" fill="#000"/><path d="m157.621 73.1982-5.483 13.4032-2.184-3.6198-42.85 25.0184-47.2486-18.5638-31.8554 18.5638 31.8554-28.9434 47.2486 18.5348 38.13-22.4016-2.126-3.547z" fill="#262c2d"/><path clip-rule="evenodd" d="m310.624 54.8668c.832-.0314 1.636-.3054 2.312-.7876s1.194-1.1514 1.49-1.9238c.294-.7724.352-1.6138.168-2.419-.186-.8054-.606-1.5386-1.208-2.1086-.602-.5698-1.362-.9508-2.182-1.0954s-1.664-.0464-2.428.2824-1.414.8736-1.866 1.5662c-.454.6926-.692 1.5024-.684 2.3282.008.5612.128 1.1152.354 1.6296s.554.979.964 1.3662.892.6894 1.422.889c.528.1996 1.092.2922 1.658.2728zm-134.033-7.0214v43.1316h7.476v-17.5462h18.383v-7.0214h-18.383v-11.5426h21.565v-7.0214zm32.193 0v43.1316h7.476v-43.1316zm141.216 27.2426c0 9.58-6.89 16.5432-16.286 16.5432-9.398 0-16.23-6.9632-16.23-16.5432s6.89-16.4706 16.23-16.4706c9.338 0 16.286 6.9488 16.286 16.4706zm-7.536 0c0-6.4544-4.118-9.769-8.794-9.769-4.678 0-8.796 3.3146-8.796 9.769s4.178 9.8998 8.796 9.8998c4.616 0 8.794-3.3872 8.794-9.8998zm-35.548-15.7h7.402v31.589h-7.402zm-53.758 15.5836c0-9.8416 7.344-16.3542 15.26-16.3542 9.618 0 15.29 6.3092 15.29 16.1216.022.804-.042 1.608-.19 2.3988h-22.986c.058 2.1964.992 4.2808 2.596 5.796 1.604 1.515 3.75 2.3374 5.966 2.2866 1.346.0952 2.694-.1688 3.902-.7644 1.21-.5956 2.236-1.5012 2.972-2.6228h7.33c-.938 2.9492-2.836 5.507-5.394 7.2744-2.56 1.7672-5.638 2.6444-8.752 2.4946-8.502 0-16.038-6.1056-15.994-16.6306zm10.092-8.2022c-1.41 1.2794-2.276 3.0422-2.424 4.9314h15.318c-.132-3.6342-2.58-6.8906-7.726-6.8906-1.91-.0204-3.758.6798-5.168 1.9592zm-28.548-8.152c-7.916 0-15.262 6.5126-15.262 16.3542 0 10.5394 7.536 16.6596 16.038 16.6596 3.116.1498 6.192-.7274 8.752-2.4946s4.456-4.3252 5.396-7.2744h-7.33c-.738 1.1216-1.764 2.0272-2.972 2.6228-1.21.5956-2.558.8596-3.904.7644-2.216.0508-4.36-.7716-5.966-2.2866-1.604-1.5152-2.538-3.5994-2.596-5.796h22.928c.148-.7906.212-1.5946.19-2.3986 0-9.8416-5.658-16.1508-15.274-16.1508zm-7.594 13.0834c.148-1.8892 1.016-3.652 2.426-4.9314s3.256-1.9796 5.168-1.9592c5.146 0 7.594 3.2564 7.726 6.8906zm74.296 13.0834c.79-.0202 1.58-.098 2.36-.2326l.044 6.1928c-1.42.4516-2.908.658-4.398.6106-5.792 0-9.398-3.4452-9.398-9.2602v-16.456h-4.734v-6.2508h4.72v-10.176h7.418v10.176h6.348v6.2508h-6.348v15.2494c0 2.7476 1.216 3.896 3.988 3.896z" fill="#000" fill-rule="evenodd"/></svg>