

<svg fill="#000" height="70" width="190" viewBox="0 0 267.55 68.21" xmlns="http://www.w3.org/2000/svg"><path d="m124.12 27.28c0-.33 0-1.11 0-1.45-.56-7.8-7.79-12.62-14.84-12.62h-17.18v41.17h4.65v-13.08h9.08a40.41 40.41 0 0 0 4.58-.17l9.89 13.25h5.91l-10.81-14.38a13.76 13.76 0 0 0 8.72-12.72zm-27.37 9.84v-19.61h12.14c6.64 0 10.53 4.78 10.53 9.83 0 5.41-4.42 9.78-10.59 9.78z" fill="#000"/><path d="m143.67 23.33c-8.41 0-14.59 7.06-14.59 15.88 0 9.47 6.82 15.88 15.17 15.88a15.7 15.7 0 0 0 12.53-5.71l-2.78-2.53a12.58 12.58 0 0 1 -9.59 4.3c-5.35 0-10.06-3.71-10.7-10.12h24.11c.06-.7.06-1.17.06-1.59-.04-8.94-5.22-16.11-14.21-16.11zm-10 14.06c.64-5.89 4.64-10.24 9.88-10.24 6 0 9.17 4.71 9.7 10.24z" fill="#000"/><path d="m178.89 23.33c-5.44 0-9.18 2.52-9.76 4.23h-.41l-.62-3.56h-3.5v30.4h4.53v-17.4c0-5.7 3.88-9.52 9.12-9.52s8.41 3.52 8.41 9.17v17.73h4.52v-18.88c0-7.23-4.4-12.17-12.29-12.17z" fill="#000"/><path d="m220.07 41.38c0 5.71-3.88 9.53-9.11 9.53s-8.41-3.53-8.41-9.17v-17.74h-4.55v18.85c0 7.24 4.4 12.18 12.29 12.18 5.45 0 9.18-2.52 9.76-4.23h.42l.61 3.59h3.5v-30.39h-4.53z" fill="#000"/><path d="m246.43 23.33a15.74 15.74 0 0 0 -15.88 15.88 15.61 15.61 0 0 0 15.77 15.88 15.88 15.88 0 0 0 .11-31.76zm0 27.7c-6.43-.03-11.23-5.29-11.23-11.82s4.53-11.88 11.12-11.88c6.41 0 11.29 5.35 11.29 11.88s-4.61 11.79-11.18 11.79z" fill="#000"/><g fill="#000"><path d="m59 11.65a2.88 2.88 0 0 1 -.59-.06 3.62 3.62 0 0 1 -.56-.17 3.25 3.25 0 0 1 -.52-.28 2.74 2.74 0 0 1 -.83-.83 3.15 3.15 0 0 1 -.28-.51 3.62 3.62 0 0 1 -.22-.56 3.51 3.51 0 0 1 0-1.18 3.62 3.62 0 0 1 .17-.56 3.74 3.74 0 0 1 .28-.5 3.16 3.16 0 0 1 .37-.45 2.82 2.82 0 0 1 .46-.38 3.2 3.2 0 0 1 .52-.27 2.78 2.78 0 0 1 .56-.17 2.88 2.88 0 0 1 1.17 0 2.78 2.78 0 0 1 .56.17 3.2 3.2 0 0 1 .52.27 3.32 3.32 0 0 1 .46.38 4 4 0 0 1 .37.45 2.86 2.86 0 0 1 .27.52 2.81 2.81 0 0 1 .18.56 3 3 0 0 1 .06.59 3.06 3.06 0 0 1 -.88 2.12 3.22 3.22 0 0 1 -1 .65 3.62 3.62 0 0 1 -.56.17 2.86 2.86 0 0 1 -.51.04z"/><path d="m46.14 11.65a3 3 0 0 1 -3-3 3.92 3.92 0 0 1 0-.59 2.81 2.81 0 0 1 .18-.56 2.86 2.86 0 0 1 .32-.5 3.23 3.23 0 0 1 .36-.47 2.74 2.74 0 0 1 .45-.38 3.2 3.2 0 0 1 .55-.27 2.78 2.78 0 0 1 .56-.17 2.88 2.88 0 0 1 1.17 0 2.78 2.78 0 0 1 .56.17 3.2 3.2 0 0 1 .52.27 2.82 2.82 0 0 1 .46.38 3.16 3.16 0 0 1 .37.45 3.74 3.74 0 0 1 .28.52 3.62 3.62 0 0 1 .17.56 2.93 2.93 0 0 1 0 1.18 3.62 3.62 0 0 1 -.17.56 3.15 3.15 0 0 1 -.28.51 2.74 2.74 0 0 1 -.83.83 3.25 3.25 0 0 1 -.52.28 3.62 3.62 0 0 1 -.56.17 2.86 2.86 0 0 1 -.59.06z"/><path d="m59 28.73a3.07 3.07 0 0 1 -2.13-.87 3.22 3.22 0 0 1 -.65-1 3.62 3.62 0 0 1 -.17-.56 2.88 2.88 0 0 1 0-1.17 3.62 3.62 0 0 1 .17-.56 3.22 3.22 0 0 1 .65-1 3.13 3.13 0 0 1 4.25 0 4.14 4.14 0 0 1 .37.46 3.25 3.25 0 0 1 .28.52 3.62 3.62 0 0 1 .17.56 2.88 2.88 0 0 1 0 1.17 3.62 3.62 0 0 1 -.17.56 3.25 3.25 0 0 1 -.28.52 4.14 4.14 0 0 1 -.37.46 3.07 3.07 0 0 1 -2.12.91z"/><path d="m7.71 28.74a3 3 0 0 1 0-6h38.43a3 3 0 0 1 0 6z"/><path d="m58.94 45.81h-25.61a3 3 0 0 1 0-6h25.61a3 3 0 0 1 0 6z"/><path d="m7.71 11.66a3 3 0 0 1 -.59-.06 3.62 3.62 0 0 1 -.56-.17 3.15 3.15 0 0 1 -.51-.28 2.76 2.76 0 0 1 -.46-.37 3 3 0 0 1 -.88-2.12 2.88 2.88 0 0 1 .06-.59 3.62 3.62 0 0 1 .17-.56 3.25 3.25 0 0 1 .28-.51 2.69 2.69 0 0 1 .37-.45 2.82 2.82 0 0 1 .46-.38 2.49 2.49 0 0 1 .51-.27 2.78 2.78 0 0 1 .56-.17 2.93 2.93 0 0 1 1.18 0 2.78 2.78 0 0 1 .56.17 2.86 2.86 0 0 1 .52.27 3.23 3.23 0 0 1 .45.38 2.74 2.74 0 0 1 .38.45 3.2 3.2 0 0 1 .27.52 2.78 2.78 0 0 1 .17.56 2.88 2.88 0 0 1 0 1.17 2.6 2.6 0 0 1 -.17.56 2.8 2.8 0 0 1 -.65 1 3.16 3.16 0 0 1 -.45.37 3.74 3.74 0 0 1 -.52.28 3.62 3.62 0 0 1 -.56.17 3 3 0 0 1 -.59.03z"/><path d="m33.33 11.66h-12.81a3 3 0 0 1 0-6h12.81a3 3 0 0 1 0 6z"/><path d="m12 62.89h-4.29a3 3 0 1 1 0-6h4.29a3 3 0 1 1 0 6z"/><path d="m41.87 62.89h-17.08a3 3 0 0 1 0-6h17.08a3 3 0 0 1 0 6z"/><path d="m20.52 45.81a3 3 0 0 1 -2.13-.88 4 4 0 0 1 -.37-.45 2.86 2.86 0 0 1 -.27-.52 2.81 2.81 0 0 1 -.18-.56 3.92 3.92 0 0 1 -.05-.59 3.79 3.79 0 0 1 .05-.58 2.9 2.9 0 0 1 .18-.57 2.49 2.49 0 0 1 .27-.51 3.38 3.38 0 0 1 .37-.46 3 3 0 0 1 2.71-.82 3.62 3.62 0 0 1 .56.17 3.22 3.22 0 0 1 1 .65 2.76 2.76 0 0 1 .37.46 3.15 3.15 0 0 1 .28.51 3.74 3.74 0 0 1 .17.57 2.86 2.86 0 0 1 .06.58 3 3 0 0 1 -.06.59 3.62 3.62 0 0 1 -.17.56 3.74 3.74 0 0 1 -.28.52 3.16 3.16 0 0 1 -.37.45 3.32 3.32 0 0 1 -.46.38 3.2 3.2 0 0 1 -.52.27 2.78 2.78 0 0 1 -.56.17 2.86 2.86 0 0 1 -.6.06z"/><path d="m7.71 45.81a3 3 0 0 1 -2.12-.88 3.16 3.16 0 0 1 -.37-.45 3.74 3.74 0 0 1 -.28-.48 3.62 3.62 0 0 1 -.17-.56 3 3 0 0 1 -.06-.59 2.86 2.86 0 0 1 .06-.58 3.74 3.74 0 0 1 .17-.57 3.15 3.15 0 0 1 .28-.51 2.76 2.76 0 0 1 .37-.46 3 3 0 0 1 2.71-.82 3.62 3.62 0 0 1 .56.17 3.74 3.74 0 0 1 .52.28 3.16 3.16 0 0 1 .45.37 2.82 2.82 0 0 1 .38.46 3.1 3.1 0 0 1 .27.51 3.16 3.16 0 0 1 .23 1.15 3 3 0 0 1 -.06.59 2.78 2.78 0 0 1 -.17.56 3.67 3.67 0 0 1 -.27.52 3.5 3.5 0 0 1 -.83.83 3.67 3.67 0 0 1 -.52.27 2.78 2.78 0 0 1 -.56.17 3 3 0 0 1 -.59.02z"/><path d="m58.94 62.89h-4.27a3 3 0 0 1 0-6h4.27a3 3 0 0 1 0 6z"/></g></svg>
