<?xml version="1.0" encoding="UTF-8"?><svg id="Layer_1" xmlns="http://www.w3.org/2000/svg" viewBox="0 0 1079 544.77"><defs><style>.cls-1{fill:#fff;stroke-width:0px;}</style></defs><polygon class="cls-1" points="648.63 66.36 584.46 66.36 584.46 292.24 735.86 292.24 735.86 234.05 648.63 234.05 648.63 66.36"/><rect class="cls-1" x="483.74" y="66.34" width="64.44" height="225.87"/><path class="cls-1" d="m920.61,206.12c-.05-7.51-1.96-14.77-5.39-21.46-10.86-21.19-28.51-32.38-52.11-33.36-16.83-.71-53.79-.17-53.79-.17l-.14-27.05,103.17.05v-58.08s-65.6.05-96.75-.02c-10.49-.02-20.4,2.28-29.55,7.31-18.65,10.24-30.11,25.64-31.88,47.14-.82,10.02-.53,20.17-.27,30.24.21,7.93,2.16,15.62,6.03,22.6,11.87,21.43,30.5,31.92,54.69,32.58,14.97.41,47.93.08,47.93.08v28.07h-105.53v58.18s70.04.06,103.76-.07c4.32-.02,8.72-.6,12.95-1.52,25.04-5.45,43.06-24.18,46.18-49.45,1.43-11.54.79-23.37.72-35.07"/><path class="cls-1" d="m386.86,187.73h-58.68v-53.26c0-7.89,6.39-14.28,14.28-14.28h30.11c7.89,0,14.28,6.4,14.28,14.28v53.26Zm52.9-92.7c-12.06-19.44-30.51-27.97-52.61-28.69-20.27-.66-40.57-.15-60.85-.13-7.05,0-13.99.88-20.69,3.19-22.47,7.72-39.33,31.63-39.36,56.14-.07,54.75-.02,166.69-.02,166.69h62.2v-58.18h58.7v58.14h60.33s0-140.46,0-165.95c0-11.04-1.81-21.71-7.7-31.21"/><path class="cls-1" d="m171.03,163.36c0,7.63-6.18,13.81-13.81,13.81h-49.33v-58.68h49.33c7.63,0,13.81,6.18,13.81,13.81v31.06Zm57.09,21.26c8.16-17.38,9.65-35.85,7.25-54.67-3.42-26.87-17.52-46.22-42-57.85-10.53-4.99-21.54-7.7-33.42-7.6-36.8.29-113.37.1-113.37.1v227.59h61.23v-58.16l53.11,58.19h90.5s-71.06-71.54-70.73-71.6c21.19-4.19,38.26-16.52,47.42-36.01"/><path class="cls-1" d="m46.83,475.86l-.24-168.8h65.07c-3.91,32.54-9.05,73.15-13.46,104.71h1.47c15.9-44.28,23.24-64.58,36.94-104.71h57.49c-2.45,39.63-3.43,60.92-6.61,102.5l1.47.24c7.34-27.64,20.79-73.64,29.36-102.75h61.65l-72.9,168.8h-65.56c1.47-31.31,4.89-60.18,7.09-96.39h-.98c-11.01,32.78-24.22,67.52-35.23,96.39H46.83Z"/><path class="cls-1" d="m435.93,376.05c0,46.97-25.2,104.22-102.01,104.22-56.27,0-76.57-34.49-76.57-70.95,0-51.37,31.07-106.66,100.55-106.66,53.82,0,78.04,33.03,78.04,73.39Zm-112.53,38.41c0,11.74,2.69,23.73,16.15,23.73,24.71,0,31.8-53.09,31.8-69.48,0-10.52-1.96-23.97-15.9-23.97-23.97,0-32.05,51.37-32.05,69.72Z"/><path class="cls-1" d="m501.86,415.19l-12.48,60.67h-63.36l35.72-168.8h84.65c42.81,0,59.69,20.55,59.69,43.3s-13.7,38.9-35.96,45.5c14.43,5.38,21.53,20.06,16.15,45.26-2.94,13.45-5.63,28.87-5.63,34.74h-60.91c-.98-7.09.49-18.84,4.65-38.65,2.94-13.7,2.94-22.02-13.46-22.02h-9.05Zm8.56-38.16h11.01c12.72,0,20.55-6.36,20.55-18.59,0-7.09-3.43-13.21-13.7-13.21h-11.25l-6.61,31.8Z"/><path class="cls-1" d="m629.08,307.06h64.58l-26.67,125.99h70.46l-15.9,42.81h-128.19l35.72-168.8Z"/><path class="cls-1" d="m772.32,307.06h71.68c51.86,0,76.82,30.34,76.82,70.95,0,38.41-18.1,97.86-102.99,97.86h-81.22l35.72-168.8Zm37.19,127.7h13.21c23.24,0,31.31-42.81,31.31-62.38,0-16.15-4.16-24.22-17.86-24.22h-8.07l-18.59,86.6Z"/><path class="cls-1" d="m988.92,72.56c24.36,0,35.57,11.21,35.57,26.71,0,14.53-6.09,21.31-24.08,30.72-5.26,2.77-15.5,8.44-17.99,12.32h36.95l-8.72,23.53h-74.04l.83-3.87c4.71-22.01,13.56-32.8,33.91-45.12,14.12-8.58,19.1-11.21,19.1-19.38,0-2.91-1.25-4.84-3.88-4.84-4.15,0-6.23,3.87-8.17,12.59h-30.86c2.63-14.12,10.38-32.66,41.38-32.66m0-6.2c-15.52,0-27.56,4.36-35.8,12.94-5.89,6.14-9.71,14.25-11.67,24.78-.34,1.81.15,3.68,1.33,5.1,1.18,1.42,2.93,2.24,4.77,2.24h20.8l-.21.13c-22.54,13.65-31.81,26.04-36.75,49.12l-.83,3.87c-.39,1.83.06,3.74,1.24,5.2,1.18,1.46,2.95,2.3,4.82,2.3h74.04c2.59,0,4.91-1.61,5.81-4.05l8.72-23.53c.71-1.9.43-4.03-.72-5.7-1.16-1.67-3.06-2.66-5.09-2.66h-17.26c.39-.21.78-.42,1.19-.63,18.16-9.5,27.39-17.71,27.39-36.21,0-9.89-3.78-18.18-10.95-23.98-7.31-5.92-17.68-8.93-30.82-8.93h0Z"/><path class="cls-1" d="m990.23,173.56c24.5,0,35.98,13.7,35.98,34.6s-9.41,60.89-49.13,60.89c-26.02,0-35.57-14.95-35.57-35.29,0-24.08,12.59-60.2,48.72-60.2m-12.18,75.29c4.43,0,7.2-8.03,11.35-27.82,4.29-20.07,5.54-27.4.28-27.4-3.6,0-6.64,4.29-11.35,26.99-4.43,20.62-4.84,28.23-.28,28.23m12.18-81.49c-18.25,0-33.16,8.28-43.13,23.94-7.49,11.76-11.78,27.24-11.78,42.46,0,12.42,3.23,22.31,9.61,29.42,7.19,8.01,18.01,12.07,32.15,12.07,19.58,0,35.08-8.85,44.82-25.59,9.49-16.31,10.51-34.46,10.51-41.51,0-12.24-3.66-22.44-10.58-29.48-7.38-7.51-18.01-11.32-31.6-11.32h0Z"/><path class="cls-1" d="m988.92,275.11c24.36,0,35.57,11.21,35.57,26.71,0,14.53-6.09,21.31-24.08,30.72-5.26,2.77-15.5,8.44-17.99,12.32h36.95l-8.72,23.53h-74.04l.83-3.88c4.71-22.01,13.56-32.8,33.91-45.12,14.12-8.58,19.1-11.21,19.1-19.38,0-2.91-1.25-4.84-3.88-4.84-4.15,0-6.23,3.87-8.17,12.59h-30.86c2.63-14.12,10.38-32.66,41.38-32.66m0-6.2c-15.52,0-27.56,4.36-35.8,12.94-5.89,6.14-9.71,14.25-11.67,24.78-.34,1.81.15,3.68,1.33,5.1,1.18,1.42,2.93,2.24,4.77,2.24h20.8l-.21.13c-22.54,13.65-31.81,26.04-36.75,49.12l-.83,3.87c-.39,1.83.06,3.74,1.24,5.2,1.18,1.46,2.95,2.3,4.82,2.3h74.04c2.59,0,4.91-1.61,5.81-4.05l8.72-23.53c.71-1.9.43-4.03-.72-5.7-1.16-1.67-3.06-2.66-5.09-2.66h-17.26c.39-.21.78-.42,1.19-.63,18.16-9.5,27.39-17.71,27.39-36.21,0-9.89-3.78-18.18-10.95-23.98-7.31-5.92-17.68-8.93-30.82-8.93h0Z"/><path class="cls-1" d="m1025.18,378.05l-10.8,50.1h9.69l-6.37,23.39h-8.17l-3.74,18.13h-31.83l3.74-18.13h-40.41l4.43-20.62,40.27-52.87h43.18m-35.57,22.01c-4.29,7.33-12.32,19.51-17.99,28.09h10.93l1.25-5.26c1.11-5.12,4.01-16.47,5.81-22.84m35.57-28.2h-43.18c-1.93,0-3.76.9-4.93,2.44l-40.27,52.87c-.55.73-.94,1.56-1.13,2.45l-4.43,20.62c-.39,1.83.06,3.74,1.24,5.2,1.18,1.46,2.95,2.3,4.82,2.3h32.8l-2.2,10.68c-.38,1.83.09,3.72,1.27,5.17,1.18,1.44,2.94,2.28,4.81,2.28h31.83c2.94,0,5.48-2.07,6.07-4.95l2.72-13.18h3.11c2.8,0,5.25-1.87,5.98-4.57l6.37-23.39c.51-1.86.12-3.86-1.06-5.39-1.17-1.53-2.99-2.44-4.93-2.44h-2.01l9.18-42.59c.39-1.83-.06-3.74-1.24-5.2-1.18-1.46-2.95-2.3-4.82-2.3h0Z"/></svg>