<svg width="423" height="83" viewBox="0 0 423 83" fill="none" xmlns="http://www.w3.org/2000/svg">
<path d="M97.1919 75.1215L97.3409 74.4171C98.1877 70.4244 99.7793 68.4656 103.433 66.2338C105.969 64.6787 106.867 64.1999 106.867 62.7199C106.867 62.1936 106.644 61.8415 106.169 61.8415C105.425 61.8415 105.052 62.5458 104.703 64.1247H99.156C99.6303 61.5645 101.022 58.2009 106.593 58.2009C110.972 58.2009 112.983 60.2349 112.983 63.0444C112.983 65.6798 111.889 66.9105 108.655 68.616C107.71 69.1185 105.868 70.1474 105.421 70.8518H112.062L110.493 75.1215H97.188H97.1919Z" fill="white"/>
<path d="M126.739 62.9217C126.79 62.067 126.641 61.517 125.869 61.517C124.975 61.517 124.301 62.4469 123.803 65.0823C124.599 64.3028 125.767 63.9268 127.186 63.9268C129.699 63.9268 131.491 65.482 131.491 68.2717C131.491 72.7907 128.256 75.4776 123.505 75.4776C118.754 75.4776 116.887 72.9925 116.887 68.798C116.887 65.2841 118.605 58.1534 125.692 58.1534C131.51 58.1534 132.059 61.2914 132.059 62.9257H126.735L126.739 62.9217ZM125.097 68.4696C125.097 67.9433 124.948 67.3893 124.301 67.3893C123.305 67.3893 122.807 69.2214 122.807 70.8043C122.807 71.5086 123.054 71.9835 123.626 71.9835C124.595 71.9835 125.093 69.8743 125.093 68.4696H125.097Z" fill="white"/>
<path d="M160.042 64.5758L153.825 70.5272C150.916 73.2893 148.799 75.4973 144.149 75.4973C139.919 75.4973 137.783 73.2378 137.783 70.4995C137.783 67.6109 140.045 65.9805 144.671 64.7024C147.803 63.7725 148.277 62.7199 148.277 61.7662C148.277 61.0896 147.905 60.6622 147.356 60.6622C146.733 60.6622 146.262 61.1885 146.262 61.8929C146.262 62.5972 146.76 63.3728 147.482 64.002L158.623 75.1254H151.21L142.279 65.9884C141.26 64.9082 140.813 63.8041 140.813 62.8505C140.813 59.6136 143.252 57.4293 147.356 57.4293C151.112 57.4293 153.425 59.1625 153.425 61.7227C153.425 64.1088 151.708 65.6125 146.76 66.8946C144.075 67.6227 143.428 68.703 143.428 69.53C143.428 70.5589 144.126 71.3622 145.466 71.3622C147.082 71.3622 147.952 70.2344 150.39 67.8997L153.848 64.5837H160.042V64.5758Z" fill="white"/>
<path d="M164.77 75.1215L164.919 74.4171C165.766 70.4244 167.357 68.4656 171.011 66.2338C173.548 64.6787 174.445 64.1999 174.445 62.7199C174.445 62.1936 174.222 61.8415 173.748 61.8415C173.003 61.8415 172.63 62.5458 172.281 64.1247H166.734C167.208 61.5645 168.6 58.2009 174.171 58.2009C178.55 58.2009 180.561 60.2349 180.561 63.0444C180.561 65.6798 179.467 66.9105 176.233 68.616C175.288 69.1185 173.446 70.1474 172.999 70.8518H179.64L178.072 75.1215H164.766H164.77Z" fill="white"/>
<path d="M199.065 58.5016L198.269 62.2688C194.937 66.036 191.926 70.828 190.436 75.1214H183.819C185.136 71.2039 188.919 65.5571 191.902 62.894H184.913L185.857 58.5016H199.065Z" fill="white"/>
<path d="M19.6053 69.6488C19.7033 70.6539 20.2757 71.4057 21.4439 71.4057C22.2162 71.4057 22.9101 71.105 22.9101 70.2503C22.9101 69.447 22.2397 69.071 20.4717 68.517C16.618 67.3101 14.9245 65.9331 14.9245 63.4441C14.9245 59.7283 17.7588 57.3422 22.6592 57.3422C27.1597 57.3422 30.2959 59.1506 30.3195 62.9178H24.1999C24.1999 62.2886 23.9255 61.4853 22.7062 61.4853C21.8869 61.4853 21.5106 61.885 21.5106 62.4627C21.5106 63.1156 22.2829 63.5192 24.098 64.0455C28.5985 65.3751 29.7432 67.2073 29.7432 69.4668C29.7432 73.7325 25.9875 75.5686 21.3381 75.5686C15.9398 75.5686 13.5524 73.2339 13.4543 69.6448H19.5975L19.6053 69.6488Z" fill="white"/>
<path d="M47.906 68.6437H40.8926L40.4457 70.7291H48.5528L46.9612 75.1214H33.3303L36.9605 57.7973H50.4659L49.5721 62.1897H42.2843L41.8374 64.2474H48.8508L47.906 68.6397V68.6437Z" fill="white"/>
<path d="M55.8878 57.8013H63.944C68.3975 57.8013 70.3106 60.1874 70.3106 62.9217C70.3106 66.6137 67.5507 69.2491 62.7248 69.2491H59.7885L58.5928 75.1254H52.2498L55.8799 57.8013H55.8878ZM60.6627 65.2564H61.682C63.0266 65.2564 63.7715 64.5283 63.7715 63.1473C63.7715 62.2451 63.3481 61.7663 62.2544 61.7663H61.435L60.6627 65.2564Z" fill="white"/>
<path d="M78.2961 62.1936H74.019L74.9638 57.8013H90.0099L89.0651 62.1936H84.8351L82.1497 75.1215H75.6068L78.2922 62.1936H78.2961Z" fill="white"/>
<path d="M199.253 77.4799C200.794 74.8444 201.989 71.7302 202.487 69.1185H207.635C207.039 71.7817 205.521 75.2204 203.604 77.4799H199.253Z" fill="white"/>
<path d="M224.065 62.1936H219.788L220.732 57.8013H235.778L234.834 62.1936H230.604L227.918 75.1215H221.375L224.061 62.1936H224.065Z" fill="white"/>
<path d="M255.874 64.8765C255.874 69.6963 253.314 75.5726 245.501 75.5726C239.781 75.5726 237.715 72.031 237.715 68.2915C237.715 63.0207 240.875 57.3462 247.935 57.3462C253.408 57.3462 255.87 60.7335 255.87 64.8765H255.874ZM244.434 68.8178C244.434 70.0208 244.709 71.2514 246.077 71.2514C248.59 71.2514 249.311 65.8025 249.311 64.1207C249.311 63.0404 249.111 61.6594 247.696 61.6594C245.258 61.6594 244.438 66.9303 244.438 68.8138L244.434 68.8178Z" fill="white"/>
<path d="M266.439 68.897L265.169 75.1254H258.728L262.358 57.8013H270.963C275.315 57.8013 277.032 59.9104 277.032 62.2451C277.032 64.5798 275.64 66.2378 273.374 66.9145C274.84 67.4645 275.562 68.9721 275.017 71.5601C274.719 72.9411 274.444 74.5239 274.444 75.1254H268.25C268.152 74.3973 268.301 73.1904 268.725 71.1565C269.022 69.7517 269.022 68.897 267.356 68.897H266.435H266.439ZM267.309 64.9794H268.427C269.72 64.9794 270.516 64.3265 270.516 63.0721C270.516 62.344 270.167 61.7148 269.124 61.7148H267.98L267.309 64.9794Z" fill="white"/>
<path d="M298.621 64.8765C298.621 69.6963 296.061 75.5726 288.248 75.5726C282.528 75.5726 280.462 72.031 280.462 68.2915C280.462 63.0207 283.622 57.3462 290.682 57.3462C296.155 57.3462 298.617 60.7335 298.617 64.8765H298.621ZM287.181 68.8178C287.181 70.0208 287.456 71.2514 288.824 71.2514C291.337 71.2514 292.058 65.8025 292.058 64.1207C292.058 63.0404 291.858 61.6594 290.443 61.6594C288.005 61.6594 287.185 66.9303 287.185 68.8138L287.181 68.8178Z" fill="white"/>
<path d="M301.479 75.1214L305.109 57.7973H312.694C313.043 62.4667 313.169 65.1258 313.341 67.6109H313.467C313.741 65.6521 314.314 62.1145 314.858 59.5028L315.207 57.7973H321.225L317.595 75.1214H310.331C310.033 71.7817 309.684 67.5911 309.511 64.8528H309.413C309.213 66.8867 308.543 70.0999 307.92 73.0638L307.496 75.1214H301.479Z" fill="white"/>
<path d="M328.909 62.1936H324.632L325.577 57.8013H340.623L339.678 62.1936H335.448L332.763 75.1215H326.22L328.905 62.1936H328.909Z" fill="white"/>
<path d="M360.718 64.8765C360.718 69.6963 358.158 75.5726 350.345 75.5726C344.625 75.5726 342.559 72.031 342.559 68.2915C342.559 63.0207 345.719 57.3462 352.78 57.3462C358.252 57.3462 360.714 60.7335 360.714 64.8765H360.718ZM349.279 68.8178C349.279 70.0208 349.553 71.2514 350.921 71.2514C353.434 71.2514 354.156 65.8025 354.156 64.1207C354.156 63.0404 353.956 61.6594 352.54 61.6594C350.102 61.6594 349.283 66.9303 349.283 68.8138L349.279 68.8178Z" fill="white"/>
<path d="M389.09 68.8218C387.87 73.8908 384.166 75.5765 379.838 75.5765C374.514 75.5765 372.35 72.4386 372.35 68.2955C372.35 63.3254 375.086 57.3502 382.398 57.3502C387.819 57.3502 390.109 60.3378 389.858 63.9268H383.44C383.515 62.6448 383.315 61.6436 382.096 61.6436C379.881 61.6436 379.061 66.8393 379.061 69.0236C379.061 70.2542 379.41 71.2079 380.453 71.2079C381.696 71.2079 382.217 70.1553 382.641 68.8218H389.082H389.09Z" fill="white"/>
<path d="M399.039 71.9597L397.871 75.1214H391.156L399.365 57.7973H408.17L409.287 75.1214H402.744V71.9597H399.039ZM402.818 67.5674C402.818 66.4396 402.795 63.8002 402.795 62.2213H402.646C401.948 64.3819 401.352 65.9133 400.729 67.5674H402.818Z" fill="white"/>
<path d="M97.1919 75.1216L97.3409 74.4172C98.1877 70.4245 99.7793 68.4657 103.433 66.2339C105.969 64.6788 106.867 64.2 106.867 62.72C106.867 62.1938 106.644 61.8416 106.169 61.8416C105.425 61.8416 105.052 62.5459 104.703 64.1248H99.156C99.6303 61.5646 101.022 58.201 106.593 58.201C110.972 58.201 112.983 60.235 112.983 63.0445C112.983 65.68 111.889 66.9106 108.655 68.6161C107.71 69.1187 105.868 70.1475 105.421 70.8519H112.062L110.493 75.1216H97.188H97.1919Z" fill="white"/>
<path d="M126.739 62.9219C126.79 62.0671 126.641 61.5171 125.869 61.5171C124.975 61.5171 124.301 62.447 123.803 65.0824C124.599 64.3029 125.767 63.927 127.186 63.927C129.699 63.927 131.491 65.4821 131.491 68.2718C131.491 72.7908 128.257 75.4777 123.505 75.4777C118.754 75.4777 116.888 72.9927 116.888 68.7981C116.888 65.2842 118.605 58.1536 125.693 58.1536C131.51 58.1536 132.059 61.2915 132.059 62.9258H126.735L126.739 62.9219ZM125.097 68.4697C125.097 67.9434 124.948 67.3894 124.301 67.3894C123.305 67.3894 122.807 69.2215 122.807 70.8044C122.807 71.5087 123.054 71.9836 123.627 71.9836C124.595 71.9836 125.093 69.8745 125.093 68.4697H125.097Z" fill="white"/>
<path d="M160.042 64.5758L153.825 70.5273C150.916 73.2893 148.799 75.4974 144.149 75.4974C139.919 75.4974 137.783 73.2379 137.783 70.4996C137.783 67.6109 140.045 65.9806 144.671 64.7025C147.803 63.7725 148.277 62.7199 148.277 61.7663C148.277 61.0896 147.905 60.6623 147.356 60.6623C146.733 60.6623 146.262 61.1886 146.262 61.8929C146.262 62.5973 146.76 63.3729 147.482 64.0021L158.623 75.1254H151.21L142.279 65.9885C141.26 64.9082 140.813 63.8042 140.813 62.8505C140.813 59.6136 143.252 57.4293 147.356 57.4293C151.112 57.4293 153.425 59.1625 153.425 61.7228C153.425 64.1089 151.708 65.6126 146.76 66.8947C144.075 67.6228 143.428 68.7031 143.428 69.5301C143.428 70.559 144.126 71.3622 145.466 71.3622C147.082 71.3622 147.952 70.2345 150.39 67.8998L153.848 64.5837H160.042V64.5758Z" fill="white"/>
<path d="M164.77 75.1216L164.919 74.4172C165.766 70.4245 167.358 68.4657 171.011 66.2339C173.548 64.6788 174.446 64.2 174.446 62.72C174.446 62.1938 174.222 61.8416 173.748 61.8416C173.003 61.8416 172.63 62.5459 172.282 64.1248H166.734C167.209 61.5646 168.6 58.201 174.171 58.201C178.55 58.201 180.561 60.235 180.561 63.0445C180.561 65.68 179.467 66.9106 176.233 68.6161C175.288 69.1187 173.446 70.1475 172.999 70.8519H179.64L178.072 75.1216H164.766H164.77Z" fill="white"/>
<path d="M199.065 58.5015L198.269 62.2687C194.937 66.0358 191.926 70.8279 190.436 75.1213H183.819C185.136 71.2038 188.919 65.557 191.902 62.8939H184.913L185.857 58.5015H199.065Z" fill="white"/>
<path d="M19.6055 69.6487C19.7035 70.6538 20.2759 71.4057 21.4442 71.4057C22.2165 71.4057 22.9103 71.1049 22.9103 70.2502C22.9103 69.4469 22.24 69.071 20.4719 68.517C16.6183 67.3101 14.9247 65.933 14.9247 63.444C14.9247 59.7283 17.7591 57.3422 22.6594 57.3422C27.1599 57.3422 30.2962 59.1506 30.3197 62.9177H24.2001C24.2001 62.2885 23.9257 61.4852 22.7065 61.4852C21.8871 61.4852 21.5108 61.8849 21.5108 62.4626C21.5108 63.1156 22.2831 63.5192 24.0982 64.0455C28.5987 65.3751 29.7434 67.2072 29.7434 69.4667C29.7434 73.7324 25.9878 75.5685 21.3383 75.5685C15.9401 75.5685 13.5526 73.2338 13.4546 69.6448H19.5977L19.6055 69.6487Z" fill="white"/>
<path d="M47.9062 68.6436H40.8928L40.4459 70.729H48.5531L46.9614 75.1214H33.3306L36.9608 57.7972H50.4662L49.5724 62.1896H42.2845L41.8376 64.2473H48.851L47.9062 68.6397V68.6436Z" fill="white"/>
<path d="M55.8878 57.8013H63.944C68.3975 57.8013 70.3106 60.1874 70.3106 62.9217C70.3106 66.6137 67.5507 69.2491 62.7248 69.2491H59.7885L58.5928 75.1254H52.2498L55.8799 57.8013H55.8878ZM60.6627 65.2564H61.682C63.0266 65.2564 63.7715 64.5283 63.7715 63.1473C63.7715 62.2451 63.3481 61.7663 62.2544 61.7663H61.435L60.6627 65.2564Z" fill="white"/>
<path d="M78.2963 62.1936H74.0193L74.9641 57.8013H90.0102L89.0654 62.1936H84.8354L82.15 75.1215H75.607L78.2924 62.1936H78.2963Z" fill="white"/>
<path d="M199.253 77.4799C200.794 74.8444 201.989 71.7302 202.487 69.1185H207.635C207.039 71.7817 205.521 75.2204 203.604 77.4799H199.253Z" fill="white"/>
<path d="M224.065 62.1936H219.788L220.732 57.8013H235.778L234.834 62.1936H230.604L227.918 75.1215H221.375L224.061 62.1936H224.065Z" fill="white"/>
<path d="M255.874 64.8765C255.874 69.6963 253.314 75.5726 245.501 75.5726C239.781 75.5726 237.715 72.031 237.715 68.2915C237.715 63.0207 240.875 57.3462 247.935 57.3462C253.408 57.3462 255.87 60.7335 255.87 64.8765H255.874ZM244.434 68.8178C244.434 70.0208 244.709 71.2514 246.077 71.2514C248.59 71.2514 249.311 65.8025 249.311 64.1207C249.311 63.0404 249.111 61.6594 247.696 61.6594C245.258 61.6594 244.438 66.9303 244.438 68.8138L244.434 68.8178Z" fill="white"/>
<path d="M266.439 68.897L265.169 75.1254H258.728L262.358 57.8013H270.963C275.315 57.8013 277.032 59.9104 277.032 62.2451C277.032 64.5798 275.64 66.2378 273.374 66.9145C274.84 67.4645 275.562 68.9721 275.017 71.5601C274.719 72.9411 274.444 74.5239 274.444 75.1254H268.25C268.152 74.3973 268.301 73.1904 268.725 71.1565C269.022 69.7517 269.022 68.897 267.356 68.897H266.435H266.439ZM267.309 64.9794H268.427C269.72 64.9794 270.516 64.3265 270.516 63.0721C270.516 62.344 270.167 61.7148 269.124 61.7148H267.98L267.309 64.9794Z" fill="white"/>
<path d="M298.621 64.8765C298.621 69.6963 296.061 75.5726 288.248 75.5726C282.528 75.5726 280.462 72.031 280.462 68.2915C280.462 63.0207 283.622 57.3462 290.682 57.3462C296.155 57.3462 298.617 60.7335 298.617 64.8765H298.621ZM287.181 68.8178C287.181 70.0208 287.456 71.2514 288.824 71.2514C291.337 71.2514 292.058 65.8025 292.058 64.1207C292.058 63.0404 291.858 61.6594 290.443 61.6594C288.005 61.6594 287.185 66.9303 287.185 68.8138L287.181 68.8178Z" fill="white"/>
<path d="M301.479 75.1214L305.109 57.7972H312.695C313.044 62.4666 313.169 65.1258 313.342 67.6108H313.467C313.741 65.6521 314.314 62.1144 314.859 59.5027L315.208 57.7972H321.225L317.595 75.1214H310.331C310.033 71.7816 309.684 67.591 309.511 64.8527H309.413C309.214 66.8867 308.543 70.0998 307.92 73.0637L307.496 75.1214H301.479Z" fill="white"/>
<path d="M328.909 62.1936H324.632L325.577 57.8013H340.623L339.678 62.1936H335.448L332.763 75.1215H326.22L328.905 62.1936H328.909Z" fill="white"/>
<path d="M360.718 64.8765C360.718 69.6963 358.158 75.5726 350.345 75.5726C344.625 75.5726 342.559 72.031 342.559 68.2915C342.559 63.0207 345.719 57.3462 352.78 57.3462C358.252 57.3462 360.714 60.7335 360.714 64.8765H360.718ZM349.279 68.8178C349.279 70.0208 349.553 71.2514 350.921 71.2514C353.434 71.2514 354.156 65.8025 354.156 64.1207C354.156 63.0404 353.956 61.6594 352.54 61.6594C350.102 61.6594 349.283 66.9303 349.283 68.8138L349.279 68.8178Z" fill="white"/>
<path d="M389.09 68.8219C387.87 73.8909 384.166 75.5767 379.838 75.5767C374.514 75.5767 372.35 72.4387 372.35 68.2956C372.35 63.3255 375.086 57.3503 382.398 57.3503C387.819 57.3503 390.109 60.3379 389.858 63.927H383.44C383.515 62.6449 383.315 61.6437 382.096 61.6437C379.881 61.6437 379.061 66.8394 379.061 69.0237C379.061 70.2544 379.41 71.208 380.453 71.208C381.696 71.208 382.217 70.1554 382.641 68.8219H389.082H389.09Z" fill="white"/>
<path d="M399.039 71.9597L397.871 75.1214H391.156L399.365 57.7972H408.17L409.287 75.1214H402.744V71.9597H399.039ZM402.818 67.5673C402.818 66.4395 402.795 63.8002 402.795 62.2213H402.646C401.948 64.3818 401.352 65.9132 400.729 67.5673H402.818Z" fill="white"/>
<path d="M117.562 10.5536H106.463V49.9741H132.643V39.8202H117.562V10.5536Z" fill="white"/>
<path d="M100.191 10.5496H89.0496V49.9702H100.191V10.5496Z" fill="white"/>
<path d="M164.586 34.9451C164.578 33.6353 164.245 32.3651 163.653 31.1977C161.775 27.4979 158.721 25.547 154.644 25.3768C151.735 25.2542 145.345 25.3491 145.345 25.3491L145.322 20.6283L163.159 20.6363V10.4982C163.159 10.4982 151.817 10.5061 146.431 10.4942C144.616 10.4903 142.903 10.8899 141.323 11.7684C138.096 13.557 136.117 16.2439 135.811 19.9952C135.67 21.7442 135.721 23.5131 135.764 25.274C135.799 26.6589 136.136 28.0004 136.807 29.2192C138.861 32.9586 142.079 34.7908 146.262 34.9055C148.85 34.9768 154.55 34.9174 154.55 34.9174V39.8163H136.301V49.9702C136.301 49.9702 148.411 49.982 154.24 49.9583C154.989 49.9583 155.75 49.8554 156.479 49.6932C160.807 48.7435 163.923 45.471 164.464 41.0628C164.711 39.0486 164.602 36.983 164.59 34.9411" fill="white"/>
<path d="M72.2982 31.7359H62.1525V22.4407C62.1525 21.0636 63.258 19.9477 64.6223 19.9477H69.8284C71.1927 19.9477 72.2982 21.0636 72.2982 22.4407V31.7359ZM81.4443 15.5553C79.3587 12.1641 76.1676 10.6762 72.3492 10.5496C68.8444 10.4349 65.3358 10.5219 61.8271 10.5259C60.6079 10.5259 59.4083 10.6802 58.2479 11.0838C54.3629 12.4292 51.4462 16.604 51.4422 20.8816C51.4305 30.438 51.4422 49.9741 51.4422 49.9741H62.1956V39.8202H72.3453V49.9662H82.7772C82.7772 49.9662 82.7772 25.452 82.7772 21.0043C82.7772 19.0772 82.4635 17.2134 81.4443 15.5593" fill="white"/>
<path d="M34.9809 27.482C34.9809 28.8116 33.9107 29.8919 32.5934 29.8919H24.0629V19.6509H32.5934C33.9107 19.6509 34.9809 20.7312 34.9809 22.0608V27.482ZM44.8522 31.1938C46.2635 28.1587 46.5223 24.9376 46.1067 21.6532C45.5147 16.9641 43.0763 13.5847 38.8463 11.5587C37.0273 10.6881 35.122 10.2172 33.0678 10.2331C26.7052 10.2845 13.4663 10.2528 13.4663 10.2528V49.9741H24.0511V39.8242L33.2324 49.982H48.8823C48.8823 49.982 36.5961 37.4974 36.6549 37.4855C40.3203 36.7535 43.2684 34.6048 44.8522 31.2017" fill="white"/>
<path d="M168.216 49.9068L168.157 10.0826H183.368C182.455 17.7594 181.251 27.3395 180.224 34.7868H180.569C184.285 24.34 186.002 19.548 189.201 10.0826H202.64C202.068 19.4332 201.84 24.4548 201.096 34.2644L201.441 34.3238C203.158 27.8025 206.302 16.9522 208.301 10.0826H222.712L205.674 49.9068H190.35C190.695 42.5189 191.495 35.7088 192.008 27.1654H191.781C189.209 34.8976 186.12 43.0967 183.548 49.9068H168.224H168.216Z" fill="white"/>
<path d="M257.105 26.5363C257.105 37.0701 251.507 49.9029 234.442 49.9029C221.944 49.9029 217.431 42.1668 217.431 33.9954C217.431 22.4763 224.335 10.0787 239.765 10.0787C251.722 10.0787 257.101 17.4825 257.101 26.5363H257.105ZM232.105 35.1469C232.105 37.7784 232.701 40.4692 235.692 40.4692C241.181 40.4692 242.757 28.5663 242.757 24.8901C242.757 22.5317 242.321 19.5124 239.224 19.5124C233.897 19.5124 232.105 31.0315 232.105 35.1469Z" fill="white"/>
<path d="M273.296 35.5901L270.379 49.9029H255.568L263.914 10.0787H283.7C293.705 10.0787 297.653 14.9262 297.653 20.2959C297.653 25.6657 294.45 29.4724 289.247 31.0315C292.623 32.3018 294.281 35.7642 293.023 41.7078C292.337 44.8814 291.709 48.5179 291.709 49.9029H277.471C277.243 48.2291 277.585 45.4591 278.557 40.7818C279.243 37.5489 279.243 35.5861 275.413 35.5861H273.296V35.5901ZM275.295 26.5877H277.867C280.838 26.5877 282.669 25.088 282.669 22.2033C282.669 20.5294 281.869 19.0851 279.466 19.0851H276.836L275.291 26.5877H275.295Z" fill="white"/>
<path d="M303.286 10.0826H318.383L312.15 39.8083H328.619L324.903 49.9068H294.94L303.286 10.0826Z" fill="white"/>
<path d="M337.02 10.0826H353.775C365.897 10.0826 371.73 17.241 371.73 26.8211C371.73 35.8829 367.5 49.9068 347.656 49.9068H328.674L337.02 10.0826ZM345.711 40.2119H348.801C354.234 40.2119 356.12 30.1134 356.12 25.4955C356.12 21.6848 355.148 19.7815 351.945 19.7815H350.059L345.715 40.2119H345.711Z" fill="white"/>
<path d="M384.832 11.4835C389.466 11.4835 391.599 13.6362 391.599 16.6119C391.599 19.4016 390.438 20.7035 387.016 22.5119C386.016 23.0422 384.068 24.1343 383.593 24.8783H390.622L388.964 29.3973H374.878L375.035 28.6533C375.929 24.4272 377.615 22.3536 381.488 19.9873C384.173 18.3411 385.122 17.8346 385.122 16.2676C385.122 15.7097 384.887 15.3377 384.385 15.3377C383.593 15.3377 383.201 16.0816 382.833 17.7555H376.96C377.462 15.0449 378.936 11.4835 384.832 11.4835ZM384.832 10.2924C381.88 10.2924 379.587 11.1274 378.019 12.7775C376.897 13.9567 376.172 15.5118 375.8 17.5379C375.737 17.8861 375.827 18.2462 376.051 18.5153C376.274 18.7883 376.607 18.9466 376.956 18.9466H380.912L380.873 18.9703C376.584 21.5899 374.82 23.9721 373.883 28.404L373.726 29.148C373.651 29.5001 373.738 29.8682 373.961 30.1451C374.185 30.4261 374.522 30.5883 374.878 30.5883H388.964C389.458 30.5883 389.897 30.2797 390.07 29.8127L391.728 25.2938C391.861 24.9297 391.81 24.5182 391.591 24.2016C391.371 23.8811 391.01 23.6911 390.622 23.6911H387.337C387.412 23.6516 387.486 23.612 387.565 23.5685C391.018 21.7442 392.775 20.1654 392.775 16.6159C392.775 14.7164 392.053 13.1257 390.693 12.0098C389.301 10.8741 387.329 10.2964 384.828 10.2964L384.832 10.2924Z" fill="white"/>
<path d="M401.513 11.2698C406.174 11.2698 408.358 13.9013 408.358 17.9138C408.358 21.9263 406.566 29.607 399.012 29.607C394.06 29.607 392.245 26.7381 392.245 22.8285C392.245 18.2026 394.64 11.2659 401.513 11.2659M399.196 25.7251C400.039 25.7251 400.564 24.1818 401.356 20.383C402.171 16.5288 402.411 15.1201 401.407 15.1201C400.721 15.1201 400.145 15.9431 399.247 20.3039C398.404 24.2649 398.326 25.7251 399.196 25.7251ZM401.513 10.0748C398.039 10.0748 395.205 11.6655 393.308 14.6729C391.885 16.9324 391.065 19.9042 391.065 22.8285C391.065 25.2146 391.681 27.114 392.896 28.4792C394.264 30.0185 396.322 30.7981 399.012 30.7981C402.736 30.7981 405.684 29.1005 407.538 25.8834C409.342 22.7533 409.538 19.2671 409.538 17.9138C409.538 15.5633 408.84 13.6045 407.523 12.2512C406.119 10.8108 404.096 10.0787 401.509 10.0787L401.513 10.0748Z" fill="white"/>
<path d="M384.832 30.802C389.466 30.802 391.599 32.9546 391.599 35.9304C391.599 38.7201 390.438 40.022 387.016 41.8304C386.016 42.3606 384.068 43.4528 383.593 44.1967H390.622L388.964 48.7157H374.878L375.035 47.9718C375.929 43.7456 377.615 41.6721 381.488 39.3058C384.173 37.6596 385.122 37.1531 385.122 35.5861C385.122 35.0282 384.887 34.6562 384.385 34.6562C383.593 34.6562 383.201 35.4001 382.833 37.074H376.96C377.462 34.3634 378.936 30.802 384.832 30.802ZM384.832 29.6109C381.88 29.6109 379.587 30.4458 378.019 32.096C376.897 33.2752 376.172 34.8303 375.8 36.8563C375.737 37.2046 375.827 37.5647 376.051 37.8337C376.274 38.1068 376.607 38.2651 376.956 38.2651H380.912L380.873 38.2888C376.584 40.9084 374.82 43.2906 373.883 47.7225L373.726 48.4664C373.651 48.8186 373.738 49.1866 373.961 49.4636C374.185 49.7446 374.522 49.9068 374.878 49.9068H388.964C389.458 49.9068 389.897 49.5982 390.07 49.1312L391.728 44.6122C391.861 44.2482 391.81 43.8366 391.591 43.5201C391.371 43.1996 391.01 43.0096 390.622 43.0096H387.337C387.412 42.97 387.486 42.9305 387.565 42.8869C391.018 41.0627 392.775 39.4838 392.775 35.9343C392.775 34.0349 392.053 32.4442 390.693 31.3283C389.301 30.1926 387.329 29.6149 384.828 29.6149L384.832 29.6109Z" fill="white"/>
<path d="M408.358 30.802L406.304 40.4217H408.146L406.935 44.913H405.382L404.673 48.3952H398.616L399.325 44.913H391.638L392.481 40.9519L400.145 30.798H408.362M401.595 35.0242C400.78 36.4329 399.251 38.7716 398.173 40.4177H400.255L400.49 39.4086C400.701 38.4233 401.254 36.2469 401.595 35.0242ZM408.362 29.6069H400.145C399.776 29.6069 399.431 29.781 399.208 30.0778L391.544 40.2317C391.438 40.3702 391.363 40.5325 391.328 40.7026L390.485 44.6637C390.411 45.0159 390.497 45.3839 390.72 45.6609C390.944 45.9418 391.281 46.1041 391.638 46.1041H397.879L397.459 48.1538C397.389 48.506 397.475 48.8701 397.699 49.1471C397.922 49.424 398.259 49.5863 398.612 49.5863H404.669C405.229 49.5863 405.712 49.1906 405.825 48.6366L406.343 46.1041H406.935C407.468 46.1041 407.934 45.744 408.072 45.2256L409.283 40.7343C409.381 40.3781 409.307 39.9943 409.083 39.6975C408.86 39.4047 408.515 39.2306 408.146 39.2306H407.762L409.506 31.0513C409.581 30.6991 409.495 30.3311 409.271 30.0541C409.048 29.7731 408.711 29.6109 408.354 29.6109L408.362 29.6069Z" fill="white"/>
</svg>
