<?xml version="1.0" encoding="utf-8"?>
<!-- Generator: Adobe Illustrator 26.0.0, SVG Export Plug-In . SVG Version: 6.00 Build 0)  -->
<svg version="1.1" id="Layer_1" xmlns="http://www.w3.org/2000/svg" xmlns:xlink="http://www.w3.org/1999/xlink" x="0px" y="0px"
	 viewBox="0 0 1035.1 323.5" style="enable-background:new 0 0 1035.1 323.5;" xml:space="preserve">
<style type="text/css">
	.st0{fill:#3F245C;}
</style>
<g>
	<path class="st0" d="M139.2,246.3H1.9v-21.4L109.7,98.1H4.6V76.8h133.6v21.4L30,224.9h109.2V246.3z"/>
	<path class="st0" d="M268.7,91.9c11.5,10.7,17.3,27.5,17.3,50.4v104.1h-23.4v-29.2c-5.4,10.2-13.3,18-23.7,23.4
		c-10.4,5.4-21.4,8.1-32.9,8.1c-10.2,0-19.7-2-28.5-5.9s-15.9-9.7-21.2-17.3c-5.3-7.6-8-16.7-8-27.3c0-13.3,3.6-23.4,10.9-30.3
		c7.2-6.9,15.7-11.5,25.4-13.7c9.7-2.3,22.4-4.1,38-5.4c14-1.1,24.2-2.7,30.5-4.6c6.3-1.9,9.5-5.7,9.5-11.4
		c0-10.6-3.6-19.2-10.7-25.8c-7.1-6.6-16.8-9.8-29-9.8c-12.7,0-22.8,2.8-30.5,8.3c-7.7,5.5-12.5,14.6-14.6,27.3l-23.4-4.4
		c2.7-17.4,10.3-30.5,22.7-39.3c12.4-8.8,27.3-13.2,44.8-13.2C241.6,75.7,257.2,81.1,268.7,91.9z M182.6,223.2
		c7.2,6.1,16,9.2,26.4,9.2c8.8,0,17.3-2.2,25.6-6.6c8.2-4.4,15-11.1,20.2-20.2c5.2-9,7.8-19.9,7.8-32.6v-18.6
		c-3.2,3.2-7.5,5.3-13.1,6.4c-5.5,1.1-13.5,2.2-23.9,3.1c-11.8,0.9-21.2,2.2-28.3,3.7c-7.1,1.6-13.2,4.7-18.1,9.5
		c-5,4.7-7.5,11.8-7.5,21C171.7,208.8,175.4,217.1,182.6,223.2z"/>
	<path class="st0" d="M421.8,85.6c10.7,7.2,19.2,17.4,25.3,30.5c6.1,13.1,9.2,28.3,9.2,45.4c0,17-3,32-9,45.3
		c-6,13.2-14.2,23.5-24.8,30.7c-10.5,7.2-22.3,10.9-35.4,10.9c-27.8,0-47.5-10.3-59-30.9v96.6h-23.4V76.8h23.4v28.5
		c11.1-20.3,30.3-30.5,57.6-30.5C399,74.7,411.1,78.3,421.8,85.6z M419.1,211.2c9.4-11.6,14.1-28.2,14.1-49.7
		c0-21.5-4.7-38-14.2-49.7c-9.5-11.6-22.8-17.5-40-17.5c-15.6,0-28,5.7-37.1,17.1c-9.2,11.4-13.7,28.1-13.7,50
		c0,22.2,4.6,38.9,13.9,50.2c9.3,11.3,21.8,17,37.6,17C396.5,228.7,409.7,222.9,419.1,211.2z"/>
	<path class="st0" d="M521.5,32.9c-3.5,1.7-6,4.9-7.5,9.7c-1.5,4.7-2.2,12.1-2.2,22v10.2h25.4v21.4h-25.4v150.2h-23.7V96.1h-21V74.7
		h21V64.6c0-20.1,3.7-34.4,11-42.9c7.3-8.5,20.2-12.7,38.5-12.7v21.4C530.4,30.3,525,31.2,521.5,32.9z"/>
	<path class="st0" d="M580.3,246.3h-23.4V8.9h23.4V246.3z"/>
	<path class="st0" d="M610.2,113.9c7-13,16.6-22.8,28.8-29.3c12.2-6.6,25.9-9.8,41-9.8c15.4,0,29.2,3.2,41.5,9.7
		c12.3,6.4,22.1,16.2,29.3,29.2c7.2,13,10.9,29,10.9,48s-3.6,35-10.9,48c-7.2,13-17,22.7-29.3,29.2c-12.3,6.4-26.2,9.7-41.5,9.7
		c-15.1,0-28.8-3.3-41-9.8c-12.2-6.6-21.8-16.3-28.8-29.3c-7-13-10.5-28.9-10.5-47.6C599.6,142.8,603.1,126.9,610.2,113.9z
		 M722.7,112.5c-10.4-11-24.6-16.4-42.7-16.4c-17.6,0-31.5,5.5-41.7,16.6c-10.2,11.1-15.3,27.4-15.3,48.8c0,21.5,5.1,37.8,15.3,48.8
		c10.2,11.1,24.1,16.6,41.7,16.6c18.1,0,32.3-5.5,42.7-16.4c10.4-11,15.6-27.3,15.6-49C738.3,139.8,733.1,123.5,722.7,112.5z"/>
	<path class="st0" d="M783.8,113.9c7-13,16.6-22.8,28.8-29.3c12.2-6.6,25.9-9.8,41-9.8c15.4,0,29.2,3.2,41.5,9.7
		c12.3,6.4,22.1,16.2,29.3,29.2c7.2,13,10.9,29,10.9,48s-3.6,35-10.9,48c-7.2,13-17,22.7-29.3,29.2c-12.3,6.4-26.2,9.7-41.5,9.7
		c-15.1,0-28.8-3.3-41-9.8c-12.2-6.6-21.8-16.3-28.8-29.3c-7-13-10.5-28.9-10.5-47.6C773.2,142.8,776.7,126.9,783.8,113.9z
		 M896.3,112.5c-10.4-11-24.6-16.4-42.7-16.4c-17.6,0-31.5,5.5-41.7,16.6c-10.2,11.1-15.3,27.4-15.3,48.8c0,21.5,5.1,37.8,15.3,48.8
		c10.2,11.1,24.1,16.6,41.7,16.6c18.1,0,32.3-5.5,42.7-16.4c10.4-11,15.6-27.3,15.6-49C911.9,139.8,906.7,123.5,896.3,112.5z"/>
	<path class="st0" d="M1033.3,97.4c-19.9,0-34.3,6.6-43.2,19.7c-8.9,13.1-13.4,35-13.4,65.8v63.4h-23.7V76.8h23.7V108
		c5-12,12-20.6,21-25.9c9-5.3,20.7-8,34.9-8h0.7V97.4z"/>
</g>
</svg>
