<svg fill="none" height="70" viewBox="0 0 190 70" width="190" xmlns="http://www.w3.org/2000/svg"><g fill="#000"><path d="m68.5794 29.4771c0-.8121-.6264-1.4785-1.5033-1.4785s-1.5033.6664-1.5033 1.4785v11.994c0 .8122.6264 1.4786 1.5033 1.4786.8978 0 1.5033-.6664 1.5033-1.4786z"/><path d="m83.3833 27.9986c-.8768 0-1.4824.6664-1.4824 1.4785v5.1225l.0835 4.5811-1.8165-4.2897-2.3802-4.8725c-.7307-1.5202-1.5658-2.0199-2.756-2.0199-1.7538 0-2.5264 1.1036-2.5264 2.6862v10.7863c0 .8122.6054 1.4786 1.4825 1.4786.8769 0 1.4823-.6664 1.4823-1.4786l-.0208-5.0598-.0627-5.1851 1.9418 4.7476 2.4011 4.9559c.7517 1.5826 1.5451 2.0408 2.756 2.0408 1.5659 0 2.3802-.958 2.3802-2.7278v-10.7656c0-.8121-.6054-1.4785-1.4824-1.4785z"/><path d="m95.9514 31.0596 3.4033.0833c.7933.0208 1.4203-.583 1.4203-1.4576s-.627-1.4784-1.4203-1.4784l-9.8551-.0209c-.7724 0-1.4196.6038-1.4196 1.4784s.6472 1.4785 1.4196 1.4577l3.4243-.0625v10.4115c0 .8122.6262 1.4786 1.5033 1.4786.8977 0 1.5242-.6664 1.5242-1.4786z"/><path d="m106.041 42.7622h7.328c.773 0 1.399-.5831 1.399-1.3952 0-.8328-.626-1.4159-1.399-1.4159l-6.368.0208v-3.4775h5.512c.751 0 1.357-.5623 1.357-1.3326 0-.7913-.606-1.3536-1.357-1.3536l-5.512.0417v-2.8736h6.368c.773 0 1.399-.583 1.399-1.416 0-.8329-.626-1.3951-1.399-1.3951l-7.308.0208c-1.336 0-2.087.7496-2.087 2.0824v10.4115c0 1.3326.751 2.0823 2.067 2.0823z"/><path d="m126.705 36.8277c1.983-.5206 3.153-2.0615 3.153-4.1022 0-2.2697-1.483-4.5395-5.032-4.5395h-4.594c-1.336 0-2.087.7496-2.087 2.0824v11.2027c0 .8122.626 1.4786 1.545 1.4786.898 0 1.545-.6664 1.545-1.4786l-.021-3.9148h2.526l2.568 4.6228c.418.7081 1.295.9996 2.109.5831.814-.4372 1.044-1.3119.606-2.0197zm-5.491-5.8722h3.633c1.232 0 2.004.7704 2.004 1.9158 0 1.1244-.731 1.9574-1.963 1.9574h-3.674z"/><path d="m139.079 43.0329c3.049 0 5.012-1.3743 5.679-3.6024.355-1.2702-.396-2.1864-1.523-2.1864-.689 0-1.149.3539-1.421 1.1245-.417 1.1661-1.44 1.8949-2.901 1.8949-2.318 0-3.321-1.5618-3.321-4.8102 0-3.186 1.024-4.7061 3.321-4.7061 1.44 0 2.275.604 2.798 1.9991.292.7912.772 1.1452 1.481 1.1452 1.086 0 1.88-.8745 1.546-2.0823-.669-2.4571-2.61-3.8314-5.742-3.8314-4.301 0-6.494 2.6237-6.494 7.4755 0 4.8933 2.193 7.5796 6.577 7.5796z"/><path d="m153.924 42.9914c4.426 0 6.619-2.7072 6.619-7.5381 0-4.8726-2.255-7.5588-6.619-7.5588-4.385 0-6.577 2.7278-6.598 7.5588 0 4.8517 2.234 7.5381 6.598 7.5381zm0-2.7903c-2.464 0-3.528-1.5618-3.528-4.7478 0-3.2275 1.085-4.7893 3.507-4.7893 2.443 0 3.591 1.5618 3.57 4.7893 0 3.2067-1.086 4.7478-3.549 4.7478z"/><path d="m179.979 30.6015c0-1.645-1.023-2.6237-2.61-2.6237-1.294 0-2.276.7079-2.756 2.3321l-1.607 5.2267-1.066 3.7689-1.023-3.7689-1.712-5.2267c-.48-1.5201-1.315-2.3321-2.776-2.3321-1.608 0-2.61.9578-2.61 2.6237v10.8696c0 .8122.584 1.4786 1.441 1.4786.855 0 1.44-.6664 1.44-1.4786l-.021-5.2473-.146-5.6223 1.649 5.7472 1.754 5.0807c.376 1.1245 1.086 1.4994 2.004 1.4994.857 0 1.546-.3124 1.901-1.4577l1.67-5.1224 1.774-5.7888-.166 5.6639v5.2473c0 .8122.605 1.4786 1.44 1.4786.856 0 1.441-.6664 1.441-1.4786z"/><path d="m43.7964 37.421c0 .347-.1368.6799-.3803.9252-.2435.2454-.5736.3832-.918.3832s-.6745-.1378-.918-.3832c-.2436-.2453-.3803-.5782-.3803-.9252v-11.6891c0-.347.1367-.6797.3803-.9251.2435-.2454.5736-.3832.918-.3832s.6745.1378.918.3832.3803.5781.3803.9251zm-.4508 8.0992c-.1715.1729-4.9996 4.2279-13.851 4.2279s-13.6473-4.0333-13.8511-4.2064c-.1285-.1091-.2343-.2428-.3114-.3932-.0771-.1506-.124-.3149-.138-.4837-.0139-.1687.0053-.3386.0566-.5.0514-.1611.1338-.3107.2425-.4398.2241-.2612.5416-.4226.8833-.449.3416-.0263.6798.0847.9407.3085.0751.0542 4.3881 3.5791 12.1666 3.5791s12.1238-3.5467 12.1668-3.5791c.2637-.2219.603-.3314.9455-.3051.3427.0263.6616.1861.889.4456.2189.2575.3282.5916.3041.9296-.0241.3382-.1796.6532-.4328.8763zm-28.1635-19.7883c.0194-.348.1748-.6742.4321-.9073.2573-.233.5957-.3538.9412-.3362.3203.0184.6225.1556.8484.3852.2258.2297.3593.5354.3747.8583v11.6676c0 .3469-.1368.6797-.3802.925-.2435.2455-.5737.3833-.918.3833s-.6745-.1378-.918-.3833c-.2434-.2453-.3802-.5781-.3802-.925zm6.5125-2.5951c.0194-.3481.1748-.6743.4321-.9073s.5957-.3539.9412-.3362c.3203.0183.6225.1555.8484.3851.2258.2297.3593.5354.3747.8584v17.301c0 .3471-.1368.68-.3802.9253-.2435.2453-.5737.3831-.918.3831s-.6745-.1378-.918-.3831c-.2434-.2453-.3802-.5782-.3802-.9253zm6.5447-.6488c0-.347.1367-.6798.3802-.9252.2435-.2453.5737-.3832.9179-.3832.3444 0 .6746.1379.918.3832.2435.2454.3803.5782.3803.9252v18.8149c0 .347-.1368.6798-.3803.9252-.2434.2454-.5736.3832-.918.3832-.3442 0-.6744-.1378-.9179-.3832s-.3802-.5782-.3802-.9252zm6.4374.6488c0-.347.1368-.6798.3802-.9252.2435-.2453.5737-.3832.9179-.3832.3444 0 .6746.1379.918.3832.2435.2454.3803.5782.3803.9252v17.301c0 .3471-.1368.68-.3803.9253-.2434.2453-.5736.3831-.918.3831-.3442 0-.6744-.1378-.9179-.3831-.2434-.2453-.3802-.5782-.3802-.9253zm9.4736-7.1367h-29.2686c-.6378-.0043-1.2701.1183-1.8608.3606-.5907.2424-1.1281.5998-1.5816 1.0518-.4534.452-.814.9897-1.0609 1.5823-.247.5926-.3756 1.2285-.3784 1.8712v29.1957c.0028.6427.1314 1.2787.3784 1.8712.2469.5925.6075 1.1303 1.0609 1.5823.4535.4519.9909.8094 1.5816 1.0517.5907.2424 1.223.3648 1.8608.3606h29.2686c.6368.0042 1.2684-.1178 1.8582-.3596.5902-.2415 1.1271-.5981 1.5804-1.049.4533-.4508.8141-.9872 1.0617-1.5786.2477-.5912.3772-1.2261.3814-1.8678v-29.2065c-.0028-.6418-.131-1.2768-.3774-1.8687-.2462-.5919-.6057-1.1291-1.0581-1.581-.4524-.4518-.9885-.8094-1.578-1.0524-.5894-.243-1.2206-.3666-1.8574-.3638"/></g></svg>