<svg height="200" viewBox="0 0 680 200" width="680" xmlns="http://www.w3.org/2000/svg"><path d="m30 30h80v80h-80z"/><g fill="#fff"><path d="m40 95h30v5h-30z"/><path d="m69.62 39.96h7.13l7.91 12.72 7.9-12.72h7.13v30.07h-6.57v-19.62l-8.46 12.84h-.18l-8.37-12.72v19.5h-6.49z"/><path d="m40 40h13.7q5.7 0 8.75 3a9.25 9.25 0 0 1 2.55 6.87v.13a9.46 9.46 0 0 1 -1.78 5.94 10.37 10.37 0 0 1 -4.66 3.37l7.37 10.69h-7.72l-6.21-9.23h-5.46v9.22h-6.54zm13.3 14.59a5.53 5.53 0 0 0 3.7-1.2 3.92 3.92 0 0 0 1.3-3.09v-.08a3.82 3.82 0 0 0 -1.3-3.22 6 6 0 0 0 -3.82-1.07h-6.6v8.62z"/></g><path d="m140 30.19h36.5c10.15 0 18 2.85 23.26 8.1 4.45 4.45 6.85 10.72 6.85 18.25v.23c0 12.88-7 21-17.11 24.75l19.5 28.48h-20.53l-17.11-25.52h-13.8v25.52h-17.56zm35.36 38.81c8.55 0 13.45-4.56 13.45-11.29v-.23c0-7.53-5.24-11.4-13.8-11.4h-17.45v22.92z"/><path d="m213.5 88.47v-39.57h17.34v34.1c0 8.21 3.88 12.43 10.49 12.43s10.84-4.22 10.84-12.43v-34.1h17.33v61.1h-17.33v-8.67c-4 5.13-9.13 9.81-17.91 9.81-13.12.03-20.76-8.64-20.76-22.67z"/><path d="m296.32 102v8h-17.32v-83.23h17.34v30.91c4.22-5.7 10-9.92 19-9.92 14.26 0 27.83 11.17 27.83 31.59v.23c0 20.41-13.34 31.59-27.83 31.59-9.22 0-14.92-4.17-19.02-9.17zm29.54-22.46v-.23c0-10.15-6.85-16.88-14.95-16.88s-14.82 6.73-14.82 16.88v.23c0 10.15 6.73 16.88 14.82 16.88s14.95-6.58 14.95-16.84z"/><path d="m387 48.9h18l-23.5 62.61c-4.67 12.43-9.69 17.11-20.07 17.11a28.75 28.75 0 0 1 -15.4-4.22l5.82-12.55a15.74 15.74 0 0 0 7.41 2.4c3 0 4.56-.91 6-4l-23.87-61.35h18.36l13.91 41.63z"/><path d="m410.48 30.19h18.93l20.99 33.81 21-33.76h18.94v79.76h-17.47v-52.09l-22.47 34.09h-.46l-22.24-33.75v51.75h-17.22z"/><path d="m499.06 26.77h18.24v15.4h-18.24zm.45 22.13h17.34v61.1h-17.34z"/><path d="m525.9 48.9h17.34v8.66c4-5.13 9.12-9.8 17.91-9.8 13.11 0 20.75 8.66 20.75 22.69v39.55h-17.33v-34.07c0-8.22-3.88-12.44-10.49-12.44s-10.84 4.22-10.84 12.44v34.07h-17.34z"/><path d="m588.2 79.8v-.22c0-17.45 12.43-31.82 30.22-31.82 20.42 0 29.77 15.85 29.77 33.18 0 1.37-.11 3-.23 4.57h-42.54c1.71 7.87 7.19 12 14.94 12 5.82 0 10-1.82 14.83-6.27l9.92 8.78c-5.7 7.07-13.91 11.41-25 11.41-18.34-.03-31.91-12.92-31.91-31.63zm43.11-5.13c-1-7.75-5.59-13-12.89-13s-11.86 5.13-13.23 13z"/><path d="m0 0h680v200h-680z" fill="none"/><path d="m143.18 165.92v4.08h-3.18v-30.16h3.18v13.1c1.74-2.56 4.26-4.75 8.19-4.75 5.13 0 10.21 4.05 10.21 11.08v.08c0 7-5 11.12-10.21 11.12a9.65 9.65 0 0 1 -8.19-4.55zm15.13-6.53v-.08c0-5.05-3.47-8.27-7.52-8.27a8 8 0 0 0 -7.73 8.23v.08a8 8 0 0 0 7.73 8.27c4.13 0 7.52-3.06 7.52-8.23z"/><path d="m181.87 148.64h3.39l-9 22.08c-1.82 4.42-3.89 6-7.11 6a9.76 9.76 0 0 1 -4.55-1.07l1.07-2.52a6.8 6.8 0 0 0 3.35.78c1.91 0 3.1-1 4.39-4l-9.72-21.29h3.51l7.8 17.84z"/><path d="m200.42 165.3 2.36-2c1.78 2.68 3.6 4.13 6.61 4.13 3.27 0 5.67-2.36 5.67-6.95v-19.4h3.31v19.34c0 3.39-1 6-2.65 7.61a8.87 8.87 0 0 1 -6.37 2.4 9.91 9.91 0 0 1 -8.93-5.13z"/><path d="m224.26 159.39v-.08c0-6.16 4.34-11.12 10.26-11.12 6.32 0 10 5 10 11.28a8.7 8.7 0 0 1 0 1h-17.03c.45 4.63 3.72 7.23 7.52 7.23a8.84 8.84 0 0 0 6.74-3l2 1.78a11 11 0 0 1 -8.81 4c-5.88.03-10.68-4.48-10.68-11.09zm17-1.24c-.33-3.89-2.57-7.28-6.83-7.28-3.72 0-6.53 3.1-6.94 7.28z"/><path d="m250.39 164.35v-12.9h-3v-2.81h3v-6.45h3.18v6.45h6.78v2.81h-6.78v12.49c0 2.6 1.45 3.55 3.6 3.55a6.68 6.68 0 0 0 3.1-.74v2.73a8 8 0 0 1 -3.85.91c-3.42 0-6.03-1.7-6.03-6.04z"/><path d="m265.58 141.08h12.32c3.3 0 5.91.95 7.56 2.56a6.42 6.42 0 0 1 1.86 4.63v.08a7 7 0 0 1 -4.59 6.7c3.43 1 6.2 3 6.2 7v.08c0 5-4.17 7.89-10.5 7.89h-12.85zm18.42 7.64c0-2.85-2.27-4.71-6.4-4.71h-8.8v10h8.56c3.93 0 6.65-1.77 6.65-5.16zm-6.07 8.15h-9.13v10.21h9.72c4.38 0 7.11-1.94 7.11-5.17v-.08c0-3.14-2.63-4.96-7.69-4.96z"/><path d="m295 148.64h3.19v5.58c1.57-3.55 4.67-6.12 8.72-5.95v3.43h-.25c-4.67 0-8.47 3.35-8.47 9.8v8.5h-3.19z"/><path d="m309.42 163.81v-.08c0-4.51 3.72-6.9 9.14-6.9a22.57 22.57 0 0 1 6.57.91v-.74c0-3.84-2.35-5.83-6.37-5.83a14.9 14.9 0 0 0 -6.49 1.57l-.95-2.6a17.63 17.63 0 0 1 7.78-1.78c3 0 5.33.79 6.9 2.36a8.4 8.4 0 0 1 2.19 6.24v13.04h-3.06v-3.22a9.38 9.38 0 0 1 -7.73 3.68c-3.97.01-7.98-2.26-7.98-6.65zm15.75-1.65v-2.07a22.46 22.46 0 0 0 -6.28-.91c-4 0-6.24 1.74-6.24 4.43v.08c0 2.69 2.48 4.26 5.37 4.26 3.98.05 7.15-2.4 7.15-5.79z"/><path d="m334.61 140.46h3.64v3.54h-3.64zm.21 8.18h3.18v21.36h-3.18z"/><path d="m344.89 148.64h3.18v3.72a8.1 8.1 0 0 1 7.32-4.17c5.16 0 8.18 3.47 8.18 8.55v13.26h-3.18v-12.47c0-4-2.15-6.45-5.91-6.45s-6.41 2.69-6.41 6.7v12.22h-3.18z"/><path d="m368.18 167.29 1.61-2.28a12.49 12.49 0 0 0 7.4 2.73c2.57 0 4.43-1.32 4.43-3.39v-.08c0-2.15-2.53-3-5.34-3.76-3.35-1-7.07-2.11-7.07-6v-.08c0-3.68 3.06-6.12 7.28-6.12a14.68 14.68 0 0 1 7.69 2.35l-1.45 2.4a12.08 12.08 0 0 0 -6.32-2.06c-2.52 0-4.14 1.32-4.14 3.1v.08c0 2 2.65 2.81 5.5 3.68 3.31 1 6.86 2.27 6.86 6.12v.02c0 4-3.34 6.41-7.6 6.41a14.73 14.73 0 0 1 -8.85-3.12z"/></svg>