<svg height="25" width="96" xmlns="http://www.w3.org/2000/svg"><g fill="none" fill-rule="evenodd"><path d="m35.932 10.69h6.067v7.845c-.98.313-1.906.536-2.774.67-.868.123-1.76.19-2.662.19-2.312 0-4.071-.67-5.29-2.01-1.217-1.338-1.826-3.27-1.826-5.78 0-2.445.71-4.342 2.12-5.715 1.41-1.361 3.372-2.053 5.876-2.053 1.568 0 3.079.312 4.534.926l-1.083 2.567a7.836 7.836 0 0 0 -3.485-.826c-1.398 0-2.526.469-3.372 1.395-.846.927-1.263 2.188-1.263 3.761 0 1.641.338 2.902 1.015 3.762.677.87 1.67 1.294 2.966 1.294.677 0 1.365-.067 2.064-.212v-3.158h-2.899v-2.657h.012z" fill="#61686d"/><path d="m7.387 0-7.387 7.31 12.609 5.168z" fill="#6ac3e2"/><path d="m17.842 0h-10.455l5.222 12.478z" fill="#6e9fd4"/><path d="m17.842 24.967 7.387-7.31-12.62-5.18z" fill="#f2852f"/><path d="m7.387 24.967h10.455l-5.233-12.49z" fill="#f1c32e"/><path d="m0 17.656 7.387 7.31 5.222-12.488z" fill="#cbdc37"/><path d="m0 7.31v10.346l12.609-5.178z" fill="#b5d66d"/><path d="m25.229 17.7v-10.333l-12.62 5.167z" fill="#f26a21"/><path d="m48.586 19.183h-3.192v-16.105h3.192zm8.639.212c-1.884 0-3.35-.514-4.41-1.54-1.06-1.027-1.59-2.49-1.59-4.364 0-1.942.485-3.438 1.466-4.498s2.334-1.585 4.06-1.585c1.658 0 2.944.469 3.857 1.395.925.927 1.376 2.221 1.376 3.862v1.529h-7.545c.034.893.305 1.596.8 2.098.508.502 1.207.76 2.11.76.699 0 1.364-.068 1.996-.213s1.286-.38 1.962-.692v2.444c-.552.28-1.15.48-1.793.614-.609.123-1.376.19-2.29.19zm-.451-9.755c-.677 0-1.207.212-1.59.637-.384.424-.598 1.026-.655 1.808h4.478c-.012-.782-.215-1.384-.62-1.808-.407-.425-.937-.637-1.613-.637zm15.236 9.543-.62-1.574h-.08c-.54.67-1.093 1.139-1.657 1.395-.564.257-1.308.39-2.222.39-1.128 0-2.007-.312-2.65-.948s-.97-1.54-.97-2.712c0-1.228.429-2.132 1.297-2.712s2.177-.904 3.925-.97l2.03-.068v-.513c0-1.172-.61-1.764-1.816-1.764-.936 0-2.03.28-3.293.837l-1.06-2.131c1.342-.692 2.842-1.05 4.477-1.05 1.568 0 2.774.335 3.61 1.016.834.681 1.25 1.708 1.25 3.08v7.713h-2.22v.01zm-.947-5.357-1.23.044c-.924.023-1.612.19-2.075.503-.45.3-.676.77-.676 1.383 0 .893.518 1.34 1.545 1.34.744 0 1.33-.212 1.77-.636.44-.425.666-.983.666-1.675v-.96zm16.928 5.357h-3.191v-6.764c0-.837-.146-1.462-.428-1.875s-.722-.625-1.33-.625c-.813 0-1.41.302-1.783.893-.372.592-.552 1.574-.552 2.924v5.447h-3.192v-11.563h2.447l.429 1.485h.18c.316-.536.767-.949 1.365-1.25.598-.302 1.274-.447 2.041-.447 1.748 0 2.932.57 3.553 1.697h.282c.315-.536.778-.96 1.387-1.25.609-.302 1.297-.447 2.064-.447 1.32 0 2.323.335 3.011 1.005.677.67 1.015 1.752 1.015 3.236v7.545h-3.203v-6.764c0-.837-.147-1.462-.429-1.875-.281-.413-.721-.625-1.33-.625-.779 0-1.365.279-1.748.825-.384.547-.576 1.429-.576 2.634v5.793h-.01z" fill="#61686d"/></g></svg>