<svg height="49.400002" viewBox="0 0 372.61249 49.400002" width="372.61249" xmlns="http://www.w3.org/2000/svg" xmlns:xlink="http://www.w3.org/1999/xlink"><clipPath id="a"><path d="m0 0h2980.93v395h-2980.93z"/></clipPath><g clip-path="url(#a)" transform="matrix(.125 0 0 -.125 0 49.4)"><g fill="#2e2d2d"><path d="m909.57 335.523-69.488-68.449c-16.332 16.071-38.371 26.703-69.223 26.703-51.339 0-87.64-39.41-87.64-96.195 0-66.113 42.785-99.039 89.191-99.039 45.633 0 71.82 17.898 82.192 53.406h-85.043v72.09h180.449c1.566-11.418 2.09-22.309 2.09-32.664 0-121.0898-89.973-181.76172-175.278-181.76172-114.082 0-194.453 77.78902-194.453 187.96872 0 110.453 80.371 188.246 194.453 188.246 57.555 0 101.899-18.93 132.75-50.305"/><path d="m1075.16 197.582c0-55.48 36.57-93.848 89.46-93.848 52.9 0 89.45 38.368 89.45 93.848 0 55.496-36.55 93.859-89.45 93.859-52.89 0-89.46-38.363-89.46-93.859zm281.33 0c0-108.3672-79.61-188.23044-191.87-188.23044-112.27 0-191.862 79.86324-191.862 188.23044 0 108.379 79.592 188.246 191.862 188.246 112.26 0 191.87-79.867 191.87-188.246"/><path d="m1589.74 290.676v-64.563h62.23c24.36 0 42.26 10.11 42.26 32.145 0 22.047-17.9 32.418-42.26 32.418zm204.06-32.418c0-56.004-32.42-96.184-93.87-108.891l98.78-133.2693h-116.15l-87.38 128.8593h-5.44v-128.8593h-98.54v362.9843h161.79c92.31 0 140.81-47.707 140.81-120.824"/><path d="m1971.97 173.215h74.41l-37.08 107.336zm233.6-157.1173h-104.5l-24.1 69.2304h-135.61l-23.85-69.2304h-102.94l137.42 362.9843h116.16l137.42-362.9843"/><path d="m2227.53 16.0977h98.5195v362.984h-98.5195v-362.984z"/><path d="m2645.97 16.0977h-273.27v362.9843h98.51v-272.242h174.76v-90.7423"/><path d="m2933.48 266.812c-23.86 13.493-59.89 30.333-104.75 30.333-26.44 0-46.66-7.254-46.66-23.586 0-20.481 37.07-22.555 74.15-29.825l11.67-2.332c74.92-14.519 113.04-50.55 113.04-106.293 0-91.7887-77.53-125.75744-154.78-125.75744-65.09 0-124.19 15.56254-165.68 45.12504l48.22 80.3714c28.77-17.375 63.53-37.3363 118.75-37.3363 26.44 0 45.89 7.2543 45.89 25.1523 0 18.93-22.55 22.293-67.66 30.066l-13.75 2.336c-83.5 14.258-118.23 50.305-116.42 114.606 1.81 69.476 60.15 115.894 147.27 115.894 47.44 0 90.23-4.933 153.23-38.121z"/></g><path d="m0 0 244.109 395.18.34-3.356-18.972-328.0115z" fill="#d6452f"/><path d="m488.219 0-244.11 395.18v-4.711l33.45-326.6565z" fill="#ef503b"/></g></svg>