<?xml version="1.0" encoding="UTF-8"?>
<svg id="Layer_1" data-name="Layer 1" xmlns="http://www.w3.org/2000/svg" xmlns:xlink="http://www.w3.org/1999/xlink" viewBox="0 0 500 150">
  <defs>
    <style>
      .cls-1, .cls-2 {
        fill: none;
      }

      .cls-3 {
        fill: #231f20;
      }

      .cls-2 {
        clip-path: url(#clippath);
      }
    </style>
    <clipPath id="clippath">
      <rect class="cls-1" x="8.07" y="10.89" width="119.47" height="127.43"/>
    </clipPath>
  </defs>
  <g class="cls-2">
    <path class="cls-3" d="m122.46,112.73l-9.5-2.92,9.5-2.92c2.37-.73,3.98-2.93,4.52-6.18.43-2.6.14-5.75-.81-8.84-1.95-6.32-5.95-10.57-9.94-10.57-.55,0-1.08.08-1.6.24l-13.35,4.1c1.92-5.11,2.3-10.42,1.14-15.81-1.41-6.56-5.11-13.05-10.99-19.29-6.38-6.78-9.98-14.69-10.69-23.54-.53-6.67.86-11.41.88-11.45l1.43-4.67-4.7,1.34c-12.87,3.67-22.64,9.61-29.05,17.67-4.99,6.28-8,13.91-8.99,22.76-.02-.03-.05-.07-.07-.1-.6-.86-1.22-1.76-1.85-2.55l-2.76-3.43-1.76,4.03c-3.26,7.48-4.68,14.8-4.22,21.76.3,4.51,1.38,8.8,3.21,12.81l-11.86-3.64c-.52-.16-1.05-.24-1.6-.24-3.99,0-7.99,4.24-9.94,10.57-.96,3.09-1.24,6.24-.81,8.84.54,3.25,2.15,5.44,4.52,6.18l9.49,2.92-9.49,2.92c-2.37.73-3.98,2.92-4.52,6.18-.43,2.6-.15,5.74.81,8.84,1.95,6.32,5.95,10.57,9.94,10.57h0c.55,0,1.08-.08,1.6-.24l46.81-14.39,46.82,14.39c.52.16,1.05.24,1.6.24,3.99,0,7.99-4.24,9.94-10.57.95-3.1,1.24-6.24.81-8.84-.54-3.26-2.15-5.45-4.52-6.18Zm-7.1-24.15c.25-1.49.75-1.95.84-1.97,0,0,.02,0,.03,0,.96,0,3.47,2.34,4.86,6.83.71,2.29.94,4.63.65,6.41-.25,1.49-.75,1.95-.84,1.97,0,0-.02,0-.03,0-.96,0-3.47-2.34-4.86-6.83-.71-2.29-.94-4.63-.65-6.41Zm-.67,15.14l-31.81,9.79c-.06-.26-.18-.97-.05-1.63.13-.6.43-1.27,1.8-1.69,4.2-1.29,22.28-6.85,28.44-8.74.51.84,1.05,1.6,1.63,2.27Zm-3.77-7.16c-6.64,2.04-23.78,7.31-27.86,8.57-.07.03-.15.05-.22.07,5.69-2.82,11.18-7.26,15.02-12.96l12.15-3.73c-.26,2.44.06,5.26.92,8.05ZM37.02,57.21c1.16,1.59,2.48,3.17,4.08,4.27l4.17,2.85v-5.04c0-20.27,9.94-33.6,30.35-40.65-.28,2.23-.46,5.16-.2,8.54.52,6.99,3.04,17.36,12.13,27,9.69,10.28,12.55,20.93,8.27,30.79-2.92,6.74-8.8,12.13-14.94,15.3,2.03-2.42,3.71-5.27,4.56-8.46,1.05-3.98,1.14-10.1-4.4-16.65-7.4-8.76-10.64-17.46-10.67-17.55l-1.36-3.77-2.94,2.73c-7.9,7.33-13.2,14.32-15.74,20.77-2.24,5.7-2.41,11.06-.51,15.93.83,2.11,2.07,4.11,3.67,5.98-5.47-2.9-10.3-7.16-13.58-12.27-3.96-6.15-7.4-16.1-2.86-29.79Zm43.26,33.24c-1.58,5.98-7.59,10.92-11.68,12.77-2.74-1.04-12.38-5.27-14.41-13.66-.84-3.5-.29-7.43,1.67-11.68,2.1-4.58,5.83-9.55,11.09-14.8,1.73,3.64,4.96,9.51,10.02,15.49,3.26,3.86,4.38,7.85,3.32,11.88Zm-55.58,6.11c.86-2.79,1.18-5.61.92-8.05l11.24,3.46c2.92,3.93,6.64,7.37,10.93,10.11l-2.57.79c-6.8-2.09-16.05-4.93-20.52-6.31Zm-5.08-1.57c-1.39,4.48-3.9,6.83-4.85,6.83-.02,0-.03,0-.04,0-.09-.02-.59-.48-.84-1.97-.3-1.78-.06-4.13.65-6.41,1.39-4.48,3.9-6.83,4.86-6.83,0,0,.02,0,.03,0,.09.03.59.48.84,1.97.3,1.79.06,4.13-.65,6.41Zm1.31,8.73c.58-.67,1.12-1.44,1.62-2.28,2.85.87,8.25,2.54,13.65,4.2l-4.51,1.38-10.76-3.3Zm-7.16,17.15c.02-.39.06-.76.11-1.1.25-1.49.75-1.95.84-1.97l20.21-6.21h0c.06.2.28,1.38-.16,2.19-.09.19-.4.74-1.59,1.12-4.33,1.33-16.06,4.94-19.42,5.97Zm5.65,12.14s-.01,0-.03,0c-.96,0-3.47-2.34-4.86-6.82,1.34-.42,15.39-4.73,20.22-6.22,2.74-.84,4.09-2.48,4.73-3.71,1.51-2.84.64-5.89.53-6.23l14.45-4.44c4.61,1.92,9.48,3.01,14.06,3.12h.18c.27,0,.53.02.79.02,3.47,0,7.45-.92,11.41-2.63-1.35.85-2.13,1.89-2.58,2.74-1.51,2.83-.65,5.85-.54,6.23l-58.36,17.94Zm96.8,0s-.03,0-.03,0l-39.35-12.1,18.8-5.78c.13.37.28.75.48,1.13.65,1.22,2,2.86,4.73,3.71,4.84,1.49,18.89,5.81,20.23,6.22-1.39,4.48-3.9,6.82-4.86,6.82Zm-13.8-18.11c-1.09-.34-1.51-.84-1.69-1.33l3.2-.98,16.96,5.21c.09.02.59.48.84,1.97.06.34.09.71.11,1.1-3.36-1.04-15.09-4.65-19.42-5.97Z"/>
  </g>
  <path class="cls-3" d="m210.05,109.68h-15.96l-11.33-42.23-11.52,42.23h-16.04l-19.98-61.06h16.56l11.96,44.92,11.69-44.92h15.19l11.94,44.92,11.77-44.92h15.88l-20.15,61.06Z"/>
  <path class="cls-3" d="m276.69,98.43h-26.69l-4.46,11.25h-15.96l26.35-61.06h15.96l25.73,61.06h-16.58l-4.35-11.25Zm-4.54-11.77l-8.71-22.6-8.9,22.6h17.6Z"/>
  <path class="cls-3" d="m348.99,60.83h-29.75v14.15h27.4v12.21h-27.4v22.5h-15.52v-61.06h45.27v12.21Z"/>
  <path class="cls-3" d="m393.64,109.68l-9.06-17.19h-12.23v17.19h-15.52v-61.06h27.31c8.08,0,14.33,1.85,18.75,5.54,4.42,3.7,6.63,8.95,6.63,15.75,0,9.42-3.7,15.96-11.08,19.63l12.83,20.15h-17.63Zm-21.29-29.4h11.79c3.36,0,5.97-.84,7.83-2.52,1.86-1.69,2.79-4.14,2.79-7.33s-.93-5.52-2.79-7.15c-1.86-1.64-4.47-2.46-7.83-2.46h-11.79v19.46Z"/>
  <path class="cls-3" d="m435.93,109.68h-15.52v-61.06h15.52v61.06Z"/>
  <path class="cls-3" d="m472.04,47.93c9.14,0,17.17,2.27,24.08,6.79l-5.85,12.13c-3.2-1.86-6.63-3.38-10.29-4.56-3.66-1.19-6.73-1.79-9.23-1.79-4.49,0-6.73,1.48-6.73,4.44,0,1.92,1.1,3.46,3.31,4.63s4.9,2.18,8.06,3.02c3.18.83,6.35,1.85,9.52,3.04,3.17,1.2,5.85,3.14,8.06,5.81,2.21,2.67,3.31,6.04,3.31,10.1,0,5.88-2.3,10.46-6.9,13.75-4.58,3.28-10.43,4.92-17.52,4.92-5.06,0-10.06-.86-15-2.6-4.95-1.75-9.25-4.14-12.92-7.17l6.02-11.94c3.08,2.67,6.71,4.86,10.9,6.58,4.19,1.71,7.92,2.56,11.17,2.56,2.5,0,4.44-.45,5.83-1.35,1.4-.9,2.1-2.22,2.1-3.96s-.8-3.1-2.4-4.23c-1.6-1.14-3.59-1.98-5.98-2.52-2.38-.55-4.96-1.3-7.75-2.23-2.79-.93-5.39-1.95-7.77-3.06-2.38-1.11-4.37-2.86-5.98-5.27-1.6-2.42-2.4-5.31-2.4-8.69,0-5.58,2.22-10.04,6.67-13.38,4.46-3.34,10.34-5.02,17.67-5.02Z"/>
</svg>