<svg xmlns="http://www.w3.org/2000/svg" width="206" height="40" fill="none" viewBox="0 0 206 40"><path fill="#020202" fill-rule="evenodd" d="M58.016 25.636c.153.365.303.731.45 1.1.149-.38.302-.754.46-1.124.159-.369.327-.722.507-1.06l6.776-12.68c.084-.16.171-.286.26-.38a.813.813 0 0 1 .302-.207c.11-.042.234-.068.372-.079.136-.01.3-.016.49-.016h3.214v22.892h-3.752V19.296a21.169 21.169 0 0 1 .096-1.9l-6.919 12.981a1.826 1.826 0 0 1-.618.69 1.593 1.593 0 0 1-.886.245h-.586a1.59 1.59 0 0 1-.886-.246 1.818 1.818 0 0 1-.618-.689L49.665 17.35c.042.348.071.688.087 1.02.016.333.024.642.024.927v14.786h-3.752V11.19h3.213c.19 0 .354.006.492.016.136.01.26.037.372.08a.87.87 0 0 1 .308.205c.095.095.185.222.27.38l6.839 12.713c.178.337.345.688.498 1.052Zm21.729 6.008c.4 0 .77-.036 1.108-.109.337-.072.656-.182.957-.327.3-.145.59-.324.871-.537.28-.214.562-.466.847-.757v-2.718c-1.14 0-2.092.071-2.857.215-.766.143-1.38.327-1.845.55-.464.223-.794.484-.99.781a1.737 1.737 0 0 0-.292.973c0 .69.203 1.185.61 1.483.406.298.936.446 1.59.446Zm7.598 2.438h-1.757c-.37 0-.66-.055-.87-.166-.212-.11-.37-.335-.476-.673l-.348-1.155c-.411.37-.815.693-1.21.973-.397.28-.806.514-1.228.705a6.29 6.29 0 0 1-1.345.427 8.136 8.136 0 0 1-1.583.143c-.687 0-1.32-.093-1.9-.278a4.101 4.101 0 0 1-1.496-.834 3.793 3.793 0 0 1-.974-1.382c-.232-.55-.348-1.191-.348-1.922 0-.614.16-1.22.483-1.819.321-.598.857-1.138 1.607-1.62.75-.482 1.746-.882 2.991-1.2 1.246-.316 2.792-.476 4.639-.476v-.957c0-1.095-.23-1.906-.689-2.433-.459-.526-1.126-.79-2.002-.79-.633 0-1.162.075-1.583.222-.422.148-.79.315-1.1.5-.312.184-.6.35-.863.498a1.75 1.75 0 0 1-.87.222c-.265 0-.492-.07-.682-.206a1.628 1.628 0 0 1-.46-.507l-.711-1.25c1.868-1.71 4.121-2.565 6.76-2.565.95 0 1.797.156 2.54.467a5.403 5.403 0 0 1 1.892 1.298c.517.554.91 1.217 1.18 1.987.269.77.403 1.614.403 2.533v10.258Z" clip-rule="evenodd"/><mask id="a" width="17" height="23" x="88" y="17" maskUnits="userSpaceOnUse" style="mask-type:alpha"><path fill="#fff" fill-rule="evenodd" d="M88.974 17.555h15.514v22.242H88.974V17.555Z" clip-rule="evenodd"/></mask><g mask="url(#a)"><path fill="#020202" fill-rule="evenodd" d="M96.177 25.565c.485 0 .907-.066 1.266-.198.36-.131.657-.313.894-.546.238-.232.417-.512.539-.839a3.07 3.07 0 0 0 .182-1.076c0-.802-.24-1.438-.72-1.908-.481-.47-1.2-.704-2.161-.704-.96 0-1.681.235-2.16.704-.481.47-.722 1.106-.722 1.908 0 .38.06.733.183 1.06.121.328.3.61.538.847.237.238.538.423.902.554.364.132.784.198 1.259.198Zm4.29 9.2c0-.324-.095-.588-.285-.793-.19-.204-.45-.363-.776-.477a5.688 5.688 0 0 0-1.148-.25 11.38 11.38 0 0 0-1.392-.08h-1.52a6.489 6.489 0 0 1-1.513-.175 3.53 3.53 0 0 0-1.068.863A1.773 1.773 0 0 0 92.362 35c0 .285.07.552.213.8s.37.462.68.641c.312.18.716.32 1.212.42.496.1 1.103.15 1.82.15.73 0 1.357-.057 1.884-.17.528-.113.963-.269 1.307-.468.342-.2.593-.437.751-.712a1.76 1.76 0 0 0 .238-.897Zm-4.29-17.21c.697 0 1.35.07 1.963.213a6.697 6.697 0 0 1 1.678.626h4.67v1.456c0 .243-.063.433-.19.57-.127.137-.343.233-.649.285l-1.456.27a5.071 5.071 0 0 1 .332 1.836c0 .802-.161 1.527-.483 2.177a4.873 4.873 0 0 1-1.33 1.654c-.564.454-1.234.805-2.01 1.053a8.25 8.25 0 0 1-2.525.372 9.059 9.059 0 0 1-1.789-.175c-.507.309-.76.654-.76 1.037 0 .33.15.571.451.726.3.154.697.263 1.187.326.491.064 1.048.096 1.67.096.623 0 1.262.026 1.916.08.654.052 1.293.145 1.916.277a5.621 5.621 0 0 1 1.67.628c.491.286.887.675 1.187 1.167.301.493.452 1.125.452 1.898 0 .72-.177 1.42-.531 2.097-.354.677-.865 1.28-1.536 1.81-.67.53-1.49.956-2.461 1.279-.971.323-2.08.484-3.325.484-1.234 0-2.306-.118-3.214-.356-.907-.238-1.659-.554-2.256-.95-.596-.395-1.042-.852-1.337-1.37a3.215 3.215 0 0 1-.443-1.614c0-.76.232-1.398.696-1.915.464-.517 1.108-.93 1.932-1.235a2.685 2.685 0 0 1-.966-.887c-.243-.37-.364-.85-.364-1.44 0-.243.042-.494.126-.752a2.99 2.99 0 0 1 .389-.768c.173-.253.392-.494.656-.72.264-.227.575-.43.934-.61-.823-.443-1.47-1.034-1.94-1.773-.469-.739-.703-1.604-.703-2.596 0-.802.16-1.528.482-2.177.322-.65.77-1.203 1.346-1.663a6.142 6.142 0 0 1 2.042-1.052 8.696 8.696 0 0 1 2.573-.364Z" clip-rule="evenodd"/></g><path fill="#020202" fill-rule="evenodd" d="M106.308 34.082V17.84h2.39c.507 0 .839.237.997.712l.254 1.203c.285-.316.583-.606.894-.87.311-.264.644-.491.998-.681a5.062 5.062 0 0 1 2.477-.617c1.024 0 1.866.276 2.525.83.66.554 1.153 1.29 1.48 2.209.254-.538.571-1 .951-1.386a5.19 5.19 0 0 1 1.25-.941 5.765 5.765 0 0 1 1.449-.539 6.96 6.96 0 0 1 1.543-.174c.897 0 1.694.138 2.39.412a4.6 4.6 0 0 1 1.758 1.203c.475.528.836 1.172 1.084 1.932.248.76.372 1.63.372 2.612v10.337h-3.91V23.745c0-1.035-.227-1.813-.681-2.336-.454-.522-1.119-.783-1.995-.783-.401 0-.773.069-1.115.206a2.648 2.648 0 0 0-.903.594 2.708 2.708 0 0 0-.61.973c-.147.39-.221.84-.221 1.346v10.337h-3.926V23.745c0-1.087-.219-1.88-.657-2.375-.438-.496-1.084-.744-1.939-.744-.56 0-1.085.14-1.575.42-.491.28-.948.662-1.37 1.147v11.89h-3.91Zm31.155-2.438c.401 0 .77-.036 1.108-.109a4.23 4.23 0 0 0 .958-.327c.3-.145.59-.324.87-.537.28-.214.562-.466.847-.757v-2.718c-1.14 0-2.092.071-2.857.215-.766.143-1.38.327-1.844.55-.465.223-.795.484-.99.781a1.74 1.74 0 0 0-.293.973c0 .69.203 1.185.61 1.483.406.298.936.446 1.591.446Zm7.598 2.438h-1.756c-.371 0-.661-.055-.872-.166-.21-.11-.369-.335-.474-.673l-.349-1.155c-.411.37-.815.693-1.211.973-.395.28-.804.514-1.226.705-.423.19-.871.332-1.346.427a8.136 8.136 0 0 1-1.583.143c-.687 0-1.32-.093-1.9-.278a4.101 4.101 0 0 1-1.496-.834 3.787 3.787 0 0 1-.974-1.382c-.232-.55-.348-1.191-.348-1.922 0-.614.161-1.22.483-1.819.322-.598.857-1.138 1.607-1.62.749-.482 1.746-.882 2.992-1.2 1.245-.316 2.791-.476 4.638-.476v-.957c0-1.095-.23-1.906-.689-2.433-.459-.526-1.126-.79-2.002-.79-.633 0-1.161.075-1.583.222a6.146 6.146 0 0 0-1.1.5c-.312.184-.6.35-.863.498a1.749 1.749 0 0 1-.87.222c-.265 0-.492-.07-.682-.206a1.616 1.616 0 0 1-.459-.507l-.712-1.25c1.868-1.71 4.121-2.565 6.76-2.565.95 0 1.797.156 2.541.467a5.392 5.392 0 0 1 1.891 1.298 5.565 5.565 0 0 1 1.18 1.987c.269.77.403 1.614.403 2.533v10.258Zm6.064-1.377h10.623v1.377h-12.237v-22.4h1.614v21.023Zm16.907.538a6.74 6.74 0 0 0 1.686-.198 6.248 6.248 0 0 0 1.425-.554 6.97 6.97 0 0 0 1.227-.847c.38-.327.754-.68 1.124-1.06v-4.101c-1.499.042-2.789.156-3.871.34-1.082.185-1.974.436-2.675.753-.702.316-1.219.694-1.551 1.132-.333.438-.5.936-.5 1.496 0 .528.088.984.262 1.369.174.385.404.702.689.95.285.248.617.43.997.546.38.116.776.174 1.187.174Zm6.332.84c-.316 0-.511-.148-.585-.444l-.222-2.01c-.433.421-.863.801-1.29 1.14a7.675 7.675 0 0 1-1.338.854 6.562 6.562 0 0 1-1.504.53 8.052 8.052 0 0 1-1.773.183 5.22 5.22 0 0 1-1.567-.238 3.867 3.867 0 0 1-1.346-.728 3.58 3.58 0 0 1-.942-1.26c-.237-.51-.356-1.126-.356-1.843 0-.665.19-1.283.57-1.852.38-.57.974-1.066 1.781-1.489.808-.422 1.847-.76 3.119-1.013 1.272-.253 2.799-.4 4.583-.443v-1.646c0-1.457-.314-2.578-.942-3.364-.628-.787-1.559-1.18-2.794-1.18-.76 0-1.406.106-1.94.317a6.862 6.862 0 0 0-1.353.697 8.39 8.39 0 0 0-.902.696c-.233.211-.428.317-.586.317a.511.511 0 0 1-.475-.285l-.27-.46c.824-.823 1.689-1.445 2.597-1.868.907-.421 1.937-.633 3.087-.633.844 0 1.583.135 2.217.404a4.094 4.094 0 0 1 1.575 1.156c.417.5.731 1.108.941 1.82.211.712.317 1.507.317 2.383v10.258h-.602ZM185.85 19.28c-1.046 0-1.992.27-2.838.808-.846.538-1.602 1.287-2.268 2.248v8.31c.603.91 1.269 1.545 1.998 1.909.73.364 1.57.546 2.522.546.929 0 1.743-.169 2.441-.507a4.804 4.804 0 0 0 1.752-1.432c.471-.618.824-1.356 1.063-2.217.237-.86.356-1.807.356-2.841 0-2.343-.433-4.066-1.3-5.169-.866-1.103-2.109-1.654-3.726-1.654Zm-6.61 14.803V11.048h1.504l.016 10.037c.697-.928 1.504-1.662 2.423-2.2.918-.538 1.952-.808 3.102-.808 1.932 0 3.438.668 4.52 2.003 1.082 1.335 1.623 3.343 1.623 6.024 0 1.15-.151 2.224-.452 3.221-.301.998-.745 1.863-1.331 2.596a6.331 6.331 0 0 1-2.157 1.734c-.85.422-1.831.633-2.94.633-1.099 0-2.045-.213-2.838-.641-.792-.427-1.474-1.058-2.045-1.892l-.094 1.932c-.031.264-.172.396-.422.396h-.909Zm25.171-13.789a.364.364 0 0 1-.347.22c-.117 0-.267-.064-.452-.197a7.265 7.265 0 0 0-.728-.443 5.971 5.971 0 0 0-1.108-.443c-.438-.132-.974-.198-1.607-.198-.57 0-1.09.081-1.56.245a3.863 3.863 0 0 0-1.203.655 2.986 2.986 0 0 0-.776.955 2.497 2.497 0 0 0-.276 1.145c0 .494.126.905.38 1.232.252.326.585.605.997.836a7.56 7.56 0 0 0 1.401.6c.522.169 1.058.337 1.606.506.549.169 1.085.356 1.608.562.522.206.989.462 1.401.768.411.306.743.68.997 1.124.253.443.38.981.38 1.614 0 .687-.124 1.325-.372 1.916a4.352 4.352 0 0 1-1.077 1.536c-.469.433-1.047.775-1.733 1.029-.686.253-1.467.38-2.343.38-1.108 0-2.064-.177-2.865-.53a8.043 8.043 0 0 1-2.154-1.386l.364-.538a.618.618 0 0 1 .175-.19.484.484 0 0 1 .269-.063c.137 0 .305.084.507.253.2.169.461.35.783.546.322.195.723.377 1.203.546.48.169 1.074.253 1.781.253.665 0 1.251-.092 1.758-.277a3.665 3.665 0 0 0 1.266-.751c.338-.317.593-.69.768-1.117a3.55 3.55 0 0 0 .261-1.353c0-.528-.127-.966-.38-1.314a3.266 3.266 0 0 0-.997-.887 6.984 6.984 0 0 0-1.401-.617 93.264 93.264 0 0 0-1.615-.507 24.102 24.102 0 0 1-1.615-.554 5.84 5.84 0 0 1-1.401-.76 3.666 3.666 0 0 1-.997-1.116c-.254-.438-.38-.984-.38-1.638 0-.56.121-1.098.364-1.615.242-.517.588-.97 1.037-1.361.448-.39.994-.702 1.638-.934.644-.232 1.367-.35 2.169-.35.96 0 1.813.14 2.557.418a6.25 6.25 0 0 1 2.05 1.277l-.333.523Z" clip-rule="evenodd"/><mask id="b" width="17" height="24" x="0" y="11" maskUnits="userSpaceOnUse" style="mask-type:alpha"><path fill="#fff" fill-rule="evenodd" d="M0 11.358h16.651v22.715H0V11.358Z" clip-rule="evenodd"/></mask><g mask="url(#b)"><path fill="#FF5C5C" fill-rule="evenodd" d="M12.63 11.619.072 33.289a.522.522 0 0 0 .452.784h5.955c.373 0 .718-.199.904-.521l9.127-15.75a1.044 1.044 0 0 0 0-1.047l-2.976-5.136a.523.523 0 0 0-.905 0Z" clip-rule="evenodd"/></g><path fill="#CB3737" fill-rule="evenodd" d="m31.508 22.477-2.977 5.136a1.047 1.047 0 0 0 0 1.048l2.84 4.9c.187.322.531.52.904.52h5.956a.523.523 0 0 0 .452-.784l-6.27-10.82a.523.523 0 0 0-.905 0Z" clip-rule="evenodd"/><path fill="#F84848" fill-rule="evenodd" d="m25.216 11.619-9.27 15.994a1.047 1.047 0 0 0 0 1.048l2.977 5.136a.523.523 0 0 0 .904 0l9.27-15.994a1.044 1.044 0 0 0 0-1.048l-2.977-5.136a.522.522 0 0 0-.904 0Z" clip-rule="evenodd"/><mask id="c" width="8" height="13" x="15" y="0" maskUnits="userSpaceOnUse" style="mask-type:alpha"><path fill="#fff" fill-rule="evenodd" d="M15.805.5h7.138v11.841h-7.138V.5Z" clip-rule="evenodd"/></mask><g mask="url(#c)"><path fill="#CB3737" fill-rule="evenodd" d="M22.803 5.896 19.826.76a.523.523 0 0 0-.904 0l-2.977 5.136a1.047 1.047 0 0 0 0 1.048l2.977 5.136a.523.523 0 0 0 .904 0l2.977-5.136a1.047 1.047 0 0 0 0-1.048Z" clip-rule="evenodd"/></g></svg>