<svg id="PROCORE" xmlns="http://www.w3.org/2000/svg" viewBox="0 0 108 13.6"><defs><style>.cls-1{fill:#ff5200;}</style></defs><path id="_Compound_Path_" data-name="&lt;Compound Path&gt;" d="M112.54,20.2H126v2.53h-9.9v3h6.34v2.53H116.1v3H126V33.8H112.54ZM63.35,23V31a2.68,2.68,0,0,1-2.77,2.77H51.82A2.69,2.69,0,0,1,49,31V23a2.69,2.69,0,0,1,2.78-2.77h8.76A2.68,2.68,0,0,1,63.35,23Zm-2.2,4-2.48-4.27h-5L51.25,27l2.47,4.27h5Zm47.33,1.81,2.89,5h-3.84l-2.88-5h-4.16v5H96.93V20.2h11.29A2.68,2.68,0,0,1,111,23v3.08A2.67,2.67,0,0,1,108.48,28.81Zm-1-5.24a.85.85,0,0,0-.84-.84h-6.1v3.56h6.1a.85.85,0,0,0,.84-.84ZM95.29,23V31a2.69,2.69,0,0,1-2.78,2.77H83.75A2.68,2.68,0,0,1,81,31V23a2.68,2.68,0,0,1,2.77-2.77h8.76A2.69,2.69,0,0,1,95.29,23Zm-2.21,4-2.47-4.27h-5L83.18,27l2.48,4.27h5ZM76.6,20.2H67.84A2.69,2.69,0,0,0,65.06,23V31a2.69,2.69,0,0,0,2.78,2.77H76.6A2.68,2.68,0,0,0,79.37,31V28.82H76.11l-1.42,2.45h-5L67.27,27l2.47-4.27h5l1.42,2.45h3.26V23A2.68,2.68,0,0,0,76.6,20.2ZM45,28.81l2.89,5H44.08l-2.89-5H37v5H33.48V20.2H44.76A2.69,2.69,0,0,1,47.54,23v3.08A2.67,2.67,0,0,1,45,28.81Zm-1-5.24a.85.85,0,0,0-.85-.84H37v3.56h6.09a.85.85,0,0,0,.85-.84ZM32.06,23v3.08a2.68,2.68,0,0,1-2.77,2.77H21.56v5H18V20.2H29.29A2.68,2.68,0,0,1,32.06,23Zm-3.56.6a.85.85,0,0,0-.85-.84H21.56v3.56h6.09a.85.85,0,0,0,.85-.84Z" transform="translate(-18 -20.2)"/><polygon class="cls-1" points="52.91 4.56 51.61 6.8 52.91 9.04 55.51 9.04 56.81 6.8 55.51 4.56 52.91 4.56"/></svg>