<svg height="70" viewBox="0 0 190 70" width="190" xmlns="http://www.w3.org/2000/svg"><path d="m58.7120506 22.08c4.5738045 0 6.3842905 1.013069 6.6810402 1.2248096.1084779.0777077.1408127.1927047.1408127.2881444l-.8803401 3.7281461c0 .2039177-.212262.4323471-.4419953.3622015-.7309221-.2263433-1.879067-.6954581-4.5448597-.6954581-3.0793647 0-6.3595179.9116317-6.3595179 7.8398764 0 6.9269408 3.1500318 7.750695 5.4048601 7.750695 1.9114018 0 2.6026877-.2357309 2.6026877-.2357309v-4.7941502h-3.0788432c-.2036568 0-.3687206-.1658461-.3687206-.3692422v-3.858789c0-.2039176.1650638-.3689813.3687206-.3689813h7.8925508c.2036568 0 .3687206.1650637.3687206.3689813v12.0350513c0 .0691025-.0117344.2198242-.1196908.2795392 0 0-2.6191158 1.8449069-6.9365891 1.8449069-5.2145022 0-11.4024372-1.6057861-11.4024372-12.3821284s5.40486-13.0178716 10.6736012-13.0178716zm55.1143444 8.5705377c.202613 0 .366895.1666284.366895.3715891v9.9437221c0 1.5567624.421916 2.278297 2.011796 2.278297 1.59014 0 2.710644-.8195819 2.710644-.8195819v-11.4024372c0-.2049607.164803-.3715891.366895-.3715891h4.409784c.203396 0 .367938.1666284.367938.3715891l.001565 15.6103895c0 .2041784-.165585.3710675-.367417.3710675l-2.847284.0127774c-.142378 0-.274064-.1011765-.324391-.20131-.050588-.1003942-.162195-.9473564-.162195-.9473564s-2.345314 1.6070899-5.2544 1.6070899c-3.545611 0-6.123004-1.131456-6.123004-5.7561095v-10.6965484c0-.2049607.165585-.3715891.367417-.3715891zm17.344211-7.6503008c.202353 0 .366634.1655853.366634.3708068v7.874558s1.703573-1.1176355 4.208213-1.1176355c2.506466 0 6.216098.9366651 6.216098 8.1048129 0 7.1676262-2.322627 9.2219268-6.372817 9.2219268-3.44965 0-5.271871-1.7267807-5.271871-1.7267807s-.110824.9473564-.18775 1.0722625c-.077968.1256883-.183317.1973985-.322565.1973985h-3.092142c-.203136 0-.367678-.1668891-.367678-.3721106v-23.2544319c0-.2052215.164542-.3708068.367156-.3708068zm-47.8189439 2.9591525c.1927048 0 .278757.0831837.278757.2500729 0 .0000539.0000235.0210459.0000674.0600876l.0008557.7607367c.0000682.060673.0001391.1236923.0002123.1886967l.0007075.6288933c.0000829.0736665.0001668.1482351.0002513.2233447l.0007661.6808485c.0000845.0751069.0001684.1496718.0002513.2233336l.0007075.6288263c.0000731.0649942.000144.1280023.0002123.1886633l.0009231.8203555h3.3336098c.2031354 0 .3676776.1653245.3676776.3705459v3.5821182c0 .2057429-.1645422.371589-.3676776.371589h-3.3338706l.0002608 6.5381414c0 .985428.5546455 1.7468595 2.1922448 1.7468595.5116194 0 1.0083753-.0790115 1.2029054-.0790115.1950516 0 .3684598.1661068.3684598.3713282l-.0039114 3.1458596c0 .1481141-.0766647.2850153-.2086114.3335175-.2182597.0805761-1.5403343.4354762-2.6457138.4354762-2.4185882 0-6.0030532-.5019711-6.0030532-5.6121676v-6.8800033h-2.3291461c-.2031353 0-.3674168-.1658461-.3674168-.371589v-2.8598013c0-.1687144.1129109-.3100486.2659795-.3543786.0693503-.0199484.5684784-.1422325 1.096541-.2707106l.3519294-.0855146c.5211275-.1264832.982113-.2377957.982113-.2377957v-4.5508572c0-.1697575.0946574-.2474652.2714555-.2474652zm10.9807815-2.9591525c.2033961 0 .3666345.1655853.3666345.3708068v8.5882697h6.9272019l-.000828-5.4519106c-.000014-.0943645-.000029-.1879229-.000043-.2804736l-.000433-2.8558855c0-.2052215.165064-.3708068.367938-.3708068h4.443944c.203918 0 .366635.1655853.366635.3708068v23.2544319c-.000522.2052215-.163239.3721106-.366896.3721106h-4.454374c-.203396 0-.368199-.1668891-.368199-.3721106l.000357-.2897584c.000045-.0372096.000095-.0777159.000149-.1213497l.000817-.662912c.000081-.0659497.000165-.1343508.000252-.2050342l.000555-.4501348c.000098-.0791361.000197-.1602164.0003-.2430718l.000972-.7890601c.00034-.2759524.000694-.5633155.001056-.8575244l.000735-.5961931c.000124-.100436.000248-.2012945.000373-.3024064l.000749-.6083602c.000375-.3043482.000749-.6079341.001117-.9061929l.000725-.5880621c.000118-.0963757.000236-.1918214.000352-.2861679l.00068-.5515373c.00011-.0892738.000218-.1771103.000324-.2633406l.000898-.7281365c.000092-.0750707.000182-.1480278.000269-.2187024l.000702-.5698759c.000069-.0554574.000134-.1081249.000195-.1578336l.000679-.5509362h-6.9272019v9.9465905c0 .2052215-.1632384.3721106-.3666345.3721106h-4.4436832c-.2020922 0-.367156-.1668891-.367156-.3721106v-23.2544319c0-.2052215.1650638-.3708068.367156-.3708068zm-20.5033694 7.6150977c.2031353 0 .3676775.1666283.3676775.3705459v15.4145556c0 .3786297-.1074348.5937602-.5455187.5937602h-3.9912572c-.3642876 0-.645913-.1345544-.645913-.5864588v-15.3788309c0-.2039176.1817527-.413572.384888-.413572zm63.0074168 7.8962014c0-3.7883826-1.530165-4.267928-3.118219-4.1258115-1.255841.1121286-2.27934.7395273-2.27934.7395273v7.3642425s1.037581.6941543 2.567224.7405704c2.139831.0646695 2.830335-.7238815 2.830335-4.7185287zm-65.1876665-14.9822084c1.5828388 0 2.8655381 1.2931297 2.8655381 2.8934398 0 1.5984847-1.2826993 2.8950044-2.8655381 2.8950044-1.5812742 0-2.8652773-1.2965197-2.8652773-2.8950044 0-1.6003101 1.2840031-2.8934398 2.8652773-2.8934398z" fill-rule="evenodd"/></svg>