<?xml version="1.0" encoding="utf-8"?>
<!-- Generator: Adobe Illustrator 27.6.1, SVG Export Plug-In . SVG Version: 6.00 Build 0)  -->
<svg version="1.1" id="Layer_1" xmlns="http://www.w3.org/2000/svg" xmlns:xlink="http://www.w3.org/1999/xlink" x="0px" y="0px"
	 viewBox="0 0 941.8 200.8" style="enable-background:new 0 0 941.8 200.8;" xml:space="preserve">
<style type="text/css">
	.st0{fill:#515151;}
</style>
<path class="st0" d="M58.6,113.5c0-8.6,0-17.1,0-25.8c25.6,0,51,0,76.7,0c0,8.6,0,17.1,0,25.8C109.9,113.5,84.4,113.5,58.6,113.5z
	 M128.7,140.3c0-6.6-0.1-13.2,0.1-19.8c0.1-2.4-0.7-3-3-3c-24.7,0.1-49.4,0-74.1,0.1c-0.9,0-1.7,0.1-2.7,0.2c0,8.5,0,16.7,0,25.1
	c26.5,0,52.9,0,79.6,0C128.6,141.9,128.7,141.1,128.7,140.3z M130.4,83.4c0-7.9,0-15.6,0-23.5c-26.6,0-53.1,0-79.7,0
	c0,7.8,0,15.5,0,23.5C77.4,83.4,103.8,83.4,130.4,83.4z M221,69.3l5.3-9c-3.2-1.9-6.2-2.8-9-2.8c-3.7,0-7.3,1.2-10.7,3.6
	c-3.4,2.4-6.7,6-9.7,10.8V59.6h-10.3V143h10.3v-28.2c0-14.5,0.6-24.1,1.9-28.8c1.6-6.2,4-10.7,7.1-13.7c3.1-2.9,6.4-4.4,9.7-4.4
	C217.1,67.8,218.8,68.3,221,69.3L221,69.3z M291.1,132c7.6-8.7,11.5-18.9,11.5-30.5s-3.6-21.6-10.8-30.1c-8-9.3-18-13.9-30.1-13.9
	c-12.2,0-22.2,4.7-30.2,14c-7.2,8.5-10.8,18.5-10.8,30c0,11.6,3.8,21.8,11.5,30.5c7.6,8.7,17.5,13.1,29.5,13.1
	S283.5,140.7,291.1,132L291.1,132z M283.2,77.8c6.1,6.6,9.1,14.6,9.1,23.9c0,6-1.4,11.6-4.1,16.9c-2.8,5.2-6.5,9.2-11.2,12.1
	c-4.7,2.8-9.8,4.3-15.4,4.3s-10.7-1.4-15.4-4.3c-4.7-2.8-8.4-6.9-11.2-12.1s-4.1-10.8-4.1-16.9c0-9.3,3-17.3,9.1-23.9
	c6-6.6,13.3-9.9,21.7-9.9C270,67.9,277.2,71.2,283.2,77.8L283.2,77.8z M418,142.9h10.3V97.4c0-10.4-1-18.2-3-23.4s-5.1-9.3-9.3-12.2
	c-4.2-2.9-8.9-4.4-14.4-4.4c-5.8,0-11.2,1.7-16.3,5.1c-5,3.4-9.2,8.4-12.6,14.9c-1.6-4.9-3.5-8.7-5.6-11.3c-2.2-2.6-5-4.7-8.4-6.3
	s-7-2.4-10.8-2.4c-5.6,0-11,1.6-16.1,4.9c-3.7,2.5-7.3,6.3-10.8,11.6V59.6h-10.1V143H321v-35.3c0-10.4,1-18.2,2.9-23.2
	c1.9-5.1,5-9.1,9-12.1c4.1-3,8.4-4.5,13.1-4.5c4,0,7.5,1.1,10.5,3.3c2.9,2.2,5,5.1,6.2,8.7s1.8,10.4,1.8,20.5v42.7h10.1v-32.6
	c0-12,0.9-20.5,2.8-25.6s4.8-9.2,8.9-12.3c4.1-3.1,8.5-4.6,13.4-4.6c4,0,7.5,1,10.4,3.1c2.9,2,5,4.7,6.2,8.1
	c1.2,3.3,1.8,9.5,1.8,18.4L418,142.9L418,142.9z M509.4,132.2c7.9-8.6,11.8-19,11.8-31.2c0-12-4-22.3-11.9-30.8
	s-17.5-12.8-28.6-12.8c-6.4,0-12.2,1.5-17.4,4.4c-5.2,2.9-9.8,7.3-13.8,13.1V59.6h-10.1v113.9h10.1v-44.8c4.2,5.5,9,9.6,14.2,12.3
	c5.2,2.8,11,4.1,17.2,4.1C492.1,145.1,501.6,140.8,509.4,132.2L509.4,132.2z M506.8,84.5c2.8,5.3,4.2,10.9,4.2,16.8
	s-1.4,11.5-4.2,16.8c-2.8,5.4-6.6,9.5-11.4,12.5s-9.9,4.5-15.3,4.5c-5.5,0-10.8-1.5-15.7-4.4c-5-3-8.8-7-11.5-12
	c-2.7-5.1-4-10.7-4-17.1c0-9.6,3-17.7,9-24.2s13.3-9.7,22.1-9.7c5.6,0,10.8,1.5,15.6,4.4C500.2,75.1,503.9,79.2,506.8,84.5
	L506.8,84.5z M546.9,67.4c5.2,0,10.4,2.8,15.9,8.4l6.5-7.1c-7.3-7.5-14.6-11.3-21.8-11.3c-6.2,0-11.4,2.1-15.4,6.3
	c-4.1,4.2-6.1,9.5-6.1,15.8c0,4.9,1.3,9.2,3.8,13c2.6,3.8,7.4,7.6,14.5,11.5c6.6,3.6,10.9,6.5,12.7,8.9c1.9,2.4,2.8,5.1,2.8,8.2
	c0,3.7-1.4,7-4.3,9.7c-2.8,2.8-6.3,4.1-10.3,4.1c-5.8,0-11.3-3.1-16.4-9.3l-6.4,7.7c2.7,3.7,6.1,6.6,10.2,8.7
	c4.1,2.1,8.4,3.1,13,3.1c6.8,0,12.5-2.4,17-7.1c4.5-4.8,6.8-10.5,6.8-17.4c0-4.9-1.3-9.2-4-13.1c-2.7-3.8-7.8-7.8-15.3-12
	c-6.2-3.4-10.2-6.3-12.2-8.8c-1.9-2.5-2.9-5-2.9-7.7c0-3.1,1.2-5.7,3.5-8C540.8,68.6,543.6,67.4,546.9,67.4L546.9,67.4z
	 M575.3,142.9h10.1V27.4h-10.1V142.9L575.3,142.9z M662.7,132c7.6-8.7,11.5-18.9,11.5-30.5s-3.6-21.6-10.8-30.1
	c-8-9.3-18-13.9-30.1-13.9c-12.2,0-22.2,4.7-30.2,14c-7.2,8.5-10.8,18.5-10.8,30c0,11.6,3.8,21.8,11.5,30.5
	c7.6,8.7,17.5,13.1,29.5,13.1C645.3,145.1,655.1,140.7,662.7,132L662.7,132z M654.9,77.8c6.1,6.6,9.1,14.6,9.1,23.9
	c0,6-1.4,11.6-4.1,16.9c-2.8,5.2-6.5,9.2-11.2,12.1c-4.7,2.8-9.8,4.3-15.4,4.3c-5.6,0-10.7-1.4-15.4-4.3c-4.7-2.8-8.4-6.9-11.2-12.1
	s-4.1-10.8-4.1-16.9c0-9.3,3-17.3,9.1-23.9c6-6.6,13.3-9.9,21.7-9.9C641.6,67.9,648.8,71.2,654.9,77.8L654.9,77.8z M789.6,142.9
	h10.3V97.4c0-10.4-1-18.2-3-23.4s-5.1-9.3-9.3-12.2c-4.2-2.9-8.9-4.4-14.4-4.4c-5.8,0-11.2,1.7-16.3,5.1c-5,3.4-9.2,8.4-12.6,14.9
	c-1.6-4.9-3.5-8.7-5.6-11.3c-2.2-2.6-5-4.7-8.4-6.3s-7-2.4-10.8-2.4c-5.6,0-11,1.6-16.1,4.9c-3.7,2.5-7.3,6.3-10.8,11.6V59.6h-10.1
	V143h10.1v-35.3c0-10.4,1-18.2,2.9-23.2s5-9.1,9-12.1c4.1-3,8.4-4.5,13.1-4.5c4,0,7.5,1.1,10.5,3.3c2.9,2.2,5,5.1,6.2,8.7
	s1.8,10.4,1.8,20.5v42.7h10.1v-32.6c0-12,0.9-20.5,2.8-25.6c1.9-5.1,4.8-9.2,8.9-12.3c4.1-3.1,8.5-4.6,13.4-4.6c4,0,7.5,1,10.4,3.1
	c2.9,2,5,4.7,6.2,8.1c1.2,3.3,1.8,9.5,1.8,18.4v45.3H789.6z M881,132.2c7.9-8.6,11.8-19,11.8-31.2c0-12-4-22.3-11.9-30.8
	s-17.5-12.8-28.6-12.8c-6.4,0-12.2,1.5-17.4,4.4c-5.2,2.9-9.8,7.3-13.8,13.1V59.6H811v113.9h10.1v-44.8c4.2,5.5,9,9.6,14.2,12.3
	c5.2,2.8,11,4.1,17.2,4.1C863.7,145.1,873.2,140.8,881,132.2L881,132.2z M878.4,84.5c2.8,5.3,4.2,10.9,4.2,16.8s-1.4,11.5-4.2,16.8
	c-2.8,5.4-6.6,9.5-11.4,12.5c-4.8,3-9.9,4.5-15.3,4.5c-5.5,0-10.8-1.5-15.7-4.4c-5-3-8.8-7-11.5-12c-2.7-5.1-4-10.7-4-17.1
	c0-9.6,3-17.7,9-24.2s13.3-9.7,22.1-9.7c5.6,0,10.8,1.5,15.6,4.4C871.8,75.1,875.6,79.2,878.4,84.5L878.4,84.5z"/>
</svg>
