<svg width="50" height="50" viewBox="0 0 50 50" fill="none" xmlns="http://www.w3.org/2000/svg">
<path d="M0 25C0 31.6304 2.63392 37.9893 7.32233 42.6777C12.0107 47.3661 18.3696 50 25 50C31.6304 50 37.9893 47.3661 42.6777 42.6777C47.3661 37.9893 50 31.6304 50 25C50 18.3696 47.3661 12.0107 42.6777 7.32233C37.9893 2.63392 31.6304 0 25 0C18.3696 0 12.0107 2.63392 7.32233 7.32233C2.63392 12.0107 0 18.3696 0 25ZM29.0039 37.5977C28.0859 38.5156 26.6016 38.5156 25.6934 37.5977C24.7852 36.6797 24.7754 35.1953 25.6934 34.2871L32.627 27.3535L11.7188 27.3438C10.4199 27.3438 9.375 26.2988 9.375 25C9.375 23.7012 10.4199 22.6562 11.7188 22.6562H32.627L25.6934 15.7227C24.7754 14.8047 24.7754 13.3203 25.6934 12.4121C26.6113 11.5039 28.0957 11.4941 29.0039 12.4121L39.9414 23.3398C40.8594 24.2578 40.8594 25.7422 39.9414 26.6504L29.0039 37.5977Z" fill="white"/>
</svg>
